<svg width="309" height="230" viewBox="0 0 309 230" fill="none" xmlns="http://www.w3.org/2000/svg">
<path d="M309 202.12H0V202.275H309V202.12Z" fill="#EBEBEB"/>
<path d="M195.084 206.325H179.35V206.479H195.084V206.325Z" fill="#EBEBEB"/>
<path d="M281.462 209.664H244.178V209.819H281.462V209.664Z" fill="#EBEBEB"/>
<path d="M176 206.399H137.48V206.553H176V206.399Z" fill="#EBEBEB"/>
<path d="M112.501 211.016H104.442V211.171H112.501V211.016Z" fill="#EBEBEB"/>
<path d="M157.028 211.016H120.331V211.171H157.028V211.016Z" fill="#EBEBEB"/>
<path d="M56.1823 208.411H32.4202V208.566H56.1823V208.411Z" fill="#EBEBEB"/>
<path d="M146.466 174.587H27.1364C26.2016 174.585 25.3056 174.213 24.6451 173.552C23.9847 172.891 23.6138 171.995 23.6138 171.062V3.4942C23.6219 2.56572 23.9964 1.67794 24.656 1.0237C25.3156 0.369458 26.2069 0.00159053 27.1364 0H146.466C147.402 0 148.299 0.37139 148.961 1.03247C149.623 1.69355 149.995 2.59016 149.995 3.52507V171.062C149.995 171.996 149.623 172.893 148.961 173.554C148.299 174.215 147.402 174.587 146.466 174.587ZM27.1364 0.123471C26.2425 0.125106 25.3859 0.480956 24.7544 1.11291C24.1229 1.74487 23.7683 2.6013 23.7683 3.4942V171.062C23.7683 171.954 24.1229 172.811 24.7544 173.443C25.3859 174.075 26.2425 174.431 27.1364 174.432H146.466C147.36 174.431 148.218 174.075 148.85 173.443C149.483 172.811 149.839 171.955 149.84 171.062V3.4942C149.839 2.60073 149.483 1.74432 148.85 1.11254C148.218 0.480755 147.36 0.125102 146.466 0.123471H27.1364Z" fill="#EBEBEB"/>
<path d="M280.146 174.587H160.81C159.874 174.585 158.978 174.213 158.316 173.552C157.655 172.892 157.283 171.996 157.281 171.062V3.4942C157.291 2.56516 157.667 1.67739 158.327 1.02332C158.988 0.369242 159.88 0.00157319 160.81 0H280.146C281.074 0.003213 281.964 0.371799 282.622 1.02587C283.28 1.67994 283.654 2.56679 283.662 3.4942V171.062C283.662 171.994 283.292 172.889 282.633 173.55C281.974 174.211 281.079 174.583 280.146 174.587ZM160.81 0.123471C159.915 0.125102 159.058 0.480755 158.426 1.11254C157.793 1.74432 157.437 2.60073 157.436 3.4942V171.062C157.437 171.955 157.793 172.811 158.426 173.443C159.058 174.075 159.915 174.431 160.81 174.432H280.146C281.04 174.431 281.897 174.075 282.53 173.443C283.162 172.811 283.518 171.955 283.52 171.062V3.4942C283.518 2.60073 283.162 1.74432 282.53 1.11254C281.897 0.480755 281.04 0.125102 280.146 0.123471H160.81Z" fill="#EBEBEB"/>
<path d="M58.4319 202.12H88.5161L88.5161 125.285H58.4319L58.4319 202.12Z" fill="#E6E6E6"/>
<path d="M61.454 202.12H58.4258V191.656H64.6243L61.454 202.12Z" fill="#F0F0F0"/>
<path d="M105.567 202.12H135.651V125.285H105.567L105.567 202.12Z" fill="#E6E6E6"/>
<path d="M58.4258 195.7H108.212L108.212 125.285H58.4258L58.4258 195.7Z" fill="#F0F0F0"/>
<path d="M60.774 147.72H105.863V128.409H60.774V147.72Z" fill="#E6E6E6"/>
<path d="M78.9062 134.403H85.7042C88.652 134.403 91.4763 132.02 93.5095 127.816H71.1008C73.1279 132.02 75.9521 134.403 78.9062 134.403Z" fill="#F0F0F0"/>
<path d="M105.183 202.12H108.211V191.656H102.013L105.183 202.12Z" fill="#F0F0F0"/>
<path d="M60.774 170.148H105.863V150.837H60.774V170.148Z" fill="#E6E6E6"/>
<path d="M78.9062 156.838H85.7042C88.652 156.838 91.4763 154.455 93.5095 150.251H71.1008C73.1279 154.455 75.9521 156.838 78.9062 156.838Z" fill="#F0F0F0"/>
<path d="M60.774 192.582H105.863V173.272H60.774V192.582Z" fill="#E6E6E6"/>
<path d="M78.9062 179.266H85.7042C88.652 179.266 91.4763 176.883 93.5095 172.679H71.1008C73.1279 176.883 75.9521 179.266 78.9062 179.266Z" fill="#F0F0F0"/>
<path d="M246.02 68.7296H269.318V65.4947H246.02V68.7296Z" fill="#E6E6E6"/>
<path d="M134.063 68.7296L246.02 68.7296V65.4947L134.063 65.4947V68.7296Z" fill="#F0F0F0"/>
<path d="M206.443 25.0398H254.505L249.604 65.5009H201.548L206.443 25.0398Z" fill="#F5F5F5"/>
<path d="M212.104 30.3428H247.564L243.949 60.1917H208.488L212.104 30.3428Z" fill="#E6E6E6"/>
<path d="M159.085 26.8918H196.802L192.124 65.5009H154.413L159.085 26.8918Z" fill="#F5F5F5"/>
<path d="M164.487 31.9479H190.177L186.729 60.4386H161.038L164.487 31.9479Z" fill="#FAFAFA"/>
<path d="M47.518 109.506L110.177 109.506L110.177 20.3602L47.518 20.3602L47.518 109.506Z" fill="#E6E6E6"/>
<path d="M45.12 109.506L107.779 109.506L107.779 20.3602L45.12 20.3602L45.12 109.506Z" fill="#F5F5F5"/>
<path opacity="0.4" d="M103.478 105.493V24.373L49.4275 24.373L49.4275 105.493H103.478Z" fill="white"/>
<path d="M51.2319 105.487L51.2319 24.3668H49.4209L49.4209 105.487H51.2319Z" fill="#E6E6E6"/>
<path d="M46.8999 86.7932L105.999 86.7932V81.4038H46.8999V86.7932Z" fill="#F5F5F5"/>
<path d="M46.8999 36.8311L105.999 36.8311V31.4417L46.8999 31.4417V36.8311Z" fill="#F5F5F5"/>
<path d="M119.843 103.03H193.786L200.683 202.12H126.733L119.843 103.03Z" fill="#F5F5F5"/>
<path d="M119.843 103.03H119.002L125.893 202.12H126.733L119.843 103.03Z" fill="#F0F0F0"/>
<path d="M195.022 155.72C192.55 154.109 190.696 151.343 191.055 145.046C191.623 134.502 198.971 133.249 200.646 128.68C200.036 127.921 199.555 127.066 199.225 126.149C196.796 119.976 202.16 117.673 199.441 114.315C197.797 112.284 198.996 109.555 200.961 108.191C202.926 106.826 204.014 106.474 203.062 104.332C202.037 102.036 204.434 97.3006 208.068 97.6772C212.135 98.097 212.178 95.0349 214.866 96.2264C217.555 97.4179 214.427 100.431 218.457 102.128C218.85 102.274 219.211 102.497 219.516 102.785C219.822 103.072 220.067 103.418 220.237 103.801C222.82 102.567 225.928 102.326 228.641 104.196C235.297 108.783 237.782 103.53 241.502 108.147C245.222 112.765 237.442 115.012 243.028 121.772C246.736 126.285 243.962 130.631 239.938 132.971C244.345 133.2 246.415 139.311 244.808 141.861C243.307 144.244 244.53 144.849 246.662 146.861C248.794 148.874 249.752 152.344 247.447 154.461C243.634 157.974 249.653 161.709 245.717 168.66C240.155 178.464 231.503 161.647 227.14 178.667C226.571 180.89 227.498 186.6 225.996 187.026C223.197 190.996 216.065 189.601 212.586 187.644C212.196 187.446 212.814 184.341 212.462 184.069C211.08 183.056 209.874 181.823 208.89 180.421C205.114 178.291 202.358 185.433 197.63 179.254C193.681 174.099 198.248 170.222 194.744 167.864C192.637 166.438 193.076 163.456 194.602 161.53C196.128 159.604 197.074 158.931 195.609 157.208C195.29 156.77 195.088 156.258 195.022 155.72Z" fill="#C5AAE3"/>
<path d="M206.115 186.236C206.115 186.236 206.412 202.12 218.586 202.12C230.761 202.12 231.058 186.236 231.058 186.236H206.115Z" fill="#8B55C6"/>
<path d="M206.115 186.236C206.115 186.236 206.412 202.12 218.586 202.12C230.761 202.12 231.058 186.236 231.058 186.236H206.115Z" fill="black" fill-opacity="0.2"/>
<path opacity="0.06" d="M154.5 230C220.677 230 274.324 226.871 274.324 223.012C274.324 219.152 220.677 216.023 154.5 216.023C88.3231 216.023 34.676 219.152 34.676 223.012C34.676 226.871 88.3231 230 154.5 230Z" fill="black"/>
<path d="M93.4788 185.341H68.3756C65.162 193.879 63.9198 204.349 66.2682 213.591C67.1643 217.134 69.7846 219.536 72.7263 219.536H89.1219C92.0697 219.536 94.6839 217.134 95.5861 213.591C97.9345 204.343 96.6924 193.879 93.4788 185.341Z" fill="#8B55C6"/>
<path d="M80.9271 186.748C87.8591 186.748 93.4786 186.118 93.4786 185.341C93.4786 184.563 87.8591 183.933 80.9271 183.933C73.995 183.933 68.3755 184.563 68.3755 185.341C68.3755 186.118 73.995 186.748 80.9271 186.748Z" fill="#8B55C6"/>
<path opacity="0.3" d="M80.9271 186.748C87.8591 186.748 93.4786 186.118 93.4786 185.341C93.4786 184.563 87.8591 183.933 80.9271 183.933C73.995 183.933 68.3755 184.563 68.3755 185.341C68.3755 186.118 73.995 186.748 80.9271 186.748Z" fill="black"/>
<path d="M94.4612 142.453C96.204 153.893 89.6964 159.603 80.7169 160.974C71.7374 162.345 63.6725 158.813 61.9297 147.392C60.1869 135.971 66.0579 125.563 75.0437 124.198C84.0294 122.834 92.6999 131.008 94.4612 142.453Z" fill="#8B55C6"/>
<path opacity="0.5" d="M94.4612 142.453C96.204 153.893 89.6964 159.603 80.7169 160.974C71.7374 162.345 63.6725 158.813 61.9297 147.392C60.1869 135.971 66.0579 125.563 75.0437 124.198C84.0294 122.834 92.6999 131.008 94.4612 142.453Z" fill="white"/>
<path d="M79.9138 190.02C79.7592 183.081 82.3553 161.486 78.1274 143.139" stroke="#8B55C6" stroke-miterlimit="10"/>
<path d="M67.5845 160.647C66.2187 151.819 59.5011 137.663 45.2191 141.145C33.063 144.102 65.5575 157.122 67.5845 160.647Z" fill="#8B55C6"/>
<path opacity="0.3" d="M67.5845 160.647C66.2187 151.819 59.5011 137.663 45.2191 141.145C33.063 144.102 65.5575 157.122 67.5845 160.647Z" fill="white"/>
<path d="M77.3981 187.248C77.8925 181.205 69.6916 159.437 59.4761 150.578" stroke="#8B55C6" stroke-miterlimit="10"/>
<path d="M83.2322 170.58C82.2001 163.962 83.7822 152.319 94.7826 151.566C104.145 150.917 83.8749 167.598 83.2322 170.58Z" fill="#8B55C6"/>
<path opacity="0.3" d="M83.2322 170.58C82.2001 163.962 83.7822 152.319 94.7826 151.566C104.145 150.917 83.8749 167.598 83.2322 170.58Z" fill="white"/>
<path d="M82.262 191.823C80.5313 187.613 81.4461 170.216 86.7185 161.573" stroke="#8B55C6" stroke-miterlimit="10"/>
<path d="M67.5845 171.524C66.2187 166.314 59.501 157.943 45.219 159.999C17.9961 163.919 76.8297 181.038 67.5845 171.524Z" fill="#8B55C6"/>
<path opacity="0.5" d="M67.5845 171.524C66.2187 166.314 59.501 157.943 45.219 159.999C17.9961 163.919 76.8297 181.038 67.5845 171.524Z" fill="white"/>
<path d="M77.3981 187.248C77.8925 183.674 69.6916 170.815 59.4761 165.579" stroke="#8B55C6" stroke-miterlimit="10"/>
<path d="M84.2145 182.384C83.1392 179.087 83.8561 172.228 92.2918 168.376C108.384 161.03 82.5274 190.761 84.2145 182.384Z" fill="#8B55C6"/>
<path opacity="0.5" d="M84.2145 182.384C83.1392 179.087 83.8561 172.228 92.2918 168.376C108.384 161.03 82.5274 190.761 84.2145 182.384Z" fill="white"/>
<path d="M84.3817 194.299C82.8674 192.539 82.8118 182.736 86.5204 176.358" stroke="#8B55C6" stroke-miterlimit="10"/>
<path d="M220.428 106.746C220.452 106.723 220.471 106.696 220.484 106.666C220.495 106.632 220.5 106.597 220.497 106.561C220.495 106.526 220.485 106.491 220.469 106.459C220.453 106.428 220.431 106.4 220.404 106.377C220.376 106.354 220.345 106.337 220.311 106.326C211.702 103.351 207.549 95.1398 207.24 88.3304C207.232 88.2573 207.196 88.19 207.14 88.1428C207.083 88.0956 207.011 88.0721 206.937 88.0773C206.901 88.0757 206.865 88.0813 206.832 88.0939C206.798 88.1065 206.767 88.1258 206.741 88.1506C206.715 88.1754 206.695 88.2052 206.681 88.2383C206.666 88.2713 206.659 88.3069 206.659 88.3428C206.974 95.325 211.251 103.777 220.107 106.814C220.161 106.835 220.221 106.839 220.278 106.827C220.335 106.815 220.387 106.787 220.428 106.746Z" fill="#8B55C6"/>
<path d="M215.8 105.777C215.88 104.888 214.224 103.19 214.224 103.19C214.224 103.19 212.271 104.548 212.19 105.437C212.24 105.858 212.433 106.249 212.737 106.545C213.04 106.84 213.436 107.023 213.858 107.063C214.28 107.103 214.703 106.997 215.057 106.763C215.41 106.529 215.672 106.181 215.8 105.777Z" fill="#8B55C6"/>
<path d="M211.183 93.6027C210.188 93.4977 208.303 94.9176 208.303 94.9176C208.303 94.9176 209.817 96.7141 210.812 96.8252C211.035 96.8733 211.265 96.8743 211.489 96.8282C211.712 96.782 211.923 96.6897 212.108 96.5571C212.293 96.4246 212.448 96.2548 212.564 96.0587C212.679 95.8626 212.753 95.6444 212.779 95.4184C212.805 95.1923 212.783 94.9633 212.715 94.7461C212.647 94.5289 212.534 94.3283 212.384 94.1573C212.234 93.9862 212.049 93.8485 211.842 93.753C211.636 93.6575 211.411 93.6063 211.183 93.6027Z" fill="#8B55C6"/>
<path d="M138.796 169.728V169.685C138.753 162.851 134.032 157.863 126.171 156.332C126.096 156.32 126.019 156.334 125.954 156.372C125.889 156.411 125.838 156.47 125.812 156.541C125.802 156.575 125.799 156.61 125.803 156.644C125.808 156.679 125.819 156.712 125.837 156.742C125.856 156.771 125.88 156.797 125.908 156.817C125.937 156.837 125.97 156.85 126.004 156.856C133.618 158.338 138.185 163.153 138.234 169.74C138.235 169.776 138.243 169.81 138.258 169.842C138.273 169.874 138.294 169.903 138.321 169.925C138.348 169.948 138.38 169.965 138.414 169.975C138.448 169.984 138.483 169.986 138.518 169.981C138.585 169.974 138.648 169.945 138.698 169.9C138.748 169.854 138.783 169.794 138.796 169.728Z" fill="#8B55C6"/>
<path d="M137.518 166.45C137.932 165.579 137.036 163.53 137.036 163.53C137.036 163.53 134.724 164.462 134.316 165.333C134.214 165.526 134.156 165.738 134.144 165.956C134.133 166.174 134.169 166.392 134.25 166.594C134.331 166.797 134.455 166.979 134.614 167.129C134.773 167.279 134.962 167.393 135.169 167.462C135.617 167.604 136.101 167.58 136.532 167.394C136.964 167.208 137.314 166.873 137.518 166.45Z" fill="#8B55C6"/>
<path d="M167.676 56.0924C169.945 53.6848 171.391 50.6195 171.804 47.3384C172.904 40.0104 169.82 30.2378 160.451 26.0954C160.384 26.0612 160.307 26.0536 160.235 26.0742C160.162 26.0949 160.101 26.1421 160.062 26.2065C160.047 26.2383 160.038 26.273 160.037 26.3083C160.035 26.3436 160.041 26.3788 160.054 26.4117C160.067 26.4447 160.086 26.4747 160.111 26.4999C160.135 26.5251 160.165 26.545 160.198 26.5584C169.307 30.5897 172.298 40.1401 171.223 47.2581C170.209 54.049 165.877 58.5927 159.648 59.4693C159.612 59.4714 159.577 59.481 159.546 59.4974C159.514 59.5139 159.486 59.5369 159.464 59.5649C159.442 59.5929 159.426 59.6252 159.417 59.6598C159.408 59.6944 159.407 59.7305 159.413 59.7656C159.431 59.8373 159.475 59.8995 159.537 59.9397C159.599 59.9798 159.674 59.9948 159.747 59.9817C162.75 59.6057 165.541 58.2366 167.676 56.0924Z" fill="#8B55C6"/>
<path d="M164.654 27.4782C164.474 28.3549 165.958 30.176 165.958 30.176C165.958 30.176 168.041 28.9845 168.22 28.1079C168.251 27.8858 168.238 27.6598 168.18 27.443C168.123 27.2262 168.023 27.023 167.886 26.8454C167.749 26.6677 167.578 26.5192 167.383 26.4084C167.187 26.2976 166.972 26.2269 166.749 26.2003C166.302 26.0991 165.833 26.176 165.442 26.4146C165.051 26.6532 164.768 27.0348 164.654 27.4782Z" fill="#8B55C6"/>
<path d="M168.016 39.9487C168.993 40.1401 171.026 38.8807 171.026 38.8807C171.026 38.8807 169.697 36.9731 168.714 36.7817C168.269 36.6731 167.799 36.7411 167.402 36.9713C167.006 37.2014 166.714 37.576 166.588 38.0164C166.55 38.2375 166.556 38.4642 166.608 38.6827C166.66 38.9011 166.755 39.1069 166.888 39.2875C167.022 39.4681 167.191 39.6198 167.384 39.7334C167.578 39.8471 167.793 39.9203 168.016 39.9487Z" fill="#8B55C6"/>
<path d="M163.004 58.1112C163.987 58.3025 166.014 57.0431 166.014 57.0431C166.014 57.0431 164.685 55.1294 163.702 54.9441C163.257 54.8372 162.787 54.9058 162.391 55.1358C161.995 55.3657 161.703 55.7393 161.576 56.1788C161.539 56.3998 161.547 56.6258 161.6 56.8436C161.652 57.0614 161.748 57.2665 161.881 57.4467C162.014 57.6269 162.182 57.7786 162.375 57.8927C162.568 58.0068 162.782 58.0811 163.004 58.1112Z" fill="#8B55C6"/>
<path d="M147.807 192.687C144.794 191.51 142.083 189.675 139.872 187.316C138.898 186.224 138.099 184.987 137.505 183.649C136.861 182.221 136.409 180.714 136.158 179.167C135.874 177.469 135.758 175.746 135.812 174.025C135.875 172.173 136.061 170.327 136.368 168.5C137.045 164.605 138.022 160.768 139.291 157.023C140.527 153.152 142.084 149.294 143.722 145.435C145.36 141.577 147.121 137.712 148.919 133.841C152.51 126.094 156.366 118.352 159.988 110.432C163.75 102.496 167.017 94.3354 169.771 85.9969C171.15 81.7413 172.222 77.3922 172.978 72.9831C173.775 68.4569 174.037 63.8528 173.757 59.2656C173.676 58.105 173.54 56.9135 173.367 55.7714C173.194 54.6293 172.997 53.5119 172.749 52.3883C172.295 50.1299 171.717 47.8979 171.019 45.7024C169.623 41.2502 167.758 36.9583 165.457 32.8986C163.077 28.7198 160.231 24.8241 156.972 21.2862C153.568 17.5372 149.643 14.296 145.316 11.6617C142.958 10.2353 140.44 9.09143 137.814 8.25396C136.356 7.8055 134.861 7.49139 133.346 7.31559C131.679 7.11503 129.993 7.14203 128.334 7.39584C126.549 7.67358 124.831 8.27845 123.266 9.17999C121.778 10.0449 120.48 11.1996 119.447 12.5754C117.783 14.8814 116.721 17.5656 116.357 20.3849C116.023 22.7905 115.965 25.2262 116.184 27.6449C116.367 30.0016 116.745 32.339 117.315 34.6333C118.458 39.241 120.225 43.6712 122.568 47.8014C124.982 52.0098 127.886 55.9181 131.22 59.4446C134.626 63.0309 138.402 66.2468 142.486 69.0383C150.674 74.7179 159.975 78.8171 169.511 81.768C174.286 83.22 179.131 84.4295 184.028 85.3919C186.469 85.861 188.923 86.2932 191.376 86.6574L194.886 87.176C195.974 87.3489 197.062 87.5279 198.131 87.7316C202.214 88.4291 206.201 89.6061 210.009 91.2382C213.5 92.8062 216.189 94.825 217.517 97.0042C218.192 98.082 218.632 99.2893 218.809 100.548C218.998 101.961 218.952 103.396 218.673 104.795C217.944 108.206 216.62 111.462 214.761 114.413C212.734 117.771 210.416 120.944 207.833 123.896C206.511 125.415 205.12 126.909 203.687 128.359C202.97 129.082 202.24 129.798 201.505 130.489L200.393 131.508L199.843 131.989L199.577 132.218L199.453 132.329L199.367 132.391L214.026 144.836L214.415 144.429L214.743 144.071L215.361 143.373L216.553 142.003C217.332 141.089 218.098 140.151 218.84 139.243C220.327 137.391 221.753 135.498 223.116 133.564C225.918 129.669 228.374 125.537 230.458 121.217C231.526 118.979 232.438 116.671 233.19 114.309C233.986 111.82 234.517 109.254 234.772 106.653C235.048 103.817 234.862 100.954 234.222 98.1772C233.501 95.1565 232.168 92.3157 230.304 89.8306C228.42 87.3603 226.132 85.2252 223.537 83.5151C221.112 81.9165 218.517 80.5914 215.799 79.5641C210.771 77.7116 205.549 76.4378 200.232 75.7674C198.959 75.5822 197.692 75.4402 196.431 75.2982L192.859 74.9648C190.597 74.7611 188.348 74.4709 186.104 74.1623C181.649 73.5339 177.234 72.6517 172.879 71.52C164.354 69.4087 156.219 65.9579 148.777 61.2967C141.615 56.6665 135.564 50.6968 131.51 43.7578C129.489 40.3542 127.956 36.6843 126.956 32.8554C126.493 30.9862 126.183 29.0827 126.029 27.1634C125.858 25.342 125.893 23.5072 126.134 21.6937C126.239 20.8954 126.423 20.1095 126.684 19.3477C126.894 18.7199 127.2 18.1284 127.592 17.5945C127.898 17.174 128.287 16.8209 128.735 16.5573C129.193 16.3005 129.694 16.1289 130.213 16.0511C131.755 15.8947 133.313 16.0737 134.78 16.5758C136.607 17.1703 138.359 17.9741 140.002 18.9712C143.493 21.1134 146.652 23.7548 149.377 26.8115C152.123 29.8601 154.515 33.2089 156.508 36.7941C158.481 40.3163 160.064 44.0423 161.23 47.9064C161.804 49.8217 162.273 51.7673 162.633 53.7341C162.806 54.7095 162.967 55.6973 163.096 56.6789C163.226 57.6605 163.313 58.5803 163.356 59.5496C163.523 63.4647 163.207 67.3854 162.416 71.2237C161.612 75.2054 160.526 79.1252 159.166 82.9533C157.819 86.8426 156.218 90.6949 154.5 94.5225C152.782 98.35 150.922 102.159 148.987 105.956C145.106 113.543 140.953 121.093 136.819 128.761C132.565 136.5 128.705 144.449 125.256 152.578C123.485 156.817 122.038 161.184 120.93 165.641C120.364 167.978 119.951 170.35 119.694 172.741C119.405 175.265 119.349 177.811 119.527 180.346C119.726 183.081 120.276 185.778 121.165 188.372C122.127 191.154 123.486 193.782 125.201 196.175C126.966 198.628 129.043 200.84 131.381 202.756C133.66 204.618 136.103 206.271 138.679 207.695L147.807 192.687Z" fill="#FE9535"/>
<path opacity="0.5" d="M147.807 192.687C144.794 191.51 142.083 189.675 139.872 187.316C138.898 186.224 138.099 184.987 137.505 183.649C136.861 182.221 136.409 180.714 136.158 179.167C135.874 177.469 135.758 175.746 135.812 174.025C135.875 172.173 136.061 170.327 136.368 168.5C137.045 164.605 138.022 160.768 139.291 157.023C140.527 153.152 142.084 149.294 143.722 145.435C145.36 141.577 147.121 137.712 148.919 133.841C152.51 126.094 156.366 118.352 159.988 110.432C163.75 102.496 167.017 94.3354 169.771 85.9969C171.15 81.7413 172.222 77.3922 172.978 72.9831C173.775 68.4569 174.037 63.8528 173.757 59.2656C173.676 58.105 173.54 56.9135 173.367 55.7714C173.194 54.6293 172.997 53.5119 172.749 52.3883C172.295 50.1299 171.717 47.8979 171.019 45.7024C169.623 41.2502 167.758 36.9583 165.457 32.8986C163.077 28.7198 160.231 24.8241 156.972 21.2862C153.568 17.5372 149.643 14.296 145.316 11.6617C142.958 10.2353 140.44 9.09143 137.814 8.25396C136.356 7.8055 134.861 7.49139 133.346 7.31559C131.679 7.11503 129.993 7.14203 128.334 7.39584C126.549 7.67358 124.831 8.27845 123.266 9.17999C121.778 10.0449 120.48 11.1996 119.447 12.5754C117.783 14.8814 116.721 17.5656 116.357 20.3849C116.023 22.7905 115.965 25.2262 116.184 27.6449C116.367 30.0016 116.745 32.339 117.315 34.6333C118.458 39.241 120.225 43.6712 122.568 47.8014C124.982 52.0098 127.886 55.9181 131.22 59.4446C134.626 63.0309 138.402 66.2468 142.486 69.0383C150.674 74.7179 159.975 78.8171 169.511 81.768C174.286 83.22 179.131 84.4295 184.028 85.3919C186.469 85.861 188.923 86.2932 191.376 86.6574L194.886 87.176C195.974 87.3489 197.062 87.5279 198.131 87.7316C202.214 88.4291 206.201 89.6061 210.009 91.2382C213.5 92.8062 216.189 94.825 217.517 97.0042C218.192 98.082 218.632 99.2893 218.809 100.548C218.998 101.961 218.952 103.396 218.673 104.795C217.944 108.206 216.62 111.462 214.761 114.413C212.734 117.771 210.416 120.944 207.833 123.896C206.511 125.415 205.12 126.909 203.687 128.359C202.97 129.082 202.24 129.798 201.505 130.489L200.393 131.508L199.843 131.989L199.577 132.218L199.453 132.329L199.367 132.391L214.026 144.836L214.415 144.429L214.743 144.071L215.361 143.373L216.553 142.003C217.332 141.089 218.098 140.151 218.84 139.243C220.327 137.391 221.753 135.498 223.116 133.564C225.918 129.669 228.374 125.537 230.458 121.217C231.526 118.979 232.438 116.671 233.19 114.309C233.986 111.82 234.517 109.254 234.772 106.653C235.048 103.817 234.862 100.954 234.222 98.1772C233.501 95.1565 232.168 92.3157 230.304 89.8306C228.42 87.3603 226.132 85.2252 223.537 83.5151C221.112 81.9165 218.517 80.5914 215.799 79.5641C210.771 77.7116 205.549 76.4378 200.232 75.7674C198.959 75.5822 197.692 75.4402 196.431 75.2982L192.859 74.9648C190.597 74.7611 188.348 74.4709 186.104 74.1623C181.649 73.5339 177.234 72.6517 172.879 71.52C164.354 69.4087 156.219 65.9579 148.777 61.2967C141.615 56.6665 135.564 50.6968 131.51 43.7578C129.489 40.3542 127.956 36.6843 126.956 32.8554C126.493 30.9862 126.183 29.0827 126.029 27.1634C125.858 25.342 125.893 23.5072 126.134 21.6937C126.239 20.8954 126.423 20.1095 126.684 19.3477C126.894 18.7199 127.2 18.1284 127.592 17.5945C127.898 17.174 128.287 16.8209 128.735 16.5573C129.193 16.3005 129.694 16.1289 130.213 16.0511C131.755 15.8947 133.313 16.0737 134.78 16.5758C136.607 17.1703 138.359 17.9741 140.002 18.9712C143.493 21.1134 146.652 23.7548 149.377 26.8115C152.123 29.8601 154.515 33.2089 156.508 36.7941C158.481 40.3163 160.064 44.0423 161.23 47.9064C161.804 49.8217 162.273 51.7673 162.633 53.7341C162.806 54.7095 162.967 55.6973 163.096 56.6789C163.226 57.6605 163.313 58.5803 163.356 59.5496C163.523 63.4647 163.207 67.3854 162.416 71.2237C161.612 75.2054 160.526 79.1252 159.166 82.9533C157.819 86.8426 156.218 90.6949 154.5 94.5225C152.782 98.35 150.922 102.159 148.987 105.956C145.106 113.543 140.953 121.093 136.819 128.761C132.565 136.5 128.705 144.449 125.256 152.578C123.485 156.817 122.038 161.184 120.93 165.641C120.364 167.978 119.951 170.35 119.694 172.741C119.405 175.265 119.349 177.811 119.527 180.346C119.726 183.081 120.276 185.778 121.165 188.372C122.127 191.154 123.486 193.782 125.201 196.175C126.966 198.628 129.043 200.84 131.381 202.756C133.66 204.618 136.103 206.271 138.679 207.695L147.807 192.687Z" fill="#FE9535"/>
<path d="M138.556 173.327C138.768 172.121 138.848 170.896 138.797 169.673C138.795 169.638 138.785 169.604 138.769 169.573C138.753 169.542 138.73 169.515 138.703 169.493C138.675 169.472 138.644 169.456 138.61 169.448C138.576 169.439 138.541 169.438 138.506 169.444C138.431 169.452 138.362 169.487 138.312 169.543C138.261 169.599 138.234 169.671 138.234 169.747C138.519 176.087 134.681 182.797 131.294 188.718C126.912 196.373 123.13 202.985 129.693 206.232C129.762 206.263 129.839 206.268 129.91 206.246C129.982 206.225 130.043 206.178 130.083 206.115C130.103 206.086 130.118 206.052 130.124 206.017C130.131 205.982 130.129 205.946 130.121 205.911C130.112 205.877 130.096 205.844 130.073 205.817C130.051 205.789 130.022 205.766 129.99 205.75C123.89 202.732 127.376 196.645 131.789 188.94C134.57 184.069 137.66 178.667 138.556 173.327Z" fill="#8B55C6"/>
<path d="M132.704 206.146C132.011 205.528 129.613 205.825 129.613 205.825C129.613 205.825 129.533 208.121 130.231 208.708C130.599 208.993 131.06 209.129 131.524 209.091C131.988 209.052 132.42 208.84 132.735 208.498C132.895 208.346 133.023 208.162 133.109 207.959C133.195 207.755 133.238 207.536 133.235 207.315C133.233 207.094 133.184 206.876 133.092 206.675C133.001 206.473 132.868 206.293 132.704 206.146Z" fill="#8B55C6"/>
<path d="M129.638 200.157C128.767 199.818 126.48 200.775 126.48 200.775C126.48 200.775 127.166 202.911 128.031 203.244C128.475 203.4 128.959 203.39 129.396 203.218C129.834 203.046 130.194 202.722 130.411 202.306C130.517 202.117 130.581 201.908 130.599 201.692C130.617 201.476 130.588 201.259 130.515 201.056C130.442 200.852 130.325 200.666 130.174 200.511C130.023 200.356 129.84 200.236 129.638 200.157Z" fill="#8B55C6"/>
<path d="M134.489 189.526C133.989 188.779 131.615 188.495 131.615 188.495C131.615 188.495 130.954 190.755 131.454 191.496C131.731 191.86 132.139 192.102 132.592 192.17C133.044 192.238 133.506 192.127 133.877 191.86C134.072 191.748 134.243 191.599 134.38 191.421C134.516 191.242 134.616 191.039 134.673 190.821C134.73 190.604 134.743 190.378 134.712 190.155C134.68 189.933 134.604 189.719 134.489 189.526Z" fill="#8B55C6"/>
<path d="M141.59 171.833C140.861 171.29 138.438 171.716 138.438 171.716C138.438 171.716 138.518 173.994 139.254 174.537C139.64 174.788 140.105 174.889 140.56 174.82C141.016 174.752 141.431 174.52 141.726 174.167C141.881 174.01 142.001 173.822 142.079 173.616C142.157 173.41 142.19 173.19 142.178 172.97C142.165 172.75 142.106 172.535 142.005 172.339C141.904 172.144 141.762 171.971 141.59 171.833Z" fill="#8B55C6"/>
<path d="M126.418 196.015C127.389 195.799 128.786 193.805 128.786 193.805C128.786 193.805 126.882 192.57 125.912 192.768C125.454 192.855 125.046 193.111 124.769 193.485C124.492 193.859 124.366 194.324 124.416 194.786C124.456 195.004 124.542 195.211 124.667 195.393C124.792 195.575 124.955 195.73 125.144 195.845C125.332 195.961 125.543 196.036 125.763 196.065C125.983 196.095 126.206 196.077 126.418 196.015Z" fill="#8B55C6"/>
<path d="M133.142 182.532C134.119 182.489 135.874 180.754 135.874 180.754C135.874 180.754 134.298 179.155 133.321 179.192C132.854 179.209 132.408 179.395 132.067 179.715C131.726 180.035 131.513 180.468 131.467 180.933C131.457 181.152 131.495 181.37 131.576 181.574C131.658 181.777 131.783 181.961 131.941 182.112C132.1 182.264 132.289 182.379 132.496 182.452C132.703 182.524 132.924 182.551 133.142 182.532Z" fill="#8B55C6"/>
<g opacity="0.2">
<path d="M170.902 82.194C171.768 79.1628 172.463 76.0857 172.985 72.9769C173.059 72.5201 173.133 72.0571 173.195 71.5941C174.332 71.8904 175.475 72.1682 176.625 72.4275L178.602 84.2312C176.019 83.6262 173.454 82.9533 170.902 82.194Z" fill="black"/>
</g>
<path opacity="0.2" d="M117.649 15.6992C118.113 14.5915 118.71 13.5445 119.429 12.5816C120.46 11.2054 121.756 10.0489 123.242 9.17996C124.373 8.52339 125.589 8.02683 126.857 7.7045C130.114 7.77241 139.415 15.4337 144.705 22.348C143.227 21.1102 141.654 19.9893 140.002 18.9958C138.361 17.9907 136.606 17.1845 134.773 16.5943C133.311 16.0927 131.757 15.9136 130.219 16.0696C129.698 16.1495 129.196 16.3209 128.736 16.5758C128.286 16.8357 127.897 17.187 127.592 17.6068C127.205 18.1467 126.9 18.742 126.69 19.3724C126.434 20.1351 126.251 20.9207 126.146 21.7183C125.906 23.5319 125.871 25.3667 126.041 27.1881C126.208 29.1006 126.532 30.9961 127.011 32.8553C127.193 33.5756 127.399 34.2917 127.629 35.0037C120.949 26.7806 118.038 20.033 117.649 15.6992Z" fill="black"/>
<path d="M159.926 59.8829C159.954 59.8553 159.974 59.8209 159.985 59.783C159.996 59.7452 159.997 59.7051 159.988 59.6669C159.97 59.5952 159.926 59.533 159.864 59.4928C159.802 59.4527 159.727 59.4376 159.654 59.4508C152.819 60.4139 145.44 57.5987 138.901 55.1293C130.466 51.9315 123.18 49.1719 119.923 55.58C119.908 55.6126 119.9 55.648 119.899 55.6839C119.899 55.7198 119.906 55.7554 119.92 55.7885C119.933 55.8216 119.954 55.8514 119.98 55.8761C120.006 55.9007 120.037 55.9198 120.071 55.9319C120.139 55.9618 120.215 55.9657 120.286 55.943C120.357 55.9202 120.417 55.8723 120.454 55.8084C123.476 49.851 130.188 52.3883 138.685 55.6109C145.279 58.0803 152.757 60.9386 159.753 59.9323C159.814 59.935 159.875 59.9177 159.926 59.8829Z" fill="#8B55C6"/>
<path d="M120.14 58.3767C120.758 57.6791 120.362 55.4628 120.362 55.4628C120.362 55.4628 117.89 55.6418 117.272 56.3394C117.128 56.5046 117.022 56.6988 116.96 56.9088C116.898 57.1188 116.882 57.3396 116.913 57.5564C116.944 57.7731 117.021 57.9806 117.14 58.1647C117.258 58.3489 117.415 58.5054 117.6 58.6236C117.982 58.8949 118.449 59.0193 118.916 58.9739C119.383 58.9285 119.817 58.7165 120.14 58.3767Z" fill="#8B55C6"/>
<path d="M126.48 54.8947C126.814 54.0551 125.677 52.0487 125.677 52.0487C125.677 52.0487 123.396 52.913 123.062 53.7526C122.99 53.9628 122.962 54.1854 122.98 54.4068C122.997 54.6282 123.06 54.8437 123.164 55.0398C123.269 55.236 123.412 55.4087 123.586 55.5473C123.76 55.6858 123.96 55.7873 124.175 55.8454C124.609 56.0017 125.085 55.9909 125.512 55.8151C125.938 55.6393 126.283 55.3112 126.48 54.8947Z" fill="#8B55C6"/>
<path d="M138.124 58.1976C138.909 57.6605 139.131 55.438 139.131 55.438C139.131 55.438 136.659 55.0738 135.874 55.6171C135.691 55.7364 135.537 55.8937 135.422 56.0783C135.306 56.2628 135.232 56.4702 135.204 56.6861C135.177 56.9021 135.196 57.1214 135.262 57.329C135.327 57.5367 135.437 57.7277 135.583 57.8889C135.899 58.2371 136.329 58.46 136.796 58.5167C137.262 58.5734 137.734 58.4601 138.124 58.1976Z" fill="#8B55C6"/>
<path d="M157.535 62.7968C158.091 62.0622 157.535 59.8768 157.535 59.8768C157.535 59.8768 155.063 60.204 154.525 60.9386C154.395 61.1147 154.303 61.3166 154.258 61.5308C154.212 61.7449 154.212 61.9664 154.259 62.1803C154.306 62.3943 154.398 62.5958 154.529 62.7713C154.66 62.9468 154.827 63.0923 155.019 63.1981C155.416 63.4468 155.89 63.5432 156.353 63.4694C156.815 63.3956 157.235 63.1566 157.535 62.7968Z" fill="#8B55C6"/>
<path d="M130.831 51.4685C131.103 52.3389 133.303 53.407 133.303 53.407C133.303 53.407 134.582 51.5117 134.31 50.6474C134.153 50.2079 133.835 49.8441 133.42 49.6288C133.005 49.4136 132.524 49.3629 132.073 49.4868C131.856 49.525 131.649 49.6084 131.466 49.7316C131.283 49.8547 131.128 50.0149 131.011 50.2017C130.893 50.3885 130.817 50.5978 130.786 50.816C130.755 51.0342 130.77 51.2565 130.831 51.4685Z" fill="#8B55C6"/>
<path d="M145.65 56.1789C145.737 57.0679 147.678 58.5001 147.678 58.5001C147.678 58.5001 149.347 56.8703 149.266 55.9752C149.197 55.5204 148.956 55.1094 148.593 54.8269C148.229 54.5443 147.771 54.4118 147.313 54.4565C147.089 54.4555 146.867 54.4998 146.661 54.5868C146.455 54.6738 146.268 54.8016 146.113 54.9626C145.958 55.1236 145.836 55.3144 145.757 55.5234C145.677 55.7325 145.641 55.9555 145.65 56.1789Z" fill="#8B55C6"/>
<path d="M208 37.6893C207.469 38.1646 205.658 38.4548 206.196 34.3926C206.888 29.1883 205.658 21.5702 201.252 22.1259C198.479 19.8517 194.988 18.6333 191.401 18.6872C184.121 18.8601 184.813 24.5953 184.813 24.5953C181.847 26.9288 181.637 32.806 184.813 38.2202C186.945 41.8502 183.966 43.7763 181.599 42.9491C183.453 46.1963 186.574 46.1223 188.311 45.1345C189.207 48.4929 195.078 50.2832 195.987 47.9558C201.345 49.3695 204.577 48.1719 205.646 45.9803C203.174 46.1099 201.938 43.4183 202.939 40.1401C205.794 41.0168 208.124 40.3747 208 37.6893Z" fill="#263238"/>
<path d="M127.129 171.062C127.129 171.062 124.923 169.685 122.024 172C119.126 174.315 112.353 182.007 112.353 182.007L112.971 182.692C112.971 182.692 119.565 176.223 121.005 175.364C117.661 178.853 115.548 185.514 118.656 188.866C119.762 190.051 122.772 182.452 125.677 178.988C128.581 175.525 129.613 174.321 129.613 174.321L127.129 171.062Z" fill="#263238"/>
<path d="M132.407 171.623L126.69 170.87C123.162 174.42 120.102 180.254 120.177 183.384C120.197 183.575 120.275 183.756 120.4 183.902C120.525 184.049 120.692 184.153 120.878 184.203C121.064 184.252 121.261 184.244 121.443 184.18C121.624 184.115 121.782 183.997 121.895 183.841C126.072 177.519 132.407 171.623 132.407 171.623Z" fill="#FFB573"/>
<path d="M176.612 205.479C176.612 205.479 174.653 205.8 174.69 209.498C174.728 213.196 175.896 223.388 175.896 223.388H176.829C176.829 223.388 176.717 213.511 176.946 211.825C177.632 216.653 178.411 223.388 185.95 223.388C187.57 223.388 183.435 216.017 182.496 211.535C181.556 207.053 181.26 205.479 181.26 205.479H176.612Z" fill="#263238"/>
<path d="M183.151 198.169L177.137 205.46C177.755 210.455 180.017 216.486 182.539 218.561C182.687 218.682 182.87 218.752 183.061 218.762C183.252 218.772 183.442 218.72 183.601 218.614C183.761 218.509 183.882 218.355 183.948 218.175C184.014 217.995 184.02 217.799 183.966 217.616C180.506 207.782 183.151 198.169 183.151 198.169Z" fill="#FFB573"/>
<path d="M201.592 91.5037C201.592 91.5037 196.376 127.927 193.953 147.392C191.58 166.975 181.247 205.479 181.247 205.479H176.612C176.612 205.479 174.282 168.197 182.36 147.133C174.091 109.29 183.169 88.0527 183.169 88.0527L201.592 91.5037Z" fill="#FFB573"/>
<path d="M196.623 90.59C196.623 90.59 181.433 132.496 171.433 146.466C168.01 151.245 142.492 163.135 129.162 174.864L126.69 170.858C126.69 170.858 149.278 142.065 160.872 137.737C165.513 86.6759 180.166 86.3179 180.166 86.3179L196.623 90.59Z" fill="#FFB573"/>
<path d="M219.526 29.4538C218.852 29.2743 218.136 29.3403 217.507 29.6401C216.877 29.9398 216.375 30.4538 216.09 31.0898C215.807 31.769 215.8 32.5313 216.07 33.2156C216.34 33.8999 216.866 34.4526 217.536 34.7568L219.007 35.4236C219.007 35.4236 221.955 39.3561 224.73 37.3991C224.977 36.1644 225.168 34.6704 223.982 33.1209L222.412 31.2688C221.668 30.372 220.657 29.7361 219.526 29.4538Z" fill="#FFB573"/>
<path d="M206.697 52.0735L207.148 52.1785L207.698 52.2896L208.829 52.5057C209.595 52.6353 210.368 52.7464 211.146 52.8267C212.704 53.0023 214.27 53.0889 215.837 53.086C217.393 53.0836 218.948 52.9784 220.491 52.7711C221.257 52.66 222.017 52.5304 222.771 52.3698C223.154 52.2958 223.525 52.2032 223.896 52.1106L224.038 52.0735H224.106C224.052 52.0865 224.001 52.1051 223.951 52.1291C223.758 52.2108 223.574 52.3121 223.401 52.4316C223.327 52.4871 223.247 52.5612 223.185 52.6168C223.128 52.665 223.075 52.7166 223.024 52.7711C222.837 52.9582 222.701 53.1898 222.629 53.444C222.629 53.5305 222.697 53.2773 222.728 52.9995C222.759 52.7217 222.777 52.3822 222.783 52.0056C222.783 51.2771 222.783 50.4869 222.691 49.6844C222.579 48.0669 222.375 46.4001 222.159 44.7456C221.702 41.3995 221.189 37.9547 220.67 34.6087V34.5716C220.644 34.1453 220.766 33.723 221.016 33.3763C221.266 33.0297 221.628 32.78 222.041 32.6696C222.454 32.5591 222.893 32.5948 223.283 32.7704C223.672 32.946 223.989 33.2509 224.18 33.6333C225.468 36.9129 226.578 40.2597 227.505 43.659C227.968 45.3691 228.382 47.1038 228.741 48.9189C228.901 49.8264 229.044 50.7709 229.13 51.7463C229.167 52.2525 229.198 52.7711 229.192 53.3453C229.188 54.0591 229.088 54.7692 228.895 55.4566C228.698 56.1252 228.356 56.7425 227.894 57.2654C227.808 57.358 227.715 57.4506 227.622 57.5371C227.512 57.636 227.397 57.7287 227.276 57.8149C227.021 58.0068 226.74 58.1626 226.442 58.2779L226.213 58.3705H226.139H226.053L225.879 58.426C225.428 58.5866 224.971 58.7409 224.514 58.8767C223.593 59.1545 222.66 59.3953 221.727 59.5805C219.862 59.9688 217.969 60.2083 216.066 60.2966C214.174 60.3893 212.277 60.3398 210.392 60.1484C209.453 60.0497 208.538 59.9139 207.574 59.7533C207.105 59.6669 206.635 59.5805 206.159 59.4755L205.442 59.2965C205.189 59.2286 204.991 59.1792 204.645 59.0743C203.746 58.7916 202.991 58.1746 202.535 57.3509C202.079 56.5272 201.957 55.5599 202.196 54.6493C202.434 53.7386 203.014 52.9544 203.815 52.4588C204.616 51.9633 205.577 51.7944 206.499 51.9871L206.697 52.0735Z" fill="#FFB573"/>
<path d="M209.811 59.5681C208.915 64.9329 212.722 68.5568 207.216 71.7793C206.165 76.3601 204.441 84.5893 201.796 91.8803C199.991 93.652 189.294 91.4666 178.553 86.9415C181.074 80.768 182.261 70.0816 180.852 54.9257C180.773 54.0962 180.869 53.2594 181.135 52.4697C181.401 51.68 181.831 50.9551 182.395 50.342C182.96 49.7288 183.648 49.2413 184.414 48.911C185.179 48.5808 186.006 48.4152 186.84 48.425C187.786 48.425 188.781 48.4682 189.8 48.5299C193.365 48.674 196.916 49.0722 200.424 49.7214C201.561 49.956 202.729 50.2338 203.841 50.5178C205.789 51.008 207.482 52.209 208.587 53.8842C209.692 55.5594 210.128 57.5872 209.811 59.5681Z" fill="#8B55C6"/>
<path d="M200.072 49.6782L190.703 48.5855C190.703 48.5855 197.896 54.0676 201.876 61.0684C205.986 52.5921 200.072 49.6782 200.072 49.6782Z" fill="white"/>
<path d="M192.198 36.6953C192.483 40.1833 192.446 46.5173 189.801 48.5237C189.801 48.5237 197.711 52.2278 201.685 59.2224C204.682 52.0858 200.449 49.7152 200.449 49.7152C196.741 48.3817 197.155 45.5666 198.119 42.9861L192.198 36.6953Z" fill="#FFB573"/>
<path opacity="0.2" d="M201.796 66.5874C199.633 69.3531 195.437 70.9089 192.674 71.2175C196.178 71.8966 200.306 70.5385 201.796 66.5874Z" fill="black"/>
<path d="M178.219 85.9413C173.893 88.7873 161.002 100.912 159.914 129.545C169.987 139.453 176.649 133.187 183.701 132.872C190.752 132.557 196.456 136.743 196.456 136.743C196.456 136.743 201.302 108.462 201.796 91.8802C195.4 90.9295 185.135 89.0775 178.219 85.9413Z" fill="#8B55C6"/>
<path opacity="0.3" d="M178.219 85.9413C173.893 88.7873 161.002 100.912 159.914 129.545C169.987 139.453 176.649 133.187 183.701 132.872C190.752 132.557 196.456 136.743 196.456 136.743C196.456 136.743 201.302 108.462 201.796 91.8802C195.4 90.9295 185.135 89.0775 178.219 85.9413Z" fill="white"/>
<path opacity="0.1" d="M181.581 127.291C184.776 119.074 189.887 108.45 189.887 108.45C189.93 110.343 189.861 112.238 189.683 114.123C188.947 116.63 181.581 127.291 181.581 127.291Z" fill="black"/>
<path d="M196.982 135.15C196.948 135.149 196.916 135.138 196.889 135.119C196.827 135.082 190.61 130.977 183.707 131.28C181.844 131.434 180.004 131.792 178.219 132.348C172.849 133.792 167.299 135.286 159.796 127.903C159.778 127.887 159.764 127.868 159.753 127.847C159.743 127.826 159.737 127.803 159.736 127.779C159.734 127.755 159.738 127.732 159.747 127.71C159.755 127.687 159.768 127.667 159.785 127.65C159.801 127.633 159.821 127.62 159.843 127.611C159.865 127.602 159.888 127.598 159.912 127.598C159.936 127.599 159.959 127.604 159.981 127.614C160.002 127.624 160.022 127.638 160.037 127.656C167.404 134.897 172.855 133.428 178.126 132.008C179.935 131.447 181.8 131.086 183.688 130.934C190.727 130.619 197.019 134.792 197.08 134.829C197.12 134.856 197.147 134.896 197.156 134.943C197.165 134.989 197.156 135.037 197.13 135.076C197.113 135.1 197.091 135.119 197.065 135.131C197.039 135.144 197.01 135.151 196.982 135.15Z" fill="white"/>
<path d="M202.383 90.1702C202.458 90.165 202.532 90.1892 202.59 90.2375C202.647 90.2859 202.684 90.3547 202.692 90.4295C202.664 91.2342 202.537 92.0324 202.315 92.8063C202.315 92.8063 202.562 94.1275 191.809 91.8803C182.681 89.9665 178.411 87.3675 177.341 86.6328C177.305 86.6082 177.275 86.576 177.253 86.5385C177.23 86.501 177.216 86.4592 177.211 86.4158C177.207 86.3724 177.212 86.3285 177.225 86.2871C177.239 86.2457 177.262 86.2078 177.292 86.176C177.796 85.6356 178.39 85.1866 179.047 84.8487C179.091 84.8259 179.14 84.8141 179.189 84.8141C179.239 84.8141 179.287 84.8259 179.331 84.8487C180.567 85.5525 185.511 87.7132 192.6 89.0281C198.73 90.1888 201.579 90.2011 202.383 90.1702Z" fill="#263238"/>
<path opacity="0.2" d="M194.596 39.2635L198.088 42.9676C197.854 43.5677 197.674 44.1875 197.551 44.8196C196.117 44.443 194.299 42.628 194.312 41.0847C194.3 40.4657 194.396 39.8494 194.596 39.2635Z" fill="black"/>
<path d="M187.582 32.164C189.436 37.609 190.085 39.9488 193.601 42.0416C198.891 45.1962 205.047 41.7823 204.843 35.9051C204.663 30.6144 201.691 22.6012 195.77 21.8357C189.943 21.0949 185.746 26.7189 187.582 32.164Z" fill="#FFB573"/>
<path d="M199.769 36.6644C200.069 36.6494 200.367 36.606 200.659 36.5348C200.699 36.525 200.734 36.4996 200.755 36.4643C200.777 36.429 200.783 36.3866 200.774 36.3465C200.764 36.3064 200.738 36.2718 200.703 36.2504C200.668 36.229 200.625 36.2225 200.585 36.2323C199.946 36.3967 199.278 36.4086 198.633 36.267C197.989 36.1254 197.387 35.8344 196.876 35.4174C196.847 35.3888 196.807 35.373 196.766 35.3736C196.725 35.3741 196.686 35.391 196.657 35.4205C196.628 35.45 196.612 35.4896 196.613 35.5307C196.614 35.5718 196.631 35.611 196.66 35.6397C197.522 36.3748 198.638 36.7428 199.769 36.6644Z" fill="#263238"/>
<path d="M196.116 31.4849C196.234 31.9355 196.574 32.238 196.87 32.1578C197.167 32.0775 197.303 31.6454 197.18 31.1947C197.056 30.744 196.722 30.4477 196.425 30.528C196.129 30.6082 195.993 31.0157 196.116 31.4849Z" fill="#263238"/>
<path d="M201.685 30.0403C201.808 30.4971 202.148 30.7935 202.439 30.7132C202.729 30.633 202.878 30.207 202.754 29.7563C202.63 29.3057 202.29 29.0032 202 29.0834C201.709 29.1637 201.561 29.5896 201.685 30.0403Z" fill="#263238"/>
<path d="M201.876 29.1459L202.871 28.5278C202.871 28.5278 202.544 29.5353 201.876 29.1459Z" fill="#263238"/>
<path d="M200.071 31.2195C200.751 32.1487 201.556 32.9797 202.463 33.6889C202.278 33.915 202.045 34.098 201.781 34.2249C201.518 34.3518 201.229 34.4196 200.937 34.4235L200.071 31.2195Z" fill="#ED893E"/>
<path d="M186.636 36.5287C186.967 36.9345 187.379 37.2659 187.847 37.5011C188.315 37.7362 188.827 37.8698 189.35 37.893C190.673 37.893 190.92 36.3867 190.203 35.1088C189.554 33.9605 188.089 32.5714 186.927 33.1765C185.765 33.7815 185.759 35.473 186.636 36.5287Z" fill="#7F3E3B"/>
<path d="M186.271 25.3793C192.21 24.3174 192.34 30.8428 191.648 32.3368C193.199 33.0283 194.682 36.0409 193.539 38.1461C194.929 40.8995 197.303 39.7389 197.303 39.7389C197.303 39.7389 194.083 45.011 189.608 44.3134C185.134 43.6158 183.231 26.2991 186.271 25.3793Z" fill="#263238"/>
<path d="M185.796 25.262C191.976 30.3119 197.488 22.1752 200.517 23.768C196.395 19.7984 190.344 20.459 185.796 25.262Z" fill="#263238"/>
<path d="M194.429 29.4477C194.464 29.4358 194.496 29.4171 194.524 29.3928C194.552 29.3684 194.574 29.3388 194.59 29.3057C194.723 28.9881 194.93 28.7066 195.193 28.4844C195.456 28.2623 195.769 28.1057 196.104 28.0278C196.177 28.0156 196.241 27.9761 196.285 27.9174C196.329 27.8588 196.348 27.7855 196.339 27.7129C196.327 27.6412 196.287 27.5771 196.228 27.5344C196.169 27.4917 196.096 27.4738 196.024 27.4845C195.597 27.5755 195.199 27.7677 194.862 28.0449C194.525 28.3221 194.26 28.6762 194.089 29.0773C194.06 29.1437 194.058 29.219 194.083 29.2871C194.108 29.3552 194.159 29.4106 194.225 29.4415C194.257 29.4562 194.292 29.4644 194.327 29.4654C194.362 29.4665 194.397 29.4605 194.429 29.4477Z" fill="#263238"/>
<path d="M203.045 26.4535C203.113 26.4409 203.175 26.4035 203.218 26.3485C203.24 26.3193 203.255 26.2861 203.265 26.2508C203.274 26.2154 203.276 26.1787 203.27 26.1425C203.265 26.1064 203.253 26.0717 203.234 26.0403C203.216 26.0089 203.191 25.9815 203.162 25.9596C202.818 25.6888 202.413 25.5053 201.983 25.4246C201.552 25.344 201.108 25.3687 200.69 25.4966C200.622 25.5211 200.566 25.5717 200.535 25.6371C200.505 25.7025 200.501 25.7774 200.526 25.8454C200.55 25.9133 200.601 25.9687 200.666 25.9994C200.732 26.0301 200.807 26.0335 200.875 26.009C201.208 25.9157 201.558 25.9029 201.896 25.9716C202.235 26.0403 202.552 26.1886 202.822 26.4041C202.854 26.4272 202.89 26.4435 202.928 26.452C202.966 26.4605 203.006 26.461 203.045 26.4535Z" fill="#263238"/>
<path d="M196.302 30.5658L197.303 29.9477C197.303 29.9477 196.976 30.9614 196.302 30.5658Z" fill="#263238"/>
<path d="M196.308 64.6366L195.202 62.3524C195.046 62.0311 194.777 61.7785 194.446 61.643C194.115 61.5074 193.746 61.4984 193.409 61.6178L192.927 61.7844C191.822 62.1747 190.844 62.8575 190.097 63.76L187.977 66.3281C187.359 67.4394 187.427 67.9765 188.014 69.1L188.632 69.563C191.45 69.5198 194.479 67.248 194.479 67.248L195.715 66.5195C196.033 66.3384 196.271 66.0436 196.381 65.6944C196.491 65.3452 196.465 64.9673 196.308 64.6366Z" fill="#FFB573"/>
<path d="M188.274 55.3393C186.105 57.358 183.868 59.5311 181.828 61.6918C180.802 62.7721 179.832 63.8834 178.955 64.9761C178.537 65.4946 178.147 66.0345 177.786 66.5935C177.509 67.0128 177.267 67.4547 177.063 67.9147C177.008 68.0505 177.002 68.1184 176.983 67.9826C176.986 67.9621 176.986 67.9413 176.983 67.9209V67.8406C176.977 67.7839 176.964 67.728 176.946 67.6739C176.88 67.4367 176.78 67.2101 176.649 67.001C176.469 66.7159 176.221 66.4803 175.926 66.3157C175.605 66.1799 175.716 66.2787 175.871 66.3157C176.112 66.3762 176.358 66.4155 176.606 66.433C178.004 66.4978 179.405 66.4524 180.796 66.2972C183.775 66.0132 186.89 65.5564 189.955 65.1181H190.004C190.43 65.087 190.852 65.2032 191.202 65.4472C191.551 65.6912 191.806 66.0481 191.923 66.4576C192.04 66.8672 192.011 67.3045 191.843 67.6958C191.675 68.0872 191.377 68.4086 190.999 68.6061C188.017 69.9393 184.928 71.0234 181.766 71.8472C180.065 72.3069 178.322 72.5923 176.563 72.6991C176.021 72.7267 175.477 72.7123 174.938 72.6559C174.13 72.5855 173.345 72.3502 172.632 71.9645C171.991 71.6103 171.448 71.1034 171.05 70.489C170.811 70.1076 170.634 69.6909 170.525 69.2543C170.525 69.1494 170.476 69.0444 170.457 68.9395V68.7851V68.6987L170.42 68.3406C170.347 67.5762 170.397 66.8051 170.568 66.0565C170.853 65.0185 171.269 64.0208 171.804 63.087C172.246 62.2896 172.731 61.5168 173.257 60.7719C174.231 59.3824 175.283 58.0488 176.408 56.7777C177.508 55.543 178.633 54.3083 179.795 53.1909C180.957 52.0735 182.112 50.9314 183.404 49.8263C183.764 49.5053 184.183 49.2581 184.638 49.0989C185.093 48.9398 185.575 48.8717 186.057 48.8987C186.538 48.9256 187.01 49.047 187.444 49.256C187.879 49.4649 188.268 49.7573 188.589 50.1165C188.911 50.4756 189.158 50.8945 189.317 51.3492C189.477 51.8038 189.545 52.2854 189.518 52.7663C189.491 53.2473 189.369 53.7183 189.16 54.1523C188.951 54.5864 188.658 54.975 188.299 55.296L188.274 55.3393Z" fill="#FFB573"/>
</svg>
