<svg width="290" height="216" viewBox="0 0 290 216" fill="none" xmlns="http://www.w3.org/2000/svg">
<path d="M289.763 189.581H0.237305V189.726H289.763V189.581Z" fill="#EBEBEB"/>
<path d="M260.752 198.898H241.574V199.043H260.752V198.898Z" fill="#EBEBEB"/>
<path d="M192.03 200.473H186.999V200.618H192.03V200.473Z" fill="#EBEBEB"/>
<path d="M240.995 193.524H229.883V193.669H240.995V193.524Z" fill="#EBEBEB"/>
<path d="M55.6237 194.498H30.6145V194.642H55.6237V194.498Z" fill="#EBEBEB"/>
<path d="M64.4484 194.498H60.783V194.642H64.4484V194.498Z" fill="#EBEBEB"/>
<path d="M130.611 196.941H76.3652V197.086H130.611V196.941Z" fill="#EBEBEB"/>
<path d="M137.472 163.756H25.6634C24.7875 163.754 23.948 163.405 23.3292 162.785C22.7103 162.165 22.3628 161.325 22.3628 160.449V3.27743C22.3704 2.40655 22.7213 1.57385 23.3393 0.960193C23.9573 0.346538 24.7925 0.00149186 25.6634 0H137.472C138.349 0 139.19 0.34835 139.81 0.968417C140.43 1.58848 140.779 2.42947 140.779 3.30638V160.449C140.779 161.326 140.43 162.167 139.81 162.787C139.19 163.407 138.349 163.756 137.472 163.756ZM25.6634 0.115811C24.8259 0.117345 24.0232 0.451118 23.4315 1.04387C22.8399 1.63662 22.5076 2.43992 22.5076 3.27743V160.449C22.5076 161.287 22.8399 162.09 23.4315 162.683C24.0232 163.276 24.8259 163.609 25.6634 163.611H137.472C138.31 163.609 139.114 163.276 139.706 162.683C140.299 162.091 140.632 161.287 140.634 160.449V3.27743C140.632 2.43939 140.299 1.6361 139.706 1.04352C139.114 0.45093 138.31 0.117341 137.472 0.115811H25.6634Z" fill="#EBEBEB"/>
<path d="M262.727 163.756H150.912C150.036 163.754 149.196 163.405 148.576 162.786C147.956 162.166 147.607 161.326 147.606 160.449V3.27743C147.615 2.40602 147.967 1.57333 148.586 0.959831C149.205 0.346335 150.041 0.00147559 150.912 0H262.727C263.597 0.00301367 264.43 0.348733 265.047 0.962225C265.664 1.57572 266.014 2.40755 266.022 3.27743V160.449C266.022 161.324 265.675 162.163 265.057 162.783C264.44 163.403 263.602 163.753 262.727 163.756ZM150.912 0.115811C150.074 0.117341 149.271 0.45093 148.678 1.04352C148.086 1.6361 147.752 2.43939 147.75 3.27743V160.449C147.752 161.287 148.086 162.091 148.678 162.683C149.271 163.276 150.074 163.609 150.912 163.611H262.727C263.565 163.609 264.368 163.276 264.961 162.683C265.553 162.091 265.887 161.287 265.888 160.449V3.27743C265.887 2.43939 265.553 1.6361 264.961 1.04352C264.368 0.45093 263.565 0.117341 262.727 0.115811H150.912Z" fill="#EBEBEB"/>
<path d="M242.229 23.9207H161.862V104.287H242.229V23.9207Z" fill="#E0E0E0"/>
<path d="M239.327 26.8101H164.815V101.322H239.327V26.8101Z" fill="#EBEBEB"/>
<path d="M188.122 26.8101L168.191 101.293L168.185 101.322H164.815V77.2338L178.307 26.8101H188.122Z" fill="#FAFAFA"/>
<path d="M197.508 26.8101L177.571 101.293L177.566 101.322H172.435L172.447 101.293L192.378 26.8101H197.508Z" fill="#FAFAFA"/>
<path d="M239.327 26.8101V49.2714L225.407 101.293L225.395 101.322H215.581L215.592 101.293L235.523 26.8101H239.327Z" fill="#FAFAFA"/>
<path d="M239.327 65.1663V84.3271L234.782 101.293L234.77 101.322H229.646L229.657 101.293L239.327 65.1663Z" fill="white"/>
<path d="M203.861 24.9165H200.23V103.291H203.861V24.9165Z" fill="#E0E0E0"/>
<path d="M222.332 24.9165H220.578V103.291H222.332V24.9165Z" fill="#E0E0E0"/>
<path d="M183.513 24.9165H181.758V103.291H183.513V24.9165Z" fill="#E0E0E0"/>
<path d="M241.232 45.4789V43.7244L162.858 43.7244V45.4789L241.232 45.4789Z" fill="#E0E0E0"/>
<path d="M241.232 64.9811V63.2266L162.858 63.2266V64.9811H241.232Z" fill="#E0E0E0"/>
<path d="M241.232 84.4894V82.7349H162.858V84.4894H241.232Z" fill="#E0E0E0"/>
<path d="M75.3516 143.28V153.703L70.9451 156.905H91.5014L84.9349 154.473V144.01L75.3516 143.28Z" fill="#E0E0E0"/>
<path d="M39.0337 156.604V189.436H130.79V156.604H39.0337ZM129.128 169.465H57.3259V158.735H129.128V169.465Z" fill="#E0E0E0"/>
<path d="M55.1194 156.604V189.436H130.79V156.604H55.1194ZM129.139 169.465H57.3372V158.735H129.139V169.465Z" fill="#EBEBEB"/>
<path d="M129.14 158.735H114.339V169.465H129.14V158.735Z" fill="#E0E0E0"/>
<path d="M75.6353 164.097H57.3257V169.459H75.6353V164.097Z" fill="#E0E0E0"/>
<path d="M90.7774 166.28H76.9902V169.465H90.7774V166.28Z" fill="#E0E0E0"/>
<path d="M107.09 162.945H93.9568V169.465H107.09V162.945Z" fill="#E0E0E0"/>
<path d="M70.3427 171.799L69.949 173.084H64.6796L64.2859 171.799H57.3257V186.043H80.4182V171.799H70.3427Z" fill="#E0E0E0"/>
<path d="M97.79 171.799L97.3962 173.084H92.1211L91.7273 171.799H81.6519V186.043H104.744V171.799H97.79Z" fill="#E0E0E0"/>
<path d="M118.989 171.799L118.595 173.084H113.326L112.932 171.799H105.978V186.043H129.07V171.799H118.989Z" fill="#E0E0E0"/>
<path d="M117.918 105.138H48.5707C47.4418 105.138 46.5266 106.054 46.5266 107.182V147.467C46.5266 148.596 47.4418 149.511 48.5707 149.511H117.918C119.047 149.511 119.962 148.596 119.962 147.467V107.182C119.962 106.054 119.047 105.138 117.918 105.138Z" fill="#E0E0E0"/>
<path d="M119.643 105.138H50.2962C49.1673 105.138 48.2522 106.054 48.2522 107.182V147.467C48.2522 148.596 49.1673 149.511 50.2962 149.511H119.643C120.772 149.511 121.687 148.596 121.687 147.467V107.182C121.687 106.054 120.772 105.138 119.643 105.138Z" fill="#E6E6E6"/>
<path d="M119.533 147.351V107.292H50.4119V147.351H119.533Z" fill="#F0F0F0"/>
<path d="M48.0088 56.8858V74.072H72.3289V56.8858H48.0088Z" fill="#E0E0E0"/>
<path d="M49.1555 58.0034V72.9487H71.1884V58.0034H49.1555Z" fill="#EBEBEB"/>
<path d="M56.4456 35.293V52.4792H80.7657V35.293H56.4456Z" fill="#E0E0E0"/>
<path d="M57.5864 36.4165V51.3618H79.6193V36.4165H57.5864Z" fill="#EBEBEB"/>
<path d="M92.4221 56.8862H76.9441V78.7859H92.4221V56.8862Z" fill="#E0E0E0"/>
<path d="M91.4088 57.9167H77.9517V77.755H91.4088V57.9167Z" fill="#EBEBEB"/>
<path d="M101.224 28.1592H84.0374V52.4793H101.224V28.1592Z" fill="#E0E0E0"/>
<path d="M100.106 29.3H85.1609V51.3329H100.106V29.3Z" fill="#EBEBEB"/>
<path d="M116.719 70.3434V56.8862H97.6743V70.3434H116.719Z" fill="#E0E0E0"/>
<path d="M115.828 69.4631V57.7605H98.5719V69.4631H115.828Z" fill="#EBEBEB"/>
<path d="M179.164 119.898H231.012C232.35 119.898 233.674 120.162 234.909 120.674C236.145 121.186 237.267 121.936 238.212 122.882C239.158 123.828 239.907 124.951 240.419 126.186C240.93 127.422 241.193 128.746 241.192 130.084V170.565H168.996V130.084C168.996 127.385 170.067 124.797 171.973 122.888C173.879 120.978 176.466 119.903 179.164 119.898Z" fill="#E6E6E6"/>
<path d="M153.686 149.905H162.95C163.745 149.905 164.531 150.061 165.265 150.365C165.999 150.669 166.666 151.115 167.227 151.677C167.789 152.239 168.234 152.906 168.537 153.64C168.841 154.375 168.997 155.161 168.996 155.956V189.436H147.617V155.956C147.617 155.16 147.774 154.371 148.079 153.636C148.385 152.901 148.832 152.233 149.396 151.671C149.959 151.109 150.628 150.663 151.365 150.36C152.101 150.057 152.89 149.902 153.686 149.905Z" fill="#E0E0E0"/>
<path d="M153.686 149.905H153.883C155.487 149.905 157.026 150.542 158.161 151.677C159.296 152.812 159.934 154.351 159.934 155.956V189.436H147.617V155.956C147.617 155.16 147.774 154.371 148.079 153.636C148.385 152.901 148.832 152.233 149.396 151.671C149.959 151.109 150.628 150.663 151.365 150.36C152.101 150.057 152.89 149.902 153.686 149.905Z" fill="#EBEBEB"/>
<path d="M233.658 174.057H162.505V189.436H233.658V174.057Z" fill="#E6E6E6"/>
<path d="M231.024 159.991H162.401C159.004 159.991 156.251 162.745 156.251 166.141V169.98C156.251 173.376 159.004 176.13 162.401 176.13H231.024C234.42 176.13 237.174 173.376 237.174 169.98V166.141C237.174 162.745 234.42 159.991 231.024 159.991Z" fill="#F5F5F5"/>
<path d="M230.914 159.991H222.396C219 159.991 216.246 162.745 216.246 166.141V169.98C216.246 173.376 219 176.13 222.396 176.13H230.914C234.31 176.13 237.063 173.376 237.063 169.98V166.141C237.063 162.745 234.31 159.991 230.914 159.991Z" fill="#E0E0E0"/>
<path d="M231.858 149.905H241.122C242.727 149.905 244.266 150.542 245.401 151.677C246.536 152.812 247.174 154.351 247.174 155.956V189.436H225.778V155.956C225.778 155.159 225.935 154.369 226.241 153.633C226.547 152.897 226.995 152.229 227.56 151.667C228.125 151.104 228.796 150.659 229.533 150.357C230.271 150.055 231.061 149.901 231.858 149.905Z" fill="#E0E0E0"/>
<path d="M231.858 149.905H232.054C233.659 149.905 235.198 150.542 236.333 151.677C237.468 152.812 238.106 154.351 238.106 155.956V189.436H225.778V155.956C225.778 155.159 225.935 154.369 226.241 153.633C226.547 152.897 226.995 152.229 227.56 151.667C228.125 151.104 228.796 150.659 229.533 150.357C230.271 150.055 231.061 149.901 231.858 149.905Z" fill="#F0F0F0"/>
<path opacity="0.36" d="M145 215.731C207.006 215.731 257.272 212.796 257.272 209.176C257.272 205.556 207.006 202.621 145 202.621C82.9938 202.621 32.7278 205.556 32.7278 209.176C32.7278 212.796 82.9938 215.731 145 215.731Z" fill="#301549"/>
<path d="M76.7477 167.664C76.8693 168.516 74.5647 169.071 72.6943 169.402C72.8449 170.942 73.8524 172.505 75.2943 173.964C77.0777 172.957 79.6314 171.648 80.1004 171.955C80.5694 172.262 78.0042 173.999 76.3713 174.989C77.5366 176.008 78.771 176.944 80.0657 177.792C80.8705 177.045 81.8028 176.385 82.3819 176.744C82.9609 177.103 82.8046 178.267 82.5208 179.303C84.4607 180.432 85.9199 181.122 85.9199 181.122C86.4848 179.318 86.9183 177.475 87.2169 175.609C87.1185 175.412 87.0201 175.215 86.9332 175.03C86.6205 174.3 86.9332 173.993 87.4428 173.872C87.5786 172.549 87.5786 171.216 87.4428 169.894C85.2424 169.43 82.5672 168.579 83.5689 167.259C84.1769 166.466 85.3061 166.373 86.4642 166.576C86.306 166.312 86.1237 166.064 85.9199 165.835C81.9128 161.422 79.1218 165.835 79.1218 165.835C76.8056 163.895 73.5282 164.422 72.8217 167.45C74.1014 167.108 76.5971 166.611 76.7477 167.664Z" fill="#8B55C6"/>
<path opacity="0.3" d="M76.7477 167.664C76.8693 168.516 74.5647 169.071 72.6943 169.402C72.8449 170.942 73.8524 172.505 75.2943 173.964C77.0777 172.957 79.6314 171.648 80.1004 171.955C80.5694 172.262 78.0042 173.999 76.3713 174.989C77.5366 176.008 78.771 176.944 80.0657 177.792C80.8705 177.045 81.8028 176.385 82.3819 176.744C82.9609 177.103 82.8046 178.267 82.5208 179.303C84.4607 180.432 85.9199 181.122 85.9199 181.122C86.4848 179.318 86.9183 177.475 87.2169 175.609C87.1185 175.412 87.0201 175.215 86.9332 175.03C86.6205 174.3 86.9332 173.993 87.4428 173.872C87.5786 172.549 87.5786 171.216 87.4428 169.894C85.2424 169.43 82.5672 168.579 83.5689 167.259C84.1769 166.466 85.3061 166.373 86.4642 166.576C86.306 166.312 86.1237 166.064 85.9199 165.835C81.9128 161.422 79.1218 165.835 79.1218 165.835C76.8056 163.895 73.5282 164.422 72.8217 167.45C74.1014 167.108 76.5971 166.611 76.7477 167.664Z" fill="white"/>
<path d="M81.7447 200.079L81.1656 200.033C81.1946 199.738 83.5397 170.194 76.9096 167.415C76.5941 167.266 76.2482 167.193 75.8995 167.201C75.5507 167.209 75.2086 167.298 74.9003 167.461C72.503 168.706 71.3565 173.877 71.3449 173.935L70.7659 173.808C70.818 173.588 71.9819 168.318 74.6224 166.952C75.0055 166.748 75.4305 166.635 75.8643 166.622C76.2981 166.609 76.7291 166.696 77.1238 166.877C84.1477 169.824 81.8431 198.846 81.7447 200.079Z" fill="#8B55C6"/>
<path d="M82.5783 199.442C82.4625 198.111 79.7584 166.859 84.8135 163.541C86.0295 162.748 87.1297 162.574 88.0272 163.043C90.4187 164.248 90.7314 169.361 90.7487 169.575L90.1697 169.61C90.1697 169.558 89.8628 164.612 87.7666 163.559C87.0486 163.194 86.1627 163.35 85.1319 164.028C80.3606 167.154 83.1284 199.066 83.1574 199.39L82.5783 199.442Z" fill="#8B55C6"/>
<path d="M83.3429 201.967C83.3024 200.931 82.4627 177.028 87.0951 174.931C87.5239 174.731 87.9914 174.627 88.4646 174.627C88.9378 174.627 89.4053 174.731 89.834 174.931C92.9957 176.327 94.9471 182.216 95.0455 182.459L94.4954 182.639C94.4954 182.581 92.544 176.744 89.6198 175.458C89.2653 175.29 88.8775 175.202 88.4849 175.202C88.0922 175.202 87.7045 175.29 87.3499 175.458C83.8177 177.068 83.7019 195.146 83.9567 201.944L83.3429 201.967Z" fill="#8B55C6"/>
<path d="M82.1673 200.873L81.5882 200.809C82.3989 193.687 83.9507 174.717 81.4145 172.436C81.2921 172.286 81.1288 172.176 80.9447 172.119C80.7605 172.061 80.5636 172.058 80.378 172.111C78.6814 172.766 77.6449 178.938 77.3901 181.26L76.811 181.197C76.9095 180.305 77.8359 172.47 80.1695 171.573C80.4539 171.477 80.7599 171.467 81.0499 171.543C81.34 171.619 81.6015 171.779 81.8025 172.001C85.0857 174.943 82.2889 199.813 82.1673 200.873Z" fill="#8B55C6"/>
<path d="M72.5032 187.375H93.3085L91.5713 210.676H74.2403L72.5032 187.375Z" fill="#263238"/>
<path opacity="0.2" d="M78.8262 187.375L79.4052 210.676H91.5711L93.3082 187.375H78.8262Z" fill="white"/>
<path d="M75.3406 178.823C75.1205 179.402 73.505 178.944 72.2369 178.492C71.8026 179.5 71.901 180.809 72.2774 182.198C73.725 182.198 75.7517 182.245 75.9312 182.61C76.1107 182.974 73.9393 183.148 72.5901 183.189C72.9589 184.218 73.4001 185.221 73.9103 186.188C74.6631 185.997 75.4622 185.916 75.688 186.327C75.9139 186.738 75.4217 187.41 74.8947 187.954C75.7054 189.315 76.3655 190.241 76.3655 190.241C77.3328 189.321 78.2326 188.332 79.0581 187.282C79.0581 187.132 79.0581 186.976 79.0581 186.819C79.1102 186.24 79.4055 186.177 79.7587 186.292C80.3023 185.529 80.766 184.712 81.1427 183.855C79.944 182.812 78.5891 181.37 79.6545 180.901C80.3031 180.618 81.0153 180.942 81.658 181.48C81.6489 181.264 81.6218 181.049 81.577 180.838C80.6215 176.744 77.3846 178.521 77.3846 178.521C76.6145 176.524 74.4199 175.73 72.9433 177.363C73.893 177.572 75.607 178.122 75.3406 178.823Z" fill="#8B55C6"/>
<path opacity="0.3" d="M75.3406 178.823C75.1205 179.402 73.505 178.944 72.2369 178.492C71.8026 179.5 71.901 180.809 72.2774 182.198C73.725 182.198 75.7517 182.245 75.9312 182.61C76.1107 182.974 73.9393 183.148 72.5901 183.189C72.9589 184.218 73.4001 185.221 73.9103 186.188C74.6631 185.997 75.4622 185.916 75.688 186.327C75.9139 186.738 75.4217 187.41 74.8947 187.954C75.7054 189.315 76.3655 190.241 76.3655 190.241C77.3328 189.321 78.2326 188.332 79.0581 187.282C79.0581 187.132 79.0581 186.976 79.0581 186.819C79.1102 186.24 79.4055 186.177 79.7587 186.292C80.3023 185.529 80.766 184.712 81.1427 183.855C79.944 182.812 78.5891 181.37 79.6545 180.901C80.3031 180.618 81.0153 180.942 81.658 181.48C81.6489 181.264 81.6218 181.049 81.577 180.838C80.6215 176.744 77.3846 178.521 77.3846 178.521C76.6145 176.524 74.4199 175.73 72.9433 177.363C73.893 177.572 75.607 178.122 75.3406 178.823Z" fill="white"/>
<path d="M90.7835 181.59C90.1363 181.644 89.4983 181.778 88.8842 181.99C88.7159 181.549 88.622 181.083 88.6063 180.612C88.4731 176.419 91.5016 178.185 93.065 176.952C93.424 176.635 93.8457 176.398 94.3027 176.255C94.7597 176.112 95.2416 176.068 95.717 176.124C95.5824 176.355 95.4625 176.595 95.358 176.842C95.3212 176.934 95.3055 177.033 95.3122 177.132C95.3189 177.231 95.3478 177.327 95.3967 177.413C95.4457 177.5 95.5134 177.574 95.595 177.63C95.6765 177.687 95.7697 177.724 95.8676 177.739C96.1247 177.807 96.3945 177.81 96.653 177.749C96.9116 177.687 97.151 177.562 97.35 177.386C97.604 177.828 97.7987 178.301 97.929 178.793C98.0891 179.377 98.1804 179.978 98.2012 180.583C97.9638 180.64 97.7321 180.704 97.5005 180.785C97.4088 180.824 97.3271 180.883 97.2619 180.958C97.1967 181.033 97.1497 181.123 97.1245 181.219C97.0993 181.315 97.0966 181.416 97.1166 181.514C97.1366 181.611 97.1788 181.703 97.24 181.781C97.4876 182.036 97.7776 182.245 98.0969 182.401C97.9899 183.072 97.8133 183.73 97.57 184.364L97.3558 184.399C97.2052 184.427 97.0547 184.468 96.9041 184.509L96.6493 184.601C96.5464 184.646 96.4567 184.716 96.3887 184.805C96.3208 184.894 96.2769 185 96.2614 185.111C96.249 185.22 96.2648 185.331 96.3074 185.432C96.35 185.533 96.4179 185.622 96.5046 185.69C96.604 185.761 96.7085 185.825 96.8172 185.881C96.4177 186.575 95.8452 187.153 95.1554 187.56C94.559 187.281 93.9791 186.967 93.4182 186.622C93.5456 186.454 93.6672 186.286 93.783 186.112C93.9223 185.922 93.9862 185.687 93.9625 185.452C93.9286 185.222 93.806 185.014 93.6209 184.873C93.4338 184.732 93.1996 184.668 92.9666 184.694C92.7376 184.731 92.5309 184.853 92.3875 185.035C92.2485 185.244 92.098 185.441 91.9474 185.615C91.1462 185.026 90.4292 184.33 89.8165 183.547H89.8802C90.2604 183.451 90.6477 183.385 91.0383 183.35C91.1692 183.358 91.3001 183.336 91.4216 183.286C91.5431 183.237 91.6523 183.162 91.7413 183.065C91.8303 182.969 91.897 182.854 91.9366 182.729C91.9762 182.604 91.9877 182.472 91.9704 182.342C91.9531 182.212 91.9073 182.088 91.8363 181.977C91.7653 181.867 91.6709 181.774 91.5598 181.704C91.4487 181.635 91.3236 181.59 91.1934 181.575C91.0632 181.559 90.9312 181.572 90.8067 181.613L90.7835 181.59Z" fill="#8B55C6"/>
<path opacity="0.5" d="M90.7835 181.59C90.1363 181.644 89.4983 181.778 88.8842 181.99C88.7159 181.549 88.622 181.083 88.6063 180.612C88.4731 176.419 91.5016 178.185 93.065 176.952C93.424 176.635 93.8457 176.398 94.3027 176.255C94.7597 176.112 95.2416 176.068 95.717 176.124C95.5824 176.355 95.4625 176.595 95.358 176.842C95.3212 176.934 95.3055 177.033 95.3122 177.132C95.3189 177.231 95.3478 177.327 95.3967 177.413C95.4457 177.5 95.5134 177.574 95.595 177.63C95.6765 177.687 95.7697 177.724 95.8676 177.739C96.1247 177.807 96.3945 177.81 96.653 177.749C96.9116 177.687 97.151 177.562 97.35 177.386C97.604 177.828 97.7987 178.301 97.929 178.793C98.0891 179.377 98.1804 179.978 98.2012 180.583C97.9638 180.64 97.7321 180.704 97.5005 180.785C97.4088 180.824 97.3271 180.883 97.2619 180.958C97.1967 181.033 97.1497 181.123 97.1245 181.219C97.0993 181.315 97.0966 181.416 97.1166 181.514C97.1366 181.611 97.1788 181.703 97.24 181.781C97.4876 182.036 97.7776 182.245 98.0969 182.401C97.9899 183.072 97.8133 183.73 97.57 184.364L97.3558 184.399C97.2052 184.427 97.0547 184.468 96.9041 184.509L96.6493 184.601C96.5464 184.646 96.4567 184.716 96.3887 184.805C96.3208 184.894 96.2769 185 96.2614 185.111C96.249 185.22 96.2648 185.331 96.3074 185.432C96.35 185.533 96.4179 185.622 96.5046 185.69C96.604 185.761 96.7085 185.825 96.8172 185.881C96.4177 186.575 95.8452 187.153 95.1554 187.56C94.559 187.281 93.9791 186.967 93.4182 186.622C93.5456 186.454 93.6672 186.286 93.783 186.112C93.9223 185.922 93.9862 185.687 93.9625 185.452C93.9286 185.222 93.806 185.014 93.6209 184.873C93.4338 184.732 93.1996 184.668 92.9666 184.694C92.7376 184.731 92.5309 184.853 92.3875 185.035C92.2485 185.244 92.098 185.441 91.9474 185.615C91.1462 185.026 90.4292 184.33 89.8165 183.547H89.8802C90.2604 183.451 90.6477 183.385 91.0383 183.35C91.1692 183.358 91.3001 183.336 91.4216 183.286C91.5431 183.237 91.6523 183.162 91.7413 183.065C91.8303 182.969 91.897 182.854 91.9366 182.729C91.9762 182.604 91.9877 182.472 91.9704 182.342C91.9531 182.212 91.9073 182.088 91.8363 181.977C91.7653 181.867 91.6709 181.774 91.5598 181.704C91.4487 181.635 91.3236 181.59 91.1934 181.575C91.0632 181.559 90.9312 181.572 90.8067 181.613L90.7835 181.59Z" fill="white"/>
<path d="M91.9879 167.125C92.3453 166.868 92.7346 166.658 93.146 166.5C93.0401 166.195 92.8856 165.91 92.6886 165.655C90.9167 163.391 90.1118 165.655 88.7394 165.689C88.4149 165.682 88.0926 165.744 87.7933 165.87C87.494 165.995 87.2245 166.182 87.0023 166.419C87.1746 166.479 87.3429 166.551 87.5061 166.633C87.5651 166.666 87.6161 166.712 87.6555 166.766C87.6949 166.821 87.7216 166.884 87.7338 166.951C87.746 167.017 87.7433 167.085 87.7259 167.151C87.7086 167.216 87.677 167.276 87.6334 167.328C87.4582 167.545 87.2191 167.701 86.9502 167.774C86.8673 167.78 86.7841 167.78 86.7012 167.774C86.7601 168.117 86.8653 168.45 87.0139 168.764C87.1875 169.14 87.4031 169.496 87.6566 169.824C87.8053 169.748 87.958 169.68 88.114 169.621C88.1797 169.601 88.2492 169.595 88.3171 169.606C88.385 169.617 88.4495 169.643 88.5056 169.683C88.5617 169.723 88.6078 169.775 88.6403 169.836C88.6728 169.896 88.6909 169.964 88.6931 170.032C88.676 170.274 88.6131 170.509 88.5078 170.727C88.8649 171.035 89.253 171.305 89.6659 171.532L89.7933 171.457L90.077 171.312C90.1331 171.287 90.1912 171.268 90.2507 171.254C90.3241 171.231 90.4021 171.228 90.4772 171.244C90.5522 171.26 90.6219 171.296 90.6792 171.347C90.7379 171.4 90.7816 171.467 90.806 171.542C90.8304 171.618 90.8346 171.698 90.8182 171.775C90.8182 171.856 90.7661 171.932 90.7371 172.013C91.2518 172.201 91.8063 172.253 92.3469 172.163C92.5439 171.751 92.716 171.328 92.8623 170.895L92.4454 170.791C92.2909 170.749 92.1558 170.655 92.0632 170.524C91.9792 170.386 91.9502 170.22 91.9821 170.061C92.0181 169.903 92.1149 169.766 92.2516 169.679C92.3882 169.593 92.5536 169.563 92.7117 169.598C92.8738 169.644 93.0418 169.679 93.2097 169.72C93.3723 169.059 93.4424 168.379 93.4182 167.699H93.3776C93.1289 167.814 92.8922 167.953 92.6712 168.116C92.5329 168.199 92.3676 168.226 92.21 168.19C92.0524 168.155 91.9147 168.059 91.8258 167.925C91.7515 167.794 91.7271 167.641 91.7569 167.495C91.7867 167.348 91.8688 167.216 91.9879 167.125Z" fill="#8B55C6"/>
<path opacity="0.3" d="M91.9879 167.125C92.3453 166.868 92.7346 166.658 93.146 166.5C93.0401 166.195 92.8856 165.91 92.6886 165.655C90.9167 163.391 90.1118 165.655 88.7394 165.689C88.4149 165.682 88.0926 165.744 87.7933 165.87C87.494 165.995 87.2245 166.182 87.0023 166.419C87.1746 166.479 87.3429 166.551 87.5061 166.633C87.5651 166.666 87.6161 166.712 87.6555 166.766C87.6949 166.821 87.7216 166.884 87.7338 166.951C87.746 167.017 87.7433 167.085 87.7259 167.151C87.7086 167.216 87.677 167.276 87.6334 167.328C87.4582 167.545 87.2191 167.701 86.9502 167.774C86.8673 167.78 86.7841 167.78 86.7012 167.774C86.7601 168.117 86.8653 168.45 87.0139 168.764C87.1875 169.14 87.4031 169.496 87.6566 169.824C87.8053 169.748 87.958 169.68 88.114 169.621C88.1797 169.601 88.2492 169.595 88.3171 169.606C88.385 169.617 88.4495 169.643 88.5056 169.683C88.5617 169.723 88.6078 169.775 88.6403 169.836C88.6728 169.896 88.6909 169.964 88.6931 170.032C88.676 170.274 88.6131 170.509 88.5078 170.727C88.8649 171.035 89.253 171.305 89.6659 171.532L89.7933 171.457L90.077 171.312C90.1331 171.287 90.1912 171.268 90.2507 171.254C90.3241 171.231 90.4021 171.228 90.4772 171.244C90.5522 171.26 90.6219 171.296 90.6792 171.347C90.7379 171.4 90.7816 171.467 90.806 171.542C90.8304 171.618 90.8346 171.698 90.8182 171.775C90.8182 171.856 90.7661 171.932 90.7371 172.013C91.2518 172.201 91.8063 172.253 92.3469 172.163C92.5439 171.751 92.716 171.328 92.8623 170.895L92.4454 170.791C92.2909 170.749 92.1558 170.655 92.0632 170.524C91.9792 170.386 91.9502 170.22 91.9821 170.061C92.0181 169.903 92.1149 169.766 92.2516 169.679C92.3882 169.593 92.5536 169.563 92.7117 169.598C92.8738 169.644 93.0418 169.679 93.2097 169.72C93.3723 169.059 93.4424 168.379 93.4182 167.699H93.3776C93.1289 167.814 92.8922 167.953 92.6712 168.116C92.5329 168.199 92.3676 168.226 92.21 168.19C92.0524 168.155 91.9147 168.059 91.8258 167.925C91.7515 167.794 91.7271 167.641 91.7569 167.495C91.7867 167.348 91.8688 167.216 91.9879 167.125Z" fill="white"/>
<path d="M75.0337 171.324C74.9121 172.175 77.2225 172.736 79.0871 173.061C78.9365 174.607 77.929 176.17 76.4871 177.629C74.6979 176.622 72.15 175.313 71.681 175.614C71.212 175.915 73.7772 177.658 75.4101 178.649C74.2458 179.671 73.0092 180.607 71.71 181.451C70.9109 180.704 69.9728 180.05 69.3938 180.403C68.8147 180.756 68.9711 181.932 69.2548 182.963C67.3092 184.121 65.8558 184.787 65.8558 184.787C65.2904 182.981 64.8569 181.137 64.5587 179.268C64.6571 179.077 64.7498 178.88 64.8424 178.689C65.1551 177.965 64.8424 177.658 64.3329 177.531C64.1855 176.212 64.1739 174.881 64.2981 173.559C66.4985 173.095 69.1737 172.238 68.172 170.924C67.5929 170.125 66.4348 170.038 65.3115 170.235C65.4697 169.972 65.6519 169.724 65.8558 169.494C69.857 165.081 72.6538 169.494 72.6538 169.494C74.97 167.554 78.2475 168.081 78.9539 171.109C77.6858 170.768 75.1843 170.27 75.0337 171.324Z" fill="#8B55C6"/>
<path opacity="0.5" d="M75.0337 171.324C74.9121 172.175 77.2225 172.736 79.0871 173.061C78.9365 174.607 77.929 176.17 76.4871 177.629C74.6979 176.622 72.15 175.313 71.681 175.614C71.212 175.915 73.7772 177.658 75.4101 178.649C74.2458 179.671 73.0092 180.607 71.71 181.451C70.9109 180.704 69.9728 180.05 69.3938 180.403C68.8147 180.756 68.9711 181.932 69.2548 182.963C67.3092 184.121 65.8558 184.787 65.8558 184.787C65.2904 182.981 64.8569 181.137 64.5587 179.268C64.6571 179.077 64.7498 178.88 64.8424 178.689C65.1551 177.965 64.8424 177.658 64.3329 177.531C64.1855 176.212 64.1739 174.881 64.2981 173.559C66.4985 173.095 69.1737 172.238 68.172 170.924C67.5929 170.125 66.4348 170.038 65.3115 170.235C65.4697 169.972 65.6519 169.724 65.8558 169.494C69.857 165.081 72.6538 169.494 72.6538 169.494C74.97 167.554 78.2475 168.081 78.9539 171.109C77.6858 170.768 75.1843 170.27 75.0337 171.324Z" fill="white"/>
<path d="M133.61 81.5884L117.501 84.0725L133.61 86.5624L149.719 84.0725L133.61 81.5884Z" fill="#8B55C6"/>
<path opacity="0.3" d="M133.61 81.5884L117.501 84.0725L133.61 86.5624L149.719 84.0725L133.61 81.5884Z" fill="white"/>
<path d="M129.308 50.7249H71.8023C69.263 50.7249 67.2046 52.7833 67.2046 55.3225V112.828C67.2046 115.367 69.263 117.426 71.8023 117.426H129.308C131.847 117.426 133.905 115.367 133.905 112.828V55.3225C133.905 52.7833 131.847 50.7249 129.308 50.7249Z" fill="#8B55C6"/>
<path opacity="0.3" d="M129.308 50.7249H71.8023C69.263 50.7249 67.2046 52.7833 67.2046 55.3225V112.828C67.2046 115.367 69.263 117.426 71.8023 117.426H129.308C131.847 117.426 133.905 115.367 133.905 112.828V55.3225C133.905 52.7833 131.847 50.7249 129.308 50.7249Z" fill="white"/>
<path d="M89.8105 52.5375C89.8105 52.5375 85.3229 65.9947 86.5678 68.1082C87.8128 70.2217 91.0555 75.578 89.8105 82.8682C88.5656 90.1585 89.5615 91.7335 81.8312 95.8042C74.1009 99.8749 81.8312 115.608 81.8312 115.608H86.5678C86.5678 115.608 83.4178 104.473 84.2516 103.17C85.0855 101.867 89.5673 106.853 97.0429 107.848C104.518 108.844 117.715 108.891 120.46 88.7398C123.204 68.5888 103.638 62.4161 95.2941 64.5065C92.3989 65.2303 96.7939 52.5317 96.7939 52.5317L89.8105 52.5375Z" fill="#8B55C6"/>
<path opacity="0.5" d="M89.8105 52.5375C89.8105 52.5375 85.3229 65.9947 86.5678 68.1082C87.8128 70.2217 91.0555 75.578 89.8105 82.8682C88.5656 90.1585 89.5615 91.7335 81.8312 95.8042C74.1009 99.8749 81.8312 115.608 81.8312 115.608H86.5678C86.5678 115.608 83.4178 104.473 84.2516 103.17C85.0855 101.867 89.5673 106.853 97.0429 107.848C104.518 108.844 117.715 108.891 120.46 88.7398C123.204 68.5888 103.638 62.4161 95.2941 64.5065C92.3989 65.2303 96.7939 52.5317 96.7939 52.5317L89.8105 52.5375Z" fill="white"/>
<g opacity="0.4">
<path d="M82.7172 97.4775C89.8047 93.7426 90.4417 91.6059 91.2408 85.9833C91.3624 85.1553 91.4956 84.2462 91.6693 83.1865C93.0127 75.3288 89.5673 69.4688 88.2587 67.251C87.9749 65.8324 89.7063 57.8994 91.4203 52.5374H89.8105C89.8105 52.5374 85.3229 65.9945 86.5678 68.108C87.8128 70.2216 91.0555 75.5778 89.8105 82.868C88.5656 90.1583 89.5615 91.7333 81.8312 95.804C74.1009 99.8748 81.8312 115.608 81.8312 115.608H83.3194C81.8833 112.261 77.7547 100.089 82.7172 97.4775Z" fill="white"/>
<path d="M95.2884 64.5121C92.3932 65.2359 96.7882 52.5374 96.7882 52.5374H94.5357C92.7232 58.3279 91.9763 63.8983 93.0359 65.3807C93.2649 65.7065 93.5694 65.972 93.9234 66.1545C94.2773 66.337 94.6702 66.4311 95.0684 66.4288C95.2988 66.4277 95.5283 66.3986 95.7517 66.3419C96.7369 66.1144 97.7458 66.0055 98.7569 66.0177C103.227 66.0177 110.048 67.8475 114.559 73.0184C118.08 77.0717 119.429 82.2832 118.578 88.4906C116.951 100.471 111.403 106.296 101.623 106.296C100.172 106.287 98.7231 106.181 97.2862 105.978C93.3428 105.451 90.2217 103.662 88.1545 102.504C86.6664 101.652 85.6878 101.091 84.6802 101.091C84.2793 101.081 83.8829 101.176 83.5297 101.366C83.1764 101.556 82.8785 101.834 82.6651 102.174C82.2772 102.782 82.723 105.891 85.323 115.631H86.5795C86.5795 115.631 83.4295 104.496 84.2633 103.193C85.0971 101.89 89.579 106.875 97.0545 107.871C104.53 108.867 117.727 108.914 120.471 88.7628C123.216 68.6118 103.633 62.4218 95.2884 64.5121Z" fill="white"/>
</g>
<path opacity="0.4" d="M124.739 57.9517L120.17 61.6865L121.757 62.1035L116.777 66.9559L124.588 61.9471L122.701 61.4549L127.148 58.5828L124.739 57.9517Z" fill="black"/>
<path opacity="0.4" d="M129.134 109.389L124.965 105.22L124.71 106.841L119.383 102.371L125.15 109.643L125.451 107.715L128.752 111.855L129.134 109.389Z" fill="black"/>
<path opacity="0.4" d="M73.0123 80.4589L79.874 82.1092L79.1907 80.3373L87.4538 81.5881L77.0772 77.8069L77.8937 79.9088L71.97 77.7664L73.0123 80.4589Z" fill="black"/>
<path d="M118.097 89.6486L117.721 89.0695C117.931 88.8163 118.06 88.5055 118.092 88.1778L118.763 88.033L118.092 87.8883C118.062 87.5585 117.932 87.2456 117.721 86.9907L118.097 86.4117L117.518 86.7823C117.262 86.5734 116.95 86.4445 116.621 86.4117L116.476 85.74L116.337 86.4117C116.008 86.4445 115.696 86.5734 115.439 86.7823L114.86 86.4117L115.237 86.9907C115.023 87.2442 114.894 87.5579 114.866 87.8883L114.189 88.033L114.866 88.1778C114.895 88.5061 115.024 88.8176 115.237 89.0695L114.86 89.6486L115.439 89.2722C115.693 89.4858 116.007 89.6153 116.337 89.6428L116.476 90.3203L116.621 89.6428C116.951 89.6153 117.265 89.4858 117.518 89.2722L118.097 89.6486Z" fill="#8B55C6"/>
<path d="M111.49 72.6244L111.114 72.0454C111.327 71.794 111.457 71.4823 111.484 71.1536L112.162 71.0089L111.484 70.8641C111.457 70.5337 111.327 70.2201 111.114 69.9666L111.49 69.3875L110.911 69.7581C110.656 69.5502 110.346 69.4214 110.019 69.3875L109.875 68.7158L109.73 69.3875C109.401 69.4203 109.089 69.5492 108.832 69.7581L108.253 69.3875L108.624 69.9666C108.415 70.2229 108.286 70.535 108.253 70.8641L107.582 71.0089L108.253 71.1536C108.286 71.4809 108.415 71.7912 108.624 72.0454L108.253 72.6244L108.832 72.248C109.086 72.4617 109.399 72.5912 109.73 72.6186L109.875 73.2961L110.019 72.6186C110.348 72.59 110.659 72.4606 110.911 72.248L111.49 72.6244Z" fill="#8B55C6"/>
<path d="M94.1709 81.3044L93.7945 80.7254C94.009 80.4747 94.1387 80.1625 94.1651 79.8336L94.8426 79.6889L94.1651 79.5441C94.1387 79.2152 94.009 78.9031 93.7945 78.6524L94.1709 78.0733L93.5918 78.4497C93.3383 78.2361 93.0247 78.1066 92.6943 78.0791L92.5553 77.4016L92.4106 78.0791C92.0802 78.1066 91.7665 78.2361 91.513 78.4497L90.934 78.0733L91.3104 78.6524C91.0982 78.9045 90.9688 79.2158 90.9398 79.5441L90.2681 79.6889L90.9398 79.8336C90.9688 80.1619 91.0982 80.4732 91.3104 80.7254L90.934 81.3044L91.513 80.928C91.7665 81.1417 92.0802 81.2712 92.4106 81.2986L92.5553 81.9761L92.6943 81.2986C93.0247 81.2712 93.3383 81.1417 93.5918 80.928L94.1709 81.3044Z" fill="#8B55C6"/>
<path d="M97.9057 106.615L97.5351 106.036C97.7464 105.781 97.8756 105.468 97.9057 105.138L98.5774 104.999L97.9057 104.854C97.8756 104.525 97.7464 104.212 97.5351 103.957L97.9057 103.378L97.3266 103.754C97.0731 103.541 96.7595 103.411 96.4291 103.384L96.2843 102.712L96.1396 103.384C95.8112 103.412 95.4997 103.542 95.2478 103.754L94.6688 103.378L95.0452 103.957C94.8315 104.21 94.702 104.524 94.6746 104.854L93.9971 104.999L94.6746 105.138C94.702 105.469 94.8315 105.782 95.0452 106.036L94.6688 106.615L95.2478 106.238C95.4997 106.451 95.8112 106.58 96.1396 106.609L96.2843 107.281L96.4291 106.609C96.7595 106.581 97.0731 106.452 97.3266 106.238L97.9057 106.615Z" fill="#8B55C6"/>
<path d="M105.491 106.858L105.254 106.493C105.391 106.329 105.474 106.127 105.491 105.914L105.92 105.827L105.491 105.735C105.474 105.522 105.391 105.32 105.254 105.156L105.491 104.785L105.127 105.028C104.964 104.889 104.761 104.806 104.548 104.791L104.455 104.362L104.362 104.791C104.149 104.806 103.946 104.889 103.783 105.028L103.418 104.785L103.656 105.156C103.517 105.318 103.434 105.521 103.418 105.735L102.99 105.827L103.418 105.914C103.436 106.127 103.519 106.329 103.656 106.493L103.418 106.858L103.783 106.621C103.947 106.758 104.15 106.839 104.362 106.852L104.455 107.281L104.548 106.852C104.76 106.839 104.963 106.758 105.127 106.621L105.491 106.858Z" fill="#8B55C6"/>
<path d="M92.127 87.6568L91.8896 87.292C92.0262 87.1278 92.109 86.9257 92.127 86.7129L92.5555 86.6203L92.127 86.5276C92.109 86.3148 92.0262 86.1127 91.8896 85.9486L92.127 85.5838L91.7622 85.8212C91.5995 85.6822 91.3966 85.599 91.1831 85.5838L91.0905 85.1553L90.9978 85.5838C90.7844 85.599 90.5815 85.6822 90.4188 85.8212L90.054 85.5838L90.2914 85.9486C90.1548 86.1127 90.0719 86.3148 90.054 86.5276L89.6255 86.6203L90.054 86.7129C90.0719 86.9257 90.1548 87.1278 90.2914 87.292L90.054 87.6568L90.4188 87.4194C90.5829 87.5559 90.7851 87.6388 90.9978 87.6568L91.0905 88.0853L91.1831 87.6568C91.3959 87.6388 91.598 87.5559 91.7622 87.4194L92.127 87.6568Z" fill="#8B55C6"/>
<path d="M117.507 77.3323L117.263 76.9617C117.403 76.7997 117.487 76.5964 117.501 76.3827L117.929 76.29L117.501 76.2032C117.487 75.9895 117.403 75.7862 117.263 75.6241L117.507 75.2535L117.136 75.4909C116.971 75.3561 116.769 75.2752 116.557 75.2593L116.464 74.8308L116.377 75.2593C116.166 75.2763 115.964 75.3571 115.798 75.4909L115.468 75.2767L115.706 75.6473C115.567 75.8099 115.486 76.0132 115.474 76.2263L115.046 76.3132L115.474 76.4058C115.486 76.6189 115.567 76.8223 115.706 76.9849L115.468 77.3555L115.833 77.1181C115.998 77.2519 116.2 77.3327 116.412 77.3497L116.499 77.7782L116.592 77.3497C116.804 77.3338 117.006 77.2529 117.171 77.1181L117.507 77.3323Z" fill="#8B55C6"/>
<path d="M168.087 208.435L162.928 208.354L162.65 196.368L167.809 196.449L168.087 208.435Z" fill="#EBB376"/>
<path opacity="0.2" d="M162.65 196.373L162.794 202.552L167.954 202.633L167.809 196.449L162.65 196.373Z" fill="black"/>
<path d="M162.493 204.712L168.127 204.804C168.229 204.803 168.327 204.839 168.404 204.905C168.48 204.971 168.53 205.063 168.544 205.163L169.268 209.796C169.285 209.909 169.277 210.025 169.244 210.136C169.212 210.246 169.155 210.348 169.079 210.434C169.003 210.52 168.909 210.588 168.804 210.634C168.698 210.68 168.584 210.702 168.469 210.699C166.437 210.635 163.507 210.467 160.941 210.427C157.954 210.381 158.249 210.502 154.746 210.427C152.626 210.392 152.175 208.238 153.078 208.059C157.172 207.236 157.589 207.196 161.214 205.094C161.599 204.855 162.04 204.723 162.493 204.712Z" fill="#263238"/>
<path d="M161.579 205.175C161.601 205.166 161.62 205.151 161.634 205.13C161.648 205.11 161.655 205.087 161.655 205.062C161.655 205.038 161.648 205.014 161.634 204.994C161.62 204.974 161.601 204.958 161.579 204.949C161.335 204.828 159.222 203.739 158.608 204.081C158.55 204.111 158.501 204.157 158.467 204.213C158.434 204.269 158.416 204.334 158.417 204.399C158.412 204.508 158.432 204.617 158.475 204.717C158.518 204.818 158.583 204.907 158.666 204.978C159.245 205.488 160.722 205.308 161.561 205.152L161.579 205.175ZM158.788 204.278C159.176 204.144 160.316 204.596 161.15 204.996C159.992 205.169 159.158 205.106 158.834 204.822C158.778 204.773 158.734 204.711 158.705 204.641C158.677 204.572 158.666 204.497 158.672 204.422C158.671 204.396 158.678 204.37 158.691 204.348C158.704 204.325 158.724 204.307 158.747 204.295L158.788 204.278Z" fill="#8B55C6"/>
<path d="M161.579 205.175H161.608C161.625 205.163 161.639 205.146 161.648 205.127C161.657 205.107 161.661 205.086 161.66 205.065C161.66 205.007 161.463 203.612 160.785 203.062C160.692 202.981 160.584 202.92 160.466 202.882C160.349 202.844 160.225 202.83 160.102 202.841C159.766 202.87 159.674 203.038 159.656 203.177C159.581 203.756 160.855 204.914 161.492 205.187C161.521 205.191 161.552 205.187 161.579 205.175ZM160.01 203.09C160.05 203.086 160.091 203.086 160.131 203.09C160.316 203.075 160.499 203.133 160.641 203.253C161.037 203.704 161.293 204.262 161.376 204.857C160.722 204.469 159.853 203.577 159.899 203.224C159.899 203.183 159.911 203.125 160.01 203.09Z" fill="#8B55C6"/>
<path d="M185.91 112.133C183.472 118.567 179.986 126.112 176.889 136.407C176.107 139.001 175.354 141.763 174.642 144.734C177.746 162.684 169.066 199.854 169.066 199.854L161.376 199.773C161.376 199.773 161.851 160.976 160.264 144.913C158.735 129.412 170.409 94.9644 170.409 94.9644L188.626 94.7444C189.668 100.523 188.302 105.787 185.91 112.133Z" fill="#263238"/>
<path opacity="0.2" d="M185.91 112.133C183.473 118.567 179.987 126.112 176.889 136.407C175.789 126.72 177.543 116.389 185.91 112.133Z" fill="black"/>
<path d="M160.264 197.636L160.953 201.203L170.108 201.365L170.473 197.995L160.264 197.636Z" fill="#8B55C6"/>
<path d="M220.364 205.007L215.39 206.42L210.3 195.435L215.274 194.022L220.364 205.007Z" fill="#EBB376"/>
<path opacity="0.2" d="M210.3 195.441L212.929 201.104L217.903 199.686L215.28 194.022L210.3 195.441Z" fill="black"/>
<path d="M214.799 204.712L220.433 204.805C220.533 204.804 220.629 204.841 220.703 204.907C220.776 204.973 220.823 205.065 220.833 205.164L221.325 209.796C221.333 209.912 221.317 210.029 221.278 210.139C221.239 210.249 221.177 210.349 221.097 210.434C221.017 210.519 220.921 210.586 220.813 210.632C220.706 210.677 220.591 210.7 220.474 210.699C218.447 210.636 217.81 210.468 215.263 210.427C212.275 210.381 213.653 210.503 210.15 210.427C208.03 210.393 207.694 208.25 208.598 208.059C211.493 207.48 212.223 206.322 213.514 205.094C213.879 204.81 214.338 204.673 214.799 204.712Z" fill="#263238"/>
<path d="M215.818 205.105C215.842 205.106 215.864 205.1 215.885 205.089C215.905 205.078 215.922 205.062 215.934 205.042C215.948 205.021 215.956 204.997 215.956 204.972C215.956 204.947 215.948 204.923 215.934 204.903C215.76 204.706 214.197 202.975 213.485 203.079C213.418 203.087 213.354 203.112 213.3 203.153C213.246 203.194 213.204 203.248 213.178 203.31C213.127 203.409 213.1 203.518 213.1 203.629C213.1 203.74 213.127 203.849 213.178 203.947C213.531 204.619 214.984 204.961 215.824 205.105H215.818ZM213.548 203.316C213.965 203.316 214.863 204.138 215.482 204.793C214.324 204.561 213.577 204.214 213.381 203.837C213.346 203.772 213.328 203.7 213.328 203.626C213.328 203.552 213.346 203.48 213.381 203.415C213.39 203.389 213.407 203.367 213.428 203.351C213.45 203.335 213.475 203.325 213.502 203.322L213.548 203.316Z" fill="#8B55C6"/>
<path d="M215.818 205.106H215.853C215.874 205.101 215.894 205.091 215.91 205.075C215.925 205.06 215.936 205.04 215.94 205.019C215.94 204.967 216.328 203.617 215.905 202.876C215.846 202.766 215.763 202.669 215.663 202.594C215.563 202.518 215.448 202.464 215.326 202.436C215.002 202.349 214.845 202.471 214.776 202.592C214.481 203.102 215.233 204.59 215.714 205.077C215.744 205.099 215.781 205.11 215.818 205.106ZM215.158 202.668C215.2 202.664 215.243 202.664 215.285 202.668C215.373 202.691 215.454 202.731 215.525 202.787C215.596 202.843 215.654 202.913 215.697 202.992C215.895 203.551 215.918 204.157 215.76 204.729C215.303 204.15 214.834 203.021 215.013 202.714C215.025 202.668 215.065 202.668 215.158 202.668Z" fill="#8B55C6"/>
<path d="M197.978 145.66C200.803 119.284 204.133 107.547 200.039 94.4663L181.046 94.9759C181.046 94.9759 180.531 130.877 184.098 146.326C187.804 162.412 210.404 197.283 210.404 197.283L217.903 195.904C217.903 195.904 208.117 158.822 197.978 145.66Z" fill="#263238"/>
<path d="M208.875 196.542L210.173 199.906L219.333 198.059L219.125 194.654L208.875 196.542Z" fill="#8B55C6"/>
<path d="M172.795 53.2727C178.532 52.3109 184.366 52.0523 190.166 52.5025C193.392 52.7168 196.084 54.6392 196.819 57.2971C198.557 63.464 201.452 75.6356 200.45 95.0454C197.81 95.9777 189.813 96.522 183.414 96.6088C182.72 96.6088 180.89 95.3755 180.89 95.3755C180.89 95.3755 179.483 96.603 178.574 96.5799C174.318 96.4641 170.901 96.0993 170.056 95.4565C167.971 92.098 166.002 83.337 169.726 75.0855C169.286 70.3431 167.635 65.0969 167.016 60.0302C166.639 56.8454 169.118 53.927 172.795 53.2727Z" fill="#8B55C6"/>
<path opacity="0.6" d="M200.433 95.0454C197.787 95.9777 189.79 96.5278 183.397 96.6031C182.702 96.6031 180.867 95.3755 180.867 95.3755C180.867 95.3755 179.465 96.6031 178.551 96.5799C174.3 96.4641 170.884 96.0993 170.039 95.4508C167.948 92.0981 165.985 83.337 169.708 75.0913C169.268 70.3431 167.618 65.0969 166.999 60.036C166.616 56.8686 169.095 53.9502 172.789 53.2843C178.527 52.3238 184.361 52.069 190.161 52.5257C193.38 52.7342 196.078 54.6509 196.814 57.3203C197.806 60.8691 198.599 64.4706 199.188 68.108C199.813 71.9762 200.232 75.8749 200.444 79.7874C200.716 84.8699 200.712 89.9634 200.433 95.0454Z" fill="white"/>
<path opacity="0.2" d="M200.439 79.7698C191.973 78.8318 192.911 70.3892 192.911 70.3892C194.897 69.3596 197.004 68.5815 199.182 68.073C199.807 71.947 200.227 75.8514 200.439 79.7698Z" fill="black"/>
<path d="M198.053 58.1888C198.684 59.0516 199.211 59.816 199.75 60.644C200.288 61.4721 200.803 62.2827 201.307 63.1166C202.326 64.7784 203.259 66.4924 204.139 68.2527C206.01 71.8536 207.393 75.6879 208.25 79.6543C208.36 80.1696 208.435 80.7139 208.511 81.2524L208.603 82.0747C208.603 82.1673 208.638 82.4627 208.644 82.6537C208.65 82.8448 208.644 83.1286 208.644 83.3602C208.57 84.3194 208.296 85.2525 207.839 86.0991C207.432 86.8268 206.908 87.4823 206.287 88.0389C205.316 88.8973 204.205 89.5846 203.004 90.0714C201.993 90.4837 200.952 90.8148 199.889 91.0616C196.004 91.9089 192.016 92.1801 188.053 91.8664C187.58 91.839 187.134 91.6403 186.797 91.3075C186.461 90.9747 186.257 90.5306 186.224 90.0584C186.192 89.5862 186.332 89.1182 186.62 88.7422C186.907 88.3662 187.322 88.108 187.786 88.0158H187.896C188.742 87.8478 189.634 87.6683 190.531 87.4772C191.429 87.2862 192.268 87.0661 193.154 86.8519C194.838 86.4434 196.493 85.927 198.111 85.3058C198.838 85.0246 199.543 84.6878 200.219 84.2982C200.73 84.0311 201.189 83.6741 201.574 83.2444C201.684 83.0996 201.724 82.9896 201.707 82.9664C201.689 82.9433 201.649 82.9954 201.631 83.0243C201.631 83.0243 201.631 83.0649 201.631 82.9317L201.521 82.3526C201.435 81.9705 201.359 81.5883 201.249 81.1945C200.275 77.9234 198.939 74.7712 197.265 71.7965C196.437 70.2389 195.528 68.7044 194.608 67.1641C194.152 66.3921 193.679 65.6374 193.189 64.9C192.708 64.1646 192.204 63.3771 191.753 62.7228L191.712 62.6649C191.192 61.8187 191.013 60.8062 191.211 59.8327C191.409 58.8592 191.97 57.9975 192.78 57.4224C193.59 56.8472 194.589 56.6016 195.573 56.7353C196.558 56.8691 197.455 57.3721 198.082 58.1425L198.053 58.1888Z" fill="#E9B376"/>
<path d="M193.334 53.7996C199.165 54.9983 204.011 65.0564 204.011 65.0564L197.416 74.9292C194.581 72.6638 192.219 69.8619 190.467 66.6835C189.674 65.1722 187.41 52.5836 193.334 53.7996Z" fill="#8B55C6"/>
<path d="M190.166 87.7553L184.955 87.3962L186.292 93.5226C186.292 93.5226 191.052 93.2794 191.336 90.7258L190.166 87.7553Z" fill="#EBB376"/>
<path d="M180.814 90.9111L181.643 92.9783C181.804 93.3771 182.101 93.7059 182.481 93.9063C182.862 94.1067 183.301 94.1656 183.721 94.0727L186.275 93.4937L184.955 87.3962L181.874 88.5543C181.649 88.6379 181.442 88.7654 181.266 88.9296C181.091 89.0938 180.949 89.2914 180.851 89.5107C180.752 89.7301 180.698 89.9669 180.692 90.2073C180.686 90.4477 180.727 90.6869 180.814 90.9111Z" fill="#EBB376"/>
<g opacity="0.6">
<path d="M193.334 53.7996C199.165 54.9983 204.011 65.0564 204.011 65.0564L197.416 74.9292C194.581 72.6638 192.219 69.8619 190.467 66.6835C189.674 65.1722 187.41 52.5836 193.334 53.7996Z" fill="white"/>
</g>
<path d="M196.548 74.9292L204.017 63.5393L205.129 65.8381L197.416 76.0989L196.548 74.9292Z" fill="#8B55C6"/>
<path opacity="0.8" d="M196.548 74.9292L204.017 63.5393L205.129 65.8381L197.416 76.0989L196.548 74.9292Z" fill="white"/>
<path d="M171.365 63.383L170.554 65.3749L169.749 67.4305C169.222 68.8029 168.707 70.1868 168.221 71.5708C167.734 72.9547 167.265 74.3444 166.854 75.7399C166.443 77.1354 166.043 78.5194 165.696 79.9091C165.545 80.5982 165.36 81.293 165.244 81.9763L165.053 82.9954C165.013 83.1228 165.013 83.1749 164.972 83.0591C164.875 82.8211 164.727 82.6075 164.538 82.4337C164.289 82.2137 164.057 82.1674 164.04 82.1905C164.022 82.2137 164.468 82.3758 164.995 82.3816C166.306 82.3475 167.609 82.1807 168.886 81.8836C170.276 81.5883 171.741 81.2062 173.125 80.8414L173.223 80.8124C173.662 80.7085 174.122 80.7584 174.528 80.9537C174.933 81.149 175.26 81.4778 175.452 81.885C175.644 82.2923 175.69 82.7531 175.583 83.1904C175.475 83.6276 175.221 84.0147 174.862 84.2867C173.528 85.2407 172.116 86.0813 170.641 86.7998C169.887 87.1748 169.114 87.5092 168.325 87.8015C167.462 88.1229 166.572 88.3689 165.667 88.5369C164.476 88.7857 163.244 88.7579 162.065 88.4559C161.141 88.2112 160.297 87.7256 159.622 87.0488C159.242 86.6654 158.924 86.226 158.678 85.7459C158.456 85.3194 158.291 84.8659 158.186 84.3967C158.028 83.6667 157.981 82.9171 158.047 82.1732L158.174 80.9166C158.249 80.0828 158.388 79.2779 158.504 78.4615C159.047 75.2852 159.812 72.1507 160.791 69.0808C161.283 67.5637 161.787 66.0582 162.361 64.5816C162.644 63.8346 162.94 63.0992 163.241 62.3638C163.542 61.6284 163.86 60.922 164.225 60.1287C164.653 59.1989 165.427 58.4735 166.383 58.108C167.339 57.7425 168.4 57.7659 169.339 58.1733C170.278 58.5806 171.02 59.3395 171.406 60.2873C171.793 61.2351 171.792 62.2965 171.405 63.244L171.365 63.383Z" fill="#E9B376"/>
<path d="M169.32 55.0908C163.484 56.2894 159.245 68.988 159.245 68.988L168.278 75.1954C168.278 75.1954 169.523 74.7901 172.14 69.8045C172.957 68.3279 175.267 53.8516 169.32 55.0908Z" fill="#8B55C6"/>
<path d="M171.793 81.779L176.315 79.1501L177.821 85.2418C177.821 85.2418 173.437 87.1179 172.059 84.9522L171.793 81.779Z" fill="#EBB376"/>
<path d="M181.579 80.4881L181.741 82.7116C181.775 83.1405 181.655 83.5673 181.402 83.9155C181.15 84.2637 180.781 84.5102 180.363 84.6109L177.821 85.2305L176.315 79.1389L179.593 78.8262C179.833 78.8032 180.075 78.828 180.305 78.8993C180.535 78.9706 180.749 79.087 180.934 79.2416C181.118 79.3963 181.271 79.5861 181.381 79.8001C181.492 80.014 181.559 80.2479 181.579 80.4881Z" fill="#EBB376"/>
<g opacity="0.6">
<path d="M172.164 69.822C171.433 71.2758 170.576 72.6631 169.604 73.968C169.454 74.1533 169.321 74.3155 169.187 74.4544C168.956 74.7621 168.659 75.0152 168.319 75.1956L168.029 74.9929L159.28 68.9824C159.28 68.9824 159.413 68.5886 159.668 67.9227C160.826 64.848 164.555 56.0696 169.355 55.0736C175.267 53.8518 172.963 68.3281 172.164 69.822Z" fill="white"/>
</g>
<path d="M159.268 67.6738L169.187 74.4545L168.301 75.7168L158.811 69.741L159.268 67.6738Z" fill="#8B55C6"/>
<path opacity="0.8" d="M169.187 74.4543L169.176 74.4717L168.307 75.7167L168.238 75.6703L158.811 69.7467L159.268 67.6794L159.656 67.94L167.769 73.4873L169.187 74.4543Z" fill="white"/>
<path opacity="0.2" d="M169.604 73.968C169.454 74.1533 169.32 74.3155 169.187 74.4544L168.319 75.6994L168.249 75.6531C168.158 75.4395 168.084 75.2187 168.029 74.993C167.899 74.4942 167.815 73.9843 167.78 73.4701C167.71 71.584 167.954 69.6994 168.504 67.8938C168.932 69.9784 169.349 72.0051 169.604 73.968Z" fill="black"/>
<path d="M173.258 62.8909C173.258 62.8909 171.399 56.1855 174.833 54.2051C178.267 52.2248 182.824 52.6243 183.814 53.1339C184.764 53.7013 185.674 54.334 186.536 55.0274C186.536 55.0274 185.378 60.8179 181.735 63.551L176.848 61.3448L173.258 62.8909Z" fill="#8B55C6"/>
<path opacity="0.8" d="M173.258 62.8909C173.258 62.8909 171.399 56.1855 174.833 54.2051C178.267 52.2248 182.824 52.6243 183.814 53.1339C184.764 53.7013 185.674 54.334 186.536 55.0274C186.536 55.0274 185.378 60.8179 181.735 63.551L176.848 61.3448L173.258 62.8909Z" fill="white"/>
<path d="M178.539 49.2192C180.537 51.9755 180.682 52.7399 183.409 54.1991C183.531 56.5558 182.147 59.1963 178.776 60.5686C175.088 62.0858 174.37 59.3758 174.3 57.8355C175.123 55.7683 173.49 54.3612 172.465 53.3479L178.539 49.2192Z" fill="#EBB376"/>
<path opacity="0.2" d="M177.114 49.9027C177.045 49.7 175.007 49.0109 174.879 48.843L172.482 53.3712C173.236 54.0195 173.859 54.8056 174.318 55.6874C176.043 54.6567 177.52 51.0781 177.114 49.9027Z" fill="black"/>
<path d="M164.978 45.4844C163.997 46.0596 163.268 46.9832 162.938 48.0714C162.607 49.1596 162.699 50.3323 163.194 51.356C165.03 55.5541 169.981 56.4922 171.718 55.9884C173.455 55.4846 169.9 44.5869 164.978 45.4844Z" fill="#EBB376"/>
<path d="M167.16 36.2773C167.16 36.2773 163.86 42.3921 166.396 46.1212C168.932 49.8503 173.258 37.8002 173.258 37.8002L167.16 36.2773Z" fill="#263238"/>
<path d="M164.237 49.5725C164.237 49.8157 164.283 50.0647 164.323 50.3079C164.617 52.0475 165.561 53.6104 166.964 54.6797C168.032 55.5322 169.351 56.0085 170.718 56.0347C172.084 56.0609 173.421 55.6355 174.52 54.8244C177.416 52.7804 177.867 49.9025 179.014 45.0964C179.298 43.9782 179.291 42.806 178.995 41.691C178.699 40.576 178.122 39.5553 177.321 38.7257C176.519 37.8961 175.518 37.2852 174.414 36.9509C173.31 36.6167 172.139 36.5702 171.011 36.816C165.91 37.9104 163.964 45.0153 164.237 49.5725Z" fill="#EBB376"/>
<path d="M166.917 44.3553C166.877 44.7549 166.576 45.0328 166.338 44.9865C166.101 44.9402 165.927 44.5811 165.997 44.1874C166.066 43.7936 166.333 43.5099 166.576 43.5562C166.819 43.6025 167.004 44.0079 166.917 44.3553Z" fill="#263238"/>
<path d="M168.301 44.8013C167.617 45.9293 166.779 46.9564 165.811 47.8529C166.048 48.0968 166.336 48.2855 166.654 48.4056C166.973 48.5257 167.314 48.5742 167.653 48.5477L168.301 44.8013Z" fill="#D58745"/>
<path d="M167.757 41.6219C167.718 41.6048 167.674 41.5984 167.632 41.6035C167.589 41.6086 167.548 41.6249 167.514 41.6508C167.283 41.8362 167.012 41.9651 166.723 42.0274C166.433 42.0898 166.133 42.0837 165.846 42.0098C165.817 41.9992 165.787 41.9944 165.756 41.9956C165.725 41.9968 165.695 42.0041 165.667 42.017C165.611 42.043 165.567 42.0905 165.545 42.1488C165.524 42.2072 165.526 42.2717 165.552 42.3282C165.578 42.3846 165.626 42.4284 165.684 42.4499C166.044 42.5551 166.423 42.5715 166.79 42.4979C167.157 42.4243 167.501 42.2628 167.792 42.0272C167.817 42.0094 167.838 41.9869 167.854 41.9609C167.87 41.9349 167.881 41.9061 167.885 41.8759C167.89 41.8458 167.889 41.815 167.882 41.7853C167.875 41.7556 167.862 41.7276 167.844 41.7029C167.82 41.6714 167.79 41.6441 167.757 41.6219Z" fill="#263238"/>
<path d="M170.954 42.1144C170.908 42.1028 170.86 42.1028 170.815 42.1144C170.787 42.1279 170.763 42.1468 170.742 42.1699C170.722 42.193 170.707 42.2198 170.697 42.2489C170.687 42.278 170.684 42.3087 170.686 42.3393C170.688 42.3699 170.697 42.3997 170.71 42.427C170.878 42.7599 171.123 43.0474 171.426 43.2651C171.728 43.4829 172.079 43.6244 172.448 43.6778C172.478 43.681 172.51 43.6779 172.539 43.6688C172.569 43.6597 172.597 43.6446 172.62 43.6247C172.644 43.6047 172.664 43.5801 172.678 43.5524C172.692 43.5247 172.7 43.4945 172.702 43.4635C172.706 43.4024 172.685 43.3424 172.645 43.296C172.605 43.2496 172.549 43.2204 172.488 43.2146C172.196 43.1639 171.919 43.046 171.68 42.8701C171.441 42.6943 171.245 42.4653 171.11 42.2012C171.07 42.1539 171.015 42.1229 170.954 42.1144Z" fill="#263238"/>
<path d="M176.535 48.6809C176.535 48.6809 176.755 47.9166 177.363 48.2466C177.653 48.403 177.56 49.3584 177.213 50.4933H178.626C178.959 49.9833 179.265 49.4556 179.541 48.9125C181.434 45.2298 182.297 41.9987 181.857 40.3078L176.541 38.397L175.8 40.4642C176.12 40.7162 176.334 41.0796 176.398 41.482C176.463 41.8844 176.373 42.2963 176.147 42.6356C175.03 44.2686 175.418 47.2622 176.535 48.6809Z" fill="#263238"/>
<path d="M180.432 49.4566C180.069 49.9553 179.611 50.3772 179.085 50.6982C178.558 51.0192 177.973 51.2329 177.364 51.327C175.736 51.5702 175.123 50.0646 175.742 48.6286C176.321 47.3605 177.833 45.658 179.384 46.0865C180.936 46.515 181.318 48.2117 180.432 49.4566Z" fill="#EBB376"/>
<path d="M170.953 45.583C170.922 45.5804 170.893 45.5659 170.872 45.5424C170.564 45.2696 170.172 45.1102 169.76 45.0908C169.74 45.0881 169.721 45.0796 169.706 45.0662C169.69 45.0528 169.679 45.0352 169.674 45.0155C169.669 44.994 169.671 44.9714 169.681 44.9515C169.69 44.9315 169.706 44.9153 169.726 44.9055C170.168 44.6904 170.667 44.6214 171.15 44.7086C171.175 44.7142 171.197 44.7294 171.212 44.7511C171.226 44.7727 171.231 44.7991 171.225 44.8244C171.219 44.8489 171.203 44.8701 171.182 44.884C171.16 44.8978 171.135 44.9034 171.11 44.8997C170.788 44.8324 170.455 44.8504 170.143 44.9518C170.483 45.0052 170.796 45.1726 171.029 45.4266C171.045 45.4448 171.055 45.4685 171.055 45.4932C171.055 45.5179 171.045 45.5416 171.029 45.5598C171.007 45.5757 170.98 45.5838 170.953 45.583Z" fill="#263238"/>
<path d="M181.481 44.1585C181.481 44.1585 183.49 40.1804 180.902 36.8624C178.313 33.5445 168.348 33.2434 166.199 36.2834C164.051 39.3234 171.307 40.9911 171.307 40.9911C171.307 40.9911 169.784 40.0472 169.349 39.1728C170.901 40.1526 172.652 40.7738 174.474 40.9911C173.807 40.7077 173.213 40.276 172.737 39.7287C173.714 40.2853 174.797 40.6324 175.916 40.7479C177.537 40.8463 181.151 42.3692 181.481 44.1585Z" fill="#263238"/>
<path d="M167.056 50.4933C167.056 50.4933 168.515 48.4666 170.2 48.3913C171.885 48.316 172.077 50.0358 171.497 50.2674C170.918 50.4991 169.123 50.0011 168.052 51.1476C168.052 51.1476 167.902 50.7654 167.056 50.4933Z" fill="white"/>
<path d="M156.964 82.1786C156.706 82.1194 156.463 82.0096 156.248 81.8555C156.033 81.7014 155.851 81.5062 155.713 81.2811C155.617 81.1255 155.492 80.9903 155.344 80.8833C155.196 80.7763 155.029 80.6996 154.851 80.6577C154.674 80.6157 154.49 80.6092 154.309 80.6387C154.129 80.6682 153.957 80.733 153.802 80.8294C153.346 81.1102 152.797 81.1984 152.276 81.0746C151.754 80.9509 151.304 80.6252 151.022 80.1693C151 80.1345 150.986 80.0956 150.979 80.055C150.972 80.0144 150.974 79.9729 150.984 79.9329C150.994 79.893 151.011 79.8554 151.036 79.8223C151.06 79.7893 151.091 79.7616 151.127 79.7408C151.198 79.6972 151.283 79.6831 151.364 79.7015C151.445 79.7199 151.516 79.7693 151.561 79.8392C151.76 80.1464 152.07 80.3649 152.426 80.449C152.782 80.5332 153.157 80.4765 153.472 80.2909C153.927 80.0114 154.474 79.9233 154.994 80.0459C155.513 80.1685 155.963 80.4918 156.246 80.9452C156.341 81.1008 156.466 81.236 156.614 81.3429C156.762 81.4499 156.929 81.5266 157.107 81.5686C157.285 81.6106 157.469 81.617 157.649 81.5876C157.829 81.5581 158.001 81.4933 158.156 81.3969C158.616 81.128 159.161 81.0466 159.678 81.1696C160.196 81.2925 160.647 81.6104 160.936 82.057C161.131 82.3688 161.441 82.5912 161.798 82.6757C162.156 82.7603 162.533 82.7003 162.847 82.5086C163.303 82.2289 163.851 82.1406 164.371 82.2632C164.892 82.3858 165.343 82.7092 165.626 83.163C165.821 83.4748 166.131 83.6971 166.489 83.7817C166.846 83.8663 167.223 83.8062 167.537 83.6146C167.572 83.5925 167.612 83.5777 167.653 83.571C167.694 83.5643 167.736 83.5658 167.776 83.5755C167.816 83.5852 167.855 83.6029 167.888 83.6275C167.922 83.6521 167.95 83.6832 167.971 83.7189C167.993 83.7537 168.008 83.7925 168.015 83.8331C168.021 83.8737 168.02 83.9152 168.01 83.9552C168 83.9952 167.983 84.0328 167.958 84.0658C167.933 84.0988 167.903 84.1265 167.867 84.1474C167.412 84.4287 166.863 84.5178 166.342 84.3951C165.821 84.2724 165.37 83.948 165.088 83.493C164.893 83.1812 164.583 82.9589 164.225 82.8743C163.867 82.7897 163.491 82.8498 163.177 83.0414C162.722 83.3209 162.175 83.4089 161.655 83.2863C161.135 83.1637 160.685 82.8404 160.403 82.387C160.308 82.2312 160.183 82.096 160.035 81.9896C159.886 81.8831 159.718 81.8076 159.54 81.7675C159.363 81.7235 159.179 81.7157 158.999 81.7445C158.819 81.7734 158.647 81.8383 158.492 81.9354C158.266 82.0756 158.015 82.1693 157.752 82.2111C157.49 82.2528 157.222 82.2418 156.964 82.1786Z" fill="#8B55C6"/>
<path d="M157.085 91.7504C156.827 91.8078 156.56 91.8133 156.299 91.7665C156.039 91.7198 155.79 91.6218 155.568 91.4783C155.415 91.379 155.244 91.3108 155.064 91.2778C154.885 91.2447 154.7 91.2473 154.522 91.2855C154.343 91.3237 154.174 91.3967 154.024 91.5003C153.873 91.6039 153.745 91.7361 153.646 91.8894C153.351 92.3352 152.893 92.6463 152.37 92.7548C151.847 92.8633 151.302 92.7604 150.855 92.4684C150.82 92.446 150.79 92.417 150.767 92.383C150.743 92.349 150.727 92.3108 150.718 92.2705C150.71 92.2302 150.709 92.1885 150.717 92.148C150.724 92.1074 150.74 92.0687 150.762 92.0341C150.784 91.9995 150.813 91.9697 150.847 91.9463C150.881 91.9229 150.92 91.9065 150.96 91.8979C151 91.8893 151.042 91.8887 151.082 91.8962C151.123 91.9037 151.162 91.9191 151.196 91.9415C151.509 92.1325 151.883 92.1958 152.241 92.1182C152.599 92.0405 152.913 91.8279 153.119 91.5246C153.414 91.08 153.873 90.7699 154.395 90.6615C154.918 90.5531 155.462 90.6551 155.91 90.9455C156.063 91.0444 156.234 91.1121 156.413 91.1446C156.593 91.1772 156.777 91.174 156.955 91.1353C157.133 91.0965 157.301 91.023 157.451 90.9189C157.601 90.8148 157.728 90.6821 157.826 90.5286C158.128 90.0923 158.587 89.7889 159.106 89.6811C159.626 89.5733 160.167 89.6694 160.617 89.9496C160.77 90.0487 160.941 90.1167 161.12 90.1497C161.299 90.1827 161.483 90.18 161.661 90.1418C161.839 90.1036 162.008 90.0307 162.158 89.9271C162.308 89.8236 162.435 89.6915 162.534 89.5384C162.824 89.0879 163.28 88.7708 163.804 88.6568C164.327 88.5428 164.874 88.6412 165.325 88.9304C165.478 89.0297 165.65 89.0978 165.829 89.1309C166.009 89.164 166.193 89.1614 166.371 89.1232C166.55 89.085 166.719 89.012 166.87 88.9084C167.02 88.8048 167.148 88.6726 167.248 88.5193C167.269 88.484 167.298 88.4534 167.332 88.4295C167.366 88.4055 167.404 88.3887 167.445 88.38C167.485 88.3714 167.527 88.3711 167.568 88.3791C167.609 88.3871 167.648 88.4033 167.682 88.4267C167.717 88.449 167.747 88.4779 167.77 88.5119C167.793 88.5459 167.81 88.5841 167.819 88.6245C167.827 88.6649 167.828 88.7066 167.82 88.7471C167.813 88.7877 167.797 88.8264 167.774 88.8609C167.479 89.3055 167.021 89.6156 166.498 89.724C165.975 89.8325 165.431 89.7304 164.983 89.44C164.831 89.3409 164.66 89.2728 164.481 89.2398C164.302 89.2069 164.118 89.2095 163.94 89.2477C163.762 89.2859 163.593 89.3589 163.443 89.4624C163.293 89.566 163.165 89.6981 163.067 89.8511C162.777 90.3016 162.32 90.6187 161.797 90.7327C161.274 90.8467 160.727 90.7483 160.276 90.4591C160.123 90.3587 159.951 90.2901 159.771 90.2572C159.591 90.2244 159.406 90.2281 159.228 90.268C159.052 90.302 158.884 90.3707 158.735 90.4702C158.586 90.5696 158.458 90.6977 158.359 90.8471C158.217 91.0746 158.032 91.2717 157.813 91.4268C157.594 91.5819 157.347 91.6919 157.085 91.7504Z" fill="#8B55C6"/>
<path d="M162.91 100.112C162.728 100.303 162.508 100.456 162.266 100.561C162.023 100.667 161.762 100.723 161.498 100.726C161.129 100.734 160.779 100.886 160.523 101.151C160.267 101.416 160.126 101.771 160.131 102.139C160.136 102.404 160.089 102.668 159.993 102.914C159.896 103.161 159.752 103.387 159.568 103.578C159.384 103.769 159.164 103.921 158.921 104.027C158.677 104.133 158.416 104.19 158.151 104.194C158.067 104.196 157.986 104.165 157.926 104.107C157.865 104.05 157.829 103.971 157.826 103.888C157.826 103.804 157.859 103.723 157.917 103.662C157.976 103.602 158.055 103.566 158.139 103.563C158.505 103.55 158.851 103.395 159.105 103.131C159.358 102.868 159.5 102.516 159.5 102.15C159.495 101.885 159.543 101.622 159.64 101.375C159.738 101.129 159.883 100.904 160.067 100.713C160.252 100.523 160.472 100.371 160.716 100.266C160.959 100.16 161.221 100.104 161.486 100.101C161.854 100.093 162.203 99.94 162.458 99.6752C162.713 99.4104 162.853 99.0553 162.847 98.6877C162.849 98.1562 163.056 97.646 163.425 97.2632C163.794 96.8804 164.296 96.6544 164.827 96.6321C165.01 96.6291 165.19 96.5901 165.357 96.5175C165.525 96.4448 165.676 96.3399 165.803 96.2087C165.93 96.0775 166.03 95.9226 166.097 95.7528C166.164 95.583 166.197 95.4017 166.194 95.2192C166.186 94.6846 166.39 94.1686 166.761 93.7836C167.132 93.3986 167.64 93.1757 168.174 93.1636C168.357 93.1605 168.537 93.1216 168.704 93.049C168.872 92.9763 169.023 92.8714 169.15 92.7402C169.277 92.609 169.377 92.4541 169.444 92.2843C169.511 92.1145 169.544 91.9332 169.541 91.7507C169.539 91.7094 169.546 91.6682 169.561 91.6297C169.575 91.5911 169.598 91.5559 169.626 91.5261C169.655 91.4964 169.689 91.4727 169.727 91.4566C169.765 91.4405 169.806 91.4322 169.848 91.4322C169.931 91.4306 170.012 91.4619 170.072 91.5193C170.133 91.5767 170.169 91.6556 170.172 91.7391C170.177 92.0072 170.129 92.2737 170.031 92.5231C169.933 92.7725 169.786 93 169.599 93.1923C169.412 93.3845 169.189 93.5378 168.942 93.6432C168.696 93.7486 168.431 93.8041 168.162 93.8063C167.98 93.8093 167.8 93.8483 167.633 93.921C167.466 93.9937 167.315 94.0987 167.189 94.23C167.062 94.3613 166.963 94.5163 166.896 94.686C166.83 94.8558 166.798 95.037 166.802 95.2192C166.808 95.7543 166.603 96.2703 166.231 96.6551C165.859 97.04 165.351 97.2627 164.816 97.2748C164.634 97.2775 164.454 97.3163 164.287 97.3888C164.12 97.4614 163.969 97.5663 163.843 97.6975C163.588 97.9634 163.448 98.3194 163.455 98.6877C163.468 99.2157 163.273 99.7276 162.91 100.112Z" fill="#8B55C6"/>
</svg>
