<svg width="290" height="216" viewBox="0 0 290 216" fill="none" xmlns="http://www.w3.org/2000/svg">
<path d="M290 189.817H0V189.962H290V189.817Z" fill="#EBEBEB"/>
<path d="M260.942 199.146H241.732V199.291H260.942V199.146Z" fill="#EBEBEB"/>
<path d="M192.108 200.723H187.067V200.868H192.108V200.723Z" fill="#EBEBEB"/>
<path d="M241.152 193.765H230.022V193.91H241.152V193.765Z" fill="#EBEBEB"/>
<path d="M55.477 194.739H30.4268V194.884H55.477V194.739Z" fill="#EBEBEB"/>
<path d="M64.3159 194.739H60.6445V194.884H64.3159V194.739Z" fill="#EBEBEB"/>
<path d="M130.587 197.186H76.2527V197.331H130.587V197.186Z" fill="#EBEBEB"/>
<path d="M137.46 163.959H25.4676C24.5903 163.958 23.7494 163.608 23.1296 162.987C22.5097 162.367 22.1616 161.526 22.1616 160.649V3.2815C22.1693 2.40954 22.5208 1.5758 23.1398 0.961386C23.7588 0.346969 24.5953 0.00149371 25.4676 0H137.46C138.338 0 139.181 0.348783 139.802 0.96962C140.423 1.59046 140.772 2.43249 140.772 3.31049V160.649C140.772 161.527 140.423 162.369 139.802 162.99C139.181 163.61 138.338 163.959 137.46 163.959ZM25.4676 0.115955C24.6287 0.11749 23.8247 0.451679 23.2321 1.04517C22.6395 1.63866 22.3066 2.44295 22.3066 3.2815V160.649C22.3066 161.487 22.6395 162.292 23.2321 162.885C23.8247 163.478 24.6287 163.813 25.4676 163.814H137.46C138.299 163.813 139.104 163.479 139.697 162.885C140.291 162.292 140.625 161.488 140.627 160.649V3.2815C140.625 2.44242 140.291 1.63814 139.697 1.04481C139.104 0.451491 138.299 0.117487 137.46 0.115955H25.4676Z" fill="#EBEBEB"/>
<path d="M262.92 163.959H150.922C150.044 163.958 149.202 163.608 148.582 162.988C147.961 162.367 147.611 161.526 147.61 160.649V3.2815C147.619 2.40901 147.972 1.57528 148.592 0.961024C149.212 0.346766 150.049 0.00147742 150.922 0H262.92C263.791 0.00301741 264.626 0.349166 265.244 0.963421C265.862 1.57768 266.212 2.41054 266.22 3.2815V160.649C266.22 161.525 265.873 162.365 265.254 162.985C264.635 163.606 263.796 163.956 262.92 163.959ZM150.922 0.115955C150.082 0.117487 149.278 0.451491 148.684 1.04481C148.091 1.63814 147.756 2.44242 147.755 3.2815V160.649C147.756 161.488 148.091 162.292 148.684 162.885C149.278 163.479 150.082 163.813 150.922 163.814H262.92C263.759 163.813 264.564 163.479 265.157 162.885C265.751 162.292 266.085 161.488 266.086 160.649V3.2815C266.085 2.44242 265.751 1.63814 265.157 1.04481C264.564 0.451491 263.759 0.117487 262.92 0.115955H150.922Z" fill="#EBEBEB"/>
<path opacity="0.36" d="M113.779 208.677C112.702 208.691 111.633 208.48 110.643 208.055C109.653 207.631 108.763 207.003 108.031 206.213C103.971 201.795 106.616 195.145 109.771 189.226C112.526 184.008 116.917 177.189 123.186 168.354C134.612 152.236 150.557 131.892 165.973 112.215C178.112 96.7173 189.614 82.0375 198.697 69.7348C198.447 70.0073 198.198 70.2856 197.937 70.5639C185.937 83.7131 171.477 100.457 156.177 118.186C139.206 137.84 121.661 158.19 107.625 173.305C84.077 198.699 78.9266 200.282 74.6346 199.719C73.4692 199.575 72.3592 199.139 71.4079 198.45C70.4567 197.762 69.6952 196.844 69.1942 195.783C65.2096 187.533 75.0348 172.76 131.069 102.793C145.511 84.7625 160.446 66.1112 171.541 51.2401C175.682 45.6975 178.884 41.2043 181.366 37.5633C178.547 40.3578 175.154 43.8596 171.071 48.2543C159.204 61.044 144.501 78.1067 130.28 94.636C114.33 113.055 97.8578 132.188 84.5816 146.253C64.1714 167.861 57.3564 171.322 51.9102 170.139C50.5063 169.837 49.2141 169.15 48.1777 168.156C47.1413 167.162 46.4014 165.9 46.0406 164.51C44.376 158.828 46.7888 150.485 63.9742 128.245C75.3422 113.531 90.834 95.7781 105.815 78.5879C118.825 63.6762 131.109 49.5994 140.459 37.8358C147.013 29.5857 150.696 24.246 152.755 20.8138C149.165 23.214 143.399 27.8754 134.351 36.9256C122.514 48.7645 108.965 64.111 95.8684 78.9474C62.1878 117.114 52.815 126.61 45.2402 125.138C43.9731 124.885 42.7951 124.302 41.8247 123.449C40.8544 122.596 40.1259 121.503 39.7128 120.279C36.1458 110.272 48.6796 92.3401 80.0402 53.3389C84.4946 47.7905 89.4478 41.6159 93.5948 36.2241C92.2956 37.2406 90.8939 38.3711 89.3898 39.6157C81.8498 45.8714 74.072 53.2113 71.3402 56.6842C70.3888 57.8928 68.996 58.674 67.4684 58.8562C65.9407 59.0383 64.4032 58.6063 63.1941 57.6553C61.985 56.7042 61.2034 55.3121 61.0212 53.785C60.8391 52.2579 61.2712 50.721 62.2226 49.5124C65.807 44.9554 74.9478 36.3632 83.9552 29.0813C101.402 14.9291 106.216 15.074 109.655 16.3727C112.05 17.3003 114.498 19.7992 114.196 24.0431C113.819 29.3132 107.376 37.7662 89.065 60.5686C80.0518 71.7988 69.8264 84.5248 62.2052 95.3549C59.0732 99.8075 56.788 103.379 55.1292 106.226C56.7242 104.672 58.6092 102.799 60.7378 100.538C68.2778 92.6242 77.4708 82.2463 87.1684 71.2596C100.92 55.658 115.182 39.5461 127.6 27.2492C144.293 10.7663 153.584 5.10197 160.759 7.02101C162.119 7.35157 163.369 8.03072 164.386 8.9915C165.403 9.95227 166.152 11.1615 166.559 12.4998C168.061 17.4395 166.031 24.0025 151.195 42.932C141.514 55.2869 128.424 70.2972 114.568 86.1887C100.166 102.718 85.2602 119.786 74.2402 133.962C66.9206 143.348 62.7388 149.645 60.355 153.825C64.1772 150.52 69.9018 145.03 78.4046 135.91C91.0602 122.332 106.517 104.359 121.47 87.0236C177.092 22.4719 188.402 11.8215 197.107 15.7987C198.12 16.2615 199.013 16.9508 199.717 17.8133C200.421 18.6758 200.917 19.6885 201.167 20.7732C202.327 25.6201 199.688 32.6585 182.48 55.9363C171.077 71.3582 155.336 91.0124 140.111 110.023C125.35 128.454 110.09 147.505 98.6988 162.782C95.0622 167.675 92.1216 171.769 89.7552 175.201C92.9394 171.972 96.7674 167.948 101.355 162.933C114.846 148.247 131.376 129.098 147.367 110.574C163.607 91.7487 178.971 73.9671 191.447 60.4237C212.28 37.8126 216.653 36.1893 220.574 36.3864C221.606 36.4318 222.613 36.7137 223.518 37.2103C224.423 37.7069 225.202 38.405 225.794 39.2505C230.724 46.2947 224.089 56.7711 175.079 119.328C161.002 137.301 146.444 155.854 135.442 171.102C129.404 179.445 125.396 185.486 122.74 189.846C125.64 187.098 129.427 183.323 134.27 178.14C144.815 166.846 157.586 151.969 169.934 137.556C182.932 122.413 196.365 106.759 206.985 95.5694C222.424 79.2952 229.228 74.9527 234.981 77.7066C236.01 78.194 236.913 78.9095 237.622 79.7987C238.332 80.6879 238.829 81.7273 239.076 82.8376C240.973 90.8964 230.376 105.449 201.956 141.974C193.303 153.071 184.359 164.545 177.706 173.896C174.476 178.442 172.22 181.891 170.648 184.495C173.628 182.148 176.489 179.653 179.22 177.021C186.708 169.931 194.88 161.089 202.043 153.286C206.683 148.271 210.662 143.934 213.788 140.815C215.146 139.424 216.583 138.114 218.092 136.89C222.465 133.504 225.597 134.895 227.076 136.02C233.259 140.734 229.46 150.468 221.334 164.655C215.963 174.024 210.024 182.721 209.775 183.086C209.353 183.732 208.806 184.288 208.167 184.72C207.527 185.153 206.808 185.453 206.05 185.604C205.293 185.755 204.514 185.753 203.757 185.598C203.001 185.444 202.283 185.14 201.645 184.705C201.008 184.27 200.463 183.711 200.045 183.063C199.626 182.415 199.341 181.689 199.206 180.929C199.071 180.169 199.09 179.39 199.26 178.638C199.431 177.885 199.75 177.174 200.199 176.546C200.245 176.482 204.439 170.331 208.829 163.037C186.511 187.191 173.194 200.143 163.908 200.143C162.084 200.153 160.299 199.607 158.793 198.577C157.915 197.988 157.17 197.222 156.606 196.329C156.042 195.435 155.67 194.434 155.516 193.388C154.86 189.33 156.6 183.787 167.214 168.655C174.134 158.799 183.617 146.624 192.792 134.872C201.446 123.775 210.389 112.302 217.036 102.95C217.98 101.62 218.844 100.383 219.629 99.2393C217.616 101.269 215.302 103.68 212.634 106.55C202.716 117.224 190.53 131.422 178.745 145.151C165.805 160.225 152.424 175.81 141.451 187.475C124.921 205.024 118.662 208.607 113.93 208.688L113.779 208.677Z" fill="#301549"/>
<path opacity="0.6" d="M120.298 203.743C119.828 203.746 119.36 203.688 118.906 203.569C118.362 203.448 117.861 203.184 117.453 202.805C117.046 202.426 116.746 201.946 116.586 201.413C114.364 194.125 134.368 170.482 167.573 132.42C196.254 99.5353 228.763 62.2677 225.979 52.7536C225.753 51.9999 225.399 51.826 225.098 51.7622C222.946 51.2984 216.618 54.7307 198.69 73.7123C185.513 87.6616 169.11 106.719 153.213 125.15C137.761 143.088 121.777 161.635 109.289 174.859C90.6305 194.618 85.7121 196.183 83.3631 195.111C83.0327 194.959 82.7424 194.732 82.5158 194.448C82.2891 194.164 82.1323 193.831 82.0581 193.476C80.3355 186.286 103.611 156.538 142.152 108.417C157.928 88.7052 174.238 68.3495 185.913 52.4696C201.77 30.8963 204.079 24.2579 203.226 22.4954C203.203 22.4315 203.161 22.3758 203.107 22.3355C203.052 22.2953 202.986 22.2722 202.919 22.2693C201.022 22.0316 194.764 26.0378 175.693 46.6197C161.739 61.6937 144.228 81.9509 127.292 101.565C88.3975 146.618 64.2695 174.036 58.1679 174.036H58.0635C57.7825 174.028 57.5071 173.955 57.2594 173.822C57.0117 173.689 56.7984 173.5 56.6367 173.271C55.3433 171.415 56.1089 166.963 70.3769 147.134C79.9759 133.8 93.1999 116.917 107.195 99.0541C122.565 79.4405 138.457 59.1543 149.791 43.17C166.002 20.2923 166.57 14.8656 165.451 13.6655C165.341 13.5482 165.205 13.4586 165.053 13.4042C164.902 13.3498 164.74 13.332 164.581 13.3524C157.128 13.48 129.282 45.9239 104.707 74.553C91.7557 89.627 78.3577 105.252 67.8249 116.354C52.0257 133.005 47.6873 134.194 45.5355 133.168C45.1739 132.996 44.8569 132.742 44.6094 132.428C44.3619 132.113 44.1905 131.745 44.1087 131.353C42.6819 125.289 57.5241 105.658 80.3355 76.3967C97.6369 54.2089 117.247 29.0526 116.296 23.0578C116.288 22.9191 116.249 22.7838 116.182 22.6623C116.115 22.5407 116.021 22.4361 115.907 22.3563C109.939 18.3906 86.6459 43.6628 72.7259 58.7717C59.0205 73.6312 55.9233 76.675 54.2993 75.4343C52.5593 74.1298 51.4573 70.4019 61.3289 53.1711C66.6011 43.9643 72.6157 35.1518 72.6795 35.0648C72.8162 34.8921 73.0134 34.7776 73.2312 34.7446C73.449 34.7115 73.6713 34.7623 73.8531 34.8866C74.035 35.011 74.1628 35.1997 74.2109 35.4146C74.259 35.6296 74.2237 35.8547 74.1121 36.0446C74.0541 36.1374 68.0743 44.8977 62.8369 54.0175C54.0383 69.3931 54.5545 73.0514 55.1983 73.8921C57.0717 73.15 64.3681 65.2303 71.4383 57.5657C92.3473 34.8735 110.2 16.4484 116.858 20.8721C117.172 21.0852 117.438 21.3622 117.638 21.6848C117.838 22.0075 117.967 22.3686 118.018 22.7447C119.114 29.5222 100.96 52.8058 81.7391 77.4635C64.2579 99.8658 44.4683 125.231 45.8197 130.959C45.8404 131.098 45.8952 131.231 45.9791 131.344C46.0631 131.457 46.1737 131.548 46.3011 131.608C47.5075 132.188 51.7357 130.808 66.6011 115.172C77.1049 104.098 90.4855 88.5023 103.431 73.4283C130.622 41.7438 156.333 11.7697 164.557 11.6247C164.963 11.6001 165.37 11.6652 165.748 11.8155C166.126 11.9659 166.466 12.1976 166.744 12.4944C172.028 18.2341 148.294 49.4373 108.564 100.138C94.5803 117.989 81.3679 134.849 71.7863 148.161C57.7851 167.624 57.5241 171.514 58.0635 172.285C58.1157 172.32 59.2235 172.836 65.1975 167.531C69.0661 164.075 74.2397 158.857 80.9619 151.581C93.5363 138.003 109.295 119.746 125.976 100.422C168.136 51.5999 196.301 19.6719 203.145 20.559C203.498 20.5984 203.836 20.7285 204.125 20.9367C204.413 21.145 204.643 21.4243 204.792 21.7475C207.953 28.2931 183.75 59.2703 143.509 109.513C114.724 145.459 82.0987 186.194 83.7343 193.058C83.7467 193.155 83.7836 193.248 83.8414 193.327C83.8992 193.406 83.9761 193.469 84.0649 193.51C85.4221 194.125 90.3289 192.351 108.007 173.647C120.472 160.452 136.427 141.922 151.879 124.002C191.319 78.2462 217.72 48.3648 225.452 50.0461C225.985 50.1704 226.473 50.4433 226.858 50.8332C227.243 51.2231 227.509 51.7141 227.627 52.2492C230.683 62.6851 200.657 97.0945 168.867 133.545C142.941 163.275 116.133 194.015 118.233 200.902C118.306 201.157 118.451 201.385 118.651 201.56C118.85 201.735 119.096 201.849 119.358 201.888C129.021 204.474 160.747 168.557 186.232 139.684C211.253 111.345 226.861 94.0391 232.243 95.0421C232.671 95.1252 233.067 95.3245 233.388 95.618C233.709 95.9116 233.943 96.2881 234.065 96.706C237.26 105.745 214.565 134.008 194.538 158.95C182.497 173.949 171.123 188.113 170.856 191.777C170.798 192.618 171.065 192.716 171.152 192.751C175.508 194.432 203.632 171.073 210.957 161.739C211.024 161.639 211.11 161.554 211.212 161.49C211.313 161.425 211.426 161.382 211.544 161.363C211.663 161.344 211.784 161.35 211.9 161.38C212.016 161.41 212.125 161.464 212.219 161.538C212.313 161.613 212.391 161.706 212.448 161.811C212.505 161.917 212.539 162.033 212.548 162.153C212.558 162.272 212.542 162.393 212.503 162.506C212.464 162.619 212.402 162.723 212.32 162.812C206.404 170.349 176.761 196.78 170.52 194.374C169.94 194.148 168.989 193.499 169.122 191.655C169.412 187.649 178.448 176.204 193.18 157.86C210.957 135.725 235.3 105.408 232.423 97.2858C232.278 96.8742 232.093 96.7872 231.913 96.7524C230.55 96.4857 226.693 98.4512 216.09 109.328C208.092 117.531 198.11 128.837 187.537 140.809C160.213 171.781 131.996 203.738 120.298 203.743Z" fill="#EBEBEB"/>
<path opacity="0.2" d="M144.999 216C207.107 216 257.455 213.062 257.455 209.437C257.455 205.812 207.107 202.874 144.999 202.874C82.8913 202.874 32.543 205.812 32.543 209.437C32.543 213.062 82.8913 216 144.999 216Z" fill="#301549"/>
<path d="M240.179 100.613C240.178 99.859 240.001 99.1152 239.662 98.4413C239.323 97.7674 238.831 97.1819 238.225 96.7315C237.62 96.2811 236.917 95.9782 236.174 95.8469C235.431 95.7156 234.667 95.7596 233.944 95.9753C234.019 95.4841 234.056 94.9879 234.054 94.491C234.055 93.1447 233.79 91.8115 233.275 90.5675C232.76 89.3235 232.005 88.1932 231.053 87.2413C230.1 86.2893 228.97 85.5343 227.725 85.0194C226.481 84.5046 225.147 84.2399 223.8 84.2407C223.166 84.2426 222.533 84.3008 221.909 84.4146C220.893 82.7672 219.371 81.4929 217.571 80.7824C215.77 80.0718 213.787 79.9634 211.92 80.4731C210.052 80.9829 208.4 82.0835 207.211 83.6103C206.021 85.1371 205.358 87.0078 205.321 88.9426H205.17C203.017 88.9997 200.971 89.8948 199.468 91.4374C197.965 92.9801 197.124 95.0482 197.124 97.2015C197.124 99.3547 197.965 101.423 199.468 102.966C200.971 104.508 203.017 105.403 205.17 105.46H235.481C236.741 105.423 237.937 104.895 238.814 103.99C239.692 103.085 240.181 101.874 240.179 100.613Z" fill="#263238"/>
<g opacity="0.7">
<path d="M240.18 100.614C240.179 99.8595 240.002 99.1157 239.663 98.4418C239.324 97.7679 238.832 97.1824 238.226 96.732C237.621 96.2816 236.918 95.9787 236.175 95.8474C235.432 95.7161 234.668 95.7601 233.945 95.9757C234.02 95.4846 234.057 94.9884 234.055 94.4915C234.056 93.1452 233.791 91.812 233.276 90.568C232.761 89.324 232.006 88.1937 231.054 87.2418C230.101 86.2898 228.97 85.5348 227.726 85.0199C226.482 84.505 225.148 84.2404 223.801 84.2412C223.167 84.2431 222.534 84.3013 221.91 84.4151C220.894 82.7677 219.372 81.4934 217.572 80.7828C215.771 80.0723 213.788 79.9638 211.921 80.4736C210.053 80.9834 208.401 82.084 207.212 83.6108C206.022 85.1376 205.359 87.0083 205.322 88.9431H205.171C203.018 89.0002 200.972 89.8953 199.469 91.4379C197.966 92.9805 197.125 95.0487 197.125 97.202C197.125 99.3552 197.966 101.423 199.469 102.966C200.972 104.509 203.018 105.404 205.171 105.461H235.482C236.742 105.423 237.938 104.896 238.815 103.991C239.693 103.085 240.182 101.874 240.18 100.614Z" fill="white"/>
</g>
<path d="M209.683 114.731L206.644 115.427L209.961 107.977L202.653 116.882L205.693 116.187L202.375 123.637L209.683 114.731Z" fill="#9955B9"/>
<path d="M218.969 114.731L215.93 115.427L219.247 107.977L211.939 116.882L214.978 116.187L211.661 123.637L218.969 114.731Z" fill="#9955B9"/>
<path d="M228.255 114.731L225.215 115.427L228.533 107.977L221.225 116.882L224.264 116.187L220.947 123.637L228.255 114.731Z" fill="#9955B9"/>
<g opacity="0.7">
<path d="M209.684 114.731L206.645 115.427L209.962 107.977L202.654 116.882L205.693 116.187L202.376 123.637L209.684 114.731Z" fill="white"/>
</g>
<g opacity="0.7">
<path d="M218.969 114.731L215.93 115.427L219.247 107.977L211.939 116.882L214.978 116.187L211.661 123.637L218.969 114.731Z" fill="white"/>
</g>
<g opacity="0.7">
<path d="M228.256 114.731L225.216 115.427L228.534 107.977L221.226 116.882L224.265 116.187L220.948 123.637L228.256 114.731Z" fill="white"/>
</g>
<path d="M95.8347 76.6457C95.8338 76.0219 95.6872 75.407 95.4065 74.8499C95.1259 74.2928 94.719 73.8089 94.2183 73.4367C93.7175 73.0645 93.1368 72.8144 92.5222 72.7061C91.9077 72.5979 91.2764 72.6347 90.6785 72.8134C90.7389 72.4064 90.7699 71.9957 90.7713 71.5843C90.7713 69.3362 89.8779 67.1803 88.2877 65.5907C86.6975 64.0011 84.5407 63.108 82.2917 63.108C81.7664 63.1092 81.2423 63.1577 80.7257 63.253C79.8917 61.8774 78.6323 60.8107 77.1379 60.2143C75.6435 59.6179 73.9954 59.5242 72.443 59.9473C70.8906 60.3705 69.5182 61.2875 68.5336 62.5597C67.5489 63.8318 67.0055 65.3899 66.9855 66.9983H66.8637C65.9501 66.9717 65.0405 67.1286 64.1886 67.4597C63.3367 67.7908 62.56 68.2894 61.9043 68.9259C61.2487 69.5625 60.7275 70.3241 60.3716 71.1656C60.0157 72.0071 59.8323 72.9115 59.8323 73.8251C59.8323 74.7387 60.0157 75.6431 60.3716 76.4846C60.7275 77.3261 61.2487 78.0877 61.9043 78.7243C62.56 79.3608 63.3367 79.8594 64.1886 80.1905C65.0405 80.5216 65.9501 80.6785 66.8637 80.6519H91.9429C92.9866 80.6246 93.9781 80.1902 94.7055 79.4415C95.4328 78.6928 95.8381 77.6893 95.8347 76.6457Z" fill="#263238"/>
<g opacity="0.7">
<path d="M95.8357 76.6457C95.8348 76.0219 95.6882 75.407 95.4075 74.8499C95.1269 74.2928 94.72 73.8089 94.2193 73.4367C93.7185 73.0645 93.1377 72.8144 92.5232 72.7061C91.9087 72.5979 91.2773 72.6347 90.6795 72.8134C90.7399 72.4064 90.7709 71.9957 90.7723 71.5843C90.7723 69.3362 89.8789 67.1803 88.2887 65.5907C86.6984 64.0011 84.5416 63.108 82.2927 63.108C81.7674 63.1092 81.2433 63.1577 80.7267 63.253C79.8927 61.8774 78.6333 60.8107 77.1389 60.2143C75.6445 59.6179 73.9964 59.5242 72.444 59.9473C70.8916 60.3705 69.5192 61.2875 68.5346 62.5597C67.5499 63.8318 67.0065 65.3899 66.9865 66.9983H66.8647C65.9511 66.9717 65.0414 67.1286 64.1896 67.4597C63.3377 67.7908 62.561 68.2894 61.9053 68.9259C61.2497 69.5625 60.7285 70.3241 60.3726 71.1656C60.0166 72.0071 59.8333 72.9115 59.8333 73.8251C59.8333 74.7387 60.0166 75.6431 60.3726 76.4846C60.7285 77.3261 61.2497 78.0877 61.9053 78.7243C62.561 79.3608 63.3377 79.8594 64.1896 80.1905C65.0414 80.5216 65.9511 80.6785 66.8647 80.6519H91.9439C92.9876 80.6246 93.9791 80.1902 94.7064 79.4415C95.4338 78.6928 95.8391 77.6893 95.8357 76.6457Z" fill="white"/>
</g>
<path d="M88.4337 86.5198C90.0693 85.94 86.6357 82.4614 86.6357 82.4614C86.6357 82.4614 86.7981 87.0822 88.4337 86.5198Z" fill="#9955B9"/>
<path d="M89.5823 89.1284C89.5823 89.1284 89.7389 93.7666 91.3745 93.2158C93.0101 92.665 89.5823 89.1284 89.5823 89.1284Z" fill="#9955B9"/>
<path d="M92.5229 95.8301C92.5229 95.8301 92.6795 100.468 94.3151 99.9175C95.9507 99.3667 92.5229 95.8301 92.5229 95.8301Z" fill="#9955B9"/>
<path d="M82.9994 86.5596C84.635 85.9798 81.2014 82.4722 81.2014 82.4722C81.2014 82.4722 81.3638 87.1277 82.9994 86.5596Z" fill="#9955B9"/>
<path d="M84.1477 89.1689C84.1477 89.1689 84.3043 93.8071 85.9399 93.2621C87.5755 92.7171 84.1477 89.1689 84.1477 89.1689Z" fill="#9955B9"/>
<path d="M87.0884 95.8706C87.0884 95.8706 87.245 100.509 88.8806 99.929C90.5162 99.3492 87.0884 95.8706 87.0884 95.8706Z" fill="#9955B9"/>
<path d="M77.5647 86.6001C79.2003 86.0203 75.7725 82.5127 75.7725 82.5127C75.7725 82.5127 75.9291 87.1682 77.5647 86.6001Z" fill="#9955B9"/>
<path d="M78.7134 89.2148C78.7134 89.2148 78.87 93.853 80.5056 93.3022C82.1412 92.7514 78.7134 89.2148 78.7134 89.2148Z" fill="#9955B9"/>
<path d="M81.6538 95.9111C81.6538 95.9111 81.8104 100.549 83.446 99.9695C85.0816 99.3898 81.6538 95.9111 81.6538 95.9111Z" fill="#9955B9"/>
<path d="M70.3381 82.5537C70.3381 82.5537 70.4947 87.1919 72.1303 86.6411C73.7659 86.0903 70.3381 82.5537 70.3381 82.5537Z" fill="#9955B9"/>
<path d="M73.2786 89.2847C73.2786 89.2847 73.4352 93.9228 75.0708 93.3721C76.7064 92.8213 73.2786 89.2847 73.2786 89.2847Z" fill="#9955B9"/>
<path d="M76.219 95.9517C76.219 95.9517 76.3756 100.59 78.0112 100.039C79.6468 99.4883 76.219 95.9517 76.219 95.9517Z" fill="#9955B9"/>
<g opacity="0.7">
<path d="M88.4333 86.5184C90.0689 85.9386 86.6353 82.46 86.6353 82.46C86.6353 82.46 86.7977 87.0807 88.4333 86.5184Z" fill="white"/>
<path d="M89.5815 89.1274C89.5815 89.1274 89.7381 93.7656 91.3737 93.2148C93.0093 92.664 89.5815 89.1274 89.5815 89.1274Z" fill="white"/>
<path d="M92.5227 95.8296C92.5227 95.8296 92.6793 100.468 94.3149 99.917C95.9505 99.3662 92.5227 95.8296 92.5227 95.8296Z" fill="white"/>
<path d="M82.9992 86.5591C84.6348 85.9793 81.2012 82.4717 81.2012 82.4717C81.2012 82.4717 81.3636 87.1272 82.9992 86.5591Z" fill="white"/>
<path d="M84.1475 89.1685C84.1475 89.1685 84.3041 93.8066 85.9397 93.2616C87.5753 92.7167 84.1475 89.1685 84.1475 89.1685Z" fill="white"/>
<path d="M87.0879 95.8696C87.0879 95.8696 87.2445 100.508 88.8801 99.928C90.5157 99.3483 87.0879 95.8696 87.0879 95.8696Z" fill="white"/>
<path d="M77.5644 86.5996C79.2 86.0198 75.7722 82.5122 75.7722 82.5122C75.7722 82.5122 75.9288 87.1678 77.5644 86.5996Z" fill="white"/>
<path d="M78.7129 89.2144C78.7129 89.2144 78.8695 93.8525 80.5051 93.3017C82.1407 92.7509 78.7129 89.2144 78.7129 89.2144Z" fill="white"/>
<path d="M81.6531 95.9106C81.6531 95.9106 81.8097 100.549 83.4453 99.969C85.0809 99.3893 81.6531 95.9106 81.6531 95.9106Z" fill="white"/>
<path d="M70.3376 82.5522C70.3376 82.5522 70.4942 87.1904 72.1298 86.6396C73.7654 86.0888 70.3376 82.5522 70.3376 82.5522Z" fill="white"/>
<path d="M73.2778 89.2837C73.2778 89.2837 73.4344 93.9219 75.07 93.3711C76.7056 92.8203 73.2778 89.2837 73.2778 89.2837Z" fill="white"/>
<path d="M76.2188 95.9512C76.2188 95.9512 76.3753 100.589 78.0109 100.039C79.6465 99.4878 76.2188 95.9512 76.2188 95.9512Z" fill="white"/>
</g>
<path d="M209.96 58.9513C210.436 57.4844 209.502 56.0524 207.483 55.4263C206.676 55.1126 205.803 55.006 204.944 55.1164C204.084 55.2268 203.267 55.5506 202.565 56.0582L200.558 53.5884C202.669 52.0752 205.419 51.6346 208.678 52.6955C212.529 53.9421 214.525 56.5278 213.55 59.5426C212.164 63.8039 207.559 62.7488 206.555 65.8332L203.232 64.7548C204.496 60.8761 209.107 61.566 209.96 58.9513ZM201.457 68.8074C201.582 68.3908 201.829 68.021 202.165 67.7449C202.502 67.4689 202.913 67.2992 203.346 67.2574C203.779 67.2156 204.215 67.3036 204.598 67.5102C204.981 67.7168 205.294 68.0327 205.496 68.4176C205.699 68.8025 205.783 69.239 205.737 69.6715C205.69 70.1041 205.516 70.5131 205.237 70.8465C204.957 71.1799 204.585 71.4226 204.167 71.5437C203.749 71.6648 203.304 71.6588 202.89 71.5265C202.615 71.4506 202.358 71.3195 202.135 71.1413C201.912 70.9631 201.728 70.7415 201.593 70.4899C201.459 70.2383 201.377 69.9619 201.352 69.6777C201.328 69.3934 201.362 69.1072 201.451 68.8364L201.457 68.8074Z" fill="#9955B9"/>
<path d="M61.3931 107.164C61.6947 106.184 61.0567 105.263 59.7053 104.845C59.1642 104.648 58.5826 104.588 58.0126 104.671C57.4427 104.754 56.9023 104.977 56.4399 105.321L55.1001 103.709C56.4863 102.677 58.3075 102.352 60.4999 103.019C63.0751 103.802 64.4323 105.5 63.8175 107.512C62.9475 110.365 59.8735 109.715 59.2413 111.779L57.0199 111.107C57.7855 108.515 60.8595 108.915 61.3931 107.164ZM55.8541 113.837C55.9328 113.56 56.0923 113.312 56.3123 113.125C56.5324 112.938 56.8031 112.821 57.0899 112.788C57.3768 112.755 57.6669 112.809 57.9234 112.941C58.1799 113.074 58.3911 113.28 58.5303 113.532C58.6695 113.785 58.7303 114.074 58.705 114.361C58.6797 114.649 58.5695 114.922 58.3883 115.147C58.2071 115.372 57.9632 115.538 57.6875 115.623C57.4118 115.709 57.1169 115.711 56.8401 115.629C56.6545 115.581 56.4806 115.496 56.3292 115.379C56.1777 115.261 56.0519 115.114 55.9596 114.946C55.8672 114.778 55.8102 114.593 55.792 114.403C55.7739 114.212 55.795 114.02 55.8541 113.837Z" fill="#9955B9"/>
<path d="M94.6675 44.1782L97.1963 43.21L99.8237 51.3789L98.1301 52.0225L94.6675 44.1782ZM98.6463 54.9793C98.5789 54.8003 98.5485 54.6095 98.557 54.4185C98.5655 54.2274 98.6126 54.0401 98.6955 53.8678C98.7785 53.6954 98.8955 53.5417 99.0396 53.4159C99.1836 53.29 99.3517 53.1947 99.5337 53.1356C99.7061 53.0616 99.8917 53.0231 100.079 53.0226C100.267 53.0221 100.453 53.0595 100.626 53.1326C100.799 53.2058 100.955 53.313 101.085 53.4481C101.215 53.5831 101.317 53.743 101.384 53.9183C101.454 54.0946 101.488 54.2832 101.483 54.4729C101.479 54.6626 101.436 54.8494 101.357 55.0221C101.279 55.1948 101.166 55.3499 101.026 55.478C100.886 55.6062 100.722 55.7047 100.543 55.7678C100.367 55.8433 100.178 55.8827 99.9861 55.8837C99.7946 55.8848 99.6048 55.8475 99.428 55.774C99.2512 55.7005 99.0909 55.5923 98.9566 55.4558C98.8224 55.3193 98.7168 55.1573 98.6463 54.9793Z" fill="#9955B9"/>
<path d="M63.7074 180.071C63.7339 179.775 63.8199 179.487 63.9601 179.224C64.1004 178.962 64.2921 178.731 64.5238 178.544C64.7554 178.357 65.0224 178.219 65.3086 178.138C65.5949 178.057 65.8946 178.034 66.1898 178.071C66.4862 178.085 66.7769 178.158 67.0443 178.286C67.3118 178.415 67.5507 178.596 67.7467 178.818C67.9427 179.041 68.0918 179.301 68.1851 179.582C68.2785 179.864 68.3141 180.162 68.29 180.457C68.2658 180.753 68.1823 181.041 68.0445 181.303C67.9067 181.566 67.7174 181.798 67.4878 181.986C67.2583 182.174 66.9932 182.314 66.7084 182.397C66.4236 182.481 66.1249 182.506 65.8302 182.471C65.5314 182.458 65.2383 182.385 64.9683 182.256C64.6984 182.127 64.4571 181.946 64.259 181.722C64.0609 181.498 63.91 181.236 63.8152 180.952C63.7204 180.669 63.6838 180.369 63.7074 180.071ZM65.3778 162.231L69.5828 162.574L67.779 175.804L64.966 175.572L65.3778 162.231Z" fill="#9955B9"/>
<path d="M175.12 120.795L177.759 120.18L179.261 128.622L177.492 129.033L175.12 120.795ZM177.608 132.036C177.565 131.85 177.56 131.657 177.594 131.468C177.627 131.28 177.699 131.1 177.804 130.941C177.909 130.781 178.046 130.644 178.206 130.538C178.365 130.433 178.545 130.36 178.733 130.326C178.914 130.284 179.102 130.278 179.286 130.308C179.469 130.338 179.645 130.405 179.803 130.503C179.961 130.601 180.099 130.729 180.207 130.881C180.315 131.032 180.393 131.203 180.435 131.384C180.478 131.565 180.484 131.753 180.453 131.937C180.423 132.12 180.357 132.296 180.259 132.454C180.16 132.612 180.032 132.749 179.881 132.858C179.729 132.966 179.558 133.044 179.377 133.086C179.192 133.136 178.998 133.149 178.808 133.123C178.618 133.097 178.435 133.033 178.27 132.935C178.105 132.838 177.962 132.708 177.848 132.553C177.734 132.399 177.652 132.223 177.608 132.036Z" fill="#9955B9"/>
<path d="M181.192 60.7491C181.126 60.7478 181.064 60.7208 181.018 60.6737C180.971 60.6273 176.546 55.8442 179.452 52.5163C179.785 52.1151 180.203 51.7924 180.676 51.5713C179.941 49.6958 179.51 47.7152 179.4 45.704C179.307 44.4517 179.858 43.6053 180.942 43.327C181.66 43.1812 182.401 43.1971 183.112 43.3734C183.099 42.7779 183.26 42.1916 183.576 41.6862C184.08 40.9615 185.211 40.3354 187.711 41.4833C187.768 41.5098 187.811 41.5575 187.833 41.6161C187.855 41.6747 187.853 41.7394 187.827 41.7964C187.814 41.8244 187.795 41.8496 187.772 41.8704C187.75 41.8911 187.723 41.9071 187.694 41.9174C187.664 41.9277 187.633 41.932 187.603 41.9301C187.572 41.9283 187.541 41.9202 187.514 41.9065C186.296 41.3268 184.695 40.9035 183.964 41.9529C183.682 42.4118 183.546 42.9457 183.576 43.4835C185.571 44.0285 187.699 45.333 188.308 46.6549C188.484 46.9922 188.521 47.3844 188.413 47.7489C188.305 48.1134 188.059 48.4216 187.728 48.6087C186.87 49.1885 185.896 49.0377 184.985 48.1275C183.908 46.9428 183.25 45.4376 183.112 43.843C182.438 43.6618 181.731 43.6399 181.047 43.7792C180.177 44.0053 179.777 44.6431 179.852 45.6693C179.959 47.6386 180.38 49.5783 181.099 51.4148C181.766 51.2487 182.47 51.3354 183.077 51.6583C184.127 52.1917 184.91 53.2758 184.747 53.9774C184.704 54.1579 184.597 54.3165 184.445 54.4233C184.294 54.5301 184.108 54.5777 183.924 54.5571C182.717 54.5977 181.656 53.6527 180.85 51.983C180.439 52.1775 180.076 52.4606 179.788 52.812C177.161 55.821 181.302 60.2969 181.343 60.349C181.365 60.3711 181.382 60.3973 181.394 60.4262C181.406 60.455 181.412 60.486 181.412 60.5172C181.412 60.5484 181.406 60.5793 181.394 60.6082C181.382 60.637 181.365 60.6632 181.343 60.6853C181.302 60.7246 181.248 60.7474 181.192 60.7491ZM181.314 51.8496C182.027 53.299 182.949 54.1687 183.929 54.0991C184.26 54.0991 184.295 53.9426 184.306 53.8846C184.393 53.4962 183.871 52.5801 182.885 52.0815C182.404 51.8254 181.849 51.7435 181.314 51.8496ZM183.605 43.9647C183.77 45.3907 184.379 46.729 185.345 47.7912C185.861 48.313 186.655 48.8058 187.491 48.2202C187.609 48.1589 187.714 48.0743 187.798 47.9714C187.883 47.8685 187.946 47.7496 187.983 47.6217C188.021 47.4938 188.032 47.3596 188.016 47.2273C188 47.095 187.957 46.9674 187.891 46.852C187.38 45.7562 185.461 44.5097 183.605 43.9647Z" fill="#263238"/>
<path d="M178.059 110.911C176.557 110.911 175.072 110.389 174.411 109.056C173.878 107.977 174.086 106.737 174.324 105.728C174.678 104.284 175.78 100.51 178.077 98.1907C175.821 99.1126 173.437 101.617 172.526 103.246C172.495 103.299 172.444 103.338 172.384 103.354C172.325 103.371 172.261 103.363 172.207 103.333C172.18 103.319 172.156 103.299 172.136 103.275C172.117 103.251 172.102 103.223 172.093 103.193C172.085 103.164 172.082 103.133 172.086 103.102C172.089 103.071 172.099 103.041 172.114 103.014C173.037 101.391 175.948 98.098 178.813 97.4718H178.947C179.674 96.9285 180.521 96.5685 181.418 96.4224C182.115 96.3023 182.831 96.3689 183.495 96.6153C184.158 96.8618 184.744 97.2793 185.193 97.8255C185.515 98.2816 185.741 98.7988 185.855 99.3451C185.97 99.8915 185.972 100.456 185.86 101.003C186.211 101.114 186.521 101.326 186.754 101.611C187.218 102.191 187.258 103.061 186.875 104.162C186.3 105.755 185.348 107.185 184.101 108.33C182.854 109.476 181.348 110.304 179.712 110.743C179.17 110.867 178.615 110.923 178.059 110.911ZM179.132 97.8777C176.43 99.9243 175.159 104.29 174.782 105.838C174.562 106.742 174.365 107.908 174.835 108.847C175.623 110.447 177.856 110.691 179.596 110.25C181.156 109.83 182.592 109.04 183.781 107.947C184.971 106.853 185.879 105.49 186.429 103.971C186.759 103.026 186.742 102.319 186.382 101.861C186.22 101.664 186.007 101.514 185.768 101.426C185.703 101.681 185.619 101.931 185.518 102.174C184.497 104.661 181.429 108.319 178.315 108.714C178.253 108.72 178.192 108.703 178.143 108.665C178.094 108.627 178.062 108.572 178.054 108.511C178.049 108.48 178.052 108.449 178.06 108.419C178.068 108.39 178.081 108.362 178.1 108.338C178.119 108.313 178.143 108.293 178.17 108.278C178.196 108.263 178.226 108.253 178.257 108.25C181.157 107.885 184.132 104.319 185.083 102C185.177 101.774 185.254 101.541 185.315 101.304C185.066 101.261 184.814 101.238 184.561 101.235C184.088 101.229 183.615 101.258 183.146 101.322C183.151 102.497 182.784 103.645 182.097 104.599C181.411 105.554 180.44 106.268 179.324 106.638C178.604 106.874 177.821 106.824 177.137 106.499C176.956 106.406 176.796 106.278 176.666 106.121C176.537 105.965 176.44 105.784 176.383 105.589C176.174 104.841 176.575 104.006 177.508 103.241C178.994 102.039 180.763 101.241 182.647 100.921C182.607 100.413 182.462 99.9185 182.22 99.4694C181.978 99.0202 181.646 98.6262 181.244 98.3125C180.941 98.1025 180.599 97.9558 180.238 97.8811C179.877 97.8063 179.505 97.8052 179.144 97.8777H179.132ZM182.676 101.391C180.891 101.699 179.215 102.462 177.81 103.606C177.358 103.977 176.65 104.713 176.836 105.461C176.874 105.596 176.941 105.721 177.03 105.829C177.12 105.937 177.232 106.025 177.358 106.087C177.932 106.349 178.585 106.384 179.185 106.186C180.193 105.846 181.072 105.203 181.701 104.344C182.33 103.486 182.679 102.455 182.699 101.391H182.676ZM179.927 97.3675C180.501 97.4039 181.053 97.6052 181.516 97.9472C181.966 98.2958 182.34 98.7329 182.614 99.2315C182.888 99.7301 183.058 100.28 183.111 100.846C183.594 100.782 184.08 100.753 184.567 100.759C184.849 100.762 185.13 100.787 185.408 100.834C185.503 100.357 185.501 99.8659 185.401 99.3897C185.301 98.9135 185.106 98.4623 184.828 98.0632C184.429 97.5839 183.91 97.2184 183.325 97.0036C182.739 96.7888 182.107 96.7324 181.493 96.8399C180.949 96.9272 180.423 97.1056 179.939 97.3675H179.927Z" fill="#263238"/>
<path d="M108.413 86.8037C108.367 86.8026 108.322 86.7883 108.284 86.7625C108.247 86.7367 108.217 86.7004 108.199 86.6582C108.181 86.6159 108.176 86.5693 108.184 86.5242C108.192 86.479 108.213 86.4372 108.245 86.4037C108.587 86.0532 108.827 85.6152 108.938 85.1377C109.048 84.6602 109.025 84.1615 108.871 83.6961C108.798 83.4255 108.697 83.1632 108.569 82.9134C107.095 83.4978 105.514 83.7664 103.929 83.7019C102.619 83.6208 101.766 83.2323 101.528 82.6178C101.331 82.1134 101.557 81.522 102.195 80.8784C102.619 80.418 103.161 80.0831 103.763 79.9102C104.364 79.7374 105.002 79.7334 105.606 79.8986C106.922 80.2846 108.045 81.1492 108.755 82.3221C109.628 81.9696 110.365 81.3481 110.86 80.548C111.277 79.7448 111.504 78.8569 111.524 77.9525C111.544 77.048 111.357 76.1509 110.976 75.33C110.515 75.3955 110.05 75.4245 109.584 75.417C106.951 75.3532 104.295 74.0024 103.674 72.8428C103.592 72.7117 103.548 72.5599 103.548 72.4051C103.548 72.2502 103.592 72.0985 103.674 71.9674C103.953 71.5325 104.718 71.3354 105.954 71.3876C107.025 71.4203 108.07 71.7309 108.985 72.2889C109.9 72.8469 110.654 73.6332 111.174 74.5705C111.22 74.6517 111.266 74.7329 111.307 74.814C113.627 74.4604 116.794 73.3762 117.873 71.5325C118.127 71.0863 118.25 70.577 118.226 70.0638C118.203 69.5506 118.034 69.0547 117.739 68.6337C116.887 67.1901 115.292 67.1495 114.416 67.248C114.082 67.2886 113.752 67.3584 113.43 67.4568C113.584 67.8593 113.695 68.2772 113.76 68.7033C113.934 69.8628 113.534 71.921 112.502 72.4892C112.113 72.7037 111.464 72.7964 110.605 72.0427C110.261 71.7927 110.005 71.4411 109.872 71.0375C109.738 70.6339 109.735 70.1987 109.863 69.7932C110.193 68.7207 111.365 67.7234 112.792 67.1727C112.491 66.5508 112.045 66.0108 111.49 65.5989C110.936 65.187 110.29 64.9154 109.608 64.8072C109.56 64.7905 109.519 64.7592 109.491 64.7179C109.462 64.6765 109.448 64.6271 109.449 64.5769C109.45 64.5266 109.467 64.4781 109.498 64.4382C109.529 64.3984 109.571 64.3692 109.619 64.355C110.387 64.4778 111.113 64.7867 111.734 65.2546C112.354 65.7225 112.851 66.3353 113.18 67.0393C113.548 66.928 113.924 66.8484 114.306 66.8016C116.005 66.5987 117.351 67.1727 118.087 68.4134C118.431 68.9069 118.627 69.4886 118.65 70.0897C118.674 70.6908 118.525 71.286 118.221 71.805C117.061 73.7299 113.882 74.8836 111.452 75.2837C111.834 76.1552 112.016 77.1011 111.985 78.0521C111.954 79.0032 111.711 79.9352 111.272 80.7799C110.734 81.6594 109.933 82.3471 108.981 82.7453C109.117 83.016 109.226 83.2995 109.306 83.5918C109.483 84.1364 109.507 84.7192 109.375 85.2764C109.243 85.8336 108.96 86.3439 108.558 86.7515C108.517 86.7853 108.466 86.8038 108.413 86.8037ZM104.689 80.2349C104.285 80.2359 103.885 80.3215 103.515 80.4862C103.145 80.651 102.814 80.8912 102.543 81.1915C102.201 81.5452 101.824 82.0496 101.963 82.4496C102.102 82.8497 102.874 83.1627 103.958 83.2323C105.448 83.2907 106.933 83.0399 108.32 82.496C107.672 81.4559 106.665 80.6888 105.49 80.3393C105.228 80.2736 104.959 80.2385 104.689 80.2349ZM105.524 71.892C104.364 71.892 104.115 72.1645 104.057 72.2573C104.027 72.3214 104.015 72.3924 104.023 72.4628C104.03 72.5332 104.056 72.6004 104.098 72.6573C104.579 73.5617 106.998 74.9184 109.608 74.9764C109.995 74.9835 110.383 74.9642 110.768 74.9184C110.756 74.8921 110.743 74.8669 110.727 74.843C110.248 73.9787 109.553 73.2528 108.711 72.7357C107.869 72.2187 106.907 71.928 105.919 71.892H105.524ZM112.943 67.6365C111.643 68.1293 110.559 69.0279 110.269 69.9556C110.176 70.27 110.181 70.6054 110.285 70.9165C110.389 71.2276 110.586 71.4993 110.849 71.6949C111.377 72.1587 111.835 72.2746 112.212 72.0833C113.024 71.6369 113.372 69.799 113.233 68.7844C113.181 68.3824 113.084 67.9875 112.943 67.6075V67.6365Z" fill="#263238"/>
<path d="M76.1593 167.462C75.5777 167.459 75.0016 167.349 74.4599 167.137C74.4025 167.113 74.3567 167.067 74.3319 167.01C74.3071 166.953 74.3051 166.888 74.3265 166.83C74.3497 166.773 74.3941 166.727 74.4504 166.702C74.5066 166.677 74.5703 166.675 74.6281 166.696C75.2059 166.942 75.8358 167.039 76.4608 166.979C77.0857 166.919 77.6858 166.705 78.2067 166.354C79.6683 165.374 80.6833 163.328 80.7355 161.258C80.7355 161.09 80.7355 160.904 80.7355 160.713C79.9702 161.277 79.0266 161.545 78.0791 161.467C77.6949 161.473 77.3144 161.392 76.966 161.23C76.6175 161.069 76.31 160.83 76.0665 160.533C75.9019 160.354 75.7933 160.131 75.7542 159.891C75.715 159.651 75.747 159.405 75.8461 159.183C76.3391 158.22 78.3343 157.994 79.0651 157.988C79.4433 158.009 79.8087 158.133 80.1215 158.347C80.4343 158.56 80.6828 158.855 80.8399 159.2C80.9156 159.357 80.9796 159.52 81.0313 159.687C81.1359 159.527 81.227 159.358 81.3039 159.183C81.5651 158.478 81.6613 157.722 81.5849 156.975C81.5084 156.227 81.2615 155.506 80.8631 154.869C80.2831 156.191 78.0211 156.817 76.6349 156.608C75.5909 156.423 75.0631 155.785 75.2139 154.869C75.3013 154.509 75.4753 154.175 75.721 153.897C75.9666 153.619 76.2763 153.406 76.6233 153.275C77.2329 152.94 77.9312 152.801 78.6226 152.878C79.3141 152.954 79.9649 153.243 80.4861 153.704C80.2488 153.016 79.8178 152.412 79.2449 151.964C77.7601 150.642 76.3449 150.005 74.9529 150.057C74.8912 150.057 74.8317 150.034 74.7865 149.992C74.7413 149.95 74.7137 149.892 74.7093 149.831C74.7077 149.8 74.7124 149.769 74.723 149.74C74.7336 149.711 74.7499 149.684 74.771 149.661C74.792 149.639 74.8175 149.62 74.8457 149.608C74.874 149.595 74.9045 149.588 74.9355 149.587C76.4261 149.518 77.9805 150.208 79.5755 151.611C80.5963 152.527 81.0835 153.42 81.0255 154.272C81.5696 154.992 81.9216 155.839 82.0485 156.732C82.1753 157.626 82.0727 158.537 81.7505 159.38C81.6073 159.717 81.4115 160.031 81.1705 160.307C81.206 160.631 81.2195 160.956 81.2111 161.281C81.1531 163.496 80.0511 165.699 78.4735 166.754C77.7919 167.22 76.9846 167.466 76.1593 167.462ZM79.0593 158.458C78.1197 158.458 76.5769 158.765 76.2579 159.397C76.202 159.544 76.1898 159.703 76.2228 159.856C76.2557 160.01 76.3324 160.15 76.4435 160.261C76.6474 160.498 76.9015 160.687 77.1873 160.814C77.4731 160.942 77.7836 161.004 78.0965 160.997C78.5599 161.04 79.0271 160.985 79.4684 160.837C79.9098 160.69 80.3156 160.452 80.6601 160.139C80.6152 159.886 80.5351 159.64 80.4223 159.409C80.3022 159.144 80.1137 158.916 79.8761 158.749C79.6385 158.582 79.3605 158.481 79.0709 158.458H79.0593ZM78.3169 153.338C77.796 153.348 77.2835 153.471 76.8147 153.698C76.5386 153.803 76.2904 153.97 76.0893 154.186C75.8882 154.402 75.7394 154.662 75.6547 154.944C75.5213 155.744 76.1419 156.023 76.6871 156.104C78.1371 156.353 80.2831 155.553 80.4977 154.365C80.4281 154.283 80.3527 154.202 80.2773 154.127C79.7557 153.62 79.0562 153.337 78.3285 153.338H78.3169Z" fill="#263238"/>
<path d="M85.1723 120.216C84.0601 120.201 82.9839 119.82 82.1099 119.132C80.3989 117.81 79.7899 115.717 80.4163 113.392C80.4511 113.259 80.4917 113.131 80.5265 113.01C80.2825 112.819 80.0029 112.68 79.704 112.599C79.4052 112.518 79.0932 112.498 78.7865 112.54C78.3631 112.679 78.0441 113.12 77.8179 113.92C77.7991 113.979 77.7588 114.028 77.7049 114.058C77.6511 114.088 77.5879 114.097 77.5279 114.082C77.4985 114.074 77.4711 114.059 77.4473 114.04C77.4235 114.021 77.4038 113.997 77.3892 113.97C77.3746 113.943 77.3656 113.913 77.3625 113.883C77.3594 113.852 77.3624 113.822 77.3713 113.792C77.6381 112.841 78.0557 112.285 78.6415 112.094C78.9918 112.023 79.3529 112.028 79.7016 112.105C80.0502 112.183 80.3786 112.333 80.6657 112.546C80.8243 112.012 81.0821 111.512 81.4255 111.073C82.6203 109.601 85.0795 110.117 86.7673 111.467C87.1841 111.761 87.5382 112.135 87.809 112.567C88.0799 112.999 88.262 113.481 88.3449 113.984C88.466 113.912 88.6005 113.866 88.7401 113.848C88.8798 113.83 89.0216 113.84 89.1569 113.879C89.5946 114.014 89.9614 114.316 90.1777 114.72C90.8911 116.111 89.9979 117.822 88.7161 118.546C88.4539 118.685 88.1803 118.802 87.8983 118.894C87.6519 119.256 87.3267 119.557 86.9471 119.776C86.4033 120.073 85.792 120.224 85.1723 120.216ZM80.9383 113.259L80.8687 113.502C80.2887 115.636 80.8687 117.561 82.3941 118.72C83.7223 119.747 85.5377 120.002 86.7209 119.329C86.8515 119.25 86.9756 119.161 87.0921 119.062C85.9403 119.344 84.7275 119.232 83.6469 118.744C83.295 118.55 83.0016 118.266 82.7975 117.92C82.5934 117.574 82.4861 117.18 82.4869 116.778C82.4853 116.716 82.5081 116.656 82.5504 116.61C82.5927 116.565 82.6511 116.538 82.7131 116.535C82.7441 116.533 82.775 116.538 82.8041 116.548C82.8333 116.559 82.86 116.575 82.8827 116.596C82.9054 116.617 82.9236 116.643 82.9363 116.671C82.9491 116.699 82.956 116.73 82.9567 116.761C82.9545 117.083 83.0403 117.399 83.2048 117.676C83.3694 117.953 83.6065 118.18 83.8905 118.332C84.8881 118.912 86.4541 118.802 87.6025 118.459C87.9652 117.754 88.0875 116.95 87.9505 116.169L87.9157 115.908C87.9157 115.816 87.8867 115.717 87.8751 115.619L87.8229 115.682C86.4425 117.422 84.3023 115.769 82.4173 114.314C81.9127 113.972 81.4139 113.589 80.9383 113.271V113.259ZM88.8669 114.297C88.7656 114.296 88.6664 114.326 88.5827 114.384C88.1883 114.639 88.2811 115.265 88.3681 115.868L88.4029 116.135C88.5159 116.848 88.4521 117.579 88.2173 118.262L88.4899 118.123C89.5629 117.543 90.3517 116.059 89.7659 114.923C89.6084 114.645 89.3513 114.438 89.0467 114.343C88.988 114.326 88.9278 114.314 88.8669 114.308V114.297ZM81.0775 112.789C81.5995 113.126 82.1389 113.543 82.6899 113.949C84.9055 115.653 86.4309 116.674 87.4459 115.392C88.4609 114.111 87.6083 112.708 86.4773 111.798C85.0041 110.638 82.7943 110.105 81.7909 111.334C81.4654 111.775 81.2236 112.272 81.0775 112.801V112.789Z" fill="#263238"/>
<path d="M216.792 174.431C215.745 174.4 214.702 174.289 213.671 174.1L213.468 174.065C213.437 174.062 213.407 174.052 213.38 174.037C213.353 174.021 213.33 174 213.311 173.975C213.293 173.95 213.28 173.921 213.273 173.891C213.266 173.861 213.265 173.829 213.271 173.799C213.275 173.768 213.286 173.739 213.301 173.712C213.317 173.686 213.338 173.662 213.363 173.644C213.388 173.626 213.416 173.612 213.446 173.605C213.476 173.598 213.507 173.597 213.538 173.602L213.747 173.636C216.003 173.996 218.566 174.402 220.324 172.738C220.759 172.32 221.105 171.818 221.341 171.263C221.577 170.708 221.699 170.112 221.698 169.508C221.708 168.285 221.383 167.082 220.759 166.03C220.598 167.668 219.845 169.191 218.642 170.314C217.75 171.134 216.66 171.707 215.479 171.976C214.298 172.246 213.067 172.203 211.908 171.851C209.518 171.109 208.208 169.126 208.643 166.923C208.873 166.048 209.296 165.236 209.88 164.545C210.464 163.854 211.194 163.302 212.018 162.928C212.064 162.547 212.17 162.175 212.331 161.826C212.58 161.302 212.966 160.855 213.447 160.531C213.929 160.208 214.49 160.02 215.069 159.989C215.98 159.949 216.887 160.133 217.711 160.524C218.535 160.915 219.251 161.502 219.796 162.232C220.408 163.104 220.751 164.136 220.782 165.201C221.689 166.458 222.174 167.97 222.168 169.52C222.166 170.185 222.029 170.843 221.767 171.455C221.505 172.066 221.123 172.619 220.643 173.08C220.121 173.547 219.513 173.907 218.852 174.138C218.191 174.37 217.491 174.469 216.792 174.431ZM211.972 163.496C211.842 163.559 211.717 163.628 211.595 163.705C210.972 164.057 210.428 164.535 209.999 165.108C209.57 165.68 209.264 166.336 209.101 167.033C208.66 169.3 210.261 170.871 212.047 171.427C213.128 171.754 214.274 171.793 215.375 171.542C216.475 171.291 217.491 170.758 218.323 169.995C218.95 169.404 219.45 168.692 219.794 167.901C220.138 167.111 220.318 166.26 220.324 165.398C220.168 165.195 219.999 165.001 219.819 164.818C218.872 163.878 217.672 163.234 216.366 162.963C215.059 162.692 213.702 162.807 212.459 163.293C212.366 164.453 212.656 165.891 213.346 166.592C213.582 166.835 213.894 166.991 214.23 167.034C214.566 167.078 214.907 167.006 215.197 166.83C215.351 166.755 215.488 166.649 215.599 166.518C215.709 166.387 215.792 166.235 215.84 166.07C215.87 165.974 215.879 165.872 215.866 165.772C215.853 165.672 215.819 165.576 215.765 165.491C215.731 165.439 215.719 165.376 215.731 165.315C215.743 165.255 215.778 165.201 215.829 165.166C215.854 165.148 215.882 165.136 215.912 165.129C215.942 165.122 215.973 165.122 216.003 165.127C216.034 165.133 216.062 165.144 216.088 165.16C216.114 165.177 216.136 165.199 216.154 165.224C216.25 165.368 216.314 165.532 216.339 165.703C216.364 165.875 216.35 166.05 216.299 166.215C216.23 166.446 216.114 166.66 215.958 166.844C215.803 167.027 215.61 167.177 215.394 167.282C215.017 167.503 214.576 167.59 214.143 167.529C213.711 167.468 213.311 167.262 213.01 166.946C212.231 165.973 211.859 164.737 211.972 163.496ZM214.947 162.337C215.916 162.325 216.877 162.507 217.774 162.874C218.671 163.24 219.484 163.783 220.167 164.47L220.266 164.575C220.148 163.835 219.86 163.132 219.425 162.522C218.921 161.863 218.267 161.334 217.518 160.978C216.768 160.622 215.945 160.45 215.115 160.476C214.616 160.502 214.134 160.663 213.719 160.941C213.304 161.22 212.973 161.606 212.761 162.058C212.66 162.277 212.586 162.506 212.54 162.743C213.314 162.473 214.128 162.336 214.947 162.337Z" fill="#263238"/>
<path d="M223.886 140.341L209.619 131.535C207.397 130.165 204.485 130.854 203.115 133.075L201.175 136.218C199.804 138.439 200.494 141.351 202.715 142.722L216.983 151.527C219.204 152.898 222.116 152.208 223.487 149.987L225.427 146.844C226.797 144.623 226.108 141.711 223.886 140.341Z" fill="#9955B9"/>
<g opacity="0.7">
<path d="M223.887 140.337L209.618 131.535C207.396 130.164 204.484 130.854 203.113 133.074L201.173 136.217C199.802 138.438 200.491 141.349 202.713 142.72L216.982 151.522C219.204 152.893 222.116 152.203 223.487 149.983L225.428 146.84C226.799 144.619 226.109 141.708 223.887 140.337Z" fill="white"/>
</g>
<path d="M206.427 139.3C206.481 139.225 206.561 139.173 206.652 139.155C206.743 139.136 206.837 139.153 206.916 139.202C206.995 139.25 207.052 139.327 207.077 139.417C207.101 139.506 207.091 139.601 207.047 139.683C207.023 139.724 206.99 139.759 206.951 139.787C206.912 139.815 206.869 139.835 206.822 139.845C206.776 139.856 206.728 139.858 206.681 139.85C206.634 139.842 206.589 139.825 206.549 139.799C206.468 139.748 206.41 139.667 206.388 139.574C206.365 139.481 206.379 139.383 206.427 139.3ZM209.327 137.219C209.588 136.79 209.425 136.28 208.816 135.909C208.612 135.764 208.377 135.669 208.129 135.631C207.881 135.593 207.628 135.612 207.39 135.689L207.227 135.259C207.538 135.164 207.866 135.14 208.187 135.192C208.508 135.243 208.812 135.367 209.077 135.555C209.907 136.065 210.197 136.79 209.802 137.422C209.182 138.437 208.062 137.816 207.546 138.663L207.105 138.39C207.714 137.405 208.851 137.984 209.333 137.219H209.327Z" fill="#263238"/>
<path d="M208.892 140.82C208.917 140.779 208.95 140.744 208.988 140.716C209.027 140.688 209.071 140.669 209.118 140.658C209.164 140.648 209.213 140.647 209.26 140.656C209.306 140.665 209.351 140.683 209.391 140.71C209.432 140.733 209.469 140.764 209.497 140.802C209.526 140.84 209.547 140.883 209.558 140.93C209.57 140.976 209.572 141.024 209.564 141.071C209.556 141.118 209.538 141.162 209.513 141.202C209.462 141.284 209.381 141.343 209.288 141.366C209.195 141.388 209.096 141.373 209.014 141.324C208.932 141.273 208.873 141.191 208.85 141.097C208.827 141.002 208.842 140.903 208.892 140.82ZM211.345 136.999L211.838 137.301L209.959 140.147L209.634 139.95L211.345 136.999Z" fill="#263238"/>
<path d="M211.281 142.292C211.306 142.252 211.338 142.216 211.376 142.189C211.414 142.161 211.458 142.141 211.504 142.131C211.55 142.121 211.598 142.12 211.644 142.129C211.691 142.138 211.735 142.156 211.774 142.182C211.815 142.206 211.851 142.238 211.879 142.275C211.908 142.313 211.929 142.356 211.94 142.402C211.952 142.448 211.955 142.495 211.948 142.542C211.942 142.589 211.926 142.634 211.902 142.675C211.876 142.716 211.843 142.751 211.804 142.779C211.765 142.807 211.721 142.827 211.674 142.838C211.627 142.848 211.578 142.85 211.531 142.842C211.483 142.834 211.438 142.816 211.397 142.791C211.357 142.766 211.321 142.733 211.294 142.695C211.266 142.656 211.246 142.612 211.235 142.566C211.224 142.519 211.223 142.471 211.231 142.424C211.239 142.377 211.256 142.332 211.281 142.292ZM214.181 140.211C214.448 139.782 214.28 139.272 213.677 138.901C213.472 138.756 213.237 138.661 212.989 138.623C212.742 138.584 212.489 138.604 212.25 138.68L212.082 138.251C212.392 138.155 212.72 138.132 213.041 138.183C213.362 138.235 213.667 138.359 213.932 138.547C214.761 139.057 215.051 139.782 214.663 140.414C214.036 141.428 212.923 140.808 212.401 141.654L211.966 141.382C212.563 140.408 213.706 140.988 214.181 140.211Z" fill="#263238"/>
<path d="M213.74 143.812C213.766 143.771 213.8 143.737 213.84 143.709C213.879 143.682 213.924 143.663 213.971 143.653C214.018 143.644 214.066 143.643 214.113 143.653C214.161 143.662 214.205 143.681 214.245 143.708C214.286 143.731 214.321 143.762 214.35 143.799C214.378 143.837 214.398 143.88 214.41 143.925C214.421 143.971 214.423 144.018 214.416 144.064C214.409 144.111 214.392 144.155 214.367 144.195C214.342 144.236 214.31 144.271 214.272 144.3C214.233 144.328 214.189 144.349 214.143 144.36C214.097 144.371 214.048 144.373 214.001 144.366C213.954 144.358 213.909 144.342 213.868 144.316C213.785 144.266 213.725 144.185 213.701 144.09C213.677 143.996 213.691 143.896 213.74 143.812ZM216.194 139.991L216.693 140.298L214.813 143.139L214.489 142.942L216.194 139.991Z" fill="#263238"/>
<path d="M216.13 145.284C216.155 145.245 216.188 145.21 216.226 145.183C216.264 145.155 216.308 145.136 216.354 145.126C216.399 145.116 216.447 145.115 216.493 145.123C216.54 145.131 216.584 145.149 216.623 145.174C216.665 145.198 216.701 145.229 216.73 145.267C216.759 145.304 216.78 145.348 216.792 145.394C216.804 145.44 216.806 145.488 216.799 145.535C216.792 145.582 216.776 145.627 216.751 145.667C216.697 145.743 216.616 145.795 216.526 145.813C216.435 145.831 216.34 145.814 216.261 145.766C216.183 145.717 216.125 145.64 216.101 145.551C216.076 145.462 216.087 145.366 216.13 145.284ZM219.03 143.203C219.291 142.774 219.123 142.264 218.52 141.893C218.314 141.75 218.079 141.656 217.832 141.617C217.585 141.579 217.332 141.598 217.093 141.672L216.925 141.243C217.236 141.147 217.565 141.124 217.887 141.175C218.209 141.227 218.515 141.351 218.781 141.539C219.61 142.049 219.894 142.774 219.506 143.406C218.879 144.421 217.766 143.8 217.244 144.647L216.809 144.374C217.418 143.4 218.555 143.98 219.036 143.203H219.03Z" fill="#263238"/>
<path d="M218.595 146.804C218.621 146.763 218.654 146.729 218.693 146.701C218.732 146.674 218.776 146.655 218.823 146.645C218.869 146.636 218.917 146.635 218.964 146.645C219.01 146.654 219.055 146.672 219.094 146.699C219.136 146.723 219.172 146.754 219.201 146.792C219.23 146.83 219.25 146.873 219.262 146.919C219.273 146.965 219.275 147.013 219.267 147.06C219.259 147.107 219.242 147.152 219.216 147.192C219.191 147.233 219.158 147.268 219.12 147.296C219.081 147.324 219.037 147.344 218.991 147.354C218.944 147.365 218.896 147.367 218.849 147.359C218.802 147.351 218.757 147.333 218.717 147.308C218.635 147.257 218.576 147.175 218.553 147.081C218.531 146.986 218.546 146.887 218.595 146.804ZM221.043 142.983L221.542 143.29L219.663 146.131L219.338 145.934L221.043 142.983Z" fill="#263238"/>
<path d="M205.887 144.392L200.586 145.256L203.933 142.287L205.887 144.392Z" fill="#9955B9"/>
<g opacity="0.7">
<path d="M205.888 144.392L200.587 145.256L203.934 142.287L205.888 144.392Z" fill="white"/>
</g>
<path d="M184.072 69.9966L162.277 75.8505C159.756 76.5277 158.262 79.1197 158.939 81.6399L159.898 85.2066C160.575 87.7268 163.168 89.2209 165.689 88.5437L187.484 82.6898C190.005 82.0126 191.5 79.4206 190.823 76.9004L189.864 73.3338C189.186 70.8135 186.593 69.3195 184.072 69.9966Z" fill="#9955B9"/>
<g opacity="0.7">
<path d="M184.073 69.9962L162.278 75.85C159.757 76.5272 158.262 79.1192 158.94 81.6394L159.898 85.2061C160.576 87.7263 163.169 89.2204 165.69 88.5432L187.485 82.6893C190.006 82.0121 191.501 79.4201 190.823 76.8999L189.865 73.3333C189.187 70.8131 186.594 69.319 184.073 69.9962Z" fill="white"/>
</g>
<path d="M164.871 80.1887L165.753 80.4149L165.683 80.7107L164.79 80.4671L165.022 81.3429L164.738 81.4241L164.512 80.5425L163.856 81.2037L163.642 80.9833L164.297 80.3395L163.41 80.1191L163.485 79.8117L164.384 80.0611L164.14 79.1853L164.425 79.1099L164.657 79.9857L165.306 79.3245L165.521 79.5507L164.871 80.1887Z" fill="#263238"/>
<path d="M172.336 80.1419C172.62 81.1913 172.394 81.916 171.756 82.0842C171.667 82.1142 171.572 82.1253 171.479 82.117C171.385 82.1087 171.294 82.081 171.212 82.0358C171.13 81.9906 171.058 81.9287 171.001 81.8542C170.943 81.7797 170.902 81.6942 170.88 81.6029C170.811 81.8498 170.676 82.0733 170.49 82.2499C170.305 82.4265 170.074 82.5495 169.824 82.6059C169.408 82.7007 168.971 82.6306 168.605 82.4103C168.239 82.1899 167.972 81.8365 167.861 81.4242C167.75 81.0118 167.803 80.5725 168.009 80.1983C168.215 79.8241 168.558 79.5442 168.966 79.4172C169.206 79.3441 169.462 79.3351 169.707 79.391C169.952 79.4469 170.179 79.5659 170.364 79.7361L170.195 79.1157L170.602 79.0056L171.228 81.3247C171.321 81.6725 171.529 81.7479 171.738 81.6899C172.121 81.5856 172.243 81.0464 172.017 80.2115C171.938 79.8781 171.79 79.565 171.582 79.2926C171.374 79.0203 171.111 78.7947 170.81 78.6307C170.509 78.4666 170.177 78.3677 169.835 78.3404C169.493 78.3131 169.15 78.358 168.827 78.4722C168.488 78.5468 168.168 78.6892 167.885 78.8906C167.603 79.0921 167.364 79.3485 167.183 79.6446C167.002 79.9406 166.883 80.2701 166.833 80.6133C166.783 80.9565 166.802 81.3063 166.891 81.6417C166.979 81.9772 167.134 82.2913 167.347 82.5652C167.56 82.8391 167.826 83.0672 168.129 83.2358C168.433 83.4044 168.767 83.5099 169.112 83.5462C169.457 83.5824 169.806 83.5485 170.137 83.4466C170.548 83.341 170.929 83.1427 171.251 82.8668L171.437 83.1393C171.086 83.4393 170.671 83.6554 170.224 83.7713C169.852 83.8846 169.46 83.9217 169.072 83.8803C168.685 83.8389 168.31 83.7198 167.969 83.5303C167.629 83.3407 167.33 83.0845 167.091 82.777C166.852 82.4695 166.677 82.117 166.577 81.7405C166.478 81.3639 166.455 80.9712 166.51 80.5856C166.566 80.2001 166.698 79.8296 166.9 79.4964C167.102 79.1633 167.369 78.8741 167.685 78.6464C168.001 78.4186 168.36 78.2568 168.74 78.1707C169.105 78.0444 169.492 77.9959 169.877 78.0283C170.262 78.0608 170.636 78.1735 170.975 78.3592C171.314 78.5449 171.61 78.7995 171.844 79.1065C172.079 79.4136 172.246 79.7663 172.336 80.1419ZM170.625 80.6753C170.55 80.4477 170.411 80.2469 170.224 80.0978C170.036 79.9487 169.809 79.8578 169.571 79.8364C169.332 79.815 169.093 79.864 168.882 79.9774C168.671 80.0908 168.498 80.2636 168.384 80.4744C168.27 80.6851 168.221 80.9245 168.242 81.163C168.263 81.4015 168.354 81.6285 168.503 81.8159C168.652 82.0033 168.853 82.1429 169.081 82.2174C169.308 82.2919 169.553 82.298 169.784 82.2349C169.945 82.1943 170.097 82.1205 170.229 82.0181C170.36 81.9157 170.469 81.7871 170.548 81.6404C170.627 81.4937 170.675 81.3321 170.688 81.1659C170.701 80.9998 170.68 80.8327 170.625 80.6753Z" fill="#263238"/>
<path d="M175.543 78.0258L175.729 79.3651L176.605 79.1274L176.698 79.4695L175.775 79.713L175.949 80.9247L175.619 81.0174L175.445 79.8057L174.175 80.1478L174.343 81.3595L174.012 81.4465L173.838 80.2348L172.957 80.4725L172.87 80.1304L173.786 79.8869L173.6 78.5476L172.719 78.7795L172.626 78.4433L173.554 78.194L173.38 76.9822L173.716 76.8895L173.885 78.1012L175.161 77.7649L174.987 76.5532L175.317 76.4604L175.491 77.6722L176.361 77.4403L176.454 77.7765L175.543 78.0258ZM175.207 78.1128L173.943 78.4549L174.122 79.7941L175.393 79.4521L175.207 78.1128Z" fill="#263238"/>
<path d="M181.216 79.585L180.45 79.127C180.317 79.3714 180.134 79.5847 179.912 79.7527C179.69 79.9206 179.434 80.0394 179.163 80.101C178.316 80.3329 177.591 80.0488 177.423 79.3937C177.284 78.8835 177.481 78.4255 178.148 77.7529C177.614 77.4341 177.417 77.2079 177.33 76.8775C177.179 76.3267 177.51 75.8397 178.177 75.66C178.295 75.6078 178.423 75.5816 178.553 75.5831C178.682 75.5846 178.809 75.6138 178.926 75.6687C179.044 75.7237 179.147 75.8031 179.231 75.9016C179.315 76.0001 179.377 76.1154 179.412 76.2397C179.528 76.6688 179.348 77.0456 178.757 77.6428L180.271 78.5472C180.343 78.2476 180.367 77.9383 180.34 77.6312H180.723C180.755 78.0001 180.717 78.3717 180.613 78.7269L181.396 79.1966L181.216 79.585ZM177.736 76.7615C177.806 77.0166 177.945 77.1674 178.449 77.463C178.977 76.9355 179.122 76.6688 179.029 76.3557C179.006 76.2791 178.966 76.2083 178.913 76.1478C178.861 76.0872 178.796 76.0382 178.724 76.0039C178.651 75.9696 178.572 75.9506 178.492 75.9483C178.412 75.946 178.332 75.9603 178.258 75.9904C178.17 76.0009 178.085 76.03 178.01 76.0758C177.934 76.1216 177.869 76.1831 177.819 76.2562C177.769 76.3292 177.735 76.4121 177.72 76.4992C177.704 76.5864 177.708 76.6758 177.73 76.7615H177.736ZM180.126 78.9357L178.461 77.9443C177.881 78.524 177.742 78.8545 177.84 79.2371C177.968 79.7068 178.473 79.8981 179.099 79.7299C179.317 79.68 179.521 79.5831 179.697 79.4458C179.874 79.3086 180.018 79.1345 180.12 78.9357H180.126Z" fill="#263238"/>
<path d="M180.694 76.2393C180.679 76.045 180.721 75.8506 180.813 75.6788C180.905 75.5071 181.044 75.3651 181.214 75.2695C181.383 75.1739 181.577 75.1285 181.772 75.1388C181.966 75.1491 182.154 75.2145 182.313 75.3275C182.472 75.4405 182.595 75.5963 182.668 75.7768C182.742 75.9573 182.762 76.1549 182.728 76.3466C182.693 76.5383 182.604 76.7162 182.472 76.8594C182.34 77.0026 182.17 77.1052 181.981 77.1553C181.401 77.3118 180.879 76.9466 180.694 76.2393ZM182.335 75.7986C182.184 75.2189 181.831 74.9754 181.43 75.0855C181.03 75.1957 180.85 75.6015 181.001 76.1581C181.152 76.7147 181.5 76.9872 181.912 76.877C182.324 76.7669 182.486 76.361 182.335 75.7986ZM183.982 74.1347L184.348 74.0361L182.556 79.1497L182.19 79.2483L183.982 74.1347ZM183.89 77.5669C183.832 77.4302 183.803 77.2829 183.806 77.1344C183.808 76.986 183.841 76.8397 183.904 76.7049C183.966 76.5702 184.056 76.4498 184.167 76.3517C184.278 76.2535 184.409 76.1797 184.551 76.1349C185.131 75.9784 185.653 76.3378 185.844 77.0451C185.907 77.181 185.939 77.3288 185.939 77.4784C185.938 77.628 185.905 77.7757 185.841 77.9111C185.778 78.0465 185.685 78.1664 185.571 78.2623C185.456 78.3583 185.321 78.428 185.177 78.4666C185.032 78.5052 184.881 78.5118 184.734 78.4858C184.586 78.4598 184.446 78.4019 184.324 78.3162C184.201 78.2305 184.099 78.119 184.024 77.9896C183.949 77.8602 183.903 77.7159 183.89 77.5669ZM185.537 77.1263C185.386 76.5465 185.032 76.303 184.626 76.4132C184.22 76.5234 184.046 76.9234 184.203 77.4858C184.359 78.0481 184.707 78.309 185.108 78.1989C185.508 78.0887 185.682 77.6887 185.537 77.1089V77.1263Z" fill="#263238"/>
<path d="M170.12 86.7275L167.759 91.5454L167.278 87.1044L170.12 86.7275Z" fill="#9955B9"/>
<g opacity="0.7">
<path d="M170.121 86.7271L167.76 91.5449L167.279 87.1039L170.121 86.7271Z" fill="white"/>
</g>
<path d="M115.821 36.1147L126.487 25.1396L166.258 28.9951L172.684 56.2907L154.095 66.2164L143.336 62.7841L139.033 67.4281L141.747 70.1356L135.518 75.1739L139.033 70.1356L134.48 67.4281L137.241 61.787L118.936 55.3747L115.821 36.1147Z" fill="#9955B9"/>
<g opacity="0.7">
<path d="M115.822 36.1152L126.488 25.1401L166.259 28.9956L172.685 56.2912L154.096 66.2169L143.337 62.7846L139.034 67.4286L141.748 70.1361L135.519 75.1743L139.034 70.1361L134.481 67.4286L137.241 61.7874L118.937 55.3752L115.822 36.1152Z" fill="white"/>
</g>
<path d="M147.762 58.4756C146.229 58.4798 144.711 58.1721 143.302 57.5712C142.547 57.2853 141.873 56.8219 141.335 56.2203C140.936 55.6676 140.679 55.0255 140.586 54.3503C140.493 53.6751 140.567 52.9874 140.802 52.3474H140.628C139.403 52.4931 138.161 52.3563 136.997 51.9474C136.637 52.1445 136.284 52.3185 135.947 52.475C136.199 52.7631 136.419 53.0781 136.603 53.4142C136.782 53.669 136.897 53.9633 136.939 54.2722C136.98 54.581 136.946 54.8953 136.84 55.1883C136.692 55.503 136.449 55.7634 136.145 55.9329C135.842 56.1024 135.492 56.1725 135.147 56.1334C133.813 56.087 131.974 55.055 130.93 54.0346L130.321 54.0926C128.52 54.2559 126.713 53.8395 125.165 52.904C124.185 52.2296 123.366 51.3484 122.764 50.3225C122.163 49.2966 121.795 48.1511 121.685 46.9672C121.49 44.6203 121.964 42.2662 123.054 40.1781C123.355 39.5645 123.694 38.9701 124.069 38.3982C123.557 38.4039 123.046 38.3807 122.538 38.3286C122.366 38.3301 122.196 38.2898 122.044 38.2109C121.891 38.1321 121.76 38.0173 121.662 37.8764C121.441 37.4473 121.726 36.9487 122.387 36.6067C124.497 35.5099 126.672 34.5418 128.9 33.7078C129.248 33.4933 129.608 33.302 129.973 33.1281C131.49 32.3858 133.142 31.9609 134.828 31.8791C136.514 31.7974 138.2 32.0606 139.781 32.6526C140.054 32.7628 140.315 32.8788 140.576 33.0121C142.006 32.5975 143.466 32.2932 144.943 32.1019C148.655 31.548 152.438 31.6936 156.096 32.5309C159.895 33.4701 161.896 35.1051 162.175 37.5227C162.413 39.4881 161.421 41.0013 160.122 42.2536C160.552 42.8612 160.921 43.5099 161.224 44.1901C161.557 44.2548 161.883 44.3519 162.198 44.48C163.709 45.117 164.928 46.2928 165.62 47.7789C166.287 49.1761 166.612 51.2575 165.516 52.8692C164.722 53.9192 163.602 54.6758 162.331 55.0202C160.929 55.497 159.456 55.7323 157.976 55.7159C157.042 55.7374 156.116 55.5388 155.273 55.1362C154.685 54.8006 154.183 54.3332 153.807 53.7709C153.43 53.2085 153.19 52.5664 153.104 51.8952C152.912 52.2928 152.657 52.6569 152.35 52.9736C152.845 53.2562 153.237 53.6903 153.468 54.2121C153.699 54.7338 153.756 55.3158 153.631 55.8725C153.347 56.7827 152.471 57.4958 151.079 57.9248C150.007 58.2741 148.889 58.4598 147.762 58.4756ZM141.312 52.2895C140.912 53.4896 140.86 54.8869 141.701 55.9246C142.187 56.4708 142.801 56.8889 143.487 57.1422C145.857 58.1412 148.503 58.2767 150.963 57.5248C151.822 57.2581 152.906 56.7363 153.208 55.7855C153.313 55.3069 153.255 54.8071 153.045 54.3644C152.836 53.9216 152.485 53.561 152.048 53.3389C150.981 54.3286 149.645 54.982 148.208 55.2173C148.038 55.2626 147.86 55.271 147.686 55.242C147.512 55.213 147.346 55.1473 147.199 55.0492C147.036 54.8889 146.937 54.6757 146.917 54.4481C146.898 54.2206 146.961 53.9937 147.095 53.8085C147.33 53.5002 147.648 53.2649 148.011 53.1301C149.179 52.5084 150.542 52.3609 151.816 52.7185L151.961 52.7765L152.042 52.6895C152.299 52.4679 152.506 52.1951 152.651 51.8885C152.796 51.582 152.875 51.2485 152.883 50.9096C152.825 50.0747 152.077 49.5066 151.282 49.1703C151.253 49.2399 151.224 49.3095 151.19 49.379C150.54 50.7357 149.281 51.8894 147.437 52.8113C146.858 53.1441 146.212 53.3422 145.546 53.391C145.193 53.4024 144.845 53.3165 144.538 53.1426C144.231 52.9687 143.978 52.7137 143.806 52.4054C143.716 52.2247 143.665 52.0273 143.655 51.8257C142.886 52.0335 142.103 52.1885 141.312 52.2895ZM131.533 53.9592C132.502 54.7999 134.01 55.6463 135.164 55.6985C135.417 55.7354 135.676 55.6899 135.902 55.5688C136.127 55.4478 136.308 55.2575 136.417 55.026C136.482 54.7985 136.497 54.5594 136.459 54.3258C136.42 54.0922 136.331 53.87 136.197 53.6751C136.001 53.3279 135.766 53.0049 135.495 52.7127L135.425 52.7475C134.18 53.3034 132.874 53.7102 131.533 53.9592ZM159.797 42.5841C159.281 43.0653 158.724 43.5117 158.19 43.9408C157.657 44.3698 157.193 44.7467 156.758 45.1467C155.018 46.7527 153.985 48.3006 153.631 49.8834C153.26 51.559 153.794 53.8317 155.516 54.7419C156.292 55.1103 157.146 55.2854 158.005 55.2521C159.432 55.2753 160.853 55.0497 162.204 54.5854C163.376 54.2699 164.411 53.5771 165.15 52.6141C166.136 51.1531 165.835 49.2631 165.22 47.976C164.582 46.5937 163.45 45.4998 162.047 44.909C161.859 44.8297 161.665 44.7639 161.467 44.7119C161.554 44.9612 161.635 45.2047 161.699 45.454C162.115 46.7958 162.009 48.2449 161.403 49.5124C161.08 50.1562 160.562 50.6816 159.922 51.0137C159.283 51.3458 158.555 51.4676 157.842 51.3618C157.145 51.182 156.529 50.7745 156.091 50.204C155.652 49.6335 155.418 48.9329 155.424 48.2137C155.447 47.5049 155.65 46.8137 156.015 46.2052C156.379 45.5966 156.892 45.0907 157.506 44.7351C158.469 44.1742 159.587 43.9365 160.696 44.0567C160.436 43.5424 160.136 43.05 159.797 42.5841ZM150.517 52.9794C149.712 53.0113 148.922 53.2087 148.197 53.5592C147.917 53.6614 147.67 53.8378 147.483 54.0694C147.412 54.1571 147.373 54.2666 147.373 54.3795C147.373 54.4925 147.412 54.602 147.483 54.6897C147.678 54.791 147.904 54.8139 148.116 54.7535C149.391 54.5404 150.582 53.9808 151.561 53.1359C151.227 53.0291 150.879 52.9763 150.528 52.9794H150.517ZM122.509 42.9784C122.148 44.2633 122.03 45.6042 122.161 46.9324C122.26 48.0455 122.602 49.1234 123.164 50.09C123.725 51.0566 124.491 51.8885 125.409 52.5272C126.87 53.4085 128.575 53.7986 130.275 53.6403H130.524C130.379 53.464 130.258 53.269 130.165 53.0606C129.924 52.3445 129.847 51.5839 129.938 50.8342H129.637L129.086 50.7879C127.502 50.6487 125.519 50.3125 124.225 48.9326C124.182 48.8883 124.158 48.829 124.158 48.7674C124.158 48.7057 124.182 48.6465 124.225 48.6021C124.247 48.5802 124.273 48.5628 124.301 48.5509C124.329 48.5391 124.36 48.5329 124.391 48.5329C124.421 48.5329 124.452 48.5391 124.48 48.5509C124.509 48.5628 124.534 48.5802 124.556 48.6021C125.716 49.866 127.613 50.1791 129.115 50.3067L129.66 50.353L129.967 50.382C129.967 50.3298 129.967 50.2777 129.967 50.2313L129.996 49.9356C130.031 49.5472 130.054 49.1529 130.072 48.7761C129.358 48.7081 128.691 48.3873 128.193 47.8716C127.456 47.0657 127.253 45.8308 127.584 44.2017C127.694 43.6602 127.849 43.1288 128.048 42.6131C127.534 42.9146 127.004 43.1856 126.458 43.4248C125.673 43.821 124.796 44.003 123.918 43.9524C123.667 43.9343 123.423 43.8647 123.2 43.748C122.978 43.6313 122.782 43.4699 122.625 43.274C122.579 43.1796 122.544 43.0805 122.52 42.9784H122.509ZM130.408 50.8516C130.323 51.5286 130.391 52.2159 130.605 52.8634C130.725 53.1206 130.89 53.3543 131.093 53.5534C132.479 53.3281 133.83 52.9227 135.112 52.3474C133.859 51.2749 132.154 51.0198 130.42 50.8516H130.408ZM144.044 51.7097C144.044 51.8808 144.083 52.0495 144.16 52.2025C144.301 52.4316 144.5 52.6189 144.738 52.7453C144.976 52.8717 145.242 52.9325 145.511 52.9214C146.101 52.8791 146.674 52.7048 147.188 52.4112C148.928 51.5358 150.128 50.4516 150.731 49.1935L150.801 49.0428L150.644 49.0022L150.221 48.921C148.854 49.805 147.393 50.5342 145.865 51.0951C145.25 51.3329 144.647 51.5358 144.056 51.7097H144.044ZM130.449 50.382C132.345 50.556 134.219 50.8516 135.593 52.1213C135.872 51.9938 136.173 51.8546 136.458 51.6981L136.353 51.6343C135.599 51.1763 134.932 50.2487 135.269 49.3152C135.416 48.9355 135.646 48.593 135.941 48.3122C137.237 47.0633 138.764 46.0787 140.436 45.4134V45.3148C140.389 45.0547 140.321 44.7988 140.233 44.5495C139.458 45.0595 138.562 45.3573 137.635 45.4134C137.348 45.4119 137.061 45.3769 136.782 45.309C135.332 46.8222 133.674 48.2833 131.562 48.6833C131.249 48.7457 130.93 48.7748 130.611 48.7703C130.611 49.1645 130.571 49.5588 130.536 49.9298L130.507 50.2255L130.449 50.382ZM137.513 51.6575C138.511 51.9243 139.549 52.0049 140.576 51.8952L140.953 51.8604C141.083 51.5203 141.24 51.1907 141.422 50.8748C141.907 50.0806 142.452 49.3247 143.052 48.6137C143.618 47.9459 144.135 47.2387 144.601 46.4976C145.006 45.8102 145.316 45.071 145.523 44.3002C144.902 44.4278 144.299 44.5959 143.783 44.7467H143.673C142.755 44.9991 141.852 45.305 140.97 45.6627C141.025 46.5149 140.899 47.3692 140.599 48.1688C140.299 48.9685 139.832 49.6952 139.23 50.3009C138.718 50.82 138.146 51.2755 137.525 51.6575H137.513ZM146.033 44.2017C145.817 45.0929 145.469 45.9468 145.001 46.7353C144.528 47.4985 143.999 48.2252 143.418 48.9094C142.834 49.6018 142.303 50.3362 141.828 51.1067C141.702 51.3282 141.587 51.5566 141.486 51.7909C142.208 51.6856 142.923 51.5345 143.626 51.3387C143.871 50.548 144.408 49.8803 145.129 49.4718C146.62 48.5612 148.379 48.1926 150.111 48.4282C150.465 48.1905 150.801 47.9412 151.114 47.6861C151.174 47.1645 151.109 46.6361 150.923 46.1449C150.738 45.6538 150.437 45.2141 150.047 44.8626C148.98 43.9698 147.489 43.9582 146.045 44.2017H146.033ZM140.483 45.883C138.927 46.5306 137.508 47.467 136.301 48.6427C136.053 48.8762 135.855 49.1585 135.721 49.4718C135.489 50.1443 135.988 50.8748 136.608 51.2517C136.724 51.3223 136.844 51.3862 136.968 51.443C137.674 51.0469 138.322 50.5552 138.894 49.982C139.424 49.443 139.84 48.8016 140.115 48.097C140.391 47.3923 140.52 46.639 140.494 45.883H140.483ZM149.084 48.8282C147.776 48.8285 146.494 49.1896 145.378 49.8718C144.855 50.1827 144.432 50.6376 144.16 51.1821C144.659 51.0314 145.175 50.8574 145.697 50.6545C147.012 50.171 148.278 49.5634 149.479 48.8398L149.084 48.8282ZM160.139 44.5553C159.301 44.5588 158.479 44.7892 157.761 45.2221C157.219 45.5326 156.765 45.975 156.441 46.5083C156.116 47.0415 155.932 47.6481 155.905 48.2717C155.899 48.8822 156.096 49.4776 156.465 49.9636C156.835 50.4497 157.356 50.7989 157.947 50.956C158.561 51.0349 159.184 50.9217 159.732 50.6321C160.279 50.3425 160.723 49.8906 161.003 49.3384C161.554 48.172 161.645 46.841 161.258 45.6105C161.169 45.2791 161.059 44.9538 160.928 44.6365C160.671 44.5881 160.411 44.561 160.151 44.5553H160.139ZM151.404 48.7471C152.114 48.986 152.716 49.4688 153.104 50.1095C153.104 49.9994 153.138 49.8892 153.162 49.7791C153.539 48.1035 154.606 46.4744 156.433 44.7988C156.874 44.393 157.367 43.9988 157.883 43.5755C158.399 43.1523 158.996 42.6769 159.513 42.2073C159.18 41.7653 158.822 41.3433 158.44 40.9434C155.592 37.9344 150.714 35.5689 146.26 37.0705C145.999 37.1538 145.743 37.2526 145.494 37.3662C147.758 37.4851 149.982 38.0114 152.06 38.92C153.089 39.2939 153.965 39.9971 154.554 40.9202C155.209 42.1609 154.925 43.8828 153.788 45.5236C153.167 46.4177 152.428 47.2233 151.59 47.918C151.557 48.1991 151.499 48.4767 151.416 48.7471H151.404ZM150.76 48.55L150.958 48.5963C150.958 48.521 150.998 48.4398 151.016 48.3586L150.76 48.55ZM130.576 48.2833C130.862 48.2833 131.148 48.2581 131.429 48.2079C133.366 47.8426 134.909 46.5208 136.278 45.1177C135.973 44.9798 135.699 44.7827 135.472 44.5379C135.096 44.0875 134.859 43.5375 134.79 42.9549C134.721 42.3723 134.823 41.7822 135.083 41.2564C135.294 40.8074 135.581 40.3976 135.93 40.0447C134.695 39.3585 133.259 39.1248 131.87 39.3838C131.204 40.1474 130.466 40.8445 129.666 41.4652C129.878 42.0066 130.035 42.5679 130.136 43.1407C130.472 44.8335 130.624 46.5578 130.588 48.2833H130.576ZM128.761 42.1145C128.443 42.7913 128.208 43.5037 128.059 44.2365C127.763 45.7091 127.926 46.8048 128.558 47.4948C128.968 47.9186 129.514 48.1853 130.101 48.2485C130.137 46.5666 129.995 44.8855 129.677 43.2335C129.587 42.7319 129.453 42.2392 129.277 41.7608C129.126 41.8826 128.952 42.0043 128.761 42.1145ZM147.495 43.5929C148.522 43.5479 149.532 43.8707 150.343 44.5031C150.734 44.8516 151.047 45.2785 151.262 45.756C151.476 46.2335 151.588 46.7509 151.59 47.2745C152.266 46.6763 152.868 45.9989 153.382 45.2569C154.414 43.761 154.687 42.2247 154.113 41.1347C153.569 40.3105 152.774 39.684 151.845 39.349C149.795 38.4546 147.6 37.9399 145.366 37.83C145.713 38.5348 145.968 39.281 146.126 40.0505C146.364 41.2584 146.364 42.501 146.126 43.7089C146.584 43.6343 147.048 43.5955 147.512 43.5929H147.495ZM140.616 44.2828C140.728 44.584 140.814 44.8944 140.871 45.2105C141.735 44.8638 142.618 44.5676 143.516 44.3234H143.626C144.241 44.1553 144.931 43.964 145.639 43.8248C146.087 41.796 145.802 39.674 144.833 37.8358H144.583C144.003 38.1596 143.45 38.5299 142.93 38.9432C141.675 39.9775 140.51 41.1181 139.45 42.3522C139.834 42.8195 140.159 43.3315 140.419 43.877C141.642 43.1506 142.587 42.0364 143.104 40.7115C143.127 40.6534 143.17 40.606 143.226 40.579C143.282 40.5521 143.347 40.5476 143.406 40.5665C143.435 40.5763 143.462 40.5917 143.485 40.6119C143.508 40.6321 143.527 40.6567 143.54 40.6842C143.554 40.7116 143.561 40.7415 143.563 40.7721C143.565 40.8026 143.561 40.8333 143.551 40.8622C142.995 42.2933 141.973 43.496 140.651 44.277L140.616 44.2828ZM137.136 44.8916C137.292 44.9123 137.449 44.9239 137.606 44.9264C138.472 44.8655 139.308 44.5797 140.03 44.0973C139.794 43.5892 139.496 43.1121 139.143 42.6769L138.998 42.845C138.598 43.2856 138.203 43.7321 137.803 44.1669L137.664 44.3234L137.136 44.8916ZM136.359 40.2534C136.006 40.584 135.716 40.9772 135.506 41.413C135.283 41.8526 135.193 42.3476 135.246 42.8377C135.3 43.3277 135.495 43.7916 135.808 44.1727C136.034 44.4105 136.312 44.593 136.62 44.7061C136.858 44.4568 137.09 44.2017 137.316 43.9582L137.455 43.8016C137.855 43.3668 138.25 42.9262 138.615 42.4855L138.812 42.2652C138.432 41.8488 138.021 41.4612 137.583 41.1057C137.203 40.8001 136.799 40.5248 136.376 40.2824L136.359 40.2534ZM126.725 39.7606C125.651 39.8034 124.617 40.1804 123.767 40.839C123.187 41.297 122.543 42.2478 123.025 42.9146C123.145 43.0547 123.292 43.1694 123.458 43.252C123.623 43.3346 123.803 43.3835 123.988 43.3958C124.79 43.4389 125.59 43.271 126.308 42.9088C127.044 42.5813 127.752 42.1935 128.425 41.7492C128.567 41.4648 128.728 41.1898 128.906 40.926C128.645 40.4871 128.254 40.1405 127.787 39.9346C127.452 39.8178 127.097 39.7685 126.743 39.7896L126.725 39.7606ZM136.73 39.9288C137.136 40.1744 137.524 40.4495 137.89 40.752C138.332 41.1074 138.747 41.495 139.131 41.9116C140.19 40.6747 141.355 39.5321 142.611 38.4967C142.948 38.23 143.29 37.9865 143.632 37.7662C141.54 37.7719 139.481 38.2894 137.635 39.2736C137.321 39.4773 137.024 39.7061 136.748 39.9577L136.73 39.9288ZM149.119 36.1081C152.831 36.1081 156.456 38.1431 158.776 40.5897C159.155 40.9904 159.513 41.4103 159.849 41.8478C161.055 40.6883 161.925 39.3142 161.717 37.5575C161.45 35.3544 159.576 33.8528 155.992 32.9599C152.388 32.1382 148.663 31.9966 145.007 32.5425C143.713 32.7114 142.432 32.9671 141.173 33.3078C142.751 34.228 144.068 35.535 145.001 37.1053C145.367 36.9304 145.742 36.7774 146.126 36.6473C147.095 36.3158 148.112 36.1435 149.136 36.1371L149.119 36.1081ZM129.445 40.9723C129.947 40.5819 130.422 40.1577 130.866 39.7027C130.314 40.0342 129.836 40.4764 129.463 41.0013L129.445 40.9723ZM126.737 39.2968C127.152 39.2911 127.564 39.368 127.949 39.5229C128.451 39.7386 128.88 40.095 129.184 40.5491C129.606 40.0325 130.127 39.6048 130.716 39.291C131.001 39.1423 131.303 39.0256 131.615 38.9432C132.061 38.4143 132.472 37.8565 132.844 37.2734C133.084 36.8933 133.278 36.4867 133.424 36.0617L132.2 36.5371C129.799 37.539 127.254 38.1573 124.66 38.3692C124.223 39.0075 123.836 39.6781 123.5 40.3752L123.431 40.5201L123.495 40.468C124.435 39.756 125.575 39.3566 126.754 39.3258L126.737 39.2968ZM132.925 38.7692C134.103 38.8024 135.256 39.1144 136.289 39.6795C136.652 39.3811 137.04 39.1154 137.449 38.8852C139.377 37.8565 141.528 37.317 143.713 37.314C143.974 37.314 144.23 37.314 144.491 37.314L144.566 37.2734C143.594 35.676 142.207 34.3717 140.552 33.4991C138.366 34.1369 136.26 34.9659 134.08 35.8182L133.993 35.853C133.84 36.446 133.595 37.0114 133.268 37.5285C132.983 37.9691 132.688 38.3982 132.357 38.8098C132.552 38.7946 132.747 38.7908 132.943 38.7982L132.925 38.7692ZM127.253 34.8442C125.675 35.4993 124.121 36.224 122.613 37.0067C122.34 37.1517 121.975 37.4357 122.085 37.6503C122.195 37.8648 122.41 37.83 122.59 37.8532C123.191 37.9109 123.796 37.9284 124.399 37.9054C125.216 36.7706 126.182 35.7508 127.27 34.8732L127.253 34.8442ZM129.109 34.1137C127.509 35.0899 126.114 36.3678 125.003 37.8764C127.42 37.6292 129.788 37.0295 132.032 36.0965L133.558 35.5167C133.625 35.2229 133.613 34.9165 133.522 34.6291C133.431 34.3417 133.265 34.0837 133.041 33.8818C132.171 33.1396 130.721 33.5339 129.735 33.8818L129.109 34.1137ZM131.742 32.9541C132.325 32.9311 132.896 33.1206 133.349 33.4875C133.605 33.7063 133.802 33.9848 133.925 34.2983C134.047 34.6118 134.09 34.9506 134.051 35.2848C136.017 34.5079 137.931 33.7658 139.903 33.1628L139.613 33.0469C137.002 32.0553 134.124 32.0244 131.493 32.9599L131.742 32.9541Z" fill="#263238"/>
<path d="M76.0273 139.853L80.6383 142.595L78.6083 138.606L76.0273 139.853Z" fill="#9955B9"/>
<g opacity="0.7">
<path d="M76.0273 139.853L80.6383 142.595L78.6083 138.606L76.0273 139.853Z" fill="white"/>
</g>
<path d="M78.7092 126.796L59.3517 130.274C56.7822 130.736 55.0736 133.193 55.5355 135.761L56.1891 139.396C56.651 141.964 59.1083 143.672 61.6778 143.211L81.0354 139.732C83.6049 139.271 85.3134 136.814 84.8516 134.246L84.1979 130.611C83.7361 128.043 81.2787 126.335 78.7092 126.796Z" fill="#9955B9"/>
<g opacity="0.7">
<path d="M78.7102 126.797L59.3526 130.275C56.7832 130.737 55.0746 133.193 55.5365 135.761L56.1901 139.396C56.6519 141.965 59.1093 143.673 61.6788 143.211L81.0364 139.733C83.6058 139.271 85.3144 136.815 84.8525 134.246L84.1989 130.611C83.737 128.043 81.2797 126.335 78.7102 126.797Z" fill="white"/>
</g>
<path d="M61.0635 136.31C61.0417 136.205 61.0413 136.096 61.0624 135.99C61.0834 135.884 61.1255 135.784 61.186 135.695C61.2466 135.605 61.3245 135.529 61.415 135.471C61.5055 135.412 61.6069 135.372 61.7131 135.353C61.8202 135.333 61.9302 135.335 62.0367 135.358C62.1433 135.38 62.2442 135.424 62.3338 135.486C62.4233 135.548 62.4997 135.627 62.5584 135.719C62.6171 135.811 62.6571 135.913 62.6759 136.02C62.7166 136.238 62.6692 136.463 62.5442 136.646C62.4191 136.828 62.2266 136.954 62.0089 136.995C61.9018 137.013 61.7921 137.01 61.6863 136.985C61.5805 136.96 61.4807 136.915 61.3926 136.851C61.3046 136.787 61.2302 136.707 61.1737 136.614C61.1172 136.521 61.0797 136.418 61.0635 136.31Z" fill="#263238"/>
<path d="M65.0135 135.603C64.9917 135.497 64.9913 135.388 65.0123 135.283C65.0334 135.177 65.0754 135.076 65.136 134.987C65.1966 134.898 65.2744 134.822 65.365 134.763C65.4555 134.704 65.5569 134.665 65.6631 134.646C65.7702 134.626 65.8801 134.627 65.9867 134.65C66.0932 134.673 66.1942 134.716 66.2837 134.778C66.3733 134.84 66.4496 134.92 66.5084 135.011C66.5671 135.103 66.607 135.206 66.6259 135.313C66.6635 135.53 66.6148 135.754 66.4902 135.936C66.3657 136.118 66.175 136.244 65.9589 136.287C65.8518 136.305 65.7424 136.301 65.6369 136.276C65.5314 136.251 65.4319 136.205 65.344 136.141C65.2562 136.078 65.1818 135.998 65.1251 135.905C65.0683 135.813 65.0304 135.71 65.0135 135.603Z" fill="#263238"/>
<path d="M68.9574 134.891C68.9355 134.785 68.9348 134.676 68.9554 134.57C68.976 134.464 69.0175 134.364 69.0774 134.274C69.1374 134.185 69.2145 134.108 69.3045 134.048C69.3944 133.989 69.4952 133.948 69.6012 133.928C69.7642 133.894 69.9336 133.91 70.0875 133.974C70.2414 134.037 70.3728 134.145 70.465 134.284C70.5571 134.422 70.6057 134.585 70.6045 134.752C70.6034 134.918 70.5525 135.08 70.4584 135.218C70.3644 135.355 70.2314 135.461 70.0767 135.522C69.9219 135.584 69.7523 135.597 69.5898 135.562C69.4272 135.526 69.279 135.442 69.1643 135.322C69.0496 135.201 68.9735 135.049 68.9458 134.885L68.9574 134.891Z" fill="#263238"/>
<path d="M72.9072 134.183C72.8882 134.077 72.8902 133.968 72.9131 133.863C72.936 133.758 72.9794 133.659 73.0408 133.57C73.1022 133.482 73.1804 133.407 73.2709 133.349C73.3615 133.29 73.4626 133.251 73.5684 133.232C73.6743 133.213 73.7829 133.215 73.888 133.238C73.9931 133.26 74.0926 133.304 74.181 133.365C74.2693 133.427 74.3447 133.505 74.4028 133.595C74.4609 133.686 74.5006 133.787 74.5196 133.893C74.5603 134.111 74.5129 134.335 74.3879 134.518C74.2628 134.701 74.0703 134.826 73.8526 134.867C73.7455 134.885 73.6358 134.882 73.53 134.857C73.4242 134.833 73.3244 134.787 73.2363 134.723C73.1483 134.66 73.0739 134.579 73.0174 134.486C72.9609 134.393 72.9234 134.29 72.9072 134.183Z" fill="#263238"/>
<path d="M76.857 133.476C76.8352 133.37 76.8348 133.261 76.8558 133.156C76.8769 133.05 76.9189 132.949 76.9795 132.86C77.0401 132.771 77.1179 132.695 77.2085 132.636C77.299 132.578 77.4004 132.538 77.5066 132.519C77.6137 132.499 77.7237 132.5 77.8302 132.523C77.9367 132.546 78.0377 132.589 78.1272 132.651C78.2168 132.714 78.2931 132.793 78.3519 132.884C78.4106 132.976 78.4505 133.079 78.4694 133.186C78.507 133.403 78.4583 133.627 78.3337 133.809C78.2092 133.991 78.0186 134.117 77.8024 134.16C77.6953 134.178 77.5859 134.174 77.4804 134.149C77.3749 134.124 77.2754 134.078 77.1875 134.015C77.0997 133.951 77.0253 133.871 76.9686 133.778C76.9118 133.686 76.8739 133.583 76.857 133.476Z" fill="#263238"/>
<path d="M129.92 79.7302C129.92 79.7302 124.427 78.5706 119.596 81.2492C114.765 83.9277 115.136 97.0943 111.546 98.306C107.955 99.5177 106.964 101.008 107.706 103.17C108.448 105.333 104.847 105.71 104.481 106.823C104.222 107.675 104.017 108.542 103.866 109.42C103.866 109.42 107.12 108.22 108.941 111.16C110.763 114.099 114.382 118.343 118.221 118.215C122.061 118.088 125.802 120.198 128.946 121.497C132.089 122.796 136.433 118.018 139.281 116.209C142.129 114.4 142.1 116.789 145.081 116.209C148.062 115.63 148.683 113.386 148.683 113.386C148.683 113.386 145.708 111.351 147.691 107.542C149.675 103.733 143.341 99.9642 145.081 95.0303C146.821 90.0965 140.981 80.8665 129.92 79.7302Z" fill="#263238"/>
<path d="M151.026 111.698H150.98C150.087 111.522 149.285 111.036 148.718 110.324C148.56 110.075 148.456 109.796 148.412 109.505C148.368 109.213 148.385 108.916 148.463 108.631C148.526 108.371 148.59 108.115 148.66 107.866C149.147 106.011 149.53 104.55 147.169 102.271C144.983 100.173 144.971 98.7116 144.948 96.2939C144.948 95.5518 144.948 94.7112 144.861 93.7255C144.856 93.664 144.876 93.6032 144.916 93.5565C144.957 93.5097 145.014 93.4809 145.075 93.4762C145.137 93.4716 145.198 93.4916 145.245 93.5319C145.291 93.5721 145.32 93.6293 145.325 93.6908C145.406 94.688 145.412 95.5402 145.418 96.2881C145.418 98.6652 145.452 99.9697 147.494 101.935C150.058 104.399 149.617 106.063 149.112 107.988L148.921 108.736C148.859 108.959 148.845 109.193 148.878 109.422C148.91 109.652 148.99 109.872 149.112 110.069C149.617 110.665 150.307 111.073 151.073 111.229C151.103 111.234 151.131 111.246 151.157 111.263C151.183 111.279 151.205 111.301 151.222 111.326C151.239 111.352 151.252 111.38 151.258 111.41C151.264 111.44 151.264 111.471 151.258 111.501C151.249 111.556 151.22 111.606 151.178 111.642C151.135 111.678 151.082 111.698 151.026 111.698Z" fill="#263238"/>
<path d="M102.933 106.591C102.874 106.595 102.817 106.576 102.772 106.539C102.726 106.502 102.697 106.45 102.689 106.392C102.681 106.334 102.695 106.275 102.728 106.227C102.762 106.179 102.812 106.146 102.869 106.133C102.869 106.133 104.945 105.554 105.589 104.394C105.69 104.22 105.752 104.027 105.772 103.827C105.792 103.627 105.769 103.425 105.705 103.235C104.974 100.782 106.674 98.8515 110.751 97.489C113.68 96.515 113.988 93.9176 114.341 90.9086C114.453 89.7392 114.635 88.5775 114.887 87.43C116.047 82.4961 118.987 80.235 123.587 80.7047C123.617 80.7075 123.647 80.7165 123.674 80.7309C123.701 80.7453 123.725 80.7649 123.744 80.7887C123.764 80.8124 123.778 80.8397 123.787 80.8691C123.796 80.8985 123.799 80.9293 123.795 80.9598C123.793 80.9908 123.785 81.021 123.771 81.0487C123.757 81.0765 123.737 81.1011 123.713 81.1211C123.689 81.1411 123.662 81.1561 123.632 81.1652C123.602 81.1744 123.571 81.1774 123.54 81.1743C119.161 80.722 116.482 82.8034 115.356 87.5517C115.111 88.6787 114.931 89.8189 114.817 90.9666C114.463 93.9988 114.127 96.8629 110.914 97.9238C107.12 99.1935 105.525 100.927 106.169 103.084C106.248 103.331 106.274 103.593 106.247 103.851C106.22 104.109 106.14 104.359 106.013 104.585C105.27 105.925 103.113 106.539 103.008 106.568L102.933 106.591Z" fill="#263238"/>
<path d="M195.611 152.48C193.796 149.556 191.833 146.727 189.729 144.004C187.624 141.301 184.661 139.395 181.327 138.6C177.994 137.805 174.489 138.17 171.39 139.633C170.23 140.177 169.087 140.74 167.962 141.32C142.071 154.417 120.599 173.584 120.599 173.584L121.423 175.172C103.831 181.602 87.6669 200.532 97.9097 206.932C109.8 214.359 122.989 210.44 136.085 203.413L136.149 203.378L136.311 203.291C138.434 202.167 155.208 192.739 177.642 167.003C187.032 178.553 200.529 188.084 210.174 201.135C211.624 201.558 219.797 201.819 219.53 200.456C219.541 200.445 208.423 172.871 195.611 152.48Z" fill="#263238"/>
<path opacity="0.2" d="M219.542 200.444C219.808 201.807 211.636 201.54 210.186 201.123C202.246 190.368 191.684 181.99 182.961 172.946C181.093 171.004 179.307 169.032 177.654 166.992C155.22 192.728 138.446 202.155 136.323 203.28L136.161 203.367L136.097 203.401C125.361 209.158 114.562 212.828 104.475 209.872C102.163 209.192 99.9561 208.197 97.9156 206.915C87.6728 200.537 103.832 181.585 121.435 175.155L120.611 173.566C120.611 173.566 123.459 171.033 128.319 167.189C136.752 160.487 151.276 149.796 167.591 141.517L167.974 141.319C169.134 140.74 170.247 140.16 171.402 139.627C174.5 138.166 178.005 137.803 181.337 138.599C184.669 139.395 187.631 141.301 189.735 144.004C191.841 146.725 193.802 149.554 195.611 152.48C208.423 172.871 219.542 200.444 219.542 200.444Z" fill="white"/>
<path opacity="0.2" d="M182.961 172.945C181.094 171.003 179.307 169.032 177.654 166.991C155.22 192.727 138.446 202.154 136.323 203.279L136.161 203.366L136.097 203.401C125.361 209.158 114.562 212.828 104.476 209.871C105.589 200.2 116.006 182.784 128.308 167.159C136.741 160.457 151.264 149.766 167.58 141.487C170.938 146.461 175.966 155.726 182.961 172.945Z" fill="black"/>
<path d="M150.133 89.2851L146.479 81.2495L140.052 85.5224C140.052 85.5224 141.792 91.4999 146.937 91.9289L150.133 89.2851Z" fill="#EBB376"/>
<path d="M141.497 77.417L137.471 81.7479L140.052 85.5222L146.479 81.2493L141.497 77.417Z" fill="#EBB376"/>
<path d="M139.101 121.938C146.641 118.007 154.181 113.572 160.219 107.571L159.639 108.388C159.549 108.556 159.492 108.739 159.471 108.928C159.303 107.188 156.385 103.194 154.535 100.961C151.577 97.3205 148.207 93.7781 144.954 90.3691C144.523 89.9094 144.273 89.309 144.251 88.6794C144.229 88.0498 144.437 87.4335 144.835 86.945C145.233 86.4566 145.794 86.1289 146.416 86.0229C147.037 85.917 147.676 86.0398 148.213 86.3687C150.394 87.7195 152.401 89.1574 154.413 90.6822C160.15 95.1986 173.194 105.629 167.284 113.821C161.06 121.242 153.004 126.75 144.397 130.994L143.492 131.411C142.235 131.993 140.799 132.052 139.498 131.575C138.198 131.099 137.14 130.125 136.558 128.869C135.976 127.612 135.917 126.176 136.394 124.877C136.871 123.577 137.845 122.52 139.101 121.938Z" fill="#E9B376"/>
<path d="M149.93 131.151C147.204 132.68 144.397 134.058 141.52 135.279C138.73 136.438 135.894 137.349 134.148 137.151L133.765 135.818L128.934 119.132C128.934 119.132 137.39 120.292 149.298 115.074C149.309 115.097 152.72 122.727 149.93 131.151Z" fill="#9955B9"/>
<path opacity="0.2" d="M141.52 135.278C138.73 136.438 135.894 137.348 134.148 137.151L133.766 135.817C134.346 133.11 135.859 129.95 138.806 126.68C140.567 129.202 141.514 132.202 141.52 135.278Z" fill="black"/>
<path d="M96.5353 126.871C95.5435 130.112 94.4589 132.489 92.7827 140.415C91.2399 147.088 89.9175 153.715 87.9165 164.8L121.18 173.868C123.065 164.319 127.067 153.947 138.788 134.501C141.509 129.991 145.748 121.543 140.952 119.7C139.67 119.207 132.252 121.63 130.842 121.166C125.338 119.381 120.814 117.954 115.762 117.05C114.08 116.754 112.323 116.47 110.635 116.279C104.516 115.49 98.3159 121.062 96.5353 126.871Z" fill="#9955B9"/>
<path d="M112.41 114.511C112.41 114.511 114.573 113.879 119.341 114.064C126.301 114.331 131.353 122.048 131.353 122.048C131.353 122.048 132.095 128.796 129.497 133.22L124.979 128.796L118.784 132.82C118.784 132.82 111.296 120.146 112.41 114.511Z" fill="#9955B9"/>
<path opacity="0.7" d="M112.41 114.511C112.41 114.511 114.573 113.879 119.341 114.064C126.301 114.331 131.353 122.048 131.353 122.048C131.353 122.048 132.095 128.796 129.497 133.22L124.979 128.796L118.784 132.82C118.784 132.82 111.296 120.146 112.41 114.511Z" fill="white"/>
<path d="M122.247 102.098C121.632 106.736 119.759 114.899 115.542 116.261C115.542 116.261 117.897 122.297 124.979 127.683C128.459 125.057 128.128 120.563 128.128 120.563C128.128 120.563 125.535 117.467 128.528 112.968L122.247 102.098Z" fill="#EBB376"/>
<path opacity="0.1" d="M122.247 102.098C121.632 106.736 119.759 114.899 115.542 116.261C115.542 116.261 117.897 122.297 124.979 127.683C128.459 125.057 128.128 120.563 128.128 120.563C128.128 120.563 125.535 117.467 128.528 112.968L122.247 102.098Z" fill="black"/>
<path d="M122.52 91.1231C120.542 99.1529 119.538 102.504 122.148 107.971C126.075 116.204 136.068 117.346 140.355 110.18C144.2 103.733 146.787 91.6796 140.268 85.7718C133.847 79.9451 124.497 83.0874 122.52 91.1231Z" fill="#EBB376"/>
<path d="M140.749 99.7202L142.407 99.8188C142.407 99.8188 141.265 100.787 140.749 99.7202Z" fill="#263238"/>
<path d="M136.683 99.9409C136.683 99.9409 136.921 103.205 137.698 105.031C136.619 105.542 135.308 104.643 135.308 104.643L136.683 99.9409Z" fill="#D58745"/>
<path d="M131.179 103.738C130.864 103.515 130.53 103.321 130.181 103.158C130.157 103.147 130.132 103.141 130.105 103.141C130.079 103.14 130.053 103.145 130.029 103.156C130.005 103.166 129.983 103.182 129.965 103.201C129.948 103.22 129.934 103.243 129.926 103.268C129.908 103.32 129.91 103.377 129.931 103.427C129.953 103.477 129.992 103.518 130.042 103.541C130.834 103.888 131.538 104.409 132.1 105.065C132.662 105.722 133.069 106.497 133.29 107.333C133.299 107.386 133.328 107.433 133.371 107.465C133.415 107.496 133.469 107.509 133.522 107.501C133.548 107.495 133.572 107.485 133.594 107.47C133.615 107.455 133.633 107.436 133.647 107.413C133.661 107.391 133.671 107.367 133.675 107.341C133.68 107.315 133.679 107.288 133.673 107.263C133.303 105.822 132.415 104.567 131.179 103.738Z" fill="#263238"/>
<path d="M135.679 93.7024C135.626 93.698 135.572 93.7056 135.522 93.7246C135.471 93.7437 135.426 93.7738 135.389 93.8126C135.048 94.1676 134.624 94.4324 134.155 94.5832C133.687 94.734 133.188 94.7662 132.704 94.6768C132.654 94.6631 132.601 94.66 132.55 94.6678C132.499 94.6756 132.45 94.694 132.406 94.7218C132.362 94.7497 132.325 94.7864 132.296 94.8296C132.268 94.8728 132.248 94.9215 132.24 94.9726C132.222 95.0806 132.245 95.1913 132.306 95.2826C132.366 95.374 132.458 95.4393 132.564 95.4656C133.175 95.5922 133.808 95.5617 134.403 95.3771C134.998 95.1925 135.537 94.8597 135.969 94.41C136.044 94.3322 136.086 94.2282 136.086 94.12C136.086 94.0118 136.044 93.9079 135.969 93.83C135.892 93.7525 135.788 93.707 135.679 93.7024Z" fill="#263238"/>
<path d="M141.247 95.0828C141.202 95.0626 141.152 95.0522 141.102 95.0522C141.052 95.0522 141.003 95.0626 140.957 95.0828C140.858 95.1217 140.777 95.1983 140.734 95.296C140.691 95.3937 140.687 95.5046 140.725 95.6046C140.92 96.228 141.255 96.7981 141.706 97.2708C142.156 97.7434 142.71 98.1057 143.324 98.3295C143.373 98.3451 143.426 98.35 143.477 98.3439C143.529 98.3377 143.578 98.3206 143.623 98.2937C143.667 98.2668 143.706 98.2308 143.735 98.188C143.764 98.1451 143.784 98.0965 143.793 98.0454C143.816 97.9388 143.798 97.8278 143.744 97.7335C143.689 97.6393 143.601 97.5687 143.498 97.5352C143.014 97.3513 142.58 97.0592 142.227 96.6813C141.874 96.3035 141.612 95.8499 141.462 95.3553C141.446 95.2977 141.419 95.2439 141.383 95.197C141.346 95.1502 141.3 95.1113 141.247 95.0828Z" fill="#263238"/>
<path d="M140.749 99.7202C140.749 99.7202 140.169 100.88 138.817 99.7666C138.817 99.7666 139.647 101.768 141.294 100.202L140.749 99.7202Z" fill="#263238"/>
<path d="M132.612 97.7212L134.27 97.8198C134.27 97.8198 133.122 98.7826 132.612 97.7212Z" fill="#263238"/>
<path d="M132.611 97.7212C132.611 97.7212 131.997 98.8812 130.68 97.7618C130.68 97.7618 131.504 99.7686 133.157 98.1968L132.611 97.7212Z" fill="#263238"/>
<path d="M122.49 84.1422C122.49 84.1422 127.965 74.8659 139.606 80.3157C151.246 85.7656 145.406 97.8074 145.406 97.8074L143.045 96.242L143.115 91.6386C142.279 93.1239 140.915 94.2397 139.293 94.7636C139.293 94.7636 141.763 92.9721 142.61 90.9719C142.61 90.9719 140.366 93.5519 137.564 93.6215L131.619 92.2184C131.619 92.2184 134.571 91.227 136.033 89.6326C136.033 89.6326 130.854 92.3286 126.672 92.7982L122.38 97.935L118.21 94.236C118.21 94.236 118.088 84.9075 122.49 84.1422Z" fill="#263238"/>
<path d="M117.972 96.6538C118.131 97.5092 118.457 98.3249 118.932 99.0541C119.406 99.7833 120.02 100.412 120.738 100.903C122.623 102.133 124.218 100.399 124.218 98.0916C124.218 96.0102 123.256 92.8737 121.11 92.5838C118.964 92.2939 117.548 94.4622 117.972 96.6538Z" fill="#EBB376"/>
<path opacity="0.1" d="M130.077 114.661C126.921 113.948 123.923 111.675 122.148 107.97C121.004 105.76 120.469 103.284 120.599 100.799C120.589 100.796 120.579 100.791 120.571 100.784C120.563 100.777 120.557 100.768 120.553 100.758C120.843 97.9345 121.087 94.9197 121.133 92.5832C121.471 92.6295 121.792 92.7546 122.073 92.9485C122.218 92.3687 122.368 91.7541 122.531 91.1164C122.839 89.8286 123.373 88.6056 124.108 87.5044C124.98 87.6994 125.826 87.9992 126.626 88.3972C126.626 88.3972 131.793 102.561 130.077 114.661Z" fill="black"/>
<path opacity="0.2" d="M118.72 124.929C118.72 124.929 109.898 138.734 98.1011 133.22C98.1011 133.22 104.696 120.285 118.72 124.929Z" fill="black"/>
<path d="M105.954 116.273C110.82 115.978 116.394 116.03 120.907 114.441C120.608 114.674 120.355 114.959 120.158 115.282C120.115 115.353 120.079 115.429 120.054 115.508C120.405 114.47 120.627 113.394 120.715 112.302C121.446 105.594 121.429 95.4886 121.637 88.6474C121.653 88.0123 121.901 87.4049 122.334 86.9397C122.766 86.4744 123.354 86.1833 123.987 86.1213C124.619 86.0593 125.252 86.2306 125.767 86.603C126.282 86.9753 126.643 87.5231 126.782 88.143C128.058 94.1895 128.934 100.314 129.404 106.475C129.589 110.621 130.424 118.123 127.269 121.364C122.38 125.938 112.276 126.767 105.914 126.715C99.0871 126.327 99.1335 116.604 105.954 116.279V116.273Z" fill="#E9B376"/>
<path d="M94.4065 133.649C94.4065 133.649 95.1895 120.262 101.013 116.204C106.836 112.146 114.637 114.894 114.637 114.894C114.637 114.894 116.069 122.634 113.987 128.53C113.987 128.53 102.41 134.728 94.4065 133.649Z" fill="#9955B9"/>
<path d="M121.504 88.2236L123.9 79.73L130.9 82.9825C130.9 82.9825 130.059 89.1571 125.06 90.3572L121.504 88.2236Z" fill="#EBB376"/>
<path d="M128.244 75.1904L132.878 78.8604L130.9 82.9825L123.9 79.73L128.244 75.1904Z" fill="#EBB376"/>
<path d="M168.855 144.943C168.664 144.364 168.467 143.784 168.275 143.245C167.504 141.079 166.231 139.127 164.56 137.547C162.888 135.968 160.867 134.806 158.661 134.158C156.454 133.509 154.126 133.392 151.865 133.815C149.605 134.239 147.477 135.191 145.655 136.595C144.896 137.175 144.147 137.754 143.399 138.363C128.957 149.895 116.992 162.992 110.705 170.343L87.9048 164.824C87.9048 164.824 71.5256 194.682 91.0368 207.918C95.9436 211.246 99.5164 210.945 104.11 210.945C115.275 210.945 126.568 202.677 126.568 202.677C126.568 202.677 138.748 193.441 154.408 169.7C160.028 180.715 166.762 192.763 170.978 203.906C172.266 204.7 179.516 205.066 179.638 203.726C179.638 203.703 176.604 168.215 168.855 144.943Z" fill="#263238"/>
<path opacity="0.2" d="M168.855 144.943C168.664 144.364 168.467 143.784 168.275 143.245C167.504 141.079 166.231 139.127 164.56 137.547C162.888 135.968 160.867 134.806 158.661 134.158C156.454 133.509 154.126 133.392 151.865 133.815C149.605 134.239 147.477 135.191 145.655 136.595C144.896 137.175 144.147 137.754 143.399 138.363C128.957 149.895 116.992 162.992 110.705 170.343L87.9048 164.824C87.9048 164.824 71.5256 194.682 91.0368 207.918C95.9436 211.246 99.5164 210.945 104.11 210.945C115.275 210.945 126.568 202.677 126.568 202.677C126.568 202.677 138.748 193.441 154.408 169.7C160.028 180.715 166.762 192.763 170.978 203.906C172.266 204.7 179.516 205.066 179.638 203.726C179.638 203.703 176.604 168.215 168.855 144.943Z" fill="white"/>
<path d="M186.975 210.805C180.595 210.805 179.742 210.706 176.158 210.59C173.084 210.48 172.347 210.863 169.876 210.805C167.817 210.764 167.893 208.787 168.531 206.52C168.85 205.361 169.337 202.966 169.778 201.123L179.133 200.444C180.45 202.955 183.419 206.538 187.021 207.025C190.455 207.483 189.521 210.805 186.975 210.805Z" fill="#263238"/>
<path d="M227.36 210.805C220.98 210.805 220.133 210.706 216.543 210.59C213.469 210.48 212.738 210.863 210.268 210.805C208.203 210.764 208.278 208.787 208.916 206.52C209.235 205.361 209.728 202.966 210.163 201.123L219.519 200.444C220.835 202.955 223.811 206.538 227.407 207.025C230.84 207.483 229.93 210.805 227.36 210.805Z" fill="#263238"/>
<path opacity="0.2" d="M110.716 170.319C110.716 170.319 104.725 177.41 102.376 181.225C102.376 181.225 102.214 171.548 110.716 170.319Z" fill="black"/>
</svg>
