<svg width="240" height="223" viewBox="0 0 240 223" fill="none" xmlns="http://www.w3.org/2000/svg">
<path opacity="0.2" d="M35.1471 201.582C82.0204 229.218 157.99 229.218 204.853 201.582C251.716 173.945 251.716 129.087 204.853 101.435C157.99 73.7827 82.01 73.7775 35.1471 101.435C-11.7157 129.092 -11.7157 173.903 35.1471 201.582Z" fill="#301549"/>
<path opacity="0.2" d="M199.191 178.309C209.95 178.309 218.671 173.273 218.671 167.062C218.671 160.85 209.95 155.815 199.191 155.815C188.432 155.815 179.71 160.85 179.71 167.062C179.71 173.273 188.432 178.309 199.191 178.309Z" fill="#301549"/>
<path opacity="0.2" d="M140.977 203.68C154.177 203.68 164.878 197.503 164.878 189.883C164.878 182.262 154.177 176.085 140.977 176.085C127.776 176.085 117.075 182.262 117.075 189.883C117.075 197.503 127.776 203.68 140.977 203.68Z" fill="#301549"/>
<path d="M204.842 155.067C204.842 155.067 205.435 149.841 208.032 145.784C210.629 141.726 214.209 139.191 217.544 138.932C220.879 138.672 223.57 141.732 220.001 143.841C216.432 145.95 210.094 148.074 207.18 155.971L204.842 155.067Z" fill="#9955B9"/>
<path opacity="0.1" d="M204.842 155.067C204.842 155.067 205.435 149.841 208.032 145.784C210.629 141.726 214.209 139.191 217.544 138.932C220.879 138.672 223.57 141.732 220.001 143.841C216.432 145.95 210.094 148.074 207.18 155.971L204.842 155.067Z" fill="black"/>
<path d="M205.819 153.711H205.783C205.761 153.702 205.74 153.689 205.724 153.673C205.707 153.656 205.693 153.637 205.684 153.615C205.675 153.593 205.67 153.569 205.67 153.546C205.67 153.522 205.675 153.499 205.684 153.477C209.201 144.812 215.897 141.196 218.952 140.49C218.997 140.479 219.045 140.486 219.085 140.511C219.125 140.535 219.154 140.574 219.165 140.62C219.174 140.666 219.166 140.715 219.14 140.756C219.115 140.796 219.076 140.826 219.03 140.838C216.043 141.524 209.476 145.077 206.016 153.607C205.999 153.643 205.97 153.673 205.935 153.691C205.899 153.71 205.859 153.717 205.819 153.711Z" fill="white"/>
<path d="M223.627 153.815C223.32 154.49 222.588 154.853 221.887 155.124C221.185 155.394 220.448 155.7 220.074 156.344C219.32 157.643 220.557 159.461 219.752 160.739C219.563 160.992 219.324 161.204 219.051 161.362C218.778 161.52 218.475 161.621 218.162 161.659C217.645 161.734 217.125 161.781 216.603 161.799C216.355 161.796 216.107 161.777 215.861 161.742C215.138 161.579 214.382 161.66 213.71 161.97C212.671 162.552 212.359 163.856 211.731 164.864C211.343 165.457 210.832 165.959 210.232 166.335C209.632 166.712 208.958 166.954 208.255 167.046C207.654 167.167 207.032 167.126 206.453 166.926L206.354 166.864C206.288 166.796 206.227 166.723 206.172 166.646C206.169 166.636 206.169 166.625 206.172 166.615C205.99 165.945 206.286 165.243 206.302 164.537V164.407C206.271 163.602 206.25 162.796 206.229 161.986C206.195 160.5 206.179 159.015 206.183 157.529C206.183 156.563 206.079 155.503 206.489 154.594C206.941 153.596 208.047 153.555 208.489 152.594C208.66 152.199 208.749 151.783 208.915 151.389C209.167 150.805 209.576 150.302 210.095 149.935C210.615 149.568 211.226 149.352 211.861 149.311C213.824 149.212 215.585 150.801 217.549 150.656C218.068 150.614 218.551 150.459 219.05 150.37C220.64 150.069 222.479 150.526 223.372 151.872C223.571 152.15 223.699 152.472 223.743 152.811C223.787 153.15 223.748 153.495 223.627 153.815Z" fill="#9955B9"/>
<path d="M205.98 163.514C205.958 163.509 205.938 163.5 205.92 163.487C205.903 163.474 205.888 163.457 205.876 163.438C205.865 163.419 205.858 163.398 205.855 163.376C205.853 163.354 205.854 163.332 205.861 163.311C208.572 153.129 219.3 151.659 221.809 151.841C221.852 151.845 221.893 151.865 221.922 151.898C221.951 151.931 221.966 151.974 221.965 152.017C221.963 152.04 221.958 152.061 221.948 152.081C221.938 152.101 221.924 152.119 221.907 152.134C221.89 152.148 221.87 152.159 221.849 152.166C221.827 152.173 221.805 152.175 221.783 152.173C219.331 151.997 208.837 153.435 206.198 163.399C206.192 163.422 206.182 163.443 206.167 163.461C206.153 163.479 206.135 163.494 206.114 163.505C206.094 163.515 206.071 163.522 206.048 163.523C206.025 163.525 206.002 163.522 205.98 163.514Z" fill="white"/>
<path d="M217.897 158.355C217.864 158.349 217.833 158.332 217.809 158.308C216.82 157.447 215.653 156.814 214.391 156.455C213.13 156.096 211.805 156.019 210.51 156.23C210.488 156.234 210.466 156.233 210.444 156.228C210.423 156.223 210.402 156.214 210.384 156.2C210.367 156.187 210.351 156.171 210.34 156.152C210.329 156.133 210.321 156.112 210.318 156.09C210.312 156.045 210.324 156 210.351 155.964C210.378 155.928 210.419 155.904 210.463 155.898C211.808 155.675 213.186 155.753 214.497 156.126C215.808 156.499 217.021 157.157 218.048 158.053C218.079 158.085 218.096 158.127 218.096 158.17C218.096 158.214 218.079 158.256 218.048 158.287C218.031 158.311 218.008 158.329 217.982 158.341C217.955 158.353 217.926 158.358 217.897 158.355Z" fill="white"/>
<path d="M27.303 137.399C25.4353 139.053 23.1654 140.187 20.7211 140.687C16.5185 141.612 14.5236 139.695 14.5236 139.695C14.5236 139.695 15.9574 135.612 18.3003 134.355C15.7272 135.094 13.2979 136.263 11.1158 137.814C11.1158 137.814 8.51838 138.007 7.25603 134.116C7.25603 134.116 8.65344 131.643 13.7288 130.048C13.7288 130.048 10.5444 129.445 6.09757 130.869C5.7651 131.025 4.01963 125.996 3.443 123.664C2.86637 121.331 3.81183 121.295 5.62484 120.697C7.43785 120.1 13.6769 119.414 14.8925 120.354C16.1081 121.295 16.8925 124.723 16.8925 124.723C16.8925 124.723 17.8795 122.697 17.5107 120.967C18.7717 120.523 20.1381 120.474 21.4276 120.827C23.5367 121.425 23.4692 122.438 23.5575 123.944C23.6541 125.458 23.5351 126.978 23.2042 128.458C23.2042 128.458 24.5601 127.139 24.3367 122.583C24.9947 122.86 25.5899 123.268 26.0862 123.781C26.5826 124.295 26.97 124.903 27.2251 125.57C28.2744 128.484 28.7991 133.357 27.303 137.399Z" fill="#455A64"/>
<path d="M27.3132 137.638C27.2685 137.641 27.2238 137.631 27.1843 137.61C27.1448 137.589 27.1121 137.557 27.0898 137.518C23.2404 130.604 10.0143 123.097 5.40122 122.479C5.37041 122.475 5.34067 122.465 5.31374 122.45C5.28681 122.435 5.26322 122.414 5.24436 122.389C5.2255 122.365 5.21174 122.336 5.20389 122.306C5.19604 122.276 5.19425 122.245 5.19862 122.214C5.20642 122.152 5.23865 122.095 5.28828 122.056C5.33791 122.017 5.40092 121.999 5.46356 122.007C10.1389 122.63 23.5988 130.261 27.5106 137.285C27.5404 137.34 27.5473 137.405 27.5298 137.465C27.5123 137.525 27.4718 137.576 27.417 137.607C27.3863 137.627 27.3501 137.638 27.3132 137.638Z" fill="white"/>
<path d="M19.864 60.9927V96.6762C20.011 97.6447 20.5336 98.5163 21.3186 99.1022L33.1109 105.897V111.134L16.7731 101.726C15.993 101.136 15.4731 100.266 15.3237 99.2996V58.3745L19.864 60.9927Z" fill="#E6E6E6"/>
<path d="M9.46875 48.2341L14.0091 45.6367C16.1805 44.3847 18.8299 44.4834 21.2819 45.9016L33.1106 52.6965V63.3979L19.8637 55.7511V60.9875L15.3234 58.3901V99.3152C15.4728 100.281 15.9926 101.152 16.7727 101.741L33.1106 111.149V116.593L16.7416 107.165C14.9224 106.069 13.4067 104.535 12.3332 102.703C11.2596 100.871 10.6624 98.7987 10.596 96.6762V52.0471C10.5775 50.79 10.8495 49.5455 11.3908 48.4107L9.46875 48.2341Z" fill="#F5F5F5"/>
<path d="M9.469 48.234C10.2479 47.7805 11.1133 47.4955 12.0093 47.3977C13.6667 47.2472 15.3288 47.6313 16.7522 48.4938L33.1108 57.938V68.6446L19.8639 60.9926L15.3236 58.3952V99.3203C15.473 100.287 15.9929 101.157 16.773 101.746L33.1108 111.154V121.85L12.1963 109.783C10.3782 108.687 8.86323 107.154 7.78976 105.323C6.71629 103.492 6.11845 101.421 6.05078 99.2995V54.6757C6.05078 51.8289 7.29755 49.486 9.469 48.234Z" fill="#F0F0F0"/>
<path d="M9.16232 81.5436C9.42871 81.5436 9.68426 81.4382 9.87311 81.2503C10.062 81.0624 10.1687 80.8074 10.1701 80.541V55.2317C10.1701 54.7667 10.2926 54.31 10.5254 53.9075C10.7582 53.505 11.0929 53.1711 11.496 52.9392C11.899 52.7074 12.356 52.586 12.821 52.5872C13.2859 52.5883 13.7423 52.7121 14.1442 52.9459C14.3743 53.0837 14.6497 53.1244 14.9098 53.0592C15.1699 52.9939 15.3934 52.828 15.5312 52.5979C15.669 52.3678 15.7097 52.0924 15.6445 51.8323C15.5792 51.5722 15.4132 51.3486 15.1832 51.2108C14.4746 50.803 13.6715 50.588 12.8539 50.5874C12.0364 50.5868 11.2329 50.8006 10.5238 51.2075C9.81468 51.6144 9.22463 52.2001 8.81255 52.9062C8.40046 53.6123 8.18073 54.4141 8.17529 55.2317V80.541C8.17659 80.8039 8.28051 81.0558 8.4649 81.2431C8.64929 81.4304 8.89955 81.5382 9.16232 81.5436Z" fill="#FAFAFA"/>
<path d="M17.3391 54.6758C17.9072 54.6758 18.3677 54.2153 18.3677 53.6472C18.3677 53.0792 17.9072 52.6187 17.3391 52.6187C16.7711 52.6187 16.3105 53.0792 16.3105 53.6472C16.3105 54.2153 16.7711 54.6758 17.3391 54.6758Z" fill="#FAFAFA"/>
<path d="M116.187 29.9849V135.711C116.187 142.261 111.86 148.812 103.2 153.81C85.8905 163.805 57.8226 163.805 40.5081 153.81C31.8535 148.812 27.521 142.261 27.521 135.711V29.9849H116.187Z" fill="#E0E0E0"/>
<path d="M32.2222 41.4603C34.6057 44.1145 37.4148 46.3529 40.534 48.0838C57.8485 58.0787 85.9163 58.0787 103.231 48.0838C106.341 46.3505 109.141 44.1122 111.517 41.4603C119.828 31.8706 117.096 19.8861 103.231 11.8912C85.9163 1.89109 57.8485 1.89109 40.534 11.8912C26.643 19.8861 23.8845 31.8706 32.2222 41.4603Z" fill="#EBEBEB"/>
<path d="M32.2275 43.9795C32.3158 38.9508 36.0769 34.0365 42.8562 30.1196C50.529 25.6935 60.8252 23.252 71.8539 23.252C82.8826 23.252 93.184 25.6935 100.852 30.1196C107.636 34.0365 111.397 38.9508 111.48 43.9795V124.011C111.48 128.427 107.704 132.749 100.841 136.188C93.1736 140.027 82.8722 142.147 71.8435 142.147C60.8148 142.147 50.5186 140.027 42.8458 136.188C35.9886 132.749 32.2119 128.427 32.2119 124.011V43.9795H32.2275Z" fill="#9955B9"/>
<path opacity="0.1" d="M32.2275 43.9795C32.3158 38.9508 36.0769 34.0365 42.8562 30.1196C50.529 25.6935 60.8252 23.252 71.8539 23.252C82.8826 23.252 93.184 25.6935 100.852 30.1196C107.636 34.0365 111.397 38.9508 111.48 43.9795V124.011C111.48 128.427 107.704 132.749 100.841 136.188C93.1736 140.027 82.8722 142.147 71.8435 142.147C60.8148 142.147 50.5186 140.027 42.8458 136.188C35.9886 132.749 32.2119 128.427 32.2119 124.011V43.9795H32.2275Z" fill="black"/>
<path d="M32.2227 130.474V136.921C32.2227 141.337 35.9993 145.659 42.8565 149.093C47.0584 151.138 51.5102 152.624 56.0982 153.513C61.2847 154.56 66.5633 155.082 71.8542 155.072C82.8829 155.072 93.1843 152.957 100.857 149.113C104.286 147.394 106.94 145.477 108.748 143.399C110.556 141.321 111.491 139.155 111.491 136.947V130.474C111.491 132.682 110.546 133.529 108.748 135.586C106.951 137.643 104.286 139.586 100.857 141.3C93.1843 145.144 82.8829 147.259 71.8542 147.259C66.5633 147.269 61.2847 146.747 56.0982 145.7C51.5128 144.822 47.0614 143.35 42.8565 141.321C35.9993 137.872 32.2227 134.885 32.2227 130.474Z" fill="#EBEBEB"/>
<path d="M32.2227 29.9847C32.2791 32.55 33.1486 35.0312 34.7058 37.0705C36.5032 34.5614 39.2513 32.2029 42.8565 30.1198C50.5293 25.6938 60.8256 23.2522 71.8542 23.2522C82.8829 23.2522 93.1843 25.6938 100.857 30.1198C104.457 32.1977 107.21 34.5614 109.008 37.0705C110.565 35.0312 111.435 32.55 111.491 29.9847C111.491 24.899 107.714 19.9119 100.857 15.9586C93.1843 11.5326 82.8829 9.09619 71.8542 9.09619C60.8256 9.09619 50.5293 11.5326 42.8565 15.9586C35.9993 19.9119 32.2227 24.899 32.2227 29.9847Z" fill="#E0E0E0"/>
<path d="M32.2276 38.3172C32.2644 36.9158 32.5658 35.5339 33.116 34.2444C32.917 33.891 32.7917 33.5009 32.7474 33.0978C32.7031 32.6946 32.7408 32.2866 32.8582 31.8984C32.9756 31.5102 33.1704 31.1497 33.4307 30.8387C33.6911 30.5277 34.0116 30.2725 34.3731 30.0886C33.7452 29.147 33.4726 28.0129 33.604 26.8889C33.7354 25.7649 34.2623 24.7242 35.0904 23.9529C35.9185 23.1816 36.994 22.7299 38.1245 22.6787C39.255 22.6274 40.3669 22.9798 41.2615 23.6729C41.2397 23.5335 41.2258 23.3931 41.2199 23.2521C41.2181 22.6791 41.3784 22.1173 41.6822 21.6314C41.9859 21.1456 42.4209 20.7555 42.9368 20.5062C43.4528 20.257 44.0287 20.1586 44.5981 20.2226C45.1675 20.2865 45.7073 20.5102 46.1551 20.8677C45.8688 19.5285 46.0411 18.132 46.6444 16.9026C47.2477 15.6732 48.2469 14.6824 49.4813 14.0895C50.7157 13.4966 52.1137 13.336 53.4504 13.6335C54.7871 13.931 55.9849 14.6694 56.8513 15.73C57.1507 14.8826 57.6838 14.1372 58.3889 13.5799C59.094 13.0226 59.9424 12.6761 60.836 12.5805C61.7296 12.4849 62.6321 12.644 63.4392 13.0395C64.2462 13.4351 64.9249 14.0508 65.3968 14.8157C66.0559 13.6848 66.9999 12.7466 68.1347 12.0944C69.2696 11.4423 70.5556 11.0991 71.8644 11.0991C73.1733 11.0991 74.4593 11.4423 75.5941 12.0944C76.729 12.7466 77.673 13.6848 78.332 14.8157C78.8049 14.0538 79.4832 13.4408 80.289 13.0473C81.0948 12.6538 81.9952 12.4957 82.8869 12.5912C83.7785 12.6867 84.625 13.032 85.3292 13.5872C86.0333 14.1425 86.5664 14.8852 86.8672 15.73C87.7344 14.6723 88.9317 13.9366 90.2671 13.6408C91.6024 13.3449 92.9984 13.5062 94.2312 14.0986C95.4639 14.691 96.462 15.6803 97.0653 16.9078C97.6686 18.1352 97.8422 19.5298 97.5582 20.8677C98.006 20.5102 98.5457 20.2865 99.1152 20.2226C99.6846 20.1586 100.26 20.257 100.776 20.5062C101.292 20.7555 101.727 21.1456 102.031 21.6314C102.335 22.1173 102.495 22.6791 102.493 23.2521C102.49 23.3932 102.476 23.5339 102.452 23.6729C103.347 22.9908 104.455 22.6472 105.58 22.7027C106.704 22.7582 107.773 23.2092 108.597 23.9761C109.421 24.7431 109.947 25.7765 110.083 26.894C110.219 28.0115 109.956 29.1411 109.34 30.0834C109.836 30.3379 110.253 30.7241 110.544 31.1997C110.836 31.6752 110.991 32.2218 110.992 32.7795C110.988 33.2896 110.854 33.7903 110.603 34.2341C111.157 35.5261 111.46 36.9118 111.496 38.3172V41.4341C109.12 44.086 106.32 46.3243 103.21 48.0576C85.8957 58.0525 57.8279 58.0525 40.5134 48.0576C37.3942 46.3267 34.5852 44.0883 32.2017 41.4341V38.3172H32.2276Z" fill="#FAFAFA"/>
<path d="M32.2227 41.46V47.6938C32.2227 52.099 35.9993 56.4264 42.8565 59.8654C47.0593 61.9087 51.5108 63.3949 56.0982 64.2862C61.2847 65.333 66.5633 65.8551 71.8542 65.8446C82.8829 65.8446 93.1843 63.7303 100.857 59.8861C104.286 58.1666 106.94 56.2497 108.748 54.1718C110.556 52.0938 111.491 49.9276 111.491 47.7198V41.4859C109.115 44.1378 106.315 46.3761 103.205 48.1094C85.8908 58.1043 57.8229 58.1043 40.5085 48.1094C37.3965 46.3683 34.5963 44.1211 32.2227 41.46Z" fill="#F5F5F5"/>
<path d="M32.2227 29.9849V41.4603C34.6062 44.1144 37.4152 46.3529 40.5344 48.0838C57.8489 58.0787 85.9167 58.0787 103.231 48.0838C106.341 46.3505 109.141 44.1122 111.517 41.4603V29.9849C111.517 35.0758 107.74 40.0577 100.883 44.011C93.2103 48.4422 82.9089 50.8786 71.8802 50.8786C60.8515 50.8786 50.5553 48.4422 42.8825 44.011C35.9993 40.0577 32.2227 35.0758 32.2227 29.9849Z" fill="#EBEBEB"/>
<path opacity="0.1" d="M62.5706 75.3984V130.334C62.5798 131.249 62.9253 132.128 63.5414 132.805C64.1574 133.481 65.0009 133.907 65.9109 134.002C67.859 134.142 69.8434 134.209 71.8538 134.209C73.8642 134.209 75.8435 134.142 77.7916 134.002C78.7016 133.907 79.5451 133.481 80.1611 132.805C80.7772 132.128 81.1227 131.249 81.1319 130.334V75.3984C81.138 74.9712 81.0534 74.5476 80.8836 74.1556C80.7138 73.7636 80.4627 73.4121 80.147 73.1243C79.8312 72.8366 79.458 72.6191 79.052 72.4864C78.6459 72.3536 78.2163 72.3086 77.7916 72.3542C75.8435 72.4944 73.8591 72.5672 71.8538 72.5672C69.8486 72.5672 67.859 72.4944 65.9109 72.3542C65.4862 72.3086 65.0566 72.3536 64.6505 72.4864C64.2445 72.6191 63.8712 72.8366 63.5555 73.1243C63.2397 73.4121 62.9887 73.7636 62.8189 74.1556C62.6491 74.5476 62.5645 74.9712 62.5706 75.3984Z" fill="black"/>
<path opacity="0.1" d="M40.3525 68.5928V123.523C40.3525 125.373 41.6461 127.648 43.3136 128.458C46.1772 129.841 49.1655 130.949 52.2384 131.767C54.0254 132.251 55.5008 131.045 55.5008 129.17V74.25C55.456 73.3065 55.1167 72.4007 54.5306 71.6599C53.9446 70.9192 53.1411 70.3807 52.2332 70.1201C49.1612 69.3021 46.1744 68.1923 43.3136 66.8058C41.6513 65.9954 40.3525 66.733 40.3525 68.5928Z" fill="black"/>
<path opacity="0.1" d="M103.351 68.5928V123.523C103.351 125.373 102.057 127.648 100.395 128.458C97.5308 129.84 94.5425 130.948 91.4699 131.767C89.6777 132.251 88.2075 131.045 88.2075 129.17V74.25C88.2519 73.3071 88.5904 72.4019 89.1755 71.6612C89.7606 70.9205 90.5629 70.3816 91.4699 70.1201C94.5425 69.304 97.5295 68.1941 100.389 66.8058C102.057 65.9954 103.351 66.733 103.351 68.5928Z" fill="black"/>
<path opacity="0.3" d="M37.9627 52.2086C37.9627 52.2086 32.8094 49.0917 30.1704 44.1514V134.937C30.1704 134.937 32.8406 140.449 37.9627 142.765V52.2086Z" fill="white"/>
<path d="M77.1112 38.2858C76.8807 37.7012 76.5136 37.1803 76.0407 36.7665C75.5677 36.3527 75.0026 36.0582 74.3925 35.9075C73.7825 35.7567 73.1452 35.7542 72.534 35.9C71.9227 36.0459 71.3553 36.3359 70.879 36.7459C70.4027 37.1559 70.0315 37.6739 69.7964 38.2566C69.5612 38.8394 69.4689 39.4699 69.5272 40.0956C69.5856 40.7213 69.7928 41.324 70.1316 41.8532C70.4704 42.3825 70.931 42.8229 71.4748 43.1378C71.185 42.3784 71.1367 41.548 71.3365 40.7601C71.5363 39.9722 71.9744 39.2652 72.5909 38.7356C73.2075 38.2059 73.9726 37.8795 74.7816 37.8009C75.5906 37.7222 76.4042 37.8952 77.1112 38.2962V38.2858Z" fill="#F0F0F0"/>
<path d="M81.6514 39.216C81.7988 38.8327 81.8521 38.4196 81.8068 38.0115C81.7615 37.6034 81.6188 37.212 81.3909 36.8704C81.163 36.5288 80.8564 36.2469 80.4969 36.0484C80.1375 35.8498 79.7356 35.7405 79.3251 35.7294C78.9146 35.7184 78.5074 35.8061 78.1378 35.985C77.7682 36.164 77.4469 36.4291 77.201 36.7579C76.9551 37.0868 76.7917 37.4699 76.7245 37.875C76.6573 38.2802 76.6884 38.6955 76.815 39.0861C76.9843 38.6446 77.2724 38.2584 77.6474 37.9703C78.0223 37.6821 78.4696 37.5031 78.9399 37.4532C79.4101 37.4032 79.885 37.4841 80.3122 37.687C80.7394 37.8899 81.1021 38.2069 81.3605 38.603C81.4834 38.794 81.5812 39 81.6514 39.216Z" fill="#F0F0F0"/>
<path d="M93.5528 29.3302C93.8759 28.7862 94.0632 28.1724 94.0987 27.5406C94.1342 26.9089 94.017 26.2779 93.7569 25.7011C93.4969 25.1243 93.1017 24.6187 92.6047 24.227C92.1078 23.8353 91.5238 23.5691 90.9022 23.451C90.2806 23.3329 89.6397 23.3664 89.0337 23.5485C88.4278 23.7306 87.8747 24.0561 87.4212 24.4973C86.9677 24.9386 86.6272 25.4826 86.4286 26.0833C86.2299 26.6841 86.179 27.3238 86.28 27.9484C86.6948 27.2558 87.3122 26.7071 88.0488 26.3766C88.7854 26.0461 89.6057 25.9497 90.3988 26.1004C91.192 26.2511 91.9198 26.6417 92.4838 27.2193C93.0479 27.7969 93.421 28.5337 93.5528 29.3302Z" fill="#F0F0F0"/>
<path d="M87.2568 25.9276C87.429 25.5544 87.509 25.1453 87.4902 24.7347C87.4713 24.3241 87.3541 23.9241 87.1485 23.5682C86.9428 23.2124 86.6547 22.9111 86.3083 22.6899C85.962 22.4686 85.5675 22.3337 85.1582 22.2966C84.7489 22.2595 84.3366 22.3213 83.9561 22.4767C83.5756 22.6321 83.2381 22.8767 82.9718 23.1898C82.7055 23.5029 82.5183 23.8753 82.426 24.2758C82.3336 24.6763 82.3388 25.0932 82.4411 25.4912C82.6375 25.0614 82.949 24.6943 83.3411 24.4305C83.7332 24.1668 84.1906 24.0166 84.6628 23.9967C85.1349 23.9768 85.6033 24.088 86.0162 24.3178C86.4291 24.5476 86.7704 24.8872 87.0022 25.299C87.1142 25.4965 87.1998 25.7078 87.2568 25.9276Z" fill="#F0F0F0"/>
<path d="M58.3319 26.7118C58.3716 26.0835 58.2601 25.4548 58.0067 24.8786C57.7533 24.3023 57.3654 23.7951 56.8755 23.3997C56.3857 23.0042 55.8082 22.732 55.1914 22.6058C54.5747 22.4796 53.9366 22.5031 53.3308 22.6744C52.725 22.8456 52.1691 23.1597 51.7097 23.5901C51.2503 24.0205 50.9008 24.5548 50.6905 25.1482C50.4803 25.7416 50.4153 26.3767 50.5011 27.0004C50.5869 27.6241 50.8211 28.2181 51.1838 28.7326C51.2331 27.9049 51.5463 27.1148 52.0773 26.478C52.4639 26.0166 52.9509 25.6497 53.5011 25.4054C54.0512 25.1611 54.6499 25.0458 55.2515 25.0683C55.853 25.0909 56.4414 25.2507 56.9717 25.5355C57.502 25.8204 57.9602 26.2227 58.3112 26.7118H58.3319Z" fill="#F0F0F0"/>
<path d="M62.5918 28.5924C62.6371 28.1854 62.5841 27.7736 62.4374 27.3913C62.2906 27.009 62.0544 26.6675 61.7484 26.3954C61.4425 26.1233 61.0758 25.9285 60.679 25.8274C60.2822 25.7263 59.867 25.7217 59.4681 25.8142C59.0692 25.9066 58.6984 26.0934 58.3865 26.3588C58.0747 26.6241 57.8311 26.9604 57.676 27.3394C57.521 27.7183 57.4591 28.1289 57.4955 28.5368C57.5319 28.9446 57.6655 29.3378 57.8852 29.6833C57.9416 29.1463 58.1693 28.6418 58.5346 28.2443C58.7995 27.9526 59.1281 27.726 59.4949 27.5821C59.8617 27.4382 60.2567 27.3808 60.6493 27.4145C61.0419 27.4482 61.4214 27.572 61.7583 27.7763C62.0952 27.9806 62.3804 28.2598 62.5918 28.5924Z" fill="#F0F0F0"/>
<path d="M51.4747 32.8886C51.8431 32.707 52.1625 32.4397 52.4061 32.1091C52.6497 31.7785 52.8104 31.3942 52.8747 30.9887C52.939 30.5831 52.905 30.168 52.7756 29.7782C52.6463 29.3885 52.4252 29.0355 52.1311 28.7489C51.837 28.4623 51.4784 28.2504 51.0855 28.1312C50.6925 28.0119 50.2767 27.9886 49.8729 28.0634C49.4691 28.1381 49.0892 28.3087 48.7649 28.5608C48.4407 28.8128 48.1818 29.139 48.0098 29.5119C48.4917 29.2718 49.0377 29.1917 49.5682 29.2833C50.235 29.4013 50.8279 29.7784 51.2173 30.3324C51.6067 30.8863 51.7609 31.5719 51.6462 32.2392C51.6188 32.4624 51.5611 32.6809 51.4747 32.8886Z" fill="#F0F0F0"/>
<path d="M136.909 12.6856C134.385 12.4363 130.972 16.6441 133.45 18.6753C134.821 19.7974 137.813 19.3143 137.782 17.2104C137.774 17.1528 137.748 17.0992 137.708 17.0572C137.668 17.0152 137.616 16.987 137.559 16.9766C135.574 16.5194 133.611 17.3714 133.922 19.6883C134.106 20.6729 134.616 21.567 135.37 22.2266C136.124 22.8862 137.078 23.273 138.078 23.3247C138.198 23.3247 138.156 23.1169 138.078 23.0961C136.353 22.7325 134.722 21.6572 134.385 19.8078C134.307 19.4812 134.3 19.1419 134.364 18.8124C134.428 18.4829 134.56 18.1706 134.753 17.8961C134.989 17.6109 135.303 17.4013 135.657 17.2935C135.953 17.2 137.018 17.0337 137.252 17.2935C137.72 17.7818 136.452 18.5922 136.078 18.7221C135.705 18.8576 135.306 18.9084 134.911 18.8707C134.515 18.8329 134.133 18.7076 133.792 18.5039C132.753 17.7766 133.003 16.3896 133.512 15.387C134.198 14.0623 135.398 12.9869 136.94 12.935C137.081 12.935 137.008 12.6701 136.899 12.6597L136.909 12.6856Z" fill="#D884E7"/>
<path d="M158.749 37.0029C159.543 35.2159 159.46 33.3665 161.772 32.7743C162.811 32.5145 165.19 32.2548 165.954 33.1847C166.089 33.4022 166.143 33.6605 166.107 33.9141C166.071 34.1676 165.947 34.4005 165.756 34.5717C165.154 35.0912 164.717 34.4678 164.546 33.8964C164.421 33.3677 164.466 32.8132 164.672 32.3109C164.879 31.8086 165.238 31.3838 165.699 31.0963C166.669 30.458 167.842 30.2058 168.988 30.3894C170.134 30.5731 171.17 31.1792 171.892 32.0885C171.975 32.1976 172.068 32.0885 172.027 31.9691C170.255 27.8911 161.746 30.7275 164.479 34.6392C165.305 35.8236 166.764 34.7795 166.489 33.5275C166.182 32.1405 163.814 32.208 162.775 32.2756C161.712 32.2771 160.687 32.6711 159.897 33.3821C158.972 34.2964 158.858 35.7301 158.65 36.9509C158.65 37.0081 158.702 37.086 158.738 37.0029H158.749Z" fill="#D884E7"/>
<path d="M200.832 3.20521C202.489 2.72209 204.77 2.85715 206.162 3.97924C207.232 4.83639 207.845 6.71174 206.261 7.3559C205.643 7.60526 203.596 7.61045 203.352 6.75849C203.18 6.17148 203.809 5.82342 204.318 5.7455C205.804 5.51692 207.196 7.08058 207.165 8.48319C207.113 10.5611 204.666 11.278 202.936 11.2988C202.822 11.2988 202.853 11.5118 202.936 11.5222C205.876 11.8027 209.17 9.0754 206.547 6.32732C205.84 5.58965 204.739 5.07016 203.726 5.47536C203.149 5.70394 202.687 6.22342 202.983 6.84681C203.44 7.84422 205.295 8.01565 206.188 7.7611C206.426 7.69862 206.649 7.58774 206.842 7.43538C207.036 7.28302 207.196 7.09245 207.312 6.87555C207.429 6.65865 207.499 6.42008 207.519 6.17471C207.54 5.92934 207.509 5.68243 207.43 5.44939C206.708 2.78962 202.988 2.23897 200.78 3.03897C200.718 3.03897 200.739 3.2156 200.817 3.18962L200.832 3.20521Z" fill="#D884E7"/>
<path d="M220.095 85.2479C221.752 84.7648 224.032 84.8999 225.425 86.0168C226.495 86.8791 227.108 88.7545 225.523 89.3986C224.9 89.648 222.853 89.648 222.609 88.8012C222.437 88.2142 223.071 87.8661 223.575 87.7622C225.066 87.5285 226.453 89.0973 226.422 90.4999C226.37 92.5779 223.923 93.2948 222.193 93.3104C222.079 93.3104 222.11 93.5285 222.193 93.5337C225.139 93.8195 228.427 91.0922 225.83 88.3389C225.123 87.6012 224.022 87.0765 223.004 87.4817C222.432 87.7103 221.965 88.2298 222.266 88.8584C222.723 89.8558 224.573 90.0272 225.471 89.7727C225.709 89.7095 225.931 89.5982 226.124 89.4457C226.317 89.2932 226.477 89.1027 226.593 88.886C226.71 88.6693 226.78 88.431 226.801 88.1859C226.821 87.9408 226.791 87.694 226.713 87.461C225.986 84.8012 222.266 84.2453 220.058 85.0453C219.996 85.0713 220.022 85.222 220.1 85.2012L220.095 85.2479Z" fill="#D884E7"/>
<path d="M216.188 29.2109C214.209 29.7979 212.37 33.2733 214.209 34.8629C215.767 36.2084 218.926 35.9019 218.406 33.3356C218.4 33.3068 218.387 33.2798 218.368 33.2572C218.349 33.2346 218.325 33.2169 218.297 33.2058C216.219 32.7123 215.539 35.1331 215.97 36.7331C216.651 39.2162 219.154 39.1851 220.962 37.8863C221.025 37.8448 220.993 37.6733 220.91 37.7149C219.43 38.4526 217.357 39.1123 216.453 37.1954C215.97 36.1564 215.934 34.5149 216.884 33.7356C217.125 33.5071 217.446 33.3805 217.778 33.3824C218.469 33.4655 218.349 34.2136 217.96 34.6863C217.341 35.4448 216.089 35.3616 215.258 35.0707C212.412 34.0629 214.37 30.3953 216.225 29.3564C216.282 29.3252 216.266 29.1798 216.188 29.2057V29.2109Z" fill="#D884E7"/>
<path d="M228.567 46.8369C231.934 47.1071 231.331 53.4968 228.609 54.3591C228.441 54.4219 228.263 54.4497 228.084 54.4408C227.905 54.4318 227.73 54.3864 227.57 54.3072C227.367 54.1595 227.205 53.9631 227.097 53.7362C226.99 53.5092 226.942 53.259 226.957 53.0084C227.279 51.9071 229.092 53.2942 229.331 53.7253C229.683 54.2858 229.848 54.9438 229.801 55.6042C229.755 56.2645 229.499 56.8928 229.071 57.3981C227.684 58.9202 225.04 58.9566 223.31 58.1046C223.217 58.0578 223.201 58.2241 223.263 58.2656C225.128 59.4605 228.251 59.3046 229.632 57.3981C230.739 55.8812 229.975 51.8708 227.554 52.2032C225.305 52.5357 226.858 55.0968 228.562 54.7591C230.266 54.4214 230.879 52.1617 231.045 50.7591C231.248 48.998 230.723 46.6032 228.541 46.6551C228.469 46.6551 228.479 46.811 228.541 46.8162L228.567 46.8369Z" fill="#D884E7"/>
<path d="M134.192 54.8213C131.86 54.5252 126.841 56.4941 128.145 59.6681C128.841 61.3669 131.953 62.4578 132.977 60.5097C132.998 60.4558 132.998 60.3957 132.977 60.3417C132.956 60.2876 132.915 60.2437 132.862 60.2188C128 57.4707 122.878 65.4136 128.041 68.3487C128.203 68.4423 128.197 68.1669 128.099 68.0942C127.652 67.7892 127.271 67.3981 126.978 66.9439C126.685 66.4897 126.486 65.9814 126.392 65.4491C126.298 64.9168 126.312 64.371 126.432 63.844C126.552 63.3169 126.776 62.8191 127.091 62.3798C127.616 61.5392 128.364 60.8611 129.252 60.4214C129.922 60.1097 131.59 59.6681 132.208 60.3175C132.493 60.6188 132.483 60.2396 132.338 60.5928C132.249 60.8058 131.953 60.9305 131.745 61.0084C131.221 61.1706 130.658 61.1523 130.145 60.9565C129.054 60.5772 128.213 59.585 128.499 58.385C129.07 55.9954 132.135 55.1226 134.249 55.107C134.4 55.107 134.306 54.8317 134.192 54.8161V54.8213Z" fill="#D884E7"/>
<path d="M174.369 10.4106C174.369 10.4106 174.224 13.0081 176.167 14.473L178.203 13.8548C178.203 13.8548 176.842 13.2055 176.167 10.4106H174.369Z" fill="#AE6CF5"/>
<path d="M139.164 64.437C139.164 64.437 139.018 67.0344 140.956 68.5046L142.992 67.8864C142.992 67.8864 141.631 67.237 140.956 64.437H139.164Z" fill="#AE6CF5"/>
<path d="M168.323 45.7666C168.323 45.7666 168.177 48.364 170.12 49.829L172.157 49.2108C172.157 49.2108 170.796 48.5614 170.12 45.7666H168.323Z" fill="#FFC086"/>
<path d="M222.323 15.6415C222.323 15.6415 221.139 17.974 218.733 18.2389L217.279 16.6805C217.279 16.6805 218.785 16.7947 220.77 14.7168L222.323 15.6415Z" fill="#AE6CF5"/>
<path d="M231.918 72.0321C231.918 72.0321 230.734 74.3646 228.329 74.6295L226.874 73.0711C226.874 73.0711 228.381 73.1906 230.365 71.1074L231.918 72.0321Z" fill="#AE6CF5"/>
<path d="M179.164 63.5385C179.164 63.5385 177.98 65.8761 175.569 66.1359L174.12 64.5774C174.12 64.5774 175.621 64.6969 177.606 62.6138L179.164 63.5385Z" fill="#D884E7"/>
<path d="M125.694 0.924687C125.694 0.924687 124.509 3.25718 122.104 3.52212L120.649 1.96366C120.649 1.96366 122.156 2.07794 124.14 0L125.694 0.924687Z" fill="#AE6CF5"/>
<path d="M202.905 23.1588C202.905 23.1588 200.308 23.4809 198.723 21.6419L199.201 19.564C199.201 19.564 199.944 20.8783 202.78 21.3614L202.905 23.1588Z" fill="#D884E7"/>
<path d="M164.099 15.4651C164.099 15.4651 161.502 15.7924 159.917 13.9534L160.395 11.8755C160.395 11.8755 161.138 13.1898 163.975 13.6677L164.099 15.4651Z" fill="#D884E7"/>
<path d="M159.159 45.0861C159.159 45.0861 156.561 45.4081 154.977 43.5692L155.455 41.4912C155.455 41.4912 156.198 42.8003 159.034 43.2834L159.159 45.0861Z" fill="#D884E7"/>
<path d="M198.235 52.0159C198.235 52.0159 195.637 52.338 194.079 50.5042L194.551 48.4263C194.551 48.4263 195.299 49.7354 198.131 50.2185L198.235 52.0159Z" fill="#D884E7"/>
<path d="M232.489 38.7535C232.489 38.7535 229.892 39.0756 228.333 37.2366L228.811 35.1587C228.811 35.1587 229.554 36.473 232.391 36.9561L232.489 38.7535Z" fill="#D884E7"/>
<path d="M207.014 38.5252C207.014 38.5252 205.83 40.8577 203.419 41.1226L201.97 39.5642C201.97 39.5642 203.746 39.8343 205.731 37.7563L207.014 38.5252Z" fill="#AE6CF5"/>
<path d="M209.627 41.9693C209.627 41.9693 209.164 44.5668 206.941 45.507L205.102 44.4369C206.402 43.8494 207.482 42.8656 208.188 41.6265L209.627 41.9693Z" fill="#FFC086"/>
<path d="M128.021 30.4368C128.021 30.4368 126.836 32.7693 124.426 33.0342L122.977 31.4758C122.977 31.4758 124.753 31.7459 126.738 29.668L128.021 30.4368Z" fill="#AE6CF5"/>
<path d="M130.634 33.8809C130.634 33.8809 130.171 36.4784 127.948 37.4238L126.109 36.3485C127.408 35.7631 128.488 34.7787 129.189 33.5381L130.634 33.8809Z" fill="#FFC086"/>
<path d="M189.928 82.6867C188.744 84.5568 185.169 90.3958 183.736 93.3361L183.44 93.2011C183.44 93.2011 173.839 90.3179 173.632 89.5127C173.33 88.3595 173.076 87.7153 172.91 86.9465C172.8 86.4737 172.852 85.4555 172.172 86.027C171.574 86.5464 171.517 87.6426 171.569 88.0685C171.025 87.724 170.522 87.3198 170.068 86.8633C169.502 86.3438 168.998 91.492 169.6 91.9023C170.498 92.4993 171.449 93.0107 172.442 93.4296C173.782 94.0063 184.317 100.131 185.73 99.2687C187.118 98.7024 191.658 91.0816 194.479 86.0893L196.723 80.0217C194.349 79.9905 191.751 79.8087 189.928 82.6867Z" fill="#B16668"/>
<path d="M170.208 88.0633V91.5698C170.193 91.6643 170.143 91.7497 170.068 91.8088L168.91 92.4893V93.0088L170.515 92.0841C170.589 92.024 170.639 91.9392 170.655 91.8452V87.814L170.208 88.0633Z" fill="#E6E6E6"/>
<path d="M171.232 86.806L170.785 86.5514C170.674 86.4908 170.549 86.4612 170.423 86.4658C170.297 86.4704 170.174 86.5089 170.068 86.5774L168.91 87.2475V88.2865L170.208 87.5384V88.0579L170.655 87.7982V91.8242C170.639 91.9182 170.589 92.0031 170.515 92.0631L168.91 93.0086V93.5281L170.515 92.5982C170.696 92.4912 170.847 92.3395 170.954 92.1577C171.06 91.9759 171.118 91.7699 171.123 91.5593V87.1748C171.123 87.0511 171.096 86.9289 171.045 86.8163L171.232 86.806Z" fill="#F5F5F5"/>
<path d="M171.232 86.806C171.155 86.7623 171.07 86.7357 170.982 86.7281C170.819 86.7102 170.655 86.7467 170.515 86.832L168.91 87.7619V88.8008L170.208 88.0476L170.655 87.7878V91.8139C170.639 91.9078 170.589 91.9927 170.515 92.0528L168.91 93.0087V94.0476L170.962 92.8632C171.142 92.7554 171.293 92.6036 171.399 92.4219C171.505 92.2403 171.564 92.0346 171.569 91.8242V87.4346C171.574 87.3093 171.545 87.185 171.486 87.0745C171.426 86.9641 171.339 86.8714 171.232 86.806Z" fill="#F0F0F0"/>
<path d="M171.263 90.0841C171.237 90.0841 171.212 90.0737 171.193 90.0552C171.175 90.0367 171.164 90.0116 171.164 89.9854V87.4971C171.164 87.4511 171.152 87.406 171.129 87.366C171.106 87.326 171.074 87.2924 171.034 87.2685C170.994 87.2442 170.949 87.2313 170.902 87.2313C170.855 87.2313 170.809 87.2442 170.769 87.2685C170.746 87.2804 170.72 87.2832 170.695 87.2765C170.67 87.2698 170.648 87.254 170.634 87.2322C170.628 87.2209 170.624 87.2085 170.622 87.1956C170.62 87.1827 170.621 87.1696 170.624 87.1571C170.628 87.1445 170.634 87.1328 170.642 87.1225C170.65 87.1122 170.659 87.1036 170.671 87.0971C170.741 87.0565 170.821 87.0352 170.902 87.0352C170.983 87.0352 171.063 87.0565 171.133 87.0971C171.203 87.138 171.261 87.1964 171.301 87.2666C171.341 87.3368 171.362 87.4163 171.362 87.4971V89.9854C171.36 90.0112 171.35 90.0356 171.331 90.0538C171.313 90.0721 171.289 90.0829 171.263 90.0841Z" fill="#FAFAFA"/>
<path d="M170.556 87.3412C170.557 87.3544 170.555 87.3675 170.55 87.3799C170.545 87.3922 170.538 87.4033 170.529 87.4127C170.52 87.422 170.508 87.4292 170.496 87.4339C170.484 87.4386 170.471 87.4407 170.457 87.4399C170.444 87.4406 170.431 87.4386 170.418 87.4339C170.405 87.4293 170.394 87.4221 170.384 87.4129C170.375 87.4037 170.367 87.3925 170.361 87.3802C170.356 87.3679 170.353 87.3546 170.354 87.3412C170.354 87.3136 170.364 87.2872 170.384 87.2677C170.403 87.2483 170.43 87.2373 170.457 87.2373C170.471 87.2373 170.484 87.24 170.496 87.2453C170.509 87.2506 170.52 87.2583 170.529 87.268C170.538 87.2778 170.546 87.2893 170.55 87.3018C170.555 87.3144 170.557 87.3278 170.556 87.3412Z" fill="#FAFAFA"/>
<path d="M171.569 88.7959C171.999 89.1613 172.304 89.6516 172.442 90.1985C172.754 91.2063 172.837 92.5518 172.006 93.0349C171.174 93.518 171.569 88.7959 171.569 88.7959Z" fill="#9A4A4D"/>
<path d="M170.167 88.0635C170.671 88.1993 171.137 88.45 171.528 88.796C172.432 89.8349 172.671 93.2064 171.528 93.2895C171.05 93.3259 170.12 93.3207 169.414 91.996V88.5362L170.167 88.0635Z" fill="#B16668"/>
<path d="M160.743 85.0142V95.4039C160.743 96.048 161.164 96.6922 162.016 97.1805C162.972 97.6648 164.028 97.9171 165.099 97.9171C166.17 97.9171 167.227 97.6648 168.182 97.1805C169.029 96.6922 169.455 96.048 169.455 95.4039V85.0142H160.743Z" fill="#E0E0E0"/>
<path d="M168.992 86.1412C168.76 86.4021 168.486 86.6232 168.182 86.7957C167.225 87.2759 166.169 87.5242 165.099 87.5206C164.029 87.517 162.974 87.2616 162.021 86.7749C161.716 86.601 161.441 86.3801 161.205 86.1204C160.39 85.1801 160.66 84.0009 162.021 83.2165C162.976 82.7298 164.032 82.4761 165.104 82.4761C166.176 82.4761 167.232 82.7298 168.187 83.2165C169.543 84.0217 169.813 85.2165 168.992 86.1412Z" fill="#EBEBEB"/>
<path d="M168.992 86.3905C168.951 86.0935 168.833 85.8122 168.651 85.5738C168.469 85.3354 168.229 85.1479 167.954 85.0294C167.067 84.5828 166.089 84.3501 165.096 84.3501C164.104 84.3501 163.125 84.5828 162.239 85.0294C161.963 85.1471 161.722 85.3343 161.54 85.5729C161.358 85.8114 161.241 86.0931 161.2 86.3905V94.2555C161.2 94.6919 161.574 95.1179 162.239 95.4555C163.133 95.8594 164.105 96.0582 165.086 96.0373C166.068 96.0588 167.043 95.86 167.938 95.4555C168.613 95.1179 168.977 94.6919 168.977 94.2555V86.3905H168.992Z" fill="#9955B9"/>
<path d="M168.992 94.8945V95.5283C168.992 95.9595 168.624 96.3855 167.954 96.7231C167.54 96.9219 167.104 97.0685 166.655 97.1595C166.142 97.2619 165.62 97.3124 165.096 97.3101C164.115 97.3321 163.142 97.1314 162.25 96.7231C161.958 96.5852 161.694 96.3951 161.47 96.1621C161.306 95.9906 161.21 95.7654 161.2 95.5283V94.8945C161.2 95.1075 161.294 95.1906 161.47 95.414C161.692 95.6486 161.957 95.839 162.25 95.9751C163.142 96.3833 164.115 96.584 165.096 96.5621C165.62 96.5643 166.142 96.5138 166.655 96.4114C167.105 96.3252 167.542 96.1784 167.954 95.9751C168.624 95.6062 168.992 95.3257 168.992 94.8945Z" fill="#EBEBEB"/>
<path d="M168.993 85.0139C169.001 85.2719 168.924 85.5255 168.775 85.736C168.559 85.4557 168.286 85.2238 167.975 85.0554C167.088 84.6088 166.11 84.3761 165.117 84.3761C164.125 84.3761 163.146 84.6088 162.26 85.0554C161.948 85.2239 161.673 85.4556 161.455 85.736C161.304 85.5347 161.219 85.2915 161.211 85.0399C161.211 84.5204 161.585 84.0528 162.25 83.6632C163.136 83.2166 164.115 82.9839 165.107 82.9839C166.099 82.9839 167.078 83.2166 167.964 83.6632C168.624 84.0269 168.993 84.5152 168.993 85.0139Z" fill="#E0E0E0"/>
<path d="M168.993 85.8345C168.991 85.6965 168.961 85.5602 168.904 85.4345C168.93 85.3904 168.945 85.3403 168.946 85.289C168.945 85.2346 168.93 85.1813 168.901 85.1347C168.873 85.0881 168.833 85.05 168.785 85.0241C168.835 84.9469 168.862 84.8567 168.863 84.7644C168.863 84.7025 168.85 84.6413 168.827 84.5842C168.803 84.5272 168.768 84.4754 168.724 84.4319C168.68 84.3884 168.628 84.3541 168.57 84.3309C168.513 84.3077 168.452 84.2961 168.39 84.2968C168.287 84.2979 168.186 84.3326 168.104 84.3955C168.106 84.3818 168.106 84.3677 168.104 84.354C168.104 84.2741 168.073 84.1974 168.016 84.1409C167.96 84.0844 167.883 84.0527 167.803 84.0527C167.736 84.0537 167.672 84.0776 167.621 84.1202C167.624 84.077 167.624 84.0336 167.621 83.9903C167.621 83.8319 167.558 83.6799 167.446 83.5679C167.334 83.4559 167.182 83.3929 167.024 83.3929C166.935 83.3928 166.846 83.4122 166.766 83.4499C166.685 83.4876 166.613 83.5427 166.556 83.6111C166.525 83.5194 166.465 83.4399 166.386 83.384C166.306 83.3281 166.212 83.2985 166.115 83.2994C166.035 83.3006 165.958 83.3216 165.889 83.3607C165.82 83.3997 165.762 83.4554 165.72 83.5228C165.655 83.4118 165.562 83.3198 165.45 83.2558C165.339 83.1918 165.212 83.1582 165.083 83.1582C164.955 83.1582 164.828 83.1918 164.717 83.2558C164.605 83.3198 164.512 83.4118 164.447 83.5228C164.405 83.4554 164.347 83.3997 164.278 83.3607C164.209 83.3216 164.132 83.3006 164.052 83.2994C163.955 83.2985 163.86 83.3281 163.781 83.384C163.702 83.4399 163.642 83.5194 163.611 83.6111C163.554 83.5427 163.482 83.4876 163.401 83.4499C163.32 83.4122 163.232 83.3928 163.143 83.3929C162.985 83.3929 162.833 83.4559 162.721 83.5679C162.609 83.6799 162.546 83.8319 162.546 83.9903C162.543 84.0336 162.543 84.077 162.546 84.1202C162.495 84.0776 162.43 84.0537 162.364 84.0527C162.284 84.0527 162.207 84.0844 162.151 84.1409C162.094 84.1974 162.063 84.2741 162.063 84.354C162.06 84.3677 162.06 84.3818 162.063 84.3955C161.981 84.3326 161.88 84.2979 161.777 84.2968C161.715 84.2961 161.654 84.3077 161.596 84.3309C161.539 84.3541 161.487 84.3884 161.443 84.4319C161.399 84.4754 161.364 84.5272 161.34 84.5842C161.316 84.6413 161.304 84.7025 161.304 84.7644C161.305 84.8567 161.332 84.9469 161.382 85.0241C161.334 85.05 161.294 85.0881 161.266 85.1347C161.237 85.1813 161.222 85.2346 161.221 85.289C161.223 85.3396 161.235 85.3892 161.257 85.4345C161.205 85.5613 161.176 85.6971 161.174 85.8345V86.141C161.421 86.396 161.707 86.6099 162.021 86.7748C162.977 87.259 164.033 87.5114 165.104 87.5114C166.176 87.5114 167.232 87.259 168.187 86.7748C168.491 86.6022 168.765 86.3811 168.998 86.1202V85.8137L168.993 85.8345Z" fill="#FAFAFA"/>
<path d="M168.992 86.1411V86.7749C168.992 87.2113 168.624 87.6372 167.954 87.9749C167.541 88.1742 167.105 88.3191 166.655 88.4061C166.142 88.5085 165.62 88.559 165.096 88.5567C164.116 88.5776 163.143 88.3788 162.25 87.9749C161.957 87.8354 161.693 87.6434 161.47 87.4087C161.305 87.2378 161.209 87.0122 161.2 86.7749V86.1619C161.441 86.4073 161.717 86.614 162.021 86.7749C162.977 87.2591 164.033 87.5115 165.104 87.5115C166.175 87.5115 167.232 87.2591 168.187 86.7749C168.488 86.6082 168.76 86.3942 168.992 86.1411Z" fill="#F5F5F5"/>
<path d="M168.993 85.0139V86.1412C168.76 86.4021 168.486 86.6232 168.182 86.7958C167.226 87.276 166.17 87.5243 165.099 87.5207C164.029 87.5171 162.974 87.2616 162.021 86.775C161.717 86.6011 161.441 86.3802 161.206 86.1204V84.9932C161.244 85.2939 161.36 85.5794 161.542 85.8217C161.724 86.064 161.966 86.2547 162.245 86.375C163.131 86.8217 164.109 87.0543 165.102 87.0543C166.094 87.0543 167.073 86.8217 167.959 86.375C168.234 86.2562 168.473 86.0685 168.654 85.8301C168.835 85.5917 168.952 85.3106 168.993 85.0139Z" fill="#EBEBEB"/>
<path opacity="0.05" d="M166.011 89.4761V94.8788C166.01 94.9684 165.976 95.0545 165.916 95.1206C165.856 95.1868 165.773 95.2283 165.684 95.2372C165.491 95.2372 165.294 95.2372 165.097 95.2372C164.899 95.2372 164.707 95.2372 164.515 95.2372C164.426 95.2283 164.343 95.1868 164.283 95.1206C164.222 95.0545 164.188 94.9684 164.188 94.8788V89.4761C164.187 89.4342 164.195 89.3926 164.211 89.3541C164.228 89.3155 164.252 89.281 164.283 89.2529C164.314 89.2248 164.351 89.2037 164.391 89.1911C164.431 89.1786 164.473 89.1748 164.515 89.18C164.707 89.18 164.904 89.18 165.097 89.18C165.289 89.18 165.491 89.18 165.684 89.18C165.725 89.1748 165.768 89.1786 165.808 89.1911C165.847 89.2037 165.884 89.2248 165.915 89.2529C165.946 89.281 165.971 89.3155 165.988 89.3541C166.004 89.3926 166.012 89.4342 166.011 89.4761Z" fill="black"/>
<path opacity="0.05" d="M168.198 88.8062V94.2089C168.194 94.3074 168.165 94.4033 168.114 94.4877C168.064 94.5721 167.992 94.6424 167.907 94.692C167.625 94.828 167.331 94.9375 167.029 95.0193C166.991 95.0312 166.95 95.0335 166.91 95.026C166.87 95.0186 166.833 95.0016 166.801 94.9766C166.77 94.9515 166.744 94.9192 166.728 94.8823C166.712 94.8454 166.704 94.8051 166.707 94.7648V89.3725C166.711 89.2796 166.745 89.1905 166.803 89.1177C166.86 89.045 166.94 88.9923 167.029 88.9673C167.33 88.8861 167.622 88.7765 167.902 88.64C168.068 88.5517 168.198 88.6244 168.198 88.8062Z" fill="black"/>
<path opacity="0.05" d="M162.021 88.8062V94.2089C162.025 94.3074 162.054 94.4033 162.105 94.4877C162.155 94.5721 162.227 94.6424 162.312 94.692C162.594 94.828 162.888 94.9375 163.19 95.0193C163.228 95.0312 163.269 95.0335 163.309 95.026C163.349 95.0186 163.386 95.0016 163.418 94.9766C163.449 94.9515 163.475 94.9192 163.491 94.8823C163.507 94.8454 163.515 94.8051 163.512 94.7648V89.3725C163.508 89.2796 163.474 89.1905 163.416 89.1177C163.359 89.045 163.279 88.9923 163.19 88.9673C162.888 88.8852 162.594 88.7756 162.312 88.64C162.13 88.5517 162.021 88.6244 162.021 88.8062Z" fill="black"/>
<path opacity="0.3" d="M168.432 87.2011C168.744 86.9982 169.005 86.7263 169.195 86.4062V95.331C169.026 95.6602 168.76 95.9288 168.432 96.0999V87.2011Z" fill="white"/>
<path d="M164.582 85.8297C164.612 85.7538 164.666 85.6894 164.734 85.6455C164.803 85.6016 164.884 85.5805 164.966 85.5851C165.047 85.5897 165.125 85.6198 165.189 85.6711C165.252 85.7225 165.298 85.7925 165.32 85.8713C165.34 85.9539 165.333 86.0407 165.3 86.1192C165.267 86.1976 165.211 86.2636 165.138 86.3076C165.162 86.2297 165.162 86.1466 165.138 86.0687C165.125 86.0194 165.103 85.9731 165.072 85.9325C165.041 85.8919 165.003 85.8578 164.959 85.8322C164.915 85.8066 164.866 85.79 164.816 85.7833C164.766 85.7766 164.714 85.78 164.665 85.7933C164.636 85.8018 164.608 85.814 164.582 85.8297Z" fill="#F0F0F0"/>
<path d="M164.136 85.9229C164.122 85.8855 164.117 85.8452 164.121 85.8055C164.126 85.7658 164.14 85.7277 164.162 85.6944C164.179 85.6659 164.202 85.6414 164.229 85.6222C164.256 85.603 164.287 85.5896 164.32 85.5828C164.352 85.576 164.386 85.5759 164.419 85.5826C164.451 85.5893 164.482 85.6026 164.51 85.6216C164.556 85.6511 164.591 85.6951 164.61 85.7468C164.629 85.7985 164.63 85.8549 164.613 85.9073C164.593 85.8589 164.558 85.8174 164.515 85.7879C164.487 85.7695 164.456 85.7568 164.424 85.7505C164.391 85.7443 164.358 85.7445 164.326 85.7513C164.293 85.7581 164.262 85.7712 164.235 85.79C164.208 85.8087 164.185 85.8327 164.167 85.8606C164.152 85.8791 164.142 85.9003 164.136 85.9229Z" fill="#F0F0F0"/>
<path d="M162.966 84.9516C162.926 84.8805 162.909 84.7985 162.917 84.7171C162.926 84.6358 162.96 84.5592 163.015 84.4982C163.069 84.4373 163.142 84.3951 163.221 84.3776C163.301 84.3602 163.385 84.3683 163.46 84.4009C163.537 84.4362 163.601 84.496 163.642 84.571C163.682 84.6461 163.697 84.7323 163.683 84.8165C163.645 84.7439 163.582 84.687 163.507 84.6555C163.46 84.6339 163.409 84.6218 163.357 84.6201C163.305 84.6183 163.254 84.6269 163.206 84.6453C163.157 84.6636 163.113 84.6915 163.075 84.7271C163.038 84.7627 163.008 84.8055 162.987 84.8529C162.977 84.8851 162.97 84.9181 162.966 84.9516Z" fill="#F0F0F0"/>
<path d="M163.58 84.6138C163.556 84.5654 163.549 84.5107 163.559 84.458C163.569 84.4052 163.596 84.3572 163.636 84.321C163.676 84.2847 163.726 84.2623 163.78 84.2571C163.833 84.2518 163.887 84.2639 163.933 84.2917C163.981 84.3186 164.019 84.3608 164.04 84.4115C164.062 84.4623 164.066 84.5188 164.052 84.5722C164.031 84.5239 163.994 84.4838 163.948 84.4579C163.89 84.4257 163.822 84.4175 163.758 84.4349C163.694 84.4524 163.639 84.4942 163.606 84.5514C163.595 84.5712 163.586 84.5921 163.58 84.6138Z" fill="#F0F0F0"/>
<path d="M166.426 84.6971C166.423 84.6362 166.434 84.5754 166.459 84.5195C166.483 84.4637 166.52 84.4142 166.567 84.375C166.646 84.3101 166.748 84.2791 166.85 84.2889C166.952 84.2986 167.046 84.3482 167.112 84.4269C167.163 84.494 167.191 84.5762 167.191 84.6607C167.191 84.7452 167.163 84.8274 167.112 84.8945C167.106 84.8238 167.081 84.7562 167.04 84.6987C166.998 84.6413 166.942 84.5962 166.877 84.5684C166.811 84.5407 166.74 84.5312 166.67 84.541C166.599 84.5509 166.533 84.5797 166.478 84.6243C166.459 84.6469 166.441 84.6713 166.426 84.6971Z" fill="#F0F0F0"/>
<path d="M166.011 84.8735C166.005 84.8343 166.009 84.7944 166.023 84.7572C166.036 84.72 166.059 84.6868 166.089 84.6605C166.134 84.6219 166.192 84.6007 166.252 84.6006C166.312 84.6005 166.37 84.6215 166.416 84.66C166.462 84.6985 166.493 84.752 166.503 84.811C166.514 84.87 166.503 84.9308 166.473 84.9826C166.468 84.9304 166.446 84.8812 166.411 84.8424C166.363 84.7951 166.299 84.7686 166.232 84.7686C166.164 84.7686 166.1 84.7951 166.052 84.8424L166.011 84.8735Z" fill="#F0F0F0"/>
<path d="M167.102 85.2994C167.067 85.2816 167.036 85.2559 167.013 85.2244C166.99 85.1928 166.974 85.1563 166.967 85.1176C166.96 85.0847 166.96 85.0508 166.967 85.018C166.974 84.9852 166.988 84.9542 167.007 84.9269C167.027 84.8996 167.052 84.8766 167.081 84.8594C167.109 84.8421 167.141 84.831 167.175 84.8267C167.229 84.817 167.285 84.8254 167.334 84.8508C167.382 84.8762 167.422 84.917 167.445 84.9669C167.394 84.951 167.34 84.951 167.289 84.9669C167.223 84.9784 167.164 85.0153 167.125 85.0698C167.086 85.1242 167.071 85.1918 167.081 85.2578C167.087 85.2722 167.094 85.2861 167.102 85.2994Z" fill="#F0F0F0"/>
<path d="M205.066 62.9148L206.941 63.3096C206.988 63.0944 206.977 62.8707 206.909 62.6613C206.841 62.4519 206.718 62.2644 206.554 62.118C206.389 61.9715 206.189 61.8714 205.973 61.828C205.757 61.7845 205.534 61.7992 205.325 61.8706L206.271 60.8316C206.068 60.6416 205.807 60.525 205.53 60.5004C205.253 60.4757 204.976 60.5444 204.742 60.6955C204.508 60.8466 204.332 61.0714 204.241 61.3342C204.15 61.5971 204.15 61.8828 204.24 62.1459C202.71 60.926 200.809 60.2677 198.853 60.281H198.208C197.078 60.281 195.958 60.5038 194.913 60.9367C193.868 61.3696 192.919 62.0041 192.12 62.804C191.321 63.6039 190.687 64.5534 190.254 65.5984C189.822 66.6433 189.6 67.7632 189.601 68.894V78.4474H202.068C203.494 78.4474 204.862 77.8809 205.87 76.8726C206.878 75.8643 207.445 74.4967 207.445 73.0707V68.9148C207.465 66.6811 206.611 64.5281 205.066 62.9148Z" fill="#9955B9"/>
<path opacity="0.6" d="M205.066 62.9148L206.941 63.3096C206.988 63.0944 206.977 62.8707 206.909 62.6613C206.841 62.4519 206.718 62.2644 206.554 62.118C206.389 61.9715 206.189 61.8714 205.973 61.828C205.757 61.7845 205.534 61.7992 205.325 61.8706L206.271 60.8316C206.068 60.6416 205.807 60.525 205.53 60.5004C205.253 60.4757 204.976 60.5444 204.742 60.6955C204.508 60.8466 204.332 61.0714 204.241 61.3342C204.15 61.5971 204.15 61.8828 204.24 62.1459C202.71 60.926 200.809 60.2677 198.853 60.281H198.208C197.078 60.281 195.958 60.5038 194.913 60.9367C193.868 61.3696 192.919 62.0041 192.12 62.804C191.321 63.6039 190.687 64.5534 190.254 65.5984C189.822 66.6433 189.6 67.7632 189.601 68.894V78.4474H202.068C203.494 78.4474 204.862 77.8809 205.87 76.8726C206.878 75.8643 207.445 74.4967 207.445 73.0707V68.9148C207.465 66.6811 206.611 64.5281 205.066 62.9148Z" fill="black"/>
<path d="M194.338 159.114C194.305 159.548 194.138 159.962 193.86 160.298C193.154 161.173 192.354 161.969 191.476 162.672C190.24 163.685 188.437 164.838 187.138 165.695C186.416 166.168 186.281 167.015 187.138 167.441C188.799 168.097 190.647 168.097 192.307 167.441C193.538 166.979 195.569 164.324 196.588 164.043C197.751 163.695 198.406 163.524 198.847 163.077C199.507 162.392 199.725 161.846 199.367 160.895C198.977 159.856 198.401 158.262 198.058 158.386L198.115 158.708C197.757 159.462 195.486 160.085 194.411 159.716L194.338 159.114Z" fill="#263238"/>
<path d="M198.084 158.366C198.193 156.667 198.276 155.311 198.406 151.233C198.536 147.155 198.728 143.851 198.717 140.9C198.635 138.579 198.263 136.277 197.611 134.048L199.227 116.251C199.227 116.251 199.465 131.56 200.156 135.472C200.707 138.589 200.92 142.516 201.559 147.877C202.167 153.01 202.572 158.392 202.801 162.033C202.873 163.238 202.889 166.36 202.889 166.36H206.603V163.851C206.603 162.718 206.697 161.587 206.884 160.469C207.445 157.056 208.697 149.238 208.962 146.594C209.362 142.397 207.85 137.129 207.85 137.129C207.85 137.129 208.458 131.082 208.951 125.908C209.471 120.594 210.889 112.079 209.414 105.768L190.193 106.708C189.647 112.942 189.502 130.947 190.089 134.35C190.541 136.973 193.569 154.428 194.323 158.792" fill="#B16668"/>
<path d="M194.333 158.76C194.333 158.895 194.333 159.02 194.333 159.129C194.306 159.559 194.14 159.969 193.861 160.298C193.153 161.173 192.353 161.971 191.476 162.677C190.874 163.165 190.136 163.716 189.398 164.199C189.331 164.276 189.284 164.369 189.263 164.469C189.185 165.072 190.63 165.43 191.523 165.295C192.652 165.06 193.677 164.475 194.453 163.622C195.035 163.025 196.323 161.908 197.154 161.056C197.438 160.797 197.689 160.504 197.902 160.183C198.152 159.78 198.249 159.301 198.178 158.833L198.152 158.687C198.152 158.578 198.115 158.469 198.1 158.365" fill="#B16668"/>
<path d="M202.048 80.1981C202.048 80.1981 207.305 80.806 207.933 81.0865C204.162 85.4709 207.201 91.4035 207.201 91.4035L205.123 98.2139C206.973 100.46 208.427 103.003 209.424 105.736C210.682 109.035 211.502 111.549 212.443 122.136C207.487 126.703 190.983 126.812 186.785 121.295C186.785 121.295 188.073 113.908 189.741 106.941C190.962 101.85 192.167 98.9724 191.871 97.31C189.658 90.4996 189.486 88.7177 189.876 87.2008C190.983 82.9255 195.336 80.0371 196.411 80.0371L202.048 80.1981Z" fill="#37474F"/>
<path d="M216.24 76.0577C215.663 77.3564 212.188 83.0916 210.863 85.4085C209.538 87.7254 208.297 89.6683 207.227 91.3878C202.972 89.3098 206.65 80.837 206.65 80.837C206.65 80.837 212.11 73.6941 212.281 73.346C212.451 73.0177 212.577 72.6683 212.655 72.307C212.775 71.6525 213.476 64.9719 213.175 62.5095C213.12 62.0749 212.907 61.6756 212.577 61.3875C211.705 60.5978 211.414 59.9017 210.811 58.9978C210.339 58.2913 209.871 58.0523 209.98 57.8757C210.127 57.6814 210.343 57.5503 210.583 57.5088C210.823 57.4673 211.07 57.5186 211.274 57.6523C211.733 57.933 212.157 58.2679 212.536 58.6498C212.352 57.7005 212.013 56.7879 211.533 55.9484C210.453 54.0211 210.572 52.9718 213.357 53.4341C215.102 53.7198 216.307 55.0341 216.952 59.1017C217.101 60.572 217.158 62.0503 217.123 63.5277C217.159 66.9511 217.04 70.9824 216.863 73.346C216.886 74.2879 216.672 75.2204 216.24 76.0577Z" fill="#B16668"/>
<path d="M202.884 164.495V163.976C202.428 165.743 201.51 167.357 200.224 168.651C199.055 169.721 197.455 170.958 197.045 172.147C196.634 173.337 198.936 173.883 200.453 173.706C201.925 173.526 203.282 172.817 204.271 171.711C205.237 170.605 205.216 169.846 205.668 169.238C206.12 168.631 207.154 167.95 207.398 167.244C207.475 166.586 207.402 165.92 207.185 165.295C207.014 164.636 206.827 163.914 206.603 163.976V164.381C206.073 164.796 205.417 165.018 204.744 165.01C204.198 165.02 202.879 164.911 202.884 164.495Z" fill="#263238"/>
<path d="M206.604 164.371C206.072 164.784 205.417 165.005 204.744 164.999C204.198 164.999 203.03 164.739 203.035 164.324L202.848 163.378C202.848 164.786 201.705 167.275 200.25 168.62L199.357 169.415C198.733 170.106 198.91 170.714 200.396 170.843C201.881 170.973 203.149 170.085 204.261 168.719C205.372 167.352 206.604 164.371 206.604 164.371Z" fill="#B16668"/>
<path d="M192.962 64.1201C192.021 64.676 190.852 67.05 190.967 72.0267C191.065 76.2397 192.432 77.2839 193.117 77.5852C193.803 77.8865 195.128 77.6995 196.416 77.4865V80.0216C196.416 80.0216 194.634 82.0995 194.749 83.2476C194.863 84.3957 197.315 84.6814 198.977 83.5489C200.184 82.6165 201.222 81.4851 202.047 80.2034L202.021 74.3852C202.021 74.3852 202.78 75.1176 204.063 73.9955C205.102 73.0709 205.481 71.5072 204.655 70.6656C204.441 70.4665 204.182 70.3211 203.9 70.2415C203.619 70.1619 203.322 70.1502 203.035 70.2075C202.748 70.2648 202.479 70.3895 202.249 70.5712C202.02 70.7528 201.837 70.9864 201.715 71.2527C201.715 71.2527 200.998 69.2682 198.037 68.2968C195.356 67.424 193.897 66.4162 192.962 64.1201Z" fill="#B16668"/>
<path d="M195.674 70.9671C195.67 71.0353 195.68 71.1035 195.703 71.1678C195.726 71.2322 195.761 71.2914 195.807 71.342C195.853 71.3927 195.908 71.4338 195.97 71.4631C196.032 71.4923 196.099 71.5091 196.167 71.5125C196.235 71.5159 196.303 71.5059 196.368 71.4829C196.432 71.46 196.491 71.4246 196.542 71.3787C196.593 71.3329 196.634 71.2776 196.663 71.2158C196.692 71.1541 196.709 71.0872 196.712 71.019C196.721 70.9462 196.713 70.8724 196.691 70.8026C196.668 70.7329 196.631 70.6686 196.582 70.6142C196.533 70.5597 196.473 70.5162 196.406 70.4866C196.339 70.457 196.266 70.4419 196.193 70.4424C196.124 70.4424 196.056 70.456 195.993 70.4824C195.93 70.5089 195.872 70.5476 195.824 70.5964C195.776 70.6452 195.737 70.7031 195.712 70.7667C195.686 70.8303 195.673 70.8984 195.674 70.9671Z" fill="#263238"/>
<path d="M195.533 74.541L194.302 74.9306C194.324 75.0131 194.363 75.0902 194.415 75.1574C194.468 75.2246 194.534 75.2805 194.608 75.3217C194.683 75.363 194.765 75.3887 194.85 75.3974C194.935 75.406 195.021 75.3975 195.102 75.3722C195.269 75.3185 195.408 75.201 195.489 75.0454C195.57 74.8897 195.586 74.7084 195.533 74.541Z" fill="#9A4A4D"/>
<path d="M191.331 69.3358L192.401 68.593C192.356 68.5208 192.297 68.4585 192.227 68.4099C192.158 68.3614 192.079 68.3275 191.996 68.3105C191.913 68.2935 191.827 68.2936 191.744 68.3109C191.661 68.3282 191.582 68.3623 191.512 68.4112C191.37 68.5129 191.271 68.6653 191.237 68.8373C191.204 69.0093 191.237 69.1877 191.331 69.3358Z" fill="#263238"/>
<path d="M197.216 69.7304L196.146 68.9875C196.191 68.9153 196.25 68.853 196.319 68.8045C196.389 68.7559 196.468 68.7221 196.551 68.705C196.634 68.688 196.72 68.6882 196.803 68.7055C196.886 68.7228 196.965 68.7569 197.034 68.8057C197.178 68.9066 197.277 69.0591 197.311 69.2315C197.345 69.4038 197.311 69.5826 197.216 69.7304Z" fill="#263238"/>
<path d="M191.575 70.5827C191.567 70.6556 191.574 70.7293 191.597 70.7991C191.619 70.8689 191.656 70.9331 191.705 70.9876C191.754 71.042 191.814 71.0855 191.881 71.1151C191.949 71.1447 192.021 71.1598 192.094 71.1593C192.236 71.1622 192.374 71.1095 192.478 71.0125C192.582 70.9155 192.644 70.7818 192.65 70.6399C192.654 70.5716 192.644 70.5034 192.621 70.4391C192.598 70.3748 192.562 70.3156 192.516 70.2649C192.471 70.2143 192.415 70.1731 192.354 70.1439C192.292 70.1146 192.225 70.0978 192.157 70.0944C192.089 70.091 192.02 70.101 191.956 70.124C191.892 70.147 191.832 70.1824 191.782 70.2282C191.731 70.274 191.69 70.3294 191.661 70.3911C191.632 70.4528 191.615 70.5197 191.611 70.5879L191.575 70.5827Z" fill="#263238"/>
<path d="M194.079 70.2812L193.99 73.4709L192.312 72.9514L194.079 70.2812Z" fill="#9A4A4D"/>
<path d="M196.417 77.4866C197.772 77.31 200.572 76.5048 200.993 75.4087C200.82 75.967 200.479 76.4584 200.017 76.8165C199.185 77.5334 196.417 78.3334 196.417 78.3334V77.4866Z" fill="#9A4A4D"/>
<path d="M206.115 94.9258L202.307 100.006L205.102 98.2141L206.115 94.9258Z" fill="#263238"/>
<path d="M164.551 106.245V109.752C164.566 109.846 164.616 109.932 164.692 109.991L165.855 110.656V111.175L164.245 110.251C164.171 110.191 164.121 110.106 164.104 110.012V105.996L164.551 106.245Z" fill="#E0E0E0"/>
<path d="M163.528 104.988L163.975 104.734C164.085 104.673 164.21 104.643 164.337 104.648C164.463 104.652 164.585 104.691 164.691 104.76L165.855 105.43V106.469L164.551 105.721V106.24L164.099 105.996V110.022C164.116 110.116 164.165 110.201 164.24 110.261L165.85 111.186V111.705L164.24 110.775C164.06 110.667 163.91 110.515 163.805 110.333C163.7 110.151 163.642 109.946 163.637 109.736V105.352C163.634 105.228 163.661 105.105 163.715 104.993L163.528 104.988Z" fill="#EBEBEB"/>
<path d="M163.527 104.988C163.604 104.945 163.689 104.918 163.777 104.91C163.94 104.891 164.105 104.928 164.244 105.014L165.855 105.944V106.983L164.551 106.23L164.099 105.996V110.022C164.115 110.116 164.165 110.201 164.239 110.261L165.85 111.185V112.224L163.772 111.04C163.592 110.931 163.443 110.779 163.338 110.597C163.232 110.416 163.174 110.211 163.169 110.001V105.611C163.167 105.485 163.199 105.36 163.262 105.25C163.325 105.14 163.417 105.05 163.527 104.988Z" fill="#E6E6E6"/>
<path d="M163.502 108.266C163.528 108.265 163.552 108.254 163.57 108.236C163.588 108.217 163.599 108.193 163.601 108.167V105.679C163.6 105.633 163.612 105.587 163.634 105.547C163.657 105.507 163.69 105.473 163.73 105.45C163.769 105.426 163.814 105.413 163.86 105.413C163.906 105.413 163.951 105.426 163.99 105.45C164.013 105.463 164.04 105.467 164.065 105.46C164.091 105.453 164.112 105.437 164.125 105.414C164.138 105.391 164.142 105.364 164.135 105.339C164.128 105.314 164.112 105.292 164.089 105.279C164.02 105.238 163.941 105.217 163.86 105.217C163.78 105.217 163.701 105.238 163.632 105.279C163.561 105.319 163.502 105.377 163.46 105.447C163.419 105.517 163.398 105.597 163.398 105.679V108.167C163.399 108.194 163.411 108.219 163.43 108.237C163.45 108.256 163.475 108.266 163.502 108.266Z" fill="#FAFAFA"/>
<path d="M164.203 105.523C164.202 105.536 164.204 105.55 164.209 105.562C164.213 105.574 164.221 105.585 164.23 105.595C164.239 105.604 164.251 105.611 164.263 105.616C164.275 105.621 164.288 105.623 164.301 105.622C164.315 105.623 164.328 105.621 164.341 105.616C164.353 105.611 164.365 105.604 164.375 105.595C164.384 105.586 164.392 105.575 164.397 105.562C164.403 105.55 164.405 105.537 164.405 105.523C164.405 105.496 164.394 105.469 164.375 105.45C164.355 105.43 164.329 105.419 164.301 105.419C164.288 105.419 164.275 105.422 164.262 105.427C164.25 105.433 164.239 105.44 164.23 105.45C164.221 105.46 164.213 105.471 164.209 105.484C164.204 105.497 164.202 105.51 164.203 105.523Z" fill="#FAFAFA"/>
<path d="M165.658 104.032V114.422C165.658 115.066 166.084 115.71 166.93 116.199C167.885 116.685 168.942 116.939 170.014 116.939C171.085 116.939 172.142 116.685 173.097 116.199C173.944 115.71 174.369 115.066 174.369 114.422V104.032H165.658Z" fill="#E0E0E0"/>
<path d="M173.912 105.159C173.679 105.419 173.406 105.638 173.102 105.809C172.146 106.293 171.09 106.545 170.019 106.545C168.948 106.545 167.891 106.293 166.936 105.809C166.632 105.638 166.358 105.419 166.125 105.159C165.304 104.214 165.575 103.035 166.936 102.25C167.891 101.766 168.948 101.514 170.019 101.514C171.09 101.514 172.146 101.766 173.102 102.25C174.489 103.035 174.733 104.214 173.912 105.159Z" fill="#EBEBEB"/>
<path d="M173.912 105.404C173.872 105.106 173.755 104.825 173.573 104.586C173.39 104.347 173.15 104.16 172.873 104.043C171.987 103.596 171.009 103.363 170.016 103.363C169.024 103.363 168.045 103.596 167.159 104.043C166.883 104.16 166.642 104.347 166.46 104.586C166.278 104.825 166.161 105.106 166.12 105.404V113.269C166.12 113.7 166.489 114.126 167.159 114.463C168.053 114.872 169.028 115.073 170.011 115.051C170.992 115.072 171.965 114.872 172.858 114.463C173.533 114.126 173.897 113.7 173.897 113.269V105.404H173.912Z" fill="#9955B9"/>
<path d="M173.912 113.908V114.541C173.912 114.973 173.544 115.399 172.873 115.736C172.462 115.94 172.025 116.086 171.575 116.173C171.062 116.275 170.539 116.326 170.016 116.323C169.033 116.346 168.058 116.145 167.164 115.736C166.871 115.6 166.607 115.41 166.385 115.175C166.222 115.004 166.127 114.778 166.12 114.541V113.908C166.12 114.126 166.208 114.209 166.385 114.427C166.608 114.66 166.872 114.85 167.164 114.988C168.058 115.397 169.033 115.598 170.016 115.575C170.539 115.577 171.062 115.527 171.575 115.425C172.025 115.336 172.461 115.189 172.873 114.988C173.544 114.635 173.912 114.339 173.912 113.908Z" fill="#EBEBEB"/>
<path d="M173.912 104.032C173.906 104.284 173.821 104.528 173.668 104.728C173.454 104.445 173.181 104.211 172.868 104.043C171.982 103.596 171.003 103.363 170.011 103.363C169.018 103.363 168.04 103.596 167.154 104.043C166.84 104.213 166.566 104.446 166.348 104.728C166.199 104.526 166.116 104.283 166.109 104.032C166.109 103.513 166.478 103.04 167.148 102.651C168.035 102.204 169.013 101.971 170.006 101.971C170.998 101.971 171.976 102.204 172.863 102.651C173.543 103.04 173.912 103.528 173.912 104.032Z" fill="#E0E0E0"/>
<path d="M173.912 104.848C173.91 104.71 173.882 104.575 173.829 104.448C173.852 104.403 173.864 104.353 173.865 104.302C173.864 104.248 173.849 104.194 173.821 104.148C173.792 104.101 173.752 104.063 173.704 104.037C173.769 103.945 173.798 103.832 173.786 103.719C173.774 103.607 173.721 103.503 173.638 103.426C173.555 103.35 173.447 103.306 173.334 103.302C173.221 103.299 173.111 103.337 173.024 103.409C173.026 103.395 173.026 103.381 173.024 103.367C173.024 103.328 173.016 103.288 173.001 103.252C172.986 103.215 172.963 103.182 172.935 103.154C172.907 103.126 172.874 103.104 172.838 103.089C172.801 103.074 172.762 103.066 172.722 103.066C172.656 103.067 172.592 103.091 172.541 103.133C172.543 103.092 172.543 103.05 172.541 103.009C172.541 102.93 172.526 102.852 172.497 102.778C172.467 102.705 172.423 102.639 172.367 102.583C172.312 102.527 172.246 102.482 172.173 102.452C172.1 102.422 172.022 102.406 171.943 102.406C171.854 102.407 171.765 102.427 171.685 102.466C171.604 102.505 171.533 102.56 171.476 102.629C171.444 102.538 171.384 102.458 171.305 102.402C171.226 102.346 171.131 102.317 171.034 102.318C170.955 102.318 170.878 102.338 170.809 102.376C170.74 102.414 170.681 102.469 170.639 102.536C170.574 102.425 170.481 102.333 170.37 102.269C170.258 102.205 170.132 102.171 170.003 102.171C169.874 102.171 169.748 102.205 169.636 102.269C169.525 102.333 169.432 102.425 169.367 102.536C169.324 102.469 169.266 102.414 169.197 102.376C169.128 102.338 169.051 102.318 168.972 102.318C168.875 102.317 168.78 102.346 168.701 102.402C168.621 102.458 168.562 102.538 168.53 102.629C168.473 102.56 168.402 102.505 168.321 102.466C168.24 102.427 168.152 102.407 168.063 102.406C167.984 102.406 167.906 102.422 167.833 102.452C167.76 102.482 167.694 102.527 167.638 102.583C167.583 102.639 167.539 102.705 167.509 102.778C167.479 102.852 167.465 102.93 167.465 103.009C167.463 103.05 167.463 103.092 167.465 103.133C167.414 103.091 167.35 103.067 167.283 103.066C167.244 103.066 167.205 103.074 167.168 103.089C167.132 103.104 167.098 103.126 167.07 103.154C167.042 103.182 167.02 103.215 167.005 103.252C166.99 103.288 166.982 103.328 166.982 103.367C166.98 103.381 166.98 103.395 166.982 103.409C166.901 103.344 166.8 103.309 166.696 103.31C166.612 103.311 166.529 103.334 166.457 103.377C166.384 103.421 166.325 103.483 166.284 103.557C166.244 103.631 166.224 103.715 166.227 103.8C166.23 103.884 166.256 103.966 166.302 104.037C166.254 104.063 166.213 104.101 166.185 104.148C166.157 104.194 166.141 104.248 166.141 104.302C166.141 104.354 166.155 104.404 166.182 104.448C166.125 104.573 166.095 104.71 166.094 104.848V105.159C166.327 105.419 166.6 105.638 166.904 105.809C167.86 106.293 168.916 106.545 169.987 106.545C171.059 106.545 172.115 106.293 173.07 105.809C173.374 105.638 173.648 105.419 173.881 105.159V104.848H173.912Z" fill="#FAFAFA"/>
<path d="M173.912 105.16V105.773C173.912 106.204 173.544 106.63 172.873 106.967C172.462 107.171 172.025 107.318 171.575 107.404C171.062 107.506 170.539 107.557 170.016 107.554C169.033 107.577 168.058 107.376 167.164 106.967C166.871 106.831 166.607 106.641 166.385 106.406C166.222 106.234 166.128 106.009 166.12 105.773V105.16C166.353 105.419 166.627 105.638 166.931 105.809C167.886 106.293 168.942 106.546 170.014 106.546C171.085 106.546 172.141 106.293 173.097 105.809C173.402 105.639 173.678 105.419 173.912 105.16Z" fill="#F5F5F5"/>
<path d="M173.912 104.032V105.16C173.679 105.419 173.405 105.638 173.102 105.809C172.146 106.293 171.09 106.545 170.019 106.545C168.947 106.545 167.891 106.293 166.935 105.809C166.632 105.638 166.358 105.419 166.125 105.16V104.032C166.125 104.552 166.494 105.019 167.164 105.409C168.05 105.856 169.029 106.088 170.021 106.088C171.014 106.088 171.992 105.856 172.878 105.409C173.543 105.019 173.912 104.531 173.912 104.032Z" fill="#EBEBEB"/>
<path opacity="0.05" d="M170.93 108.495V113.892C170.93 113.982 170.896 114.069 170.836 114.136C170.775 114.203 170.693 114.246 170.603 114.256C170.411 114.256 170.219 114.256 170.021 114.256C169.824 114.256 169.626 114.256 169.434 114.256C169.345 114.246 169.262 114.203 169.202 114.136C169.141 114.069 169.108 113.982 169.107 113.892V108.495C169.107 108.453 169.115 108.412 169.132 108.373C169.149 108.335 169.173 108.3 169.204 108.272C169.235 108.244 169.271 108.222 169.311 108.209C169.351 108.195 169.393 108.19 169.434 108.194C169.626 108.194 169.824 108.194 170.021 108.194C170.219 108.194 170.411 108.194 170.603 108.194C170.645 108.19 170.687 108.195 170.726 108.209C170.766 108.222 170.802 108.244 170.833 108.272C170.864 108.3 170.888 108.335 170.905 108.373C170.922 108.412 170.93 108.453 170.93 108.495Z" fill="black"/>
<path opacity="0.05" d="M173.118 107.825V113.222C173.113 113.321 173.083 113.417 173.033 113.502C172.982 113.588 172.911 113.659 172.827 113.71C172.545 113.845 172.251 113.953 171.949 114.033C171.911 114.046 171.87 114.049 171.83 114.042C171.79 114.036 171.753 114.019 171.721 113.994C171.689 113.97 171.663 113.938 171.647 113.901C171.631 113.864 171.624 113.823 171.627 113.783V108.381C171.631 108.288 171.664 108.199 171.722 108.126C171.78 108.053 171.859 108 171.949 107.975C172.251 107.893 172.545 107.784 172.827 107.648C172.988 107.555 173.118 107.643 173.118 107.825Z" fill="black"/>
<path opacity="0.05" d="M166.925 107.825V113.222C166.929 113.321 166.957 113.417 167.007 113.502C167.057 113.587 167.127 113.659 167.211 113.71C167.493 113.845 167.787 113.953 168.089 114.033C168.127 114.046 168.168 114.049 168.208 114.042C168.248 114.036 168.285 114.019 168.317 113.994C168.349 113.97 168.374 113.938 168.391 113.901C168.407 113.864 168.414 113.823 168.411 113.783V108.381C168.407 108.288 168.373 108.199 168.316 108.126C168.258 108.053 168.178 108 168.089 107.975C167.788 107.894 167.496 107.785 167.216 107.648C167.05 107.555 166.925 107.643 166.925 107.825Z" fill="black"/>
<path d="M169.502 104.848C169.523 104.789 169.559 104.735 169.605 104.693C169.651 104.65 169.707 104.62 169.768 104.603C169.829 104.587 169.893 104.586 169.954 104.6C170.016 104.614 170.073 104.642 170.121 104.683C170.169 104.724 170.206 104.776 170.23 104.834C170.253 104.892 170.262 104.956 170.256 105.018C170.25 105.081 170.229 105.141 170.194 105.194C170.16 105.246 170.113 105.29 170.058 105.32C170.082 105.243 170.082 105.159 170.058 105.081C170.045 105.032 170.023 104.986 169.992 104.945C169.961 104.905 169.923 104.871 169.879 104.845C169.835 104.819 169.786 104.803 169.736 104.796C169.685 104.789 169.634 104.793 169.585 104.806C169.556 104.816 169.528 104.83 169.502 104.848Z" fill="#F0F0F0"/>
<path d="M169.055 104.957C169.037 104.921 169.028 104.882 169.028 104.843C169.028 104.803 169.037 104.764 169.055 104.728C169.073 104.7 169.096 104.676 169.123 104.658C169.15 104.639 169.181 104.626 169.214 104.619C169.246 104.612 169.279 104.612 169.312 104.618C169.344 104.625 169.375 104.637 169.403 104.656C169.45 104.686 169.485 104.731 169.504 104.784C169.523 104.836 169.524 104.893 169.507 104.947C169.488 104.896 169.453 104.852 169.408 104.822C169.38 104.804 169.349 104.791 169.316 104.785C169.284 104.78 169.25 104.78 169.218 104.788C169.185 104.795 169.155 104.808 169.127 104.828C169.1 104.847 169.077 104.872 169.06 104.9C169.054 104.918 169.052 104.938 169.055 104.957Z" fill="#F0F0F0"/>
<path d="M167.886 103.965C167.858 103.91 167.843 103.85 167.843 103.788C167.843 103.727 167.858 103.666 167.886 103.612C167.908 103.565 167.938 103.522 167.976 103.487C168.013 103.452 168.058 103.425 168.106 103.407C168.154 103.389 168.206 103.381 168.257 103.383C168.308 103.385 168.359 103.398 168.406 103.419C168.483 103.454 168.547 103.512 168.587 103.587C168.627 103.661 168.642 103.746 168.629 103.83C168.588 103.76 168.526 103.704 168.452 103.669C168.405 103.647 168.355 103.635 168.303 103.633C168.251 103.632 168.2 103.64 168.151 103.658C168.103 103.677 168.059 103.705 168.021 103.74C167.984 103.776 167.954 103.819 167.933 103.866C167.913 103.896 167.897 103.93 167.886 103.965Z" fill="#F0F0F0"/>
<path d="M168.505 103.632C168.487 103.597 168.478 103.558 168.478 103.518C168.478 103.478 168.487 103.439 168.505 103.404C168.532 103.348 168.58 103.305 168.638 103.282C168.697 103.26 168.761 103.26 168.819 103.283C168.877 103.306 168.925 103.35 168.952 103.406C168.979 103.462 168.985 103.526 168.967 103.586C168.944 103.538 168.908 103.499 168.863 103.471C168.834 103.455 168.802 103.444 168.769 103.441C168.736 103.437 168.703 103.439 168.671 103.449C168.639 103.458 168.609 103.473 168.583 103.494C168.557 103.515 168.536 103.541 168.52 103.57C168.513 103.59 168.508 103.611 168.505 103.632Z" fill="#F0F0F0"/>
<path d="M171.372 103.71C171.369 103.649 171.38 103.587 171.404 103.53C171.428 103.473 171.465 103.423 171.512 103.383C171.585 103.326 171.676 103.297 171.768 103.301C171.86 103.305 171.947 103.341 172.015 103.403C172.083 103.466 172.127 103.55 172.138 103.641C172.15 103.733 172.129 103.825 172.079 103.903C172.072 103.821 172.041 103.743 171.99 103.679C171.925 103.6 171.83 103.551 171.728 103.541C171.626 103.531 171.524 103.562 171.445 103.627C171.416 103.651 171.392 103.679 171.372 103.71Z" fill="#F0F0F0"/>
<path d="M170.93 103.918C170.925 103.879 170.929 103.839 170.942 103.802C170.956 103.765 170.979 103.731 171.008 103.705C171.051 103.658 171.111 103.628 171.175 103.624C171.239 103.619 171.302 103.639 171.352 103.68C171.401 103.721 171.433 103.779 171.441 103.843C171.448 103.907 171.431 103.971 171.393 104.022C171.386 103.97 171.365 103.921 171.33 103.882C171.283 103.835 171.218 103.808 171.151 103.808C171.084 103.808 171.019 103.835 170.972 103.882C170.956 103.892 170.942 103.904 170.93 103.918Z" fill="#F0F0F0"/>
<path d="M172.021 104.313C171.986 104.294 171.957 104.268 171.934 104.235C171.912 104.203 171.897 104.166 171.892 104.127C171.887 104.088 171.891 104.048 171.904 104.011C171.917 103.973 171.938 103.94 171.967 103.913C171.995 103.886 172.03 103.865 172.068 103.854C172.105 103.843 172.145 103.841 172.184 103.848C172.223 103.855 172.259 103.871 172.291 103.895C172.322 103.919 172.347 103.95 172.364 103.986C172.314 103.967 172.258 103.967 172.208 103.986C172.143 103.998 172.085 104.035 172.046 104.09C172.008 104.144 171.991 104.211 172 104.276C172.006 104.289 172.013 104.301 172.021 104.313Z" fill="#F0F0F0"/>
<path d="M127.086 124.921C126.696 110.515 127.854 107.061 131.688 104.422L133.174 112.749C133.174 112.749 131.429 122.588 131.616 125.866C131.782 128.744 132.062 132.344 132.743 134.672C132.867 135.082 133.136 135.433 133.501 135.659C134.483 136.272 134.873 136.895 135.61 137.669C136.187 138.272 136.649 138.422 136.603 138.609C136.492 138.822 136.305 138.984 136.08 139.064C135.854 139.144 135.607 139.136 135.387 139.04C134.897 138.846 134.432 138.595 134 138.292C134.339 139.175 134.818 139.998 135.418 140.729C136.79 142.407 136.852 143.44 134.083 143.466C132.353 143.466 130.966 142.427 129.662 138.594C129.156 137.194 128.749 135.76 128.447 134.303C127.787 130.547 127.148 127.243 127.086 124.921Z" fill="#FFA8A7"/>
<path d="M134.914 103.326C133.735 103.117 132.52 103.296 131.451 103.836C130.382 104.377 129.517 105.249 128.987 106.323C127.382 109.196 126.987 114.142 126.805 119.061C126.805 119.061 130 121.731 133.829 120.417L134.914 103.326Z" fill="#37474F"/>
<path d="M129.527 182.574C129.236 182.683 129.164 183.239 129.122 184.34C129.086 185.171 128.909 186.626 129.886 186.937C130.862 187.249 132.291 187.078 132.914 186.293C133.699 185.311 134.224 184.449 135.34 183.254C136.307 182.215 137.351 181.249 137.74 179.794C138.094 178.48 137.798 177.909 136.904 177.524C135.668 177.005 133.73 178.719 132.748 178.989C131.933 179.202 129.813 182.464 129.527 182.574Z" fill="#263238"/>
<path d="M129.527 181.555V182.906C130.035 183.231 130.621 183.411 131.223 183.427C131.826 183.444 132.421 183.296 132.946 182.999C133.003 182.869 133.299 181.062 133.299 181.062L129.527 181.555Z" fill="#FFA8A7"/>
<path d="M140.478 190.366C140.242 191.089 140.042 191.824 139.881 192.568C139.715 193.384 139.476 194.75 139.761 195.368C140.047 195.987 141.164 196.376 142.878 196.366C143.995 196.366 145.746 197.119 146.941 197.784C148.135 198.449 150.743 198.75 152.052 198.594C153.611 198.413 155.169 197.524 155.439 196.885C155.71 196.246 155.356 195.587 151.725 194.038C151.694 194.038 146.681 192.392 144.925 190.454L140.478 190.366Z" fill="#263238"/>
<path d="M140.478 188.901C140.478 188.901 140.478 189.909 140.478 190.459C140.478 191.01 141.148 191.888 142.904 191.826C144.135 191.779 144.982 191.446 144.946 190.433V188.974L140.478 188.901Z" fill="#FFA8A7"/>
<path d="M128.65 163.612C128.949 161.219 129.485 158.861 130.25 156.573C130.25 156.573 129.766 150.495 129.533 144.734C129.283 138.5 129.533 130.708 129.429 129.149C129.429 129.149 149.502 125.087 149.86 132.266C150.219 139.446 149.071 157.768 148.821 160.926C148.572 164.085 148.037 166.88 147.387 172.002C146.738 177.124 144.935 188.989 144.935 188.989C144.241 189.343 143.469 189.519 142.69 189.503C141.911 189.486 141.147 189.278 140.468 188.895C140.468 188.895 139.055 174.516 139.205 170.869C139.317 168.169 139.781 165.495 140.587 162.916C140.587 162.916 140.203 156.983 139.87 151.825C139.538 146.666 139.18 144.188 139.102 141.955L138.665 141.742C138.665 141.742 138.229 150.64 137.99 153.799C137.751 156.957 137.247 159.991 136.338 165.856C135.543 170.947 133.179 181.721 133.179 181.721C130.889 182.963 129.517 181.56 129.517 181.56C129.517 181.56 128.031 168.028 128.65 163.612Z" fill="#9955B9"/>
<g opacity="0.3">
<path d="M128.65 163.612C128.949 161.219 129.485 158.861 130.25 156.573C130.25 156.573 129.766 150.495 129.533 144.734C129.283 138.5 129.533 130.708 129.429 129.149C129.429 129.149 149.502 125.087 149.86 132.266C150.219 139.446 149.071 157.768 148.821 160.926C148.572 164.085 148.037 166.88 147.387 172.002C146.738 177.124 144.935 188.989 144.935 188.989C144.241 189.343 143.469 189.519 142.69 189.503C141.911 189.486 141.147 189.278 140.468 188.895C140.468 188.895 139.055 174.516 139.205 170.869C139.317 168.169 139.781 165.495 140.587 162.916C140.587 162.916 140.203 156.983 139.87 151.825C139.538 146.666 139.18 144.188 139.102 141.955L138.665 141.742C138.665 141.742 138.229 150.64 137.99 153.799C137.751 156.957 137.247 159.991 136.338 165.856C135.543 170.947 133.179 181.721 133.179 181.721C130.889 182.963 129.517 181.56 129.517 181.56C129.517 181.56 128.031 168.028 128.65 163.612Z" fill="black"/>
</g>
<g opacity="0.2">
<path d="M139.112 141.95C139.112 141.95 134.239 139.555 131.803 137.389C131.803 137.389 134.068 140.578 137.034 141.991C137.034 141.991 138.073 153.046 138.073 152.828L138.66 141.737L139.112 141.95Z" fill="black"/>
</g>
<path d="M143.444 101.05L142.255 107.586L136.348 107.154L137.59 99.7466L143.444 101.05Z" fill="#FFA8A7"/>
<path d="M130.114 106.676C130.696 104.9 132.951 102.967 135.21 103.383C138.559 103.954 141.859 104.78 145.081 105.855C147.159 106.593 149.034 108.375 149.2 115.175C149.2 115.175 149.896 131.019 149.907 134.084C144.712 136.136 139.325 136.074 136.338 135.419C130.13 134.064 129.382 131.487 129.382 131.487C129.382 131.487 129.304 120.095 129.486 115.175C129.657 110.993 129.709 107.897 130.114 106.676Z" fill="#F5F5F5"/>
<path d="M147.995 93.0972C147.995 93.0972 149.491 95.4868 149.309 95.6946C149.128 95.9024 147.995 96.1258 147.995 96.1258V93.0972Z" fill="#F28F8F"/>
<path d="M143.839 86.4891C146.956 87.2215 147.839 88.6242 148.021 93.6164C148.213 98.8113 147.647 100.453 146.946 101.139C146.473 101.606 143.907 101.632 142.618 101.248C141.008 100.765 137.372 99.3827 135.714 96.7229C133.766 93.606 133.335 89.4034 135.533 87.741C138.644 85.3981 142.572 86.193 143.839 86.4891Z" fill="#FFA8A7"/>
<path d="M147.995 87.8138C147.075 89.3722 145.086 90.1359 145.086 90.1359C144.488 90.8164 144.821 93.4762 143.766 93.8969C143.766 93.8969 143.314 91.9644 141.688 92.167C140.062 92.3696 139.782 94.4528 140.785 95.7411C141.787 97.0294 142.753 96.5671 142.753 96.5671C142.753 96.5671 142.644 99.3152 141.387 100.848C141.387 100.848 139.99 101.263 137.449 100.661C135.891 100.292 133.714 98.2814 132.831 96.1827C130.956 91.7515 130.909 87.793 133.74 86.6709C134.088 84.6553 135.699 83.7825 137.527 83.4085C141.46 82.5981 143.99 85.0501 147.018 84.8371C148.738 84.6968 149.06 85.9488 147.995 87.8138Z" fill="#263238"/>
<path d="M133.662 87.3204L131.813 86.1723C131.974 85.948 132.215 85.7933 132.486 85.7396C132.757 85.6858 133.039 85.737 133.274 85.8828C133.509 86.0286 133.679 86.2581 133.751 86.525C133.824 86.7918 133.792 87.0761 133.662 87.3204Z" fill="#263238"/>
<path d="M170.068 117.622C169.096 118.053 157.652 126.511 155.87 125.529C154.089 124.547 144.93 113.846 144.93 113.846C144.159 112.65 143.749 111.258 143.749 109.835C143.749 108.413 144.159 107.02 144.93 105.825C144.93 105.825 147.865 106.37 149.403 108.692C150.94 111.014 157.569 119.331 157.569 119.331C159.204 118.511 160.837 117.679 162.468 116.838C163.808 116.142 165.154 115.451 166.463 114.703C166.833 114.534 167.182 114.321 167.502 114.069C168.151 113.425 168.021 111.877 168.021 111.035C168.023 110.641 168.004 110.248 167.964 109.856C167.907 109.378 167.813 108.199 168.681 108.573C168.846 108.653 168.989 108.772 169.096 108.921C169.232 109.099 169.336 109.3 169.403 109.513C169.569 110.033 169.517 110.552 169.668 111.072C169.683 111.147 169.719 111.217 169.772 111.274C169.81 111.305 169.854 111.329 169.901 111.343C169.948 111.357 169.998 111.362 170.047 111.357C171.304 111.321 172.499 109.555 173.081 108.614C173.287 108.166 173.619 107.787 174.037 107.523C174.728 107.201 175.554 107.664 176 108.282C176.542 109.101 176.764 110.09 176.624 111.061C176.51 112.381 175.926 113.617 174.977 114.542C173.532 115.845 171.87 116.888 170.068 117.622Z" fill="#FFA8A7"/>
<path d="M144 105.477C145.262 105.622 147.361 105.716 149.413 108.043C151.813 110.765 154.977 115.201 154.977 115.201C154.651 116.507 153.956 117.691 152.975 118.613C151.993 119.534 150.768 120.153 149.444 120.396C149.444 120.396 145.112 115.96 143.907 113.518C142.701 111.077 142.514 107.129 144 105.477Z" fill="#37474F"/>
</svg>
