<svg width="250" height="238" viewBox="0 0 250 238" fill="none" xmlns="http://www.w3.org/2000/svg">
<path d="M227.03 93.4674C226 99.2531 220.911 104.015 220.911 104.015C220.911 104.015 214.066 102.759 210.084 98.4317C206.762 94.8245 206.75 89.8721 209.756 87.9138C214.066 85.1043 217.685 92.9793 217.685 92.9793C217.685 92.9793 216.494 84.3959 221.643 84.4436C225.232 84.4614 227.887 88.64 227.03 93.4674Z" fill="#EBEBEB"/>
<path d="M242.453 79.6577C238.881 82.0922 233.756 81.8482 233.756 81.8482C233.756 81.8482 230.905 77.5982 231.137 73.2768C231.334 69.6696 233.935 67.122 236.494 67.6994C240.185 68.5268 237.899 74.4792 237.899 74.4792C237.899 74.4792 241.81 69.4434 244.447 72.1756C246.274 74.0863 245.441 77.628 242.453 79.6577Z" fill="#EBEBEB"/>
<path d="M94.5598 169.14C94.8634 173.455 92.0777 177.759 92.0777 177.759C92.0777 177.759 86.9646 178.086 83.3515 175.711C80.3337 173.729 79.4348 170.199 81.2325 168.265C83.8039 165.485 87.7801 170.455 87.7801 170.455C87.7801 170.455 85.3991 164.545 89.0717 163.652C91.667 163.033 94.3039 165.539 94.5598 169.14Z" fill="#EBEBEB"/>
<path d="M223.631 62.9851C222.185 65.4553 219.06 66.7708 219.06 66.7708C219.06 66.7708 216.149 65.0386 215.054 62.3958C214.143 60.1874 214.977 57.9255 216.679 57.5327C219.119 56.9732 219.447 61.1815 219.447 61.1815C219.447 61.1815 220.346 57.0565 222.691 57.9493C224.328 58.5684 224.84 60.9196 223.631 62.9851Z" fill="#EBEBEB"/>
<path d="M79.6488 152.116C78.2024 154.592 75.0774 155.902 75.0774 155.902C75.0774 155.902 72.1607 154.176 71.0714 151.527C70.1607 149.319 70.9881 147.057 72.6905 146.67C75.1369 146.11 75.4643 150.319 75.4643 150.319C75.4643 150.319 76.3631 146.194 78.7084 147.081C80.3572 147.7 80.8512 150.057 79.6488 152.116Z" fill="#EBEBEB"/>
<path d="M4.45264 107.545L34.5895 107.402L64.7265 107.348L125 107.247L185.274 107.348L215.411 107.396L245.548 107.545L215.411 107.688L185.274 107.741L125 107.842L64.7265 107.741L34.5895 107.688L4.45264 107.545Z" fill="#EBEBEB"/>
<path d="M4.45264 128.128L34.5895 127.985L64.7265 127.932L125 127.831L185.274 127.932L215.411 127.985L245.548 128.128L215.411 128.277L185.274 128.331L125 128.426L64.7265 128.325L34.5895 128.271L4.45264 128.128Z" fill="#EBEBEB"/>
<path d="M4.45264 148.718L34.5895 148.569L64.7265 148.515L125 148.42L185.274 148.515L215.411 148.569L245.548 148.718L215.411 148.86L185.274 148.914L125 149.015L64.7265 148.914L34.5895 148.86L4.45264 148.718Z" fill="#EBEBEB"/>
<path d="M4.45264 169.301L34.5895 169.158L64.7265 169.104L125 169.003L185.274 169.104L215.411 169.158L245.548 169.301L215.411 169.449L185.274 169.497L125 169.598L64.7265 169.497L34.5895 169.443L4.45264 169.301Z" fill="#EBEBEB"/>
<path d="M4.45264 45.7829L34.5895 45.64L64.7265 45.5864L125 45.4912L185.274 45.5864L215.411 45.64L245.548 45.7829L215.411 45.9317L185.274 45.9853L125 46.0805L64.7265 45.9853L34.5895 45.9317L4.45264 45.7829Z" fill="#EBEBEB"/>
<path d="M4.45264 66.3718L34.5895 66.229L64.7265 66.1754L125 66.0742L185.274 66.1754L215.411 66.223L245.548 66.3718L215.411 66.5147L185.274 66.5683L125 66.6695L64.7265 66.5683L34.5895 66.5147L4.45264 66.3718Z" fill="#EBEBEB"/>
<path d="M4.45264 86.9553L34.5895 86.8125L64.7265 86.7589L125 86.6577L185.274 86.7589L215.411 86.8125L245.548 86.9553L215.411 87.1041L185.274 87.1577L125 87.253L64.7265 87.1577L34.5895 87.1041L4.45264 86.9553Z" fill="#EBEBEB"/>
<path d="M4.45264 189.884L34.5895 189.741L64.7265 189.688L125 189.592L185.274 189.688L215.411 189.741L245.548 189.884L215.411 190.033L185.274 190.086L125 190.182L64.7265 190.086L34.5895 190.033L4.45264 189.884Z" fill="#EBEBEB"/>
<path d="M4.45264 210.473L34.5895 210.331L64.7265 210.277L125 210.176L185.274 210.277L215.411 210.331L245.548 210.473L215.411 210.616L185.274 210.67L125 210.771L64.7265 210.67L34.5895 210.616L4.45264 210.473Z" fill="#EBEBEB"/>
<path d="M145.584 29.0151L145.732 56.4675L145.786 83.9258L145.881 138.843L145.786 193.759L145.732 221.218L145.584 236.176L145.441 221.218L145.387 193.759L145.286 138.843L145.387 83.9258L145.441 56.4675L145.584 29.0151Z" fill="#EBEBEB"/>
<path d="M125 29.0151L125.143 56.4675L125.197 83.9258L125.298 138.843L125.197 193.759L125.149 221.218L125 236.176L124.851 221.218L124.804 193.759L124.703 138.843L124.804 83.9258L124.857 56.4675L125 29.0151Z" fill="#EBEBEB"/>
<path d="M104.417 29.0151L104.56 56.4675L104.613 83.9258L104.709 138.843L104.613 193.759L104.56 221.218L104.417 236.176L104.268 221.218L104.215 193.759L104.119 138.843L104.215 83.9258L104.268 56.4675L104.417 29.0151Z" fill="#EBEBEB"/>
<path d="M83.8279 29.0151L83.9708 56.4675L84.0243 83.9258L84.1255 138.843L84.0243 193.759L83.9767 221.218L83.8279 236.176L83.685 221.218L83.6315 193.759L83.5303 138.843L83.6315 83.9258L83.685 56.4675L83.8279 29.0151Z" fill="#EBEBEB"/>
<path d="M207.345 29.0151L207.488 56.4675L207.542 83.9258L207.643 138.843L207.542 193.759L207.488 221.218L207.345 236.176L207.197 221.218L207.143 193.759L207.048 138.843L207.149 83.9258L207.197 56.4675L207.345 29.0151Z" fill="#EBEBEB"/>
<path d="M186.756 29.0151L186.905 56.4675L186.953 83.9258L187.054 138.843L186.953 193.759L186.905 221.218L186.756 236.176L186.613 221.218L186.56 193.759L186.458 138.843L186.56 83.9258L186.613 56.4675L186.756 29.0151Z" fill="#EBEBEB"/>
<path d="M166.173 29.0151L166.316 56.4675L166.369 83.9258L166.47 138.843L166.369 193.759L166.316 221.218L166.173 236.176L166.024 221.218L165.976 193.759L165.875 138.843L165.976 83.9258L166.03 56.4675L166.173 29.0151Z" fill="#EBEBEB"/>
<path d="M227.929 29.0151L228.072 56.4675L228.125 83.9258L228.226 138.843L228.125 193.759L228.078 221.218L227.929 236.176L227.786 221.218L227.732 193.759L227.631 138.843L227.732 83.9258L227.786 56.4675L227.929 29.0151Z" fill="#EBEBEB"/>
<path d="M207.345 29.0151L207.488 56.4675L207.542 83.9258L207.643 138.843L207.542 193.759L207.488 221.218L207.345 236.176L207.197 221.218L207.143 193.759L207.048 138.843L207.149 83.9258L207.197 56.4675L207.345 29.0151Z" fill="#EBEBEB"/>
<path d="M63.2444 29.0151L63.3873 56.4675L63.4408 83.9258L63.542 138.843L63.4408 193.759L63.3873 221.218L63.2444 236.176L63.0956 221.218L63.042 193.759L62.9468 138.843L63.048 83.9258L63.0956 56.4675L63.2444 29.0151Z" fill="#EBEBEB"/>
<path d="M42.655 29.0151L42.8039 56.4675L42.8515 83.9258L42.9527 138.843L42.8574 193.759L42.8039 221.218L42.655 236.176L42.5122 221.218L42.4586 193.759L42.3574 138.843L42.4586 83.9258L42.5122 56.4675L42.655 29.0151Z" fill="#EBEBEB"/>
<path d="M22.0715 29.0151L22.2144 56.4675L22.268 83.9258L22.3692 138.843L22.268 193.759L22.2144 221.218L22.0715 236.176L21.9227 221.218L21.8751 193.759L21.7739 138.843L21.8751 83.9258L21.9227 56.4675L22.0715 29.0151Z" fill="#EBEBEB"/>
<path d="M231.673 4.02686H169.078V49.2114H231.673V4.02686Z" fill="#EBEBEB"/>
<path d="M225.762 9.9375H174.982V43.3065H225.762V9.9375Z" fill="white"/>
<path d="M225.762 9.9375H174.982V43.3065H225.762V9.9375Z" fill="white"/>
<path d="M225.762 9.93164H174.982V43.3007H225.762V9.93164Z" fill="white"/>
<g opacity="0.2">
<path d="M204.155 9.93164L174.982 39.1043V28.6221L193.673 9.93164H204.155Z" fill="#EBEBEB"/>
<path d="M225.762 22.0269V25.4792L207.935 43.3066H204.476L225.762 22.0269Z" fill="#EBEBEB"/>
<path d="M185.607 9.93164L174.982 20.5566V19.4019L184.452 9.93164H185.607Z" fill="#EBEBEB"/>
<path d="M225.762 32.8779V34.0327L216.488 43.3065H215.333L225.762 32.8779Z" fill="#EBEBEB"/>
<path d="M225.476 9.93164L192.107 43.3066H190.952L224.327 9.93164H225.476Z" fill="#EBEBEB"/>
</g>
<path d="M156.298 4.02686H93.7026V49.2114H156.298V4.02686Z" fill="#EBEBEB"/>
<path d="M150.393 9.9375H99.6133V43.3065H150.393V9.9375Z" fill="white"/>
<path d="M150.393 9.93164H99.6133V43.3007H150.393V9.93164Z" fill="white"/>
<g opacity="0.2">
<path d="M150.393 14.2178V24.6999L131.786 43.3071H121.304L150.393 14.2178Z" fill="#EBEBEB"/>
<path d="M123.345 9.93164L99.6133 33.6757V30.2174L119.899 9.93164H123.345Z" fill="#EBEBEB"/>
<path d="M108.792 9.93164L99.6133 19.1162V17.9674L107.643 9.93164H108.792Z" fill="#EBEBEB"/>
<path d="M150.393 31.438V32.5928L139.679 43.307H138.524L150.393 31.438Z" fill="#EBEBEB"/>
<path d="M130.584 9.93164L99.6133 40.9019V39.7471L129.429 9.93164H130.584Z" fill="#EBEBEB"/>
</g>
<path d="M80.9287 4.02686H18.3335V49.2114H80.9287V4.02686Z" fill="#EBEBEB"/>
<path d="M75.018 9.9375H24.2383V43.3065H75.018V9.9375Z" fill="white"/>
<g opacity="0.2">
<path d="M60.9228 9.93164L27.5538 43.3066H24.2383V36.134L50.4407 9.93164H60.9228Z" fill="#EBEBEB"/>
<path d="M75.0178 25.396V35.89L67.6011 43.3067H57.113L75.0178 25.396Z" fill="#EBEBEB"/>
<path d="M30.7859 9.93164L24.2383 16.4793V13.0328L27.3395 9.93164H30.7859Z" fill="#EBEBEB"/>
<path d="M75.0179 13.5391V14.6938L46.4048 43.3069H45.25L75.0179 13.5391Z" fill="#EBEBEB"/>
<path d="M46.9585 9.93164L24.2383 32.6519V31.4971L45.8038 9.93164H46.9585Z" fill="#EBEBEB"/>
</g>
<path d="M115.851 31.9378C111.143 29.7294 106.166 28.1466 101.048 27.2295C84.6844 24.3366 71.232 29.6104 62.7678 34.6461C59.2541 36.6679 55.983 39.0843 53.0178 41.8485C53.0178 41.8485 52.2975 28.8247 54.982 21.7533C60.8035 14.789 68.2439 7.57469 76.3392 2.98541H76.3809C77.9275 2.17174 79.5172 1.44249 81.1428 0.800881C83.8093 -0.153616 86.7063 -0.257599 89.4344 0.503262H89.5475C90.1964 0.667855 90.8362 0.866543 91.4642 1.0985H91.5416C96.4047 2.9735 104.446 8.44969 111.006 14.789C114.5 20.5747 115.851 31.9378 115.851 31.9378Z" fill="#BA68C8"/>
<g opacity="0.2">
<path d="M115.852 31.9378C111.144 29.7294 106.167 28.1466 101.048 27.2295C84.6849 24.3366 71.2325 29.6104 62.7682 34.6461C59.2546 36.6679 55.9834 39.0843 53.0183 41.8485C53.0183 41.8485 52.298 28.8247 54.9825 21.7533C60.804 14.789 68.2444 7.57469 76.3397 2.98541H76.3813C77.928 2.17174 79.5177 1.44249 81.1433 0.800881C83.8098 -0.153616 86.7068 -0.257599 89.4349 0.503262H89.548C90.1969 0.667855 90.8367 0.866543 91.4647 1.0985H91.5421C96.4051 2.9735 104.447 8.44969 111.006 14.789C114.5 20.5747 115.852 31.9378 115.852 31.9378Z" fill="black"/>
</g>
<path d="M102.482 111.45C101.887 112.313 101.202 113.164 100.536 114.015C93.8512 122.527 85.5357 130.087 76.6012 136.706C44.4583 160.515 4.22024 172.23 3.42857 172.456C17.8571 163.325 26.6012 145.337 26.6012 145.337C7.22024 139.759 0 131.605 0 131.605C23.7619 128.075 42.3988 121.486 56.8869 112.956C66.1342 107.599 74.421 100.735 81.4048 92.6462C90.4984 81.9465 96.9025 69.228 100.083 55.551C102.373 46.2806 102.702 36.6342 101.048 27.2296C98.0119 10.4022 89.4464 0.443848 89.4464 0.443848H89.5595C90.216 0.580429 90.8578 0.779757 91.4762 1.03909H91.5536C96.4167 2.91409 104.458 8.39028 111.018 14.7296C116.22 19.7474 120.494 25.3129 121.536 30.0569C124.054 41.5153 128.125 76.8188 102.482 111.45Z" fill="#BA68C8"/>
<path opacity="0.1" d="M105.405 107.319C104.476 108.7 103.502 110.077 102.482 111.45C101.887 112.313 101.202 113.164 100.536 114.021C93.8511 122.521 85.5356 130.093 76.6011 136.706C73.7796 138.795 70.8927 140.795 67.982 142.694C61.0356 135.337 51.5177 125.206 45.6011 118.807C49.4752 117.065 53.2507 115.112 56.9106 112.956C66.158 107.6 74.4449 100.735 81.4285 92.6461C83.7288 89.9555 85.8599 87.1246 87.8094 84.1699L105.405 107.319Z" fill="black"/>
<path d="M250 95.8309C230.607 102.23 221.548 107.932 221.548 107.932C221.548 107.932 243.042 117.265 249.524 132.902C249.524 132.902 226.738 126.748 210.571 132.063C198.107 136.17 171.214 156.498 134.417 156.498C115.441 156.498 94.875 152.569 76.5893 136.706C69.6191 130.67 62.9822 122.902 56.8869 112.956C55.9108 111.369 54.9465 109.714 53.9941 107.992C36.6012 76.6702 40.8036 45.9797 42.8096 40.2178C43.875 37.1642 48.381 29.6106 54.9703 21.7654C60.7917 14.8011 68.2322 7.58682 76.3274 2.99753L76.381 2.96777C76.0119 3.45587 65.9584 16.7475 62.7619 34.6523C61.0511 43.5691 61.5705 52.7704 64.2738 61.438C67.9896 72.824 73.8018 83.4147 81.4108 92.6642C87.3795 100.021 94.492 106.369 102.476 111.468C112.958 118.075 124.542 121.849 136.179 121.587C166.988 120.831 183.369 101.944 209.524 95.5392C229.762 90.5571 250 95.8309 250 95.8309Z" fill="#BA68C8"/>
<path d="M42.7318 182.641C51.6604 191.391 53.1663 204.92 51.2794 216.772C51.2318 217.039 50.8151 216.968 50.8151 216.712C50.8151 214.016 50.8985 211.355 50.8925 208.676C50.8389 208.557 50.8032 208.438 50.7497 208.319C48.4223 206.623 46.2794 204.706 44.9461 202.081C43.458 199.147 42.8687 195.837 41.7258 192.772C41.6247 192.48 41.9342 192.569 42.1425 192.718C47.577 196.724 49.2854 201.051 50.8687 206.801C50.8332 203.786 50.5164 200.781 49.9223 197.825C48.7318 192.361 46.4223 186.938 42.4937 182.879C42.3449 182.724 42.577 182.486 42.7318 182.641Z" fill="#263238"/>
<path d="M41.0712 183.664C39.5355 183.712 38.5712 186.17 37.3747 186.884C37.2494 186.987 37.1039 187.062 36.9477 187.104C36.7915 187.147 36.6282 187.156 36.4682 187.131C36.3083 187.106 36.1553 187.048 36.0192 186.961C35.8831 186.873 35.767 186.758 35.6783 186.622C34.4878 184.962 36.1188 182.92 37.6486 181.777C36.5533 182.224 35.6426 183.015 34.464 183.242C34.3127 183.291 34.1526 183.307 33.9944 183.289C33.8363 183.271 33.6838 183.22 33.5473 183.138C33.4108 183.056 33.2934 182.946 33.203 182.815C33.1127 182.684 33.0515 182.535 33.0236 182.378C32.5057 180.122 35.339 179.116 37.2855 179.069C36.3093 178.42 33.6247 176.634 35.0593 175.759C36.4938 174.884 39.6783 177.426 40.714 178.265C42.2319 179.497 44.0414 181.337 44.1128 183.265C44.2021 185.515 42.2617 184.134 41.0712 183.664Z" fill="#BA68C8"/>
<path opacity="0.1" d="M41.0712 183.664C39.5355 183.712 38.5712 186.17 37.3747 186.884C37.2494 186.987 37.1039 187.062 36.9477 187.104C36.7915 187.147 36.6282 187.156 36.4682 187.131C36.3083 187.106 36.1553 187.048 36.0192 186.961C35.8831 186.873 35.767 186.758 35.6783 186.622C34.4878 184.962 36.1188 182.92 37.6486 181.777C36.5533 182.224 35.6426 183.015 34.464 183.242C34.3127 183.291 34.1526 183.307 33.9944 183.289C33.8363 183.271 33.6838 183.22 33.5473 183.138C33.4108 183.056 33.2934 182.946 33.203 182.815C33.1127 182.684 33.0515 182.535 33.0236 182.378C32.5057 180.122 35.339 179.116 37.2855 179.069C36.3093 178.42 33.6247 176.634 35.0593 175.759C36.4938 174.884 39.6783 177.426 40.714 178.265C42.2319 179.497 44.0414 181.337 44.1128 183.265C44.2021 185.515 42.2617 184.134 41.0712 183.664Z" fill="black"/>
<path d="M41.4998 184.039C39.5296 183.147 35.7557 184.432 35.4343 183.688C34.7855 182.176 37.8153 181.135 39.4284 180.938C37.9284 180.527 35.0593 179.885 35.1426 178.438C35.2557 176.652 39.5534 178.188 41.726 179.855C44.47 181.962 44.4522 183.986 43.9998 184.397C43.3748 184.968 41.8212 184.188 41.4998 184.039Z" fill="#BA68C8"/>
<path d="M63.0951 181.777C53.8332 190.176 51.8213 203.641 53.2498 215.557C53.2915 215.825 53.7082 215.771 53.7201 215.516C53.8213 212.819 53.8391 210.158 53.9522 207.48C54.0058 207.361 54.0474 207.248 54.101 207.129C56.482 205.522 58.7141 203.688 60.1427 201.117C61.7439 198.242 62.4522 194.956 63.7141 191.938C63.8272 191.652 63.5117 191.724 63.3034 191.867C57.7201 195.664 55.8272 199.908 54.0474 205.611C54.1938 202.601 54.6243 199.611 55.3332 196.682C56.7141 191.26 59.2439 185.932 63.3213 182.027C63.3544 181.997 63.3743 181.956 63.3765 181.911C63.3787 181.866 63.3631 181.823 63.3332 181.789C63.3032 181.756 63.2612 181.736 63.2166 181.734C63.1719 181.732 63.1282 181.747 63.0951 181.777Z" fill="#263238"/>
<path d="M64.714 182.861C66.2497 182.968 67.0949 185.462 68.2854 186.224C68.4066 186.331 68.5492 186.412 68.7037 186.46C68.8582 186.508 69.0212 186.523 69.1819 186.504C69.3426 186.485 69.4975 186.432 69.6364 186.349C69.7753 186.266 69.895 186.154 69.9878 186.022C71.2378 184.409 69.6901 182.307 68.202 181.105C69.2794 181.599 70.1544 182.42 71.327 182.694C71.4765 182.748 71.6356 182.769 71.7938 182.757C71.952 182.744 72.1058 182.698 72.2448 182.621C72.3839 182.545 72.5051 182.439 72.6003 182.312C72.6956 182.185 72.7627 182.04 72.7973 181.885C73.3925 179.647 70.6068 178.54 68.6663 178.415C69.6366 177.819 72.4044 176.123 70.9997 175.188C69.5949 174.254 66.3211 176.682 65.2556 177.48C63.6901 178.67 61.8092 180.426 61.6842 182.349C61.4997 184.593 63.5175 183.284 64.714 182.861Z" fill="#BA68C8"/>
<path opacity="0.1" d="M64.714 182.861C66.2497 182.968 67.0949 185.462 68.2854 186.224C68.4066 186.331 68.5492 186.412 68.7037 186.46C68.8582 186.508 69.0212 186.523 69.1819 186.504C69.3426 186.485 69.4975 186.432 69.6364 186.349C69.7753 186.266 69.895 186.154 69.9878 186.022C71.2378 184.409 69.6901 182.307 68.202 181.105C69.2794 181.599 70.1544 182.42 71.327 182.694C71.4765 182.748 71.6356 182.769 71.7938 182.757C71.952 182.744 72.1058 182.698 72.2448 182.621C72.3839 182.545 72.5051 182.439 72.6003 182.312C72.6956 182.185 72.7627 182.04 72.7973 181.885C73.3925 179.647 70.6068 178.54 68.6663 178.415C69.6366 177.819 72.4044 176.123 70.9997 175.188C69.5949 174.254 66.3211 176.682 65.2556 177.48C63.6901 178.67 61.8092 180.426 61.6842 182.349C61.4997 184.593 63.5175 183.284 64.714 182.861Z" fill="black"/>
<path d="M64.2854 183.218C66.2854 182.402 70.0056 183.813 70.3568 183.099C71.0652 181.611 68.089 180.462 66.4699 180.194C67.9818 179.849 70.8806 179.313 70.8449 177.861C70.8092 176.075 66.4521 177.444 64.214 179.051C61.3925 181.045 61.333 183.075 61.7735 183.498C62.3449 184.057 63.9283 183.355 64.2854 183.218Z" fill="#BA68C8"/>
<path d="M53.6068 203.962C52.9814 208.454 52.0204 212.893 50.7318 217.242C50.7063 217.319 50.6533 217.384 50.5828 217.425C50.5123 217.466 50.4293 217.48 50.3494 217.464C50.2695 217.448 50.1982 217.403 50.1492 217.338C50.1001 217.273 50.0766 217.192 50.083 217.111C50.6783 213.021 51.8033 209.004 52.4104 204.908C53.0735 200.767 53.3128 196.569 53.1247 192.379C52.7318 185.486 50.8568 178.146 46.3568 172.736C46.2616 172.611 46.4699 172.426 46.5711 172.545C55.583 183.063 54.1664 195.95 54.1664 197.099C55.4402 192.754 56.7556 187.765 61.5771 183.337C61.7854 183.146 61.9521 183.236 61.9164 183.563C61.0533 191.629 58.8092 195.843 54.1307 200.152C53.9759 201.432 53.8092 202.706 53.6068 203.962Z" fill="#263238"/>
<path d="M46.2795 173.956C44.6545 173.236 42.4223 175.301 40.8152 175.444C40.6334 175.486 40.4448 175.49 40.2616 175.455C40.0783 175.42 39.9044 175.346 39.7513 175.24C39.5981 175.133 39.469 174.996 39.3724 174.836C39.2757 174.676 39.2137 174.498 39.1902 174.313C38.7914 171.998 41.5116 170.694 43.6783 170.277C42.3152 170.194 40.9699 170.557 39.6366 170.2C39.4547 170.175 39.2803 170.112 39.1251 170.014C38.9698 169.916 38.8375 169.786 38.737 169.633C38.6365 169.479 38.5702 169.306 38.5426 169.124C38.515 168.943 38.5268 168.757 38.5771 168.581C39.1723 165.974 42.6188 166.361 44.6604 167.289C44.0116 166.135 42.1069 162.926 44.0652 162.742C46.0235 162.557 48.0235 166.795 48.6723 168.188C49.6307 170.23 50.583 173.057 49.6783 175.093C48.6128 177.468 47.2676 175.045 46.2795 173.956Z" fill="#BA68C8"/>
<path opacity="0.1" d="M46.2795 173.956C44.6545 173.236 42.4223 175.301 40.8152 175.444C40.6334 175.486 40.4448 175.49 40.2616 175.455C40.0783 175.42 39.9044 175.346 39.7513 175.24C39.5981 175.133 39.469 174.996 39.3724 174.836C39.2757 174.676 39.2137 174.498 39.1902 174.313C38.7914 171.998 41.5116 170.694 43.6783 170.277C42.3152 170.194 40.9699 170.557 39.6366 170.2C39.4547 170.175 39.2803 170.112 39.1251 170.014C38.9698 169.916 38.8375 169.786 38.737 169.633C38.6365 169.479 38.5702 169.306 38.5426 169.124C38.515 168.943 38.5268 168.757 38.5771 168.581C39.1723 165.974 42.6188 166.361 44.6604 167.289C44.0116 166.135 42.1069 162.926 44.0652 162.742C46.0235 162.557 48.0235 166.795 48.6723 168.188C49.6307 170.23 50.583 173.057 49.6783 175.093C48.6128 177.468 47.2676 175.045 46.2795 173.956Z" fill="black"/>
<path d="M46.5475 174.575C44.9582 172.659 40.3927 172.093 40.4344 171.159C40.5237 169.26 44.1784 169.7 45.9641 170.313C44.6129 169.123 41.9582 167.022 42.7796 165.551C43.7796 163.766 47.476 167.516 48.8927 170.313C50.6784 173.885 49.6427 175.974 48.9641 176.165C48.0415 176.468 46.8094 174.891 46.5475 174.575Z" fill="#BA68C8"/>
<path d="M59.5236 206.397L63.4998 236.754H39.3271C39.8271 234.063 44.3271 206.355 44.3271 206.355L59.5236 206.397Z" fill="#BA68C8"/>
<path d="M192.911 167.706C192.911 167.706 192.911 167.759 192.869 167.854C192.827 167.95 192.833 168.009 192.804 168.116C192.679 168.616 192.434 169.563 192.095 170.902C191.351 173.825 190.131 178.64 188.583 184.688C188.411 185.342 188.244 186.015 188.065 186.7C187.994 187.015 187.905 187.331 187.827 187.646C185.399 197.17 182.339 209.212 179.125 221.831C179.071 222.057 179.012 222.283 178.952 222.509C178.548 224.092 178.149 225.676 177.762 227.271L177.72 227.444L177.679 227.622C176.905 230.658 176.131 233.712 175.351 236.759H129.518C131.452 229.842 133.417 222.878 135.321 216.176C138.476 205.027 141.452 194.598 143.833 186.289C146.488 177.039 148.405 170.42 148.994 168.372C149.113 167.944 149.179 167.723 149.179 167.723L192.911 167.706Z" fill="#F7A9A0"/>
<path d="M177.655 227.616C177.655 227.616 133.524 215.955 132.702 215.325C131.881 214.694 149.172 167.836 149.172 167.836H192.911L177.655 227.616Z" fill="#263238"/>
<path d="M178.042 219.348C164.911 215.009 151.601 211.17 138.161 207.943C138.131 207.941 138.101 207.948 138.076 207.965C138.051 207.981 138.033 208.006 138.023 208.034C138.014 208.063 138.015 208.094 138.026 208.121C138.037 208.149 138.057 208.173 138.083 208.188C151.179 212.568 164.524 216.36 177.964 219.634C178.001 219.64 178.038 219.632 178.069 219.612C178.1 219.592 178.122 219.561 178.132 219.526C178.141 219.49 178.137 219.453 178.121 219.42C178.104 219.387 178.076 219.361 178.042 219.348Z" fill="#455A64"/>
<path d="M215.554 236.753H171.673C171.536 233.289 171.411 230.074 171.304 227.229C171.304 227.164 171.304 227.098 171.304 227.039C171.304 226.652 171.304 226.271 171.256 225.896C171.256 225.687 171.256 225.485 171.256 225.301C171.256 225.116 171.256 224.759 171.22 224.491C171.184 224.223 171.22 223.848 171.184 223.539C171.149 223.229 171.155 222.753 171.143 222.378C171.143 221.747 171.089 221.158 171.071 220.592C171.071 220.354 171.071 220.128 171.071 219.902C171.071 219.676 171.071 219.437 171.042 219.217C171.042 219.158 171.042 219.098 171.042 219.039C171.042 218.616 171.012 218.217 170.994 217.848C170.976 217.479 170.994 217.253 170.964 217.027C170.974 216.854 170.974 216.681 170.964 216.509V216.515C170.934 215.824 170.923 215.455 170.923 215.455L170.833 215.402C170.571 215.241 170.309 215.086 170.054 214.943C170.054 214.943 170.054 214.943 170.018 214.943L169.524 214.652L169.274 214.503L168.417 214.021C167.899 213.729 167.393 213.455 166.905 213.193L165.714 212.551L164.595 211.955L163.554 211.437L162.589 210.979C162.405 210.884 162.22 210.801 162.048 210.723L161.577 210.503C160.387 209.973 159.512 209.61 158.952 209.396C158.524 209.229 158.286 209.146 158.256 209.128C158.149 208.836 158.048 208.533 157.94 208.235C157.595 207.223 157.262 206.181 156.952 205.134C156.024 202.039 155.214 198.789 154.524 195.545C154.292 194.467 154.077 193.39 153.863 192.318C153.488 190.366 153.155 188.437 152.857 186.58C151.333 177.056 150.774 169.122 150.69 167.872C150.69 167.801 150.69 167.747 150.69 167.723H193.423H210.179C210.179 167.723 210.345 169.818 210.643 173.497C210.643 173.872 210.702 174.259 210.726 174.687C210.905 176.854 211.107 179.449 211.321 182.426C211.351 182.836 211.387 183.247 211.417 183.67C211.536 185.174 211.663 186.761 211.798 188.431C211.875 189.408 211.952 190.414 212.03 191.443C212.065 191.824 212.089 192.199 212.125 192.586C212.3 194.84 212.482 197.195 212.673 199.652C213.173 206.098 213.72 213.14 214.286 220.42C214.286 220.527 214.286 220.64 214.286 220.753C214.429 222.622 214.571 224.499 214.714 226.384C215.024 229.801 215.292 233.283 215.554 236.753Z" fill="#F7A9A0"/>
<path d="M172.024 232.551C171.996 231.138 171.944 229.73 171.869 228.325C171.72 225.48 171.553 222.64 171.303 219.801C171.161 218.2 171.077 216.587 170.875 214.985C170.875 214.967 170.867 214.948 170.854 214.935C170.841 214.922 170.822 214.914 170.803 214.914C170.785 214.914 170.766 214.922 170.753 214.935C170.74 214.948 170.732 214.967 170.732 214.985C170.696 216.396 170.732 217.807 170.78 219.218C170.827 220.628 170.78 222.033 170.845 223.444C170.94 226.283 171.089 229.134 171.298 231.968C171.357 232.759 171.434 233.551 171.506 234.349C171.538 235.128 171.652 235.902 171.845 236.658C171.849 236.667 171.855 236.675 171.863 236.681C171.871 236.686 171.88 236.689 171.89 236.689C171.899 236.689 171.909 236.686 171.917 236.681C171.925 236.675 171.931 236.667 171.934 236.658C172.035 235.99 172.073 235.315 172.048 234.64C172.024 233.938 172.024 233.241 172.024 232.551Z" fill="#263238"/>
<path d="M150.595 167.706C150.595 167.706 151.863 188.622 156.869 205.134C157.262 206.503 157.696 207.848 158.16 209.128C158.16 209.128 163.178 210.878 170.857 215.45C170.857 215.45 171.041 220.122 171.309 227.271C184.071 227.914 213.863 226.991 217.553 225.962C215.226 195.682 210.184 167.706 210.184 167.706H150.595Z" fill="#263238"/>
<path d="M176.363 217.706C174.357 216.313 172.196 215.146 170.065 213.944C167.934 212.741 165.678 211.563 163.417 210.479C158.952 208.51 154.36 206.844 149.672 205.491C149.553 205.456 149.476 205.646 149.595 205.694C154.071 207.622 158.417 209.825 162.875 211.807C165.119 212.801 167.375 213.753 169.619 214.741C171.863 215.729 174.053 216.848 176.315 217.795C176.326 217.797 176.338 217.795 176.348 217.79C176.357 217.785 176.366 217.777 176.371 217.767C176.376 217.757 176.378 217.746 176.377 217.735C176.375 217.724 176.37 217.714 176.363 217.706Z" fill="#455A64"/>
<path d="M164.107 195.789C164.048 193.593 163.893 191.396 163.786 189.206C163.53 184.021 163.327 178.807 162.845 173.64C162.845 173.598 162.828 173.557 162.798 173.527C162.768 173.496 162.727 173.479 162.684 173.479C162.642 173.479 162.601 173.496 162.571 173.527C162.541 173.557 162.524 173.598 162.524 173.64C162.458 177.646 162.613 181.67 162.696 185.676C162.738 187.682 162.798 189.688 162.851 191.694C162.961 193.609 162.973 195.528 162.887 197.444C162.78 198.89 162.464 201.694 160.577 201.872C158.792 202.033 157.827 200.116 157.381 198.712C156.256 195.14 155.857 191.289 155.494 187.575C155.274 185.378 155.06 183.188 154.899 180.979C154.698 178.728 154.624 176.466 154.679 174.206C154.679 174.063 154.464 174.075 154.458 174.206C154.333 176.474 154.024 178.724 153.946 180.997C153.869 183.271 153.863 185.527 154.012 187.777C154.161 190.027 154.333 192.122 154.661 194.265C154.878 196.228 155.346 198.154 156.054 199.997C156.708 201.515 157.839 202.914 159.536 203.247C159.743 203.289 159.955 203.311 160.167 203.313C160.167 203.777 160.25 204.247 160.286 204.706C160.339 205.432 160.429 206.158 160.524 206.878C160.626 207.588 160.775 208.29 160.97 208.979C161.123 209.679 161.372 210.354 161.708 210.985C161.72 211.008 161.738 211.026 161.761 211.036C161.784 211.046 161.81 211.047 161.834 211.04C161.859 211.033 161.879 211.018 161.893 210.997C161.907 210.976 161.913 210.951 161.911 210.926C161.928 210.231 161.87 209.537 161.738 208.854C161.643 208.146 161.542 207.432 161.399 206.735C161.256 206.039 161.125 205.36 160.988 204.676C160.893 204.218 160.827 203.741 160.738 203.277C161.289 203.182 161.808 202.951 162.248 202.605C162.687 202.258 163.034 201.808 163.256 201.295C164.089 199.622 164.149 197.628 164.107 195.789Z" fill="#455A64"/>
<path d="M170.929 214.985C170.929 214.963 170.92 214.942 170.904 214.926C170.888 214.911 170.867 214.902 170.845 214.902C170.823 214.902 170.802 214.911 170.786 214.926C170.771 214.942 170.762 214.963 170.762 214.985C170.708 215.997 170.72 225.069 171.107 227.009C171.115 227.033 171.13 227.054 171.15 227.068C171.171 227.083 171.195 227.091 171.22 227.091C171.245 227.091 171.27 227.083 171.29 227.068C171.31 227.054 171.325 227.033 171.333 227.009C171.631 225.057 171.065 215.991 170.929 214.985Z" fill="#455A64"/>
<path d="M214.881 220.372C201.053 220.455 187.214 221.068 173.44 222.307C173.411 222.313 173.385 222.329 173.366 222.352C173.347 222.376 173.337 222.405 173.337 222.435C173.337 222.464 173.347 222.493 173.366 222.517C173.385 222.54 173.411 222.556 173.44 222.563C187.25 222.527 201.089 221.872 214.881 220.682C214.922 220.682 214.961 220.665 214.99 220.636C215.019 220.607 215.036 220.568 215.036 220.527C215.036 220.486 215.019 220.446 214.99 220.417C214.961 220.388 214.922 220.372 214.881 220.372Z" fill="#455A64"/>
<path d="M211.672 194.521C208.53 194.741 205.422 195.146 202.268 194.771C199.298 194.467 196.468 193.358 194.083 191.563C188.899 187.539 186.625 180.961 185.22 174.789C185.212 174.764 185.195 174.742 185.173 174.729C185.15 174.715 185.124 174.709 185.098 174.712C185.071 174.716 185.047 174.728 185.03 174.748C185.012 174.767 185.001 174.792 185 174.819C185.595 180.176 186.738 185.711 190.196 190.021C191.684 191.915 193.564 193.465 195.708 194.563C197.982 195.618 200.47 196.132 202.976 196.063C205.923 196.034 208.855 195.634 211.702 194.872C211.739 194.857 211.769 194.831 211.79 194.798C211.811 194.764 211.82 194.725 211.817 194.686C211.813 194.646 211.797 194.609 211.772 194.58C211.746 194.55 211.711 194.529 211.672 194.521Z" fill="#455A64"/>
<path d="M143 49.5864C146.071 47.6519 157.732 43.1102 167.166 41.4614C171.738 40.6579 185.125 39.759 186.006 43.2471C186.887 46.7352 183 47.3245 183 47.3245C183 47.3245 188.714 47.7888 189.285 51.3543C189.857 54.9198 183.774 55.6757 183.774 55.6757C183.774 55.6757 189.607 56.5805 189.922 60.1817C190.238 63.7829 183.97 63.515 183.97 63.515C183.97 63.515 189.327 64.1102 188.351 67.1698C187.16 70.8662 177.381 68.6817 172.363 69.8245C171.226 70.0805 149.655 76.7055 149.655 76.7055L143 49.5864Z" fill="#F7A9A0"/>
<path d="M183.928 63.5388C176.732 61.9495 173.309 62.5031 166.482 64.9555C166.351 65.009 166.244 64.8186 166.381 64.7531C172.845 61.7412 177.042 60.4317 184.024 63.1936C184.345 63.3424 184.25 63.6281 183.928 63.5388Z" fill="#263238"/>
<path d="M184.083 55.6223C176.464 54.6223 172.744 55.1878 165.411 57.2354C165.303 57.2652 165.244 57.0926 165.345 57.0509C172.375 54.4438 176.589 53.2295 184.071 55.2295C184.411 55.3188 184.428 55.67 184.083 55.6223Z" fill="#263238"/>
<path d="M182.369 47.2474C174.929 46.8128 170.821 47.2474 163.952 50.1581C163.921 50.1687 163.887 50.1675 163.856 50.1546C163.825 50.1418 163.8 50.1182 163.786 50.0884C163.771 50.0585 163.768 50.0243 163.777 49.9922C163.785 49.9601 163.806 49.9323 163.833 49.914C170.548 46.2712 175.667 45.6819 182.357 47.0212C182.815 47.1105 182.839 47.2771 182.369 47.2474Z" fill="#263238"/>
<path d="M145.482 79.8481C145.482 79.8481 154.619 81.1815 158.762 80.8839C162.905 80.5862 177.934 73.7827 176.619 70.4493C174.964 66.1517 165.512 68.372 161.024 70.0624C161.024 70.0624 157.196 60.1101 150.071 60.2351C142.946 60.3601 145.482 79.8481 145.482 79.8481Z" fill="#F7A9A0"/>
<path d="M175.803 69.4196C171.464 66.5923 165.72 69.1875 161.244 70.503C161.179 70.5263 161.11 70.5334 161.041 70.5237C160.973 70.514 160.908 70.4877 160.853 70.4472C160.797 70.4068 160.752 70.3532 160.721 70.2914C160.691 70.2295 160.676 70.1611 160.678 70.0923C158.797 66.0268 154.958 60.8482 150.303 60.0268C150.275 60.0268 150.248 60.0155 150.228 59.9954C150.208 59.9753 150.196 59.9481 150.196 59.9196C150.196 59.8912 150.208 59.864 150.228 59.8439C150.248 59.8238 150.275 59.8125 150.303 59.8125C155.417 60.0149 159.601 64.7946 161.381 69.378C165.946 67.9554 171.827 65.6042 175.815 69.378C175.857 69.4018 175.833 69.4375 175.803 69.4196Z" fill="#263238"/>
<path d="M147.024 125.61C147.661 125.646 150.637 125.824 154.982 126.098C156.607 123.384 158.554 118.539 158.071 111.562C157.976 110.408 160.452 117.116 159.024 126.348C167.429 126.866 178.863 127.539 188.851 128.068C189.19 124.175 189.679 120.58 189.679 120.58C189.897 123.151 190.348 125.697 191.024 128.187C192.387 128.271 193.726 128.324 195.012 128.39C194.946 122.318 196.375 111.8 196.375 111.8C196.884 117.614 198.341 123.304 200.69 128.646C207.036 128.908 211.22 128.961 210.964 128.646C201.768 117.277 209.036 111.199 206.667 101.402C203.827 89.6636 193.881 87.4493 194.5 78.735C194.988 71.6457 196.351 58.7945 187.488 55.7112C187.488 55.7112 180.494 47.4493 168.869 51.4195C154.5 56.3183 159.292 78.4195 158.155 82.8362C156.542 89.1457 153.429 91.2767 150.899 98.4493C148.369 105.622 151.494 110.699 151.673 115.711C151.851 120.723 145.423 125.539 147.024 125.61Z" fill="#263238"/>
<path d="M211.309 127.087C210.066 125.122 209.106 122.992 208.458 120.759C207.815 118.569 208.214 116.36 208.732 114.093C209.331 111.796 209.808 109.469 210.161 107.122C210.51 104.674 210.367 102.181 209.738 99.789C209.052 97.3987 207.831 95.1961 206.167 93.3485C204.545 91.5926 202.779 89.9758 200.887 88.5152C199.101 87.0152 197.315 85.539 196.018 83.6581C194.667 81.7685 193.858 79.5455 193.678 77.2295C193.49 79.63 194.034 82.0313 195.238 84.1164C196.512 86.155 198.085 87.9909 199.905 89.5628C201.64 91.0864 203.274 92.7208 204.797 94.4557C206.24 96.1511 207.298 98.1393 207.899 100.283C208.446 102.451 208.589 104.7 208.321 106.92C208.107 109.188 207.595 111.456 207.202 113.801C206.99 114.992 206.869 116.198 206.839 117.408C206.843 118.65 207.068 119.882 207.506 121.045C208.402 123.27 209.69 125.316 211.309 127.087Z" fill="#263238"/>
<path d="M160.542 59.271C159.351 61.9198 158.821 64.8246 158.297 67.6698C157.774 70.515 157.506 73.4139 157.208 76.2889L156.738 80.5746C156.605 81.9583 156.338 83.3258 155.94 84.6579C155.137 87.2888 153.559 89.5508 151.774 91.8484C150.876 93.0274 150.057 94.2642 149.321 95.5508C148.59 96.8712 148.007 98.2686 147.583 99.7174C147.213 101.164 146.951 102.637 146.797 104.122C146.642 105.618 146.668 107.127 146.875 108.616C147.077 110.104 147.47 111.521 147.738 112.902C148.039 114.272 148.211 115.667 148.25 117.069C148.357 119.842 146.797 122.545 144.494 124.265C145.799 123.551 146.907 122.525 147.719 121.278C148.531 120.032 149.022 118.604 149.149 117.122C149.228 115.643 149.159 114.159 148.94 112.694C148.744 111.235 148.428 109.836 148.345 108.456C148.165 105.674 148.492 102.882 149.309 100.217C149.722 98.9049 150.269 97.6384 150.94 96.4377C151.653 95.2238 152.449 94.0603 153.321 92.9555C154.167 91.7948 155.053 90.6103 155.821 89.3127C156.605 88.0063 157.221 86.6064 157.655 85.146C158.043 83.6971 158.29 82.214 158.393 80.7174C158.53 79.265 158.607 77.8186 158.684 76.3781C158.851 73.4912 158.982 70.6162 159.226 67.7531C159.371 64.888 159.812 62.0455 160.542 59.271Z" fill="#263238"/>
<path d="M169.125 114.17C159.524 115.325 109.095 109.426 104.167 92.9139C99.238 76.402 127.565 57.0865 145.19 48.4377C148.595 46.7651 155.542 73.6163 150.315 77.8305C145.178 81.9972 136.155 86.3067 136.994 86.9615C137.833 87.6163 157.143 95.0865 172.476 103.503C181.393 108.402 176.5 113.301 169.125 114.17Z" fill="#F7A9A0"/>
<path d="M138.298 114.551L144.601 90.2173C144.601 90.2173 162.744 97.1994 172.714 102.616C182.685 108.033 183.976 113.64 167.417 114.586C157.719 115.165 147.994 115.153 138.298 114.551Z" fill="#37474F"/>
<path d="M144.964 113.229C145.849 109.951 146.643 106.648 147.345 103.318C147.696 101.682 148.077 100.051 148.399 98.4018C148.72 96.753 148.952 94.9851 149.286 93.2827C149.286 93.1637 149.131 93.1101 149.101 93.2351C148.72 94.8601 148.22 96.4613 147.827 98.0863C147.434 99.7113 147.083 101.461 146.714 103.146C145.988 106.475 145.345 109.822 144.786 113.187C144.804 113.283 144.94 113.324 144.964 113.229Z" fill="#263238"/>
<path d="M140.53 186.158L144.762 178.14L149.589 151.39C149.589 151.39 142.857 139.729 146.774 131.307C148.738 127.051 163.982 106.253 171.238 100.991C178.041 96.0509 187.905 101.337 191.595 105.206C205.762 120.087 209.732 148.17 214.809 188.491L140.53 186.158Z" fill="#455A64"/>
<path d="M181.113 132.807C180.54 133.65 179.902 134.446 179.202 135.188C176.226 138.337 172.696 140.176 171.815 140.241L173.839 137.182L171.75 136.033C173.636 135.163 175.378 134.011 176.917 132.616C177.645 131.95 178.306 131.214 178.893 130.42C179.543 131.295 180.287 132.096 181.113 132.807Z" fill="#BA68C8"/>
<path d="M178.893 130.396C178.306 131.19 177.645 131.925 176.917 132.592C175.351 130.521 174.19 128.122 174.131 125.509C174.071 123.003 175.214 120.443 177.869 119.938C176.94 120.872 176.768 122.914 176.768 122.914C176.462 125.59 177.225 128.28 178.893 130.396Z" fill="#BA68C8"/>
<path d="M183.613 125.295C183.563 127.995 182.691 130.616 181.113 132.807C180.286 132.088 179.541 131.28 178.893 130.396C179.685 129.354 180.262 128.165 180.59 126.898C180.918 125.631 180.991 124.311 180.803 123.015C180.803 120.932 179.904 120.003 179.851 119.95C182.375 120.509 183.613 123.146 183.613 125.295Z" fill="#BA68C8"/>
<path d="M184.036 137.051L185.97 140.087C183.35 139.019 180.994 137.394 179.065 135.325C179.809 134.543 180.494 133.708 181.113 132.825C182.556 134.072 184.157 135.122 185.875 135.95L184.036 137.051Z" fill="#BA68C8"/>
<path d="M180.804 123.015C180.601 121.664 176.923 121.872 176.768 122.914C176.768 122.914 176.94 120.872 177.869 119.938C178.195 119.874 178.525 119.842 178.857 119.842C179.191 119.843 179.524 119.879 179.851 119.949C179.905 120.003 180.804 120.932 180.804 123.015Z" fill="#BA68C8"/>
<path d="M182.702 104.824C182.988 111.419 206.952 169.902 206.893 172.306C206.893 172.306 234.649 188.062 237.934 172.664C241.22 157.265 210.399 126.539 197.309 111.259C191.964 105.021 182.357 96.7826 182.702 104.824Z" fill="#F7A9A0"/>
<path d="M215.577 129.408L191.887 135.223C191.887 135.223 184.291 117.539 182.601 108.938C180.982 100.699 184.155 95.7947 194.821 106.557C207.964 119.789 215.577 129.408 215.577 129.408Z" fill="#37474F"/>
<path d="M209.881 125.723C208.29 125.9 206.711 126.176 205.155 126.551C203.595 126.872 202.035 127.223 200.488 127.574C198.94 127.926 197.351 128.295 195.797 128.688C194.244 129.08 192.637 129.586 191.035 130.033C190.946 130.033 190.982 130.211 191.077 130.194C192.649 129.914 194.232 129.682 195.803 129.36C197.375 129.039 198.916 128.682 200.476 128.325C202.035 127.967 203.607 127.604 205.16 127.211C206.775 126.862 208.365 126.411 209.922 125.86C209.941 125.855 209.956 125.842 209.965 125.825C209.974 125.809 209.976 125.789 209.97 125.771C209.964 125.753 209.952 125.738 209.935 125.729C209.918 125.72 209.899 125.718 209.881 125.723Z" fill="#263238"/>
<path d="M182.202 180.896C170.494 177.402 158.393 172.009 150.655 161.884C149.763 160.783 149.268 159.414 149.25 157.997C145.678 153.521 146.738 150.497 146.738 150.497C144.696 145.313 146.19 142.366 146.19 142.366C146.19 142.366 142.065 137.063 144.857 134.033C147.976 130.634 153.155 138.741 158.732 141.461C171.506 147.688 191.405 152.961 195.268 154.39L182.202 180.896Z" fill="#F7A9A0"/>
<path d="M167.524 157.396C163.804 155.491 160.095 153.718 156.649 151.313C152.869 148.682 149.673 145.509 146.339 142.384C146.33 142.374 146.318 142.365 146.305 142.359C146.292 142.353 146.278 142.35 146.263 142.349C146.249 142.349 146.234 142.351 146.221 142.356C146.207 142.361 146.195 142.369 146.185 142.378C146.174 142.388 146.165 142.4 146.159 142.413C146.153 142.426 146.15 142.44 146.149 142.454C146.149 142.469 146.151 142.483 146.156 142.497C146.161 142.51 146.169 142.522 146.179 142.533C151.31 149.164 159.524 154.801 167.44 157.587C167.631 157.634 167.714 157.491 167.524 157.396Z" fill="#263238"/>
<path d="M164.881 165.652C161.363 163.598 155.202 159.944 146.827 150.402C146.798 150.372 146.738 150.402 146.762 150.45C151.375 157.366 157.345 162.271 164.786 165.819C165.024 165.92 165.125 165.789 164.881 165.652Z" fill="#263238"/>
<path d="M163.387 170.087C157.535 166.366 154.321 163.277 149.285 158.021C149.285 157.991 149.202 158.021 149.226 158.069C154.321 164.616 156.91 166.45 163.291 170.307C163.506 170.414 163.619 170.212 163.387 170.087Z" fill="#263238"/>
<path d="M174.589 147.991C176.577 148.146 176.666 147.104 174.059 144.712C171.452 142.319 159.107 135.057 162.006 130.967C164.905 126.878 182.172 137.366 186.208 141.682C190.244 145.997 195.238 154.396 195.238 154.396C191.488 153.027 182.024 150.581 174.589 147.991Z" fill="#F7A9A0"/>
<path d="M195.238 154.396C191.589 155.152 176.869 179.527 182.178 180.896C207.178 187.325 228.607 181.051 233.047 178.551C238.875 175.277 239.03 166.932 236.375 163.456C232.547 158.414 198.875 153.646 195.238 154.396Z" fill="#F7A9A0"/>
<path d="M224.202 158.39C211.41 153.902 195.399 154.134 195.369 154.128C195.113 154.08 194.774 154.521 194.922 154.545C197.541 155.021 214.428 156.378 224.047 158.711C224.137 158.741 224.291 158.42 224.202 158.39Z" fill="#263238"/>
<path d="M183.101 101.104C182.833 102.295 175.613 117.444 167.81 116.2C164.083 115.604 170.256 100.033 170.256 100.033L167.875 89.533L181.048 81.1401C181.048 81.1401 183.208 100.61 183.101 101.104Z" fill="#F7A9A0"/>
<path d="M181.803 87.9794C180.747 90.5906 179.164 92.9565 177.154 94.9298C175.144 96.9031 172.749 98.4417 170.119 99.4497L167.857 89.533L181.03 81.1401L181.803 87.9794Z" fill="#263238"/>
<path d="M154.536 72.8188C151.559 90.2057 161.679 93.9378 165.405 94.5747C168.809 95.17 180.476 96.6819 185.214 79.6938C189.952 62.7057 182.833 55.8307 175.095 54.0985C167.357 52.3664 157.5 55.4319 154.536 72.8188Z" fill="#F7A9A0"/>
<path d="M156.994 64.36C156.464 65.7171 155.946 67.0802 155.518 68.4731C155.123 69.8211 154.815 71.1929 154.595 72.5802C154.35 73.9375 154.173 75.3063 154.065 76.6814C153.955 78.1254 153.945 79.5753 154.036 81.0207C154.036 81.0333 154.041 81.0454 154.05 81.0544C154.058 81.0633 154.071 81.0683 154.083 81.0683C154.096 81.0683 154.108 81.0633 154.117 81.0544C154.126 81.0454 154.131 81.0333 154.131 81.0207C154.131 80.2885 154.44 77.4492 154.512 76.8064C154.655 75.3897 154.857 73.9671 155.107 72.5624C155.357 71.1576 155.702 69.8124 155.988 68.4433C156.274 67.0743 156.625 65.7112 157.059 64.3778C157.062 64.3691 157.061 64.3599 157.056 64.3521C157.052 64.3442 157.044 64.3385 157.036 64.3362C157.027 64.3338 157.018 64.335 157.01 64.3394C157.002 64.3439 156.996 64.3513 156.994 64.36Z" fill="#263238"/>
<path d="M185.054 78.4196C180.857 78.1161 181.44 71.5149 181.44 71.5149C181.44 71.5149 176.72 70.6875 177.006 62.9911C177.006 62.9911 174.339 67.4315 167.821 67.8422C166.44 67.9315 171.304 64.7768 171.304 64.7768C171.304 64.7768 165.417 69.2768 155.411 66.5625C154.708 66.372 157.125 55.7768 165.399 52.7827C173.673 49.7887 180.684 52.4494 185.202 57.8899C186.549 58.7449 187.664 59.9192 188.448 61.3086C189.232 62.6979 189.661 64.2593 189.696 65.8542C189.881 71.4434 186.679 78.5565 185.054 78.4196Z" fill="#263238"/>
<path d="M182.244 79.3423C182.244 79.3423 186.53 74.1697 188.911 75.7709C191.292 77.3721 187.72 85.0566 184.744 85.89C184.365 86.0261 183.963 86.0842 183.562 86.0605C183.16 86.0368 182.767 85.932 182.407 85.7523C182.047 85.5726 181.727 85.3217 181.467 85.0149C181.207 84.7082 181.011 84.3518 180.893 83.9673L182.244 79.3423Z" fill="#F7A9A0"/>
<path d="M187.839 77.9316C187.847 77.9347 187.853 77.9401 187.858 77.947C187.863 77.9539 187.865 77.962 187.865 77.9703C187.865 77.9787 187.863 77.9868 187.858 77.9937C187.853 78.0006 187.847 78.0059 187.839 78.009C185.72 78.6697 184.482 80.4852 183.565 82.39C184.238 81.6816 185.101 81.3364 186.059 82.1459C186.107 82.1876 186.059 82.265 185.994 82.2531C185.643 82.1081 185.256 82.0755 184.886 82.1597C184.516 82.2439 184.182 82.4408 183.928 82.7233C183.509 83.1985 183.142 83.7174 182.833 84.2709C182.72 84.4436 182.399 84.3186 182.482 84.1162C182.482 84.1162 182.482 84.1162 182.482 84.0686C182.678 81.4495 185.012 77.9614 187.839 77.9316Z" fill="#263238"/>
<path d="M159.964 70.2057C160.363 70.1839 160.76 70.1421 161.154 70.0807C161.581 70.0902 161.999 69.9606 162.345 69.7116C162.44 69.6112 162.5 69.4819 162.514 69.3439C162.528 69.206 162.496 69.0673 162.422 68.9497C162.243 68.7386 162.01 68.5792 161.749 68.4882C161.487 68.3971 161.206 68.3777 160.934 68.4319C160.367 68.4579 159.829 68.6909 159.422 69.0866C159.334 69.186 159.277 69.3094 159.258 69.4413C159.24 69.5731 159.261 69.7075 159.319 69.8273C159.377 69.9471 159.469 70.047 159.584 70.1144C159.699 70.1818 159.831 70.2135 159.964 70.2057Z" fill="#263238"/>
<path d="M172.024 71.277C171.63 71.1727 171.243 71.0475 170.863 70.902C170.439 70.8282 170.051 70.6194 169.756 70.3068C169.683 70.1889 169.652 70.0504 169.666 69.9127C169.68 69.7751 169.738 69.6458 169.833 69.5449C170.052 69.3734 170.312 69.2636 170.587 69.227C170.863 69.1903 171.143 69.2282 171.399 69.3365C171.948 69.4798 172.426 69.8184 172.744 70.2889C172.807 70.4012 172.836 70.5293 172.828 70.6578C172.821 70.7863 172.776 70.9099 172.701 71.014C172.625 71.118 172.521 71.1981 172.401 71.2447C172.281 71.2914 172.15 71.3026 172.024 71.277Z" fill="#263238"/>
<path d="M169.047 75.4436C169.047 75.402 169.137 75.515 169.125 75.5627C168.94 76.7531 168.922 78.14 169.952 78.6698C169.982 78.6698 169.952 78.7472 169.952 78.7353C168.661 78.4198 168.702 76.5508 169.047 75.4436Z" fill="#263238"/>
<path d="M170.292 74.3484C172.226 74.4436 171.893 78.3067 170.101 78.2175C168.309 78.1282 168.673 74.2532 170.292 74.3484Z" fill="#263238"/>
<path d="M171.035 74.6162C171.351 74.8662 171.631 75.2829 172.053 75.3543C172.476 75.4258 172.91 75.0686 173.244 74.7055C173.28 74.6698 173.309 74.7055 173.309 74.7591C173.256 75.4972 172.905 76.2353 172.119 76.2769C171.333 76.3186 170.928 75.6103 170.803 74.8543C170.768 74.7115 170.905 74.515 171.035 74.6162Z" fill="#263238"/>
<path d="M161.827 74.8484C161.827 74.8008 161.732 74.896 161.726 74.9496C161.672 76.1401 161.405 77.5151 160.292 77.8246C160.256 77.8246 160.25 77.896 160.292 77.8901C161.631 77.7829 161.964 75.9674 161.827 74.8484Z" fill="#263238"/>
<path d="M160.857 73.4852C158.946 73.1816 158.476 77.0566 160.262 77.3126C162.048 77.5685 162.464 73.7352 160.857 73.4852Z" fill="#263238"/>
<path d="M160.024 73.6578C159.696 73.8245 159.351 74.1638 158.988 74.1399C158.625 74.1161 158.298 73.6697 158.077 73.2352C158.077 73.1935 158.018 73.2352 158.012 73.2709C157.905 74.003 158.059 74.8007 158.75 75.0566C159.44 75.3126 159.94 74.6876 160.19 73.9733C160.238 73.7947 160.155 73.5745 160.024 73.6578Z" fill="#263238"/>
<path d="M167.214 85.1104C166.917 85.3782 166.619 85.7532 166.173 85.7711C165.728 85.7437 165.294 85.624 164.899 85.4199C164.891 85.4159 164.881 85.4147 164.873 85.4165C164.864 85.4182 164.856 85.4228 164.85 85.4295C164.844 85.4362 164.84 85.4447 164.839 85.4537C164.838 85.4627 164.84 85.4717 164.845 85.4794C165.007 85.7215 165.232 85.9155 165.494 86.0411C165.757 86.1668 166.049 86.2195 166.339 86.1937C166.587 86.14 166.813 86.014 166.989 85.8318C167.165 85.6495 167.282 85.4192 167.327 85.1699C167.351 85.0984 167.262 85.0687 167.214 85.1104Z" fill="#263238"/>
<path d="M162.643 80.2949C162.643 80.2949 162.22 82.0806 162.137 82.896C162.137 82.9794 162.327 83.033 162.613 83.0806C162.618 83.0832 162.625 83.0846 162.631 83.0846C162.637 83.0846 162.643 83.0832 162.649 83.0806C163.354 83.2819 164.101 83.2869 164.809 83.0949C165.517 82.903 166.159 82.5214 166.666 81.9913C166.732 81.9139 166.631 81.8187 166.553 81.8603C165.407 82.4906 164.087 82.7328 162.791 82.5508C162.756 82.3068 163.619 79.5746 163.488 79.5329C162.827 79.5262 162.168 79.6083 161.529 79.777C162.303 76.0806 163.666 72.5449 164.387 68.8544C164.39 68.8271 164.385 68.7994 164.37 68.7759C164.356 68.7524 164.334 68.7346 164.308 68.7255C164.282 68.7164 164.254 68.7165 164.228 68.7259C164.202 68.7353 164.18 68.7534 164.166 68.777C162.482 72.3901 161.494 76.6163 160.595 80.4139C160.5 80.8663 162.291 80.4079 162.643 80.2949Z" fill="#263238"/>
<path d="M163.22 82.6818C163.587 83.3295 164.114 83.8725 164.75 84.2592C165.111 84.4634 165.528 84.5468 165.94 84.4973C166.815 84.3961 166.946 83.6223 166.887 82.9318C166.852 82.5668 166.774 82.2072 166.655 81.8604C165.628 82.4961 164.423 82.7842 163.22 82.6818Z" fill="#263238"/>
<path d="M164.75 84.2589C165.111 84.4632 165.528 84.5466 165.94 84.497C166.815 84.3958 166.946 83.622 166.887 82.9315C165.94 82.8958 164.952 83.3839 164.75 84.2589Z" fill="#FF9CBD"/>
<path d="M186.905 55.515C189.238 57.3721 196.429 56.5388 199.214 52.8066C203.03 47.6697 196.536 38.8661 189.982 41.8364C183.429 44.8066 185.119 54.0804 186.905 55.515Z" fill="#263238"/>
<path d="M197.875 43.6104C199.267 45.1823 200.251 47.0735 200.738 49.1163C200.965 50.0746 200.89 51.0797 200.522 51.9933C200.154 52.9069 199.512 53.6839 198.684 54.2175C197.847 54.7995 196.936 55.2679 195.976 55.6103C195.017 55.9857 194.019 56.2513 193 56.402C190.925 56.7151 188.804 56.4064 186.905 55.5151C188.695 56.8101 190.894 57.4128 193.095 57.2115C194.197 57.1289 195.284 56.9028 196.327 56.5389C197.383 56.1829 198.385 55.6821 199.303 55.0508C200.262 54.3786 201.001 53.4386 201.428 52.3484C201.815 51.2516 201.85 50.0616 201.53 48.9437C200.89 46.832 199.613 44.9694 197.875 43.6104Z" fill="#263238"/>
<path d="M249.988 236.753L218.744 236.896L187.494 236.949L125 237.05L62.506 236.949L31.262 236.896L0.0119629 236.753L31.262 236.604L62.506 236.556L125 236.455L187.494 236.556L218.744 236.61L249.988 236.753Z" fill="#263238"/>
</svg>
