<svg width="250" height="240" viewBox="0 0 250 240" fill="none" xmlns="http://www.w3.org/2000/svg">
<path opacity="0.2" d="M36.6108 116.01C-12.2062 144.194 -12.201 189.867 36.6108 218.076C85.4227 246.285 164.572 246.259 213.389 218.076C262.206 189.892 262.201 144.219 213.389 116.01C164.577 87.8014 85.4279 87.8271 36.6108 116.01Z" fill="#301549"/>
<path d="M176.793 4.67773L175.347 5.48298V59.552L176.793 58.7468V4.67773Z" fill="#FAFAFA"/>
<path d="M176.793 58.7469V6.32422L234.822 39.8263L234.811 92.2438L176.793 58.7469Z" fill="white"/>
<path d="M237.504 98.5366V38.277L172.664 0.835938V61.1007L237.504 98.5366ZM175.346 59.5569V5.48786L234.842 39.8516V93.8898L175.346 59.5569Z" fill="#F0F0F0"/>
<path d="M175.347 59.5523L176.793 58.7471L234.811 92.244L234.822 93.8904L175.347 59.5523Z" fill="#E0E0E0"/>
<path d="M191.544 14.838L190.098 14.002V68.071L191.544 67.2657V14.838Z" fill="#FAFAFA"/>
<path d="M224.138 33.6561L222.696 32.8252V86.8891L224.138 86.0839V33.6561Z" fill="#FAFAFA"/>
<path d="M237.504 98.5363L238.94 97.7003V37.4355L237.504 38.2716V98.5363Z" fill="#E0E0E0"/>
<path d="M238.94 37.436L237.504 38.272L172.664 0.841142L174.1 0L238.94 37.436Z" fill="#FAFAFA"/>
<path d="M234.822 64.0551V65.722L175.342 31.3839L176.778 30.5479L234.822 64.0551Z" fill="#E0E0E0"/>
<path d="M234.817 68.8197L234.822 65.7219L175.342 31.3838L175.347 34.4817L234.817 68.8197Z" fill="#F0F0F0"/>
<path d="M222.697 89.9924L220.015 88.4435V28.1787L222.697 29.7276V89.9924Z" fill="#F0F0F0"/>
<path d="M190.103 71.174L187.426 69.6251V9.36035L190.103 10.9093V71.174Z" fill="#F0F0F0"/>
<path d="M222.697 58.7262L224.138 57.8902V33.6561L222.697 32.8252V58.7262Z" fill="#FAFAFA"/>
<path d="M190.113 39.9127L191.56 39.0767V14.8426L190.113 14.0117V39.9127Z" fill="#FAFAFA"/>
<path d="M19.748 85.7813L20.5687 86.2686L37.4172 76.5441L36.5965 76.0518L19.748 85.7813Z" fill="#FAFAFA"/>
<path d="M36.5962 76.0515L20.5684 85.3041V44.4984L36.5962 35.251V76.0515Z" fill="white"/>
<path d="M38.9659 32.0859L19.0195 43.6055V88.9502L38.9659 77.4358V32.0859ZM37.4272 76.5434L20.5787 86.2883V44.4979L37.4272 34.753V76.5434Z" fill="#F0F0F0"/>
<path d="M37.4163 76.5436L36.5957 76.0512V35.2507L37.4163 34.7686V76.5436Z" fill="#E0E0E0"/>
<path d="M38.9657 32.0864L38.1348 31.6094L18.1885 43.1289L19.0194 43.6059L38.9657 32.0864Z" fill="#FAFAFA"/>
<path d="M18.1885 43.1289L19.0194 43.6059V88.9506L18.1885 88.4736V43.1289Z" fill="#E0E0E0"/>
<path d="M35.3958 75.0923L21.7734 82.96V45.9498L35.3958 38.082V75.0923Z" fill="#F0F0F0"/>
<path d="M35.3958 75.0923L21.7734 82.96V45.9498L35.3958 38.082V75.0923Z" fill="#F0F0F0"/>
<path d="M21.7734 69.7482C22.4205 69.7969 23.0703 69.7969 23.7173 69.7482C25.9856 69.5741 28.219 69.0874 30.3541 68.3018C32.0005 67.6966 33.652 66.9068 35.3958 66.8555V75.0925L33.5494 76.1593C32.8286 75.4989 31.9624 75.0174 31.0209 74.754C28.3949 74.0616 25.7022 75.3849 23.0044 75.6926C22.5955 75.7362 22.1846 75.7568 21.7734 75.7541V69.7482Z" fill="#FAFAFA"/>
<path d="M21.7734 62.4905C24.82 61.5878 27.9281 60.8339 30.1233 58.6028C31.8723 56.7974 32.6878 54.2996 33.2776 51.8531C33.8674 49.4066 34.2521 46.8781 35.3599 44.6214L35.3958 44.5547V60.1671C35.2215 60.4236 35.0522 60.68 34.8829 60.9262C32.8775 63.6394 29.9284 65.9012 26.5638 66.0551C24.9841 66.1372 23.348 65.7679 21.7837 65.773L21.7734 62.4905Z" fill="#FAFAFA"/>
<path d="M21.7734 53.4221C22.9477 52.3826 23.8399 51.0631 24.3672 49.5861C24.8945 48.1092 25.0397 46.5229 24.7892 44.9748C24.7482 44.744 24.6918 44.5183 24.6354 44.2927L29.8771 41.2666C29.8771 41.6102 29.8412 41.959 29.831 42.2924C29.7745 44.2927 29.831 46.3186 29.4001 48.2676C29.0197 49.9068 28.2917 51.4452 27.2652 52.7787C26.2388 54.1122 24.9379 55.2097 23.4506 55.9968C22.9174 56.2708 22.3635 56.5023 21.794 56.6893L21.7734 53.4221Z" fill="#FAFAFA"/>
<path d="M19.7324 33.9427L20.5479 34.4248L37.2323 24.7927L36.4168 24.3105L19.7324 33.9427Z" fill="#FAFAFA"/>
<path d="M36.4167 24.3101L20.5479 33.4703V16.8475L36.4167 7.69238V24.3101Z" fill="white"/>
<path d="M38.7661 4.55859L19.0146 15.9653V37.0862L38.7661 25.6795V4.55859ZM37.2326 24.7768L20.5482 34.4243V16.8475L37.2326 7.21537V24.7768Z" fill="#F0F0F0"/>
<path d="M37.2325 24.7926L36.417 24.3105V7.69281L37.2325 7.21582V24.7926Z" fill="#E0E0E0"/>
<path d="M38.7657 4.55877L37.9399 4.08691L18.1885 15.4936L19.0142 15.9655L38.7657 4.55877Z" fill="#FAFAFA"/>
<path d="M18.1885 15.4932L19.0142 15.965V37.0808L18.1885 36.6089V15.4932Z" fill="#E0E0E0"/>
<path d="M35.8008 23.8132L21.168 32.2605V28.0343L24.8249 19.5869L27.1021 21.7L26.2815 25.239L31.3386 14.4375L35.8008 19.5869V23.8132Z" fill="#F0F0F0"/>
<path d="M26.964 15.5097C26.6495 15.715 26.3877 15.9914 26.1997 16.3167C26.0117 16.6419 25.9028 17.0067 25.8818 17.3818C25.8818 18.0742 26.3691 18.3511 26.964 18.0075C27.283 17.8051 27.5492 17.5298 27.741 17.2043C27.9327 16.8788 28.0443 16.5125 28.0668 16.1354C28.0668 15.443 27.5539 15.1661 26.964 15.5097Z" fill="#F0F0F0"/>
<path d="M144.739 7.16571L147.503 5.56549C149.242 4.67819 151.57 4.93976 154.073 6.55024C159.105 9.79171 162.951 17.2645 162.659 23.2397C162.516 26.2196 161.372 28.2661 159.633 29.1688L156.869 30.769C155.125 31.6511 152.801 31.3947 150.293 29.7791C145.262 26.5428 141.42 19.0699 141.707 13.0896C141.856 10.1148 143.005 8.0684 144.739 7.16571Z" fill="#EBEBEB"/>
<path d="M157.022 30.6921L159.659 29.1534C161.392 28.2456 162.536 26.2043 162.68 23.2295C162.747 20.3344 162.14 17.4632 160.905 14.8438L158.141 16.4491C159.389 19.0618 160.01 21.9296 159.956 24.8246C159.792 27.7378 158.694 29.7586 157.022 30.6921Z" fill="#E0E0E0"/>
<path d="M150.298 29.779C145.267 26.5427 141.425 19.0698 141.712 13.0895C142 7.10919 146.328 4.88324 151.35 8.13497C156.371 11.3867 160.223 18.8493 159.935 24.8245C159.648 30.7996 155.33 33.0205 150.298 29.779Z" fill="#F0F0F0"/>
<path d="M154.515 29.3638C157.479 29.5074 157.961 26.1736 158.033 24.7477C158.289 19.4752 154.756 12.6076 150.34 9.75079C149.397 9.08926 148.3 8.68126 147.155 8.56601C144.19 8.4224 143.703 11.7613 143.636 13.182C143.38 18.4546 146.914 25.3222 151.33 28.1841C152.273 28.8422 153.37 29.2482 154.515 29.3638Z" fill="white"/>
<path d="M150.242 19.9468C150.276 19.9521 150.31 19.9521 150.344 19.9468C150.409 19.9252 150.465 19.8838 150.504 19.8286C150.544 19.7733 150.565 19.707 150.565 19.639V11.997C150.565 11.9113 150.531 11.8291 150.47 11.7685C150.41 11.7079 150.327 11.6738 150.242 11.6738C150.156 11.6738 150.074 11.7079 150.013 11.7685C149.953 11.8291 149.919 11.9113 149.919 11.997V18.6645L146.359 14.0947C146.333 14.0609 146.301 14.0326 146.265 14.0115C146.228 13.9903 146.187 13.9767 146.145 13.9715C146.103 13.9662 146.061 13.9694 146.02 13.9809C145.979 13.9923 145.941 14.0119 145.908 14.0383C145.841 14.0909 145.797 14.1678 145.787 14.2523C145.776 14.3368 145.799 14.4221 145.851 14.4896L149.985 19.8032C150.014 19.8451 150.052 19.8799 150.097 19.9048C150.141 19.9296 150.191 19.944 150.242 19.9468Z" fill="#E0E0E0"/>
<path d="M152.062 25.5781H152.109C152.143 25.5674 152.172 25.5438 152.189 25.5122C152.206 25.4806 152.211 25.4435 152.201 25.4089L150.411 19.3773C150.409 19.3571 150.402 19.3377 150.392 19.3204C150.381 19.3031 150.367 19.2884 150.35 19.2771C150.333 19.2659 150.314 19.2585 150.294 19.2555C150.274 19.2524 150.254 19.2538 150.234 19.2595C150.215 19.2652 150.197 19.2751 150.182 19.2885C150.166 19.3019 150.154 19.3185 150.146 19.3371C150.138 19.3556 150.134 19.3757 150.135 19.396C150.135 19.4162 150.14 19.4361 150.149 19.4542L151.939 25.4858C151.948 25.512 151.964 25.535 151.986 25.5515C152.008 25.568 152.035 25.5773 152.062 25.5781Z" fill="#EBEBEB"/>
<path d="M150.344 18.1112C149.749 17.7265 149.242 17.9881 149.211 18.6907C149.214 19.0761 149.308 19.4553 149.486 19.7969C149.665 20.1385 149.922 20.4327 150.237 20.6551C150.827 21.0346 151.334 20.7782 151.37 20.0704C151.365 19.6862 151.27 19.3086 151.091 18.9683C150.913 18.6279 150.657 18.3342 150.344 18.1112Z" fill="#EBEBEB"/>
<path opacity="0.2" d="M45.853 165.058C52.3975 168.879 52.3975 175.075 45.853 178.906C39.3085 182.737 28.7019 182.727 22.1574 178.906C15.6129 175.085 15.6129 168.895 22.1574 165.058C28.7019 161.222 39.3085 161.242 45.853 165.058Z" fill="#301549"/>
<path opacity="0.2" d="M163.572 117.641L240.346 162.007C240.466 162.046 240.57 162.123 240.643 162.225C240.717 162.327 240.757 162.45 240.757 162.576C240.757 162.702 240.717 162.825 240.643 162.927C240.57 163.029 240.466 163.105 240.346 163.145L218.379 175.819C218.074 175.973 217.737 176.053 217.394 176.053C217.052 176.053 216.715 175.973 216.41 175.819L139.635 131.459C139.515 131.419 139.412 131.342 139.338 131.24C139.264 131.138 139.225 131.015 139.225 130.889C139.225 130.763 139.264 130.641 139.338 130.539C139.412 130.436 139.515 130.36 139.635 130.32L161.597 117.652C161.902 117.493 162.24 117.41 162.583 117.408C162.926 117.406 163.265 117.486 163.572 117.641Z" fill="#301549"/>
<path opacity="0.2" d="M137.348 212.465L192.325 180.794C193.079 180.358 193.079 179.655 192.325 179.219L134.783 145.948C134.361 145.736 133.895 145.625 133.422 145.625C132.949 145.625 132.482 145.736 132.06 145.948L77.083 177.619C76.3291 178.055 76.3291 178.758 77.083 179.194L134.624 212.465C135.047 212.677 135.513 212.788 135.986 212.788C136.459 212.788 136.925 212.677 137.348 212.465Z" fill="#301549"/>
<path opacity="0.2" d="M59.7471 215.086C73.1794 215.086 84.0684 208.799 84.0684 201.043C84.0684 193.287 73.1794 187 59.7471 187C46.3148 187 35.4258 193.287 35.4258 201.043C35.4258 208.799 46.3148 215.086 59.7471 215.086Z" fill="#301549"/>
<path opacity="0.2" d="M171.075 220.368C189.821 220.368 205.018 211.594 205.018 200.77C205.018 189.947 189.821 181.173 171.075 181.173C152.329 181.173 137.132 189.947 137.132 200.77C137.132 211.594 152.329 220.368 171.075 220.368Z" fill="#301549"/>
<path d="M24.3064 172.138C19.1159 166.783 16.0642 153.32 21.1265 149.058H46.8787C51.941 153.304 48.8944 166.758 43.7091 172.138C43.668 172.189 43.6168 172.235 43.5706 172.286L43.3911 172.461C43.2423 172.604 43.0885 172.743 42.9192 172.881L42.7961 172.979C42.6679 173.081 42.5448 173.184 42.4063 173.281C42.1915 173.439 41.9671 173.583 41.7344 173.712C37.4672 176.205 30.5431 176.205 26.2759 173.712C26.0426 173.579 25.8166 173.434 25.5989 173.276C25.4706 173.184 25.3527 173.092 25.2347 172.999L25.0808 172.876C24.9219 172.743 24.7731 172.61 24.6295 172.471L24.4243 172.266L24.3064 172.138Z" fill="#37474F"/>
<path d="M44.6429 147.36C50.5207 150.791 50.5207 156.351 44.6429 159.782C38.7652 163.213 29.2562 163.213 23.3682 159.782C17.4802 156.351 17.4905 150.791 23.3682 147.36C29.2459 143.928 38.7703 143.933 44.6429 147.36Z" fill="#455A64"/>
<path d="M41.8165 149.017C46.1351 151.535 46.1351 155.618 41.8165 158.136C37.498 160.654 30.5329 160.659 26.1939 158.136C21.8548 155.612 21.8753 151.535 26.1939 149.017C30.5124 146.498 37.5031 146.493 41.8165 149.017Z" fill="#263238"/>
<path d="M26.1934 153.345C30.5068 150.826 37.5026 150.826 41.816 153.345C42.8558 153.919 43.7369 154.742 44.3805 155.74C43.7381 156.739 42.8567 157.562 41.816 158.135C37.5026 160.659 30.5324 160.659 26.1934 158.135C25.1527 157.562 24.2713 156.739 23.6289 155.74C24.2725 154.742 25.1536 153.919 26.1934 153.345Z" fill="#FAFAFA"/>
<path d="M32.2715 119.001C30.2969 121.14 24.8141 121.725 22.5266 115.924C20.3981 110.503 18.1003 105.368 17.4438 103.378C16.7873 101.388 18.7517 100.732 18.7517 100.732C18.7517 100.732 18.9107 97.7572 23.9576 99.7728C29.0044 101.789 32.5639 104.85 34.7642 109.805C36.9645 114.76 35.6515 118.334 32.2715 119.001Z" fill="#BA68C8"/>
<path opacity="0.45" d="M32.2715 119.001C30.2969 121.14 24.8141 121.725 22.5266 115.924C20.3981 110.503 18.1003 105.368 17.4438 103.378C16.7873 101.388 18.7517 100.732 18.7517 100.732C18.7517 100.732 18.9107 97.7572 23.9576 99.7728C29.0044 101.789 32.5639 104.85 34.7642 109.805C36.9645 114.76 35.6515 118.334 32.2715 119.001Z" fill="white"/>
<path d="M34.4564 126.638C34.3679 125.627 34.2224 124.622 34.0204 123.627C33.6026 121.651 33.0438 119.707 32.3484 117.811C30.9235 113.959 28.9527 110.332 26.4963 107.04C25.125 105.16 23.5795 103.414 21.8803 101.824C21.829 101.778 21.7931 101.896 21.8239 101.932C24.6511 104.909 27.0661 108.252 29.0044 111.872C30.8748 115.436 32.2731 119.229 33.1639 123.155C33.4152 124.253 33.6768 125.356 33.8512 126.463C34.0256 127.571 34.1743 128.725 34.3641 129.854C34.3641 129.966 34.559 130.033 34.5641 129.879C34.6115 128.798 34.5755 127.714 34.4564 126.638Z" fill="#BA68C8"/>
<path opacity="0.3" d="M34.4564 126.638C34.3679 125.627 34.2224 124.622 34.0204 123.627C33.6026 121.651 33.0438 119.707 32.3484 117.811C30.9235 113.959 28.9527 110.332 26.4963 107.04C25.125 105.16 23.5795 103.414 21.8803 101.824C21.829 101.778 21.7931 101.896 21.8239 101.932C24.6511 104.909 27.0661 108.252 29.0044 111.872C30.8748 115.436 32.2731 119.229 33.1639 123.155C33.4152 124.253 33.6768 125.356 33.8512 126.463C34.0256 127.571 34.1743 128.725 34.3641 129.854C34.3641 129.966 34.559 130.033 34.5641 129.879C34.6115 128.798 34.5755 127.714 34.4564 126.638Z" fill="black"/>
<path d="M36.1442 117.504C31.6102 118.904 28.2457 115.365 29.4099 109.81C30.5742 104.256 36.4006 98.1215 38.6009 99.7679C39.9755 98.3934 43.0067 98.8857 44.4325 103.394C45.8583 107.902 44.5607 119.468 36.1442 117.504Z" fill="#BA68C8"/>
<path opacity="0.25" d="M36.1442 117.504C31.6102 118.904 28.2457 115.365 29.4099 109.81C30.5742 104.256 36.4006 98.1215 38.6009 99.7679C39.9755 98.3934 43.0067 98.8857 44.4325 103.394C45.8583 107.902 44.5607 119.468 36.1442 117.504Z" fill="white"/>
<path d="M38.8011 103.143C37.5138 106.372 36.5065 109.706 35.7905 113.108C35.0183 116.553 34.4345 120.037 34.0415 123.546C33.3092 130.336 33.0043 137.166 33.1286 143.995C33.1286 145.882 33.1542 147.763 33.2055 149.637C33.2414 151.58 33.2055 153.545 33.3799 155.478C33.4414 156.217 34.498 156.022 34.5082 155.345C34.5749 151.945 34.3903 148.534 34.3544 145.133C34.3185 141.733 34.3544 138.414 34.4211 135.055C34.5458 128.218 35.1646 121.4 36.2726 114.652C36.5957 112.77 36.9547 110.893 37.3958 109.036C37.8574 107.082 38.4216 105.159 38.9345 103.215C38.9345 103.138 38.8371 103.04 38.8011 103.143Z" fill="#BA68C8"/>
<path opacity="0.3" d="M38.8011 103.143C37.5138 106.372 36.5065 109.706 35.7905 113.108C35.0183 116.553 34.4345 120.037 34.0415 123.546C33.3092 130.336 33.0043 137.166 33.1286 143.995C33.1286 145.882 33.1542 147.763 33.2055 149.637C33.2414 151.58 33.2055 153.545 33.3799 155.478C33.4414 156.217 34.498 156.022 34.5082 155.345C34.5749 151.945 34.3903 148.534 34.3544 145.133C34.3185 141.733 34.3544 138.414 34.4211 135.055C34.5458 128.218 35.1646 121.4 36.2726 114.652C36.5957 112.77 36.9547 110.893 37.3958 109.036C37.8574 107.082 38.4216 105.159 38.9345 103.215C38.9345 103.138 38.8371 103.04 38.8011 103.143Z" fill="black"/>
<path d="M28.7689 133.768C26.7892 136.009 22.2501 135.819 19.2086 131.813C16.1672 127.808 14.3362 112.775 18.6188 113.734C19.5266 111.723 31.359 116.545 32.8772 126.356C33.9799 133.511 28.7689 133.768 28.7689 133.768Z" fill="#BA68C8"/>
<path opacity="0.25" d="M28.7689 133.768C26.7892 136.009 22.2501 135.819 19.2086 131.813C16.1672 127.808 14.3362 112.775 18.6188 113.734C19.5266 111.723 31.359 116.545 32.8772 126.356C33.9799 133.511 28.7689 133.768 28.7689 133.768Z" fill="white"/>
<path d="M32.3077 140.876C32.1748 139.948 31.9794 139.029 31.723 138.127C31.2287 136.286 30.6415 134.472 29.9638 132.69C28.5562 129.062 26.7845 125.586 24.6759 122.315C23.5384 120.469 22.2844 118.698 20.9215 117.011C20.8856 116.965 20.8497 117.073 20.8702 117.104C21.9268 118.642 22.9987 120.181 23.9476 121.776C24.8964 123.371 25.8145 125.177 26.63 126.936C28.2005 130.319 29.5055 133.819 30.5331 137.404C30.8203 138.43 31.046 139.455 31.3589 140.481C31.6717 141.507 32.0667 142.569 32.3334 143.636C32.3693 143.795 32.5693 143.851 32.5488 143.636C32.4616 142.743 32.4308 141.794 32.3077 140.876Z" fill="#BA68C8"/>
<path opacity="0.3" d="M32.3077 140.876C32.1748 139.948 31.9794 139.029 31.723 138.127C31.2287 136.286 30.6415 134.472 29.9638 132.69C28.5562 129.062 26.7845 125.586 24.6759 122.315C23.5384 120.469 22.2844 118.698 20.9215 117.011C20.8856 116.965 20.8497 117.073 20.8702 117.104C21.9268 118.642 22.9987 120.181 23.9476 121.776C24.8964 123.371 25.8145 125.177 26.63 126.936C28.2005 130.319 29.5055 133.819 30.5331 137.404C30.8203 138.43 31.046 139.455 31.3589 140.481C31.6717 141.507 32.0667 142.569 32.3334 143.636C32.3693 143.795 32.5693 143.851 32.5488 143.636C32.4616 142.743 32.4308 141.794 32.3077 140.876Z" fill="black"/>
<path d="M36.0156 131.547C33.4512 130.957 33.2922 127.844 36.5285 124.028C39.7648 120.212 47.9198 118.545 48.325 120.155C50.1201 120.176 50.1201 125.818 46.1144 131.049C42.1088 136.281 36.2721 135.05 36.0156 131.547Z" fill="#BA68C8"/>
<path opacity="0.25" d="M36.0156 131.547C33.4512 130.957 33.2922 127.844 36.5285 124.028C39.7648 120.212 47.9198 118.545 48.325 120.155C50.1201 120.176 50.1201 125.818 46.1144 131.049C42.1088 136.281 36.2721 135.05 36.0156 131.547Z" fill="white"/>
<path d="M41.0881 125.992C37.6602 128.378 35.0438 131.755 33.5897 135.67C33.5076 135.891 33.8871 136.219 33.9795 135.978C35.451 132.105 37.9064 128.683 41.1035 126.048C41.1035 126.048 41.1189 125.971 41.0881 125.992Z" fill="#BA68C8"/>
<path opacity="0.3" d="M41.0881 125.992C37.6602 128.378 35.0438 131.755 33.5897 135.67C33.5076 135.891 33.8871 136.219 33.9795 135.978C35.451 132.105 37.9064 128.683 41.1035 126.048C41.1035 126.048 41.1189 125.971 41.0881 125.992Z" fill="black"/>
<path d="M38.9705 150.497C35.3803 151.949 36.9189 156.216 40.4271 159.463C43.9353 162.709 48.936 163.566 51.3414 163.397C53.7469 163.227 54.3675 162.884 54.3675 162.884C54.3675 162.884 54.7522 159.191 54.3675 156.944C53.9719 154.78 52.9632 152.774 51.4613 151.166C49.9593 149.557 48.0272 148.414 45.8945 147.871C40.3143 146.333 38.9705 148.384 38.9705 150.497Z" fill="#BA68C8"/>
<path opacity="0.45" d="M38.9705 150.497C35.3803 151.949 36.9189 156.216 40.4271 159.463C43.9353 162.709 48.936 163.566 51.3414 163.397C53.7469 163.227 54.3675 162.884 54.3675 162.884C54.3675 162.884 54.7522 159.191 54.3675 156.944C53.9719 154.78 52.9632 152.774 51.4613 151.166C49.9593 149.557 48.0272 148.414 45.8945 147.871C40.3143 146.333 38.9705 148.384 38.9705 150.497Z" fill="white"/>
<path d="M48.9045 156.801C47.3005 154.878 45.4541 153.171 43.4114 151.723C41.3598 150.374 38.6466 149.231 36.195 150.067C35.2462 150.39 33.769 151.339 33.9486 152.513C33.9486 152.631 34.1742 152.918 34.3127 152.759C34.6915 152.214 35.1246 151.709 35.6052 151.251C36.1672 150.837 36.8327 150.585 37.5285 150.523C39.2819 150.398 41.0331 150.796 42.56 151.667C44.986 152.954 46.9452 154.949 48.8788 156.862C48.8993 156.883 48.9199 156.821 48.9045 156.801Z" fill="#BA68C8"/>
<path opacity="0.3" d="M48.9045 156.801C47.3005 154.878 45.4541 153.171 43.4114 151.723C41.3598 150.374 38.6466 149.231 36.195 150.067C35.2462 150.39 33.769 151.339 33.9486 152.513C33.9486 152.631 34.1742 152.918 34.3127 152.759C34.6915 152.214 35.1246 151.709 35.6052 151.251C36.1672 150.837 36.8327 150.585 37.5285 150.523C39.2819 150.398 41.0331 150.796 42.56 151.667C44.986 152.954 46.9452 154.949 48.8788 156.862C48.8993 156.883 48.9199 156.821 48.9045 156.801Z" fill="black"/>
<path d="M25.312 132.126C25.6505 130.489 23.2963 126.576 15.9415 125.827C8.58661 125.078 3.07302 128.197 1.96005 129.623C0.847076 131.049 0.293153 132.551 1.62667 132.921C2.96019 133.29 7.5557 133.746 10.5715 135.131C13.5873 136.516 19.7215 140.624 23.9067 139.404C28.0919 138.183 27.3943 133.746 25.312 132.126Z" fill="#BA68C8"/>
<path opacity="0.45" d="M25.312 132.126C25.6505 130.489 23.2963 126.576 15.9415 125.827C8.58661 125.078 3.07302 128.197 1.96005 129.623C0.847076 131.049 0.293153 132.551 1.62667 132.921C2.96019 133.29 7.5557 133.746 10.5715 135.131C13.5873 136.516 19.7215 140.624 23.9067 139.404C28.0919 138.183 27.3943 133.746 25.312 132.126Z" fill="white"/>
<path d="M30.9024 137.819C27.7994 131.413 19.8085 129.454 13.2692 129.49C11.1194 129.499 8.97921 129.778 6.89906 130.321C6.86829 130.321 6.86316 130.398 6.89906 130.392C10.4204 129.795 14.014 129.759 17.5467 130.285C21.0138 130.849 24.4246 131.926 27.2916 134.039C28.701 135.095 29.885 136.422 30.7742 137.942C30.846 138.096 30.9691 137.947 30.9024 137.819Z" fill="#BA68C8"/>
<path opacity="0.3" d="M30.9024 137.819C27.7994 131.413 19.8085 129.454 13.2692 129.49C11.1194 129.499 8.97921 129.778 6.89906 130.321C6.86829 130.321 6.86316 130.398 6.89906 130.392C10.4204 129.795 14.014 129.759 17.5467 130.285C21.0138 130.849 24.4246 131.926 27.2916 134.039C28.701 135.095 29.885 136.422 30.7742 137.942C30.846 138.096 30.9691 137.947 30.9024 137.819Z" fill="black"/>
<path d="M42.4268 123.54C42.3345 126.104 45.9555 127.607 49.4585 125.381C52.9616 123.155 56.639 120.991 59.8805 120.155C63.1219 119.319 64.6657 116.667 63.64 115.385C62.6142 114.103 60.9832 110.871 52.4487 111.923C43.9142 112.974 40.8881 116.826 39.7392 119.544C38.5903 122.263 41.1651 124.278 42.4268 123.54Z" fill="#BA68C8"/>
<path opacity="0.45" d="M42.4268 123.54C42.3345 126.104 45.9555 127.607 49.4585 125.381C52.9616 123.155 56.639 120.991 59.8805 120.155C63.1219 119.319 64.6657 116.667 63.64 115.385C62.6142 114.103 60.9832 110.871 52.4487 111.923C43.9142 112.974 40.8881 116.826 39.7392 119.544C38.5903 122.263 41.1651 124.278 42.4268 123.54Z" fill="white"/>
<path d="M56.3413 115.375C55.1072 115.256 53.8618 115.386 52.6793 115.759C51.603 116.037 50.5542 116.411 49.5455 116.877C47.5361 117.813 45.7252 119.126 44.2115 120.745C43.7778 121.201 43.3751 121.686 43.0062 122.196C42.631 122.647 42.3235 123.149 42.0932 123.689C42.0368 123.858 42.283 124.135 42.4317 123.96C42.8523 123.473 43.1703 122.878 43.5703 122.365C43.9949 121.814 44.4522 121.288 44.9398 120.791C45.9303 119.809 47.0339 118.948 48.2274 118.226C49.3812 117.516 50.6028 116.921 51.8741 116.452C52.5707 116.204 53.2794 115.992 53.9974 115.816C54.7499 115.586 55.5341 115.476 56.3208 115.493C56.3618 115.472 56.3824 115.38 56.3413 115.375Z" fill="#BA68C8"/>
<path opacity="0.3" d="M56.3413 115.375C55.1072 115.256 53.8618 115.386 52.6793 115.759C51.603 116.037 50.5542 116.411 49.5455 116.877C47.5361 117.813 45.7252 119.126 44.2115 120.745C43.7778 121.201 43.3751 121.686 43.0062 122.196C42.631 122.647 42.3235 123.149 42.0932 123.689C42.0368 123.858 42.283 124.135 42.4317 123.96C42.8523 123.473 43.1703 122.878 43.5703 122.365C43.9949 121.814 44.4522 121.288 44.9398 120.791C45.9303 119.809 47.0339 118.948 48.2274 118.226C49.3812 117.516 50.6028 116.921 51.8741 116.452C52.5707 116.204 53.2794 115.992 53.9974 115.816C54.7499 115.586 55.5341 115.476 56.3208 115.493C56.3618 115.472 56.3824 115.38 56.3413 115.375Z" fill="black"/>
<path d="M36.3239 137.424C35.1288 136.229 31.8822 136.506 30.3435 140.04C28.8049 143.574 32.0361 147.441 32.3951 148.529C33.8774 147.672 35.0314 148.185 37.642 147.672C39.0944 147.326 40.384 146.492 41.2951 145.309C42.2063 144.126 42.6838 142.666 42.6478 141.174C42.4734 137.937 41.1091 135.804 36.3239 137.424Z" fill="#BA68C8"/>
<path opacity="0.45" d="M36.3239 137.424C35.1288 136.229 31.8822 136.506 30.3435 140.04C28.8049 143.574 32.0361 147.441 32.3951 148.529C33.8774 147.672 35.0314 148.185 37.642 147.672C39.0944 147.326 40.384 146.492 41.2951 145.309C42.2063 144.126 42.6838 142.666 42.6478 141.174C42.4734 137.937 41.1091 135.804 36.3239 137.424Z" fill="white"/>
<path d="M36.272 137.07C35.6209 137.484 35.0777 138.047 34.6872 138.712C34.2661 139.327 33.9216 139.992 33.6614 140.691C33.1064 142.122 32.9504 143.677 33.2101 145.19C33.2101 145.251 33.2665 145.19 33.2665 145.159C33.1477 143.63 33.4085 142.095 34.0256 140.691C34.3151 140.056 34.6784 139.457 35.1078 138.907C35.3289 138.613 35.5688 138.334 35.8258 138.071C36.0785 137.868 36.3089 137.64 36.5131 137.388C36.6003 137.27 36.4618 136.978 36.272 137.07Z" fill="#BA68C8"/>
<path opacity="0.3" d="M36.272 137.07C35.6209 137.484 35.0777 138.047 34.6872 138.712C34.2661 139.327 33.9216 139.992 33.6614 140.691C33.1064 142.122 32.9504 143.677 33.2101 145.19C33.2101 145.251 33.2665 145.19 33.2665 145.159C33.1477 143.63 33.4085 142.095 34.0256 140.691C34.3151 140.056 34.6784 139.457 35.1078 138.907C35.3289 138.613 35.5688 138.334 35.8258 138.071C36.0785 137.868 36.3089 137.64 36.5131 137.388C36.6003 137.27 36.4618 136.978 36.272 137.07Z" fill="black"/>
<path d="M30.697 144.589C30.5841 141.958 27.7376 139.871 23.6806 138.666C21.6853 138.044 19.5546 138 17.5356 138.541C15.5166 139.081 13.6922 140.182 12.2739 141.717C9.31454 144.938 7.78099 147.677 8.98629 148.446C10.1916 149.216 15.5667 151.185 19.0749 152.283C22.583 153.38 27.1888 153.709 30.697 151.626C34.2052 149.544 33.9846 145.902 30.697 144.589Z" fill="#BA68C8"/>
<path opacity="0.25" d="M30.697 144.589C30.5841 141.958 27.7376 139.871 23.6806 138.666C21.6853 138.044 19.5546 138 17.5356 138.541C15.5166 139.081 13.6922 140.182 12.2739 141.717C9.31454 144.938 7.78099 147.677 8.98629 148.446C10.1916 149.216 15.5667 151.185 19.0749 152.283C22.583 153.38 27.1888 153.709 30.697 151.626C34.2052 149.544 33.9846 145.902 30.697 144.589Z" fill="white"/>
<path d="M30.9233 144.281C29.5494 143.59 28.048 143.188 26.5124 143.101C25.0445 142.959 23.5653 142.978 22.1015 143.158C20.5518 143.348 19.0213 143.671 17.5265 144.122C16.7469 144.355 15.9742 144.611 15.2083 144.891C14.4801 145.13 13.7704 145.421 13.0849 145.763C13.0593 145.763 13.0439 145.866 13.0849 145.856C13.8286 145.702 14.5569 145.409 15.2801 145.189C16.0033 144.968 16.8495 144.717 17.6445 144.507C19.1227 144.113 20.6278 143.829 22.1477 143.655C23.6694 143.481 25.2061 143.481 26.7278 143.655C28.1359 143.887 29.5234 144.23 30.8771 144.681C31.1438 144.794 31.0823 144.384 30.9233 144.281Z" fill="#BA68C8"/>
<path opacity="0.3" d="M30.9233 144.281C29.5494 143.59 28.048 143.188 26.5124 143.101C25.0445 142.959 23.5653 142.978 22.1015 143.158C20.5518 143.348 19.0213 143.671 17.5265 144.122C16.7469 144.355 15.9742 144.611 15.2083 144.891C14.4801 145.13 13.7704 145.421 13.0849 145.763C13.0593 145.763 13.0439 145.866 13.0849 145.856C13.8286 145.702 14.5569 145.409 15.2801 145.189C16.0033 144.968 16.8495 144.717 17.6445 144.507C19.1227 144.113 20.6278 143.829 22.1477 143.655C23.6694 143.481 25.2061 143.481 26.7278 143.655C28.1359 143.887 29.5234 144.23 30.8771 144.681C31.1438 144.794 31.0823 144.384 30.9233 144.281Z" fill="black"/>
<path d="M39.0671 140.691C36.1642 138.388 37.1335 132.859 47.2734 132.562C57.4133 132.264 64.6707 134.916 64.3476 138.204C65.9837 139.835 65.1528 144.41 56.9414 145.841C48.73 147.272 36.9694 146.518 39.0671 140.691Z" fill="#BA68C8"/>
<path opacity="0.25" d="M39.0671 140.691C36.1642 138.388 37.1335 132.859 47.2734 132.562C57.4133 132.264 64.6707 134.916 64.3476 138.204C65.9837 139.835 65.1528 144.41 56.9414 145.841C48.73 147.272 36.9694 146.518 39.0671 140.691Z" fill="white"/>
<path d="M59.5837 138.198C56.5871 137.712 53.548 137.541 50.5157 137.686C47.7307 137.768 44.8432 137.901 42.1454 138.65C41.4409 138.843 40.7545 139.097 40.0938 139.409C39.7901 139.553 39.4939 139.712 39.2065 139.886C38.9757 140.024 38.7192 140.147 38.6321 140.399C38.6257 140.441 38.629 140.484 38.6416 140.525C38.6543 140.565 38.676 140.602 38.7051 140.634C38.7342 140.665 38.77 140.689 38.8098 140.704C38.8495 140.719 38.8922 140.725 38.9347 140.722C39.5524 140.486 40.1465 140.192 40.7093 139.845C41.2808 139.592 41.8685 139.378 42.4685 139.204C43.6307 138.875 44.8177 138.642 46.0177 138.506C48.8585 138.152 51.7204 137.994 54.583 138.034C56.255 138.034 57.9168 138.183 59.5785 138.311C59.6144 138.316 59.635 138.204 59.5837 138.198Z" fill="#BA68C8"/>
<path opacity="0.3" d="M59.5837 138.198C56.5871 137.712 53.548 137.541 50.5157 137.686C47.7307 137.768 44.8432 137.901 42.1454 138.65C41.4409 138.843 40.7545 139.097 40.0938 139.409C39.7901 139.553 39.4939 139.712 39.2065 139.886C38.9757 140.024 38.7192 140.147 38.6321 140.399C38.6257 140.441 38.629 140.484 38.6416 140.525C38.6543 140.565 38.676 140.602 38.7051 140.634C38.7342 140.665 38.77 140.689 38.8098 140.704C38.8495 140.719 38.8922 140.725 38.9347 140.722C39.5524 140.486 40.1465 140.192 40.7093 139.845C41.2808 139.592 41.8685 139.378 42.4685 139.204C43.6307 138.875 44.8177 138.642 46.0177 138.506C48.8585 138.152 51.7204 137.994 54.583 138.034C56.255 138.034 57.9168 138.183 59.5785 138.311C59.6144 138.316 59.635 138.204 59.5837 138.198Z" fill="black"/>
<path d="M218.672 168.064H214.005L214.749 172.619C214.779 172.741 214.835 172.854 214.914 172.952C214.993 173.049 215.092 173.128 215.205 173.183C215.555 173.36 215.941 173.453 216.333 173.453C216.725 173.453 217.112 173.36 217.462 173.183C217.574 173.128 217.673 173.049 217.751 172.952C217.829 172.854 217.884 172.74 217.913 172.619L218.672 168.064Z" fill="#E0E0E0"/>
<path opacity="0.1" d="M218.672 168.064H214.005L214.749 172.619C214.779 172.741 214.835 172.854 214.914 172.952C214.993 173.049 215.092 173.128 215.205 173.183C215.555 173.36 215.941 173.453 216.333 173.453C216.725 173.453 217.112 173.36 217.462 173.183C217.574 173.128 217.673 173.049 217.751 172.952C217.829 172.854 217.884 172.74 217.913 172.619L218.672 168.064Z" fill="black"/>
<path d="M152.048 129.624H147.381L148.125 134.173C148.155 134.295 148.211 134.409 148.29 134.506C148.369 134.604 148.468 134.683 148.581 134.738C148.931 134.915 149.317 135.007 149.709 135.007C150.101 135.007 150.488 134.915 150.838 134.738C150.95 134.683 151.049 134.604 151.127 134.506C151.205 134.408 151.26 134.295 151.289 134.173L152.048 129.624Z" fill="#E0E0E0"/>
<path opacity="0.1" d="M152.048 129.624H147.381L148.125 134.173C148.155 134.295 148.211 134.409 148.29 134.506C148.369 134.604 148.468 134.683 148.581 134.738C148.931 134.915 149.317 135.007 149.709 135.007C150.101 135.007 150.488 134.915 150.838 134.738C150.95 134.683 151.049 134.604 151.127 134.506C151.205 134.408 151.26 134.295 151.289 134.173L152.048 129.624Z" fill="black"/>
<path d="M237.639 157.104H232.972L233.715 161.659C233.743 161.781 233.798 161.895 233.877 161.993C233.955 162.09 234.054 162.169 234.167 162.223C234.516 162.4 234.903 162.493 235.295 162.493C235.687 162.493 236.074 162.4 236.423 162.223C236.536 162.168 236.634 162.089 236.712 161.992C236.79 161.894 236.846 161.78 236.875 161.659L237.639 157.104Z" fill="#E0E0E0"/>
<path opacity="0.1" d="M237.639 157.104H232.972L233.715 161.659C233.743 161.781 233.798 161.895 233.877 161.993C233.955 162.09 234.054 162.169 234.167 162.223C234.516 162.4 234.903 162.493 235.295 162.493C235.687 162.493 236.074 162.4 236.423 162.223C236.536 162.168 236.634 162.089 236.712 161.992C236.79 161.894 236.846 161.78 236.875 161.659L237.639 157.104Z" fill="black"/>
<path d="M238.789 107.754V159.105L216.309 172.106V120.761L238.789 107.754Z" fill="#EBEBEB"/>
<path d="M216.309 172.107L144.565 130.706V79.3604L216.309 120.761V172.107Z" fill="#FAFAFA"/>
<path d="M194.434 159.474L193.516 158.945V107.595L194.434 108.123V159.474Z" fill="#E6E6E6"/>
<path d="M163.137 141.41L162.219 140.877V89.5312L163.137 90.0595V141.41Z" fill="#E6E6E6"/>
<path d="M142.134 79.6573C142.145 79.5343 142.189 79.4165 142.261 79.3163C142.333 79.2161 142.431 79.1372 142.544 79.088L166.547 65.2091C166.853 65.0549 167.19 64.9746 167.532 64.9746C167.874 64.9746 168.212 65.0549 168.517 65.2091L241.301 107.189C241.415 107.239 241.512 107.317 241.585 107.418C241.657 107.518 241.701 107.636 241.712 107.759V109.066C241.7 109.189 241.655 109.306 241.583 109.406C241.511 109.506 241.414 109.586 241.301 109.636L217.283 123.525C216.978 123.681 216.64 123.763 216.298 123.763C215.955 123.763 215.618 123.681 215.313 123.525L142.544 81.5242C142.432 81.4753 142.334 81.3972 142.262 81.298C142.19 81.1988 142.146 81.0821 142.134 80.96V79.6573Z" fill="#EBEBEB"/>
<path d="M241.722 107.759V109.067C241.71 109.189 241.666 109.307 241.594 109.407C241.521 109.507 241.424 109.586 241.312 109.636L217.293 123.525C216.988 123.691 216.645 123.774 216.298 123.766V115.468L218.908 94.2646L241.301 107.19C241.416 107.237 241.516 107.316 241.591 107.416C241.665 107.516 241.71 107.635 241.722 107.759Z" fill="#E0E0E0"/>
<path d="M168.527 65.2098L241.312 107.19C241.429 107.231 241.531 107.307 241.604 107.409C241.676 107.511 241.715 107.632 241.715 107.757C241.715 107.881 241.676 108.003 241.604 108.104C241.531 108.206 241.429 108.282 241.312 108.323L217.293 122.228C216.988 122.384 216.651 122.466 216.308 122.466C215.966 122.466 215.628 122.384 215.323 122.228L142.544 80.2375C142.425 80.1977 142.321 80.1212 142.247 80.0191C142.173 79.9169 142.134 79.7941 142.134 79.6682C142.134 79.5422 142.173 79.4194 142.247 79.3173C142.321 79.2151 142.425 79.1387 142.544 79.0989L166.547 65.2098C166.854 65.0539 167.193 64.9727 167.537 64.9727C167.881 64.9727 168.221 65.0539 168.527 65.2098Z" fill="#BA68C8"/>
<path opacity="0.6" d="M168.527 65.2098L241.312 107.19C241.429 107.231 241.531 107.307 241.604 107.409C241.676 107.511 241.715 107.632 241.715 107.757C241.715 107.881 241.676 108.003 241.604 108.104C241.531 108.206 241.429 108.282 241.312 108.323L217.293 122.228C216.988 122.384 216.651 122.466 216.308 122.466C215.966 122.466 215.628 122.384 215.323 122.228L142.544 80.2375C142.425 80.1977 142.321 80.1212 142.247 80.0191C142.173 79.9169 142.134 79.7941 142.134 79.6682C142.134 79.5422 142.173 79.4194 142.247 79.3173C142.321 79.2151 142.425 79.1387 142.544 79.0989L166.547 65.2098C166.854 65.0539 167.193 64.9727 167.537 64.9727C167.881 64.9727 168.221 65.0539 168.527 65.2098Z" fill="white"/>
<path d="M167.543 65.7275C167.754 65.7197 167.964 65.7655 168.153 65.8609L240.794 107.759L216.919 121.566C216.728 121.657 216.519 121.704 216.308 121.704C216.097 121.704 215.888 121.657 215.698 121.566L143.062 79.6577L166.932 65.8506C167.121 65.7559 167.331 65.7101 167.543 65.7173M167.543 64.9633C167.199 64.9562 166.86 65.0374 166.558 65.1992L142.544 79.0986C142.425 79.1384 142.321 79.2148 142.247 79.317C142.173 79.4192 142.134 79.542 142.134 79.6679C142.134 79.7939 142.173 79.9166 142.247 80.0188C142.321 80.121 142.425 80.1974 142.544 80.2372L215.323 122.228C215.629 122.383 215.966 122.463 216.308 122.463C216.65 122.463 216.988 122.383 217.293 122.228L241.312 108.333C241.429 108.292 241.531 108.216 241.604 108.114C241.676 108.013 241.715 107.891 241.715 107.767C241.715 107.642 241.676 107.521 241.604 107.419C241.531 107.317 241.429 107.241 241.312 107.2L168.527 65.2095C168.225 65.047 167.886 64.9658 167.543 64.9736V64.9633Z" fill="white"/>
<path d="M209.318 124.371C209.318 124.689 208.369 124.397 207.199 123.725L204.409 122.12C203.24 121.443 202.291 120.632 202.291 120.32V119.745L209.318 123.797V124.371Z" fill="#E0E0E0"/>
<path d="M158.639 95.1363C158.639 95.4492 157.69 95.1363 156.521 94.4849L153.725 92.8796C152.556 92.2077 151.612 91.3973 151.612 91.0793V90.5049L158.634 94.5619L158.639 95.1363Z" fill="#E0E0E0"/>
<path d="M182.181 112.924C182.181 113.242 181.232 112.924 180.063 112.278L177.273 110.673C176.103 109.996 175.154 109.185 175.154 108.872V108.298L182.181 112.35V112.924Z" fill="#E0E0E0"/>
<path d="M182.181 125.084C182.181 125.402 181.232 125.115 180.063 124.438L177.273 122.833C176.103 122.156 175.154 121.35 175.154 121.032V120.458L182.181 124.515V125.084Z" fill="#E0E0E0"/>
<path d="M182.181 142.553C182.181 142.871 181.232 142.579 180.063 141.902L177.273 140.296C176.103 139.624 175.154 138.814 175.154 138.496V137.927L182.181 141.979V142.553Z" fill="#E0E0E0"/>
<path d="M162.681 109.2L194.121 127.351V128.367L162.681 110.216V109.2Z" fill="#E6E6E6"/>
<path d="M162.681 126.669L194.121 144.82V145.831L162.681 127.679V126.669Z" fill="#E6E6E6"/>
<path d="M136.157 208.275L137.132 194.263L143.917 190.35L140.035 206.034L136.157 208.275Z" fill="#B16668"/>
<path d="M136.157 208.275L132.274 206.034L132.346 191.504L137.131 194.268L136.157 208.275Z" fill="#9A4A4D"/>
<path d="M88.6025 180.826L89.5822 166.819L96.3677 162.9L92.4851 178.59L88.6025 180.826Z" fill="#B16668"/>
<path d="M88.6023 180.826L84.7197 178.59L84.7967 164.06L89.5819 166.819L88.6023 180.826Z" fill="#9A4A4D"/>
<path d="M185.164 180.005L184.19 167.126L177.404 171.039L181.282 182.246L185.164 180.005Z" fill="#B16668"/>
<path d="M181.282 182.246L177.404 180.005L172.619 168.28L177.404 171.045L181.282 182.246Z" fill="#9A4A4D"/>
<path d="M136.157 193.699L185.795 165.064V169.547L136.157 198.182V193.699Z" fill="#B16668"/>
<path d="M81.8167 166.809L136.158 198.182V193.7L81.8115 162.326L81.8167 166.809Z" fill="#9A4A4D"/>
<path d="M136.158 193.699L185.795 165.065L131.454 133.696L81.8115 162.326L136.158 193.699Z" fill="#9A4A4D"/>
<path d="M159.453 100.174L145.435 99.4505C143.333 99.3332 141.241 99.8285 139.414 100.876L138.168 101.6C136.583 102.5 135.277 103.819 134.392 105.412C133.508 107.005 133.078 108.811 133.152 110.632L134.203 136.276C134.342 137.597 134.963 138.82 135.947 139.712C142.871 145.406 150.585 150.776 157.447 154.432C163.304 157.593 169.44 160.204 175.778 162.234C177.228 162.689 178.757 162.841 180.269 162.68C181.78 162.518 183.243 162.047 184.564 161.295C186.148 160.395 187.454 159.077 188.34 157.485C189.225 155.893 189.656 154.088 189.585 152.268L188.6 128.557C187.98 113.735 174.87 100.953 159.453 100.174Z" fill="#455A64"/>
<path d="M157.447 154.402C163.303 157.573 169.439 160.194 175.778 162.234C177.228 162.69 178.757 162.842 180.269 162.68C181.78 162.519 183.242 162.047 184.564 161.295C186.148 160.396 187.454 159.078 188.34 157.486C189.225 155.894 189.656 154.089 189.585 152.268L188.6 128.557C188.545 127.302 188.401 126.053 188.169 124.818L147.518 148.345C150.721 150.534 154.035 152.556 157.447 154.402Z" fill="#37474F"/>
<path d="M173.471 161.577C167.949 159.609 162.592 157.208 157.448 154.397C150.585 150.74 142.872 145.37 135.947 139.677C134.964 138.784 134.343 137.561 134.204 136.24L133.142 110.431C132.993 106.723 136.024 103.846 139.886 104.046L151.683 104.651C167.101 105.446 180.21 118.227 180.82 133.05L181.754 155.761C181.933 160.561 178.205 163.187 173.471 161.577Z" fill="#263238"/>
<path d="M149.647 118.776L138.502 70.4925C137.214 65.4866 133.403 61.1476 128.203 58.7626C127.905 58.6192 127.577 58.5499 127.246 58.5606C126.916 58.5714 126.593 58.6618 126.305 58.8242L80.6577 85.2483C80.3859 85.3939 80.1657 85.6198 80.0271 85.8952C79.8885 86.1706 79.8382 86.482 79.8832 86.787L88.7819 144.61L98.3319 148.996C98.9684 149.301 99.6689 149.45 100.375 149.43C101.081 149.409 101.771 149.22 102.389 148.878L148.062 122.448C148.701 122.104 149.205 121.554 149.492 120.887C149.78 120.221 149.834 119.477 149.647 118.776Z" fill="#37474F"/>
<path d="M128.203 58.7626C127.905 58.6192 127.577 58.5499 127.246 58.5606C126.916 58.5714 126.593 58.6618 126.305 58.8242L80.6577 85.2483C80.3859 85.3939 80.1657 85.6198 80.0271 85.8952C79.8885 86.1706 79.8382 86.482 79.8832 86.787L81.6014 98.2296L136.753 66.3226C134.737 62.9927 131.754 60.3557 128.203 58.7626Z" fill="#455A64"/>
<path d="M88.7611 144.62L79.8676 86.7968C79.6675 85.4736 81.1754 84.5658 82.5346 85.1915C87.7405 87.5764 91.5512 91.9104 92.8386 96.9162L103.973 145.205C104.738 148.169 101.409 150.406 98.3317 148.995L88.7611 144.62Z" fill="#263238"/>
<path d="M184.041 136.64L158.201 122.858C155.072 121.191 150.118 121.243 147.133 122.971L108.897 145.097C107.415 145.954 106.702 147.062 106.732 148.175V148.2L107.758 173.183C107.804 174.296 108.61 175.404 110.174 176.235L134.244 189.057C137.373 190.724 142.322 190.673 145.307 188.944L181.856 167.798C183.184 167.028 183.907 166.054 184.005 165.064L186.441 140.025C186.549 138.804 185.759 137.558 184.041 136.64Z" fill="#37474F"/>
<path d="M147.471 122.797C147.359 122.853 147.241 122.91 147.133 122.971L108.897 145.097C107.415 145.954 106.702 147.062 106.732 148.175V148.2L107.758 173.183C107.804 174.296 108.61 175.404 110.174 176.235L134.244 189.057C135.98 189.909 137.897 190.326 139.829 190.273L142.178 166.095L147.471 122.797Z" fill="#263238"/>
<path d="M147.134 122.972L108.898 145.098C105.913 146.827 106.025 149.576 109.149 151.253L134.988 165.029C138.112 166.696 143.066 166.65 146.051 164.921L184.293 142.795C187.278 141.067 187.165 138.313 184.036 136.641L158.202 122.859C155.073 121.203 150.134 121.244 147.134 122.972Z" fill="#455A64"/>
<path d="M161.347 168.019C158.393 167.87 156.08 170.424 155.905 171.189C155.664 172.214 155.946 174.266 157.352 176.697C158.603 179.124 159.272 181.809 159.306 184.539C159.306 186.873 158.67 192.745 161.244 195.433C163.819 198.121 169.21 200.229 170.723 196.11C171.236 194.761 169.625 190.36 168.81 187.119C167.189 180.667 165.809 174.24 165.809 174.24L161.347 168.019Z" fill="#455A64"/>
<path d="M160.869 173.316C161.623 176.453 162.137 179.642 162.408 182.856C162.644 186.37 163.577 188.616 164.921 190.078C166.403 191.693 169.829 192.381 169.127 188.801C168.645 186.303 165.803 174.24 165.803 174.24L160.869 173.316Z" fill="#FFA8A7"/>
<path opacity="0.15" d="M156.803 169.952C156.849 172.127 158.49 177.769 161.819 182.333C165.081 186.806 169.748 191.996 170.825 195.294C170.774 193.755 169.892 190.965 169.199 188.488L169.153 188.324C169.112 188.18 169.071 188.037 169.035 187.898C168.999 187.76 168.999 187.765 168.984 187.698C168.933 187.519 168.886 187.334 168.84 187.155V187.119C168.327 185.103 167.85 183.092 167.425 181.272C167.086 179.82 166.784 178.497 166.537 177.394C166.414 176.845 166.307 176.368 166.209 175.927C166.163 175.717 166.122 175.522 166.081 175.343L165.84 174.24L161.378 168.019C161.183 168.019 160.993 168.019 160.808 168.019C159.287 168.17 157.868 168.855 156.803 169.952Z" fill="black"/>
<path d="M170.707 128.839C160.526 122.53 147.56 116.017 147.56 116.017L118.448 119.904L150.658 139.907L164.449 147.6C164.449 147.6 166.927 147.19 165.737 151.191C165.357 152.463 164.839 154.996 164.311 157.858L171.804 174.03C171.804 174.03 175.143 168.137 178.38 157.002C181.662 145.718 181.616 142.128 180.99 139.984C180.175 137.199 179.026 133.988 170.707 128.839Z" fill="#FFA8A7"/>
<path d="M147.058 133.732C147.468 133.963 149.268 135.004 149.745 135.271C156.131 139.004 167.014 146.375 168.466 149.888C169.368 152.063 172.61 158.346 174.81 166.675C174.81 166.675 174.138 161.09 173.451 155.617C172.492 147.965 170.887 145.918 168.178 143.308C165.532 140.784 152.053 134.076 151.115 133.634C153.166 131.691 153.946 127.993 153.787 126.172C153.797 126.177 151.027 131.973 147.058 133.732Z" fill="#F28F8F"/>
<path d="M169.343 190.725C168.609 190.679 168.542 192.017 168.071 193.72C167.763 194.828 167.183 196.669 167.758 198.818C168.332 200.967 171.507 201.383 173.035 204.224C174.564 207.066 176.728 212.174 182.344 213.846C187.96 215.518 192.474 213.79 193.684 212.046C194.895 210.302 194.079 208.512 190.607 206.045C186.909 203.424 185.868 202.655 185.868 202.655L169.343 190.725Z" fill="#455A64"/>
<path d="M190.048 205.87C189.535 205.25 188.084 203.819 187.453 203.039C184.55 199.5 181.975 195.741 180.457 191.863C179.78 190.14 172.953 157.351 171.574 152.299C170.65 148.914 169.568 147.088 166.599 144.851C159.7 139.656 147.268 133.758 147.268 133.758C147.268 133.758 147.268 123.228 144.703 117.643H113.073C113.294 124.975 115.13 132.169 118.448 138.712C120.31 142.241 125.29 146.098 133.779 149.898C142.026 153.586 152.017 157.592 154.058 158.335C156.1 159.079 156.059 160.479 156.782 164.423C157.526 168.48 157.915 170.178 162.342 177.83C164.845 182.154 167.517 184.693 168.604 187.96C169.139 189.324 169.349 190.794 169.219 192.253C169.205 193.188 169.525 194.098 170.122 194.817C170.738 195.612 171.384 196.356 172.076 197.1C173.907 199.059 176.656 204.188 179.77 206.645C182.883 209.101 188.525 208.942 189.889 207.706C190.036 207.608 190.16 207.478 190.25 207.326C190.34 207.173 190.395 207.003 190.41 206.826C190.425 206.65 190.401 206.473 190.338 206.307C190.275 206.142 190.176 205.992 190.048 205.87Z" fill="#FFA8A7"/>
<path d="M189.113 117.415C187.98 117.169 186.805 117.051 185.687 116.764C184.918 116.564 184.149 116.277 183.4 116.051C183.169 115.984 181.61 115.538 181.702 114.882C181.784 114.343 184.072 114.958 186.523 114.558C188.975 114.158 189.195 112.379 187.882 112.235C185.481 112.001 183.129 111.402 180.907 110.46C178.373 109.378 174.121 110.46 172.188 109.86C169.747 109.122 157.781 103.193 157.781 103.193C157.781 103.193 150.703 94.9557 146.595 91.027C142.153 86.7751 140.696 85.3185 136.337 84.5594C134.559 84.3017 132.762 84.2022 130.967 84.2619L138.029 99.7872C138.029 99.7872 141.768 103.624 145.092 107.245C148.646 111.112 148.836 111.953 152.847 113.286C157.345 114.779 171.285 118.846 171.285 118.846C173.337 120.026 175.122 121.852 177.409 122.472C178.451 122.738 179.51 122.934 180.579 123.057C181.506 123.244 182.466 123.194 183.369 122.913C183.816 122.683 184.277 122.479 184.749 122.303C185.195 122.206 185.682 122.303 186.133 122.216C187.364 122.021 187.959 121.334 188.734 120.467C189.298 119.836 190.144 119.708 190.811 119.205C192.303 118.123 189.939 117.61 189.113 117.415Z" fill="#FFA8A7"/>
<path d="M179.763 115.118C179.367 115.173 178.974 115.253 178.589 115.359C178.115 115.449 177.633 115.48 177.152 115.451C175.756 115.34 174.449 114.72 173.48 113.707C173.378 113.6 173.331 113.779 173.393 113.861C174.132 114.818 175.176 115.493 176.352 115.774C176.964 115.917 177.595 115.955 178.219 115.887C178.732 115.826 179.507 115.728 179.845 115.302C179.881 115.251 179.835 115.113 179.763 115.118Z" fill="#F28F8F"/>
<path d="M131.521 83.7598C135.716 83.7598 138.875 84.3342 141.163 85.9447C143.45 87.5552 147.795 91.6429 150.795 94.6638C153.795 97.6848 154.426 98.4644 154.426 98.4644C154.426 98.4644 154.426 100.865 150.713 104.383C147 107.902 145.266 107.937 145.266 107.937L131.521 94.91V83.7598Z" fill="#EBEBEB"/>
<path d="M123.833 144.948C112.693 138.07 112.083 130.013 110.129 114.59C108.498 101.655 107.872 91.8124 111.154 89.6788C114.076 88.064 117.112 86.6652 120.238 85.4936C123.705 84.4011 131.491 83.7344 131.491 83.7344C136.948 86.3399 142.225 89.5557 145.031 92.9049C147.97 96.4079 148.021 101.829 145.251 105.958L147.749 115.308C147.749 115.308 152.309 117.467 158.407 120.95C165.316 124.879 177.687 131.136 180.174 136.126C182.662 141.117 181.995 145.615 180.174 152.805C176.425 161.412 161.859 165.31 156.802 165.51C156.289 164.146 156.248 162.874 155.591 160.955C155.135 159.617 155.648 159.314 148.724 156.898C140.009 153.85 131.661 149.842 123.833 144.948Z" fill="#FAFAFA"/>
<path d="M174.886 158.894C172.629 159.944 170.222 160.637 167.752 160.945C165.259 161.259 162.733 160.734 160.571 159.453C158.715 158.263 157.36 156.432 155.642 155.047C154.635 154.285 153.572 153.599 152.462 152.995L142.594 147.251C140.968 146.302 139.209 145.446 137.66 144.374C136.399 143.424 135.257 142.326 134.26 141.101C133.147 139.819 131.536 137.142 132.988 135.547C133.818 134.658 134.924 134.076 136.127 133.895C137.542 133.68 138.989 133.731 140.394 133.459C141.799 133.188 143.23 132.531 143.943 131.29C144.333 130.608 144.523 129.751 145.19 129.331C145.364 129.223 145.559 129.156 145.728 129.043C146.106 128.7 146.422 128.294 146.662 127.843C148.169 125.792 150.652 125.125 152.503 123.494C153.319 122.781 152.17 122.407 151.59 122.34C150.821 122.297 150.051 122.429 149.339 122.725C147.918 123.316 146.573 124.075 145.333 124.986C143.256 126.397 141.312 128.028 139.03 129.09C138.027 129.51 136.968 129.778 135.886 129.885C131.057 130.548 126.167 130.627 121.32 130.12C119.042 129.879 116.704 129.495 114.724 128.392C113.463 127.717 112.402 126.723 111.646 125.51C113.185 134.229 115.678 139.901 123.828 144.933C131.649 149.825 139.991 153.834 148.698 156.883C155.622 159.299 155.109 159.601 155.565 160.94C156.222 162.858 156.268 164.13 156.776 165.495C160.479 165.361 169.219 163.243 175.153 158.765L174.886 158.894Z" fill="#EBEBEB"/>
<path d="M168.917 144.836C169.746 146.198 170.411 147.655 170.896 149.175C171.193 150.293 171.547 151.396 171.958 152.478C172.056 152.698 172.209 152.939 172.445 152.96C172.681 152.98 172.958 152.662 172.958 152.37C173.192 150.41 173.171 148.427 172.897 146.472C172.138 142.112 169.265 139.014 165.716 136.599C163.284 134.934 160.487 133.878 157.561 133.521C157.44 133.49 157.313 133.487 157.189 133.511C157.066 133.535 156.95 133.586 156.848 133.66C156.515 133.988 156.879 134.532 157.233 134.834C161.162 138.184 166.142 140.492 168.917 144.836Z" fill="#F5F5F5"/>
<path d="M134.881 109.062C131.526 112.57 124.71 113.483 120.679 109.262C120.679 109.262 121.802 113.616 127.762 113.534C133.722 113.452 134.881 109.062 134.881 109.062Z" fill="#E0E0E0"/>
<path d="M117.858 72.1689C118.479 70.9426 119.223 69.7826 120.079 68.7069C120.698 67.9169 121.384 67.1824 122.131 66.5117C123.721 65.1062 125.612 64.0849 127.66 63.5267C128.678 63.2387 129.726 63.0667 130.783 63.0138C130.968 63.0138 133.399 63.0702 133.399 63.0651C133.049 61.7319 132.41 60.4922 131.527 59.4338C129.762 57.321 127.232 55.9947 124.49 55.7461C120.969 55.5628 117.487 56.5552 114.591 58.567C111.899 60.4237 107.831 65.8911 111.391 74.2923C112.694 77.3696 116.633 80.529 116.633 80.529C116.633 80.529 116.52 78.1133 116.489 77.4517C116.438 76.3799 116.603 75.3087 116.976 74.3025C117.221 73.572 117.516 72.8591 117.858 72.1689Z" fill="#BA68C8"/>
<path opacity="0.15" d="M117.109 65.2547C116.488 65.6938 115.964 66.256 115.57 66.9062C115.123 67.5555 114.768 68.263 114.514 69.0091C114.241 69.8139 114.068 70.6494 114.001 71.4966C113.885 72.3326 113.936 73.1831 114.149 73.9995C114.185 74.1021 114.401 74.179 114.411 74.0252C114.488 73.2148 114.37 72.3942 114.411 71.5735C114.467 70.764 114.617 69.9637 114.857 69.1886C115.1 68.4016 115.445 67.6498 115.883 66.9524C116.072 66.6542 116.279 66.3681 116.504 66.0959C116.709 65.8445 116.955 65.6189 117.15 65.3573C117.186 65.3265 117.16 65.2239 117.109 65.2547Z" fill="black"/>
<path opacity="0.15" d="M115.848 62.2188C115.587 62.4596 115.353 62.7279 115.15 63.0189C114.94 63.3265 114.751 63.6488 114.586 63.9831C114.272 64.6259 114.026 65.2997 113.853 65.9936C113.343 68.5077 113.314 71.0953 113.765 73.6203C113.765 73.6973 113.888 73.7485 113.899 73.6203C113.919 72.5472 113.883 71.4738 113.791 70.4045C113.748 69.3593 113.798 68.3123 113.94 67.2759C114.058 66.3994 114.274 65.539 114.586 64.7114C114.74 64.293 114.925 63.8867 115.14 63.4959C115.243 63.301 115.36 63.1112 115.478 62.9265C115.596 62.7419 115.735 62.4855 115.884 62.2803C115.899 62.2854 115.884 62.2188 115.848 62.2188Z" fill="black"/>
<path d="M128.85 62.1212C132.174 62.27 133.394 63.0803 133.394 63.0803C134.067 64.6787 134.355 66.4126 134.235 68.1426C134.138 69.2812 134.933 70.548 135.01 71.6867C135.446 77.9901 133.148 80.9597 132.086 81.6829C131.025 82.4061 129.789 82.7087 127.552 82.7549L127.686 85.3501C129.828 87.9405 131.401 90.9534 132.302 94.1923C126.794 92.6574 121.598 90.1681 116.951 86.8375L116.479 77.7593C116.479 77.7593 115.453 79.062 113.243 78.0363C110.904 76.9335 110.37 73.8459 111.335 72.0816C111.591 71.6118 111.959 71.2122 112.406 70.9179C112.854 70.6237 113.366 70.4438 113.899 70.3942C114.314 70.3624 114.73 70.4477 115.099 70.6404C115.284 70.7276 116.125 71.4046 116.207 71.2969C116.289 71.1892 116.238 71.0815 116.274 70.9686C118.71 64.1523 125.506 62.2956 128.301 62.1418C128.46 62.1418 128.65 62.111 128.85 62.1212Z" fill="#FFA8A7"/>
<path d="M127.567 82.7345C125.234 82.8627 119.264 81.7087 118.166 77.9697C118.16 78.759 118.343 79.5383 118.7 80.2423C119.057 80.9463 119.578 81.5547 120.218 82.0164C122.659 83.9449 127.639 84.068 127.639 84.068L127.567 82.7345Z" fill="#F28F8F"/>
<path d="M125.311 70.2972C125.343 70.5028 125.314 70.7133 125.228 70.9026C125.141 71.0919 125.001 71.2515 124.824 71.3618C124.648 71.472 124.443 71.528 124.235 71.5227C124.027 71.5174 123.825 71.451 123.654 71.3319C123.484 71.2128 123.352 71.0462 123.275 70.8528C123.198 70.6593 123.18 70.4476 123.223 70.2439C123.265 70.0402 123.367 69.8535 123.515 69.7071C123.663 69.5606 123.85 69.4609 124.054 69.4201C124.194 69.3943 124.338 69.3966 124.478 69.4268C124.617 69.4571 124.749 69.5146 124.866 69.5962C124.983 69.6778 125.082 69.7817 125.159 69.9021C125.235 70.0224 125.287 70.1567 125.311 70.2972Z" fill="#263238"/>
<path d="M132.697 69.7738C132.723 69.9802 132.688 70.1898 132.596 70.3765C132.504 70.5632 132.36 70.7188 132.18 70.8239C132 70.929 131.794 70.979 131.586 70.9677C131.378 70.9564 131.178 70.8843 131.011 70.7603C130.844 70.6363 130.717 70.466 130.646 70.2704C130.575 70.0749 130.563 69.8627 130.611 69.6604C130.66 69.458 130.767 69.2743 130.918 69.1322C131.07 68.99 131.261 68.8957 131.466 68.8609C131.75 68.8197 132.039 68.8926 132.27 69.0636C132.5 69.2346 132.654 69.4899 132.697 69.7738Z" fill="#263238"/>
<path d="M124.603 66.8347L122.315 68.2964C122.212 68.1518 122.14 67.9878 122.103 67.8143C122.065 67.6408 122.063 67.4615 122.098 67.2873C122.132 67.1132 122.201 66.9477 122.301 66.8011C122.401 66.6545 122.53 66.5299 122.679 66.4346C122.99 66.242 123.363 66.1761 123.721 66.2506C124.079 66.325 124.395 66.5341 124.603 66.8347Z" fill="#263238"/>
<path d="M130.281 66.4094L132.974 66.7684C133.007 66.5934 133.004 66.4135 132.965 66.2397C132.925 66.066 132.851 65.9021 132.747 65.758C132.642 65.614 132.509 65.4928 132.356 65.4019C132.203 65.3111 132.032 65.2525 131.856 65.2297C131.492 65.1864 131.126 65.2848 130.832 65.5045C130.539 65.7241 130.342 66.0481 130.281 66.4094Z" fill="#263238"/>
<path d="M127.455 68.8457L128.224 75.1594L131.645 73.8156L127.455 68.8457Z" fill="#F28F8F"/>
<path d="M125.362 76.3287C125.362 76.4467 125.521 76.5698 125.598 76.6467C126.168 77.1645 126.911 77.45 127.681 77.4469C127.882 77.4517 128.084 77.4328 128.281 77.3904C128.363 77.3904 128.522 77.2981 128.419 77.2212C128.281 77.1729 128.135 77.1486 127.988 77.1494C127.706 77.137 127.425 77.0923 127.152 77.016C126.618 76.8618 126.112 76.621 125.655 76.3031C125.552 76.2518 125.357 76.1595 125.362 76.3287Z" fill="#B16668"/>
<path d="M116.032 71.2717C116.416 71.9282 116.745 71.8872 117.058 70.7588C118.113 68.1333 120.05 65.9571 122.535 64.6041C125.807 62.9372 130.521 62.2294 133.593 63.645L133.106 62.1781C129.295 60.4856 124.694 61.9012 121.986 63.3783C119.278 64.8554 115.888 68.4559 116.032 71.2717Z" fill="#F5F5F5"/>
<path d="M111.729 78.8162C111.078 79.3527 110.594 80.0647 110.334 80.8678L109.411 83.0322C110.292 83.2681 111.202 83.3786 112.114 83.3605C112.648 83.2998 113.162 83.1199 113.618 82.834C114.073 82.5482 114.458 82.1637 114.745 81.709C115.197 80.9858 115.725 79.2163 114.848 78.6008C114.104 78.0777 112.437 78.3444 111.729 78.8162Z" fill="#BA68C8"/>
<path opacity="0.2" d="M111.729 78.8162C111.078 79.3527 110.594 80.0647 110.334 80.8678L109.411 83.0322C110.292 83.2681 111.202 83.3786 112.114 83.3605C112.648 83.2998 113.162 83.1199 113.618 82.834C114.073 82.5482 114.458 82.1637 114.745 81.709C115.197 80.9858 115.725 79.2163 114.848 78.6008C114.104 78.0777 112.437 78.3444 111.729 78.8162Z" fill="black"/>
<path d="M117.586 81.56C117.642 82.4009 117.454 83.24 117.042 83.9757L116.099 86.135C115.323 85.6518 114.619 85.0632 114.006 84.386C113.683 83.9553 113.46 83.4574 113.356 82.9291C113.251 82.4009 113.266 81.8558 113.401 81.3343C113.621 80.5085 114.545 78.9135 115.601 79.134C116.504 79.3186 117.448 80.7188 117.586 81.56Z" fill="#BA68C8"/>
<path opacity="0.1" d="M117.586 81.56C117.642 82.4009 117.454 83.24 117.042 83.9757L116.099 86.135C115.323 85.6518 114.619 85.0632 114.006 84.386C113.683 83.9553 113.46 83.4574 113.356 82.9291C113.251 82.4009 113.266 81.8558 113.401 81.3343C113.621 80.5085 114.545 78.9135 115.601 79.134C116.504 79.3186 117.448 80.7188 117.586 81.56Z" fill="black"/>
<path opacity="0.15" d="M115.432 82.4014C115.371 82.1281 115.333 81.8501 115.319 81.5705C115.298 81.2939 115.298 81.0162 115.319 80.7396C115.319 80.596 115.355 80.4524 115.375 80.3088C115.411 80.19 115.411 80.0633 115.375 79.9446C115.372 79.9296 115.364 79.9159 115.353 79.905C115.342 79.8941 115.329 79.8865 115.314 79.8831C115.314 79.801 115.226 79.7138 115.155 79.7805C115.011 79.9577 114.9 80.1592 114.826 80.3754C114.735 80.5877 114.661 80.8073 114.606 81.0319C114.494 81.4935 114.471 81.9723 114.539 82.4424C114.539 82.4937 114.616 82.5142 114.616 82.4424C114.606 81.994 114.662 81.5465 114.78 81.114C114.842 80.9034 114.919 80.6977 115.011 80.4985C115.052 80.4011 115.103 80.3036 115.155 80.2062C115.13 80.3471 115.113 80.4892 115.103 80.6319C115.08 80.9238 115.08 81.217 115.103 81.5089C115.13 81.78 115.174 82.049 115.237 82.3142C115.287 82.6111 115.391 82.8963 115.544 83.1553C115.544 83.1553 115.58 83.1553 115.575 83.1245C115.58 82.8989 115.483 82.6527 115.432 82.4014Z" fill="black"/>
<path d="M106.975 130.433L92.9727 129.741C90.8698 129.633 88.7804 130.135 86.9565 131.187L85.7102 131.911C84.1275 132.815 82.8233 134.136 81.9397 135.731C81.0562 137.325 80.6271 139.131 80.6992 140.953L81.725 166.597C81.8633 167.917 82.4843 169.139 83.4688 170.029C90.3826 175.706 98.0914 181.056 104.944 184.697C110.787 187.847 116.91 190.448 123.233 192.468C124.683 192.92 126.211 193.068 127.721 192.903C129.231 192.738 130.691 192.263 132.009 191.509C133.592 190.604 134.897 189.283 135.781 187.689C136.666 186.095 137.096 184.288 137.025 182.466L136.056 158.776C135.471 143.938 122.372 131.187 106.975 130.433Z" fill="#455A64"/>
<path d="M104.969 184.682C110.813 187.831 116.935 190.432 123.259 192.452C124.709 192.904 126.237 193.053 127.747 192.888C129.257 192.723 130.716 192.248 132.034 191.493C133.618 190.589 134.923 189.268 135.807 187.673C136.691 186.079 137.122 184.273 137.05 182.451L136.081 158.76C136.028 157.507 135.884 156.259 135.65 155.026L95.0498 178.645C98.2495 180.828 101.56 182.843 104.969 184.682Z" fill="#37474F"/>
<path d="M120.976 191.816C115.461 189.864 110.108 187.479 104.969 184.682C98.1169 181.041 90.4081 175.691 83.4944 170.013C82.5099 169.124 81.8888 167.902 81.7505 166.582L80.6889 140.789C80.5401 137.076 83.5662 134.193 87.4231 134.383L99.1888 134.962C114.576 135.716 127.69 148.467 128.295 163.289L129.229 185.995C129.424 190.786 125.71 193.417 120.976 191.816Z" fill="#263238"/>
<path d="M149.99 121.233C148.287 121.427 146.615 121.745 144.923 122.048C143.201 122.365 141.451 122.495 139.701 122.438C139.624 122.438 139.527 122.407 139.532 122.33C139.54 122.297 139.56 122.267 139.589 122.248C140.279 121.739 140.935 121.186 141.553 120.591C141.858 120.288 142.074 119.906 142.177 119.489C142.28 119.071 142.267 118.633 142.138 118.222C142.118 118.163 142.085 118.11 142.04 118.068C141.902 117.94 141.676 118.006 141.527 118.068C141.014 118.324 140.563 118.683 139.989 118.899C139.436 119.122 138.869 119.307 138.291 119.453C137.575 119.587 136.866 119.759 136.168 119.966C135.238 120.34 134.388 120.888 133.665 121.581C133.084 122.184 132.347 122.612 131.536 122.817C129.726 123.264 128.213 123.248 124.299 122.735C118.17 121.94 114.898 121.381 114.898 121.381L115.072 106.333C115.072 97.9678 113.082 91.7156 110.723 90.2539C108.671 91.4028 106.107 93.4184 105.081 94.9725C103.276 97.7421 103.004 99.7219 102.86 108.441C102.763 114.237 102.573 117.832 102.737 123.048C102.999 131.178 103.727 131.619 110.944 132.167C115.893 132.547 120.955 132.126 125.038 131.721C126.72 131.562 137.516 131.419 139.286 131.034C140.826 130.737 142.229 129.951 143.286 128.793C143.538 128.5 143.774 128.182 144.025 127.88C144.197 127.615 144.422 127.39 144.687 127.218C144.907 127.1 145.148 127.018 145.364 126.89C145.618 126.728 145.833 126.512 145.995 126.258C146.156 126.003 146.259 125.717 146.297 125.418C146.436 124.566 147.323 124.305 148.031 124.033C149.501 123.522 150.941 122.93 152.344 122.258C152.381 122.239 152.412 122.208 152.431 122.171C152.444 122.129 152.444 122.085 152.431 122.043C152.211 121.038 150.764 121.145 149.99 121.233Z" fill="#FFA8A7"/>
<path d="M114.898 121.397C112.082 121.181 108.153 121.91 106.522 123.448C106.522 123.448 107.548 120.484 114.913 120.048L114.898 121.397Z" fill="#F28F8F"/>
<path d="M111.185 89.6797C106.625 92.039 104.63 93.8392 103.276 97.7013C101.922 101.563 101.974 106.518 101.789 111.729C101.604 116.94 101.568 117.658 101.568 117.658C103.773 118.943 106.279 119.617 108.831 119.612C113.873 119.494 115.888 117.776 115.888 117.776C115.888 117.776 116.34 105.359 115.888 100.338C115.437 95.3164 113.493 90.8029 111.185 89.6797Z" fill="#EBEBEB"/>
<path d="M78.1757 205.905C78.176 206.121 78.1536 206.336 78.109 206.547C78.0347 206.905 77.83 207.223 77.5346 207.439C77.2548 207.582 76.9409 207.645 76.6277 207.62C76.3146 207.596 76.0142 207.485 75.76 207.3C75.0503 206.838 74.4598 206.215 74.0365 205.482C73.6132 204.748 73.369 203.925 73.3237 203.079C73.2965 202.785 73.3454 202.49 73.4658 202.22C73.5862 201.95 73.7739 201.717 74.011 201.541L74.1239 201.474C74.4499 201.338 74.8138 201.324 75.1496 201.433C75.3574 201.497 75.5571 201.585 75.7446 201.695C76.4528 202.155 77.0421 202.777 77.4646 203.509C77.887 204.24 78.1307 205.062 78.1757 205.905Z" fill="#455A64"/>
<path d="M77.514 200.669C77.1859 200.468 76.8114 200.355 76.4267 200.341C76.1836 200.338 75.9449 200.406 75.7394 200.536L75.6778 200.567L74.1084 201.474C74.4344 201.339 74.7983 201.324 75.1342 201.433C75.3419 201.497 75.5416 201.585 75.7291 201.695C76.4383 202.155 77.0286 202.777 77.452 203.508C77.8754 204.24 78.1198 205.062 78.1654 205.906C78.1656 206.121 78.1433 206.336 78.0987 206.547C78.0244 206.905 77.8197 207.223 77.5243 207.439L79.1347 206.506L79.2732 206.424L79.3142 206.398C79.5236 206.212 79.6867 205.98 79.7909 205.72C79.895 205.46 79.9373 205.18 79.9143 204.901C79.8735 204.057 79.635 203.234 79.2181 202.499C78.8012 201.764 78.2175 201.137 77.514 200.669Z" fill="#263238"/>
<path d="M51.8179 191.734C51.8166 191.948 51.7926 192.161 51.7461 192.37C51.6737 192.729 51.4686 193.048 51.1717 193.262C50.8931 193.407 50.5798 193.47 50.2672 193.446C49.9545 193.421 49.6549 193.31 49.4022 193.124C48.6879 192.665 48.0927 192.043 47.6656 191.309C47.2385 190.575 46.9917 189.751 46.9454 188.903C46.9191 188.61 46.9679 188.314 47.0872 188.045C47.2066 187.776 47.3925 187.542 47.6276 187.364L47.7455 187.292C48.0727 187.162 48.4348 187.147 48.7713 187.251C48.9811 187.314 49.1826 187.402 49.3714 187.513C50.0829 187.974 50.6755 188.597 51.1006 189.33C51.5258 190.064 51.7715 190.887 51.8179 191.734Z" fill="#455A64"/>
<path d="M51.1458 186.497C50.8199 186.295 50.4471 186.18 50.0636 186.164C49.8208 186.163 49.5827 186.231 49.3764 186.359L49.3148 186.395L47.7402 187.298C48.0674 187.167 48.4295 187.152 48.766 187.257C48.9758 187.319 49.1773 187.407 49.3661 187.518C50.0751 187.98 50.6652 188.602 51.0885 189.335C51.5118 190.067 51.7563 190.889 51.8023 191.734C51.8011 191.948 51.777 192.161 51.7305 192.37C51.6581 192.729 51.453 193.048 51.1561 193.262L52.7717 192.329L52.9102 192.247C52.9254 192.241 52.9393 192.232 52.9512 192.221C53.1602 192.035 53.3229 191.803 53.4262 191.543C53.5295 191.283 53.5706 191.002 53.5462 190.724C53.5062 189.88 53.268 189.058 52.851 188.324C52.4339 187.59 51.8498 186.964 51.1458 186.497Z" fill="#263238"/>
<path d="M56.5215 211.47C56.5216 211.684 56.5439 211.897 56.5882 212.106C56.6625 212.465 56.8672 212.783 57.1626 212.999C57.4424 213.141 57.7562 213.204 58.0694 213.18C58.3826 213.155 58.683 213.045 58.9372 212.86C59.6468 212.398 60.2373 211.775 60.6607 211.041C61.084 210.308 61.3282 209.485 61.3734 208.639C61.4002 208.345 61.351 208.049 61.2307 207.78C61.1104 207.511 60.9229 207.277 60.6862 207.1L60.5733 207.034C60.2462 206.903 59.8841 206.888 59.5475 206.993C59.3398 207.057 59.1401 207.144 58.9526 207.254C58.2437 207.716 57.654 208.338 57.2315 209.071C56.809 209.803 56.5657 210.626 56.5215 211.47Z" fill="#455A64"/>
<path d="M57.1831 206.203C57.5122 206.004 57.8862 205.891 58.2705 205.875C58.5132 205.875 58.7512 205.942 58.9577 206.07L59.0193 206.101L60.5887 207.008C60.2616 206.878 59.8995 206.863 59.563 206.967C59.3552 207.031 59.1555 207.119 58.968 207.229C58.2582 207.69 57.6674 208.312 57.244 209.045C56.8206 209.777 56.5765 210.6 56.5318 211.445C56.5318 211.659 56.5542 211.872 56.5984 212.081C56.6727 212.439 56.8775 212.757 57.1729 212.973L55.5624 212.04L55.4239 211.958C55.4077 211.954 55.3932 211.945 55.3829 211.932C55.1657 211.753 54.994 211.524 54.8817 211.266C54.7694 211.007 54.7197 210.726 54.7366 210.445C54.781 209.595 55.0258 208.768 55.451 208.031C55.8762 207.293 56.4697 206.667 57.1831 206.203Z" fill="#263238"/>
<path d="M39.4062 203.058C39.4077 203.274 39.4317 203.489 39.4781 203.7C39.5524 204.058 39.7571 204.376 40.0525 204.592C40.3304 204.737 40.6435 204.802 40.9563 204.779C41.2691 204.755 41.569 204.644 41.822 204.459C42.5323 203.997 43.1236 203.374 43.5478 202.64C43.972 201.907 44.2171 201.084 44.2633 200.238C44.2881 199.944 44.2381 199.649 44.1179 199.38C43.9977 199.111 43.8113 198.876 43.5761 198.699L43.4581 198.632C43.1321 198.496 42.7681 198.482 42.4323 198.591C42.2229 198.655 42.0215 198.743 41.8322 198.853C41.1262 199.314 40.5388 199.935 40.1173 200.666C39.6959 201.397 39.4523 202.216 39.4062 203.058Z" fill="#455A64"/>
<path d="M40.0731 197.822C40.4008 197.62 40.7756 197.507 41.1604 197.494C41.4012 197.492 41.6377 197.557 41.8426 197.684L41.9092 197.72L43.4787 198.648C43.1527 198.512 42.7887 198.498 42.4529 198.607C42.2435 198.671 42.0421 198.759 41.8528 198.869C41.1442 199.33 40.5544 199.951 40.131 200.683C39.7077 201.414 39.463 202.236 39.4166 203.08C39.418 203.295 39.4421 203.51 39.4884 203.721C39.5627 204.079 39.7674 204.397 40.0628 204.613L38.4523 203.68H38.4216L38.2882 203.598L38.2472 203.572C38.0372 203.386 37.8736 203.154 37.7694 202.894C37.6652 202.634 37.6233 202.353 37.6471 202.074C37.6864 201.224 37.9268 200.396 38.3485 199.657C38.7702 198.917 39.3613 198.289 40.0731 197.822Z" fill="#263238"/>
<path d="M72.4824 192.781C72.4838 192.997 72.5079 193.211 72.5542 193.422C72.6302 193.778 72.8346 194.094 73.1287 194.309C73.4072 194.454 73.7205 194.517 74.0331 194.492C74.3458 194.468 74.6454 194.357 74.8981 194.171C75.6086 193.71 76.1998 193.087 76.6232 192.353C77.0467 191.619 77.2904 190.796 77.3344 189.95C77.3607 189.656 77.3119 189.361 77.1926 189.092C77.0732 188.823 76.8873 188.589 76.6522 188.411L76.5343 188.344C76.2084 188.209 75.8452 188.193 75.5085 188.298C75.2999 188.364 75.0988 188.452 74.9084 188.56C74.2015 189.024 73.6137 189.648 73.1922 190.381C72.7708 191.114 72.5277 191.936 72.4824 192.781Z" fill="#455A64"/>
<path d="M73.1494 187.544C73.4772 187.342 73.8519 187.229 74.2367 187.216C74.4775 187.213 74.714 187.279 74.9189 187.406L74.9804 187.442L76.555 188.349C76.2291 188.214 75.866 188.198 75.5292 188.303C75.3206 188.369 75.1195 188.457 74.9291 188.565C74.221 189.027 73.6316 189.65 73.2084 190.382C72.7852 191.115 72.5401 191.936 72.4929 192.781C72.4943 192.996 72.5184 193.211 72.5647 193.422C72.6406 193.778 72.8451 194.094 73.1392 194.309L71.5287 193.376H71.4979L71.3594 193.294L71.3184 193.263C71.1098 193.078 70.9473 192.846 70.844 192.587C70.7407 192.328 70.6994 192.048 70.7234 191.77C70.7667 190.925 71.009 190.101 71.4305 189.367C71.8521 188.632 72.441 188.008 73.1494 187.544Z" fill="#263238"/>
<path d="M57.9369 187.632L49.2383 185.134V186.996L57.9369 192.012V187.632Z" fill="#EBEBEB"/>
<path d="M57.9369 187.631L58.7986 187.102L50.0692 184.723L49.2383 185.133L57.9369 187.631Z" fill="#F5F5F5"/>
<path d="M61.7012 193.175L74.0362 188.554V186.672L61.7012 187.775V193.175Z" fill="#EBEBEB"/>
<path d="M74.0363 186.672L73.1284 186.437L60.9678 187.221L61.7012 187.775L74.0363 186.672Z" fill="#F5F5F5"/>
<path d="M62.03 192.581C62.03 193.976 57.7422 193.976 57.7422 192.581V176.409H62.03V192.581Z" fill="#E6E6E6"/>
<path d="M58.3672 175.532C57.5312 176.02 57.5312 176.799 58.3672 177.286C58.838 177.524 59.358 177.648 59.8854 177.648C60.4128 177.648 60.9328 177.524 61.4036 177.286C62.2396 176.773 62.2396 176.02 61.4036 175.532C60.9328 175.295 60.4128 175.171 59.8854 175.171C59.358 175.171 58.838 175.295 58.3672 175.532Z" fill="#E0E0E0"/>
<path d="M58.84 189.416L56.4756 204.731H58.0912L60.2761 189.416C59.8069 189.551 59.3092 189.551 58.84 189.416Z" fill="#F5F5F5"/>
<path d="M60.2757 189.406V193.612L58.0703 207.316V204.721L60.2757 189.406Z" fill="#EBEBEB"/>
<path d="M58.0656 204.721H56.4551V207.311H58.0656V204.721Z" fill="#E0E0E0"/>
<path d="M61.0088 193.488L76.9136 201.828V199.258L61.0088 189.421V193.488Z" fill="#EBEBEB"/>
<path d="M61.0088 189.416C61.3924 189.376 61.7527 189.212 62.0346 188.949L77.9342 198.581L76.9392 199.253L61.0088 189.416Z" fill="#F5F5F5"/>
<path d="M76.9141 201.828V199.259L77.9091 198.587V201.074L76.9141 201.828Z" fill="#E0E0E0"/>
<path d="M40.96 198.879L57.9521 193.063V189.247L40.96 196.315V198.879Z" fill="#EBEBEB"/>
<path d="M57.9527 189.247C57.8143 189.211 57.7527 188.959 57.7425 188.585L40.458 196.109L40.9709 196.314L57.9527 189.247Z" fill="#F5F5F5"/>
<path d="M40.458 196.109V198.592L40.9606 198.879V196.315L40.458 196.109Z" fill="#E0E0E0"/>
<path opacity="0.1" d="M58.0656 204.721H56.4551V207.311H58.0656V204.721Z" fill="black"/>
<path opacity="0.1" d="M76.9141 201.828V199.259L77.9091 198.587V201.074L76.9141 201.828Z" fill="black"/>
<path opacity="0.1" d="M40.458 196.109V198.592L40.9606 198.879V196.315L40.458 196.109Z" fill="black"/>
<path d="M58.6343 31.8452V176.245C58.6428 176.355 58.6806 176.46 58.7437 176.55C58.8069 176.64 58.8931 176.712 58.9933 176.758C59.2665 176.897 59.5688 176.969 59.8755 176.969C60.1821 176.969 60.4844 176.897 60.7577 176.758C60.8595 176.713 60.9475 176.642 61.0125 176.552C61.0774 176.461 61.117 176.355 61.1269 176.245V31.8452C61.1269 31.68 61.0942 31.5165 61.0307 31.364C60.9672 31.2114 60.8741 31.073 60.7568 30.9567C60.6395 30.8403 60.5003 30.7484 60.3473 30.6861C60.1943 30.6238 60.0304 30.5924 59.8652 30.5938C59.5351 30.5965 59.2194 30.7295 58.9869 30.9639C58.7545 31.1983 58.624 31.5151 58.624 31.8452H58.6343Z" fill="#455A64"/>
<path d="M79.9243 48.1091L78.678 47.3911C78.1829 47.1052 77.6212 46.9548 77.0495 46.9548C76.4778 46.9548 75.9162 47.1052 75.4211 47.3911C75.1586 47.5409 74.8616 47.6196 74.5595 47.6196C74.2573 47.6196 73.9603 47.5409 73.6978 47.3911L73.0105 46.9962C72.7566 46.8508 72.5446 46.6423 72.395 46.391L70.4204 43.0982C70.1352 42.6247 69.7346 42.2312 69.2562 41.9544L58.9111 35.9639V37.7333L68.4868 43.2777C68.7421 43.4229 68.9559 43.6313 69.1074 43.8829L71.082 47.1757C71.3659 47.6503 71.7667 48.0441 72.2463 48.3194L72.9285 48.7144C73.4249 48.9992 73.9872 49.149 74.5595 49.149C75.1317 49.149 75.6941 48.9992 76.1905 48.7144C76.4533 48.5656 76.7501 48.4874 77.0521 48.4874C77.3541 48.4874 77.651 48.5656 77.9138 48.7144L79.1601 49.4375C79.2758 49.5036 79.4064 49.5389 79.5396 49.5401C79.7097 49.5426 79.8757 49.4884 80.0115 49.3859C80.1472 49.2834 80.2449 49.1386 80.289 48.9744C80.3332 48.8101 80.3213 48.6359 80.2552 48.4791C80.1892 48.3224 80.0727 48.1922 79.9243 48.1091Z" fill="#455A64"/>
<path d="M78.2265 70.4817C80.1806 68.1532 80.832 65.9324 80.9243 65.0297C81.2115 62.3062 80.3601 54.0487 80.037 50.5713C79.7139 47.0939 79.1497 46.4681 78.2624 46.5143C77.3751 46.5605 76.4827 46.8066 75.8364 46.0783C75.1902 45.35 74.7081 44.6474 73.272 45.4885C71.8359 46.3296 71.3332 47.5862 70.7075 49.0787C70.0818 50.5713 69.1688 51.3457 68.2815 52.31C67.3942 53.2742 66.3377 54.5718 66.0146 58.4236C65.6914 62.2755 65.158 71.21 65.6196 73.9078C65.794 74.9336 66.4813 76.3697 68.7739 76.2466C68.9688 76.2466 69.0919 76.4313 69.0611 76.7236L68.9688 77.5596C68.9577 77.6957 68.9129 77.8269 68.8387 77.9415C68.7644 78.0561 68.6628 78.1504 68.5431 78.2161L68.4046 78.2674C68.241 78.3591 68.1027 78.4901 68.0024 78.6486C67.9021 78.8071 67.8429 78.9881 67.8302 79.1752L67.4814 83.1296C67.4455 83.504 67.6302 83.7246 67.8969 83.6425L69.4817 83.0681C69.6375 82.981 69.7701 82.8577 69.8683 82.7087C69.9665 82.5596 70.0274 82.3891 70.0459 82.2115L70.6101 78.1648C70.6716 77.7494 70.4665 77.534 70.1792 77.6212C69.9843 77.6776 69.8561 77.5083 69.8869 77.2262C69.8869 77.2262 69.8869 76.9647 69.9484 76.6415C69.9695 76.481 70.0328 76.329 70.1319 76.201C70.2311 76.073 70.3624 75.9737 70.5126 75.9132C70.687 75.8619 70.8768 75.8004 71.0255 75.7491C71.8144 75.4527 72.5763 75.0889 73.3027 74.6618L73.7541 74.3951C73.9952 74.2412 74.1952 74.3951 74.2054 74.7028V79.7702C74.2054 80.242 74.4568 80.4677 74.8825 80.2215C75.0944 80.0877 75.2656 79.8984 75.3777 79.6742C75.4898 79.45 75.5385 79.1994 75.5184 78.9496L75.4877 73.6924C75.4901 73.5379 75.5246 73.3857 75.589 73.2453C75.6535 73.1049 75.7465 72.9794 75.8621 72.8769C76.1339 72.6512 76.4006 72.4256 76.6468 72.1948C76.893 71.964 77.1597 72.0204 77.2007 72.3384L77.2879 72.9231C77.2987 73.0516 77.2798 73.1809 77.2327 73.301C77.1856 73.421 77.1114 73.5286 77.0161 73.6155L76.8827 73.7283C76.7511 73.8462 76.6493 73.9937 76.586 74.1587C76.5227 74.3237 76.4996 74.5015 76.5186 74.6772L77.0828 77.7853C77.1341 78.0828 77.37 78.1546 77.5957 77.9545L79.0625 76.7492C79.1897 76.6351 79.2894 76.4937 79.3543 76.3357C79.4191 76.1776 79.4474 76.0069 79.4369 75.8363L79.0676 72.5538C79.0317 72.2204 78.7753 72.1589 78.5035 72.364C78.324 72.5025 78.1496 72.4358 78.1188 72.2153L77.9803 71.3126C77.9646 71.1647 77.9782 71.0152 78.0205 70.8726C78.0627 70.73 78.1327 70.5972 78.2265 70.4817ZM73.2515 49.7045C72.7642 49.9866 72.3693 49.7045 72.3693 49.0377C72.374 48.7063 72.4563 48.3806 72.6095 48.0867C72.7627 47.7928 72.9825 47.5389 73.2515 47.3452C73.7644 47.0631 74.1336 47.3452 74.1336 48.0171C74.1289 48.3477 74.0466 48.6727 73.8934 48.9658C73.7402 49.2588 73.5203 49.5119 73.2515 49.7045Z" fill="#F0F0F0"/>
<path d="M79.5241 54.1357C79.1856 50.5917 78.765 47.5759 77.1494 48.576C75.5338 49.5761 71.8256 51.7867 70.6767 52.315C69.3619 52.9433 68.3299 54.0411 67.784 55.3923C67.0455 57.7208 66.8711 61.2803 66.8198 63.0857C66.7685 64.8911 70.964 62.7369 74.1336 60.9674C77.3033 59.198 79.5241 54.1357 79.5241 54.1357Z" fill="#E0E0E0"/>
<path d="M67.3125 62.4806C67.293 62.5117 67.2808 62.5468 67.2766 62.5832C67.0663 66.1478 66.8612 70.3228 66.7637 72.3282C66.7481 72.6259 66.7941 72.9237 66.8987 73.2029C67.0034 73.482 67.1644 73.7367 67.3719 73.9508C67.5793 74.165 67.8286 74.3341 68.1043 74.4476C68.38 74.5611 68.6762 74.6166 68.9743 74.6105C70 74.6105 71.3849 74.2054 73.2569 73.1283C78.0627 70.3535 79.5757 67.0608 79.8373 65.7991C79.958 65.1782 80.03 64.5488 80.0527 63.9167C80.0893 60.7052 79.918 57.4946 79.5398 54.3052C79.5312 54.2563 79.5051 54.2122 79.4664 54.1811C79.4278 54.15 79.3791 54.1339 79.3295 54.1359C78.9808 54.1359 78.1294 54.3308 76.96 55.3976C75.4213 56.8132 73.8211 58.7571 70.1231 60.4547C68.1536 61.3625 67.4561 62.2652 67.3125 62.4806Z" fill="#BA68C8"/>
<path opacity="0.2" d="M67.3125 62.4806C67.293 62.5117 67.2808 62.5468 67.2766 62.5832C67.0663 66.1478 66.8612 70.3228 66.7637 72.3282C66.7481 72.6259 66.7941 72.9237 66.8987 73.2029C67.0034 73.482 67.1644 73.7367 67.3719 73.9508C67.5793 74.165 67.8286 74.3341 68.1043 74.4476C68.38 74.5611 68.6762 74.6166 68.9743 74.6105C70 74.6105 71.3849 74.2054 73.2569 73.1283C78.0627 70.3535 79.5757 67.0608 79.8373 65.7991C79.958 65.1782 80.03 64.5488 80.0527 63.9167C80.0893 60.7052 79.918 57.4946 79.5398 54.3052C79.5312 54.2563 79.5051 54.2122 79.4664 54.1811C79.4278 54.15 79.3791 54.1339 79.3295 54.1359C78.9808 54.1359 78.1294 54.3308 76.96 55.3976C75.4213 56.8132 73.8211 58.7571 70.1231 60.4547C68.1536 61.3625 67.4561 62.2652 67.3125 62.4806Z" fill="white"/>
<path d="M74.8316 75.754C74.7341 75.754 74.6404 75.716 74.5704 75.648C74.5005 75.58 74.4599 75.4873 74.4572 75.3898L74.3546 71.579C74.3533 71.5299 74.3616 71.4809 74.3792 71.435C74.3967 71.389 74.4232 71.347 74.457 71.3112C74.4908 71.2755 74.5313 71.2468 74.5763 71.2268C74.6212 71.2067 74.6696 71.1957 74.7188 71.1944C74.7673 71.1937 74.8154 71.2026 74.8605 71.2205C74.9056 71.2384 74.9467 71.2651 74.9814 71.2989C75.0162 71.3327 75.044 71.373 75.0631 71.4176C75.0823 71.4621 75.0925 71.51 75.0932 71.5585L75.1958 75.3693C75.1978 75.4187 75.19 75.4679 75.1727 75.5142C75.1554 75.5604 75.1289 75.6027 75.095 75.6386C75.061 75.6745 75.0202 75.7032 74.975 75.723C74.9298 75.7428 74.881 75.7533 74.8316 75.754Z" fill="#BA68C8"/>
<g opacity="0.2">
<path d="M74.8316 75.754C74.7341 75.754 74.6404 75.716 74.5704 75.648C74.5005 75.58 74.4599 75.4873 74.4572 75.3898L74.3546 71.579C74.3533 71.5299 74.3616 71.4809 74.3792 71.435C74.3967 71.389 74.4232 71.347 74.457 71.3112C74.4908 71.2755 74.5313 71.2468 74.5763 71.2268C74.6212 71.2067 74.6696 71.1957 74.7188 71.1944C74.7673 71.1937 74.8154 71.2026 74.8605 71.2205C74.9056 71.2384 74.9467 71.2651 74.9814 71.2989C75.0162 71.3327 75.044 71.373 75.0631 71.4176C75.0823 71.4621 75.0925 71.51 75.0932 71.5585L75.1958 75.3693C75.1978 75.4187 75.19 75.4679 75.1727 75.5142C75.1554 75.5604 75.1289 75.6027 75.095 75.6386C75.061 75.6745 75.0202 75.7032 74.975 75.723C74.9298 75.7428 74.881 75.7533 74.8316 75.754Z" fill="white"/>
</g>
<path d="M67.3125 62.48C67.293 62.5111 67.2808 62.5462 67.2766 62.5826C67.0663 66.1472 66.8612 70.3222 66.7637 72.3276C66.7481 72.6253 66.7941 72.9231 66.8987 73.2022C67.0034 73.4814 67.1644 73.7361 67.3719 73.9502C67.5793 74.1644 67.8286 74.3335 68.1043 74.447C68.38 74.5605 68.6762 74.616 68.9743 74.6099C70 74.6099 71.3849 74.2047 73.2569 73.1277C78.0627 70.3529 79.5757 67.0602 79.8373 65.7984C79.958 65.1776 80.03 64.5482 80.0527 63.9161C80.0527 63.6494 80.0527 63.352 80.0527 63.0493C79.9091 66.1267 76.0111 69.9836 72.5645 70.7427C69.1179 71.5018 69.7949 67.5166 70.1744 60.4131H70.1334C68.1536 61.3619 67.4561 62.2646 67.3125 62.48Z" fill="#BA68C8"/>
<path d="M77.8884 65.5783C75.377 67.4089 72.6776 68.9666 69.836 70.2251C69.7181 70.2764 69.6309 70.1943 69.6309 70.0404V63.7575C69.6313 63.674 69.6509 63.5917 69.6883 63.5169C69.7256 63.4422 69.7797 63.3771 69.8463 63.3267C72.5236 61.617 75.2009 60.0784 77.8782 58.7107C77.9961 58.6491 78.0936 58.7107 78.0936 58.8902V65.2039C78.0769 65.3507 78.0032 65.4852 77.8884 65.5783Z" fill="white"/>
<path d="M74.6316 63.2392V61.4492L73.293 62.2237V64.0137L71.9492 64.7881V66.573L73.293 65.7985V67.5885L74.6316 66.8141V65.0241L75.9754 64.2496V62.4647L74.6316 63.2392Z" fill="#BA68C8"/>
<path d="M77.1088 49.7757C74.611 51.0579 72.8825 52.0376 72.8518 52.7197C72.821 53.4019 76.2112 51.6221 77.2729 52.5146C78.3346 53.407 78.3397 52.8787 78.3397 51.9042C78.3397 50.9297 78.1448 49.2423 77.1088 49.7757Z" fill="#FAFAFA"/>
<path d="M73.7137 47.3865C73.9762 47.5363 74.2731 47.6151 74.5753 47.6151C74.8775 47.6151 75.1745 47.5363 75.437 47.3865C75.9321 47.1007 76.4937 46.9502 77.0654 46.9502C77.6371 46.9502 78.1987 47.1007 78.6939 47.3865L79.9402 48.1046C80.0886 48.1877 80.205 48.3179 80.2711 48.4746C80.3372 48.6313 80.3491 48.8056 80.3049 48.9698C80.2608 49.1341 80.1631 49.2789 80.0273 49.3813C79.8916 49.4838 79.7256 49.5381 79.5555 49.5355C79.4223 49.5343 79.2916 49.499 79.176 49.433L77.9296 48.7098C77.6668 48.561 77.37 48.4828 77.068 48.4828C76.766 48.4828 76.4691 48.561 76.2063 48.7098C75.7099 48.9946 75.1476 49.1444 74.5753 49.1444C74.003 49.1444 73.4407 48.9946 72.9443 48.7098" fill="#455A64"/>
<path d="M94.465 144.507C89.1334 144.501 84.0222 142.38 80.2522 138.61C76.4822 134.84 74.3613 129.729 74.3545 124.397V77.6315C74.3545 77.5682 74.367 77.5055 74.3912 77.447C74.4154 77.3885 74.4509 77.3354 74.4957 77.2906C74.5405 77.2459 74.5936 77.2103 74.6521 77.1861C74.7106 77.1619 74.7733 77.1494 74.8366 77.1494C74.8999 77.1494 74.9626 77.1619 75.0211 77.1861C75.0796 77.2103 75.1327 77.2459 75.1775 77.2906C75.2223 77.3354 75.2578 77.3885 75.282 77.447C75.3063 77.5055 75.3187 77.5682 75.3187 77.6315V124.397C75.401 129.42 77.454 134.209 81.0352 137.732C84.6164 141.255 89.4388 143.23 94.4624 143.23C99.486 143.23 104.308 141.255 107.89 137.732C111.471 134.209 113.524 129.42 113.606 124.397V122.345C113.606 122.282 113.619 122.219 113.643 122.161C113.667 122.102 113.703 122.049 113.747 122.005C113.792 121.96 113.845 121.924 113.904 121.9C113.962 121.876 114.025 121.863 114.088 121.863C114.152 121.863 114.214 121.876 114.273 121.9C114.331 121.924 114.384 121.96 114.429 122.005C114.474 122.049 114.509 122.102 114.534 122.161C114.558 122.219 114.57 122.282 114.57 122.345V124.397C114.565 129.728 112.445 134.839 108.676 138.609C104.907 142.38 99.796 144.501 94.465 144.507Z" fill="#F0F0F0"/>
<path d="M94.4651 144.143C89.2337 144.131 84.2203 142.046 80.5231 138.345C76.8258 134.644 74.746 129.628 74.7393 124.397V76.3183C74.7392 76.3023 74.7425 76.2866 74.7487 76.2719C74.755 76.2573 74.7641 76.244 74.7756 76.233C74.7871 76.222 74.8007 76.2134 74.8156 76.2078C74.8305 76.2022 74.8464 76.1996 74.8624 76.2003C74.8936 76.2003 74.9236 76.2127 74.9458 76.2349C74.9679 76.257 74.9803 76.287 74.9803 76.3183V124.397C74.9803 129.571 77.0356 134.532 80.694 138.191C84.3525 141.849 89.3144 143.905 94.4881 143.905C99.6619 143.905 104.624 141.849 108.282 138.191C111.941 134.532 113.996 129.571 113.996 124.397V122.345C113.995 122.329 113.998 122.313 114.003 122.298C114.009 122.284 114.018 122.27 114.029 122.258C114.04 122.247 114.053 122.238 114.068 122.232C114.082 122.225 114.098 122.222 114.114 122.222C114.147 122.222 114.178 122.235 114.201 122.258C114.224 122.281 114.237 122.313 114.237 122.345V124.397C114.232 129.637 112.146 134.66 108.438 138.363C104.731 142.065 99.7049 144.144 94.4651 144.143Z" fill="#BA68C8"/>
<path d="M111.76 121.904L115.453 120.966L115.909 122.407L112.221 123.417L111.76 121.904Z" fill="#455A64"/>
<path d="M121.274 25.2033C122.935 28.5034 123.278 32.3122 122.233 35.856L121.669 37.4204C120.254 40.795 117.618 43.5121 114.288 45.0293C110.958 46.5466 107.179 46.7526 103.704 45.6061C100.229 44.4596 97.3135 42.045 95.5402 38.844C93.7669 35.6431 93.2657 31.8912 94.1366 28.337L94.6495 26.7471C95.6203 24.0756 97.3529 21.7472 99.6329 20.0499C101.913 18.3526 104.64 17.3607 107.478 17.197C110.316 17.0333 113.139 17.7049 115.599 19.1287C118.059 20.5526 120.048 22.6663 121.32 25.2084L121.274 25.2033Z" fill="white"/>
<path d="M101.169 17.6539C97.6517 19.4467 94.9337 22.4918 93.5503 26.1892C92.1669 29.8865 92.2184 33.9678 93.6947 37.629C95.171 41.2902 97.9651 44.2657 101.526 45.9692C105.087 47.6727 109.158 47.9806 112.934 46.8323L116.576 50.1148C116.713 50.2424 116.886 50.325 117.071 50.3517C117.256 50.3784 117.445 50.3479 117.612 50.2642C117.78 50.1805 117.918 50.0477 118.007 49.8835C118.097 49.7193 118.135 49.5315 118.115 49.3455L117.638 44.4627C120.833 42.1196 123.03 38.6607 123.793 34.7727C124.556 30.8847 123.83 26.8518 121.757 23.4748C119.685 20.0978 116.418 17.6236 112.606 16.5434C108.794 15.4631 104.715 15.8559 101.179 17.6436L101.169 17.6539ZM121.274 25.2036C122.936 28.5037 123.279 32.3126 122.233 35.8564L121.669 37.4207C120.254 40.7954 117.619 43.5124 114.289 45.0297C110.959 46.547 107.179 46.7529 103.704 45.6064C100.229 44.46 97.3139 42.0453 95.5406 38.8444C93.7673 35.6435 93.2661 31.8916 94.137 28.3374L94.6499 26.7475C95.6207 24.076 97.3532 21.7476 99.6332 20.0503C101.913 18.3529 104.641 17.3611 107.478 17.1974C110.316 17.0337 113.14 17.7053 115.6 19.1291C118.06 20.553 120.049 22.6666 121.32 25.2088L121.274 25.2036Z" fill="#455A64"/>
<path d="M121.274 25.2033C122.935 28.5034 123.278 32.3122 122.233 35.856L121.669 37.4204C120.254 40.795 117.618 43.5121 114.288 45.0293C110.958 46.5466 107.179 46.7526 103.704 45.6061C100.229 44.4596 97.3135 42.045 95.5402 38.844C93.7669 35.6431 93.2657 31.8912 94.1366 28.337L94.6495 26.7471C95.6203 24.0756 97.3529 21.7472 99.6329 20.0499C101.913 18.3526 104.64 17.3607 107.478 17.197C110.316 17.0333 113.139 17.7049 115.599 19.1287C118.059 20.5526 120.048 22.6663 121.32 25.2084L121.274 25.2033Z" fill="white"/>
<path d="M112.985 28.1789C112.985 28.0712 112.985 27.9686 112.985 27.8609V28.1789ZM112.985 25.3221C113.042 23.0859 111.934 20.665 108.272 20.665C104.718 20.665 103.502 22.9064 103.559 25.1118V27.9686C103.502 25.7632 104.718 23.5218 108.272 23.5218C111.826 23.5218 112.929 25.7222 112.98 27.8609V25.2965L112.985 25.3221Z" fill="#BA68C8"/>
<path opacity="0.2" d="M112.985 28.1789C112.985 28.0712 112.985 27.9686 112.985 27.8609V28.1789ZM112.985 25.3221C113.042 23.0859 111.934 20.665 108.272 20.665C104.718 20.665 103.502 22.9064 103.559 25.1118V27.9686C103.502 25.7632 104.718 23.5218 108.272 23.5218C111.826 23.5218 112.929 25.7222 112.98 27.8609V25.2965L112.985 25.3221Z" fill="black"/>
<path d="M113.386 25.3225C113.688 27.7998 113.386 30.4874 109.796 34.8982C108.062 37.0011 103.01 42.8327 102.984 42.8532L103.497 39.0116H100.563L108.324 31.1746C110.508 28.9641 112.006 27.292 112.006 24.6148C112.006 23.7531 111.888 22.358 111.232 21.4092C112.257 22.0093 113.206 23.6095 113.386 25.3225Z" fill="#BA68C8"/>
<path opacity="0.2" d="M110.888 33.4468L108.503 30.9336C108.432 31.0157 108.355 31.0926 108.278 31.1695L105.38 34.0981L107.667 37.4063C108.509 36.4215 109.273 35.5188 109.77 34.9188C110.186 34.3905 110.555 33.9135 110.888 33.4468Z" fill="black"/>
<path d="M103.164 25.3225C102.861 27.7998 103.164 30.4874 106.78 34.8982C108.513 37.0011 113.565 42.8327 113.591 42.8532L113.078 39.0116H116.017C116.017 39.0116 110.437 33.3698 108.252 31.1746C106.067 28.9795 104.569 27.292 104.569 24.6148C104.569 23.7531 104.687 22.358 105.344 21.4092C104.297 22.0093 103.369 23.6095 103.164 25.3225Z" fill="#BA68C8"/>
<path opacity="0.3" d="M103.164 25.3225C102.861 27.7998 103.164 30.4874 106.78 34.8982C108.513 37.0011 113.565 42.8327 113.591 42.8532L113.078 39.0116H116.017C116.017 39.0116 110.437 33.3698 108.252 31.1746C106.067 28.9795 104.569 27.292 104.569 24.6148C104.569 23.7531 104.687 22.358 105.344 21.4092C104.297 22.0093 103.369 23.6095 103.164 25.3225Z" fill="white"/>
<path opacity="0.2" d="M105.718 28.1992C105.384 29.5744 105.122 30.9663 104.934 32.369C105.057 32.5639 105.195 32.7691 105.334 32.9742C105.416 32.0203 105.79 30.3277 106.124 28.7737C105.98 28.5839 105.841 28.3685 105.718 28.1992Z" fill="white"/>
<path opacity="0.2" d="M104.605 24.9678C104.205 26.5064 103.687 28.5016 103.579 29.553C103.857 30.3904 104.222 31.1965 104.666 31.9585C104.859 30.5611 105.122 29.1745 105.456 27.8041C104.945 26.9426 104.652 25.9687 104.605 24.9678Z" fill="white"/>
</svg>
