<svg width="260" height="240" viewBox="0 0 260 240" fill="none" xmlns="http://www.w3.org/2000/svg">
<path d="M4.61816 88.4459L35.9635 88.2974L67.3089 88.2416L130 88.1426L192.69 88.2416L224.036 88.2974L255.381 88.4459L224.036 88.6007L192.69 88.6564L130 88.7555L67.3089 88.6564L35.9635 88.6007L4.61816 88.4459Z" fill="#EBEBEB"/>
<path d="M4.61816 109.861L35.9635 109.713L67.3089 109.657L130 109.552L192.69 109.657L224.036 109.707L255.381 109.861L224.036 110.01L192.69 110.066L130 110.171L67.3089 110.066L35.9635 110.01L4.61816 109.861Z" fill="#EBEBEB"/>
<path d="M4.61816 131.27L35.9635 131.121L67.3089 131.065L130 130.96L192.69 131.065L224.036 131.121L255.381 131.27L224.036 131.424L192.69 131.48L130 131.579L67.3089 131.474L35.9635 131.424L4.61816 131.27Z" fill="#EBEBEB"/>
<path d="M4.61816 152.685L35.9635 152.53L67.3089 152.48L130 152.375L192.69 152.48L224.036 152.53L255.381 152.685L224.036 152.833L192.69 152.889L130 152.994L67.3089 152.889L35.9635 152.833L4.61816 152.685Z" fill="#EBEBEB"/>
<path d="M4.61816 24.2139L35.9635 24.0653L67.3089 24.0095L130 23.9043L192.69 24.0095L224.036 24.0653L255.381 24.2139L224.036 24.3686L192.69 24.4182L130 24.5234L67.3089 24.4182L35.9635 24.3624L4.61816 24.2139Z" fill="#EBEBEB"/>
<path d="M4.61816 45.6289L35.9635 45.4741L67.3089 45.4184L130 45.3193L192.69 45.4184L224.036 45.4741L255.381 45.6289L224.036 45.7775L192.69 45.8332L130 45.9323L67.3089 45.8332L35.9635 45.7775L4.61816 45.6289Z" fill="#EBEBEB"/>
<path d="M4.61816 67.0371L35.9635 66.8885L67.3089 66.8328L130 66.7275L192.69 66.8328L224.036 66.8823L255.381 67.0371L224.036 67.1919L192.69 67.2414L130 67.3466L67.3089 67.2414L35.9635 67.1857L4.61816 67.0371Z" fill="#EBEBEB"/>
<path d="M4.61816 174.094L35.9635 173.945L67.3089 173.889L130 173.784L192.69 173.889L224.036 173.945L255.381 174.094L224.036 174.249L192.69 174.298L130 174.403L67.3089 174.298L35.9635 174.242L4.61816 174.094Z" fill="#EBEBEB"/>
<path d="M4.61816 195.508L35.9635 195.353L67.3089 195.297L130 195.198L192.69 195.297L224.036 195.353L255.381 195.508L224.036 195.656L192.69 195.712L130 195.811L67.3089 195.712L35.9635 195.656L4.61816 195.508Z" fill="#EBEBEB"/>
<path d="M151.408 6.76758L151.563 35.2589L151.619 63.7501L151.718 120.733L151.619 177.715L151.563 206.2L151.408 221.721L151.26 206.2L151.204 177.715L151.099 120.733L151.204 63.7501L151.26 35.2589L151.408 6.76758Z" fill="#EBEBEB"/>
<path d="M129.999 6.76758L130.148 35.2589L130.204 63.7501L130.309 120.733L130.204 177.715L130.154 206.2L129.999 221.721L129.845 206.2L129.795 177.715L129.69 120.733L129.795 63.7501L129.851 35.2589L129.999 6.76758Z" fill="#EBEBEB"/>
<path d="M108.591 6.76758L108.739 35.2589L108.795 63.7501L108.894 120.733L108.795 177.715L108.739 206.2L108.591 221.721L108.436 206.2L108.38 177.715L108.281 120.733L108.38 63.7501L108.436 35.2589L108.591 6.76758Z" fill="#EBEBEB"/>
<path d="M87.1758 6.76758L87.3244 35.2589L87.3801 63.7501L87.4853 120.733L87.3801 177.715L87.3305 206.2L87.1758 221.721L87.0272 206.2L86.9715 177.715L86.8662 120.733L86.9715 63.7501L87.0272 35.2589L87.1758 6.76758Z" fill="#EBEBEB"/>
<path d="M215.647 6.76758L215.796 35.2589L215.851 63.7501L215.957 120.733L215.851 177.715L215.796 206.2L215.647 221.721L215.492 206.2L215.436 177.715L215.337 120.733L215.443 63.7501L215.492 35.2589L215.647 6.76758Z" fill="#EBEBEB"/>
<path d="M194.232 6.76758L194.387 35.2589L194.436 63.7501L194.541 120.733L194.436 177.715L194.387 206.2L194.232 221.721L194.083 206.2L194.028 177.715L193.922 120.733L194.028 63.7501L194.083 35.2589L194.232 6.76758Z" fill="#EBEBEB"/>
<path d="M172.823 6.76758L172.972 35.2589L173.028 63.7501L173.133 120.733L173.028 177.715L172.972 206.2L172.823 221.721L172.668 206.2L172.619 177.715L172.514 120.733L172.619 63.7501L172.675 35.2589L172.823 6.76758Z" fill="#EBEBEB"/>
<path d="M237.056 6.76758L237.204 35.2589L237.26 63.7501L237.365 120.733L237.26 177.715L237.21 206.2L237.056 221.721L236.907 206.2L236.851 177.715L236.746 120.733L236.851 63.7501L236.907 35.2589L237.056 6.76758Z" fill="#EBEBEB"/>
<path d="M215.647 6.76758L215.796 35.2589L215.851 63.7501L215.957 120.733L215.851 177.715L215.796 206.2L215.647 221.721L215.492 206.2L215.436 177.715L215.337 120.733L215.443 63.7501L215.492 35.2589L215.647 6.76758Z" fill="#EBEBEB"/>
<path d="M65.7676 6.76758L65.9162 35.2589L65.9719 63.7501L66.0771 120.733L65.9719 177.715L65.9162 206.2L65.7676 221.721L65.6128 206.2L65.5571 177.715L65.458 120.733L65.5633 63.7501L65.6128 35.2589L65.7676 6.76758Z" fill="#EBEBEB"/>
<path d="M44.3525 6.76758L44.5073 35.2589L44.5568 63.7501L44.6621 120.733L44.563 177.715L44.5073 206.2L44.3525 221.721L44.2039 206.2L44.1482 177.715L44.043 120.733L44.1482 63.7501L44.2039 35.2589L44.3525 6.76758Z" fill="#EBEBEB"/>
<path d="M22.9438 6.76758L23.0924 35.2589L23.1481 63.7501L23.2534 120.733L23.1481 177.715L23.0924 206.2L22.9438 221.721L22.7891 206.2L22.7395 177.715L22.6343 120.733L22.7395 63.7501L22.7891 35.2589L22.9438 6.76758Z" fill="#EBEBEB"/>
<path d="M131.38 93.4854H6.02344V98.3453H131.38V93.4854Z" fill="#EBEBEB"/>
<path d="M24.4482 98.2529V124.8H17.6566L15.7683 104.562L15.1802 98.2529H24.4482Z" fill="#EBEBEB"/>
<path d="M15.1802 98.2529H24.4482V104.562H15.7683L15.1802 98.2529Z" fill="#DBDBDB"/>
<path d="M122.23 98.2529L121.642 104.562L119.754 124.8H112.962V98.2529H122.23Z" fill="#EBEBEB"/>
<path d="M122.23 98.2529L121.642 104.562H112.962V98.2529H122.23Z" fill="#DBDBDB"/>
<path d="M72.9594 61.6963L72.3521 61.8164L78.447 92.6266L79.0544 92.5065L72.9594 61.6963Z" fill="#EBEBEB"/>
<path d="M80.9233 61.4358L73.6006 93.3574L74.204 93.4958L81.5268 61.5743L80.9233 61.4358Z" fill="#EBEBEB"/>
<path d="M84.4898 62.0751L74.9053 93.3467L75.4972 93.5281L85.0818 62.2565L84.4898 62.0751Z" fill="#EBEBEB"/>
<path d="M73.5567 62.7286L72.9663 62.915L82.3629 92.663L82.9533 92.4765L73.5567 62.7286Z" fill="#EBEBEB"/>
<path d="M78.6033 61.2915L77.9844 61.3057L78.7068 92.8966L79.3257 92.8825L78.6033 61.2915Z" fill="#EBEBEB"/>
<path d="M83.6843 93.684H72.6519L74.8373 79.8594H81.4989L83.6843 93.684Z" fill="#C7C7C7"/>
<path d="M41.9133 64.3506H22.0586V93.69H41.9133V64.3506Z" fill="#DBDBDB"/>
<path d="M36.0315 58.4199H27.9336V64.351H36.0315V58.4199Z" fill="#EBEBEB"/>
<path d="M39.0778 71.792H24.8198V85.4309H39.0778V71.792Z" fill="#EBEBEB"/>
<path d="M60.3874 60.5244H43.3682V93.6838H60.3874V60.5244Z" fill="#DBDBDB"/>
<path d="M55.3479 55.4414H48.4077V60.5243H55.3479V55.4414Z" fill="#C7C7C7"/>
<path d="M60.3874 73.1729H43.3682V84.8678H60.3874V73.1729Z" fill="#C7C7C7"/>
<path d="M249.246 141.826V5.91309L151.136 5.91309V141.826H249.246Z" fill="#EBEBEB"/>
<path d="M236.418 128.998V18.7412L163.958 18.7412V128.998H236.418Z" fill="white"/>
<g opacity="0.2">
<path d="M236.424 98.4023L163.963 25.9421V18.748H179.534L236.424 75.6316V98.4023Z" fill="#EBEBEB"/>
<path d="M202.843 129.005H180.066L163.963 112.902V90.125L202.843 129.005Z" fill="#EBEBEB"/>
<path d="M236.424 32.9565L222.209 18.748H229.694L236.424 25.4715V32.9565Z" fill="#EBEBEB"/>
<path d="M228.598 129.005H226.091L163.963 66.8775V64.3701L228.598 129.005Z" fill="#EBEBEB"/>
<path d="M236.424 68.0723L187.093 18.748H189.601L236.424 65.5649V68.0723Z" fill="#EBEBEB"/>
</g>
<path d="M48.7361 164.255C40.8611 174.916 32.6394 187.292 30.6582 200.659C30.6576 200.701 30.6718 200.742 30.6983 200.774C30.7247 200.807 30.7619 200.829 30.8031 200.837C30.8444 200.846 30.8872 200.839 30.9241 200.819C30.961 200.798 30.9896 200.766 31.0049 200.727C31.9111 197.081 33.0738 193.504 34.4843 190.022C39.66 188.598 44.7429 187.428 47.4855 182.29C50.2529 177.009 49.9001 170.124 49.3429 164.373C49.3119 164.045 48.8971 164.032 48.7361 164.255Z" fill="#BA68C8"/>
<path d="M34.5648 189.905C38.0999 181.968 42.6132 174 48.4081 167.475C48.4514 167.431 48.5071 167.475 48.4762 167.536C44.6934 172.186 41.827 177.244 39.0224 182.395C41.6288 179.751 44.4829 177.38 46.9532 174.576C47.0027 174.52 47.077 174.576 47.0336 174.656C44.5572 177.597 41.9012 180.792 38.7067 182.971C37.8523 184.547 36.9876 186.13 36.1126 187.719C36.3293 187.602 36.5522 187.49 36.7689 187.385C36.806 187.385 36.8431 187.422 36.806 187.441C36.5584 187.565 36.3169 187.695 36.0693 187.8C35.6545 188.549 35.2397 189.304 34.831 190.047C34.7196 190.214 34.4905 190.072 34.5648 189.905Z" fill="#263238"/>
<path d="M37.1961 187.162C39.3103 185.973 41.3304 184.623 43.2386 183.125C43.2881 183.082 43.3624 183.156 43.3129 183.2C41.4664 184.794 39.4432 186.171 37.2828 187.304C37.1837 187.335 37.097 187.162 37.1961 187.162Z" fill="#263238"/>
<path d="M29.7481 198.653C29.7481 198.814 30.0391 198.814 30.0329 198.653C30.0762 194.251 30.0329 189.824 30.1072 185.404C31.234 183.126 33.6547 181.869 35.3387 180.043C36.5493 178.711 37.6025 177.244 38.4775 175.672C40.5037 171.912 41.7424 167.779 42.1179 163.525C42.5822 158.82 40.7992 143.274 38.8118 143.819C37.7841 144.097 34.4781 151.793 33.568 154.343C32.1356 158.541 31.0871 162.859 30.4353 167.246C28.8257 177.585 28.9619 188.227 29.7481 198.653Z" fill="#BA68C8"/>
<path d="M29.7049 179.659C29.9464 174.087 31.2032 168.465 32.3733 163.06C33.6115 157.241 35.1221 151.762 38.1186 146.567C38.1314 146.55 38.1499 146.539 38.1707 146.535C38.1914 146.531 38.2129 146.534 38.2312 146.545C38.2494 146.556 38.2631 146.573 38.2698 146.593C38.2764 146.613 38.2755 146.635 38.2672 146.654C36.2783 150.688 34.7418 154.93 33.6858 159.302C33.8839 158.987 34.1254 158.683 34.3049 158.392C34.3854 158.281 34.5835 158.392 34.4968 158.51C34.2309 158.98 33.9177 159.422 33.562 159.829C33.562 159.829 33.562 159.829 33.5248 159.829C32.4909 163.989 31.7542 168.242 31.1227 172.489L31.2589 172.328C31.2663 172.322 31.2756 172.318 31.2853 172.318C31.295 172.318 31.3045 172.321 31.3124 172.326C31.3202 172.332 31.326 172.34 31.3286 172.35C31.3313 172.359 31.3307 172.369 31.327 172.378L31.0732 172.799C30.7574 174.953 30.4541 177.102 30.1631 179.231C33.9953 175.956 37.2766 172.087 39.1215 167.326C39.1215 167.326 39.1649 167.326 39.1587 167.326C37.3447 172.279 34.4906 176.656 30.1012 179.652L29.8597 181.373C29.8597 181.491 29.6492 181.46 29.6554 181.342C29.6554 180.841 29.6554 180.327 29.6987 179.819C29.6791 179.797 29.6688 179.768 29.67 179.738C29.6711 179.708 29.6836 179.68 29.7049 179.659Z" fill="#263238"/>
<path d="M31.525 171.585C34.4534 167.214 37.1898 162.961 39.3381 158.126C39.3381 158.07 39.4558 158.126 39.431 158.169C37.6232 162.974 35.0973 167.84 31.6674 171.703C31.5993 171.783 31.4631 171.684 31.525 171.585Z" fill="#263238"/>
<path d="M35.4191 157.048C36.6574 154.894 37.8956 152.807 39.0595 150.616C39.0595 150.554 39.1709 150.616 39.1462 150.665C38.2092 152.952 37.0215 155.128 35.6049 157.154C35.5909 157.178 35.5678 157.196 35.5405 157.204C35.5132 157.211 35.484 157.208 35.4594 157.194C35.4348 157.18 35.4167 157.157 35.4091 157.129C35.4016 157.102 35.4052 157.073 35.4191 157.048Z" fill="#263238"/>
<path d="M26.7641 185.924C26.7048 188.84 26.3606 191.743 25.7363 194.591C25.7859 194.907 25.8292 195.21 25.8725 195.545C26.7711 192.394 27.2928 189.148 27.4265 185.874C27.4526 185.829 27.4663 185.778 27.4663 185.726C27.4663 185.674 27.4526 185.622 27.4265 185.577C27.5514 181.189 27.2257 176.799 26.4545 172.477C25.0925 164.385 22.1208 156.622 16.4683 150.56C16.4225 150.52 16.368 150.491 16.3089 150.475C16.2499 150.459 16.188 150.457 16.128 150.469C16.0681 150.481 16.0117 150.506 15.9633 150.544C15.915 150.581 15.8759 150.629 15.8492 150.684C13.5709 156.479 14.3634 163.382 16.3012 169.158C17.3573 172.287 18.8653 175.245 20.7773 177.937C22.7275 180.643 25.1915 182.946 26.7641 185.924Z" fill="#BA68C8"/>
<path d="M17.1492 153.253C22.4982 161.921 26.2191 172.223 26.671 182.475C26.671 182.661 26.3738 182.71 26.3491 182.519C26.2253 181.602 26.0829 180.661 25.9343 179.776C23.7179 177.659 21.4458 175.442 19.867 172.774C19.867 172.724 19.9042 172.669 19.9413 172.712C21.7753 174.96 23.7413 177.098 25.829 179.113C25.4452 176.847 24.9932 174.619 24.4546 172.421L24.0336 171.926C23.9407 171.814 24.0955 171.653 24.1884 171.765L24.3184 171.907C23.5671 168.889 22.6326 165.92 21.52 163.017C20.158 161.395 18.6412 159.989 17.6444 158.033C17.6403 158.023 17.6398 158.012 17.6431 158.002C17.6465 157.992 17.6533 157.984 17.6625 157.978C17.6716 157.973 17.6823 157.971 17.6927 157.973C17.7031 157.975 17.7123 157.981 17.7187 157.99C18.5174 159.11 19.2851 160.237 20.1952 161.271C20.5604 161.686 20.9505 162.076 21.3281 162.478C20.0954 159.333 18.6324 156.283 16.951 153.352C16.9481 153.328 16.9527 153.304 16.9642 153.283C16.9757 153.261 16.9935 153.244 17.0152 153.233C17.0369 153.222 17.0614 153.218 17.0854 153.222C17.1094 153.226 17.1316 153.237 17.1492 153.253Z" fill="#263238"/>
<path d="M18.2326 163.964C19.9599 166.286 21.9472 168.508 23.5383 170.911C23.5817 170.979 23.4826 171.053 23.4269 170.997C21.3591 169.059 19.6132 166.416 18.115 164.032C18.0654 163.952 18.1831 163.896 18.2326 163.964Z" fill="#263238"/>
<path d="M23.7798 171.449L23.8541 171.524C23.9036 171.573 23.8541 171.654 23.7736 171.604L23.6993 171.53C23.6886 171.519 23.6826 171.505 23.6826 171.49C23.6826 171.474 23.6886 171.46 23.6993 171.449C23.71 171.439 23.7244 171.433 23.7395 171.433C23.7546 171.433 23.7691 171.439 23.7798 171.449Z" fill="#263238"/>
<path d="M8.77256 169.939C9.19974 174.409 11.5523 179.739 14.4126 183.181C15.6726 184.677 17.2309 185.894 18.9878 186.754C20.9752 187.732 23.0492 188.865 25.0984 189.67C26.0725 192.15 26.7963 194.722 27.2591 197.347C27.3272 197.124 27.3891 196.895 27.4572 196.666C26.1447 185.361 18.8268 175.696 9.46596 169.493C9.39297 169.446 9.30782 169.42 9.22074 169.42C9.13367 169.42 9.04838 169.445 8.97513 169.492C8.90189 169.539 8.8438 169.606 8.80787 169.685C8.77193 169.765 8.75967 169.853 8.77256 169.939Z" fill="#BA68C8"/>
<path d="M12.0047 173.282C11.9366 173.22 12.0047 173.102 12.0975 173.158C17.2401 176.982 21.3402 182.035 24.0215 187.856C24.0896 188.01 23.8791 188.141 23.7925 187.986C23.3529 187.224 22.9133 186.488 22.4614 185.757C20.3255 185.355 18.301 183.85 16.7161 182.426C16.6727 182.389 16.7161 182.327 16.778 182.364C17.597 183.106 18.5059 183.743 19.4835 184.259C20.3683 184.664 21.2734 185.024 22.1952 185.336C21.4027 184.098 20.5772 182.888 19.7187 181.708C17.4129 180.827 15.2496 179.611 13.2986 178.099C13.2367 178.055 13.2986 177.95 13.3605 177.993C15.2926 179.16 17.2847 180.224 19.3287 181.182C18.0221 179.463 16.6143 177.824 15.1126 176.272C14.3882 175.888 13.6515 175.505 12.9457 175.096C12.89 175.059 12.9457 174.96 12.9952 174.984C13.5799 175.187 14.1372 175.462 14.6544 175.802C13.8063 174.947 12.9333 174.105 12.0047 173.282Z" fill="#263238"/>
<path d="M12.2027 177.182C12.3284 177.26 12.4483 177.347 12.5618 177.442C12.5989 177.473 12.5618 177.516 12.5184 177.498C12.3868 177.438 12.2604 177.368 12.1408 177.287C12.1295 177.278 12.122 177.265 12.1195 177.25C12.1171 177.236 12.1198 177.221 12.1272 177.208C12.1346 177.196 12.1463 177.186 12.1601 177.181C12.1739 177.176 12.189 177.177 12.2027 177.182Z" fill="#263238"/>
<path d="M42.0618 221.832H16.4185L18.4925 198.479L18.9444 193.328H39.5359L39.994 198.479L42.0618 221.832Z" fill="#455A64"/>
<path d="M39.9942 198.479H18.4927L18.9446 193.328H39.5361L39.9942 198.479Z" fill="#263238"/>
<path d="M40.7681 189.731H17.7188V194.827H40.7681V189.731Z" fill="#455A64"/>
<path d="M110.089 147.304C110.089 147.304 110.089 147.359 110.133 147.471C110.176 147.582 110.176 147.632 110.201 147.749L129.065 221.832H178.525C178.624 210.013 165.902 170.978 165.902 170.978C168.038 161.543 164.41 147.304 164.41 147.304H110.089Z" fill="#455A64"/>
<path d="M82.5824 221.832H133.009C133.157 218.117 133.913 198.82 133.913 198.82C133.913 198.82 134.575 198.417 134.847 198.262L147.601 191.997C155.383 175.591 155.649 148.814 155.767 147.471C155.767 147.39 155.767 147.335 155.767 147.304H85.808C85.808 147.304 73.7106 178.197 83.7711 199.142C83.7525 199.142 82.8672 218.117 82.5824 221.832Z" fill="#455A64"/>
<path d="M127.944 201.297C130.111 199.786 132.452 198.53 134.755 197.229C137.058 195.929 139.485 194.635 141.93 193.515C146.756 191.388 151.721 189.588 156.789 188.129C156.912 188.091 156.999 188.296 156.875 188.351C152.04 190.425 147.347 192.809 142.537 194.945C140.116 196.016 137.677 197.044 135.256 198.115C132.835 199.186 130.47 200.387 128.031 201.408C127.932 201.402 127.889 201.334 127.944 201.297Z" fill="#263238"/>
<path d="M141.181 177.621C141.237 175.25 141.41 172.879 141.522 170.508C141.8 164.936 142.017 159.29 142.537 153.711C142.537 153.665 142.555 153.621 142.588 153.589C142.62 153.556 142.664 153.538 142.71 153.538C142.756 153.538 142.8 153.556 142.833 153.589C142.865 153.621 142.884 153.665 142.884 153.711C142.958 158.045 142.791 162.379 142.698 166.713C142.655 168.88 142.593 171.046 142.537 173.213C142.415 175.275 142.4 177.341 142.494 179.404C142.611 180.965 142.952 183.992 144.97 184.184C146.883 184.357 147.936 182.289 148.418 180.773C149.657 176.922 150.065 172.761 150.455 168.756C150.691 166.378 150.926 164.013 151.074 161.636C151.289 159.205 151.367 156.764 151.31 154.324C151.31 154.17 151.539 154.176 151.551 154.324C151.681 156.77 152.016 159.197 152.102 161.655C152.189 164.112 152.189 166.539 152.028 168.972C151.879 171.306 151.681 173.659 151.328 175.975C151.093 178.109 150.583 180.205 149.811 182.209C149.112 183.85 147.892 185.36 146.053 185.719C145.829 185.763 145.601 185.786 145.372 185.787C145.372 186.295 145.28 186.796 145.249 187.292C145.193 188.078 145.094 188.858 144.989 189.638C144.876 190.403 144.717 191.159 144.512 191.904C144.342 192.658 144.074 193.387 143.713 194.071C143.698 194.091 143.677 194.107 143.653 194.115C143.628 194.122 143.602 194.123 143.578 194.115C143.554 194.108 143.532 194.093 143.516 194.073C143.501 194.053 143.492 194.028 143.49 194.003C143.475 193.253 143.537 192.505 143.676 191.768C143.781 191.006 143.887 190.239 144.048 189.483C144.209 188.728 144.339 187.998 144.487 187.261C144.592 186.766 144.661 186.252 144.753 185.75C144.159 185.645 143.6 185.394 143.126 185.02C142.652 184.646 142.277 184.161 142.035 183.608C141.2 181.757 141.144 179.602 141.181 177.621Z" fill="#263238"/>
<path d="M93.6649 176.539C97.0638 176.774 100.413 177.214 103.818 176.805C107.028 176.481 110.088 175.284 112.665 173.344C118.237 169.01 120.714 161.897 122.23 155.235C122.235 155.204 122.253 155.176 122.278 155.158C122.304 155.139 122.336 155.131 122.367 155.136C122.398 155.141 122.426 155.158 122.444 155.184C122.463 155.209 122.471 155.241 122.466 155.272C121.847 161.049 120.608 167.035 116.863 171.673C115.255 173.719 113.223 175.394 110.907 176.582C108.446 177.721 105.755 178.274 103.044 178.198C99.8641 178.18 96.6986 177.764 93.6216 176.96C93.5658 176.954 93.5145 176.926 93.4791 176.883C93.4437 176.839 93.427 176.783 93.4328 176.728C93.4385 176.672 93.4662 176.62 93.5097 176.585C93.5533 176.55 93.6091 176.533 93.6649 176.539Z" fill="#263238"/>
<path d="M132.656 217.294C132.687 215.778 132.749 214.255 132.829 212.732C132.99 209.636 133.164 206.602 133.449 203.538C133.597 201.804 133.696 200.065 133.913 198.344C133.918 198.327 133.928 198.312 133.942 198.301C133.956 198.291 133.973 198.285 133.99 198.285C134.008 198.285 134.025 198.291 134.039 198.301C134.053 198.312 134.063 198.327 134.068 198.344C134.105 199.867 134.037 201.39 134.018 202.913C134 204.436 133.987 205.952 133.938 207.475C133.845 210.54 133.678 213.617 133.455 216.675C133.387 217.53 133.306 218.378 133.232 219.232C133.194 220.068 133.071 220.898 132.867 221.709C132.867 221.752 132.78 221.758 132.767 221.709C132.658 220.988 132.617 220.258 132.644 219.529C132.625 218.793 132.644 218.044 132.656 217.294Z" fill="#263238"/>
<path d="M137.429 27.3774C138.884 27.6436 145.317 27.2474 149.266 33.2837C152.981 38.998 153.52 55.7944 154.188 59.4781C154.857 63.1617 159.606 63.9728 160.503 68.2632C161.277 71.9778 158.553 73.1479 158.138 75.8039C157.816 77.8593 159.736 81.0787 157.68 84.038C155.823 86.7311 152.826 85.982 150.95 86.7559C149.075 87.5298 147.719 91.7087 144.283 92.6498C140.847 93.5908 138.023 90.3653 136.234 90.291C134.445 90.2167 132.024 95.5967 126.199 94.7981C120.373 93.9994 118.955 88.9661 116.596 87.8641C114.237 86.7621 108.083 88.1117 105.452 84.9481C102.821 81.7845 102.586 77.7293 101.422 76.1816C100.258 74.6338 97.633 74.7267 96.2709 71.2287C94.9089 67.7308 98.2087 65.7063 98.8216 62.7531C99.2488 60.6977 97.5029 58.6918 98.9702 55.5963C100.989 51.3306 106.263 52.5503 108.535 48.167C110.318 44.7433 114.436 29.6681 123.852 26.4116C130.365 24.1704 137.429 27.3774 137.429 27.3774Z" fill="#263238"/>
<path d="M154.053 58.5928C154.363 59.3825 154.863 60.084 155.507 60.6358L157.328 62.3879C158.573 63.4518 159.643 64.7054 160.497 66.1025C160.892 66.7721 161.127 67.5238 161.184 68.2991C161.241 69.0744 161.119 69.8524 160.826 70.5725C160.487 71.292 160.038 71.9541 159.495 72.5351C158.872 73.1698 158.344 73.8913 157.928 74.6772C157.656 75.585 157.688 76.5571 158.021 77.4446C158.25 78.268 158.51 79.0542 158.696 79.8467C159.086 81.4192 159.117 83.0722 158.3 84.4219C157.92 85.0938 157.324 85.6175 156.609 85.9078C155.855 86.1847 155.054 86.315 154.251 86.2916C153.427 86.2916 152.591 86.2297 151.774 86.1987C150.925 86.0853 150.06 86.2343 149.298 86.6259C150.091 86.3368 150.949 86.2767 151.774 86.4526C152.598 86.5578 153.427 86.7002 154.251 86.7559C155.123 86.8351 156.003 86.7404 156.839 86.4773C157.704 86.1709 158.442 85.5849 158.937 84.8119C160.002 83.2951 159.934 81.2954 159.556 79.6548C159.377 78.8128 159.123 78.0018 158.937 77.2093C158.677 76.515 158.647 75.7554 158.851 75.0424C159.42 73.7361 160.993 72.6217 161.661 70.9192C162.001 70.0792 162.134 69.1697 162.047 68.2677C161.961 67.3657 161.659 66.4977 161.166 65.7373C160.204 64.3217 159.023 63.0678 157.668 62.0226L155.712 60.4377C155.03 59.9518 154.464 59.322 154.053 58.5928Z" fill="#263238"/>
<path d="M114.882 34.5645C113.148 37.0409 112.003 39.8578 110.603 42.4952C109.904 43.8139 109.248 45.1574 108.461 46.4018C108.09 47.0141 107.656 47.5866 107.167 48.1105C107.061 48.2309 106.938 48.3352 106.802 48.4201C106.675 48.5181 106.536 48.5993 106.387 48.6615C106.059 48.8101 105.719 48.9401 105.372 49.0701C103.937 49.5568 102.53 50.121 101.156 50.7603C99.7073 51.4077 98.4957 52.4895 97.6889 53.8558C97.2854 54.5632 97.0721 55.3631 97.0698 56.1775C97.1108 56.9619 97.3021 57.7311 97.6332 58.4434C98.3485 59.758 98.7511 61.2198 98.8095 62.7152C99.0757 61.2046 98.5495 59.6754 98.0728 58.2762C97.8108 57.6075 97.6764 56.8957 97.6765 56.1775C97.7118 55.483 97.925 54.8094 98.2957 54.2211C99.0884 53.0304 100.206 52.0915 101.515 51.5156C102.828 50.8965 104.251 50.4631 105.682 49.9369C106.041 49.8007 106.394 49.6583 106.753 49.4849C107.141 49.3018 107.49 49.0453 107.78 48.7296C108.312 48.1523 108.778 47.5167 109.167 46.8351C109.942 45.5309 110.633 44.1785 111.235 42.7862L113.012 38.6444C113.557 37.2499 114.181 35.8877 114.882 34.5645Z" fill="#263238"/>
<path d="M100.06 75.1035C100.679 76.0012 100.679 77.1218 100.859 78.1681C101.038 79.2144 101.199 80.2978 101.422 81.3627C101.634 82.443 101.956 83.4989 102.382 84.5139C102.813 85.5854 103.5 86.5354 104.381 87.2813C106.356 88.6991 108.789 88.6743 110.907 88.4081C111.984 88.2657 113.043 88.0676 114.095 87.9562C115.145 87.7646 116.225 87.8262 117.246 88.1357C116.264 87.6408 115.168 87.4164 114.07 87.4856C112.975 87.4856 111.904 87.6219 110.839 87.6714C108.759 87.7828 106.542 87.6714 104.963 86.5198C104.199 85.874 103.596 85.0576 103.205 84.1363C102.768 83.1828 102.41 82.1951 102.134 81.1831C101.831 80.1616 101.583 79.1153 101.317 78.0876C101.174 77.5676 101.026 77.0413 100.853 76.5275C100.714 75.9929 100.442 75.5027 100.06 75.1035Z" fill="#263238"/>
<path d="M141.144 79.5491C165.908 89.4548 203.797 110.201 203.562 119.599C203.308 130.074 170.712 124.651 169.815 123.314C169.313 122.589 147.942 105.199 136.946 91.1202C125.047 75.8963 134.909 77.0479 141.144 79.5491Z" fill="#D3766A"/>
<path d="M172.854 92.7978L151.619 108.375C151.619 108.375 136.761 93.8689 131.517 85.9877C126.502 78.4408 127.641 72.2373 142.716 78.5584C161.29 86.3467 172.854 92.7978 172.854 92.7978Z" fill="#BA68C8"/>
<path d="M150.251 92.2907C150.077 92.454 149.864 92.5692 149.632 92.6251C149.411 92.6747 149.181 92.6665 148.964 92.6015C148.747 92.5364 148.551 92.4166 148.394 92.2536C148.154 92.0171 147.848 91.8595 147.516 91.802C147.184 91.7444 146.842 91.7897 146.537 91.9317C146.038 92.2492 145.636 92.6965 145.373 93.2256C145.62 93.0832 145.837 92.9099 146.066 92.7551C146.241 92.589 146.453 92.4679 146.685 92.4022C146.902 92.3439 147.13 92.343 147.347 92.3994C147.564 92.4559 147.763 92.5678 147.923 92.7241C148.157 92.9593 148.455 93.1205 148.78 93.1877C149.104 93.2548 149.442 93.225 149.75 93.1018C150.369 92.817 150.616 92.2722 150.938 91.8202C150.697 91.9626 150.486 92.136 150.251 92.2907ZM168.416 90.4334C168.3 90.5636 168.158 90.6678 167.999 90.7393C167.84 90.8108 167.668 90.8479 167.493 90.8482C167.162 90.846 166.837 90.9425 166.56 91.1255C166.283 91.3085 166.067 91.5698 165.939 91.8759C165.781 92.4485 165.803 93.0558 166.001 93.6156C166.076 93.337 166.106 93.0646 166.156 92.786C166.17 92.5406 166.249 92.3033 166.385 92.0988C166.504 91.909 166.669 91.7525 166.865 91.6442C167.061 91.5359 167.282 91.4793 167.506 91.4797C167.789 91.4738 168.067 91.3964 168.312 91.2546C168.558 91.1129 168.764 90.9113 168.911 90.6687L168.416 90.4334ZM135.095 80.7939C135.026 81.0673 134.973 81.3442 134.934 81.6235C134.927 81.8703 134.857 82.1111 134.73 82.3231C134.615 82.5098 134.455 82.6644 134.265 82.7726C134.074 82.8809 133.86 82.9392 133.641 82.9422C133.309 82.9391 132.983 83.0344 132.705 83.2163C132.428 83.3981 132.21 83.6583 132.08 83.9638C131.93 84.5397 131.954 85.1472 132.148 85.7097C132.217 85.4372 132.248 85.1586 132.303 84.8862C132.317 84.6408 132.396 84.4035 132.532 84.199C132.651 84.01 132.815 83.8541 133.01 83.7459C133.205 83.6376 133.424 83.5805 133.647 83.5799C133.982 83.5771 134.308 83.4725 134.582 83.2801C134.856 83.0878 135.065 82.8166 135.182 82.5027C135.304 81.9396 135.274 81.354 135.095 80.8063V80.7939ZM153.21 83.549C152.964 83.5355 152.725 83.4587 152.517 83.3261C152.251 83.1407 152.057 82.8698 151.966 82.5584L151.273 82.2427C151.273 82.569 151.37 82.8879 151.551 83.1598C151.731 83.4316 151.988 83.6445 152.288 83.7718C152.862 83.9253 153.468 83.9015 154.028 83.7037C153.755 83.6418 153.483 83.6109 153.21 83.5614V83.549Z" fill="white"/>
<path d="M165.654 91.4727C164.14 92.3064 162.678 93.2327 161.277 94.2462C159.853 95.2121 158.448 96.2026 157.043 97.1994C155.637 98.1961 154.213 99.2053 152.827 100.245C151.44 101.285 150.047 102.443 148.648 103.539C148.573 103.601 148.648 103.743 148.759 103.681C150.214 102.753 151.694 101.867 153.13 100.902C154.566 99.9358 155.953 98.9391 157.358 97.9485C158.764 96.9579 160.182 95.9364 161.575 94.9025C163.03 93.8871 164.421 92.783 165.741 91.5965C165.758 91.585 165.769 91.5674 165.772 91.5477C165.776 91.528 165.771 91.5076 165.76 91.4912C165.748 91.4748 165.731 91.4636 165.711 91.4601C165.691 91.4567 165.671 91.4612 165.654 91.4727Z" fill="#263238"/>
<path d="M163.197 99.8682L151.619 108.35C151.619 108.35 136.761 93.8505 131.517 85.9693C130.358 84.3345 129.504 82.5034 128.997 80.5645L163.197 99.8682Z" fill="#263238"/>
<path d="M166.626 163.37C167.474 147.447 155.934 128.081 155.934 128.081C155.934 128.081 163.171 115.445 158.974 106.412C156.857 101.819 141.311 83.5426 133.479 77.8654C126.137 72.5349 115.482 78.2368 111.507 82.4158C96.2213 98.5126 85.2755 126.83 82.2109 163.519L166.626 163.37Z" fill="#BA68C8"/>
<path d="M132.384 100.487C132.139 100.478 131.901 100.4 131.697 100.264C131.506 100.145 131.349 99.9786 131.24 99.7814C131.132 99.5841 131.076 99.3624 131.078 99.1374C131.071 98.8033 130.965 98.4787 130.774 98.2051C130.582 97.9316 130.312 97.7216 130 97.602C129.422 97.4738 128.82 97.5081 128.261 97.7011C128.533 97.7692 128.812 97.8001 129.09 97.8559C129.337 97.8635 129.578 97.9338 129.79 98.0602C129.977 98.1745 130.132 98.3344 130.24 98.525C130.348 98.7156 130.406 98.9306 130.409 99.1498C130.407 99.4831 130.503 99.8097 130.686 100.088C130.869 100.367 131.13 100.585 131.437 100.716C132.01 100.866 132.616 100.842 133.176 100.648C132.935 100.555 132.662 100.524 132.384 100.487ZM159.909 113.594C159.33 113.467 158.726 113.499 158.163 113.686C158.442 113.761 158.721 113.792 158.993 113.847C159.24 113.853 159.481 113.924 159.693 114.052C159.916 114.185 160.094 114.381 160.207 114.615C160.207 114.343 160.256 114.058 160.268 113.773C160.156 113.695 160.036 113.628 159.909 113.575V113.594ZM137.857 135.745C137.61 135.736 137.37 135.658 137.163 135.522C136.973 135.402 136.817 135.236 136.709 135.039C136.6 134.842 136.544 134.62 136.544 134.396C136.54 134.062 136.435 133.737 136.243 133.464C136.05 133.191 135.78 132.983 135.467 132.866C134.892 132.736 134.292 132.768 133.734 132.959C134.012 133.027 134.278 133.064 134.557 133.12C134.806 133.123 135.049 133.191 135.263 133.318C135.447 133.435 135.601 133.596 135.709 133.786C135.816 133.976 135.876 134.189 135.882 134.408C135.88 134.74 135.976 135.066 136.157 135.345C136.339 135.623 136.598 135.842 136.903 135.974C137.477 136.124 138.083 136.101 138.643 135.906C138.402 135.813 138.129 135.776 137.857 135.727V135.745ZM160.287 136.699H160.188C159.943 136.685 159.705 136.606 159.501 136.47C159.31 136.352 159.152 136.187 159.044 135.991C158.935 135.794 158.879 135.573 158.882 135.349C158.875 135.015 158.769 134.69 158.575 134.417C158.382 134.145 158.111 133.936 157.798 133.82C157.221 133.694 156.62 133.724 156.058 133.906C156.337 133.987 156.609 134.012 156.888 134.067C157.136 134.075 157.377 134.148 157.588 134.278C157.775 134.39 157.93 134.549 158.039 134.739C158.147 134.928 158.205 135.143 158.207 135.361C158.203 135.694 158.299 136.02 158.482 136.298C158.665 136.576 158.927 136.793 159.235 136.921C159.594 137.053 159.985 137.072 160.355 136.977L160.287 136.699ZM117.395 111.996C117.15 111.984 116.912 111.904 116.708 111.767C116.517 111.65 116.36 111.485 116.251 111.288C116.143 111.092 116.087 110.871 116.089 110.647C116.084 110.312 115.978 109.987 115.786 109.714C115.594 109.44 115.324 109.23 115.012 109.111C114.442 108.974 113.846 108.989 113.284 109.155C113.558 109.224 113.835 109.277 114.114 109.316C114.361 109.327 114.601 109.399 114.814 109.526C115.004 109.636 115.162 109.795 115.271 109.987C115.38 110.178 115.436 110.395 115.433 110.616C115.432 110.948 115.53 111.273 115.714 111.55C115.898 111.826 116.16 112.042 116.467 112.17C117.039 112.327 117.646 112.306 118.206 112.108C117.946 112.058 117.674 112.027 117.395 111.978V111.996ZM106.338 147.366C106.091 147.351 105.852 147.272 105.645 147.137C105.455 147.018 105.298 146.853 105.19 146.657C105.082 146.461 105.025 146.24 105.026 146.016C105.035 145.681 104.942 145.35 104.758 145.069C104.574 144.788 104.309 144.57 103.998 144.444C103.423 144.315 102.824 144.345 102.264 144.53C102.537 144.605 102.809 144.636 103.088 144.691C103.336 144.697 103.579 144.765 103.794 144.889C103.979 145.007 104.132 145.169 104.24 145.36C104.348 145.551 104.407 145.766 104.413 145.985C104.409 146.317 104.505 146.643 104.687 146.92C104.868 147.198 105.129 147.416 105.434 147.545C106.008 147.695 106.613 147.672 107.174 147.477C106.883 147.428 106.61 147.397 106.338 147.347V147.366ZM154.826 163.196C154.819 162.861 154.712 162.535 154.519 162.261C154.327 161.986 154.056 161.775 153.743 161.655C153.165 161.527 152.563 161.561 152.003 161.754C152.282 161.822 152.554 161.859 152.833 161.909C153.08 161.914 153.321 161.985 153.533 162.113C153.72 162.228 153.875 162.389 153.984 162.581C154.092 162.773 154.15 162.989 154.152 163.209C154.152 163.277 154.152 163.339 154.152 163.413H154.814C154.807 163.334 154.812 163.255 154.826 163.178V163.196ZM149.063 123.827C148.889 123.995 148.676 124.117 148.443 124.18C148.227 124.237 148 124.238 147.784 124.182C147.567 124.127 147.368 124.018 147.205 123.865C146.974 123.626 146.676 123.462 146.351 123.394C146.025 123.326 145.687 123.356 145.379 123.481C144.76 123.759 144.512 124.31 144.19 124.762C144.444 124.614 144.661 124.446 144.89 124.286C145.065 124.125 145.278 124.012 145.509 123.957C145.73 123.908 145.96 123.916 146.177 123.981C146.394 124.046 146.59 124.166 146.747 124.329C146.987 124.565 147.294 124.722 147.626 124.779C147.957 124.837 148.299 124.792 148.604 124.651C149.105 124.334 149.509 123.886 149.775 123.357C149.53 123.495 149.292 123.646 149.063 123.809V123.827ZM94.7546 112.064C94.5816 112.233 94.3685 112.354 94.1355 112.417C93.8879 112.479 93.628 112.468 93.3863 112.386C93.2997 112.578 93.2315 112.776 93.1511 112.968C93.5354 113.089 93.9509 113.06 94.315 112.888C94.8122 112.569 95.2142 112.122 95.4789 111.594C95.2127 111.73 94.9898 111.903 94.7546 112.064ZM94.7546 135.819C94.5821 135.989 94.3688 136.11 94.1355 136.172C93.9189 136.231 93.6908 136.232 93.4738 136.175C93.2567 136.119 93.058 136.007 92.8972 135.85C92.6613 135.608 92.358 135.443 92.0268 135.375C91.6955 135.308 91.3516 135.342 91.0399 135.473C90.4208 135.745 90.1732 136.302 89.8574 136.748C90.1051 136.606 90.3217 136.432 90.5508 136.278C90.7335 136.111 90.9583 135.998 91.2009 135.949C91.4218 135.899 91.6519 135.907 91.8689 135.972C92.0859 136.037 92.2823 136.157 92.4391 136.321C92.6808 136.554 92.9871 136.71 93.3183 136.767C93.6494 136.825 93.9902 136.781 94.2964 136.643C94.7948 136.325 95.1972 135.878 95.4603 135.349C95.2127 135.491 94.9898 135.665 94.7546 135.819ZM117.829 159.816C117.657 159.986 117.443 160.108 117.21 160.169C116.993 160.226 116.765 160.226 116.548 160.17C116.331 160.114 116.133 160.002 115.971 159.847C115.736 159.604 115.433 159.438 115.101 159.371C114.77 159.303 114.426 159.338 114.114 159.469C113.495 159.748 113.241 160.299 112.925 160.745C113.173 160.602 113.39 160.429 113.625 160.274C113.796 160.11 114.011 159.998 114.244 159.952C114.464 159.901 114.694 159.907 114.911 159.971C115.128 160.035 115.325 160.155 115.482 160.318C115.723 160.553 116.029 160.709 116.361 160.767C116.693 160.824 117.034 160.78 117.34 160.639C117.837 160.32 118.239 159.873 118.503 159.346C118.281 159.488 118.064 159.661 117.829 159.816ZM119.568 130.718C119.392 130.882 119.18 131.003 118.949 131.071C118.733 131.129 118.505 131.129 118.288 131.073C118.071 131.016 117.872 130.905 117.711 130.749C117.475 130.507 117.172 130.341 116.841 130.274C116.509 130.207 116.165 130.241 115.854 130.371C115.235 130.65 114.987 131.201 114.671 131.647C114.913 131.504 115.136 131.331 115.365 131.176C115.549 131.01 115.773 130.895 116.015 130.842C116.236 130.794 116.466 130.803 116.683 130.869C116.9 130.935 117.096 131.056 117.253 131.22C117.495 131.452 117.802 131.606 118.132 131.663C118.463 131.721 118.804 131.678 119.11 131.541C119.609 131.224 120.011 130.777 120.274 130.248C120.014 130.365 119.797 130.538 119.568 130.693V130.718ZM139.12 154.913C138.946 155.08 138.733 155.202 138.501 155.266C138.284 155.324 138.056 155.326 137.839 155.269C137.622 155.213 137.423 155.101 137.262 154.944C137.028 154.699 136.725 154.532 136.393 154.465C136.061 154.397 135.716 154.433 135.405 154.566C134.786 154.838 134.538 155.396 134.216 155.841C134.464 155.693 134.681 155.526 134.916 155.371C135.088 155.206 135.302 155.092 135.535 155.043C135.756 154.992 135.986 154.999 136.203 155.065C136.42 155.13 136.617 155.25 136.773 155.414C137.015 155.648 137.321 155.803 137.652 155.861C137.984 155.918 138.324 155.875 138.631 155.736C139.129 155.416 139.532 154.967 139.795 154.436C139.572 154.56 139.355 154.727 139.12 154.888V154.913ZM135.096 80.8304C135.026 81.1037 134.973 81.3807 134.935 81.66C134.927 81.9068 134.857 82.1475 134.73 82.3596C134.616 82.5463 134.455 82.7009 134.265 82.8091C134.074 82.9174 133.86 82.9757 133.641 82.9787C133.309 82.9756 132.983 83.0709 132.706 83.2528C132.428 83.4346 132.21 83.6947 132.08 84.0002C131.93 84.5762 131.954 85.1836 132.149 85.7461C132.217 85.4737 132.248 85.1951 132.303 84.9227C132.317 84.6773 132.396 84.44 132.532 84.2355C132.651 84.0465 132.815 83.8906 133.01 83.7823C133.205 83.6741 133.424 83.617 133.647 83.6164C133.982 83.6135 134.308 83.509 134.582 83.3166C134.856 83.1243 135.066 82.8531 135.182 82.5392C135.311 81.9642 135.281 81.3649 135.096 80.8057V80.8304ZM151.291 142.407C151.223 142.685 151.186 142.964 151.137 143.23C151.131 143.479 151.06 143.722 150.932 143.936C150.817 144.123 150.656 144.279 150.464 144.387C150.273 144.495 150.057 144.553 149.836 144.555C149.505 144.555 149.181 144.652 148.904 144.833C148.627 145.015 148.409 145.273 148.276 145.577C148.126 146.15 148.15 146.756 148.344 147.316C148.419 147.044 148.45 146.771 148.505 146.499C148.515 146.252 148.592 146.012 148.728 145.806C148.848 145.615 149.014 145.459 149.212 145.35C149.409 145.242 149.63 145.186 149.855 145.187C150.188 145.181 150.511 145.076 150.783 144.883C151.055 144.691 151.262 144.421 151.378 144.109C151.508 143.536 151.478 142.939 151.291 142.382V142.407ZM148.573 106.016C148.504 106.289 148.451 106.566 148.413 106.845C148.403 107.092 148.333 107.332 148.208 107.545C148.094 107.732 147.934 107.887 147.743 107.995C147.553 108.103 147.338 108.162 147.119 108.164C146.786 108.16 146.459 108.255 146.181 108.438C145.903 108.622 145.686 108.884 145.558 109.192C145.402 109.765 145.426 110.372 145.627 110.931C145.695 110.653 145.726 110.38 145.781 110.102C145.795 109.857 145.872 109.62 146.004 109.415C146.123 109.225 146.288 109.068 146.484 108.96C146.68 108.852 146.901 108.795 147.125 108.795C147.459 108.791 147.785 108.686 148.059 108.494C148.332 108.301 148.542 108.031 148.66 107.718C148.782 107.153 148.752 106.566 148.573 106.016ZM131.43 115.135C131.362 115.414 131.331 115.692 131.269 115.965C131.266 116.211 131.197 116.452 131.071 116.664C130.957 116.852 130.798 117.007 130.607 117.115C130.416 117.224 130.201 117.282 129.982 117.283C129.649 117.283 129.323 117.38 129.044 117.562C128.766 117.745 128.547 118.005 128.415 118.311C128.265 118.885 128.289 119.49 128.483 120.051C128.558 119.778 128.595 119.5 128.644 119.221C128.657 118.977 128.734 118.739 128.867 118.534C128.987 118.344 129.153 118.187 129.351 118.079C129.548 117.97 129.769 117.914 129.994 117.915C130.327 117.908 130.651 117.802 130.923 117.61C131.196 117.418 131.405 117.149 131.523 116.838C131.634 116.27 131.594 115.682 131.406 115.135H131.43ZM94.1602 155.136C94.0921 155.408 94.0612 155.687 94.0054 155.959C93.9988 156.208 93.9285 156.451 93.8011 156.665C93.686 156.851 93.5258 157.005 93.3354 157.114C93.145 157.222 92.9305 157.28 92.7115 157.284C92.3796 157.281 92.0541 157.376 91.7764 157.558C91.4987 157.74 91.2812 158 91.1514 158.305C90.9948 158.879 91.0185 159.486 91.2195 160.045C91.2876 159.773 91.3247 159.494 91.3742 159.215C91.3868 158.971 91.4637 158.734 91.5971 158.528C91.7169 158.338 91.8832 158.181 92.0804 158.073C92.2775 157.965 92.499 157.908 92.7239 157.909C93.0591 157.904 93.385 157.798 93.659 157.605C93.9329 157.411 94.1421 157.14 94.2593 156.826C94.3712 156.262 94.3284 155.677 94.1355 155.136H94.1602ZM106.189 97.4658C106.121 97.7382 106.084 98.0168 106.035 98.2892C106.027 98.5379 105.957 98.7807 105.83 98.995C105.714 99.1817 105.553 99.3363 105.362 99.4445C105.17 99.5527 104.954 99.611 104.735 99.6141C104.404 99.613 104.08 99.7093 103.804 99.8909C103.527 100.073 103.311 100.332 103.181 100.636C103.024 101.211 103.048 101.82 103.249 102.382C103.317 102.109 103.348 101.831 103.403 101.558C103.418 101.211 103.565 100.883 103.816 100.642C104.066 100.401 104.4 100.265 104.747 100.264C105.081 100.259 105.406 100.153 105.68 99.9612C105.954 99.7692 106.163 99.4994 106.282 99.1869C106.402 98.6133 106.362 98.0177 106.165 97.4658H106.189ZM106.189 121.611C106.121 121.89 106.084 122.168 106.035 122.434C106.029 122.683 105.959 122.927 105.83 123.14C105.715 123.328 105.554 123.483 105.362 123.591C105.171 123.699 104.955 123.757 104.735 123.759C104.404 123.757 104.08 123.853 103.803 124.035C103.527 124.217 103.31 124.476 103.181 124.781C103.024 125.354 103.048 125.961 103.249 126.52C103.317 126.254 103.348 125.976 103.403 125.697C103.414 125.452 103.491 125.214 103.626 125.01C103.745 124.82 103.91 124.664 104.106 124.555C104.303 124.447 104.523 124.39 104.747 124.391C105.082 124.386 105.408 124.28 105.682 124.086C105.956 123.893 106.165 123.621 106.282 123.307C106.401 122.736 106.36 122.142 106.165 121.592L106.189 121.611ZM125.592 142.401C125.525 142.672 125.471 142.947 125.431 143.224C125.423 143.473 125.352 143.715 125.227 143.93C125.112 144.118 124.951 144.273 124.759 144.382C124.568 144.49 124.351 144.547 124.131 144.549C123.8 144.548 123.477 144.644 123.2 144.826C122.924 145.007 122.707 145.266 122.577 145.57C122.421 146.144 122.444 146.751 122.645 147.31C122.713 147.038 122.744 146.765 122.806 146.493C122.811 146.246 122.886 146.005 123.023 145.799C123.142 145.61 123.307 145.453 123.503 145.345C123.699 145.236 123.92 145.18 124.144 145.18C124.478 145.176 124.803 145.071 125.077 144.878C125.351 144.686 125.561 144.416 125.679 144.103C125.797 143.53 125.758 142.935 125.567 142.382L125.592 142.401ZM147.824 91.9062C147.626 91.8299 147.414 91.7945 147.201 91.8019C146.988 91.8093 146.779 91.8596 146.586 91.9496C146.088 92.2671 145.685 92.7144 145.422 93.2435C145.67 93.1011 145.887 92.9278 146.116 92.773C146.29 92.6069 146.503 92.4858 146.735 92.4201C146.951 92.3618 147.179 92.3609 147.396 92.4173C147.613 92.4738 147.812 92.5857 147.973 92.742C148.253 93.0191 148.616 93.1955 149.007 93.2435C148.573 92.7792 148.196 92.3272 147.8 91.8877L147.824 91.9062ZM120.639 89.8508C120.464 90.0112 120.251 90.1241 120.02 90.1789C119.799 90.226 119.569 90.216 119.352 90.1499C119.136 90.0839 118.94 89.9639 118.782 89.8013C118.541 89.5673 118.234 89.4119 117.902 89.3555C117.571 89.2992 117.23 89.3445 116.925 89.4855C116.427 89.8006 116.024 90.2459 115.761 90.7733C116.008 90.6309 116.225 90.4575 116.454 90.3028C116.63 90.1388 116.842 90.0179 117.073 89.9499C117.29 89.8934 117.518 89.8934 117.734 89.9497C117.951 90.0061 118.15 90.117 118.312 90.2718C118.546 90.5161 118.849 90.6831 119.181 90.7506C119.513 90.8181 119.858 90.7828 120.169 90.6495C120.788 90.377 121.036 89.826 121.358 89.3741C121.06 89.4979 120.85 89.6713 120.615 89.8322L120.639 89.8508Z" fill="white"/>
<path d="M151.805 127.629C150.846 127.579 149.885 127.579 148.926 127.629C147.973 127.66 147.019 127.716 146.066 127.808C144.163 127.996 142.275 128.308 140.413 128.743C136.738 129.613 133.161 130.858 129.74 132.458C127.778 133.347 125.897 134.406 124.118 135.622C124.111 135.624 124.104 135.627 124.098 135.632C124.092 135.637 124.088 135.644 124.085 135.651C124.082 135.658 124.081 135.666 124.081 135.674C124.082 135.681 124.084 135.689 124.088 135.696C124.092 135.702 124.098 135.708 124.105 135.712C124.111 135.716 124.119 135.718 124.127 135.719C124.134 135.72 124.142 135.718 124.149 135.715C124.156 135.713 124.163 135.708 124.168 135.702C127.563 134.079 131.051 132.657 134.612 131.443C138.171 130.308 141.801 129.409 145.478 128.75C146.53 128.558 147.583 128.372 148.641 128.211C149.7 128.05 150.746 127.969 151.793 127.808C151.813 127.805 151.831 127.794 151.845 127.779C151.859 127.764 151.867 127.744 151.868 127.724C151.87 127.703 151.864 127.682 151.853 127.665C151.841 127.648 151.825 127.635 151.805 127.629Z" fill="#263238"/>
<path d="M150.864 131.443C148.786 131.068 146.679 130.888 144.568 130.904C142.467 130.882 140.369 131.062 138.302 131.443C138.228 131.443 138.253 131.56 138.302 131.567C140.389 131.635 142.481 131.61 144.568 131.622C146.654 131.635 148.74 131.684 150.821 131.659C150.963 131.659 150.988 131.443 150.864 131.443Z" fill="#263238"/>
<path d="M120.261 83.0784C118.85 90.0681 95.2371 130.131 88.687 137.931C88.687 137.931 55.7505 151.663 55.7505 134.669C55.7505 125.791 87.944 99.1195 104.431 85.01C111.191 79.2523 121.952 74.5595 120.261 83.0784Z" fill="#D3766A"/>
<path d="M82.2109 100.32L105.972 111.662C105.972 111.662 117.878 94.6431 121.549 85.9261C125.072 77.5744 122.787 71.6867 109.167 80.7132C92.3643 91.82 82.2109 100.32 82.2109 100.32Z" fill="#BA68C8"/>
<path d="M89.034 98.9025C89.2692 98.7477 89.4859 98.5744 89.7274 98.4258C89.4687 98.9576 89.0681 99.4076 88.5697 99.7259C88.2638 99.8662 87.9226 99.9105 87.5911 99.853C87.2595 99.7955 86.9532 99.639 86.7123 99.404C86.5566 99.2389 86.3603 99.1177 86.1429 99.0525C85.9256 98.9873 85.695 98.9804 85.4741 99.0325C85.2426 99.0857 85.0291 99.1989 84.855 99.3606C84.6198 99.5216 84.4031 99.695 84.1616 99.8312C84.4774 99.3854 84.7064 98.8344 85.3441 98.5558C85.6515 98.4293 85.9896 98.3977 86.3151 98.465C86.6406 98.5323 86.9385 98.6954 87.1705 98.9335C87.3316 99.0893 87.5303 99.2009 87.7472 99.2573C87.9642 99.3137 88.1921 99.313 88.4087 99.2554C88.6436 99.1926 88.8588 99.0712 89.034 98.9025Z" fill="#BA68C8"/>
<path d="M103.651 87.2071C103.092 87.408 102.484 87.4317 101.911 87.2752C101.692 87.1869 101.495 87.0503 101.335 86.8756C101.175 86.701 101.057 86.4926 100.989 86.266C101.175 86.1298 101.36 85.9998 101.552 85.876C101.586 86.1864 101.729 86.4748 101.956 86.6892C102.183 86.9037 102.479 87.0302 102.79 87.0461C103.1 87.108 103.379 87.139 103.651 87.2071Z" fill="#BA68C8"/>
<path d="M106.165 97.4658C106.356 98.0239 106.388 98.624 106.257 99.1993C106.139 99.5118 105.929 99.7815 105.655 99.9736C105.381 100.166 105.056 100.271 104.722 100.277C104.375 100.278 104.041 100.413 103.791 100.654C103.541 100.895 103.393 101.223 103.379 101.57C103.323 101.843 103.292 102.122 103.224 102.394C103.023 101.833 102.999 101.223 103.156 100.648C103.286 100.344 103.503 100.085 103.779 99.9033C104.055 99.7216 104.379 99.6254 104.71 99.6265C104.93 99.6234 105.145 99.565 105.337 99.4569C105.528 99.3487 105.689 99.1941 105.805 99.0074C105.932 98.7931 106.002 98.5503 106.01 98.3016C106.059 98.0106 106.096 97.7382 106.165 97.4658Z" fill="#BA68C8"/>
<path d="M119.475 90.1666C119.376 90.3524 119.277 90.5381 119.166 90.73C118.828 90.6665 118.519 90.5 118.28 90.2533C118.118 90.0985 117.92 89.9876 117.703 89.9312C117.486 89.8749 117.259 89.8749 117.042 89.9314C116.811 89.9994 116.599 90.1203 116.423 90.2843C116.194 90.439 115.977 90.6124 115.729 90.7548C115.993 90.2274 116.395 89.7821 116.893 89.467C117.199 89.326 117.539 89.2807 117.871 89.337C118.203 89.3934 118.509 89.5488 118.751 89.7828C118.942 89.9893 119.197 90.1246 119.475 90.1666Z" fill="#BA68C8"/>
<path d="M102.821 87.0461C102.509 87.0302 102.213 86.9037 101.986 86.6892C101.759 86.4748 101.616 86.1864 101.583 85.876C101.391 85.9998 101.205 86.1298 101.02 86.266C101.088 86.4926 101.206 86.701 101.366 86.8756C101.526 87.0503 101.722 87.1869 101.942 87.2752C102.515 87.4317 103.123 87.408 103.682 87.2071C103.378 87.139 103.1 87.108 102.821 87.0461ZM89.0337 98.902C88.8602 99.0698 88.6473 99.1911 88.4146 99.2549C88.1979 99.3125 87.9701 99.3132 87.7531 99.2567C87.5361 99.2003 87.3375 99.0888 87.1763 98.9329C86.9444 98.6949 86.6465 98.5318 86.321 98.4645C85.9955 98.3972 85.6573 98.4288 85.35 98.5553C84.7309 98.8339 84.4832 99.3849 84.1675 99.8306C84.4089 99.6944 84.6256 99.5211 84.8609 99.3601C85.0349 99.1984 85.2484 99.0852 85.48 99.032C85.7008 98.9799 85.9315 98.9868 86.1488 99.052C86.3661 99.1172 86.5625 99.2384 86.7182 99.4035C86.959 99.6385 87.2654 99.795 87.5969 99.8525C87.9285 99.91 88.2696 99.8657 88.5755 99.7254C89.0739 99.4071 89.4746 98.9571 89.7333 98.4253C89.4856 98.5739 89.2689 98.7472 89.0337 98.902ZM106.164 97.4657C106.096 97.7381 106.059 98.0167 106.01 98.2891C106.002 98.5378 105.932 98.7805 105.805 98.9948C105.689 99.1816 105.528 99.3361 105.336 99.4443C105.145 99.5525 104.929 99.6108 104.709 99.614C104.379 99.6128 104.055 99.7091 103.779 99.8908C103.502 100.072 103.286 100.331 103.155 100.635C102.999 101.211 103.023 101.82 103.224 102.381C103.292 102.109 103.323 101.83 103.378 101.558C103.393 101.211 103.54 100.883 103.791 100.642C104.041 100.401 104.374 100.265 104.722 100.264C105.056 100.259 105.381 100.153 105.655 99.961C105.929 99.769 106.138 99.4993 106.257 99.1868C106.385 98.6154 106.353 98.0199 106.164 97.4657ZM118.751 89.7825C118.509 89.5486 118.203 89.3932 117.871 89.3368C117.54 89.2804 117.199 89.3258 116.893 89.4668C116.395 89.7819 115.993 90.2272 115.73 90.7545C115.977 90.6121 116.194 90.4388 116.423 90.284C116.599 90.12 116.811 89.9992 117.042 89.9311C117.259 89.8747 117.486 89.8747 117.703 89.931C117.92 89.9874 118.118 90.0982 118.28 90.2531C118.519 90.4997 118.828 90.6663 119.166 90.7298C119.277 90.5379 119.376 90.3521 119.475 90.1664C119.197 90.1244 118.942 89.989 118.751 89.7825Z" fill="white"/>
<path d="M89.0338 97.6761C90.6777 98.2128 92.2863 98.8517 93.8505 99.5892C95.4292 100.27 96.9955 100.982 98.5619 101.7C100.128 102.418 101.713 103.143 103.273 103.904C104.833 104.666 106.418 105.545 107.991 106.381C108.006 106.394 108.017 106.413 108.021 106.433C108.025 106.453 108.022 106.474 108.013 106.492C108.004 106.511 107.989 106.526 107.97 106.535C107.952 106.544 107.931 106.546 107.91 106.542C106.307 105.923 104.685 105.303 103.1 104.622C101.515 103.941 99.9548 103.223 98.3885 102.511C96.8222 101.799 95.2372 101.056 93.6833 100.301C92.0609 99.5785 90.4871 98.7512 88.9719 97.8247C88.9522 97.8165 88.9366 97.8008 88.9284 97.781C88.9203 97.7613 88.9203 97.7392 88.9286 97.7194C88.9368 97.6997 88.9525 97.6841 88.9722 97.676C88.9919 97.6679 89.0141 97.6679 89.0338 97.6761Z" fill="#263238"/>
<path d="M116.157 99.0757C115.484 99.7195 114.807 100.357 114.126 100.989C113.792 101.304 113.47 101.608 113.142 101.942L112.789 102.289C113.476 101.205 114.151 100.11 114.801 99.0014C115.563 97.7198 116.262 96.4011 116.968 95.0886C116.973 95.0796 116.974 95.069 116.971 95.0591C116.968 95.0492 116.962 95.0409 116.953 95.036C116.944 95.0311 116.933 95.0299 116.923 95.0328C116.913 95.0357 116.905 95.0424 116.9 95.0515C114.052 99.3852 111.217 103.719 108.325 108.003C107.527 109.192 106.716 110.374 105.997 111.619L105.539 111.514C105.484 111.514 105.446 111.582 105.502 111.606L105.997 111.848C106.017 111.862 106.041 111.87 106.066 111.87C106.09 111.87 106.114 111.862 106.134 111.848C107.769 109.871 109.274 107.791 110.641 105.62C111.268 104.679 111.887 103.735 112.498 102.79L112.987 102.363C113.371 102.023 113.736 101.657 114.102 101.304C114.826 100.611 115.519 99.8743 116.219 99.1438C116.225 99.088 116.182 99.0509 116.157 99.0757Z" fill="#263238"/>
<path d="M102.92 151.304C104.945 154.777 96.0111 184.185 91.0768 180.909C67.8913 165.506 57.447 143.763 56.2397 138.395C54.661 131.356 61.2545 125.208 65.9597 124.831C72.7822 124.28 100.902 147.862 102.92 151.304Z" fill="#D3766A"/>
<path d="M78.4657 130.378C89.4611 135.77 98.6115 146.815 98.6362 146.828C98.8158 146.97 98.6362 147.515 98.5681 147.447C96.6675 146.017 85.7526 135.541 78.3048 130.731C78.2305 130.675 78.3914 130.341 78.4657 130.378Z" fill="#263238"/>
<path d="M102.407 188.909C107.279 190.091 112.77 191.843 117.983 191.212C123.196 190.58 126.836 183.244 126.651 181.269C126.465 179.294 123.227 167.178 117.983 167.71C112.739 168.243 116.869 177.381 116.782 178.483C116.696 179.585 116.64 180.996 115.643 180.996C114.646 180.996 96.5684 174.564 96.5684 174.564L102.407 188.909Z" fill="#D3766A"/>
<path d="M102.667 188.153C102.964 188.122 117.525 192.22 122.738 191.595C127.951 190.97 131.585 183.627 131.406 181.652C131.226 179.677 127.982 167.555 122.738 168.087C117.494 168.62 121.63 177.764 121.543 178.866C121.457 179.968 121.401 181.38 120.404 181.342C119.407 181.305 101.323 174.91 101.323 174.91L102.667 188.153Z" fill="#D3766A"/>
<path d="M121.036 168.929C120.472 169.821 120.491 171.071 120.478 172.105C120.479 173.232 120.657 174.352 121.005 175.424C121.39 176.332 121.7 177.27 121.933 178.228C122.024 179.196 121.868 180.172 121.481 181.064C121.153 181.838 120.361 181.683 119.68 181.503C118.67 181.231 117.678 180.898 116.708 180.507C115.662 180.117 114.622 179.696 113.575 179.268C112.481 178.881 111.412 178.426 110.375 177.906C110.359 177.897 110.347 177.882 110.341 177.865C110.335 177.848 110.335 177.83 110.341 177.813C110.346 177.795 110.358 177.781 110.373 177.771C110.388 177.761 110.406 177.756 110.424 177.758C111.364 178.016 112.29 178.324 113.198 178.68C114.238 179.046 115.278 179.405 116.293 179.745C117.309 180.086 118.231 180.439 119.215 180.748C119.66 180.949 120.146 181.043 120.633 181.021C121.023 180.89 121.122 179.888 121.178 179.559C121.299 178.599 121.135 177.624 120.707 176.755C120.339 175.85 120.061 174.91 119.878 173.95C119.693 173.045 119.672 172.114 119.816 171.201C120.062 170.374 120.405 169.578 120.837 168.83C120.918 168.737 121.097 168.83 121.036 168.929Z" fill="#263238"/>
<path d="M84.7002 176.123C84.7002 176.123 100.518 187.849 103.8 190.164C110.381 194.808 136.903 202.621 140.488 202.633C144.073 202.646 144.617 195.247 126.57 189.44C117.055 186.388 114.906 181.33 114.807 178.426C114.708 175.523 116.9 169.845 121.778 169.48C126.657 169.115 130.526 175.894 135.077 176.235C139.627 176.575 135.845 168.675 132.21 164.267C128.576 159.859 122.453 156.535 118.089 155.383C113.724 154.231 100.135 149.947 100.135 149.947L84.7002 176.123Z" fill="#D3766A"/>
<path d="M128.143 172.304C126.168 171.066 123.902 169.444 121.487 169.599C119.073 169.753 117.531 171.536 116.578 173.685C115.625 175.833 115.179 178.254 115.959 180.538C116.735 182.584 118.085 184.361 119.847 185.658C121.999 187.23 124.368 188.482 126.88 189.373C126.991 189.416 126.917 189.577 126.799 189.54C124.459 188.766 117.209 186.624 115.191 180.619C114.368 178.142 114.894 175.845 115.854 173.629C116.733 171.58 118.113 169.555 120.447 169.128C123.301 168.602 126.019 170.688 128.254 172.224C128.372 172.304 128.236 172.354 128.143 172.304Z" fill="#263238"/>
<path d="M120.676 77.97C120.967 79.2083 126.793 85.1021 132.47 84.0249C135.293 83.4925 134.544 76.8123 134.544 76.8123L137.095 65.4765L122.856 56.4189C122.856 56.4189 120.559 77.4376 120.676 77.97Z" fill="#D3766A"/>
<path d="M122.076 63.8055C123.215 66.6246 124.923 69.1789 127.093 71.3092C129.262 73.4395 131.847 75.1001 134.687 76.1877L137.101 65.4833L122.862 56.4258C122.862 56.4258 122.515 59.7566 122.076 63.8055Z" fill="#263238"/>
<path d="M152.059 52.197C151.365 70.8507 138.921 72.3551 134.829 72.0084C131.114 71.6865 118.516 70.1511 118.113 51.1074C117.711 32.0636 127.096 26.8136 135.628 27.0798C144.159 27.3461 152.764 33.1657 152.059 52.197Z" fill="#D3766A"/>
<path d="M148.214 49.3121C147.794 49.1787 147.38 49.0237 146.976 48.8478C146.521 48.7466 146.112 48.4986 145.812 48.142C145.739 48.0114 145.712 47.8602 145.734 47.7122C145.757 47.5643 145.828 47.428 145.936 47.3248C146.18 47.1507 146.466 47.0455 146.764 47.0205C147.063 46.9954 147.363 47.0514 147.632 47.1824C148.218 47.362 148.717 47.7524 149.031 48.2782C149.095 48.4018 149.121 48.541 149.108 48.6792C149.094 48.8175 149.041 48.9489 148.955 49.0578C148.869 49.1668 148.753 49.2487 148.622 49.2938C148.491 49.3389 148.349 49.3452 148.214 49.3121Z" fill="#263238"/>
<path d="M135.411 48.9097C135.841 48.9896 136.275 49.0475 136.711 49.0831C137.161 49.2098 137.639 49.1859 138.073 49.015C138.199 48.9337 138.294 48.8132 138.345 48.6722C138.395 48.5312 138.398 48.3775 138.352 48.2349C138.219 47.9673 138.017 47.7401 137.766 47.5769C137.516 47.4136 137.227 47.3202 136.928 47.3063C136.327 47.1833 135.701 47.2916 135.176 47.6096C135.058 47.687 134.966 47.7972 134.911 47.9266C134.855 48.056 134.839 48.1989 134.864 48.3374C134.889 48.4759 134.954 48.604 135.052 48.7058C135.149 48.8075 135.274 48.8785 135.411 48.9097Z" fill="#263238"/>
<path d="M137.677 52.9584C137.677 52.9089 137.572 53.0017 137.565 53.0575C137.442 54.3514 137.082 55.8063 135.863 56.0849C135.826 56.0849 135.826 56.1592 135.863 56.1592C137.312 56.1406 137.77 54.1966 137.677 52.9584Z" fill="#263238"/>
<path d="M136.699 51.4666C134.649 51.0456 133.962 55.1812 135.857 55.5651C137.751 55.9489 138.42 51.8195 136.699 51.4666Z" fill="#263238"/>
<path d="M135.851 51.578C135.454 51.7513 135.033 52.1042 134.612 52.0795C134.191 52.0547 133.795 51.547 133.535 51.0765C133.535 51.027 133.467 51.0765 133.461 51.1136C133.312 51.8999 133.461 52.7605 134.309 53.0205C135.157 53.2805 135.739 52.6552 136.067 51.8875C136.104 51.7204 136.012 51.4789 135.851 51.578Z" fill="#263238"/>
<path d="M145.026 53.6273C145.026 53.5777 145.112 53.7078 145.1 53.7573C144.84 54.9955 144.747 56.5247 145.83 57.15C145.861 57.15 145.83 57.2367 145.83 57.2243C144.431 56.7785 144.567 54.7912 145.026 53.6273Z" fill="#263238"/>
<path d="M146.4 52.4945C148.48 52.6988 147.917 56.8283 145.991 56.6549C144.066 56.4816 144.654 52.3212 146.4 52.4945Z" fill="#263238"/>
<path d="M147.224 52.8844C147.527 53.1506 147.793 53.5902 148.183 53.6707C148.573 53.7512 149.025 53.3549 149.378 52.9649C149.415 52.9277 149.44 52.9649 149.434 53.0206C149.347 53.8193 148.976 54.6055 148.196 54.655C147.416 54.7046 147.063 53.9493 146.958 53.1382C146.964 52.9835 147.106 52.7792 147.224 52.8844Z" fill="#263238"/>
<path d="M136.618 62.9328C136.859 63.2919 137.076 63.7686 137.528 63.9048C137.999 64.0068 138.487 64.0068 138.958 63.9048C138.969 63.8999 138.981 63.8994 138.992 63.9035C139.003 63.9075 139.012 63.9158 139.017 63.9265C139.022 63.9372 139.022 63.9494 139.018 63.9604C139.014 63.9714 139.006 63.9804 138.995 63.9853C138.761 64.195 138.475 64.3374 138.166 64.3974C137.858 64.4573 137.539 64.4326 137.243 64.3258C136.999 64.2041 136.796 64.0126 136.661 63.7757C136.525 63.5388 136.463 63.267 136.482 62.9947C136.482 62.8833 136.581 62.8771 136.618 62.9328Z" fill="#263238"/>
<path d="M142.692 59.1309C142.692 59.1309 142.549 61.4773 142.407 62.3812C142.407 62.4678 140.085 60.8458 137.386 60.5238C137.281 60.5238 137.46 60.171 137.559 60.1771C139.095 60.1511 140.603 60.5821 141.893 61.4154C141.992 61.1739 141.837 58.066 141.98 58.0784C142.673 58.2473 143.339 58.5097 143.961 58.8584C144.147 54.7909 143.676 50.7234 143.924 46.6744C143.93 46.6471 143.945 46.6226 143.967 46.6052C143.989 46.5877 144.016 46.5781 144.045 46.5781C144.073 46.5781 144.1 46.5877 144.122 46.6052C144.144 46.6226 144.159 46.6471 144.165 46.6744C144.958 50.8967 144.846 55.5896 144.784 59.7933C144.784 60.3072 143.032 59.3414 142.692 59.1309Z" fill="#263238"/>
<path d="M118.274 52.0114C119.588 51.6927 120.797 51.0386 121.782 50.113C122.767 49.1873 123.496 48.0218 123.896 46.7304C140.376 45.8823 145.564 35.506 145.564 35.506C148.963 44.0373 151.83 45.4117 152.331 46.7181C152.331 46.7181 153.501 39.2145 150.852 33.5868C149.394 30.4327 146.929 27.8526 143.845 26.2522C140.761 24.6518 137.232 24.122 133.814 24.746C128.78 25.5322 124.645 30.0208 124.645 30.0208C124.645 30.0208 119.203 30.7451 117.085 35.2027C113.519 42.6877 118.274 52.0114 118.274 52.0114Z" fill="#263238"/>
<path d="M145.787 34.8623C145.245 37.0245 144.17 39.0166 142.661 40.6571C141.152 42.3119 139.332 43.6539 137.305 44.607L135.758 45.2262C135.231 45.4181 134.687 45.5419 134.16 45.7091C133.091 46.0108 132 46.2302 130.898 46.3653C129.796 46.4891 128.687 46.5015 127.585 46.5758C126.483 46.5077 125.381 46.4582 124.286 46.3715C125.388 46.3096 126.483 46.291 127.573 46.2477C128.663 46.1115 129.752 46.0372 130.823 45.8514C132.962 45.5156 135.044 44.8908 137.014 43.9941C138.981 43.0876 140.764 41.8286 142.277 40.2795C143.812 38.7387 145.008 36.8933 145.787 34.8623Z" fill="#263238"/>
<path d="M135.021 58.9574C134.02 58.7333 133.101 58.2328 132.37 57.5126C131.638 56.7925 131.124 55.8816 130.885 54.8836C130.645 53.8855 130.691 52.8404 131.016 51.8669C131.341 50.8934 131.933 50.0307 132.724 49.3767C133.515 48.7228 134.473 48.3039 135.491 48.1677C136.508 48.0314 137.543 48.1833 138.478 48.6061C139.413 49.0289 140.211 49.7055 140.781 50.5591C141.351 51.4128 141.67 52.4091 141.701 53.435C141.727 54.2709 141.562 55.1017 141.217 55.8639C140.873 56.626 140.358 57.2992 139.714 57.8321C139.069 58.365 138.311 58.7434 137.498 58.9385C136.685 59.1335 135.837 59.14 135.021 58.9574ZM137.25 48.9588C136.864 48.8749 136.469 48.8375 136.074 48.8474C134.866 48.884 133.718 49.3795 132.863 50.233C132.008 51.0865 131.51 52.2339 131.471 53.4414C131.433 54.649 131.856 55.8259 132.654 56.7325C133.453 57.6391 134.567 58.2072 135.77 58.3211C136.972 58.4351 138.173 58.0863 139.128 57.3458C140.083 56.6053 140.719 55.5287 140.908 54.3354C141.096 53.1421 140.823 51.9217 140.144 50.9228C139.464 49.9239 138.429 49.2215 137.25 48.9588Z" fill="#BA68C8"/>
<path d="M147.558 60.1778C145.509 59.7196 144.116 57.2061 144.407 54.3582C144.518 52.9878 145.06 51.6878 145.954 50.6435C146.31 50.1744 146.781 49.8051 147.321 49.5715C147.862 49.3379 148.453 49.2479 149.039 49.3102C149.624 49.3725 150.184 49.5849 150.663 49.927C151.142 50.2691 151.525 50.7292 151.774 51.2626C152.432 52.4637 152.698 53.8404 152.535 55.2002C152.226 58.209 150.152 60.4687 147.911 60.2397C147.792 60.2251 147.674 60.2044 147.558 60.1778ZM149.229 50.0925C149.14 50.0716 149.049 50.0571 148.957 50.0492C148.486 50.0192 148.015 50.1038 147.583 50.2957C147.152 50.4876 146.774 50.7811 146.481 51.1512C145.693 52.0747 145.217 53.2228 145.119 54.4325C144.852 57.0389 146.121 59.3172 147.966 59.5029C149.811 59.6887 151.52 57.7261 151.786 55.1197C151.934 53.9145 151.7 52.6934 151.118 51.6279C150.927 51.2548 150.66 50.9256 150.335 50.6612C150.01 50.3969 149.634 50.2032 149.229 50.0925Z" fill="#BA68C8"/>
<path d="M141.453 54.0541L141.039 53.435C141.936 52.8159 143.948 52.0853 145.137 53.6517L144.549 54.0912C143.49 52.6982 141.534 53.9922 141.453 54.0541Z" fill="#BA68C8"/>
<path d="M116.999 52.9589L116.38 52.5565C116.566 52.2717 118.237 49.7581 119.915 49.6591C121.463 49.5724 131.152 51.5164 131.56 51.5783L131.418 52.2965C128.638 51.7393 121.153 50.3215 119.958 50.3958C118.856 50.4577 117.439 52.2655 116.999 52.9589Z" fill="#BA68C8"/>
<path d="M121.333 51.5341C121.333 51.5341 118.237 44.9716 115.34 45.9622C112.442 46.9528 114.046 55.9793 116.968 57.6819C117.327 57.9254 117.732 58.0937 118.158 58.1768C118.585 58.2598 119.023 58.2558 119.447 58.165C119.872 58.0742 120.274 57.8985 120.629 57.6484C120.983 57.3983 121.284 57.0791 121.512 56.7099L121.333 51.5341Z" fill="#D3766A"/>
<path d="M115.878 48.5508C115.828 48.5508 115.804 48.6003 115.847 48.6313C117.884 49.8695 118.683 52.1168 119.128 54.358C118.614 53.4355 117.81 52.8412 116.59 53.4293C116.528 53.4293 116.59 53.5594 116.627 53.5594C117.032 53.5019 117.445 53.5717 117.809 53.7591C118.173 53.9465 118.469 54.2424 118.658 54.6056C118.969 55.2152 119.214 55.8566 119.388 56.5187C119.456 56.7354 119.828 56.692 119.791 56.4506C119.791 56.4506 119.791 56.4196 119.791 56.401C120.317 53.6213 118.856 49.3432 115.878 48.5508Z" fill="#263238"/>
<path d="M203.271 117.94C206.497 126.651 201.247 138.544 192.66 153.532C190.611 157.111 162.355 137.782 164.138 133.752C166.373 128.718 169.493 120.169 170.756 119.197C181.386 111.043 201.501 113.16 203.271 117.94Z" fill="#D3766A"/>
<path d="M136.768 197.169L140.717 198.799L143.875 191.148L139.926 189.518L136.768 197.169Z" fill="#A6A6A6"/>
<path d="M138.467 197.879L138.993 198.097L140.573 194.268L140.047 194.051L138.467 197.879Z" fill="#BA68C8"/>
<path d="M156.82 154.188C172.13 160.51 164.979 172.508 161.092 181.931C157.204 191.353 151.316 195.254 141.534 191.217C131.752 187.181 130.34 180.259 134.228 170.842C138.116 161.426 141.515 147.874 156.82 154.188Z" fill="#BA68C8"/>
<path d="M153.526 162.156C164.453 166.663 159.352 175.232 156.572 181.968C153.792 188.704 149.601 191.496 142.624 188.586C135.646 185.676 134.637 180.76 137.411 174.043C140.184 167.326 142.611 157.649 153.526 162.156Z" fill="#263238"/>
<path d="M137.845 179.878L152.163 185.788L158.645 170.085L144.327 164.175L137.845 179.878Z" fill="#455A64"/>
<path d="M153.737 160.324L155.111 156.999C151.304 155.427 147.453 156.38 146.976 157.532L153.737 160.324Z" fill="#263238"/>
<path d="M152.814 157.315L152.17 158.876L150.852 157.421L152.814 157.315Z" fill="#EBEBEB"/>
<path d="M154.684 160.714L156.058 157.39C159.859 158.962 161.927 162.343 161.444 163.506L154.684 160.714Z" fill="#263238"/>
<path d="M157.464 159.234L156.82 160.795L158.776 160.689L157.464 159.234Z" fill="#EBEBEB"/>
<path d="M150.338 174.341C150.487 173.977 150.729 173.659 151.038 173.417C151.348 173.175 151.715 173.017 152.103 172.959C152.492 172.901 152.889 172.945 153.256 173.087C153.622 173.228 153.946 173.462 154.195 173.766C154.444 174.07 154.61 174.433 154.677 174.82C154.744 175.208 154.709 175.605 154.576 175.975C154.444 176.345 154.217 176.674 153.919 176.93C153.621 177.186 153.262 177.361 152.876 177.436C152.964 177.765 152.94 178.113 152.808 178.427C152.637 178.795 152.331 179.082 151.953 179.23C151.575 179.377 151.155 179.373 150.781 179.218C150.406 179.063 150.106 178.769 149.942 178.398C149.779 178.027 149.765 177.607 149.904 177.226C150.033 176.912 150.261 176.648 150.554 176.477C150.347 176.165 150.219 175.808 150.181 175.436C150.143 175.063 150.197 174.687 150.338 174.341ZM151.297 174.737C151.172 175.039 151.171 175.379 151.295 175.682C151.419 175.984 151.658 176.226 151.96 176.353C152.112 176.434 152.28 176.482 152.452 176.494C152.624 176.506 152.797 176.482 152.96 176.424C153.122 176.365 153.27 176.274 153.395 176.154C153.52 176.035 153.618 175.891 153.684 175.732C153.75 175.572 153.782 175.401 153.778 175.228C153.773 175.055 153.733 174.886 153.659 174.73C153.586 174.574 153.48 174.435 153.349 174.322C153.219 174.209 153.066 174.125 152.901 174.074C152.6 173.953 152.263 173.954 151.964 174.078C151.664 174.202 151.424 174.438 151.297 174.737ZM151.848 178.037C151.875 177.972 151.889 177.903 151.889 177.833C151.889 177.763 151.875 177.694 151.849 177.629C151.822 177.564 151.783 177.505 151.733 177.456C151.684 177.406 151.625 177.367 151.56 177.34C151.496 177.313 151.426 177.3 151.356 177.3C151.286 177.3 151.217 177.313 151.152 177.34C151.088 177.367 151.029 177.406 150.98 177.455C150.93 177.505 150.891 177.564 150.864 177.628C150.81 177.759 150.81 177.905 150.864 178.036C150.918 178.167 151.021 178.27 151.152 178.325C151.282 178.379 151.429 178.379 151.56 178.325C151.69 178.271 151.794 178.167 151.848 178.037Z" fill="#263238"/>
<path d="M149.997 170.824C149.803 170.791 149.604 170.827 149.434 170.927C149.264 171.026 149.134 171.183 149.069 171.369C149.195 171.455 149.289 171.581 149.336 171.727C149.383 171.872 149.38 172.029 149.329 172.173L149.298 172.248C149.267 172.327 149.221 172.4 149.161 172.461C149.102 172.522 149.03 172.57 148.951 172.602C148.872 172.634 148.787 172.649 148.702 172.647C148.617 172.644 148.533 172.624 148.456 172.588C148.06 172.427 147.948 172.031 148.14 171.554L148.183 171.455C148.26 171.216 148.385 170.995 148.55 170.806C148.715 170.616 148.917 170.462 149.143 170.353C149.456 170.222 149.806 170.209 150.127 170.316C150.195 170.333 150.252 170.377 150.288 170.436C150.323 170.496 150.333 170.568 150.316 170.635C150.299 170.702 150.256 170.76 150.196 170.795C150.136 170.831 150.065 170.841 149.997 170.824Z" fill="#263238"/>
<path d="M143.001 173.214C142.88 172.927 142.818 172.618 142.818 172.307C142.818 171.995 142.88 171.687 143.001 171.4C143.243 170.825 143.701 170.37 144.277 170.13C144.563 170.01 144.87 169.947 145.18 169.947C145.491 169.947 145.798 170.01 146.084 170.13C146.365 170.249 146.62 170.424 146.833 170.643C147.045 170.862 147.212 171.121 147.323 171.406C147.352 171.471 147.367 171.541 147.368 171.612C147.369 171.683 147.356 171.753 147.328 171.818C147.301 171.884 147.261 171.943 147.21 171.993C147.159 172.042 147.098 172.08 147.032 172.105C146.899 172.159 146.751 172.159 146.619 172.104C146.487 172.05 146.382 171.946 146.326 171.814C146.264 171.656 146.169 171.512 146.049 171.392C145.929 171.271 145.785 171.177 145.626 171.115C145.472 171.048 145.305 171.014 145.137 171.014C144.969 171.014 144.803 171.048 144.648 171.115C144.334 171.245 144.085 171.495 143.955 171.808C143.886 171.964 143.851 172.133 143.851 172.304C143.851 172.474 143.886 172.643 143.955 172.799C144.018 172.954 144.112 173.095 144.231 173.214C144.35 173.332 144.492 173.424 144.648 173.486C144.803 173.553 144.971 173.588 145.14 173.588C145.309 173.588 145.477 173.553 145.632 173.486C145.764 173.43 145.912 173.429 146.044 173.482C146.177 173.536 146.282 173.64 146.338 173.771C146.338 173.82 146.369 173.876 146.388 173.926C146.406 173.975 146.388 173.957 146.388 173.957C146.383 173.964 146.381 173.973 146.381 173.981C146.381 173.99 146.383 173.999 146.388 174.006C146.386 174.029 146.386 174.051 146.388 174.074C146.375 174.128 146.354 174.181 146.326 174.229L145.125 176.396C145.04 176.525 144.909 176.618 144.759 176.656H144.716H144.685C144.598 176.659 144.512 176.645 144.431 176.612L141.837 175.541C141.772 175.515 141.712 175.475 141.662 175.425C141.612 175.375 141.572 175.316 141.545 175.251C141.517 175.186 141.503 175.116 141.503 175.045C141.503 174.974 141.516 174.904 141.543 174.839C141.57 174.773 141.609 174.714 141.659 174.664C141.709 174.613 141.768 174.573 141.834 174.546C141.899 174.519 141.969 174.505 142.04 174.504C142.11 174.504 142.18 174.518 142.246 174.545L144.413 175.442L144.877 174.613C144.665 174.584 144.457 174.53 144.258 174.452C143.692 174.221 143.241 173.776 143.001 173.214Z" fill="#263238"/>
<path d="M174.062 130.947C174.062 130.947 162.225 133.603 156.516 136.897C148.877 141.311 144.097 148.264 142.277 151.303C138.463 157.637 133.609 175.597 138.562 177.894C143.026 179.974 147.044 161.364 147.044 161.364C147.044 161.364 139.813 179.665 145.651 181.175C151.489 182.686 154.938 160.825 154.938 160.825C154.938 160.825 147.929 179.789 154.195 180.401C158.925 180.866 163.153 161.209 163.153 161.209C163.153 161.209 157.247 177.554 162.095 178.235C167.45 178.996 172.489 161.123 172.489 161.123C188.054 162.41 192.115 155.551 195.204 149.044C195.749 147.824 174.062 130.947 174.062 130.947Z" fill="#D3766A"/>
<path d="M149.124 154.882C148.196 157 147.267 159.136 146.506 161.327C145.744 163.519 145.113 165.742 144.586 167.995C143.833 170.924 143.418 173.93 143.348 176.954C143.856 171.598 146.369 163.705 147.106 161.507C147.843 159.309 148.462 157.093 149.193 154.907C149.199 154.902 149.204 154.896 149.207 154.889C149.21 154.882 149.211 154.874 149.209 154.866C149.208 154.858 149.205 154.851 149.2 154.845C149.195 154.839 149.189 154.834 149.181 154.832C149.174 154.829 149.166 154.828 149.158 154.83C149.151 154.831 149.144 154.835 149.138 154.84C149.132 154.845 149.128 154.852 149.125 154.859C149.123 154.867 149.123 154.875 149.124 154.882Z" fill="#263238"/>
<path d="M157.092 157.389C156.021 160.144 154.863 162.843 153.916 165.648C152.969 168.452 152.331 171.17 151.582 174.018C151.526 174.235 151.662 174.192 151.731 173.975C152.591 171.158 153.588 168.626 154.492 165.815C155.396 163.004 156.17 160.169 157.16 157.414C157.172 157.37 157.104 157.352 157.092 157.389Z" fill="#263238"/>
<path d="M164.317 158.318C162.46 162.448 161.389 166.912 160.436 171.32C160.386 171.543 160.559 171.468 160.615 171.245C161.853 166.912 162.745 163.482 164.46 158.387C164.491 158.3 164.354 158.232 164.317 158.318Z" fill="#263238"/>
<path d="M182.971 114.888C180.668 114.987 172.366 116.937 168.812 122.255C168.781 122.305 168.812 122.379 168.868 122.336C172.743 118.621 180.755 115.259 182.983 114.981C182.993 114.976 183 114.969 183.005 114.959C183.01 114.95 183.012 114.94 183.01 114.93C183.009 114.919 183.004 114.91 182.997 114.902C182.99 114.895 182.981 114.89 182.971 114.888Z" fill="#263238"/>
<path opacity="0.2" d="M60.3629 239.786C77.3121 239.786 91.0521 237.84 91.0521 235.44C91.0521 233.04 77.3121 231.094 60.3629 231.094C43.4138 231.094 29.6738 233.04 29.6738 235.44C29.6738 237.84 43.4138 239.786 60.3629 239.786Z" fill="#301549"/>
<path opacity="0.2" d="M214.335 239.786C231.284 239.786 245.024 237.84 245.024 235.44C245.024 233.04 231.284 231.094 214.335 231.094C197.385 231.094 183.646 233.04 183.646 235.44C183.646 237.84 197.385 239.786 214.335 239.786Z" fill="#301549"/>
<path d="M260 221.832L227.503 221.981L195 222.036L130 222.142L65 222.036L32.5031 221.981L0 221.832L32.5031 221.677L65 221.628L130 221.522L195 221.628L227.503 221.683L260 221.832Z" fill="#263238"/>
<path d="M217.697 208.998H201.358V233.508H217.697V208.998Z" fill="#BA68C8"/>
<path d="M219.671 202.417H199.383V208.998H219.671V202.417Z" fill="#455A64"/>
<path d="M214.966 216.05H204.088V226.928H214.966V216.05Z" fill="white"/>
<path opacity="0.1" d="M201.358 208.998V210.905L210.558 214.384V233.508H214.966V208.998H201.358Z" fill="black"/>
<path d="M196.294 232.976C196.295 232.706 196.349 232.439 196.453 232.19C196.557 231.941 196.709 231.715 196.9 231.524C197.092 231.334 197.319 231.183 197.569 231.081C197.818 230.978 198.086 230.926 198.356 230.927H202.435C202.705 230.926 202.973 230.978 203.223 231.081C203.472 231.183 203.699 231.334 203.891 231.524C204.082 231.715 204.234 231.941 204.338 232.19C204.442 232.439 204.496 232.706 204.497 232.976C204.495 233.522 204.278 234.046 203.891 234.432C203.505 234.818 202.982 235.036 202.435 235.038H198.362C197.814 235.038 197.289 234.821 196.902 234.434C196.514 234.048 196.296 233.523 196.294 232.976Z" fill="#455A64"/>
<path d="M196.294 232.976C196.295 232.706 196.349 232.439 196.453 232.19C196.557 231.941 196.709 231.715 196.9 231.524C197.092 231.334 197.319 231.183 197.569 231.081C197.818 230.978 198.086 230.926 198.356 230.927H200.392V235.044H198.356C197.808 235.042 197.284 234.824 196.897 234.436C196.511 234.048 196.294 233.523 196.294 232.976Z" fill="#BA68C8"/>
<path d="M224.253 232.976C224.253 233.521 224.036 234.044 223.651 234.43C223.265 234.815 222.742 235.032 222.197 235.032H218.117C217.847 235.033 217.579 234.98 217.329 234.877C217.079 234.774 216.851 234.623 216.66 234.432C216.468 234.241 216.316 234.014 216.213 233.764C216.109 233.515 216.056 233.247 216.056 232.976C216.056 232.431 216.272 231.908 216.658 231.523C217.043 231.137 217.566 230.921 218.111 230.921H222.191C222.461 230.92 222.729 230.973 222.98 231.076C223.23 231.179 223.457 231.33 223.648 231.521C223.84 231.712 223.992 231.939 224.096 232.188C224.199 232.438 224.253 232.706 224.253 232.976Z" fill="#455A64"/>
<path d="M224.253 232.976C224.253 233.521 224.036 234.044 223.651 234.429C223.265 234.815 222.742 235.031 222.197 235.031H220.154V230.914H222.197C222.468 230.914 222.736 230.967 222.985 231.071C223.235 231.175 223.462 231.327 223.653 231.518C223.844 231.71 223.995 231.937 224.098 232.187C224.201 232.437 224.254 232.705 224.253 232.976Z" fill="#BA68C8"/>
<path d="M223.091 227.986L223.086 227.99C222.284 228.793 222.284 230.094 223.086 230.897L225.971 233.782C226.774 234.584 228.075 234.584 228.878 233.782L228.882 233.777C229.685 232.975 229.685 231.673 228.882 230.871L225.997 227.986C225.195 227.183 223.893 227.183 223.091 227.986Z" fill="#455A64"/>
<path d="M228.878 233.787C228.492 234.172 227.97 234.388 227.426 234.388C226.882 234.388 226.359 234.172 225.974 233.787L224.525 232.357L227.435 229.447L228.878 230.89C229.259 231.276 229.473 231.796 229.473 232.339C229.473 232.881 229.259 233.401 228.878 233.787Z" fill="#BA68C8"/>
<path d="M202.045 235.88C202.047 235.334 202.265 234.811 202.651 234.426C203.038 234.041 203.561 233.824 204.107 233.824H208.181C208.726 233.824 209.249 234.041 209.634 234.426C210.02 234.812 210.236 235.335 210.236 235.88C210.236 236.425 210.02 236.948 209.634 237.333C209.249 237.719 208.726 237.935 208.181 237.935H204.107C203.561 237.935 203.038 237.719 202.651 237.333C202.265 236.948 202.047 236.425 202.045 235.88Z" fill="#455A64"/>
<path d="M202.045 235.88C202.047 235.334 202.265 234.811 202.651 234.426C203.038 234.041 203.561 233.824 204.107 233.824H206.15V237.929H204.107C203.562 237.929 203.04 237.713 202.654 237.329C202.267 236.945 202.049 236.424 202.045 235.88Z" fill="#BA68C8"/>
<path d="M79.5488 213.45V233.522H61.4399V213.45C61.4399 211.03 66.1266 207.792 66.1266 206.349V203.569H74.8498V206.355C74.8498 207.792 79.5488 211.03 79.5488 213.45Z" fill="#C7C7C7"/>
<path d="M78.8307 198.195H62.1582V203.569H78.8307V198.195Z" fill="#BA68C8"/>
<path d="M77.3448 215.809H61.4399V225.751H77.3448V215.809Z" fill="#455A64"/>
<path d="M62.1582 218.998C62.1582 218.806 62.2449 218.657 62.3563 218.657C62.4678 218.657 62.5544 218.806 62.5544 218.998V222.626C62.5544 222.818 62.4616 222.966 62.3563 222.966C62.2511 222.966 62.1582 222.818 62.1582 222.626V218.998Z" fill="white"/>
<path d="M63.6134 222.625C63.6134 222.811 63.5267 222.966 63.4215 222.966C63.3163 222.966 63.2296 222.811 63.2296 222.625V219.053C63.2228 218.952 63.2489 218.853 63.3039 218.768C63.3967 218.663 63.5144 218.694 63.5763 218.842L64.734 221.591V219.059C64.734 218.88 64.8145 218.725 64.9259 218.725C65.0374 218.725 65.1178 218.88 65.1178 219.059V222.631C65.1178 222.817 65.0312 222.972 64.9259 222.972C64.8207 222.972 64.8145 222.922 64.7773 222.848V222.811L63.632 220.081L63.6134 222.625Z" fill="white"/>
<path d="M65.8978 221.895C65.9597 221.759 66.0773 221.74 66.1578 221.852C66.23 221.975 66.3284 222.081 66.4461 222.162C66.5637 222.244 66.6978 222.298 66.8388 222.322C66.925 222.32 67.0097 222.299 67.0868 222.261C67.1639 222.222 67.2314 222.167 67.2846 222.099C67.3845 221.972 67.439 221.815 67.4393 221.653C67.45 221.588 67.45 221.521 67.4393 221.455C67.4134 221.387 67.3757 221.325 67.3279 221.27C67.1913 221.135 67.0231 221.037 66.8388 220.985C66.6726 220.933 66.5173 220.851 66.3807 220.743C66.2292 220.617 66.1138 220.452 66.0464 220.267C65.9688 220.033 65.9468 219.784 65.9823 219.54C66.0178 219.296 66.1097 219.064 66.2507 218.861C66.3218 218.763 66.4146 218.682 66.522 218.625C66.6293 218.568 66.7483 218.537 66.8698 218.533C67.0267 218.558 67.1769 218.615 67.3111 218.7C67.4452 218.785 67.5605 218.897 67.6498 219.028C67.6915 219.092 67.7177 219.164 67.7263 219.239C67.7349 219.315 67.7257 219.391 67.6994 219.462C67.6437 219.61 67.5322 219.654 67.4455 219.555C67.2598 219.35 67.0865 219.165 66.8698 219.165C66.7919 219.168 66.7156 219.187 66.6461 219.223C66.5767 219.258 66.5157 219.308 66.4674 219.369C66.3786 219.48 66.3306 219.617 66.3312 219.759C66.3203 219.816 66.3203 219.875 66.3312 219.932C66.3539 219.992 66.3875 220.046 66.4302 220.093C66.5519 220.221 66.706 220.313 66.876 220.36C67.0557 220.415 67.2237 220.503 67.3712 220.62C67.5325 220.756 67.6543 220.934 67.7241 221.133C67.7841 221.3 67.8134 221.476 67.8108 221.653C67.82 221.996 67.7131 222.332 67.5075 222.607C67.4312 222.712 67.3319 222.799 67.2171 222.86C67.1023 222.921 66.975 222.955 66.845 222.96C66.6564 222.93 66.4767 222.858 66.3185 222.751C66.1602 222.645 66.0272 222.504 65.9287 222.341C65.8899 222.274 65.8669 222.199 65.8616 222.121C65.8562 222.044 65.8686 221.967 65.8978 221.895Z" fill="white"/>
<path d="M69.3894 222.966C68.8136 222.966 68.3555 222.161 68.3555 221.189V218.998C68.3555 218.806 68.4421 218.657 68.5536 218.657C68.665 218.657 68.7517 218.806 68.7517 218.998V221.214C68.7517 221.833 69.0427 222.304 69.3708 222.304C69.6989 222.304 69.9899 221.815 69.9899 221.214V219.022C69.9899 218.831 70.0766 218.682 70.188 218.682C70.2995 218.682 70.3861 218.831 70.3861 219.022V221.214C70.4233 222.161 69.9466 222.966 69.3894 222.966Z" fill="white"/>
<path d="M71.0981 222.626V218.998C71.0981 218.812 71.1786 218.657 71.2901 218.657C71.4015 218.657 71.4944 218.812 71.4944 218.998V222.279H72.4602C72.5654 222.279 72.6583 222.434 72.6583 222.626C72.6583 222.818 72.5654 222.966 72.4602 222.966H71.2901C71.1848 222.966 71.0981 222.811 71.0981 222.626Z" fill="white"/>
<path d="M73.1475 218.998C73.1475 218.806 73.2341 218.657 73.3456 218.657C73.457 218.657 73.5437 218.806 73.5437 218.998V222.626C73.5437 222.818 73.4508 222.966 73.3456 222.966C73.2403 222.966 73.1475 222.818 73.1475 222.626V218.998Z" fill="white"/>
<path d="M74.6025 222.625C74.6025 222.811 74.5158 222.965 74.4106 222.965C74.3053 222.965 74.2125 222.811 74.2125 222.625V219.053C74.1972 218.943 74.2213 218.831 74.2806 218.737C74.3673 218.632 74.4911 218.663 74.553 218.811L75.7045 221.56V219.028C75.7045 218.848 75.7912 218.694 75.8964 218.694C76.0017 218.694 76.0946 218.848 76.0946 219.028V222.6C76.0946 222.786 76.0079 222.941 75.8964 222.941C75.8633 222.936 75.8322 222.922 75.8069 222.9C75.7817 222.878 75.7633 222.849 75.7541 222.817C75.7498 222.805 75.7498 222.792 75.7541 222.78L74.6087 220.049L74.6025 222.625Z" fill="white"/>
<path opacity="0.3" d="M66.127 203.569V205.458L71.476 208.943L75.1907 214.137V233.522H77.7476V214.168L74.0329 208.956V203.569H66.127Z" fill="white"/>
<path d="M46.2656 236.667V231.968H45.2689V236.667H46.2656Z" fill="#BA68C8"/>
<path opacity="0.1" d="M46.2656 236.667V231.968H45.2689V236.667H46.2656Z" fill="black"/>
<path d="M39.4927 235.844V232.965H38.4959V235.844H39.4927Z" fill="#BA68C8"/>
<path opacity="0.1" d="M39.4927 235.844V232.965H38.4959V235.844H39.4927Z" fill="black"/>
<path d="M45.269 235.168V233.639H39.4928V235.168H45.269Z" fill="#BA68C8"/>
<path opacity="0.2" d="M44.3403 235.162L44.6561 233.639H45.269V235.162H44.3403Z" fill="black"/>
<path d="M67.4702 234.215C68.467 234.177 69.4699 234.165 70.4729 234.146H73.4755H76.4844H77.9826L79.4871 234.19L77.9826 234.227H76.4844H73.4755H70.4729C69.439 234.289 68.436 234.27 67.4702 234.215Z" fill="#263238"/>
<path d="M66.7461 235.355V233.293H46.2661V235.355H66.7461Z" fill="#BA68C8"/>
<path opacity="0.4" d="M66.7461 235.355V233.293H46.2661V235.355H66.7461Z" fill="white"/>
<path d="M64.6348 233.757V233.373H64.5171V233.757H64.6348Z" fill="#263238"/>
<path d="M64.2324 233.757V233.373H64.1148V233.757H64.2324Z" fill="#263238"/>
<path d="M63.8301 233.757V233.373H63.7124V233.757H63.8301Z" fill="#263238"/>
<path d="M63.4272 233.757V233.373H63.3096V233.757H63.4272Z" fill="#263238"/>
<path d="M63.019 234.035V233.373H62.9014V234.035H63.019Z" fill="#263238"/>
<path d="M62.6378 233.76L62.6377 233.376L62.5201 233.376L62.5201 233.76L62.6378 233.76Z" fill="#263238"/>
<path d="M62.2388 233.757V233.373H62.1211V233.757H62.2388Z" fill="#263238"/>
<path d="M61.8364 233.757V233.373H61.7188V233.757H61.8364Z" fill="#263238"/>
<path d="M61.4341 233.757V233.373H61.3165V233.757H61.4341Z" fill="#263238"/>
<path d="M61.0254 234.035V233.373H60.9078V234.035H61.0254Z" fill="#263238"/>
<path d="M60.6475 233.757V233.373H60.5298V233.757H60.6475Z" fill="#263238"/>
<path d="M60.2451 233.757V233.373H60.1275V233.757H60.2451Z" fill="#263238"/>
<path d="M59.8364 233.757V233.373H59.7188V233.757H59.8364Z" fill="#263238"/>
<path d="M59.4341 233.757V233.373H59.3165V233.757H59.4341Z" fill="#263238"/>
<path d="M59.0402 234.057L59.04 233.395L58.9224 233.395L58.9225 234.057L59.0402 234.057Z" fill="#263238"/>
<path d="M58.6479 233.757V233.373H58.5303V233.757H58.6479Z" fill="#263238"/>
<path d="M58.2456 233.757V233.373H58.128V233.757H58.2456Z" fill="#263238"/>
<path d="M57.8433 233.757V233.373H57.7256V233.757H57.8433Z" fill="#263238"/>
<path d="M57.4404 233.751V233.367H57.3228V233.751H57.4404Z" fill="#263238"/>
<path d="M57.0381 234.035V233.373H56.9205V234.035H57.0381Z" fill="#263238"/>
<path d="M56.6543 233.757V233.373H56.5367V233.757H56.6543Z" fill="#263238"/>
<path d="M56.254 233.754L56.2539 233.37L56.1363 233.37L56.1363 233.754L56.254 233.754Z" fill="#263238"/>
<path d="M55.8481 233.747L55.8481 233.363L55.7305 233.363L55.7304 233.747L55.8481 233.747Z" fill="#263238"/>
<path d="M55.4473 233.757V233.373H55.3296V233.757H55.4473Z" fill="#263238"/>
<path d="M55.0449 234.035V233.373H54.9273V234.035H55.0449Z" fill="#263238"/>
<path d="M54.6611 233.757V233.373H54.5435V233.757H54.6611Z" fill="#263238"/>
<path d="M54.2583 233.757V233.373H54.1407V233.757H54.2583Z" fill="#263238"/>
<path d="M53.856 233.757V233.373H53.7383V233.757H53.856Z" fill="#263238"/>
<path d="M53.4536 233.757V233.373H53.336V233.757H53.4536Z" fill="#263238"/>
<path d="M53.0513 234.035V233.373H52.9336V234.035H53.0513Z" fill="#263238"/>
<path d="M52.6685 233.76L52.6685 233.376L52.5508 233.376L52.5509 233.76L52.6685 233.76Z" fill="#263238"/>
<path d="M52.2651 233.757V233.373H52.1475V233.757H52.2651Z" fill="#263238"/>
<path d="M51.8623 233.757V233.373H51.7447V233.757H51.8623Z" fill="#263238"/>
<path d="M51.46 233.757V233.373H51.3423V233.757H51.46Z" fill="#263238"/>
<path d="M51.0518 234.035V233.373H50.9341V234.035H51.0518Z" fill="#263238"/>
<path d="M50.6738 233.757V233.373H50.5562V233.757H50.6738Z" fill="#263238"/>
<path d="M50.2715 233.757V233.373H50.1539V233.757H50.2715Z" fill="#263238"/>
<path d="M49.8691 233.757V233.373H49.7515V233.757H49.8691Z" fill="#263238"/>
<path d="M49.4668 233.757V233.373H49.3492V233.757H49.4668Z" fill="#263238"/>
<path d="M49.0646 234.057L49.0645 233.395L48.9468 233.395L48.9469 234.057L49.0646 234.057Z" fill="#263238"/>
<path d="M48.6802 233.757V233.373H48.5625V233.757H48.6802Z" fill="#263238"/>
<path d="M48.2778 233.757V233.373H48.1602V233.757H48.2778Z" fill="#263238"/>
<path d="M47.8755 233.757V233.373H47.7579V233.757H47.8755Z" fill="#263238"/>
<path d="M47.4731 233.757V233.373H47.3555V233.757H47.4731Z" fill="#263238"/>
<path d="M47.0645 234.035V233.373H46.9468V234.035H47.0645Z" fill="#263238"/>
<path d="M66.7461 235.355V233.293H65.2045V235.355H66.7461Z" fill="#263238"/>
<path d="M68.5103 235.013V233.62H66.7396V235.013H68.5103Z" fill="#BA68C8"/>
<path d="M70.6339 234.5V234.141L68.5166 234.079V234.568L70.6339 234.5Z" fill="#BA68C8"/>
<path opacity="0.1" d="M68.5166 234.568V234.079L69.1171 234.098L69.0243 234.55L68.5166 234.568Z" fill="black"/>
</svg>
