<svg width="251" height="235" viewBox="0 0 251 235" fill="none" xmlns="http://www.w3.org/2000/svg">
<path d="M106.127 1.98047H74.0742V91.417H106.127V1.98047Z" stroke="#263238" stroke-miterlimit="10"/>
<path d="M98.3723 14.9043H81.8291V78.4921H98.3723V14.9043Z" stroke="#263238" stroke-miterlimit="10"/>
<path d="M143.142 1.98047H111.09V91.417H143.142V1.98047Z" stroke="#263238" stroke-miterlimit="10"/>
<path d="M135.388 14.9043H118.845V78.4921H135.388V14.9043Z" stroke="#263238" stroke-miterlimit="10"/>
<path d="M180.158 1.98047H148.105V91.417H180.158V1.98047Z" stroke="#263238" stroke-miterlimit="10"/>
<path d="M172.403 14.9043H155.859V78.4921H172.403V14.9043Z" stroke="#263238" stroke-miterlimit="10"/>
<path d="M24.8267 144.046H20.8977V164.156H24.8267V144.046Z" fill="white" stroke="#263238" stroke-miterlimit="10"/>
<path d="M35.9575 113.275H9.76758V146.01H35.9575V113.275Z" fill="#263238"/>
<path d="M37.2599 162.378H8.4541V216.066H37.2599V162.378Z" fill="white" stroke="#263238" stroke-miterlimit="10"/>
<path d="M24.6971 181.444C24.6971 182.023 23.5494 182.478 22.1122 182.478C20.675 182.478 19.5273 182.008 19.5273 181.444C19.5273 180.881 20.675 180.41 22.1122 180.41C23.5494 180.41 24.6971 180.855 24.6971 181.444Z" fill="#263238"/>
<path d="M24.6971 200.024C24.6971 200.603 23.5494 201.058 22.1122 201.058C20.675 201.058 19.5273 200.588 19.5273 200.024C19.5273 199.461 20.675 198.99 22.1122 198.99C23.5494 198.99 24.6971 199.466 24.6971 200.024Z" fill="#263238"/>
<path d="M37.2599 162.378H8.4541V170.236H37.2599V162.378Z" fill="#263238" stroke="#263238" stroke-miterlimit="10"/>
<path d="M12.3828 182.684V175.473H27.7938" stroke="#263238" stroke-miterlimit="10"/>
<path d="M29.1328 175.473H32.0278V187.911H12.3828V184.323" stroke="#263238" stroke-miterlimit="10"/>
<path d="M12.3828 203.064V193.805H32.0278V198.152" stroke="#263238" stroke-miterlimit="10"/>
<path d="M32.0278 199.941V206.243H12.3828V204.403" stroke="#263238" stroke-miterlimit="10"/>
<path d="M232.992 144.046H229.062V164.156H232.992V144.046Z" fill="white" stroke="#263238" stroke-miterlimit="10"/>
<path d="M244.123 113.275H217.933V146.01H244.123V113.275Z" fill="#263238"/>
<path d="M245.43 162.378H216.624V216.066H245.43V162.378Z" fill="white" stroke="#263238" stroke-miterlimit="10"/>
<path d="M232.862 181.444C232.862 182.023 231.714 182.478 230.277 182.478C228.84 182.478 227.692 182.008 227.692 181.444C227.692 180.881 228.84 180.41 230.277 180.41C231.714 180.41 232.862 180.855 232.862 181.444Z" fill="#263238"/>
<path d="M232.862 200.024C232.862 200.603 231.714 201.058 230.277 201.058C228.84 201.058 227.692 200.588 227.692 200.024C227.692 199.461 228.84 198.99 230.277 198.99C231.714 198.99 232.862 199.466 232.862 200.024Z" fill="#263238"/>
<path d="M245.43 162.378H216.624V170.236H245.43V162.378Z" fill="#263238" stroke="#263238" stroke-miterlimit="10"/>
<path d="M224.715 175.473H240.193V187.911H237.655" stroke="#263238" stroke-miterlimit="10"/>
<path d="M235.871 187.911H220.553V175.473H223.375" stroke="#263238" stroke-miterlimit="10"/>
<path d="M237.505 193.805H240.193V206.243H225.165" stroke="#263238" stroke-miterlimit="10"/>
<path d="M223.675 206.243H220.553V193.805H236.315" stroke="#263238" stroke-miterlimit="10"/>
<path d="M215.306 104.729H38.9248V169.779H215.306V104.729Z" fill="white" stroke="#263238" stroke-miterlimit="10"/>
<path d="M96.1545 162.082L88.5395 160.324H55.1481L45.7754 162.082L48.1173 155.051V135.716L45.7754 128.69L55.4428 130.738H90.0026L96.1545 128.69L93.8126 136.89V153.293L96.1545 162.082Z" fill="#9955B9" stroke="#263238" stroke-miterlimit="10"/>
<path d="M150.049 162.082L142.434 160.324H109.043L99.6699 162.082L102.012 155.051V135.716L99.6699 128.69L109.332 130.738H143.897L150.049 128.69L147.707 136.89V153.293L150.049 162.082Z" fill="#9955B9" stroke="#263238" stroke-miterlimit="10"/>
<path d="M203.944 162.082L196.329 160.324H162.937L153.564 162.082L155.906 155.051V135.716L153.564 128.69L163.227 130.738H197.792L203.944 128.69L201.597 136.89V153.293L203.944 162.082Z" fill="#9955B9" stroke="#263238" stroke-miterlimit="10"/>
<path d="M40.9781 159.771H213.249C213.798 159.771 214.324 159.989 214.712 160.377C215.099 160.765 215.317 161.291 215.317 161.839V216.065H38.9102V161.829C38.9129 161.282 39.132 160.759 39.5195 160.373C39.907 159.988 40.4314 159.771 40.9781 159.771Z" fill="white" stroke="#263238" stroke-miterlimit="10"/>
<path d="M1 216.064H250.182" stroke="#263238" stroke-linecap="round" stroke-linejoin="round"/>
<path d="M83.5507 223.468C84.9207 222.951 91.7448 217.854 91.7448 217.854C91.7448 217.854 91.3571 215.869 91.507 215.269C91.6569 214.669 93.3267 213.077 93.3267 213.077C93.3267 213.077 94.6243 193.101 93.9833 186.075C93.3422 179.05 94.9345 168.793 95.1361 167.981C95.3378 167.17 99.7475 116.093 99.7475 116.093L101.562 101.757L119.511 102.636L137.466 101.757L139.281 116.072C139.281 116.072 144.207 167.671 144.409 168.478C144.611 169.284 145.071 183.496 144.518 190.532C143.964 197.568 143.908 210.838 143.908 210.838C143.908 210.838 145.603 212.389 145.758 213.005C145.913 213.62 145.551 215.589 145.551 215.589C145.551 215.589 152.443 220.583 153.823 221.095C155.203 221.607 154.5 222.765 152.83 223.442C151.161 224.12 147.511 224.238 145.898 224.114C144.285 223.99 142.103 220.981 141.529 220.532C140.956 220.082 140.971 222.512 140.971 222.512C140.215 222.455 139.475 222.261 138.789 221.938C138.019 221.473 136.546 222.165 136.535 219.736C136.525 217.306 136.711 214.897 136.711 214.897C136.711 214.897 135.419 213.382 135.109 212.141C134.798 210.9 134.266 207.426 134.266 207.426L125.57 158.624L119.511 130.614L113.458 158.624L102.927 209.546C102.927 209.546 102.41 213.036 102.146 214.276C101.883 215.517 100.595 217.052 100.595 217.052C100.595 217.052 100.818 219.462 100.833 221.891C100.849 224.321 99.3753 223.644 98.6102 224.12C97.9296 224.451 97.1934 224.655 96.4389 224.719C96.4389 224.719 96.4389 222.295 95.8547 222.75C95.2706 223.204 93.1354 226.239 91.5277 226.368C89.9199 226.498 86.27 226.441 84.5899 225.789C82.9097 225.138 82.1859 223.995 83.5507 223.468Z" fill="#263238" stroke="#263238" stroke-linecap="round" stroke-linejoin="round"/>
<path d="M94.8571 54.1953C94.8571 54.1953 82.1809 88.0365 81.8603 89.3186C81.5398 90.6007 81.2193 91.3865 81.3795 92.8495C81.5398 94.3125 83.7886 95.2534 84.2694 95.2534C84.7502 95.2534 88.276 93.0098 89.7235 92.3687C91.171 91.7277 95.4981 89.6391 95.4981 89.6391L97.7418 82.4014L94.8571 54.1953Z" fill="white" stroke="#263238" stroke-linecap="round" stroke-linejoin="round"/>
<path d="M94.1495 65.1494L93.9375 64.3223" stroke="#263238" stroke-linecap="round" stroke-linejoin="round"/>
<path d="M97.1733 77.0505L94.4902 66.499" stroke="#263238" stroke-linecap="round" stroke-linejoin="round"/>
<path d="M89.4082 83.0889L94.5831 86.3251" stroke="#263238" stroke-linecap="round" stroke-linejoin="round"/>
<path d="M146.183 56.4132L128.058 46.7871L112.807 47.0146L94.8574 54.1954L99.3448 99.2652V100.852C99.3189 101.762 99.2879 102.781 99.2879 103.101C99.2879 103.711 98.0161 114.738 98.0161 114.738C98.0161 114.738 98.1299 114.278 103.377 119.029C108.624 123.78 118.69 127.451 118.69 127.451L121.709 121.324L124.253 127.146C124.253 127.146 128.864 125.155 131.252 123.315C133.641 121.474 139.524 113.973 139.524 113.973V91.7535L146.183 56.4132Z" fill="white" stroke="#263238" stroke-linecap="round" stroke-linejoin="round"/>
<path d="M122.05 62.4258L121.709 121.299" stroke="#263238" stroke-linecap="round" stroke-linejoin="round"/>
<path d="M127.411 55.6377L122.05 62.4256L128.46 57.9072L127.411 55.6377Z" fill="white" stroke="#263238" stroke-linecap="round" stroke-linejoin="round"/>
<path d="M115.811 54.5986L115.997 55.1415L122.051 62.4256L113.645 57.9279L115.811 54.5986Z" fill="white" stroke="#263238" stroke-linecap="round" stroke-linejoin="round"/>
<path d="M113.778 39.4717V47.1281L115.67 56.0459L122.05 62.4253L127.411 55.6375L128.429 41.3018L113.778 39.4717Z" fill="#BDBDBD" stroke="#263238" stroke-linecap="round" stroke-linejoin="round"/>
<path d="M128.104 44.0576L130.415 47.9039L130.182 62.1827L127.411 55.6378L128.104 44.0576Z" fill="white" stroke="#263238" stroke-linecap="round" stroke-linejoin="round"/>
<path d="M115.484 55.5034L112.656 61.1642L110.614 48.1261L113.421 42.915L115.484 55.5034Z" fill="white" stroke="#263238" stroke-linecap="round" stroke-linejoin="round"/>
<path d="M132.808 28.1291C132.808 28.1291 135.068 26.1698 135.326 29.3802C135.585 32.5906 131.966 34.2759 131.966 34.2759L132.808 28.1291Z" fill="#BDBDBD" stroke="#263238" stroke-linecap="round" stroke-linejoin="round"/>
<path d="M112.243 26.1701C112.243 26.1701 110.847 24.0712 109.865 25.7514C108.883 27.4315 109.725 29.9492 110.428 31.4846C111.131 33.02 112.103 33.1648 112.103 33.1648L112.243 26.1701Z" fill="#BDBDBD" stroke="#263238" stroke-linecap="round" stroke-linejoin="round"/>
<path d="M133.367 23.2339C133.367 23.2339 131.966 33.8629 131.407 37.2233C130.849 40.5836 128.75 42.6773 127.489 43.794C126.227 44.9107 123.87 47.0148 121.616 47.0148C119.362 47.0148 117.139 45.7533 116.581 45.0554C116.022 44.3575 112.383 38.7587 112.104 37.2233C111.824 35.6878 112.104 30.6474 112.104 29.5307C112.104 28.414 112.383 23.0944 112.383 23.0944C112.383 23.0944 112.383 19.1757 113.784 16.658C115.185 14.1404 119.796 14.0008 126.372 15.2622C132.948 16.5236 133.646 17.7799 133.646 19.0361C133.646 20.2924 133.367 23.2339 133.367 23.2339Z" fill="#BDBDBD" stroke="#263238" stroke-linecap="round" stroke-linejoin="round"/>
<path d="M121.941 27.0752C121.086 26.792 120.183 26.6835 119.285 26.7564C118.387 26.8292 117.513 27.0818 116.715 27.4991" fill="white"/>
<path d="M121.941 27.0752C121.086 26.792 120.183 26.6835 119.285 26.7564C118.387 26.8292 117.513 27.0818 116.715 27.4991" stroke="#263238" stroke-width="2" stroke-linecap="round" stroke-linejoin="round"/>
<path d="M126.439 27.6953C126.439 27.6953 129.138 27.7574 130.549 29.1067L126.439 27.6953Z" fill="white"/>
<path d="M126.439 27.6953C126.439 27.6953 129.138 27.7574 130.549 29.1067" stroke="#263238" stroke-width="2" stroke-linecap="round" stroke-linejoin="round"/>
<path d="M115.743 18.338C115.743 18.338 118.261 23.0941 122.598 25.4722C126.936 27.8503 133.367 27.5711 136.164 25.7514C138.96 23.9316 140.222 21.2744 139.379 21.1348C138.537 20.9952 136.722 20.8556 136.722 20.8556C136.722 20.8556 137.28 18.1984 136.582 16.9422C135.884 15.6859 134.902 15.9599 134.902 15.9599C134.902 15.9599 131.283 10.5058 125.814 9.8079C120.344 9.10999 116.581 11.0642 115.185 11.6225C113.789 12.1808 112.807 14.2797 112.807 14.2797C112.807 14.2797 111.256 15.6807 111.127 17.3816C110.997 19.0824 112.243 24.3762 112.243 24.3762C112.243 24.3762 112.104 35.1448 112.104 37.2437C112.104 39.3427 115.722 45.0759 118.54 46.4717C119.436 46.9763 120.448 47.2414 121.476 47.2414C122.505 47.2414 123.516 46.9763 124.413 46.4717C125.535 45.9134 130.012 41.4364 131.134 39.7511C132.255 38.0657 132.25 31.4795 132.25 31.4795C132.25 31.4795 130.57 37.6521 130.151 38.3397C129.732 39.0273 129.309 37.3626 128.6 36.7888C127.892 36.215 125.385 36.5045 124.263 36.6492C123.141 36.794 122.304 36.9284 121.745 36.6492C121.187 36.3701 118.39 34.8295 117.129 34.8295C116.031 34.9199 114.95 35.1545 113.913 35.5274C113.913 35.5274 113.913 30.4921 113.634 28.114C113.355 25.7359 113.494 23.4974 113.913 22.9442C114.535 22.3073 115.013 21.5438 115.314 20.7057C115.57 19.9412 115.715 19.1438 115.743 18.338Z" fill="#263238" stroke="#263238" stroke-linecap="round" stroke-linejoin="round"/>
<path d="M125.245 30.3682C125.245 30.3682 124.681 35.8222 124.263 36.6649C124.147 36.9038 123.969 37.1075 123.748 37.2547C123.528 37.402 123.271 37.4875 123.006 37.5024L121.187 35.6827" fill="#BDBDBD"/>
<path d="M125.245 30.3682C125.245 30.3682 124.681 35.8222 124.263 36.6649C124.147 36.9038 123.969 37.1075 123.748 37.2547C123.528 37.402 123.271 37.4875 123.006 37.5024L121.187 35.6827" stroke="#263238" stroke-linecap="round" stroke-linejoin="round"/>
<path d="M123.994 40.1601C122.614 39.8666 121.206 39.7261 119.796 39.7413" stroke="#858585" stroke-linecap="round" stroke-linejoin="round"/>
<path d="M121.218 30.7251C121.218 30.8766 121.173 31.0248 121.088 31.1507C121.004 31.2766 120.884 31.3747 120.744 31.4325C120.604 31.4902 120.45 31.5051 120.301 31.4751C120.153 31.4452 120.017 31.3718 119.91 31.2643C119.803 31.1567 119.731 31.0199 119.702 30.8712C119.673 30.7224 119.689 30.5684 119.747 30.4287C119.806 30.289 119.905 30.1698 120.031 30.0864C120.158 30.003 120.306 29.959 120.458 29.96C120.558 29.96 120.657 29.9798 120.75 30.0183C120.842 30.0568 120.926 30.1133 120.997 30.1844C121.068 30.2555 121.124 30.3399 121.161 30.4327C121.199 30.5255 121.218 30.6249 121.218 30.7251Z" fill="#263238"/>
<path d="M129.298 31.7892C129.299 31.9408 129.255 32.0892 129.171 32.2157C129.088 32.3422 128.969 32.4411 128.829 32.4998C128.689 32.5585 128.535 32.5744 128.387 32.5455C128.238 32.5165 128.101 32.4441 127.994 32.3373C127.886 32.2305 127.813 32.0942 127.783 31.9456C127.753 31.797 127.768 31.6429 127.825 31.5028C127.883 31.3627 127.981 31.2429 128.107 31.1586C128.233 31.0743 128.381 31.0293 128.533 31.0293C128.735 31.0293 128.929 31.1092 129.072 31.2516C129.215 31.3939 129.296 31.5872 129.298 31.7892Z" fill="#263238"/>
<path d="M123.839 212.446C123.839 212.446 123.363 216.696 122.934 217.564C121.814 220.036 121.084 222.666 120.768 225.36C120.333 229.114 122.065 233.012 123.079 233.446C124.092 233.88 126.108 235.033 128.853 229.548C131.598 224.063 129.427 219.296 129.572 217.849C129.801 216.463 130.138 215.098 130.58 213.765C130.58 213.765 124.888 213.392 123.839 212.446Z" fill="white" stroke="#263238" stroke-linecap="round" stroke-linejoin="round"/>
<path d="M126.977 215.543C125.778 215.62 124.603 215.913 123.508 216.406H123.26C123.192 216.811 123.082 217.208 122.934 217.59C121.814 220.062 121.084 222.691 120.768 225.386C120.333 229.139 122.065 233.037 123.079 233.472C124.092 233.906 126.108 235.059 128.853 229.574C131.598 224.089 129.427 219.322 129.572 217.875C129.572 217.849 128.564 215.543 126.977 215.543Z" fill="#9955B9" stroke="#263238" stroke-linecap="round" stroke-linejoin="round"/>
<path d="M123.079 233.446C124.087 233.875 126.108 235.033 128.853 229.548C129.416 228.42 129.813 227.217 130.032 225.976C129.313 227.754 128.259 230.08 127.406 230.845C125.963 232.143 124.821 232.722 123.218 231.854C121.616 230.985 120.768 225.36 120.768 225.36C120.333 229.114 122.065 233.012 123.079 233.446Z" fill="white" stroke="#263238" stroke-linecap="round" stroke-linejoin="round"/>
<path d="M144.777 212.079C144.777 212.079 143.856 221.467 143.856 222.594C143.907 223.213 144.151 223.8 144.555 224.272C144.959 224.744 145.502 225.076 146.105 225.221C147.424 225.598 149.678 224.848 151.74 225.598C153.803 226.348 154.93 226.725 160.012 227.288C165.094 227.852 168.087 226.911 167.896 225.784C167.704 224.657 161.692 221.281 159.448 220.154C157.597 219.118 155.838 217.925 154.191 216.587L152.852 213.94L144.777 212.079Z" fill="white" stroke="#263238" stroke-linecap="round" stroke-linejoin="round"/>
<path d="M159.422 220.144C157.571 219.108 155.812 217.915 154.165 216.577L153.694 215.631C153.119 215.846 152.65 216.276 152.386 216.83C152.107 217.49 151.866 218.165 151.663 218.852C149.17 218.428 146.707 217.852 144.285 217.125C144.058 219.544 143.841 222.036 143.841 222.584C143.891 223.203 144.136 223.79 144.54 224.262C144.943 224.733 145.486 225.065 146.09 225.21C147.408 225.588 149.662 224.838 151.725 225.588C153.787 226.337 154.914 226.715 159.996 227.278C165.078 227.842 168.071 226.901 167.88 225.774C167.689 224.647 161.676 221.281 159.422 220.144Z" fill="#9955B9" stroke="#263238" stroke-linecap="round" stroke-linejoin="round"/>
<path d="M167.869 225.784C162.405 227.149 155.1 225.138 153.689 224.368C151.445 223.259 148.949 222.761 146.451 222.925C145.546 223.015 144.634 222.835 143.83 222.408C143.83 222.496 143.83 222.574 143.83 222.625C143.88 223.244 144.125 223.831 144.529 224.303C144.933 224.775 145.475 225.107 146.079 225.252C147.397 225.629 149.651 224.879 151.714 225.629C153.777 226.379 154.904 226.756 159.986 227.319C165.067 227.883 168.061 226.911 167.869 225.784Z" fill="white" stroke="#263238" stroke-linecap="round" stroke-linejoin="round"/>
<path d="M155.581 63.3979C156.303 62.805 156.966 62.1437 157.561 61.423C158.44 60.3219 159.319 59.1121 159.541 60.5442C159.763 61.9762 158.662 62.6121 158.662 63.2893C158.548 63.9802 158.324 64.6485 158 65.2693C158 65.2693 155.69 64.2819 155.581 63.3979Z" fill="#BDBDBD" stroke="#263238" stroke-linecap="round" stroke-linejoin="round"/>
<path d="M161.273 61.9501L158.688 64.1937L161.904 65.1036C161.904 65.1036 162.783 61.4693 161.273 61.9501Z" fill="#BDBDBD" stroke="#263238" stroke-linecap="round" stroke-linejoin="round"/>
<path d="M142.915 55.8754C142.915 55.8754 143.246 59.4942 141.602 61.1382C139.958 62.7822 137.327 66.0701 131.899 68.2104C126.47 70.3507 123.177 74.2952 122.686 77.7486C122.195 81.202 119.233 100.609 119.067 103.571C118.902 106.534 120.055 107.516 122.169 107.516C124.284 107.516 125.623 106.694 126.936 102.749C128.249 98.805 132.364 85.9736 132.364 84.8208C132.364 83.6679 133.848 98.3087 133.848 101.266C133.848 104.223 130.555 112.613 129.407 114.097C128.259 115.581 124.801 125.936 124.801 136.792C124.801 147.649 130.555 163.272 130.555 165.407C130.555 167.542 126.776 174.454 126.114 179.882C125.452 185.31 124.635 199.62 124.47 201.921C124.304 204.221 123.813 212.446 123.813 212.446C123.813 212.446 123.741 212.55 125.219 213.372C126.698 214.194 130.555 213.765 130.555 213.765C130.555 213.765 134.69 199.289 136.805 194.192C138.919 189.095 145.547 169.997 145.547 169.997C145.547 169.997 144.234 185.129 144.234 191.049C144.234 196.968 144.89 213.599 144.89 213.599C144.89 213.599 146.534 215.569 148.178 215.569C149.822 215.569 152.784 215.243 153.441 214.421C154.098 213.599 153.865 211.268 153.865 211.268C153.865 211.268 159.526 183.351 159.857 177.085C160.188 172.646 160.904 168.244 161.997 163.928C161.997 163.928 167.751 149.127 168.407 133.008C169.064 116.889 164.789 108.834 164.298 107.351C163.806 105.867 162.323 100.113 162.323 100.113C162.323 100.113 164.954 91.2313 164.954 86.7905V79.0669C164.954 79.0669 171.08 103.396 173.893 106.012C176.705 108.627 183.27 107.294 182.33 103.587C181.389 99.8803 175.919 81.6259 174.316 76.8542C172.714 72.0825 170.548 67.223 168.082 66.2356C165.616 65.2481 159.2 64.4262 157.391 63.935C155.581 63.4439 154.594 62.9476 153.772 61.9602C153.292 61.3877 152.851 60.7831 152.454 60.1508L150.81 55.71L142.915 55.8754Z" fill="white" stroke="#263238" stroke-linecap="round" stroke-linejoin="round"/>
<path d="M144.601 60.0889C144.601 60.0889 147.237 63.2476 149.341 64.3022C150.654 64.9263 152.135 65.1077 153.56 64.8192V60.9677L144.601 60.0889Z" fill="#263238" stroke="#263238" stroke-linecap="round" stroke-linejoin="round"/>
<path d="M144.89 213.599C144.89 213.599 146.534 215.568 148.178 215.568C149.822 215.568 152.784 215.243 153.44 214.421C154.097 213.599 153.864 211.267 153.864 211.267C153.864 211.267 159.525 183.35 159.856 177.085C160.187 172.645 160.904 168.243 161.996 163.928C161.996 163.928 167.75 149.127 168.407 133.007C168.769 124.219 167.652 117.803 166.489 113.564C161.23 114.789 155.881 115.588 150.494 115.952C140.309 116.712 133.434 113.962 130.383 112.375C130.118 112.976 129.8 113.552 129.432 114.097C128.279 115.575 124.826 125.935 124.826 136.792C124.826 147.648 130.58 163.271 130.58 165.406C130.58 167.541 126.801 174.453 126.139 179.882C125.477 185.31 124.66 199.62 124.495 201.92C124.33 204.221 123.838 212.446 123.838 212.446C123.838 212.446 123.766 212.549 125.245 213.371C126.723 214.193 130.58 213.764 130.58 213.764C130.58 213.764 134.716 199.289 136.83 194.191C138.944 189.094 145.546 169.997 145.546 169.997C145.546 169.997 144.233 185.129 144.233 191.048C144.233 196.968 144.89 213.599 144.89 213.599Z" stroke="#263238" stroke-linecap="round" stroke-linejoin="round"/>
<path d="M147.853 121.004L146.865 128.898L148.013 129.229L149.026 121.004L149.357 137.283C149.357 137.283 150.51 137.283 150.51 136.766C150.51 136.249 150.344 120.978 150.344 120.978C150.344 120.978 148.178 119.686 147.853 121.004Z" stroke="#263238" stroke-linecap="round" stroke-linejoin="round"/>
<path d="M137.818 120.839L136.996 126.924" stroke="#263238" stroke-linecap="round" stroke-linejoin="round"/>
<path d="M139.462 121.004V131.199" stroke="#263238" stroke-linecap="round" stroke-linejoin="round"/>
<path d="M160.844 120.348L160.513 129.064" stroke="#263238" stroke-linecap="round" stroke-linejoin="round"/>
<path d="M161.996 120.673L161.831 128.241" stroke="#263238" stroke-linecap="round" stroke-linejoin="round"/>
<path d="M149.052 143.244C149.165 142.112 149.233 141.414 149.233 141.414" stroke="#263238" stroke-linecap="round" stroke-linejoin="round"/>
<path d="M145.547 169.997C145.547 169.997 147.553 163.488 147.553 160.754C147.553 158.825 148.39 149.98 148.881 144.939" stroke="#263238" stroke-linecap="round" stroke-linejoin="round"/>
<path d="M153.771 61.9492C153.771 61.9492 153.544 65.2527 154.071 66.4314" stroke="#263238" stroke-linecap="round" stroke-linejoin="round"/>
<path d="M164.954 79.0666L165.016 75.7631L165.435 73.0283" stroke="#263238" stroke-linecap="round" stroke-linejoin="round"/>
<path d="M167.487 117.984C166.839 114.328 165.768 110.76 164.297 107.35C163.78 105.872 162.322 100.113 162.322 100.113C162.322 100.113 164.954 91.2309 164.954 86.7901V83.559C164.75 83.4144 164.582 83.2252 164.463 83.0059C163.946 82.0185 161.009 76.9211 161.009 76.9211L158.683 64.2087C158.373 64.1518 158.088 64.095 157.845 64.0381L160.022 77.0865C160.022 77.0865 156.191 80.3073 154.428 81.5273C152.856 82.675 151.372 83.9382 149.987 85.3064L137.983 78.2394L137.337 65.1444C136.991 65.4081 136.629 65.6614 136.241 65.9354C136.401 69.1406 136.758 77.1331 136.505 79.2216C136.251 81.3102 133.951 87.4002 132.979 89.9437C133.392 94.126 133.873 99.5801 133.873 101.26C133.873 104.223 130.58 112.608 129.432 114.092C129.001 114.756 128.654 115.472 128.398 116.221C131.531 117.731 140.02 121.329 149.646 121.329C155.751 121.357 161.806 120.222 167.487 117.984Z" fill="#9955B9" stroke="#263238" stroke-linecap="round" stroke-linejoin="round"/>
<path d="M145.511 100.351C149.026 98.734 152.28 96.6031 155.168 94.0283" stroke="#263238" stroke-linecap="round" stroke-linejoin="round"/>
<path d="M150.06 101.824C147.071 103.577 142.962 105.779 139.555 106.849" stroke="#263238" stroke-linecap="round" stroke-linejoin="round"/>
<path d="M154.118 99.2969C154.118 99.2969 153.337 99.8138 152.05 100.6" stroke="#263238" stroke-linecap="round" stroke-linejoin="round"/>
<path d="M146.208 27.8294C146.208 27.8294 139.265 28.8633 136.463 33.878C133.661 38.8926 135.28 47.9035 135.28 50.8554C135.28 53.8073 135.574 54.8413 134.69 56.4646C134.271 57.1667 133.925 57.9098 133.656 58.6824L136.169 59.2717L137.937 57.6484L137.792 59.2717C137.792 59.2717 137.203 59.5664 139.121 59.7163C141.039 59.8663 142.223 59.8611 143.107 59.8611C143.991 59.8611 147.537 60.895 150.639 60.895C153.741 60.895 154.625 61.1897 156.543 60.6004C158.461 60.011 162.302 59.2717 162.302 59.2717C162.302 59.2717 161.268 57.9431 161.268 56.9092C161.268 55.8752 163.041 51.1501 164.075 47.3141C165.109 43.4782 164.37 37.7139 163.041 34.762C161.712 31.8101 158.316 29.4475 156.693 28.5583C155.069 27.6691 150.934 24.5724 146.208 27.8294Z" fill="#263238" stroke="#263238" stroke-linecap="round" stroke-linejoin="round"/>
<path d="M140.936 40.0561L140.786 46.0788C140.786 46.0788 138.878 44.3159 138.439 46.3735C137.999 48.431 137.994 50.928 139.173 51.6621C139.551 51.8725 139.972 51.9947 140.405 52.0198C140.837 52.0448 141.269 51.9721 141.67 51.8069C141.67 51.8069 141.484 54.5469 143.738 58.1243C144.565 59.4478 148.876 62.3842 150.639 62.3842C152.402 62.3842 155.928 59.2823 157.546 56.5114C159.164 53.7404 159.159 46.8129 159.159 46.8129C159.159 46.8129 159.309 40.4955 156.662 36.6802C154.015 32.8649 148.287 33.444 145.351 34.9173C142.414 36.3907 141.08 38.8825 140.936 40.0561Z" fill="white" stroke="#263238" stroke-linecap="round" stroke-linejoin="round"/>
<path d="M145.314 49.0977C145.8 49.4348 146.358 49.6538 146.943 49.7373C147.528 49.8208 148.125 49.7664 148.685 49.5784" stroke="#263238" stroke-linecap="round" stroke-linejoin="round"/>
<path d="M154.149 49.4183C154.698 49.7755 155.356 49.9235 156.004 49.8352C156.653 49.7469 157.248 49.4283 157.68 48.9375" stroke="#263238" stroke-linecap="round" stroke-linejoin="round"/>
<path d="M152.701 47.6562L152.944 52.0299C152.974 52.5386 152.82 53.041 152.511 53.4461C152.201 53.8511 151.757 54.1318 151.259 54.2373L150.292 53.9168" stroke="#263238" stroke-linecap="round" stroke-linejoin="round"/>
<path d="M144.833 45.2461L149.491 45.8871" stroke="#263238" stroke-width="2" stroke-linecap="round" stroke-linejoin="round"/>
<path d="M153.989 46.2075L156.398 45.5664" stroke="#263238" stroke-width="2" stroke-linecap="round" stroke-linejoin="round"/>
<path d="M149.496 56.5996L151.755 56.765" stroke="#263238" stroke-linecap="round" stroke-linejoin="round"/>
<path d="M148.354 36.6746C148.354 36.6746 143.804 44.9462 140.392 47.0709C138.363 48.3357 136.094 49.1665 133.729 49.5111C133.729 49.5111 134.551 42.139 138.169 35.9663C141.788 29.7937 147.268 32.9265 148.354 36.6746Z" fill="#263238" stroke="#263238" stroke-linecap="round" stroke-linejoin="round"/>
<path d="M147.702 36.349C147.702 36.349 154.04 43.0076 156.966 45.4477C158.73 46.9188 160.7 48.1241 162.813 49.0252C162.813 49.0252 165.739 42.5268 162.979 36.5144C160.218 30.502 152.587 27.9585 149.02 28.7133C138.06 31.0241 147.702 36.349 147.702 36.349Z" fill="#263238" stroke="#263238" stroke-linecap="round" stroke-linejoin="round"/>
<path d="M152.919 76.6937L139.354 77.0556V74.4707L152.919 74.8326C153.147 74.8393 153.364 74.9349 153.524 75.099C153.683 75.2631 153.772 75.4828 153.772 75.7114V75.7993C153.775 75.9141 153.755 76.0282 153.713 76.1353C153.672 76.2423 153.61 76.3402 153.531 76.4232C153.452 76.5063 153.357 76.5729 153.252 76.6193C153.147 76.6657 153.034 76.691 152.919 76.6937Z" fill="white" stroke="#263238" stroke-linecap="round" stroke-linejoin="round"/>
<path d="M148.069 76.8228L152.919 76.6936C153.148 76.6882 153.365 76.593 153.525 76.4287C153.684 76.2643 153.773 76.0438 153.772 75.8147V75.7268C153.772 75.4982 153.683 75.2785 153.523 75.1144C153.364 74.9503 153.147 74.8547 152.919 74.848L148.069 74.7188V76.8228Z" fill="#9955B9" stroke="#263238" stroke-linecap="round" stroke-linejoin="round"/>
<path d="M133.651 90.3835C133.651 90.3835 131.066 81.3261 131.066 80.9901C131.066 80.654 134.199 74.2694 134.199 74.2694C134.199 74.2694 138.671 73.5973 140.01 73.1476C141.349 72.6978 140.682 73.9334 140.237 74.1557C139.169 74.4422 138.085 74.6666 136.991 74.8277C136.991 74.8277 139.452 74.714 139.674 75.05C139.896 75.3861 141.463 77.0611 141.463 77.3971C141.463 77.7331 141.24 77.8469 140.904 77.8469C140.568 77.8469 140.124 77.2885 140.124 77.2885L141.463 78.8394C141.463 78.8394 141.912 81.8586 141.912 82.4169C141.912 82.9752 141.24 83.6473 140.904 83.4509C140.568 83.2544 140.237 82.1119 140.237 82.1119L138.687 82.5565L139.648 87.7262C139.812 88.6495 139.616 89.6004 139.1 90.3835C138.583 91.1951 137.875 92.2239 137.337 92.9373C136.334 94.2815 129.624 103.675 127.163 106.244C124.702 108.814 122.133 110.83 120.344 109.599C118.556 108.369 117.547 106.022 117.883 104.342C118.22 102.662 120.789 100.32 122.019 99.3116C123.25 98.3035 132.085 92.043 132.643 91.4846C133.201 90.9263 133.651 90.3835 133.651 90.3835Z" fill="white" stroke="#263238" stroke-linecap="round" stroke-linejoin="round"/>
<path d="M138.686 82.5352L137.233 84.8822C137.233 84.8822 139.244 87.2293 138.464 89.2455" fill="white"/>
<path d="M138.686 82.5352L137.233 84.8822C137.233 84.8822 139.244 87.2293 138.464 89.2455" stroke="#263238" stroke-linecap="round" stroke-linejoin="round"/>
<path d="M141.788 81.6418C141.788 81.6418 140.558 79.8531 140.336 79.517C140.113 79.181 138.883 79.8531 138.547 79.9668C138.211 80.0805 136.65 80.9697 136.65 80.9697L136.102 82.4224" stroke="#263238" stroke-linecap="round" stroke-linejoin="round"/>
<path d="M140.134 77.2837C140.134 77.2837 138.231 76.7202 137.673 76.9476C137.115 77.1751 134.432 80.4114 134.432 80.4114" stroke="#263238" stroke-linecap="round" stroke-linejoin="round"/>
<path d="M137.001 74.8223L133.315 79.1804" stroke="#263238" stroke-linecap="round" stroke-linejoin="round"/>
<path d="M173.955 102.905C173.215 103.68 171.37 105.645 170.481 106.523C169.379 107.625 160.71 115.028 159.764 115.829C158.818 116.63 154.723 117.09 153.307 116.93C151.89 116.77 151.575 116.775 149.998 117.876C149.269 118.393 148.277 119.169 147.413 119.799C147.065 120.012 146.704 120.204 146.333 120.373C145.857 120.528 145.154 120.373 145.154 120.844C145.168 121.162 145.286 121.467 145.49 121.712C145.542 121.867 145.619 121.971 145.759 121.971C146.059 122.193 146.419 122.319 146.793 122.333C148.049 122.415 149.228 120.999 149.538 120.921C149.734 120.875 150.251 120.709 150.624 120.585L149.486 122.234L144.699 126.572C144.617 126.672 144.573 126.798 144.574 126.928C144.576 127.058 144.623 127.183 144.707 127.282C144.792 127.38 144.908 127.446 145.036 127.467C145.164 127.489 145.295 127.465 145.407 127.399L151.74 123.532L152.009 124.049L146.255 129.415C146.119 129.518 146.028 129.67 146.002 129.839C145.976 130.007 146.017 130.18 146.116 130.319C146.215 130.458 146.364 130.553 146.532 130.584C146.7 130.615 146.873 130.58 147.015 130.485L153.669 126.401L154.253 127.068L150.117 130.754C149.995 130.871 149.921 131.031 149.911 131.2C149.901 131.369 149.956 131.536 150.064 131.667C150.172 131.798 150.325 131.883 150.493 131.905C150.661 131.928 150.832 131.886 150.97 131.788L155.188 128.557C154.992 128.717 154.77 128.924 154.765 129.074C154.765 129.343 152.759 131.581 152.759 131.581C152.759 131.581 152.759 132.165 153.177 132.165C154.661 132.165 155.292 130.754 155.923 129.663C156.476 128.691 157.174 127.807 157.727 126.841L160.88 121.324C160.88 121.324 169.705 116.749 171.427 116.129C173.148 115.508 178.83 112.66 181.192 110.928C183.555 109.196 182.443 102.987 181.823 101.948M155.556 128.273L155.509 128.319L155.328 128.443L155.556 128.273Z" fill="white"/>
<path d="M173.955 102.905C173.215 103.68 171.37 105.645 170.481 106.523C169.379 107.625 160.71 115.028 159.764 115.829C158.818 116.63 154.723 117.09 153.307 116.93C151.89 116.77 151.575 116.775 149.998 117.876C149.269 118.393 148.277 119.169 147.413 119.799C147.065 120.012 146.704 120.204 146.333 120.373C145.857 120.528 145.154 120.373 145.154 120.844C145.168 121.162 145.286 121.467 145.49 121.712C145.542 121.867 145.619 121.971 145.759 121.971C146.059 122.193 146.419 122.319 146.793 122.333C148.049 122.415 149.228 120.999 149.538 120.921C149.734 120.875 150.251 120.709 150.624 120.585L149.486 122.234L144.699 126.572C144.617 126.672 144.573 126.798 144.574 126.928C144.576 127.058 144.623 127.183 144.707 127.282C144.792 127.38 144.908 127.446 145.036 127.467C145.164 127.489 145.295 127.465 145.407 127.399L151.74 123.532L152.009 124.049L146.255 129.415C146.119 129.518 146.028 129.67 146.002 129.839C145.976 130.007 146.017 130.18 146.116 130.319C146.215 130.458 146.364 130.553 146.532 130.584C146.7 130.615 146.873 130.58 147.015 130.485L153.669 126.401L154.253 127.068L150.117 130.754C149.995 130.871 149.921 131.031 149.911 131.2C149.901 131.369 149.956 131.536 150.064 131.667C150.172 131.798 150.325 131.883 150.493 131.905C150.661 131.928 150.832 131.886 150.97 131.788L155.188 128.557C154.992 128.717 154.77 128.924 154.765 129.074C154.765 129.343 152.759 131.581 152.759 131.581C152.759 131.581 152.759 132.165 153.177 132.165C154.661 132.165 155.292 130.754 155.923 129.663C156.476 128.691 157.174 127.807 157.727 126.841L160.88 121.324C160.88 121.324 169.705 116.749 171.427 116.129C173.148 115.508 178.83 112.66 181.192 110.928C183.555 109.196 182.443 102.987 181.823 101.948M155.556 128.273L155.509 128.319L155.328 128.443L155.556 128.273Z" stroke="#263238" stroke-linecap="round" stroke-linejoin="round"/>
<path d="M116.172 93.403L116.813 88.4297L112.486 89.231L116.172 93.403Z" fill="white" stroke="#263238" stroke-linecap="round" stroke-linejoin="round"/>
<path d="M120.995 74.9468C120.995 74.9468 121.683 73.9594 122.277 73.0702C122.872 72.181 123.461 71.0023 124.154 71.7881C124.847 72.5739 123.564 74.4557 123.564 74.4557L123.166 74.9468H120.995Z" fill="#BDBDBD" stroke="#263238" stroke-linecap="round" stroke-linejoin="round"/>
<path d="M118.928 78.4258C119.053 78.0122 119.227 77.6149 119.445 77.2419C119.926 76.4251 120.779 75.0189 120.996 74.9466C123.078 74.55 125.23 74.7562 127.199 75.5411C128.719 76.1976 129.867 76.6267 129.867 77.123C129.867 77.6193 128.383 77.5159 128.383 77.5159C128.383 77.5159 129.474 78.2087 129.474 78.705C129.474 79.2013 128.187 79.2995 128.187 79.2995C128.382 79.6702 128.516 80.07 128.585 80.4834C128.585 80.8763 127.298 81.0779 127.298 81.0779C127.298 81.0779 127.892 81.2743 127.592 81.7655C127.292 82.2566 122.846 81.9154 122.846 81.9154C122.846 81.9154 121.663 86.413 121.171 87.3022C120.967 87.7545 120.666 88.1568 120.29 88.4809C119.915 88.805 119.472 89.0432 118.995 89.1789C118.222 89.3591 117.462 89.5906 116.72 89.8716L112.068 91.3553L111.871 86.9093L117.01 84.5364L118.928 78.4258Z" fill="#BDBDBD" stroke="#263238" stroke-linecap="round" stroke-linejoin="round"/>
<path d="M128.403 77.5166C128.403 77.5166 125.56 76.4826 124.371 76.3948C123.182 76.3069 122.438 76.25 122.438 76.25" stroke="#263238" stroke-linecap="round" stroke-linejoin="round"/>
<path d="M128.208 79.299C128.208 79.299 123.663 78.0117 122.004 78.0117" stroke="#263238" stroke-linecap="round" stroke-linejoin="round"/>
<path d="M127.313 81.0782C127.313 81.0782 123.855 79.7909 122.66 79.8891C122.66 79.8891 121.921 79.8891 121.849 80.2665L121.776 80.6232" stroke="#263238" stroke-linecap="round" stroke-linejoin="round"/>
<path d="M85.071 85.7669C85.071 85.7669 81.0593 91.8621 81.2195 93.4647C81.3798 95.0673 82.3465 98.5982 83.8044 98.5982C85.2623 98.5982 91.6624 97.7969 96.1549 96.9904C100.647 96.184 111.695 94.6847 111.695 94.6847L116.188 93.4026L113.143 86.0202L110.222 86.6303C110.222 86.6303 100.068 87.2713 97.9798 87.1111C95.8913 86.9508 88.938 85.2861 88.938 85.2861" fill="white"/>
<path d="M85.071 85.7669C85.071 85.7669 81.0593 91.8621 81.2195 93.4647C81.3798 95.0673 82.3465 98.5982 83.8044 98.5982C85.2623 98.5982 91.6624 97.7969 96.1549 96.9904C100.647 96.184 111.695 94.6847 111.695 94.6847L116.188 93.4026L113.143 86.0202L110.222 86.6303C110.222 86.6303 100.068 87.2713 97.9798 87.1111C95.8913 86.9508 88.938 85.2861 88.938 85.2861" stroke="#263238" stroke-linecap="round" stroke-linejoin="round"/>
<path d="M110.185 87.3594C110.109 89.1584 110.554 90.9412 111.467 92.4929" stroke="#263238" stroke-linecap="round" stroke-linejoin="round"/>
<path d="M166.045 63.2417C166.67 63.5685 167.249 63.9771 167.767 64.4566C168.284 65.0305 168.852 67.0053 168.403 67.0725C167.953 67.1397 167.193 66.1161 167.064 65.8576C166.743 65.5165 166.38 65.2177 165.983 64.9684L165.725 63.1797L166.045 63.2417Z" fill="#BDBDBD" stroke="#263238" stroke-linecap="round" stroke-linejoin="round"/>
<path d="M164.447 62.6684C164.447 62.6684 165.724 62.4151 166.045 63.2422C166.365 64.0694 166.939 66.3079 166.427 67.0058C166.36 67.1447 166.247 67.2563 166.108 67.3219C165.968 67.3875 165.81 67.4031 165.661 67.3661C165.511 67.3292 165.379 67.2419 165.286 67.1188C165.193 66.9958 165.145 66.8445 165.15 66.6904C165.15 66.0494 164.256 63.9453 164.256 63.9453L164.447 62.6684Z" fill="#BDBDBD" stroke="#263238" stroke-linecap="round" stroke-linejoin="round"/>
<path d="M162.984 62.0329C163.207 61.9106 163.464 61.8632 163.716 61.8977C163.968 61.9321 164.202 62.0465 164.385 62.2242C164.959 62.86 164.767 66.2411 164.193 67.0734C163.62 67.9057 162.854 66.7529 162.854 65.7965C162.854 64.8401 162.984 62.0329 162.984 62.0329Z" fill="#BDBDBD" stroke="#263238" stroke-linecap="round" stroke-linejoin="round"/>
<path d="M160.321 62.845C160.321 62.845 162.177 60.9167 162.736 61.5008C163.294 62.085 162.963 65.6366 162.674 66.6706C162.384 67.7045 161.179 66.9291 160.978 66.0606C160.847 65.3565 160.785 64.6415 160.792 63.9255" fill="#BDBDBD"/>
<path d="M160.321 62.845C160.321 62.845 162.177 60.9167 162.736 61.5008C163.294 62.085 162.963 65.6366 162.674 66.6706C162.384 67.7045 161.179 66.9291 160.978 66.0606C160.847 65.3565 160.785 64.6415 160.792 63.9255" stroke="#263238" stroke-linecap="round" stroke-linejoin="round"/>
</svg>
