<svg width="220" height="218" viewBox="0 0 220 218" fill="none" xmlns="http://www.w3.org/2000/svg">
<path d="M200.929 149.061C204.562 147.187 208.842 146.941 212.876 147.608C215.045 147.964 217.305 148.61 218.779 150.244C220.252 151.877 220.533 154.754 218.839 156.132C217.837 156.969 216.423 157.094 215.116 157.079C211.958 157.039 208.456 156.483 205.935 158.387C204.492 159.469 203.535 161.273 201.816 161.804C200.097 162.336 198.233 161.333 197.341 159.8C196.449 158.266 196.414 156.377 196.84 154.663C197.045 153.478 197.521 152.356 198.23 151.385C198.939 150.413 199.863 149.618 200.929 149.061Z" fill="#EBEBEB"/>
<path d="M192.605 132.99C194.83 136.162 199.145 135.11 201.149 133.176C203.153 131.241 203.995 128.43 204.767 125.754C206.526 119.635 208.275 113.226 206.992 106.992C206.677 105.104 205.848 103.339 204.597 101.891C203.289 100.508 201.274 99.6859 199.435 100.172C197.26 100.748 195.927 102.883 194.925 104.908C192.044 110.903 190.536 117.464 190.51 124.115C190.51 127.207 190.861 130.445 192.605 133" fill="#EBEBEB"/>
<path d="M186.507 137.54C188.917 134.679 189.373 130.524 188.301 126.916C187.228 123.308 184.793 120.277 182.007 117.786C178.718 114.858 174.89 112.599 170.736 111.136C169.129 110.489 167.401 110.197 165.67 110.279C163.951 110.44 162.217 111.322 161.416 112.85C160.233 115.11 161.366 117.861 162.598 120.096C164.767 124.041 167.241 127.809 170 131.366C172.22 134.228 174.76 137.049 178.143 138.342C181.525 139.635 185.033 139.479 186.827 137.134" fill="#EBEBEB"/>
<path d="M192.455 180.857C192.572 180.386 192.639 179.904 192.655 179.419C192.76 178.366 192.886 177.048 193.041 175.48C193.237 173.545 193.532 171.622 193.923 169.717C194.441 167.395 195.143 165.118 196.023 162.907C196.885 160.698 198.055 158.623 199.501 156.743C200.677 155.212 202.18 153.962 203.9 153.085C205.066 152.507 206.316 152.118 207.604 151.932C208.087 151.913 208.567 151.844 209.037 151.727C208.553 151.662 208.064 151.653 207.579 151.702C206.241 151.804 204.933 152.143 203.715 152.704C201.904 153.558 200.315 154.821 199.075 156.392C197.569 158.297 196.354 160.415 195.472 162.676C194.579 164.921 193.882 167.238 193.387 169.602C193.014 171.534 192.758 173.487 192.62 175.45C192.495 177.119 192.45 178.457 192.425 179.409C192.384 179.891 192.394 180.377 192.455 180.857Z" fill="#E0E0E0"/>
<path d="M192.726 177.83C192.766 177.609 192.78 177.383 192.766 177.158C192.766 176.657 192.766 176.026 192.766 175.249C192.766 173.585 192.766 171.185 192.851 168.233C192.997 162.295 193.508 155.911 194.495 146.906C195.432 138.442 196.685 128.585 198.003 122.181C198.288 120.722 198.574 119.41 198.845 118.262C199.115 117.114 199.346 116.122 199.531 115.315C199.717 114.509 199.857 113.947 199.977 113.456C200.042 113.243 200.08 113.022 200.092 112.8C199.989 112.998 199.911 113.208 199.862 113.426L199.306 115.26C199.06 116.052 198.805 117.039 198.519 118.187C198.233 119.334 197.903 120.637 197.592 122.091C195.954 129.668 194.721 137.328 193.899 145.037C192.896 154.057 192.465 162.275 192.425 168.223C192.39 171.2 192.455 173.605 192.531 175.269C192.576 176.046 192.616 176.677 192.646 177.178C192.649 177.398 192.676 177.616 192.726 177.83Z" fill="#E0E0E0"/>
<path d="M192.766 161.985C192.819 161.318 192.819 160.648 192.766 159.981C192.696 158.698 192.515 156.839 192.154 154.564C191.714 151.899 191.122 149.263 190.38 146.666C189.52 143.474 188.416 140.353 187.078 137.33C184.342 130.841 180.624 125.534 177.391 122.247C176.677 121.492 175.916 120.784 175.111 120.127C174.761 119.831 174.455 119.536 174.139 119.3L173.252 118.694C172.721 118.292 172.16 117.932 171.573 117.616C171.478 117.747 173.954 119.205 177.086 122.537C180.218 125.87 183.821 131.131 186.532 137.571C187.843 140.577 188.953 143.667 189.854 146.821C190.716 149.723 191.292 152.389 191.728 154.634C192.164 156.879 192.38 158.723 192.52 159.996C192.552 160.664 192.634 161.329 192.766 161.985Z" fill="#E0E0E0"/>
<path d="M177.452 189.937L179.04 211.69H206.983L208.571 189.937H177.452Z" fill="#E0E0E0"/>
<path d="M211.903 181.362H174.75V189.936H211.903V181.362Z" fill="#E0E0E0"/>
<path d="M174.75 210.859V213.235H176.499H211.292V210.859H174.75Z" fill="#EBEBEB"/>
<path d="M178.208 217.419L176.5 213.234H209.959L207.965 217.419H178.208Z" fill="#E0E0E0"/>
<path d="M208.055 197.048C208.018 197.117 207.975 197.183 207.925 197.243L207.504 197.799L205.875 199.884L205.805 199.974L205.735 199.879L201.726 194.367H201.956C200.764 196.05 199.451 197.929 198.018 199.944L197.892 200.119L197.757 199.954L193.087 194.397H193.357L193.097 194.722C191.648 196.536 190.25 198.295 188.922 199.954L188.782 200.129L188.657 199.949C187.239 197.945 185.911 196.07 184.718 194.377H184.943L180.093 199.889L180.007 199.984L179.942 199.874C179.301 198.801 178.79 197.945 178.439 197.323C178.279 197.048 178.148 196.822 178.048 196.642C178 196.566 177.96 196.485 177.928 196.401C177.99 196.466 178.044 196.538 178.088 196.617L178.524 197.273L180.118 199.779H179.967L184.738 194.186L184.858 194.041L184.968 194.196L188.942 199.744H188.682L192.846 194.502L193.102 194.176L193.237 194.011L193.372 194.171L198.028 199.739H197.767L201.746 194.191L201.861 194.031L201.976 194.191L205.88 199.784H205.72L207.414 197.754L207.865 197.228C207.99 197.098 208.045 197.043 208.055 197.048Z" fill="#F5F5F5"/>
<path d="M208.962 189.792C208.962 189.888 201.946 189.968 193.322 189.968C184.698 189.968 177.682 189.888 177.682 189.792C177.682 189.697 184.698 189.622 193.322 189.622C201.946 189.622 208.962 189.697 208.962 189.792Z" fill="#F5F5F5"/>
<path d="M210.375 213.469C210.375 213.565 202.763 213.64 193.377 213.64C183.991 213.64 176.379 213.565 176.379 213.469C176.379 213.374 183.986 213.294 193.377 213.294C202.768 213.294 210.375 213.374 210.375 213.469Z" fill="#F5F5F5"/>
<path d="M55.4592 68.8921C55.6171 68.7994 55.7853 68.7254 55.9603 68.6716C56.492 68.504 57.0623 68.504 57.594 68.6716C58.0255 68.8122 58.4163 69.0559 58.7324 69.3816C59.0485 69.7074 59.2804 70.1052 59.408 70.5408C59.5798 71.1441 59.5448 71.7875 59.3088 72.3687C59.0727 72.9499 58.649 73.4354 58.1051 73.748V73.6578C60.5155 78.248 63.9933 84.8728 68.1776 92.8305L74.9126 105.694C75.2418 106.262 75.5201 106.857 75.7445 107.473C76.0652 108.445 76.135 109.482 75.9475 110.487C75.76 111.493 75.3213 112.435 74.6721 113.226C73.7688 114.323 72.5113 115.07 71.1163 115.339C69.7213 115.608 68.2762 115.382 67.03 114.699C66.1576 114.213 65.4138 113.526 64.8602 112.695C64.5996 112.269 64.3591 111.838 64.1586 111.412C63.9582 110.986 63.7126 110.56 63.4921 110.134L60.8713 105.123C59.1575 101.831 57.4937 98.6485 55.9052 95.6017L47.3862 79.2552L47.5165 79.3004C47.1592 79.4691 46.7708 79.562 46.3757 79.5732C45.9807 79.5844 45.5877 79.5137 45.2214 79.3655C44.7291 79.1646 44.3035 78.829 43.9934 78.3971C43.6833 77.9652 43.5013 77.4546 43.4683 76.9239C43.4354 76.3933 43.5527 75.8641 43.807 75.3971C44.0612 74.9302 44.442 74.5444 44.9057 74.2842L50.5683 71.3476L54.1563 69.5035L55.0934 69.0274L55.4141 68.8721C55.4141 68.8721 55.3139 68.9372 55.1034 69.0525L54.1814 69.5536L50.6184 71.4478L44.9808 74.4245C44.431 74.7328 44.0111 75.2293 43.7982 75.8226C43.613 76.3178 43.5804 76.8572 43.7047 77.3712C43.8289 77.8851 44.1043 78.35 44.4953 78.706C44.8863 79.0619 45.375 79.2926 45.8983 79.3681C46.4216 79.4437 46.9556 79.3607 47.4313 79.13L47.5165 79.0899L47.5616 79.1751L56.1157 95.4915L61.0968 105.013C61.952 106.656 62.8257 108.327 63.7176 110.024C63.9381 110.45 64.1586 110.876 64.3841 111.302C64.6096 111.728 64.8251 112.159 65.0757 112.56C65.5781 113.325 66.2534 113.961 67.047 114.417C67.8407 114.873 68.7304 115.136 69.6444 115.185C70.5585 115.233 71.4711 115.067 72.3088 114.698C73.1464 114.329 73.8856 113.768 74.4666 113.061C75.2964 112.035 75.7618 110.762 75.7896 109.443C75.7946 108.8 75.6964 108.16 75.4989 107.548C75.2757 106.948 75.0042 106.366 74.6871 105.81C72.3018 101.244 70.0518 96.9197 67.9721 92.9358C63.8229 84.958 60.3752 78.3232 57.9798 73.7229L57.9548 73.6628L58.0099 73.6327C58.5649 73.3159 58.9907 72.8138 59.2126 72.2145C59.3356 71.8766 59.3898 71.5174 59.372 71.1582C59.3541 70.799 59.2646 70.447 59.1086 70.1229C58.9526 69.7989 58.7334 69.5093 58.4638 69.2712C58.1942 69.0332 57.8797 68.8514 57.5389 68.7368C57.0223 68.5654 56.4674 68.5463 55.9403 68.6817C55.6296 68.8069 55.4692 68.9072 55.4592 68.8921Z" fill="#E0E0E0"/>
<path d="M51.7627 84.0176L59.615 79.9143L74.0718 107.579C74.5476 108.49 74.6422 109.552 74.3348 110.532C74.0274 111.513 73.3432 112.331 72.4327 112.806L71.4511 113.319C71.0002 113.556 70.5071 113.701 70.0001 113.747C69.493 113.792 68.9819 113.738 68.496 113.586C68.0101 113.434 67.559 113.187 67.1683 112.861C66.7777 112.534 66.4553 112.134 66.2195 111.683L51.7627 84.0176Z" fill="#E0E0E0"/>
<path d="M58.0851 73.7073C58.1202 73.7724 55.785 75.0653 52.8684 76.5937C49.9519 78.1221 47.5616 79.3098 47.5315 79.2446C47.5015 79.1795 49.8317 77.8916 52.7482 76.3632C55.6647 74.8348 58.05 73.6471 58.0851 73.7073Z" fill="#E0E0E0"/>
<path d="M146.638 20.0371C143.461 29.4481 138.384 44.6621 136.049 51.6477C135.886 52.1392 135.821 52.6581 135.859 53.1746C135.897 53.6912 136.036 54.1952 136.269 54.6579C136.501 55.1205 136.823 55.5328 137.215 55.871C137.608 56.2091 138.063 56.4667 138.555 56.6288L164.267 65.2781C164.758 65.4464 165.278 65.5158 165.797 65.4824C166.315 65.4489 166.822 65.3133 167.288 65.0832C167.753 64.8531 168.169 64.5331 168.511 64.1417C168.852 63.7503 169.113 63.2952 169.278 62.8025L179.802 31.4776C180.167 30.3882 180.315 29.2374 180.236 28.0909C180.157 26.9445 179.852 25.8248 179.341 24.796C178.829 23.7671 178.119 22.8491 177.252 22.0945C176.386 21.3399 175.379 20.7634 174.289 20.3979L175.843 15.7876L159.005 10.125L157.537 14.4797H157.477C155.302 13.8161 152.955 14.0252 150.931 15.0625C148.908 16.0998 147.368 17.884 146.638 20.0371Z" fill="#F5F5F5"/>
<path d="M158.785 10.7119L158.083 12.8066L174.721 19.0706L175.623 16.3746L158.785 10.7119Z" fill="#E0E0E0"/>
<path d="M160.637 3.51952L178.572 9.55181C178.95 9.67892 179.262 9.95094 179.439 10.308C179.617 10.6651 179.645 11.0781 179.518 11.456L177.494 17.4739C177.412 17.717 177.237 17.9177 177.007 18.0318C176.778 18.1459 176.512 18.164 176.269 18.0823L157.322 11.7097C157.079 11.6279 156.878 11.4529 156.764 11.2232C156.65 10.9934 156.632 10.7278 156.714 10.4847L158.739 4.46202C158.867 4.08411 159.139 3.77218 159.496 3.59483C159.853 3.41749 160.266 3.38926 160.644 3.51637L160.637 3.51952Z" fill="#EBEBEB"/>
<path d="M159.051 12.335C158.925 12.2899 159.456 10.3956 160.228 8.10051C161 5.80539 161.732 3.9713 161.847 4.01139C161.962 4.05148 161.441 5.95071 160.669 8.24583C159.897 10.541 159.171 12.365 159.051 12.335Z" fill="#E0E0E0"/>
<path d="M161.27 13.083C161.145 13.0379 161.671 11.1437 162.448 8.84856C163.225 6.55344 163.951 4.71934 164.067 4.75943C164.182 4.79952 163.661 6.69876 162.889 8.99388C162.117 11.289 161.391 13.1231 161.27 13.083Z" fill="#E0E0E0"/>
<path d="M163.485 13.8281C163.365 13.783 163.891 11.8888 164.663 9.58867C165.435 7.28853 166.166 5.46447 166.287 5.50455C166.407 5.54464 165.881 7.44388 165.109 9.739C164.337 12.0341 163.626 13.8682 163.485 13.8281Z" fill="#E0E0E0"/>
<path d="M165.706 14.5762C165.585 14.5311 166.112 12.6368 166.883 10.3367C167.655 8.03658 168.387 6.21251 168.507 6.2526C168.627 6.29269 168.101 8.19193 167.324 10.4871C166.547 12.7822 165.826 14.6163 165.706 14.5762Z" fill="#E0E0E0"/>
<path d="M167.925 15.3163C167.805 15.2762 168.331 13.382 169.103 11.0818C169.875 8.7817 170.606 6.95763 170.722 6.99772C170.837 7.03781 170.321 8.93203 169.544 11.2322C168.767 13.5323 168.046 15.3714 167.925 15.3163Z" fill="#E0E0E0"/>
<path d="M170.14 16.0643C170.015 16.0242 170.546 14.13 171.318 11.8299C172.089 9.52975 172.821 7.70568 172.936 7.74577C173.051 7.78585 172.53 9.68008 171.759 11.9802C170.987 14.2803 170.265 16.1094 170.14 16.0643Z" fill="#E0E0E0"/>
<path d="M172.36 16.8094C172.24 16.7694 172.766 14.8751 173.543 12.575C174.32 10.2749 175.046 8.45079 175.162 8.49088C175.277 8.53097 174.756 10.4252 173.984 12.7253C173.212 15.0255 172.486 16.8746 172.36 16.8094Z" fill="#E0E0E0"/>
<path d="M174.58 17.5575C174.46 17.5174 174.986 15.6232 175.758 13.323C176.529 11.0229 177.261 9.19884 177.381 9.23893C177.502 9.27902 176.975 11.1732 176.204 13.4734C175.432 15.7735 174.705 17.6026 174.58 17.5575Z" fill="#E0E0E0"/>
<path d="M173.24 34.0288L150.522 26.3878C150.134 26.2572 149.713 26.4661 149.582 26.8543L144.688 41.4075C144.557 41.7957 144.766 42.2163 145.154 42.3469L167.872 49.9879C168.26 50.1184 168.681 49.9096 168.811 49.5213L173.706 34.9682C173.837 34.58 173.628 34.1594 173.24 34.0288Z" fill="#EBEBEB"/>
<path d="M167.324 48.5914C167.34 48.4977 167.363 48.4055 167.394 48.3158C167.454 48.1153 167.535 47.8698 167.625 47.5691C167.845 46.8776 168.144 45.9388 168.522 44.7528C169.319 42.3074 170.441 38.8647 171.809 34.6804L171.924 34.9159L150.762 27.8451L151.058 27.6998V27.7299V27.79L151.023 27.9052L150.943 28.1358L150.787 28.5918L150.481 29.5088L149.87 31.3179C149.464 32.5155 149.068 33.6982 148.677 34.8558C147.891 37.1709 147.139 39.4009 146.417 41.5206L146.287 41.25L161.426 46.4516L165.781 47.98L166.948 48.401C167.09 48.4475 167.229 48.5028 167.364 48.5664C167.235 48.5437 167.107 48.5101 166.983 48.4661L165.836 48.1053L161.491 46.7072L146.087 41.681L145.886 41.6158L145.951 41.4104C146.663 39.2856 147.41 37.0557 148.181 34.7355C148.572 33.5779 148.968 32.3953 149.369 31.1976C149.569 30.5963 149.775 29.9949 149.98 29.3835L150.286 28.4715L150.441 28.0105L150.517 27.78L150.557 27.6647V27.6046C150.291 27.7299 150.917 27.4242 150.852 27.4542L172.045 34.5651L172.22 34.6252L172.16 34.7956L168.637 44.9383C168.226 46.0975 167.902 47.0129 167.665 47.6844L167.404 48.386C167.386 48.4574 167.359 48.5264 167.324 48.5914Z" fill="#E0E0E0"/>
<path d="M167.204 38.1227C167.163 38.2429 163.911 37.2608 159.942 35.9228C155.973 34.5848 152.791 33.4172 152.831 33.2869C152.872 33.1566 156.124 34.1488 160.093 35.4818C164.061 36.8148 167.244 37.9974 167.204 38.1227Z" fill="#E0E0E0"/>
<path d="M166.382 40.5639C166.342 40.6892 163.089 39.702 159.121 38.369C155.152 37.036 151.97 35.8634 152.01 35.7281C152.05 35.5928 155.302 36.59 159.271 37.928C163.24 39.266 166.422 40.4286 166.382 40.5639Z" fill="#E0E0E0"/>
<path d="M165.59 42.9332C165.55 43.0535 162.303 42.0713 158.334 40.7333C154.365 39.3953 151.178 38.2277 151.223 38.0974C151.268 37.9671 154.51 38.9594 158.479 40.2923C162.448 41.6253 165.63 42.7879 165.59 42.9332Z" fill="#E0E0E0"/>
<path d="M173.357 19.9282C173.317 20.0485 169.774 18.9661 165.444 17.5128C161.115 16.0596 157.612 14.7767 157.672 14.6514C157.732 14.5261 161.26 15.6136 165.59 17.0718C169.919 18.5301 173.397 19.8079 173.357 19.9282Z" fill="#E0E0E0"/>
<path d="M138.069 50.3057C138.169 49.7948 138.308 49.2922 138.485 48.8023C138.821 47.77 139.256 46.402 139.788 44.7433C140.905 41.3207 142.484 36.6001 144.248 31.3985C145.14 28.8027 145.987 26.3322 146.753 24.0722C147.52 21.8121 148.447 19.7976 149.725 18.4546C150.698 17.3658 151.991 16.6132 153.418 16.3048C153.805 16.2362 154.199 16.2144 154.591 16.2397C154.727 16.243 154.862 16.2666 154.992 16.3098C154.477 16.3269 153.964 16.3855 153.458 16.4852C152.094 16.8439 150.871 17.6074 149.95 18.6751C148.758 19.9931 147.886 21.9625 147.144 24.2125L144.669 31.5488C142.905 36.7505 141.281 41.4509 140.078 44.8485L138.64 48.8575C138.487 49.354 138.296 49.8381 138.069 50.3057Z" fill="white"/>
<path d="M167.214 64.9481C166.846 64.7287 166.499 64.4772 166.176 64.1964C165.861 63.9408 165.465 63.6352 164.989 63.3044C164.513 62.9737 163.986 62.5628 163.375 62.1769C161.954 61.2257 160.478 60.359 158.955 59.5811C155.216 57.6787 151.218 56.3363 147.089 55.5972C145.406 55.2986 143.708 55.0979 142.002 54.9959C141.276 54.9307 140.614 54.9358 140.033 54.9207C139.452 54.9057 138.956 54.9207 138.53 54.9207C138.106 54.9558 137.679 54.9457 137.257 54.8907C137.673 54.8035 138.095 54.7532 138.52 54.7403C138.931 54.7002 139.432 54.6702 140.023 54.6702C140.614 54.6702 141.276 54.6301 142.027 54.6702C143.752 54.7222 145.472 54.8896 147.174 55.1713C151.35 55.8674 155.388 57.2205 159.141 59.1802C160.669 59.982 162.142 60.8843 163.551 61.8813C164.162 62.2922 164.673 62.7181 165.134 63.0739C165.595 63.4297 165.981 63.7604 166.287 64.0411C166.625 64.3118 166.936 64.6157 167.214 64.9481Z" fill="white"/>
<path d="M180.959 71.5871C179.751 69.6829 178.108 67.3828 177.166 65.6689C175.604 68.3896 174.333 71.2668 173.372 74.2531C172.758 75.9119 172.463 77.6714 172.5 79.4397C172.611 81.1986 173.352 82.9876 174.79 84.0099C176.629 85.3228 179.736 85.2075 181.515 83.8144C183.294 82.4213 183.966 80.3066 183.936 78.0265C183.906 75.7464 182.167 73.5014 180.959 71.5871Z" fill="#EBEBEB"/>
<path d="M189.683 56.5952C188.791 55.1921 187.579 53.4983 186.887 52.2305C185.735 54.2359 184.798 56.3574 184.091 58.5596C183.64 59.7812 183.423 61.0764 183.449 62.3781C183.435 63.1539 183.643 63.9176 184.049 64.5791C184.455 65.2405 185.041 65.7722 185.739 66.1114C186.437 66.4506 187.217 66.5832 187.988 66.4935C188.759 66.4038 189.488 66.0957 190.089 65.6053C191.397 64.573 191.898 63.0045 191.873 61.3408C191.848 59.6771 190.575 58.0033 189.683 56.5952Z" fill="#EBEBEB"/>
<path d="M9.5918 190.384L13.701 217.379H37.5642L43.1016 190.775L9.5918 190.384Z" fill="#F5F5F5"/>
<path d="M39.7641 207.681C39.7641 207.762 33.6504 207.822 26.1086 207.822C18.5668 207.822 12.4531 207.762 12.4531 207.681C12.4531 207.601 18.5668 207.541 26.1086 207.541C33.6504 207.541 39.7641 207.606 39.7641 207.681Z" fill="#FAFAFA"/>
<path d="M39.8495 206.354C39.8495 206.434 33.6908 206.494 26.0988 206.494C18.5069 206.494 12.3481 206.434 12.3481 206.354C12.3481 206.274 18.5019 206.219 26.0988 206.219C33.6958 206.219 39.8495 206.299 39.8495 206.354Z" fill="#FAFAFA"/>
<path d="M39.8093 204.856C39.8093 204.936 33.6556 204.996 26.0637 204.996C18.4717 204.996 12.313 204.936 12.313 204.856C12.313 204.776 18.4667 204.716 26.0637 204.716C33.6606 204.716 39.8093 204.796 39.8093 204.856Z" fill="#FAFAFA"/>
<path d="M16.4425 215.82C15.8569 213.575 15.4596 211.285 15.2549 208.975C15.587 210.088 15.8316 211.226 15.9865 212.377C16.2284 213.511 16.3808 214.662 16.4425 215.82Z" fill="#FAFAFA"/>
<path d="M18.0663 215.548C17.8966 214.451 17.7962 213.345 17.7656 212.236C17.6476 211.131 17.5958 210.019 17.6103 208.908C17.8729 209.992 18.019 211.101 18.0463 212.216C18.1672 213.323 18.1739 214.439 18.0663 215.548Z" fill="#FAFAFA"/>
<path d="M21.023 215.549C20.4626 213.31 20.1931 211.008 20.2212 208.699C20.44 209.829 20.5939 210.97 20.6823 212.117C20.8611 213.254 20.9749 214.4 21.023 215.549Z" fill="#FAFAFA"/>
<path d="M23.0972 215.689C22.8736 214.552 22.7628 213.395 22.7664 212.236C22.6846 211.08 22.7215 209.918 22.8767 208.769C22.999 209.917 23.0559 211.071 23.0471 212.226C23.1317 213.379 23.1484 214.535 23.0972 215.689Z" fill="#FAFAFA"/>
<path d="M26.775 215.549C26.5993 214.466 26.5155 213.369 26.5245 212.272C26.4399 211.177 26.45 210.077 26.5545 208.984C26.7303 210.068 26.8141 211.164 26.8051 212.262C26.8897 213.356 26.8796 214.456 26.775 215.549Z" fill="#FAFAFA"/>
<path d="M29.4617 215.693C29.2963 213.434 29.3148 211.165 29.5168 208.908C29.6889 211.167 29.6705 213.437 29.4617 215.693Z" fill="#FAFAFA"/>
<path d="M31.982 215.317C31.9521 214.131 32.0191 212.945 32.1825 211.77C32.2598 210.589 32.4274 209.417 32.6836 208.262C32.7134 209.448 32.6464 210.634 32.4831 211.81C32.4058 212.99 32.2383 214.163 31.982 215.317Z" fill="#FAFAFA"/>
<path d="M35.229 214.978C35.2331 213.962 35.3678 212.952 35.6299 211.971C35.8005 210.967 36.0986 209.988 36.5169 209.06C36.3679 210.059 36.1621 211.05 35.9005 212.026C35.7297 213.021 35.5056 214.007 35.229 214.978Z" fill="#FAFAFA"/>
<path d="M6.85059 185.036V190.087C6.85059 190.619 7.06177 191.129 7.43768 191.505C7.81359 191.881 8.32344 192.092 8.85506 192.092H43.4322C43.9638 192.092 44.4737 191.881 44.8496 191.505C45.2255 191.129 45.4367 190.619 45.4367 190.087V185.036H6.85059Z" fill="#F5F5F5"/>
<path d="M9.84766 192.076L10.1333 193.685L42.0245 195.96L42.8312 192.076H9.84766Z" fill="#E0E0E0"/>
<path d="M12.0575 185.062C12.0575 185.062 -1.37747 169.577 0.115867 169.026C1.6092 168.475 13.5508 177.044 13.5508 177.044C13.5508 177.044 3.2679 154.087 5.33752 152.409C7.40714 150.73 18.2163 172.749 18.2163 172.749C18.2163 172.749 16.5375 140.653 18.2163 140.277C19.895 139.901 26.0537 172.373 26.0537 172.373C26.0537 172.373 35.1941 142.707 37.81 142.707C40.4258 142.707 35.0087 171.271 35.0087 171.271C35.0087 171.271 45.8329 152.985 47.5116 155.41C49.1904 157.836 39.8495 177.6 39.8495 177.6C39.8495 177.6 53.4799 166.21 54.0412 167.713C54.6025 169.216 39.2983 185.067 39.2983 185.067L12.0575 185.062Z" fill="#EBEBEB"/>
<path d="M10.1836 161.739C10.2738 161.693 12.6591 166.805 15.5054 173.149C18.3518 179.493 20.5868 184.675 20.5166 184.71C20.4465 184.745 18.0411 179.644 15.1947 173.299C12.3484 166.955 10.0884 161.779 10.1836 161.739Z" fill="#E0E0E0"/>
<path d="M21.0376 164.591C21.1378 164.591 21.5387 169.101 21.9196 174.648C22.3004 180.196 22.5409 184.726 22.4207 184.731C22.3004 184.736 21.9196 180.221 21.5387 174.673C21.1579 169.126 20.9324 164.601 21.0376 164.591Z" fill="#E0E0E0"/>
<path d="M36.0062 150.219C35.9986 150.344 35.9733 150.467 35.931 150.585C35.8508 150.855 35.7506 151.191 35.6354 151.587C35.3547 152.524 34.9739 153.787 34.5078 155.325C33.5607 158.482 32.2879 162.842 31 167.713C29.7121 172.584 28.6247 177.014 27.873 180.241C27.5072 181.809 27.2066 183.092 26.9811 184.044C26.8808 184.46 26.7956 184.801 26.7305 185.077C26.7105 185.2 26.6717 185.32 26.6152 185.432C26.616 185.308 26.6294 185.183 26.6553 185.061L26.8407 184.014C27.0111 183.107 27.2717 181.799 27.6175 180.186C28.304 176.958 29.3363 172.519 30.6242 167.658C31.9121 162.797 33.24 158.427 34.2523 155.29C34.7534 153.722 35.1793 152.454 35.485 151.582L35.8458 150.58C35.8858 150.454 35.9396 150.333 36.0062 150.219Z" fill="#E0E0E0"/>
<path d="M42.4807 166.76C42.5659 166.82 39.9401 170.729 36.6227 175.495C33.3053 180.26 30.5491 184.074 30.4639 184.014C30.3787 183.954 33.0046 180.045 36.322 175.279C39.6394 170.514 42.4006 166.71 42.4807 166.76Z" fill="#E0E0E0"/>
<path d="M16.5922 184.749C16.1621 184.525 15.7657 184.242 15.4146 183.907C14.5216 183.166 13.6685 182.378 12.8589 181.547C12.0465 180.718 11.2803 179.845 10.5638 178.931C10.2403 178.57 9.96726 178.168 9.75195 177.734C9.83714 177.663 11.2553 179.357 13.1245 181.286C14.9936 183.216 16.6574 184.649 16.5922 184.749Z" fill="#E0E0E0"/>
<path d="M24.7505 178.581C24.8508 178.581 25.0662 180.004 25.2266 181.773C25.387 183.542 25.4371 184.995 25.3368 185.005C25.2366 185.015 25.0211 183.582 24.8357 181.808C24.6503 180.034 24.6503 178.591 24.7505 178.581Z" fill="#E0E0E0"/>
<path opacity="0.16" d="M197.086 33.0251L195.979 31.201C186.648 15.8267 169.78 6.55602 151.991 7.67853C149.701 7.82334 147.424 8.13655 145.18 8.61562C129.009 12.0783 114.938 24.3056 109.1 39.9656C105.672 49.1811 104.715 59.7848 98.2056 67.0961C89.7317 76.6174 75.3496 76.908 62.7014 76.5171C50.0532 76.1263 35.641 76.457 27.2372 86.0083C21.9605 91.9917 20.3068 100.501 20.7077 108.514C21.8352 129.726 36.6182 148.693 55.4151 158.124C74.2121 167.555 96.3465 168.397 116.917 164.253C145.742 158.44 173.148 142.484 189.625 117.844C206.101 93.2044 210.266 59.6244 197.086 33.0251Z" fill="#EBEBEB"/>
<path d="M72.6527 60.5322L65.6871 48.6307C69.8009 41.7474 71.1913 33.5743 69.5851 25.7179C67.9788 17.8616 63.4922 10.8901 57.0069 6.17371C50.5217 1.45735 42.5069 -0.662759 34.5378 0.230086C26.5688 1.12293 19.2219 4.96416 13.9412 10.9988C8.66048 17.0334 5.82786 24.8249 6.00009 32.842C6.17233 40.859 9.33696 48.5217 14.872 54.324C20.407 60.1262 27.9121 63.6483 35.9121 64.1981C43.9121 64.7479 51.8285 62.2855 58.1052 57.295L72.6527 60.5322Z" fill="#FAFAFA"/>
<path d="M72.6528 60.5324L58.0803 57.3703C58.0639 57.3667 58.0495 57.3569 58.0401 57.3429C58.0308 57.3288 58.0272 57.3118 58.0302 57.2952L58.1204 57.3854C56.1061 58.9896 53.9093 60.3504 51.5758 61.4394C47.2484 63.4527 42.5223 64.4634 37.75 64.396C35.9482 64.3849 34.1507 64.2172 32.378 63.8949C26.1043 62.7559 20.3092 59.7824 15.7254 55.3502C11.1416 50.918 7.97481 45.2262 6.62552 38.9943C5.6347 34.2876 5.68944 29.4208 6.78588 24.7375C7.9595 19.8385 10.2663 15.2831 13.5209 11.4379C14.3579 10.4499 15.2496 9.50966 16.1919 8.62157C17.135 7.75199 18.1271 6.93717 19.1635 6.18113C21.2016 4.68111 23.4144 3.43422 25.7532 2.46784C28.0383 1.5139 30.4261 0.82781 32.8691 0.423278C35.2521 0.0376592 37.6703 -0.085015 40.0802 0.0574621C44.7094 0.326484 49.2243 1.60227 53.3097 3.79581C58.5331 6.57701 62.8851 10.7492 65.8842 15.8506C68.8833 20.952 70.4125 26.7837 70.3026 32.7003C70.2563 35.7606 69.7703 38.7984 68.8594 41.7204C68.0937 44.1472 67.0477 46.4764 65.7424 48.6609V48.6008L72.6528 60.5324L65.6372 48.6609C65.6324 48.6516 65.6298 48.6413 65.6298 48.6308C65.6298 48.6204 65.6324 48.6101 65.6372 48.6008C66.9299 46.4205 67.9626 44.0961 68.7141 41.6753C69.6137 38.7653 70.0897 35.741 70.1272 32.6953C70.1674 29.1981 69.6429 25.7173 68.5737 22.3873C66.0043 14.5169 60.497 7.94154 53.1994 4.03133C49.1418 1.85963 44.6598 0.597645 40.0651 0.333079C37.6736 0.193273 35.274 0.315943 32.9092 0.698895C30.4883 1.09502 28.1209 1.76758 25.8534 2.70337C23.542 3.66738 21.3548 4.90567 19.3389 6.3916C18.3112 7.14116 17.329 7.95105 16.3973 8.81701C15.4593 9.69425 14.5742 10.6263 13.7464 11.6082C10.5221 15.4105 8.23419 19.9159 7.06651 24.7626C5.9696 29.4132 5.91143 34.2485 6.89612 38.9242C8.22766 45.1161 11.3671 50.7735 15.9168 55.1796C20.4665 59.5857 26.2217 62.5421 32.4531 63.6744C35.8815 64.2807 39.3844 64.34 42.8313 63.8498C45.8444 63.4098 48.779 62.5407 51.5457 61.269C53.8672 60.1932 56.0538 58.8476 58.0603 57.2601C58.0724 57.2485 58.0886 57.242 58.1054 57.242C58.1222 57.242 58.1384 57.2485 58.1505 57.2601C58.16 57.2703 58.1653 57.2837 58.1653 57.2977C58.1653 57.3116 58.16 57.3251 58.1505 57.3353L58.1154 57.235L72.6528 60.5324Z" fill="#263238"/>
<path d="M49.2771 17.1742L27.5142 16.9956C26.1637 16.9846 25.0599 18.0704 25.0488 19.421L24.8409 44.7617C24.8298 46.1122 25.9157 47.216 27.2662 47.2271L49.0291 47.4056C50.3796 47.4167 51.4834 46.3308 51.4945 44.9803L51.7024 19.6396C51.7134 18.2891 50.6276 17.1853 49.2771 17.1742Z" fill="#BA68C8"/>
<path d="M29.3599 26.7367L29.3457 28.4655C29.3263 30.8344 31.231 32.7706 33.6 32.7901L43.5869 32.872C45.9559 32.8914 47.8921 30.9867 47.9115 28.6178L47.9257 26.889C47.9452 24.52 46.0405 22.5838 43.6715 22.5643L33.6845 22.4824C31.3155 22.463 29.3793 24.3677 29.3599 26.7367Z" fill="white"/>
<path d="M43.5881 32.8759C44.2448 32.8358 44.887 32.6654 45.4773 32.3747C46.161 32.0343 46.7394 31.5148 47.151 30.8714C47.4123 30.4741 47.5991 30.0326 47.7022 29.5685C47.8076 29.0442 47.848 28.509 47.8225 27.9749C47.8439 27.3847 47.8255 26.7937 47.7674 26.206C47.6717 25.5813 47.4315 24.9876 47.0658 24.4721C46.6645 23.9019 46.128 23.44 45.5045 23.1279C44.881 22.8157 44.1899 22.6629 43.4928 22.6831L33.691 22.613C32.8662 22.6109 32.0592 22.853 31.3716 23.3086C30.6841 23.7643 30.1468 24.4132 29.8274 25.1737C29.6782 25.5399 29.5772 25.924 29.5267 26.3162C29.4966 26.6971 29.4966 27.098 29.4966 27.4939C29.4287 28.2501 29.488 29.0123 29.672 29.7489C29.8804 30.4131 30.2512 31.0149 30.7508 31.4997C31.2504 31.9844 31.8631 32.3369 32.5334 32.5251C33.154 32.6686 33.7914 32.7259 34.4276 32.6955L36.2166 32.7205L41.6137 32.8057L43.0819 32.8458H41.6137H34.4226C33.7666 32.881 33.109 32.8253 32.4682 32.6804C31.7569 32.4876 31.1055 32.1189 30.574 31.6084C30.0425 31.0979 29.6478 30.4619 29.4265 29.7589C29.2297 28.9989 29.162 28.2112 29.226 27.4287C29.226 27.0328 29.226 26.6369 29.2561 26.221C29.3062 25.8044 29.4124 25.3965 29.5718 25.0083C29.9071 24.2092 30.4678 23.5249 31.1854 23.0389C31.5534 22.7965 31.953 22.6059 32.373 22.4727C32.8016 22.3491 33.245 22.2851 33.691 22.2822L43.4928 22.3724C44.2284 22.3548 44.9568 22.5199 45.6128 22.8532C46.2687 23.1864 46.8317 23.6772 47.2512 24.2817C47.6326 24.8283 47.8814 25.4563 47.9779 26.1158C48.033 26.7155 48.0464 27.3183 48.0179 27.9198C48.0368 28.4683 47.988 29.0169 47.8726 29.5535C47.7604 30.0354 47.5599 30.4925 47.2813 30.9015C46.8447 31.5551 46.236 32.0754 45.5224 32.4048C45.0748 32.6172 44.5928 32.7478 44.0992 32.7907C43.9724 32.7999 43.8451 32.7999 43.7183 32.7907C43.6812 32.8277 43.6369 32.8567 43.5881 32.8759Z" fill="#263238"/>
<g opacity="0.4">
<path d="M33.8364 17.0498C34.2273 19.2196 36.3771 21.2792 38.577 21.169C39.6604 21.1205 40.6907 20.6862 41.4819 19.9446C42.2732 19.203 42.7732 18.2029 42.8916 17.125" fill="black"/>
</g>
<path d="M40.0153 20.7833C39.5451 21.0458 39.0155 21.1835 38.4769 21.1835C37.9384 21.1835 37.4088 21.0458 36.9385 20.7833L37.0136 12.0288C37.0228 11.6251 37.1903 11.2413 37.48 10.96C37.7697 10.6788 38.1584 10.5227 38.5621 10.5254C38.9666 10.5346 39.3512 10.7028 39.6326 10.9936C39.914 11.2844 40.0695 11.6743 40.0655 12.0789L40.0153 20.7833Z" fill="#455A64"/>
<path d="M39.0063 11.938L38.1094 11.9307L38.0791 15.6238L38.9761 15.6311L39.0063 11.938Z" fill="white"/>
<path d="M37.975 40.0961C37.94 40.0961 37.975 39.7353 37.8046 39.1239C37.574 38.2624 37.0626 37.5024 36.3514 36.9641C35.8323 36.5664 35.2216 36.3056 34.5753 36.2058C33.929 36.1059 33.268 36.1703 32.6532 36.3928C31.9245 36.6479 31.2902 37.118 30.8341 37.7408C30.3393 38.4031 30.0691 39.2061 30.0628 40.0327C30.0564 40.8594 30.3144 41.6664 30.799 42.3361C31.245 42.9652 31.8702 43.4455 32.593 43.7142C33.204 43.946 33.8632 44.0217 34.5107 43.9341C35.1583 43.8466 35.7738 43.5988 36.3013 43.2131C37.0275 42.6879 37.5568 41.9345 37.8046 41.0733C37.97 40.4669 37.955 40.1061 37.9901 40.1061C38.0042 40.1924 38.0042 40.2804 37.9901 40.3667C37.9889 40.6152 37.9569 40.8627 37.8949 41.1034C37.6817 42.0079 37.1609 42.8104 36.4216 43.3734C35.9833 43.7049 35.4833 43.9457 34.9508 44.0816C34.4184 44.2176 33.8642 44.2461 33.3206 44.1653C32.777 44.0846 32.255 43.8963 31.785 43.6115C31.3151 43.3267 30.9066 42.951 30.5835 42.5065C30.062 41.7902 29.7844 40.9254 29.7916 40.0394C29.7989 39.1534 30.0905 38.2932 30.6236 37.5855C30.9521 37.1436 31.3661 36.7722 31.8409 36.4934C32.3158 36.2146 32.8418 36.0341 33.3878 35.9625C33.9338 35.891 34.4885 35.93 35.0192 36.0771C35.5498 36.2241 36.0454 36.4764 36.4767 36.8188C37.2069 37.3926 37.7152 38.202 37.9149 39.1089C37.9691 39.3524 37.996 39.6011 37.9951 39.8506C38.0003 39.9329 37.9935 40.0156 37.975 40.0961Z" fill="#263238"/>
<path d="M31.8316 40.0474C31.8617 40.0474 32.2024 40.2278 32.7286 40.4884C33.2548 40.749 33.9764 41.1699 34.8433 41.666L34.6429 41.7763C34.6429 41.2451 34.6429 40.6688 34.6429 40.0725C34.6429 39.4761 34.6429 38.8999 34.6429 38.3637L34.8383 38.4789C33.9614 38.98 33.2147 39.3759 32.7036 39.6215C32.1924 39.867 31.8316 40.0474 31.8015 40.0474C31.7715 40.0474 32.0471 39.872 32.5733 39.5463C33.0994 39.2206 33.8511 38.7696 34.708 38.2684L34.9035 38.1582V38.3837C34.9035 38.9199 34.9035 39.4962 34.9035 40.0925C34.9035 40.6889 34.9035 41.2651 34.9035 41.8013V42.0268L34.708 41.9116C33.8561 41.4105 33.1295 40.9595 32.5933 40.5986C32.0571 40.2378 31.7915 40.0474 31.8316 40.0474Z" fill="#263238"/>
<path d="M38.7369 40.1023C38.7669 40.1023 38.7369 40.4631 38.9073 41.0744C39.1369 41.9378 39.6484 42.6997 40.3605 43.2393C40.881 43.6341 41.4917 43.8931 42.1374 43.9928C42.783 44.0926 43.4434 44.0299 44.0588 43.8105C44.8097 43.5386 45.46 43.0443 45.9228 42.3934C46.3857 41.7425 46.6392 40.966 46.6495 40.1674C46.6506 39.341 46.393 38.5349 45.9129 37.8623C45.4644 37.2367 44.8399 36.7587 44.1189 36.4892C43.5083 36.2555 42.8487 36.1789 42.2008 36.2665C41.5529 36.354 40.9373 36.6029 40.4106 36.9903C39.6844 37.5155 39.1551 38.2689 38.9073 39.1301C38.7369 39.7415 38.7519 40.1023 38.7218 40.0973C38.7086 40.0126 38.7086 39.9264 38.7218 39.8417C38.7276 39.5935 38.7595 39.3466 38.8171 39.105C39.038 38.1961 39.5698 37.3931 40.3204 36.835C40.8299 36.4443 41.4236 36.1783 42.0543 36.0582C42.8745 35.9055 43.7217 36.0042 44.4848 36.3413C45.2479 36.6784 45.8913 37.2383 46.3307 37.9475C46.7701 38.6567 46.9849 39.4821 46.947 40.3156C46.9092 41.149 46.6203 41.9515 46.1184 42.6179C45.6502 43.2448 45.0134 43.7257 44.2823 44.0043C43.5511 44.2829 42.7558 44.3478 41.9891 44.1914C41.2192 44.036 40.5107 43.6608 39.9495 43.1111C39.3884 42.5615 38.9985 41.8611 38.8271 41.0945C38.7693 40.8532 38.7407 40.6059 38.7419 40.3578C38.7289 40.2732 38.7272 40.1873 38.7369 40.1023Z" fill="#263238"/>
<path d="M44.8908 40.1513C44.8658 40.1513 44.52 39.9759 43.9988 39.7103C43.4777 39.4447 42.7511 39.0288 41.8841 38.5327L42.0796 38.4224C42.0796 38.9586 42.0796 39.5299 42.0796 40.1312C42.0796 40.7326 42.0796 41.3039 42.0796 41.835L41.8841 41.7248C42.7561 41.2237 43.5077 40.8278 44.0139 40.5823C44.52 40.3367 44.8908 40.1563 44.9159 40.1513C44.672 40.3356 44.4159 40.503 44.1492 40.6524C43.603 41.0032 42.8713 41.4291 42.0094 41.9303L41.814 42.0455V41.815C41.814 41.2788 41.814 40.7075 41.814 40.1062C41.814 39.5048 41.814 38.9336 41.814 38.4024V38.1719L42.0044 38.2871C42.8563 38.7883 43.5829 39.2443 44.1241 39.6001C44.3891 39.7704 44.645 39.9544 44.8908 40.1513Z" fill="#263238"/>
<path d="M38.1208 28.8362C38.1208 29.7181 37.3591 30.2593 36.1715 30.2493C34.9838 30.2393 34.2572 29.6881 34.2622 28.8061C34.2608 28.5446 34.3439 28.2896 34.4993 28.0791C34.6546 27.8687 34.8738 27.7141 35.1242 27.6385C34.919 27.5515 34.745 27.4044 34.6251 27.2165C34.5052 27.0287 34.4451 26.8089 34.4527 26.5861C34.4527 25.7743 35.1642 25.2782 36.2116 25.2832C37.2589 25.2883 37.9705 25.7844 37.9655 26.6162C37.9683 26.84 37.9032 27.0594 37.7789 27.2454C37.6546 27.4315 37.4768 27.5755 37.2689 27.6585C37.5191 27.7365 37.7373 27.8933 37.8909 28.1056C38.0444 28.3179 38.1251 28.5742 38.1208 28.8362ZM37.4243 28.8111C37.4243 28.2749 36.9633 27.9392 36.1915 27.9342C35.4198 27.9291 34.9588 28.2549 34.9588 28.7911C34.9588 29.3273 35.4048 29.6831 36.1765 29.6881C36.9482 29.6931 37.4193 29.3573 37.4243 28.8111ZM35.1392 26.6212C35.1392 27.1223 35.5301 27.403 36.1965 27.408C36.863 27.413 37.279 27.1173 37.284 26.6363C37.289 26.1552 36.858 25.8495 36.2066 25.8445C35.5551 25.8395 35.1442 26.1351 35.1392 26.6212Z" fill="#455A64"/>
<path d="M38.8021 29.7783C38.8011 29.7138 38.8137 29.6499 38.8391 29.5906C38.8644 29.5312 38.9019 29.4779 38.9491 29.434C38.9963 29.3901 39.0522 29.3565 39.1132 29.3356C39.1742 29.3146 39.239 29.3067 39.3032 29.3123C39.3669 29.3119 39.4299 29.325 39.4882 29.3507C39.5465 29.3765 39.5986 29.4142 39.6412 29.4616C39.6838 29.5089 39.7159 29.5648 39.7354 29.6254C39.7549 29.686 39.7613 29.7501 39.7542 29.8134C39.7562 29.875 39.7458 29.9363 39.7235 29.9937C39.7011 30.0511 39.6674 30.1034 39.6243 30.1474C39.5813 30.1915 39.5297 30.2263 39.4728 30.2499C39.4159 30.2734 39.3548 30.2852 39.2932 30.2845C39.2264 30.2883 39.1595 30.2777 39.0972 30.2535C39.0348 30.2292 38.9785 30.1918 38.9319 30.1437C38.8853 30.0957 38.8496 30.0382 38.8272 29.9752C38.8048 29.9121 38.7962 29.845 38.8021 29.7783Z" fill="#455A64"/>
<path d="M43.8034 28.8012C43.8034 29.638 43.192 30.3045 41.9543 30.3045C41.3089 30.315 40.68 30.1006 40.1753 29.6982L40.501 29.1519C40.9017 29.5016 41.4175 29.6908 41.9493 29.6831C42.6859 29.6831 43.1068 29.3524 43.1068 28.8262C43.1068 28.3 42.7711 27.9392 41.6486 27.9292H40.5411L40.8217 25.3936H43.5578V25.9999H41.403L41.2627 27.3329H41.8039C43.2471 27.3329 43.8084 27.9392 43.8034 28.8012Z" fill="#455A64"/>
<path d="M42.9115 17.1246C42.9395 17.2905 42.9395 17.4598 42.9115 17.6257C42.8314 18.1028 42.6614 18.5602 42.4104 18.9737C42.049 19.598 41.5439 20.1272 40.9371 20.5172C40.192 21.0056 39.3224 21.2699 38.4315 21.2789C37.5383 21.2607 36.6736 20.9608 35.961 20.4219C35.3779 20.0086 34.8823 19.4841 34.5027 18.8785C34.2428 18.4745 34.0499 18.0311 33.9314 17.5656C33.8782 17.404 33.8528 17.2345 33.8563 17.0645C34.0517 17.6731 34.3246 18.2542 34.6681 18.7933C35.0496 19.3654 35.5359 19.8602 36.1013 20.2516C36.7746 20.7483 37.5849 21.0249 38.4215 21.0433C39.1863 21.0248 39.9347 20.8175 40.6001 20.4398C41.2654 20.0621 41.827 19.5258 42.235 18.8785C42.5549 18.3348 42.7835 17.7423 42.9115 17.1246Z" fill="#263238"/>
<path d="M82.0943 89.6883C79.6388 65.6697 76.9879 49.7942 84.9707 26.4521L101.337 30.0602C108.448 52.4151 108.022 76.3685 107.531 99.8209C107.486 101.936 107.411 104.166 106.293 105.965C104.058 109.558 98.992 109.728 94.7676 109.472C90.9941 109.262 83.5475 112.264 80.9217 109.543C78.4762 107.022 82.4451 93.1961 82.0943 89.6883Z" fill="#263238"/>
<path d="M162.383 94.8391L147.971 90.2739L133.915 89.873L94.4015 94.789L70.418 154.467L79.7438 195.935L73.6001 217.418H156.61C156.61 217.418 165.169 117.159 164.929 116.192C164.688 115.225 162.373 94.8441 162.373 94.8441" fill="#455A64"/>
<path d="M94.4015 94.79C94.4015 94.79 75.0884 97.2004 66.9753 108.917C60.7263 117.937 45.4923 147.623 45.4923 147.623L34.8837 142.266C34.8837 142.266 28.1136 164.606 27.9282 168.825C27.6425 175.23 28.2739 189.201 33.4405 193.535C39.524 198.642 50.288 193.285 53.6155 190.669C58.0053 187.211 72.4826 160.437 72.4826 160.437L94.4015 94.79Z" fill="#455A64"/>
<path d="M79.7536 195.935C79.7536 195.935 79.7536 195.87 79.6984 195.74C79.6433 195.61 79.6082 195.409 79.5481 195.164L78.9969 192.944C78.5308 190.994 77.8593 188.203 77.0325 184.761C76.2056 181.318 75.2285 177.184 74.1461 172.613C73.6048 170.328 73.0386 167.928 72.4473 165.442C72.3069 164.821 72.1366 164.2 72.0213 163.558C71.9061 162.917 71.7808 162.27 71.6755 161.619C71.445 160.316 71.2496 158.988 71.0792 157.64C70.7335 155.016 70.6195 152.366 70.7384 149.722C70.8706 147.258 71.25 144.814 71.871 142.426C72.949 138.399 74.3414 134.464 76.0353 130.655C77.4534 127.392 78.7163 124.807 79.5882 123.023L80.5904 120.973C80.7007 120.748 80.7909 120.572 80.861 120.442C80.8892 120.381 80.9227 120.322 80.9613 120.267C80.9613 120.267 80.9613 120.332 80.8811 120.457L80.6355 120.998C80.405 121.486 80.081 122.176 79.6634 123.068C78.8215 124.867 77.5837 127.463 76.1856 130.725C74.5251 134.537 73.1549 138.468 72.0865 142.486C71.4796 144.861 71.1087 147.29 70.979 149.737C70.8646 152.367 70.9803 155.001 71.3248 157.61C71.4951 158.946 71.6922 160.268 71.9161 161.574C72.0213 162.225 72.1466 162.867 72.2568 163.503C72.3671 164.139 72.5425 164.766 72.6828 165.387C73.2641 167.893 73.8303 170.278 74.3615 172.563C75.4289 177.138 76.366 181.253 77.1979 184.72C78.0297 188.188 78.6361 190.969 79.0821 192.919C79.2975 193.881 79.4679 194.628 79.5832 195.154C79.6333 195.399 79.6784 195.59 79.7085 195.735C79.7303 195.8 79.7454 195.867 79.7536 195.935Z" fill="#263238"/>
<path d="M52.1372 137.7C52.1606 137.732 52.1776 137.767 52.1873 137.805L52.3126 138.126C52.4457 138.545 52.5512 138.972 52.6283 139.404C52.8719 140.999 52.9625 142.613 52.8989 144.225C52.8989 146.264 52.6283 148.685 52.7436 151.361C52.9057 154.27 53.3046 157.161 53.9362 160.005C55.2191 166.074 56.8126 171.506 57.0933 175.6C57.2466 177.205 57.2466 178.821 57.0933 180.426C57.0535 180.869 56.9849 181.309 56.8878 181.743C56.8477 181.874 56.8176 181.979 56.7926 182.069C56.7836 182.107 56.7701 182.144 56.7525 182.179C56.7459 182.141 56.7459 182.102 56.7525 182.064C56.7525 181.974 56.7926 181.864 56.8227 181.728C56.9028 181.301 56.9597 180.869 56.993 180.436C57.1044 178.836 57.0776 177.23 56.9129 175.635C56.5821 171.576 54.9685 166.159 53.6807 160.1C53.0454 157.242 52.6515 154.335 52.503 151.411C52.4028 148.705 52.6734 146.289 52.7135 144.26C52.7948 142.657 52.7328 141.051 52.5281 139.459C52.4648 139.028 52.3761 138.602 52.2625 138.181C52.2224 138.051 52.1923 137.946 52.1623 137.856C52.1487 137.805 52.1403 137.753 52.1372 137.7Z" fill="#263238"/>
<path d="M62.7907 138.799C62.7255 138.829 61.568 136.604 60.2099 133.823C58.8519 131.042 57.7995 128.767 57.8647 128.737C57.9298 128.707 59.0824 130.932 60.4454 133.708C61.8085 136.484 62.8558 138.769 62.7907 138.799Z" fill="white"/>
<path d="M71.0645 133.236C71.1247 133.281 68.8295 136.468 65.9431 140.352C63.0567 144.235 60.6713 147.367 60.6162 147.312C60.5611 147.257 62.8462 144.085 65.7326 140.196C68.6191 136.308 71.0094 133.196 71.0645 133.236Z" fill="white"/>
<path d="M70.2878 144.737C69.7691 144.195 69.3151 143.595 68.9348 142.948C68.483 142.35 68.1029 141.7 67.8022 141.014C68.3209 141.556 68.7749 142.156 69.1553 142.803C69.607 143.401 69.9871 144.05 70.2878 144.737Z" fill="white"/>
<path d="M81.4427 134.609C81.5028 134.639 80.255 137.174 78.6515 140.266C77.0479 143.358 75.6899 145.839 75.6448 145.809C75.5997 145.779 76.8324 143.238 78.436 140.146C80.0396 137.054 81.3976 134.574 81.4427 134.609Z" fill="white"/>
<path d="M86.8095 144.721C86.4851 144.555 86.1877 144.34 85.9275 144.085C85.2629 143.516 84.6508 142.889 84.0984 142.211C83.5326 141.538 83.0294 140.815 82.5951 140.051C82.3944 139.742 82.2423 139.404 82.144 139.049C82.2142 139.009 82.9859 140.472 84.2738 142.03C85.5617 143.589 86.8596 144.661 86.8095 144.721Z" fill="white"/>
<path d="M95.1434 133.021C94.7888 133.403 94.4069 133.76 94.0008 134.088C93.2792 134.729 92.282 135.621 91.2046 136.624C90.1272 137.626 89.2001 138.558 88.4835 139.229C88.1301 139.614 87.7463 139.969 87.3359 140.292C87.6339 139.865 87.9693 139.466 88.3382 139.099C88.9946 138.392 89.9317 137.44 91.0142 136.433C92.0966 135.426 93.1088 134.554 93.8655 133.928C94.2599 133.583 94.688 133.279 95.1434 133.021Z" fill="white"/>
<path d="M100.485 148.269C100.43 148.314 98.6007 146.265 96.3958 143.644C94.1909 141.023 92.452 138.898 92.5071 138.853C92.5623 138.808 94.3913 140.858 96.5963 143.479C98.8012 146.099 100.535 148.219 100.485 148.269Z" fill="white"/>
<path d="M106.333 136.052C105.512 137.03 104.625 137.951 103.677 138.808C102.791 139.728 101.843 140.586 100.841 141.379C101.661 140.409 102.547 139.496 103.492 138.648C104.379 137.719 105.328 136.852 106.333 136.052Z" fill="white"/>
<path d="M115.568 146.665C115.103 146.419 114.665 146.125 114.26 145.788C112.242 144.246 110.439 142.441 108.898 140.421C108.561 140.017 108.267 139.579 108.021 139.113C108.379 139.49 108.714 139.889 109.024 140.306C109.64 141.053 110.527 142.055 111.564 143.097C112.602 144.14 113.609 145.021 114.356 145.643C114.782 145.956 115.187 146.298 115.568 146.665Z" fill="white"/>
<path d="M121.237 136.583C120.972 136.883 120.682 137.159 120.37 137.41C119.819 137.911 119.072 138.597 118.28 139.414C117.488 140.231 116.817 140.978 116.331 141.534C116.088 141.852 115.816 142.148 115.519 142.416C115.702 142.056 115.927 141.72 116.191 141.414C116.78 140.646 117.416 139.915 118.095 139.224C118.774 138.534 119.494 137.885 120.25 137.28C120.547 137.005 120.879 136.771 121.237 136.583Z" fill="white"/>
<path d="M128.963 148.169C128.913 148.219 127.285 146.585 125.325 144.526C123.366 142.466 121.818 140.747 121.878 140.697C123.151 141.851 124.366 143.068 125.516 144.345C127.47 146.415 129.014 148.124 128.963 148.169Z" fill="white"/>
<path d="M133.999 134.258C133.672 134.669 133.315 135.056 132.932 135.415C132.266 136.117 131.353 137.094 130.391 138.217C129.429 139.339 128.602 140.391 128.011 141.163C127.708 141.597 127.373 142.007 127.009 142.391C127.244 141.92 127.523 141.472 127.841 141.053C128.397 140.251 129.204 139.174 130.171 138.046C131.138 136.919 132.075 135.957 132.782 135.285C133.153 134.903 133.561 134.559 133.999 134.258Z" fill="white"/>
<path d="M139.677 145.974C139.281 145.741 138.91 145.469 138.569 145.162C137.908 144.621 137.021 143.839 136.064 142.932C135.107 142.025 134.33 141.153 133.769 140.506C133.446 140.176 133.162 139.809 132.922 139.414C133.28 139.711 133.615 140.034 133.924 140.381C134.51 140.998 135.332 141.839 136.264 142.746C137.196 143.654 138.058 144.445 138.685 145.022C139.043 145.309 139.375 145.628 139.677 145.974Z" fill="white"/>
<path d="M149.675 134.138C149.391 134.549 149.065 134.93 148.703 135.275C148.067 135.952 147.155 136.849 146.087 137.781C145.02 138.713 144.008 139.49 143.256 140.026C142.863 140.337 142.44 140.609 141.993 140.838C142.354 140.491 142.739 140.171 143.146 139.881C143.867 139.309 144.86 138.507 145.917 137.585C146.974 136.663 147.921 135.786 148.573 135.15C148.916 134.787 149.284 134.449 149.675 134.138Z" fill="white"/>
<path d="M158.615 135.325C158.665 135.745 158.665 136.169 158.615 136.588C158.58 137.37 158.489 138.447 158.329 139.63C158.169 140.812 157.968 141.87 157.798 142.637C157.732 143.055 157.616 143.464 157.452 143.854C157.47 143.433 157.525 143.013 157.618 142.601C157.743 141.835 157.913 140.772 158.074 139.595C158.234 138.417 158.349 137.35 158.434 136.588C158.45 136.162 158.511 135.739 158.615 135.325Z" fill="white"/>
<g opacity="0.3">
<path d="M107.28 147.207C106.238 146.009 105.14 144.776 103.682 144.145C101.677 143.283 99.3874 143.699 97.2526 144.145C88.3628 145.989 79.5097 148.017 70.6934 150.228L71.6004 151.186C74.4317 154.879 79.7686 155.335 84.414 155.099C89.0593 154.864 94.1307 154.368 97.9792 156.984C101.399 159.419 104.363 162.438 106.734 165.903C113.419 175.866 118.209 181.017 125.661 187.537C133.443 194.352 140.193 202.069 150.396 200.29C136.639 182.106 122.267 164.412 107.28 147.207Z" fill="black"/>
</g>
<path d="M34.6832 143.704L35.8558 139.269C35.8558 139.269 24.5556 129.873 26.4599 125.829C26.6274 125.192 26.9977 124.627 27.5148 124.219C28.032 123.812 28.6679 123.583 29.3263 123.569C29.3263 123.569 28.0183 120.833 29.8274 118.813C31.6364 116.794 33.6359 117.626 33.6359 117.626C33.6359 117.626 32.6838 114.769 33.2801 113.461C33.3786 113.244 33.4942 113.034 33.6259 112.835C34.0069 112.254 34.5277 111.778 35.1406 111.45C35.7535 111.123 36.4388 110.955 37.1337 110.961H38.0557L36.1766 104.146C35.9268 103.239 35.9373 102.28 36.2066 101.379L36.5574 100.197C36.8634 99.2167 37.529 98.3887 38.4205 97.8792C39.312 97.3698 40.3633 97.2167 41.3631 97.4507C42.7913 97.8015 43.8687 98.4229 43.8687 99.5454V100.142L41.4734 101.45C41.4734 101.45 45.1315 110.585 45.4873 111.086C45.8431 111.587 49.4161 115.847 49.4161 115.847C49.4161 115.847 49.7719 110.495 52.1472 110.134C54.5225 109.773 55.3594 111.206 55.0036 112.279C54.6478 113.351 54.6879 114.719 55.0837 116.353C55.0837 116.353 53.8159 127.979 53.9312 131.071C54.0464 134.163 52.6233 134.163 52.6233 134.163C52.6233 134.163 52.3877 138.562 51.5559 140.943C50.724 143.323 43.112 152.118 39.6593 151.176C36.2066 150.234 34.6832 143.704 34.6832 143.704Z" fill="#FFBDA7"/>
<path d="M29.2266 123.374C29.3268 123.397 29.4242 123.431 29.5172 123.474L30.329 123.805L33.3057 125.063L37.7005 126.957L40.2963 128.085C40.764 128.272 41.2207 128.487 41.6643 128.726C42.153 128.975 42.542 129.383 42.7668 129.884C42.8769 130.192 42.8625 130.532 42.7267 130.831C42.5892 131.112 42.3689 131.345 42.0953 131.497C41.5885 131.782 41.026 131.953 40.4466 131.998C37.6962 132.349 34.9066 131.795 32.4989 130.42H32.5991C31.7997 131.19 30.7509 131.649 29.6425 131.713C29.5646 131.727 29.4848 131.727 29.407 131.713C29.407 131.713 29.7327 131.713 30.304 131.547C31.1238 131.333 31.8735 130.908 32.4788 130.315L32.5239 130.269L32.579 130.299C34.049 131.102 35.6606 131.613 37.3246 131.803C38.3525 131.919 39.3907 131.911 40.4165 131.778C40.957 131.738 41.483 131.584 41.96 131.327C42.1873 131.197 42.3719 131.004 42.4912 130.771C42.5984 130.533 42.6092 130.264 42.5212 130.019C42.3075 129.583 41.9549 129.23 41.519 129.017C41.0868 128.778 40.6399 128.567 40.181 128.385L37.5952 127.243L33.2205 125.293L30.2789 123.96L29.4871 123.584C29.3902 123.528 29.3024 123.457 29.2266 123.374Z" fill="#F0997A"/>
<path d="M32.9195 117.489C33.0078 117.498 33.095 117.514 33.1801 117.539C33.4251 117.593 33.6661 117.664 33.9017 117.75C34.7725 118.068 35.5993 118.496 36.3622 119.023C38.3416 120.275 40.5966 122.701 43.9541 123.954C44.7681 124.291 45.524 124.755 46.1941 125.327C46.8097 125.899 47.2274 126.652 47.3868 127.477C47.4689 127.852 47.4604 128.241 47.3619 128.612C47.2634 128.984 47.0778 129.326 46.8205 129.611C46.3398 130.077 45.7007 130.344 45.0315 130.358C44.4937 130.374 43.9584 130.28 43.458 130.082C43.086 129.938 42.7272 129.762 42.3856 129.556C42.1 129.391 41.8845 129.256 41.7492 129.155C41.6727 129.113 41.602 129.06 41.5387 129C41.8438 129.142 42.1415 129.299 42.4307 129.471C42.7778 129.656 43.1379 129.815 43.5081 129.947C43.9894 130.121 44.5004 130.198 45.0115 130.173C45.6277 130.15 46.2126 129.896 46.6501 129.461C46.8822 129.201 47.0488 128.889 47.136 128.552C47.2232 128.215 47.2284 127.861 47.1512 127.522C46.9997 126.751 46.6065 126.049 46.0287 125.517C45.3745 124.968 44.6413 124.52 43.8539 124.189C43.0504 123.857 42.2673 123.477 41.5087 123.052C40.8123 122.636 40.1429 122.178 39.5042 121.679C38.2815 120.737 37.2291 119.829 36.267 119.173C35.5245 118.638 34.7224 118.19 33.8766 117.84C33.2653 117.6 32.9145 117.519 32.9195 117.489Z" fill="#F0997A"/>
<path d="M37.1134 111.087C37.2158 111.117 37.3136 111.161 37.404 111.217L38.2008 111.643L41.1123 113.247L45.4119 115.652C46.2919 116.09 47.1079 116.647 47.8373 117.306C48.2391 117.672 48.5474 118.13 48.7365 118.64C48.9257 119.15 48.9902 119.697 48.9247 120.237C48.8213 120.794 48.5162 121.294 48.0678 121.64C47.6257 121.961 47.1074 122.159 46.5645 122.217C45.5649 122.297 44.5656 122.06 43.7081 121.54C42.8813 121.089 42.1647 120.568 41.4631 120.142C40.7615 119.716 40.1 119.33 39.4586 119.015C38.4762 118.51 37.4409 118.115 36.3717 117.837C35.615 117.652 35.1841 117.601 35.1841 117.576C35.2907 117.565 35.3982 117.565 35.5048 117.576C35.8048 117.607 36.1026 117.655 36.3968 117.722C37.485 117.963 38.54 118.335 39.5388 118.829C40.1752 119.135 40.8517 119.506 41.5433 119.937C42.2348 120.368 42.9765 120.874 43.7833 121.31C44.5992 121.802 45.55 122.023 46.4993 121.941C46.9891 121.886 47.4557 121.703 47.8523 121.41C48.2503 121.106 48.5202 120.665 48.609 120.172C48.6691 119.674 48.6095 119.169 48.4352 118.698C48.2609 118.227 47.9769 117.805 47.6068 117.466C46.8945 116.824 46.101 116.278 45.2465 115.843L40.972 113.387L38.1006 111.708L37.3289 111.242C37.2547 111.194 37.1828 111.142 37.1134 111.087Z" fill="#F0997A"/>
<path d="M43.8236 99.5605C43.8236 99.5605 43.8637 99.6507 43.8888 99.8311C43.8803 99.9432 43.8602 100.054 43.8286 100.162C43.7701 100.297 43.6961 100.425 43.6081 100.543C43.0496 101.162 42.3238 101.605 41.5185 101.821C40.7358 102.072 39.9142 102.181 39.0931 102.141C38.7463 102.142 38.4039 102.065 38.0908 101.916C38.0908 101.871 38.4767 101.956 39.0931 101.956C39.8863 101.944 40.6732 101.813 41.4283 101.57C42.1808 101.361 42.8696 100.969 43.4327 100.427C43.5207 100.329 43.598 100.222 43.6633 100.107C43.7033 99.9965 43.7334 99.9013 43.7585 99.8261C43.7605 99.7339 43.7828 99.6433 43.8236 99.5605Z" fill="#F0997A"/>
<path d="M46.5898 138.648C46.1919 137.368 45.5968 136.157 44.8259 135.06C43.9852 134.015 42.9859 133.109 41.8643 132.374C42.248 132.493 42.6089 132.676 42.9316 132.915C43.7419 133.459 44.4537 134.137 45.0363 134.92C45.6195 135.696 46.0683 136.565 46.3643 137.49C46.5043 137.861 46.5805 138.252 46.5898 138.648Z" fill="#F0997A"/>
<path d="M43.2474 141.559C43.2474 141.559 43.1522 141.655 42.9467 141.775C42.6567 141.945 42.3471 142.08 42.0247 142.176C40.951 142.511 39.7987 142.499 38.7323 142.141C37.6672 141.764 36.747 141.063 36.1015 140.136C35.9015 139.862 35.7334 139.566 35.6004 139.254C35.541 139.144 35.5052 139.023 35.4951 138.898C35.5402 138.898 35.7256 139.369 36.2318 140.026C36.8841 140.883 37.7766 141.526 38.7957 141.874C39.8148 142.222 40.9144 142.259 41.9545 141.98C42.7764 141.795 43.2274 141.519 43.2474 141.559Z" fill="#F0997A"/>
<path d="M50.2279 135.606C49.9357 135.702 49.6253 135.73 49.3208 135.687C48.5795 135.634 47.8613 135.406 47.2262 135.02C46.591 134.636 46.0553 134.107 45.6627 133.477C45.4844 133.226 45.3661 132.938 45.3169 132.635C45.357 132.635 45.4973 132.935 45.818 133.376C46.2333 133.947 46.758 134.429 47.3615 134.795C47.9687 135.158 48.6411 135.4 49.3409 135.506C49.6383 135.521 49.9346 135.555 50.2279 135.606Z" fill="#F0997A"/>
<path d="M52.3777 126.731C52.0026 126.805 51.6159 126.795 51.2452 126.701C50.3334 126.531 49.4872 126.11 48.802 125.485C48.1167 124.86 47.6196 124.056 47.3666 123.164C47.2384 122.804 47.1922 122.421 47.2313 122.041C47.2764 122.041 47.3164 122.467 47.5419 123.108C47.8355 123.942 48.3274 124.692 48.9751 125.293C49.6313 125.885 50.4229 126.307 51.2803 126.521C51.9317 126.686 52.3777 126.686 52.3777 126.731Z" fill="#F0997A"/>
<path d="M40.6265 102.241L50.4534 122.11C50.4534 122.11 53.4601 125.343 53.7908 127.748L58.0754 133.396L61.0821 131.496L59.0225 124.872C59.0225 124.872 55.9607 121.685 55.9607 119.069L44.7657 100.146L40.6265 102.241Z" fill="#BA68C8"/>
<path d="M55.9856 119.073C55.2177 119.8 54.3566 120.422 53.4249 120.922C52.5352 121.498 51.5638 121.935 50.5435 122.22C50.5134 122.145 51.8013 121.579 53.2946 120.717C54.788 119.855 55.9405 119.013 55.9856 119.073Z" fill="#263238"/>
<path d="M58.9673 124.877C58.169 125.458 57.3224 125.969 56.4367 126.405C55.5928 126.919 54.7038 127.356 53.7808 127.708C54.5707 127.128 55.4089 126.617 56.2864 126.18C57.139 125.666 58.0363 125.23 58.9673 124.877Z" fill="#263238"/>
<path d="M47.7871 105.223C47.1117 105.745 46.3866 106.2 45.6223 106.581C44.8982 107.035 44.1291 107.413 43.3271 107.708C44.0019 107.182 44.7291 106.727 45.497 106.35C46.2191 105.896 46.9866 105.518 47.7871 105.223Z" fill="#263238"/>
<path d="M51.846 115.551L51.9362 115.511C52.1744 115.397 52.4479 115.381 52.6976 115.467C52.9472 115.553 53.1526 115.735 53.2692 115.972L55.4741 120.302C55.5366 120.421 55.5745 120.551 55.5856 120.685C55.5966 120.819 55.5807 120.953 55.5386 121.081C55.4965 121.209 55.4292 121.327 55.3406 121.428C55.2521 121.529 55.1441 121.611 55.0231 121.67C54.9063 121.731 54.7787 121.768 54.6475 121.779C54.5162 121.791 54.384 121.777 54.2583 121.737C54.1326 121.698 54.016 121.634 53.9151 121.549C53.8142 121.464 53.7309 121.36 53.6701 121.244L51.375 116.954C51.3074 116.832 51.2659 116.698 51.2532 116.559C51.2405 116.42 51.2568 116.281 51.3011 116.149C51.3455 116.017 51.4168 115.895 51.5106 115.792C51.6044 115.689 51.7187 115.607 51.846 115.551Z" fill="#455A64"/>
<path d="M131.775 188.082L112.231 162.069L126.764 147.116L144.904 163.573L149.67 135.325L158.279 95.7363C158.279 95.7363 175.653 101.504 175.653 117.099C175.653 132.694 169.79 181.162 165.876 188.759C164.438 191.55 163.175 194.577 161.266 196.657C157.979 200.235 153.659 201.923 149.595 201.126C138.134 198.861 131.775 188.082 131.775 188.082Z" fill="#455A64"/>
<path d="M56.3868 140.286C56.3868 140.286 56.3266 137.395 59.9247 137.46C59.9247 137.46 62.2398 137.52 65.1313 141.188L67.6369 142.085L58.1407 133.406C58.1407 133.406 59.9598 130.971 61.9542 131.547C63.9487 132.123 65.0661 134.889 67.251 135.721C69.4359 136.553 72.3324 138.873 72.3324 138.873L78.7567 139.966L79.338 139.259L66.2538 126.175C66.2538 126.175 68.4487 123.103 71.0846 125.173C73.7205 127.242 77.7294 131.296 78.5011 131.878C79.2729 132.459 82.1643 134.448 82.1643 134.448L87.1755 135.345L90.9038 133.997C90.9038 133.997 89.9417 131.106 92.5725 130.459C95.2034 129.813 101.187 132.519 101.187 132.519C102.702 131.458 104.514 130.904 106.363 130.935C109.58 130.935 112.056 133.767 112.246 135.947C112.437 138.127 105.732 146.656 105.732 146.656L102.991 148.324L86.083 150.955L82.931 150.634L75.3792 152.113L60.2253 147.167C60.2253 147.167 58.8773 144.661 61.3178 144.21L56.3868 140.286Z" fill="#FFBDA7"/>
<path d="M83.6173 144.45C83.6173 144.475 83.3066 144.37 82.7403 144.32C81.9389 144.285 81.1373 144.386 80.37 144.621C79.3678 144.876 78.2553 145.342 76.9173 145.623C75.4556 145.902 73.9516 145.871 72.5025 145.533C70.959 145.227 69.5409 144.761 68.233 144.43C67.0866 144.114 65.9114 143.915 64.7251 143.834C63.9232 143.793 63.1194 143.859 62.3348 144.029C61.7836 144.159 61.4879 144.28 61.4779 144.255C61.4679 144.23 61.5481 144.21 61.6834 144.154C61.8867 144.066 62.096 143.993 62.3098 143.934C63.0979 143.72 63.9138 143.625 64.7301 143.653C65.9358 143.702 67.1323 143.883 68.2981 144.195C69.6161 144.52 71.0342 144.976 72.5576 145.277C73.9751 145.607 75.4448 145.644 76.8773 145.387C78.1852 145.112 79.3277 144.661 80.33 144.425C81.1187 144.207 81.9402 144.132 82.7554 144.205C82.9746 144.235 83.1909 144.283 83.4018 144.35C83.4786 144.372 83.5513 144.405 83.6173 144.45Z" fill="#F0997A"/>
<path d="M79.6782 143.874C78.9578 143.704 78.2258 143.587 77.4883 143.523C76.6884 143.477 75.8858 143.527 75.098 143.673C74.6312 143.76 74.1695 143.872 73.7149 144.009C73.2111 144.181 72.6754 144.239 72.1464 144.18C71.1667 143.953 70.2225 143.594 69.3401 143.112L67.1703 142.025C66.6827 141.779 66.1806 141.563 65.6669 141.378C65.3061 141.243 65.0957 141.213 65.1007 141.188C65.1057 141.163 65.1558 141.188 65.256 141.188C65.4051 141.204 65.5526 141.233 65.697 141.273C66.2257 141.427 66.7417 141.621 67.2404 141.854C67.8719 142.135 68.6085 142.501 69.4353 142.892C70.3016 143.339 71.2209 143.676 72.1715 143.894C72.6667 143.946 73.1674 143.892 73.6397 143.734C74.1003 143.596 74.5689 143.488 75.0429 143.408C75.8505 143.271 76.6722 143.237 77.4883 143.308C78.0371 143.355 78.5794 143.46 79.1069 143.618C79.309 143.675 79.5015 143.761 79.6782 143.874Z" fill="#F0997A"/>
<path d="M82.1537 135.521C82.2038 135.581 81.5574 136.137 81.0212 137.024C80.485 137.911 80.2695 138.733 80.1943 138.718C80.2087 138.062 80.418 137.425 80.7957 136.889C81.0982 136.305 81.572 135.827 82.1537 135.521Z" fill="#F0997A"/>
<path d="M88.0425 139.65C87.9623 139.65 88.0425 138.798 87.9022 137.786C87.7618 136.774 87.401 135.997 87.4812 135.962C87.8689 136.482 88.1032 137.1 88.1577 137.746C88.296 138.379 88.2561 139.038 88.0425 139.65Z" fill="#F0997A"/>
<path d="M96.2358 138.648C95.7369 138.898 95.2192 139.107 94.6874 139.275C93.7252 139.631 92.3772 140.097 90.8989 140.618C90.5331 140.748 90.1673 140.863 89.8215 140.999L88.8193 141.39L87.1405 142.046C86.6301 142.269 86.1021 142.45 85.562 142.587C86.0433 142.31 86.5461 142.072 87.0654 141.876L88.7341 141.169L89.7363 140.758C90.0821 140.623 90.4479 140.503 90.8187 140.372C92.3221 139.871 93.6551 139.41 94.6323 139.099C95.1539 138.906 95.6901 138.756 96.2358 138.648Z" fill="#F0997A"/>
<path d="M104.118 141.454C103.92 141.413 103.725 141.354 103.537 141.278L101.984 140.717C100.671 140.246 98.8567 139.599 96.8322 138.938C95.8299 138.597 94.8277 138.322 93.9808 137.976C93.1982 137.687 92.4835 137.24 91.8811 136.663C91.4775 136.27 91.172 135.788 90.9891 135.255C90.9102 135.063 90.8759 134.856 90.8889 134.648C90.8889 134.648 90.939 134.859 91.0844 135.22C91.2978 135.718 91.6137 136.165 92.0114 136.533C92.6112 137.07 93.3111 137.484 94.071 137.75C94.9229 138.076 95.9051 138.347 96.9174 138.687C98.9218 139.354 100.751 140.03 102.049 140.547C102.695 140.802 103.216 141.023 103.552 141.183C103.753 141.246 103.943 141.337 104.118 141.454Z" fill="#F0997A"/>
<path d="M106.348 133.727C105.938 133.763 105.524 133.729 105.125 133.627C104.157 133.435 103.2 133.191 102.259 132.895C101.156 132.554 100.169 132.204 99.4675 131.923C99.0772 131.803 98.7035 131.635 98.355 131.422C98.7572 131.499 99.1515 131.613 99.5326 131.763L102.334 132.66C103.431 132.995 104.434 133.281 105.165 133.461C105.897 133.642 106.353 133.692 106.348 133.727Z" fill="#F0997A"/>
<path d="M102.675 148.37L113.138 161.294L124.95 148.986L111.555 134.354L102.675 148.37Z" fill="#FFBDA7"/>
<path d="M170.466 168.414C170.466 168.414 170.466 168.55 170.411 168.815C170.356 169.081 170.305 169.477 170.225 169.988C170.06 170.99 169.809 172.534 169.453 174.498C169.098 176.462 168.632 178.828 167.98 181.564C167.274 184.673 166.334 187.726 165.169 190.694C164.484 192.428 163.559 194.057 162.423 195.535C161.154 197.116 159.605 198.45 157.853 199.469C155.968 200.552 153.855 201.175 151.684 201.288C149.38 201.363 147.087 200.93 144.969 200.02C142.748 199.076 140.694 197.779 138.885 196.181C137.009 194.516 135.28 192.692 133.719 190.729C132.112 188.748 130.523 186.702 128.953 184.59C127.383 182.479 125.784 180.346 124.157 178.191L112.131 162.155L112.065 162.07L112.141 161.99L126.673 147.047L126.743 146.977L126.813 147.032C127.816 147.818 128.678 148.63 129.569 149.422L132.15 151.757L136.936 156.137L144.954 163.528C147.544 165.397 149.504 168.01 150.571 171.02C150.726 171.48 150.847 171.951 150.932 172.428C151.012 172.771 151.064 173.12 151.088 173.471C151.088 173.746 151.123 173.972 151.133 174.112C151.143 174.252 151.133 174.328 151.133 174.328C151.133 174.328 151.133 174.257 151.103 174.112C151.072 173.967 151.067 173.751 151.037 173.476C151.008 173.126 150.951 172.779 150.867 172.438C150.773 171.966 150.648 171.501 150.491 171.045C150.05 169.779 149.429 168.582 148.647 167.492C148.16 166.798 147.617 166.144 147.023 165.538C146.362 164.844 145.639 164.212 144.864 163.649L136.846 156.292L132.055 151.903L129.464 149.572C128.582 148.791 127.68 147.959 126.733 147.207H126.873L112.341 162.17V162.01L124.368 178.046C125.992 180.207 127.59 182.34 129.164 184.445C130.737 186.55 132.322 188.594 133.919 190.579C135.479 192.527 137.202 194.337 139.071 195.991C140.858 197.57 142.889 198.851 145.084 199.784C147.168 200.686 149.425 201.117 151.694 201.047C153.822 200.944 155.897 200.34 157.747 199.283C159.478 198.285 161.007 196.973 162.257 195.415C163.388 193.955 164.309 192.344 164.994 190.629C166.165 187.672 167.113 184.632 167.83 181.534C168.496 178.803 168.972 176.427 169.333 174.488C169.694 172.549 169.975 171.03 170.155 169.978C170.245 169.477 170.315 169.081 170.366 168.81C170.416 168.54 170.466 168.414 170.466 168.414Z" fill="#263238"/>
<path d="M150.937 117.28C150.943 117.32 150.943 117.361 150.937 117.401C150.937 117.496 150.897 117.606 150.872 117.746C150.807 118.072 150.712 118.513 150.597 119.069C150.351 120.212 150.005 121.871 149.594 123.925C148.768 128.029 147.725 133.717 146.808 140.036C145.891 146.355 145.28 152.113 144.909 156.282C144.719 158.367 144.578 160.056 144.488 161.223C144.443 161.79 144.403 162.226 144.378 162.566C144.378 162.707 144.353 162.822 144.343 162.917C144.345 162.957 144.345 162.997 144.343 163.037C144.334 162.998 144.334 162.957 144.343 162.917C144.343 162.822 144.343 162.707 144.343 162.566C144.343 162.236 144.378 161.785 144.403 161.218C144.463 160.046 144.573 158.357 144.739 156.267C145.064 152.093 145.651 146.33 146.563 140.001C147.475 133.672 148.567 127.974 149.429 123.885C149.865 121.835 150.236 120.182 150.516 119.044C150.652 118.493 150.757 118.042 150.837 117.736L150.927 117.396C150.922 117.32 150.937 117.28 150.937 117.28Z" fill="#263238"/>
<path d="M158.033 147.408C158.033 147.408 157.893 147.327 157.667 147.142C157.442 146.957 157.126 146.676 156.745 146.325C155.754 145.4 154.811 144.425 153.919 143.404C153.03 142.386 152.194 141.324 151.413 140.221C151.113 139.801 150.877 139.45 150.722 139.219C150.63 139.097 150.557 138.962 150.506 138.818C150.885 139.232 151.239 139.669 151.564 140.126C152.2 140.943 153.092 142.061 154.134 143.248C155.177 144.436 156.169 145.468 156.896 146.205C157.297 146.584 157.677 146.985 158.033 147.408Z" fill="white"/>
<path d="M163.852 133.227C163.172 134.676 162.418 136.09 161.592 137.461C160.835 138.877 159.998 140.249 159.086 141.57C159.763 140.119 160.517 138.706 161.346 137.336C162.104 135.92 162.941 134.549 163.852 133.227Z" fill="white"/>
<path d="M172.145 148.009C172.08 148.034 171.058 145.764 169.87 142.937C168.682 140.111 167.765 137.791 167.83 137.766C167.896 137.741 168.918 140.006 170.105 142.837C171.293 145.668 172.23 147.979 172.145 148.009Z" fill="white"/>
<path d="M113.975 6.23714C116.902 5.97155 119.848 6.73826 122.519 7.95096C129.139 10.9577 134.225 16.7205 137.593 23.1649C140.96 29.6093 142.754 36.7502 144.167 43.8811C145.981 53.0002 147.223 62.2237 147.886 71.4978C148.086 74.294 149.564 94.6143 149.89 98.7486L106.468 10.3062C108.147 7.89584 111.048 6.50273 113.975 6.23714Z" fill="#263238"/>
<path d="M129.119 23.0192L109.756 15.2168L104.685 15.7831C93.2843 15.7831 85.3566 28.311 85.2414 37.5416C85.1061 47.7995 85.3516 60.3325 86.9452 67.9044C90.1523 83.1233 102.009 84.4864 102.009 84.4864C102.009 84.4864 101.874 88.6456 101.748 93.752C101.697 95.9275 102.087 98.0909 102.894 100.112C103.702 102.132 104.91 103.969 106.447 105.51C107.983 107.051 109.816 108.265 111.834 109.078C113.852 109.892 116.014 110.288 118.19 110.244C122.394 110.16 126.398 108.436 129.347 105.44C132.297 102.443 133.958 98.4125 133.975 94.2081L134.221 28.2659C134.183 26.9112 133.637 25.6201 132.692 24.6484C131.748 23.6768 130.472 23.0953 129.119 23.0192Z" fill="#FFBDA7"/>
<path d="M90.1821 48.7521C90.2017 49.267 90.4228 49.7535 90.7978 50.1069C91.1727 50.4603 91.6715 50.6522 92.1866 50.6413C92.438 50.6494 92.6884 50.6069 92.923 50.5164C93.1577 50.4258 93.3718 50.2892 93.5526 50.1144C93.7335 49.9396 93.8774 49.7303 93.9759 49.4989C94.0744 49.2675 94.1254 49.0186 94.1259 48.7671C94.1063 48.2523 93.8852 47.7657 93.5103 47.4123C93.1353 47.059 92.6366 46.867 92.1215 46.8779C91.8701 46.8699 91.6197 46.9124 91.385 47.0029C91.1504 47.0934 90.9363 47.2301 90.7554 47.4049C90.5746 47.5796 90.4306 47.7889 90.3322 48.0203C90.2337 48.2518 90.1827 48.5006 90.1821 48.7521Z" fill="#263238"/>
<path d="M88.2781 42.7795C88.5386 43.025 89.9718 41.8474 92.0916 41.7472C94.2113 41.647 95.8149 42.6292 96.0304 42.3586C96.1356 42.2383 95.865 41.7873 95.1634 41.3263C94.2158 40.738 93.1099 40.4563 91.9964 40.5195C90.8976 40.5725 89.8443 40.9745 88.9897 41.667C88.3532 42.1982 88.1528 42.6743 88.2781 42.7795Z" fill="#263238"/>
<path d="M102.219 59.3554C102.219 59.2351 100.896 59.0748 98.746 58.9094C98.2048 58.8793 97.6836 58.7991 97.5784 58.4333C97.4731 58.0675 97.6285 57.4311 97.859 56.8097C98.3 55.4767 98.761 54.0786 99.2521 52.6153C101.176 46.642 102.544 41.7411 102.299 41.6659C102.053 41.5907 100.294 46.3714 98.3751 52.3447L97.0522 56.5591C96.8768 57.1855 96.5511 57.9021 96.8768 58.6989C96.9645 58.8856 97.0935 59.0499 97.2542 59.1792C97.4148 59.3086 97.6028 59.3997 97.8039 59.4456C98.1087 59.5086 98.4198 59.5355 98.7309 59.5258C100.881 59.5358 102.214 59.4706 102.219 59.3554Z" fill="#263238"/>
<path d="M102.014 84.4862C109.245 84.2332 116.264 81.9779 122.289 77.9717C122.289 77.9717 117.348 88.881 101.914 88.2145L102.014 84.4862Z" fill="#F0997A"/>
<path d="M103.366 64.4172C103.744 63.8886 104.249 63.4652 104.836 63.1871C105.423 62.9091 106.071 62.7857 106.719 62.8287C107.188 62.8461 107.649 62.9586 108.074 63.1593C108.499 63.3599 108.878 63.6447 109.189 63.9963C109.489 64.3338 109.677 64.7548 109.73 65.2027C109.783 65.6506 109.697 66.1039 109.485 66.5019C108.954 67.3337 107.766 67.5793 106.744 67.3437C105.725 67.0409 104.776 66.5384 103.953 65.8654C103.707 65.7054 103.492 65.5036 103.316 65.2691C103.233 65.1552 103.186 65.0193 103.179 64.8785C103.173 64.7377 103.209 64.5981 103.281 64.4773" fill="#F0997A"/>
<path d="M108.503 60.5084C108.157 60.5084 108.267 62.8035 106.383 64.5173C104.499 66.2311 102.038 66.1209 102.033 66.4416C102.033 66.5869 102.604 66.8625 103.637 66.8375C104.985 66.7898 106.273 66.2681 107.275 65.3642C108.232 64.494 108.816 63.2873 108.904 61.9967C108.964 61.0446 108.678 60.4733 108.503 60.5084Z" fill="#263238"/>
<path d="M89.5906 36.8604C89.9865 37.3214 91.4197 36.7501 93.1736 36.6399C94.9275 36.5296 96.4309 36.8002 96.7466 36.2791C96.8819 36.0285 96.6263 35.5575 95.9548 35.1365C95.0551 34.6349 94.0269 34.4115 93.0002 34.4945C91.9734 34.5774 90.9944 34.963 90.1869 35.6026C89.5906 36.1287 89.4152 36.6349 89.5906 36.8604Z" fill="#263238"/>
<path d="M113.911 48.6267C113.92 49.139 113.73 49.6348 113.38 50.0091C113.03 50.3833 112.548 50.6065 112.036 50.6312C111.786 50.6538 111.534 50.6262 111.294 50.5502C111.055 50.4741 110.833 50.3511 110.642 50.1882C110.45 50.0254 110.294 49.826 110.18 49.6017C110.067 49.3775 109.999 49.1329 109.982 48.8823C109.972 48.37 110.162 47.8741 110.512 47.4999C110.862 47.1256 111.344 46.9025 111.856 46.8778C112.106 46.8552 112.358 46.8827 112.598 46.9588C112.837 47.0348 113.059 47.1579 113.251 47.3207C113.442 47.4836 113.599 47.683 113.712 47.9072C113.825 48.1315 113.893 48.3761 113.911 48.6267Z" fill="#263238"/>
<path d="M117.524 42.534C117.283 42.7945 115.775 41.7071 113.655 41.7422C111.535 41.7773 109.997 42.8547 109.761 42.5941C109.646 42.4839 109.892 42.0128 110.563 41.5117C111.473 40.866 112.559 40.516 113.675 40.5094C114.777 40.4919 115.857 40.8253 116.757 41.4616C117.438 41.9326 117.664 42.4337 117.524 42.534Z" fill="#263238"/>
<path d="M116.621 35.8089C116.255 36.31 114.787 35.8089 113.028 35.8089C111.269 35.8089 109.791 36.1747 109.44 35.6736C109.29 35.433 109.515 34.9469 110.162 34.4809C111.029 33.9255 112.041 33.6395 113.07 33.6591C114.099 33.6788 115.1 34.0031 115.945 34.5911C116.571 35.0822 116.782 35.5733 116.621 35.8089Z" fill="#263238"/>
<path d="M112.011 13.5832C116.912 11.5787 124.414 12.2752 128.623 15.4724C132.832 18.6695 135.458 23.6707 136.42 28.8673C137.382 34.0639 136.095 41.766 134.722 46.8724C126.784 36.6496 118.616 24.8583 110.958 14.425L112.011 13.5832Z" fill="#263238"/>
<path d="M108.238 8.93899C81.3425 5.15054 83.8882 39.5373 83.8882 39.5373C95.6144 31.1636 107.376 15.1579 107.376 15.1579L111.615 14.4413L108.238 8.93899Z" fill="#263238"/>
<path d="M131.163 54.1788C131.108 53.0363 132.291 50.2751 133.413 50.0446C136.42 49.4232 141.847 49.3931 142.283 57.0602C142.875 67.5236 132.261 65.9601 132.216 65.6594C132.171 65.3588 131.349 58.1226 131.163 54.1788Z" fill="#FFBDA7"/>
<path d="M135.188 61.4762C135.233 61.4412 135.378 61.5965 135.689 61.7168C136.132 61.8791 136.62 61.8629 137.052 61.6717C138.134 61.2006 138.961 59.3966 138.906 57.5074C138.883 56.6089 138.658 55.727 138.249 54.9266C137.884 54.1799 137.362 53.6738 136.801 53.6087C136.589 53.5634 136.368 53.5944 136.176 53.6961C135.985 53.7978 135.835 53.9638 135.754 54.1649C135.629 54.4656 135.709 54.666 135.654 54.6911C135.599 54.7162 135.418 54.5307 135.478 54.0948C135.522 53.8312 135.654 53.5905 135.854 53.4132C136.133 53.178 136.493 53.0627 136.856 53.0925C137.663 53.0925 138.43 53.8041 138.861 54.5959C139.357 55.4753 139.631 56.4628 139.658 57.4723C139.708 59.587 138.741 61.6216 137.257 62.1427C136.981 62.2443 136.685 62.2822 136.391 62.2535C136.098 62.2249 135.815 62.1305 135.563 61.9774C135.218 61.7519 135.153 61.5213 135.188 61.4762Z" fill="#F0997A"/>
<path d="M105.907 14.4396C107.201 14.2311 108.528 14.3712 109.75 14.8455C110.588 15.1324 111.405 15.4756 112.196 15.8728L112.837 16.1935C113.033 16.2937 113.338 16.4842 113.589 16.6395C114.092 16.9848 114.57 17.3667 115.017 17.7821C115.913 18.6175 116.75 19.5132 117.523 20.463L118.69 21.8511C118.881 22.0766 119.076 22.2971 119.267 22.5026L119.913 23.1991C121.677 25.1134 123.677 27.183 125.796 29.5734C128.16 32.1659 130.257 34.9897 132.055 38.0022C133.051 39.7098 133.904 41.4964 134.606 43.3441C135.289 45.2432 135.86 47.1808 136.315 49.147C137.238 53.2062 137.752 57.3478 137.848 61.5096C137.911 63.989 137.838 66.47 137.628 68.9412C141.394 72.2016 144.46 76.1918 146.641 80.6706C148.822 85.1494 150.072 90.0238 150.316 94.9994C150.722 97.6703 149.203 100.908 147.044 102.897C146.657 103.419 146.23 103.91 145.766 104.365C144.666 105.487 143.365 106.393 141.932 107.036C140.92 107.48 139.838 107.746 138.735 107.823C137.345 107.927 135.953 107.664 134.696 107.061C133.339 106.369 132.171 105.356 131.294 104.11C130.443 102.912 129.768 101.599 129.289 100.211C128.244 97.3191 127.716 94.2658 127.731 91.1909C127.759 87.9487 128.05 84.7142 128.603 81.5193C129.104 78.272 129.715 75.0649 130.061 71.8076C130.439 68.4525 130.586 65.0754 130.502 61.7001C130.418 57.9965 130.009 54.3074 129.279 50.6755C128.936 48.984 128.506 47.3114 127.991 45.6643C127.482 44.1406 126.857 42.658 126.122 41.2294C124.646 38.4863 122.943 35.8713 121.031 33.4119C119.217 30.9765 117.413 28.6714 115.844 26.4765L115.258 25.6496C115.047 25.3489 114.857 25.0583 114.676 24.7777C114.311 24.2114 113.995 23.6852 113.674 23.1841C113.068 22.1819 112.522 21.3099 111.98 20.5883C111.736 20.2595 111.474 19.9449 111.194 19.6462C111.048 19.5109 110.973 19.4157 110.778 19.2553L110.277 18.8294C109.605 18.2732 109.009 17.8272 108.458 17.4062C107.638 16.8001 106.748 16.2954 105.807 15.9029C105.15 15.6373 104.709 15.497 104.659 15.2364C104.609 14.9758 104.995 14.6451 105.907 14.4396Z" fill="#263238"/>
<path d="M173.388 108.696C171.383 105.814 168.828 102.948 165.48 101.615C161.727 100.111 155.573 102.116 151.95 103.935C148.327 105.754 144.689 107.944 140.645 107.984C138.876 108.061 137.139 107.5 135.749 106.405C134.421 105.263 133.694 103.344 134.245 101.685C135.012 99.4449 137.603 98.5278 139.472 97.0746C142.358 94.8446 143.661 91.1313 144.333 87.5534C145.004 83.9754 145.2 80.2521 146.533 76.8545C150.356 79.2599 147.766 86.1552 151.188 89.1118C153.012 90.6904 155.698 90.3947 158.114 90.6954C161.842 91.1614 167.575 93.662 169.584 96.8341C171.594 100.006 174.876 104.571 173.363 108.706" fill="#263238"/>
<path d="M131.158 59.5254C131.158 73.0005 127.37 87.7033 128.177 96.0719C128.983 104.441 129.044 109.046 129.214 117.45C129.368 125.456 127.643 133.387 124.178 140.606C129.936 139.148 136.069 137.469 139.968 132.989C144.338 127.978 144.779 120.772 145.591 114.162C146.402 107.553 150.391 103.584 156.294 102.181L131.158 59.5254Z" fill="#263238"/>
<path d="M209.368 217.416C209.368 217.487 162.764 217.547 105.325 217.547C47.8872 217.547 1.26318 217.487 1.26318 217.416C1.26318 217.346 47.8421 217.286 105.315 217.286C162.789 217.286 209.368 217.321 209.368 217.416Z" fill="#263238"/>
</svg>
