<svg width="252" height="233" viewBox="0 0 252 233" fill="none" xmlns="http://www.w3.org/2000/svg">
<g opacity="0.16">
<path d="M207.156 209.241C215.763 203.644 222.914 196.079 228.019 187.171C259.233 132.872 252.186 52.7955 192.094 18.4647C164.32 2.60125 124.339 -7.44852 94.3262 8.85165C69.9797 22.073 55.0551 46.9655 42.7126 69.6088C34.9447 83.851 28.5523 99.1795 18.9939 112.505C6.58587 129.782 -7.06676 152.862 6.72234 172.951C25.4954 200.289 60.978 212.8 93.1526 220.989C128.057 229.908 167.3 231.175 199.54 213.777C202.15 212.376 204.688 210.864 207.156 209.241Z" fill="#BA68C8"/>
<path opacity="0.8" d="M207.156 209.241C215.763 203.644 222.914 196.079 228.019 187.171C259.233 132.872 252.186 52.7955 192.094 18.4647C164.32 2.60125 124.339 -7.44852 94.3262 8.85165C69.9797 22.073 55.0551 46.9655 42.7126 69.6088C34.9447 83.851 28.5523 99.1795 18.9939 112.505C6.58587 129.782 -7.06676 152.862 6.72234 172.951C25.4954 200.289 60.978 212.8 93.1526 220.989C128.057 229.908 167.3 231.175 199.54 213.777C202.15 212.376 204.688 210.864 207.156 209.241Z" fill="#301549"/>
</g>
<path opacity="0.2" d="M171.875 186.314C172.706 188.893 174.02 191.29 175.745 193.378C175.745 193.378 167.824 184.491 171.537 174.616C175.249 164.741 179.561 164.244 189.638 160.423C199.715 156.602 191.554 154.189 189.638 142.676C187.722 131.163 202.024 121.556 211.222 123.024C224.258 125.088 237.834 119.58 230.41 106.238C227.37 100.779 216.387 99.3491 209.301 98.0826C195.872 95.6807 194.911 87.0503 199.229 81.2911C203.547 75.532 208.368 73.5996 208.368 73.5996C208.368 73.5996 197.745 81.3184 201.648 87.5143C203.04 89.6978 206.883 95.0038 216.518 95.1894C230.247 95.446 242.425 100.943 242.425 114.841C242.425 128.74 233.789 133.549 224.193 134.493C214.596 135.438 199.628 125.896 196.751 137.889C193.874 149.882 202.608 151.765 212.68 159.921C222.752 168.076 222.43 177.061 216.043 180.064C209.656 183.066 195.414 193.498 198.771 197.816C202.128 202.134 206.446 211.245 199.251 213.647C192.056 216.049 166.154 212.211 165.193 200.698C164.233 189.186 175.767 193.356 175.767 193.356" fill="black"/>
<path opacity="0.2" d="M90.2922 191.511C90.2922 191.511 89.5607 178.666 81.4816 172.405C73.4024 166.143 51.0211 166.531 56.5236 151.852C62.0262 137.173 76.3448 137.168 75.6297 127.991C74.9146 118.815 56.5236 116.615 53.2483 121.02C49.973 125.426 37.4667 132.762 34.9011 124.689C32.3354 116.615 38.9352 116.249 39.3009 118.083C39.6667 119.918 38.9352 122.489 38.9352 122.489C39.8995 122.46 40.8165 122.064 41.4992 121.383C42.1819 120.701 42.5788 119.785 42.609 118.82C42.9747 115.147 37.101 107.81 30.8615 114.781C24.622 121.752 26.4562 130.562 35.6326 134.231C44.8089 137.899 46.6431 126.523 56.5509 125.791C66.4588 125.06 67.5669 133.133 62.0589 137.533C56.5509 141.933 39.6776 148.178 42.609 160.657C45.5404 173.136 57.6536 168.365 55.8194 174.97C53.9853 181.575 41.872 185.992 42.2105 196.636C42.5489 207.281 58.729 217.56 73.0422 211.708C87.3553 205.856 90.2922 199.939 90.2922 191.511Z" fill="black"/>
<path opacity="0.2" d="M173.431 59.2316C173.431 59.2316 173.229 58.2163 172.819 50.885C172.41 43.5538 176.094 37.2379 180.958 35.2181C185.822 33.1983 188.082 36.4354 195.615 38.0676C198.863 38.7664 205.529 37.4781 203.765 32.6088C203.22 31.0475 201.904 29.8793 200.774 28.6675C199.104 26.8769 197.859 24.4095 198.902 21.9749C200.769 17.6078 205.813 18.8906 209.454 19.3437C210.35 19.4839 211.266 19.4292 212.139 19.1834C213.013 18.9375 213.822 18.5062 214.514 17.9189C213.668 18.7596 213.641 20.168 212.456 20.8667C210.103 22.2533 200.446 19.6003 200.665 24.4041C200.719 25.4959 201.789 26.2492 202.728 26.8387C207.614 29.9175 210.573 35.229 207.325 40.5623C204.879 44.5746 199.568 47.4842 194.982 45.1914C191.319 43.3573 191.925 47.0202 194.371 51.7039C196.816 56.3876 187.651 62.4851 185.211 61.6718C182.771 60.8584 173.431 59.2316 173.431 59.2316Z" fill="black"/>
<path d="M202.401 186.599H48.6135V209.526H202.401V186.599Z" fill="#263238" stroke="#263238" stroke-linecap="round" stroke-linejoin="round"/>
<path d="M138.849 192.123C141.428 194.571 144.435 196.525 147.719 197.887C152.894 199.934 160.389 199.683 162.338 197.56C164.287 195.436 168.927 191.746 168.927 191.746C168.927 191.746 172.251 193.793 174.932 194.077C177.612 194.361 179.752 191.686 179.752 191.686L184.19 193.182C185.02 193.46 187.804 190.692 187.804 190.692L194.846 188.121L199.666 184.802C199.666 184.802 199.044 176.565 195.441 173.503C193.206 171.617 190.721 170.052 188.055 168.852L182.389 174.665C182.389 174.665 178.322 172.989 177.476 172.711C176.629 172.433 172.841 175.473 172.841 175.473C172.841 175.473 172.563 174.452 169.233 174.256C165.903 174.059 160.247 178.028 158.763 178.759C157.278 179.491 155.52 180.14 154.395 179.769C153.271 179.398 146.54 175.582 144.509 174.278C142.479 172.973 134.039 178.781 133.286 183.776C132.533 188.771 138.849 192.123 138.849 192.123Z" fill="#BA68C8" stroke="#263238" stroke-linecap="round" stroke-linejoin="round"/>
<path d="M179.757 191.686L180.778 192.03C181.372 189.309 181.346 186.49 180.702 183.781C179.583 178.617 175.871 175.396 174.413 174.305C173.867 174.676 173.436 175.025 173.158 175.238C182.574 180.73 179.757 191.686 179.757 191.686Z" fill="white" stroke="#263238" stroke-linecap="round" stroke-linejoin="round"/>
<path d="M133.324 183.776C132.566 188.771 138.849 192.123 138.849 192.123C141.428 194.571 144.435 196.525 147.719 197.888C152.894 199.935 160.389 199.683 162.338 197.56C164.287 195.436 168.927 191.746 168.927 191.746C168.927 191.746 172.251 193.793 174.932 194.077C176.569 194.252 178.027 193.308 178.889 192.554C179.61 188.864 179.899 183.547 177.006 179.649C175.481 177.678 173.636 175.976 171.547 174.616C170.804 174.406 170.038 174.285 169.265 174.256C165.936 174.065 160.28 178.028 158.795 178.76C157.311 179.491 155.553 180.141 154.428 179.77C153.304 179.398 146.573 175.583 144.542 174.278C142.512 172.973 134.078 178.781 133.324 183.776Z" fill="white" stroke="#263238" stroke-linecap="round" stroke-linejoin="round"/>
<path d="M166.301 181.964C165.912 181.444 165.47 180.966 164.98 180.539" stroke="#263238" stroke-linecap="round" stroke-linejoin="round"/>
<path d="M168.561 190.081C168.661 187.892 168.246 185.71 167.349 183.711" stroke="#263238" stroke-linecap="round" stroke-linejoin="round"/>
<path d="M183.802 180.282C183.349 179.458 182.799 178.69 182.165 177.995" stroke="#263238" stroke-linecap="round" stroke-linejoin="round"/>
<path d="M185.986 189.759C186.023 187.052 185.545 184.362 184.578 181.833" stroke="#263238" stroke-linecap="round" stroke-linejoin="round"/>
<path d="M162.513 195.153C163.749 193.49 164.558 191.55 164.87 189.502C165.182 187.454 164.988 185.361 164.303 183.405" stroke="#263238" stroke-linecap="round" stroke-linejoin="round"/>
<path d="M151.115 182.777C150.877 183.175 150.683 183.598 150.536 184.038" stroke="#263238" stroke-linecap="round" stroke-linejoin="round"/>
<path d="M154.434 179.77C153.582 180.171 152.813 180.726 152.163 181.407" stroke="#263238" stroke-linecap="round" stroke-linejoin="round"/>
<path d="M148.32 186.053C148.32 186.053 147.304 184.475 149.166 180.779" stroke="#263238" stroke-linecap="round" stroke-linejoin="round"/>
<path d="M88.9492 206.561C90.2304 203.252 90.8964 199.737 90.9144 196.189C90.8434 190.621 87.7592 183.787 85.0516 182.788C82.344 181.789 77.1744 178.901 77.1744 178.901C77.1744 178.901 77.8022 175.047 77.0489 172.46C76.2956 169.872 73.0039 168.911 73.0039 168.911C73.0039 168.911 72.7582 165.09 72.6982 164.239C72.6381 163.387 69.0244 161.837 69.0244 161.837L63.9694 156.301L59.0565 153.103C59.0565 153.103 51.6706 156.809 50.2022 161.291C49.3121 164.076 48.8106 166.971 48.7119 169.894L56.2397 172.924C56.2397 172.924 56.2397 177.324 56.2943 178.197C56.3489 179.07 60.6068 181.434 60.6068 181.434C60.6068 181.434 59.7716 182.078 60.8579 185.255C61.9442 188.432 67.7579 192.139 69.0025 193.231C70.2471 194.322 71.5081 195.704 71.5846 196.872C71.661 198.04 70.7111 205.704 70.2581 208.068C69.805 210.432 78.4464 216.043 83.3593 214.842C88.2723 213.641 88.9492 206.561 88.9492 206.561Z" fill="#BA68C8" stroke="#263238" stroke-linecap="round" stroke-linejoin="round"/>
<path d="M72.9875 168.89C72.9875 168.89 72.9602 168.437 72.9165 167.798C70.1848 168.293 67.5981 169.391 65.345 171.013C60.9779 174.01 59.4222 178.656 58.9636 180.435C59.5095 180.774 60.0008 181.063 60.312 181.243C61.8022 170.445 72.9875 168.89 72.9875 168.89Z" fill="white" stroke="#263238" stroke-linecap="round" stroke-linejoin="round"/>
<path d="M83.3592 214.843C88.2722 213.647 88.9764 206.562 88.9764 206.562C90.2575 203.253 90.9235 199.738 90.9416 196.19C90.8706 190.622 87.7863 183.787 85.0787 182.788C82.3711 181.789 77.2016 178.902 77.2016 178.902C77.2016 178.902 77.8294 175.048 77.076 172.46C76.612 170.866 75.1873 169.889 74.161 169.376C70.4763 170.113 65.4268 171.86 62.9376 176.019C61.697 178.187 60.828 180.547 60.3665 183.001C60.4587 183.768 60.642 184.521 60.9123 185.245C62.0041 188.4 67.8124 192.129 69.057 193.22C70.3016 194.312 71.5626 195.693 71.639 196.861C71.7154 198.03 70.711 205.705 70.2579 208.068C69.8048 210.432 78.4462 216.044 83.3592 214.843Z" fill="white" stroke="#263238" stroke-linecap="round" stroke-linejoin="round"/>
<path d="M69.1227 185.026C68.7886 185.583 68.5159 186.174 68.3093 186.79" stroke="#263238" stroke-linecap="round" stroke-linejoin="round"/>
<path d="M75.7716 179.851C73.7108 180.591 71.8524 181.805 70.3455 183.393" stroke="#263238" stroke-linecap="round" stroke-linejoin="round"/>
<path d="M60.9126 169.463C60.3203 170.189 59.8163 170.982 59.4114 171.827" stroke="#263238" stroke-linecap="round" stroke-linejoin="round"/>
<path d="M68.8661 163.878C66.3491 164.877 64.0433 166.342 62.0698 168.196" stroke="#263238" stroke-linecap="round" stroke-linejoin="round"/>
<path d="M82.7535 183.503C80.7464 182.99 78.6441 182.978 76.6311 183.467C74.6181 183.957 72.756 184.932 71.208 186.309" stroke="#263238" stroke-linecap="round" stroke-linejoin="round"/>
<path d="M75.6187 198.777C76.0793 198.846 76.546 198.864 77.0107 198.832" stroke="#263238" stroke-linecap="round" stroke-linejoin="round"/>
<path d="M71.6008 196.839C72.2918 197.474 73.0928 197.977 73.9645 198.324" stroke="#263238" stroke-linecap="round" stroke-linejoin="round"/>
<path d="M79.7348 200.12C79.7348 200.12 78.643 201.66 74.5325 201.343" stroke="#263238" stroke-linecap="round" stroke-linejoin="round"/>
<path d="M143.194 190.594L130.928 186.462L175.549 53.0527L187.815 57.1906L143.194 190.594Z" fill="white" stroke="#263238" stroke-linecap="round" stroke-linejoin="round"/>
<path d="M175.243 54.2427L178.387 46.6603H179.31L180.423 46.2946L182.825 44.2584L183.377 43.5215L184.305 45.0008L186.15 43.5215L186.521 45.181L188.186 44.2584L188.371 46.4802L188.186 48.1397L188.743 50.7272L190.217 49.4334L190.588 51.4696L187.815 57.1905L180.238 56.6446L175.243 54.2427Z" fill="#4A4A4A" stroke="#263238" stroke-linecap="round" stroke-linejoin="round"/>
<path d="M175.243 54.2427L176.154 51.8135L176.356 51.284L177.65 52.2066L179.681 50.7272L180.052 51.6552L182.64 49.8047L183.191 51.0984H185.598L185.964 52.3922L187.258 52.5778L187.443 54.2427L188.186 54.6139L187.815 57.1905L185.784 62.5621L184.485 60.1602H182.083L180.789 60.3458L180.052 59.9745H178.944L178.016 58.4952L176.537 58.3096L175.8 57.3871L175.057 57.2015L174.32 56.8302L175.243 54.2427Z" fill="#8C8C8C" stroke="#263238" stroke-linecap="round" stroke-linejoin="round"/>
<path d="M130.928 186.462L143.194 190.594L158.124 145.952L145.842 141.874L130.928 186.462Z" fill="#BA68C8" stroke="#263238" stroke-linecap="round" stroke-linejoin="round"/>
<path d="M146.573 139.685L158.899 143.637L159.429 142.054L147.086 138.156L146.573 139.685Z" fill="#BA68C8" stroke="#263238" stroke-linecap="round" stroke-linejoin="round"/>
<path d="M185.44 199.071L179.523 210.584L54.2637 146.557L60.1811 135.05L185.44 199.071Z" fill="white" stroke="#263238" stroke-linecap="round" stroke-linejoin="round"/>
<path d="M179.523 210.584L185.44 199.072L143.522 177.646L137.659 189.186L179.523 210.584Z" fill="#BA68C8" stroke="#263238" stroke-linecap="round" stroke-linejoin="round"/>
<path d="M135.606 188.133L141.349 176.538L139.864 175.779L134.17 187.401L135.606 188.133Z" fill="#BA68C8" stroke="#263238" stroke-linecap="round" stroke-linejoin="round"/>
<path d="M165.231 185.731L156.279 195.076L54.4766 97.996L63.4291 88.6504L165.231 185.731Z" fill="white" stroke="#263238" stroke-linecap="round" stroke-linejoin="round"/>
<path d="M156.279 195.076L165.231 185.731L131.163 153.245L122.254 162.634L156.279 195.076Z" fill="#BA68C8" stroke="#263238" stroke-linecap="round" stroke-linejoin="round"/>
<path d="M120.583 161.04L129.399 151.557L128.193 150.411L119.421 159.926L120.583 161.04Z" fill="#BA68C8" stroke="#263238" stroke-linecap="round" stroke-linejoin="round"/>
<path d="M133.706 216.082L123.449 208.183L208.99 96.5107L219.241 104.404L133.706 216.082Z" fill="white" stroke="#263238" stroke-linecap="round" stroke-linejoin="round"/>
<path d="M123.449 208.183L133.706 216.082L162.333 178.705L152.037 170.86L123.449 208.183Z" fill="#BA68C8" stroke="#263238" stroke-linecap="round" stroke-linejoin="round"/>
<path d="M153.44 169.031L163.812 176.772L164.827 175.445L154.417 167.754L153.44 169.031Z" fill="#BA68C8" stroke="#263238" stroke-linecap="round" stroke-linejoin="round"/>
<path d="M89.7952 194.929L77.8567 189.934L131.878 60.0459L143.816 65.0462L89.7952 194.929Z" fill="white" stroke="#263238" stroke-linecap="round" stroke-linejoin="round"/>
<path d="M77.8567 189.934L89.7952 194.929L107.875 151.46L95.9092 146.52L77.8567 189.934Z" fill="#BA68C8" stroke="#263238" stroke-linecap="round" stroke-linejoin="round"/>
<path d="M96.7991 144.39L108.809 149.21L109.453 147.671L97.4159 142.905L96.7991 144.39Z" fill="#BA68C8" stroke="#263238" stroke-linecap="round" stroke-linejoin="round"/>
<path d="M17.7219 179.83L20.2712 167.138L158.249 194.53L155.7 207.217L17.7219 179.83Z" fill="white" stroke="#263238" stroke-linecap="round" stroke-linejoin="round"/>
<path d="M20.2712 167.138L17.7219 179.83L63.8985 188.995L66.3877 176.292L20.2712 167.138Z" fill="#BA68C8" stroke="#263238" stroke-linecap="round" stroke-linejoin="round"/>
<path d="M68.6478 176.74L66.2896 189.47L67.9272 189.792L70.2309 177.057L68.6478 176.74Z" fill="#BA68C8" stroke="#263238" stroke-linecap="round" stroke-linejoin="round"/>
<path d="M215.775 169.054C212.551 167.55 209.078 166.651 205.529 166.401C199.972 166.106 192.946 168.742 191.778 171.374C190.61 174.005 187.411 178.983 187.411 178.983C187.411 178.983 183.59 178.104 180.969 178.694C178.349 179.283 177.148 182.515 177.148 182.515H172.464C171.591 182.515 169.833 186.025 169.833 186.025L163.981 190.709L160.466 195.387C160.466 195.387 163.687 202.997 168.075 204.755C170.795 205.825 173.65 206.512 176.559 206.796L180.069 199.481C180.069 199.481 184.436 199.776 185.336 199.776C186.237 199.776 188.852 195.676 188.852 195.676C188.852 195.676 189.436 196.555 192.673 195.676C195.91 194.798 199.993 189.24 201.162 188.067C202.33 186.893 203.798 185.725 204.983 185.725C206.167 185.725 213.761 187.188 216.103 187.777C218.444 188.367 224.591 180.168 223.712 175.189C222.833 170.211 215.775 169.054 215.775 169.054Z" fill="#BA68C8" stroke="#263238" stroke-linecap="round" stroke-linejoin="round"/>
<path d="M177.143 182.515H176.051C176.353 185.282 177.276 187.945 178.753 190.304C181.482 194.841 186.002 196.713 187.733 197.286C188.109 196.74 188.431 196.287 188.628 195.993C177.967 193.793 177.143 182.515 177.143 182.515Z" fill="white" stroke="#263238" stroke-linecap="round" stroke-linejoin="round"/>
<path d="M223.652 175.195C222.773 170.222 215.753 169.054 215.753 169.054C212.536 167.553 209.07 166.654 205.529 166.401C199.972 166.106 192.946 168.742 191.778 171.374C190.61 174.005 187.411 178.983 187.411 178.983C187.411 178.983 183.59 178.104 180.969 178.694C179.332 179.054 178.284 180.408 177.694 181.423C178.185 185.146 179.605 190.283 183.595 193.056C185.676 194.435 187.973 195.455 190.391 196.075C191.161 196.034 191.923 195.904 192.662 195.687C195.883 194.808 199.983 189.251 201.151 188.078C202.319 186.904 203.787 185.736 204.972 185.736C206.157 185.736 213.75 187.199 216.092 187.788C218.434 188.378 224.553 180.173 223.652 175.195Z" fill="white" stroke="#263238" stroke-linecap="round" stroke-linejoin="round"/>
<path d="M192.995 187.439C193.531 187.808 194.103 188.119 194.704 188.367" stroke="#263238" stroke-linecap="round" stroke-linejoin="round"/>
<path d="M188.262 180.463C188.868 182.568 189.958 184.503 191.445 186.113" stroke="#263238" stroke-linecap="round" stroke-linejoin="round"/>
<path d="M176.935 194.617C177.618 195.252 178.375 195.802 179.19 196.255" stroke="#263238" stroke-linecap="round" stroke-linejoin="round"/>
<path d="M192.362 173.731C191.72 175.702 191.571 177.8 191.928 179.841C192.285 181.882 193.137 183.805 194.409 185.441" stroke="#263238" stroke-linecap="round" stroke-linejoin="round"/>
<path d="M207.139 181.849C207.237 181.394 207.287 180.929 207.287 180.463" stroke="#263238" stroke-linecap="round" stroke-linejoin="round"/>
<path d="M204.945 185.731C205.625 185.084 206.18 184.318 206.582 183.471" stroke="#263238" stroke-linecap="round" stroke-linejoin="round"/>
<path d="M208.75 177.831C208.75 177.831 210.212 178.999 209.628 183.099" stroke="#263238" stroke-linecap="round" stroke-linejoin="round"/>
<path d="M135.219 200.726C135.219 200.726 135.219 202.058 133.521 203.875C131.823 205.693 127.942 210.666 129.154 212.244C131.103 214.782 135.453 212.73 137.031 211.152C138.609 209.574 138.849 207.151 141.398 206.179C143.947 205.207 145.034 202.663 143.822 200.72C143.23 199.723 142.539 198.788 141.758 197.931C141.758 197.931 136.31 199.028 135.219 200.726Z" fill="white" stroke="#263238" stroke-linecap="round" stroke-linejoin="round"/>
<path d="M141.376 206.179C143.789 205.262 144.892 202.904 143.964 201.031C143.358 202.32 142.43 203.886 141.234 204.607C139.051 205.939 137.959 206.545 136.267 209.334C134.575 212.124 133.963 212.484 131.539 212.484C130.581 212.534 129.639 212.229 128.892 211.627C128.905 211.85 128.983 212.064 129.116 212.244C131.064 214.782 135.415 212.73 136.993 211.152C138.57 209.574 138.827 207.151 141.376 206.179Z" fill="white" stroke="#263238" stroke-linecap="round" stroke-linejoin="round"/>
<path d="M118.706 130.776C118.706 130.776 119.312 145.444 119.797 148.839C120.283 152.235 124.044 172.858 125.136 176.597C126.228 180.337 135.219 200.726 135.219 200.726C135.219 200.726 134.978 202.543 138.128 202.664C141.278 202.784 142.495 200.846 142.615 200.48C142.734 199.797 142.815 199.108 142.856 198.417L141.278 194.535L135.704 171.608L136.671 144.57C136.671 144.57 140.672 130.628 140.066 128.57C139.46 126.512 139.706 125.415 130.005 127.113C120.305 128.811 118.706 130.776 118.706 130.776Z" fill="#263238" stroke="#263238" stroke-linecap="round" stroke-linejoin="round"/>
<path d="M124.885 181.571C124.885 181.571 123.673 186.298 122.701 188.362C121.73 190.425 120.518 192.118 121.249 192.729C121.981 193.34 124.039 193.46 126.463 192.609C128.886 191.757 131.436 187.761 133.253 185.458C135.071 183.154 136.037 181.817 135.071 180.124C134.431 179.056 133.56 178.143 132.522 177.455C132.522 177.455 126.343 181.451 124.885 181.571Z" fill="white" stroke="#263238" stroke-linecap="round" stroke-linejoin="round"/>
<path d="M135.071 180.118C134.876 179.783 134.656 179.464 134.411 179.163C134.391 179.894 134.327 180.623 134.22 181.347C133.979 182.679 129.738 189.104 127.434 190.801C125.376 192.319 121.779 192.188 121.031 192.144C121.017 192.254 121.029 192.365 121.067 192.468C121.106 192.572 121.168 192.665 121.249 192.739C121.975 193.345 124.039 193.471 126.463 192.619C128.886 191.768 131.436 187.772 133.253 185.468C135.071 183.164 136.037 181.811 135.071 180.118Z" fill="white" stroke="#263238" stroke-linecap="round" stroke-linejoin="round"/>
<path d="M137.129 133.321C137.129 133.321 131.796 131.383 128.886 132.715C125.977 134.047 116.768 139.009 112.51 144.353C109.202 148.518 100.02 157.203 100.751 159.638C101.483 162.072 103.661 164.611 105.479 165.337C107.296 166.063 116.511 173.094 120.027 175.643C123.542 178.192 124.514 180.976 124.514 180.976C124.514 180.976 124.388 182.188 124.994 182.308C125.6 182.429 125.24 183.04 128.149 182.794C131.059 182.549 132.757 181.217 132.877 179.644C132.997 178.072 132.757 177.947 132.511 177.461C132.265 176.975 129.727 174.671 129.121 173.46C128.515 172.248 122.57 164.125 121.604 162.667C120.638 161.21 118.449 158.3 118.449 158.3C118.449 158.3 133.603 148.846 137.484 145.936C141.365 143.026 143.669 140.963 143.909 138.294C144.149 135.624 142.937 129.319 141.971 127.742C141.005 126.164 134.951 128.735 134.22 128.735" fill="#263238"/>
<path d="M137.129 133.321C137.129 133.321 131.796 131.383 128.886 132.715C125.977 134.047 116.768 139.009 112.51 144.353C109.202 148.518 100.02 157.203 100.751 159.638C101.483 162.072 103.661 164.611 105.479 165.337C107.296 166.063 116.511 173.094 120.027 175.643C123.542 178.192 124.514 180.976 124.514 180.976C124.514 180.976 124.388 182.188 124.994 182.308C125.6 182.429 125.24 183.04 128.149 182.794C131.059 182.549 132.757 181.217 132.877 179.644C132.997 178.072 132.757 177.947 132.511 177.461C132.265 176.975 129.727 174.671 129.121 173.46C128.515 172.248 122.57 164.125 121.604 162.667C120.638 161.21 118.449 158.3 118.449 158.3C118.449 158.3 133.603 148.846 137.484 145.936C141.365 143.026 143.669 140.963 143.909 138.294C144.149 135.624 142.937 129.319 141.971 127.742C141.005 126.164 134.951 128.735 134.22 128.735" stroke="#263238" stroke-linecap="round" stroke-linejoin="round"/>
<path d="M157.098 111.774C157.098 111.774 157.524 113.958 157.524 114.4C157.524 114.842 157.791 117.025 157.9 117.773C158.009 118.521 158.916 118.095 158.916 118.095C159.077 117.593 159.149 117.067 159.128 116.54C159.007 115.527 158.991 114.504 159.079 113.488C159.183 113.221 156.896 110.917 156.896 110.917L157.098 111.774Z" fill="white" stroke="#263238" stroke-linecap="round" stroke-linejoin="round"/>
<path d="M112.357 89.1358C112.357 89.1358 104.103 94.0652 104.103 94.8895C104.103 95.7138 98.0274 112.991 98.0274 112.991L94.5938 123.527C94.5938 123.527 98.2566 124.558 99.6323 124.558C101.008 124.558 110.976 110.911 110.976 110.911L117.275 127.288C117.275 127.288 117.505 130.951 118.072 131.655C118.631 132.174 119.296 132.565 120.021 132.801C120.021 132.801 139.608 129.706 140.41 129.591C141.212 129.477 143.139 128.107 143.505 127.304C143.871 126.502 142.817 122.604 142.817 122.604L137.664 93.8578L147.283 90.6479L155.531 106.571C155.531 106.571 157.48 112.412 157.48 112.756C157.48 113.1 161.907 118.81 161.907 118.81L162.125 118.854C162.644 118.958 163.217 118.974 162.764 118.117L161.967 116.725L160.466 113.903L160.924 113.788L163.905 118.483C164.002 118.56 164.122 118.602 164.246 118.602C164.37 118.602 164.491 118.56 164.587 118.483C165.133 118.172 165.341 117.527 164.969 117.205L162.557 112.866L163.103 112.32L166.536 116.556C166.536 116.556 167.208 117.003 167.322 116.316C167.437 115.628 167.273 115.726 167.273 115.726L164.893 111.714C164.886 111.699 164.884 111.682 164.887 111.666C164.89 111.649 164.898 111.635 164.911 111.623C164.923 111.612 164.939 111.606 164.955 111.604C164.972 111.603 164.988 111.607 165.002 111.615L167.322 113.209C167.322 113.209 168.048 113.581 168.37 113.466C169.26 113.138 168.234 112.194 167.797 111.976L165.275 110.142L159.549 104.53L156.688 88.1532C156.688 88.1532 154.276 81.4388 153.702 80.2979C153.129 79.157 151.273 78.8404 149.494 79.0042C148.555 79.0861 145.345 80.2543 145.345 80.2543C145.345 80.2543 131.599 82.083 130.917 82.3123L118.083 86.6793L112.357 89.1358Z" fill="white" stroke="#263238" stroke-linecap="round" stroke-linejoin="round"/>
<path d="M101.608 118.264L90.2813 101.926L87.6829 101.407C87.6829 101.407 92.5467 120.852 93.3546 122.309C94.1625 123.767 95.4617 124.089 97.3996 123.603C99.3375 123.117 102.58 120.852 101.608 118.264Z" fill="white" stroke="#263238" stroke-linecap="round" stroke-linejoin="round"/>
<path d="M156.688 88.1044C156.688 88.1044 154.276 81.39 153.702 80.2491C153.129 79.1082 151.273 78.7916 149.494 78.9553C148.555 79.0372 145.345 80.2054 145.345 80.2054C145.345 80.2054 131.599 82.0341 130.917 82.2634L118.083 86.6305L112.357 89.147C112.357 89.147 104.103 94.0655 104.103 94.8898C104.103 95.7141 98.0274 112.991 98.0274 112.991L94.5938 123.527C94.5938 123.527 98.2566 124.559 99.6323 124.559C101.008 124.559 110.976 110.912 110.976 110.912L117.275 127.288C117.275 127.288 117.505 130.951 118.072 131.655C118.631 132.174 119.296 132.565 120.021 132.802C120.021 132.802 139.608 129.706 140.41 129.592C141.212 129.477 143.139 128.107 143.505 127.305C143.871 126.502 142.817 122.604 142.817 122.604L137.664 93.8581L147.283 90.6482L148.62 93.2303C149.432 92.5819 150.285 91.9875 151.175 91.4507C152.923 90.3908 154.884 89.7326 156.918 89.5237L156.688 88.1044Z" fill="#BA68C8" stroke="#263238" stroke-linecap="round" stroke-linejoin="round"/>
<path d="M147.556 92.5421L149.494 96.2651L150.165 96.2214C150.165 96.2214 153.217 93.9996 154.674 93.6721C155.46 93.4974 156.361 93.3282 157.021 93.2026C157.153 93.1799 157.278 93.1308 157.39 93.0583C157.502 92.9857 157.598 92.8913 157.673 92.7806C157.747 92.6699 157.799 92.5452 157.824 92.4142C157.849 92.2831 157.847 92.1484 157.818 92.0181C157.676 91.3685 157.846 90.0856 157.36 89.1249C156.727 87.8584 155.395 88.1095 152.321 88.9174C149.248 89.7253 146.906 91.8925 147.556 92.5421Z" fill="white" stroke="#263238" stroke-linecap="round" stroke-linejoin="round"/>
<path d="M133.548 97.4717L132.347 98.5307" stroke="#263238" stroke-linecap="round" stroke-linejoin="round"/>
<path d="M131.375 95.7793L137.675 93.8359L134.722 96.4344" stroke="#263238" stroke-linecap="round" stroke-linejoin="round"/>
<path d="M147.714 90.1126L148.363 83.8076" stroke="#263238" stroke-linecap="round" stroke-linejoin="round"/>
<path d="M147.294 90.6261L146.584 84.4521" stroke="#263238" stroke-linecap="round" stroke-linejoin="round"/>
<path d="M117.286 127.283L121.67 112.926" stroke="#263238" stroke-linecap="round" stroke-linejoin="round"/>
<path d="M123.242 115.262L120.534 122.473" stroke="#263238" stroke-linecap="round" stroke-linejoin="round"/>
<path d="M124.421 112.117L123.673 114.104" stroke="#263238" stroke-linecap="round" stroke-linejoin="round"/>
<path d="M123.608 87.8525C123.608 87.8525 122.314 92.5417 123.286 94.9491" stroke="#263238" stroke-linecap="round" stroke-linejoin="round"/>
<path d="M106.063 106.288L104.518 104.836" stroke="#263238" stroke-linecap="round" stroke-linejoin="round"/>
<path d="M106.674 103.242L110.981 110.901L106.925 107.096" stroke="#263238" stroke-linecap="round" stroke-linejoin="round"/>
<path d="M104.845 99.9824L105.779 101.647" stroke="#263238" stroke-linecap="round" stroke-linejoin="round"/>
<path d="M98.5349 112.903C98.5349 112.903 101.122 115.818 101.93 116.948" stroke="#263238" stroke-linecap="round" stroke-linejoin="round"/>
<path d="M99.1902 112.768C99.1902 112.768 103.557 114.547 104.207 115.191" stroke="#263238" stroke-linecap="round" stroke-linejoin="round"/>
<path d="M112.701 89.8242L110.643 94.4097L114.42 98.3018L115.108 101.512L118.083 103.684L117.057 97.3848L112.701 89.8242Z" fill="white" stroke="#263238" stroke-linecap="round" stroke-linejoin="round"/>
<path d="M110.643 94.4092L111.096 100.25L113.618 97.2696L110.643 94.4092Z" fill="white" stroke="#263238" stroke-linecap="round" stroke-linejoin="round"/>
<path d="M106.631 79.2879L115.452 95.6645L122.898 85.8167L118.771 75.5049L106.631 79.2879Z" fill="white" stroke="#263238" stroke-linecap="round" stroke-linejoin="round"/>
<path d="M112.673 84.0215L119.388 88.3122L121.446 85.2279L112.673 84.0215Z" fill="#263238" stroke="#263238" stroke-linecap="round" stroke-linejoin="round"/>
<path d="M121.446 85.2275L113.732 94.7533L118.198 98.1869L124.219 85.3476L121.446 85.2275Z" fill="white" stroke="#263238" stroke-linecap="round" stroke-linejoin="round"/>
<path d="M108.006 81.6022C108.006 81.6022 103.142 77.0768 101.838 72.535C100.533 67.9933 104.72 63.4952 108.678 61.9776C112.635 60.46 116.899 60.995 119.366 62.7418C121.833 64.4887 120.944 65.2038 120.944 65.2038C120.944 65.2038 122.483 69.8493 122.734 70.417C122.985 70.9847 123.078 73.6104 123.335 74.4074C123.815 75.9163 124.028 77.4979 123.962 79.0802C123.962 79.0802 123.657 83.4473 123.335 84.0314C123.012 84.6155 120.059 85.7564 119.273 85.7837C118.487 85.811 112.919 84.4026 112.106 84.0915C111.292 83.7803 109.715 81.3074 109.715 81.3074" fill="white"/>
<path d="M108.006 81.6022C108.006 81.6022 103.142 77.0768 101.838 72.535C100.533 67.9933 104.72 63.4952 108.678 61.9776C112.635 60.46 116.899 60.995 119.366 62.7418C121.833 64.4887 120.944 65.2038 120.944 65.2038C120.944 65.2038 122.483 69.8493 122.734 70.417C122.985 70.9847 123.078 73.6104 123.335 74.4074C123.815 75.9163 124.028 77.4979 123.962 79.0802C123.962 79.0802 123.657 83.4473 123.335 84.0314C123.012 84.6155 120.059 85.7564 119.273 85.7837C118.487 85.811 112.919 84.4026 112.106 84.0915C111.292 83.7803 109.715 81.3074 109.715 81.3074" stroke="#263238" stroke-linecap="round" stroke-linejoin="round"/>
<path d="M119.388 78.7856C120.031 78.394 120.709 78.0633 121.413 77.7976C121.757 77.7976 120.218 73.1411 120.092 72.8027C119.967 72.4642 120.698 70.6191 120.698 70.6191L121.79 69.4346" stroke="#263238" stroke-linecap="round" stroke-linejoin="round"/>
<path d="M121.926 79.8447L119.322 80.8546" stroke="#263238" stroke-linecap="round" stroke-linejoin="round"/>
<path d="M116.233 74.4897C116.233 75.0356 116.036 75.4668 115.752 75.4777C115.468 75.4887 115.206 75.0629 115.206 74.5224C115.206 73.982 115.403 73.5453 115.687 73.5344C115.971 73.5235 116.211 73.9493 116.233 74.4897Z" fill="#263238"/>
<path d="M122.117 72.8249C122.156 73.3708 121.959 73.813 121.675 73.8348C121.391 73.8566 121.129 73.4363 121.091 72.9013C121.053 72.3664 121.244 71.9133 121.528 71.8914C121.812 71.8696 122.117 72.2845 122.117 72.8249Z" fill="#263238"/>
<path d="M117.335 72.083C117.335 72.083 114.639 71.5098 113.956 71.7609C113.385 72.0733 112.885 72.5009 112.488 73.0164" stroke="#263238" stroke-linecap="round" stroke-linejoin="round"/>
<path d="M119.388 62.7418C116.92 60.995 112.657 60.46 108.699 61.9776C104.742 63.4952 100.549 67.9824 101.859 72.535C102.651 75.2645 104.753 78.0376 106.281 79.7735L107.493 79.4405L108.039 78.2778C108.039 78.2778 109.027 77.0932 108.994 76.1816C108.961 75.2699 107.93 75.1881 108.798 73.7797C109.666 72.3713 112.193 72.6278 110.512 70.5043C108.83 68.3808 107.018 68.9104 108.776 66.7814C110.534 64.6524 117.483 63.5061 120.632 64.9854L121.02 65.1601C121.124 64.9909 121.506 64.2539 119.388 62.7418Z" fill="#263238" stroke="#263238" stroke-linecap="round" stroke-linejoin="round"/>
<path d="M108.825 78.819C108.825 78.819 107.706 76.4554 105.763 76.5209C103.819 76.5864 103.901 78.9992 105.217 80.555C106.532 82.1107 108.923 81.5703 108.901 80.9971" fill="white"/>
<path d="M108.825 78.819C108.825 78.819 107.706 76.4554 105.763 76.5209C103.819 76.5864 103.901 78.9992 105.217 80.555C106.532 82.1107 108.923 81.5703 108.901 80.9971" stroke="#263238" stroke-linecap="round" stroke-linejoin="round"/>
<path d="M92.4156 99.3002L90.2812 101.926C90.2812 101.926 88.5289 103.231 87.8247 102.526C87.1205 101.822 87.2788 97.8918 87.2788 97.8918C87.021 97.2576 86.8627 96.5874 86.8093 95.9048C86.8093 95.1351 88.4033 92.4111 88.4033 92.4111L92.4156 99.3002Z" fill="white" stroke="#263238" stroke-linecap="round" stroke-linejoin="round"/>
<path d="M97.0394 111.391C97.0394 111.391 96.9138 114.547 94.6484 116.163C93.7002 116.887 92.592 117.374 91.4168 117.582C91.3337 117.588 91.2532 117.613 91.1815 117.656C91.1097 117.698 91.0485 117.756 91.0027 117.826C90.9569 117.895 90.9275 117.974 90.917 118.057C90.9064 118.14 90.9149 118.224 90.9418 118.302C91.2774 119.66 91.8187 120.957 92.5468 122.151C93.6822 123.789 94.1844 123.93 96.7555 122.795C99.3267 121.66 100.801 118.106 100.151 116.648C99.5013 115.191 97.689 111.064 97.0394 111.391Z" fill="white" stroke="#263238" stroke-linecap="round" stroke-linejoin="round"/>
<path d="M111.145 188.798L98.5623 191.839L65.2305 55.1763L77.8132 52.1357L111.145 188.798Z" fill="white" stroke="#263238" stroke-linecap="round" stroke-linejoin="round"/>
<path d="M98.5622 191.839L111.145 188.799L99.987 143.064L87.4207 146.165L98.5622 191.839Z" fill="#BA68C8" stroke="#263238" stroke-linecap="round" stroke-linejoin="round"/>
<path d="M86.8748 143.922L99.4083 140.696L99.0153 139.074L86.4927 142.355L86.8748 143.922Z" fill="#BA68C8" stroke="#263238" stroke-linecap="round" stroke-linejoin="round"/>
<path d="M89.8553 90.7025C89.8553 90.7025 86.2197 92.6896 86.2197 93.1863C86.2197 93.6831 86.2197 94.0106 86.8802 93.765C87.5408 93.5193 89.6097 92.8533 90.3521 92.6077C91.0945 92.362 91.755 91.6142 91.3456 91.1174C90.9362 90.6207 90.6851 90.4569 89.8553 90.7025Z" fill="white" stroke="#263238" stroke-linecap="round" stroke-linejoin="round"/>
<path d="M88.3269 89.2559C88.3269 89.2559 85.6849 91.2538 85.7231 91.6905C85.7613 92.1272 85.7831 92.422 86.269 92.16C86.7548 91.898 88.2942 91.1774 88.8455 90.9099C89.3969 90.6424 89.85 89.9382 89.4951 89.5233C89.4406 89.4242 89.3657 89.3376 89.2754 89.2694C89.1851 89.2012 89.0813 89.1529 88.971 89.1277C88.8607 89.1024 88.7463 89.1008 88.6353 89.1229C88.5243 89.145 88.4192 89.1903 88.3269 89.2559Z" fill="white" stroke="#263238" stroke-linecap="round" stroke-linejoin="round"/>
<path d="M90.2702 92.64C90.2702 92.64 86.3453 93.9611 86.2579 94.4469C86.1706 94.9327 86.116 95.2603 86.8038 95.1347C87.4916 95.0092 89.6479 94.7089 90.423 94.5888C91.1982 94.4687 91.9788 93.8573 91.6567 93.3005C91.3347 92.7437 91.1272 92.5363 90.2702 92.64Z" fill="white" stroke="#263238" stroke-linecap="round" stroke-linejoin="round"/>
<path d="M90.969 94.5131C90.969 94.5131 86.9294 95.4302 86.7929 95.9051C86.6565 96.3801 86.5691 96.7021 87.2733 96.6421C87.9775 96.582 90.1447 96.5111 90.9253 96.4783C91.7059 96.4456 92.563 95.9324 92.2846 95.3156C92.0061 94.6987 91.8315 94.5022 90.969 94.5131Z" fill="white" stroke="#263238" stroke-linecap="round" stroke-linejoin="round"/>
<path d="M91.5096 96.8218C91.5096 96.8218 92.7487 96.1612 92.9944 97.2312C93.24 98.3011 92.9944 99.1363 92.4157 99.3001C91.8371 99.4638 89.9374 98.8033 89.8555 98.3066C89.7736 97.8098 89.8555 96.9036 91.5096 96.8218Z" fill="white" stroke="#263238" stroke-linecap="round" stroke-linejoin="round"/>
<path d="M218.532 191.134C217.986 188.65 215.491 186.854 212.598 186.854H198.798L200.512 200.043C200.709 201.55 199.355 202.871 197.619 202.871H179.981C179.309 202.905 178.646 202.696 178.115 202.282C177.584 201.868 177.22 201.277 177.088 200.616L175.303 186.854H76.8797L75.0892 200.616C74.9598 201.278 74.5958 201.87 74.0641 202.285C73.5325 202.699 72.869 202.907 72.196 202.871H54.5584C52.817 202.871 51.4632 201.55 51.6597 200.043L53.3738 186.854H41.6263C38.7331 186.854 36.2439 188.65 35.6925 191.134L26.5872 232.19H227.637L218.532 191.134Z" fill="#263238" stroke="#263238" stroke-linecap="round" stroke-linejoin="round"/>
<path d="M58.9092 200.043L60.6179 186.887H53.3685L51.6599 200.043C51.4633 201.549 52.8171 202.87 54.5585 202.87H61.8024C60.0611 202.87 58.7127 201.549 58.9092 200.043Z" fill="#8C8C8C" stroke="#263238" stroke-linecap="round" stroke-linejoin="round"/>
<path d="M198.798 186.838H191.319L193.033 200.043C193.23 201.55 191.876 202.871 190.14 202.871H197.619C199.355 202.871 200.709 201.55 200.512 200.043L198.798 186.838Z" fill="#8C8C8C" stroke="#263238" stroke-linecap="round" stroke-linejoin="round"/>
<path d="M8.02686 232.189H250.946" stroke="#263238" stroke-linecap="round" stroke-linejoin="round"/>
<path d="M87.4481 219.351H86.4272V209.104H87.8739L90.2485 216.512V209.104H91.2583V219.351H90.0738L87.4481 211.064V219.351Z" fill="#BA68C8"/>
<path d="M92.3447 211.578C92.3447 210.011 93.1199 209.001 94.6866 209.001C96.2533 209.001 97.0448 210.011 97.0448 211.578V216.884C97.0448 218.434 96.2696 219.46 94.6866 219.46C93.1035 219.46 92.3447 218.434 92.3447 216.884V211.578ZM93.4693 216.938C93.4693 217.877 93.8677 218.418 94.6866 218.418C95.5054 218.418 95.8984 217.872 95.8984 216.938V211.523C95.8984 210.6 95.5218 210.044 94.6866 210.044C93.8514 210.044 93.4693 210.59 93.4693 211.523V216.938Z" fill="#BA68C8"/>
<path d="M107.335 219.351V210.147H105.446V209.104H110.359V210.147H108.47V219.351H107.335Z" fill="#BA68C8"/>
<path d="M111.041 211.578C111.041 210.011 111.816 209.001 113.383 209.001C114.95 209.001 115.741 210.011 115.741 211.578V216.884C115.741 218.434 114.966 219.46 113.383 219.46C111.8 219.46 111.041 218.434 111.041 216.884V211.578ZM112.171 216.938C112.171 217.877 112.564 218.418 113.383 218.418C114.202 218.418 114.6 217.872 114.6 216.938V211.523C114.6 210.6 114.218 210.044 113.383 210.044C112.548 210.044 112.171 210.59 112.171 211.523V216.938Z" fill="#BA68C8"/>
<path d="M119.126 209.104C120.72 209.104 121.353 209.869 121.353 211.375V211.856C121.353 212.948 121.047 213.614 120.152 213.892C121.146 214.17 121.528 214.984 121.528 216.075V216.938C121.528 218.477 120.78 219.34 119.186 219.34H116.828V209.104H119.126ZM118.847 213.472C119.754 213.472 120.223 213.177 120.223 212.107V211.506C120.223 210.6 119.917 210.164 119.099 210.164H117.969V213.472H118.847ZM119.186 218.33C120.021 218.33 120.398 217.893 120.398 216.943V216.032C120.398 214.891 119.945 214.509 118.968 214.509H117.969V218.33H119.186Z" fill="#BA68C8"/>
<path d="M123.755 217.293L123.357 219.356H122.303L124.263 209.104H125.9L127.855 219.351H126.714L126.315 217.287L123.755 217.293ZM123.897 216.31H126.184L125.027 210.393L123.897 216.31Z" fill="#BA68C8"/>
<path d="M133.259 211.578V212.506H132.167V211.523C132.167 210.6 131.801 210.044 130.966 210.044C130.131 210.044 129.765 210.59 129.765 211.523V216.938C129.765 217.861 130.142 218.418 130.966 218.418C131.79 218.418 132.167 217.872 132.167 216.938V215.606H133.259V216.884C133.259 218.434 132.527 219.46 130.944 219.46C129.361 219.46 128.646 218.434 128.646 216.884V211.578C128.646 210.027 129.377 209.001 130.944 209.001C132.511 209.001 133.259 210.027 133.259 211.578Z" fill="#BA68C8"/>
<path d="M138.827 211.578V212.506H137.735V211.523C137.735 210.6 137.369 210.044 136.534 210.044C135.699 210.044 135.333 210.59 135.333 211.523V216.938C135.333 217.861 135.715 218.418 136.534 218.418C137.353 218.418 137.735 217.872 137.735 216.938V215.606H138.827V216.884C138.827 218.434 138.095 219.46 136.512 219.46C134.929 219.46 134.214 218.434 134.214 216.884V211.578C134.214 210.027 134.946 209.001 136.512 209.001C138.079 209.001 138.827 210.027 138.827 211.578Z" fill="#BA68C8"/>
<path d="M139.777 211.578C139.777 210.011 140.557 209.001 142.124 209.001C143.691 209.001 144.477 210.011 144.477 211.578V216.884C144.477 218.434 143.702 219.46 142.124 219.46C140.547 219.46 139.777 218.434 139.777 216.884V211.578ZM140.907 216.938C140.907 217.877 141.3 218.418 142.124 218.418C142.948 218.418 143.336 217.872 143.336 216.938V211.523C143.336 210.6 142.954 210.044 142.124 210.044C141.294 210.044 140.907 210.59 140.907 211.523V216.938Z" fill="#BA68C8"/>
<path d="M155.416 209.104C156.983 209.104 157.638 210.196 157.638 211.67V216.807C157.638 218.259 156.983 219.356 155.427 219.356H153.277V209.104H155.416ZM155.416 219.051C156.792 219.051 157.316 218.095 157.316 216.823V211.654C157.316 210.365 156.77 209.41 155.416 209.41H153.615V219.051H155.416Z" fill="#BA68C8"/>
<path d="M159.636 216.938L159.036 219.356H158.741L161.214 209.094H161.672L164.205 219.351H163.883L163.283 216.933L159.636 216.938ZM159.691 216.649H163.223L161.421 209.47L159.691 216.649Z" fill="#BA68C8"/>
<path d="M166.946 215.213L164.555 209.104H164.877L167.12 214.771L169.358 209.104H169.697L167.268 215.213V219.351H166.946V215.213Z" fill="#BA68C8"/>
<path d="M75.6404 8.09277C78.1952 8.09277 79.5108 9.62125 79.5108 12.2961V12.842H77.027V12.1378C77.027 10.9423 76.5521 10.5001 75.7169 10.5001C74.8817 10.5001 74.4013 10.9532 74.4013 12.1378C74.4013 15.5769 79.5326 16.221 79.5326 20.9975C79.5326 23.6724 78.1952 25.2009 75.6186 25.2009C73.042 25.2009 71.7046 23.6724 71.7046 20.9975V19.9713H74.1884V21.1613C74.1884 22.3568 74.7343 22.799 75.5476 22.799C76.361 22.799 76.9069 22.3677 76.9069 21.1613C76.9069 17.7222 71.7756 17.0781 71.7756 12.307C71.7756 9.63217 73.0857 8.09277 75.6404 8.09277Z" fill="#263238"/>
<path d="M80.2751 8.29492H88.3925V10.6804H85.663V25.0154H83.0373V10.6804H80.3079L80.2751 8.29492Z" fill="#263238"/>
<path d="M89.3206 12.3068C89.3206 9.632 90.7289 8.10352 93.311 8.10352C95.893 8.10352 97.296 9.632 97.296 12.3068V20.9974C97.296 23.6722 95.8876 25.2007 93.311 25.2007C90.7344 25.2007 89.3206 23.6722 89.3206 20.9974V12.3068ZM91.9463 21.1611C91.9463 22.3566 92.4922 22.7988 93.311 22.7988C94.1298 22.7988 94.6702 22.3457 94.6702 21.1611V12.1376C94.6702 10.9421 94.1244 10.5 93.311 10.5C92.4976 10.5 91.9463 10.953 91.9463 12.1376V21.1611Z" fill="#263238"/>
<path d="M106.778 12.4218V14.6054C106.778 17.2802 105.484 18.7377 102.859 18.7377H101.619V25.0154H98.9937V8.29492H102.859C105.484 8.29492 106.778 9.7306 106.778 12.4218ZM101.619 10.6804V16.3413H102.859C103.694 16.3413 104.147 15.9592 104.147 14.7637V12.2581C104.147 11.0626 103.694 10.6804 102.859 10.6804H101.619Z" fill="#263238"/>
<path d="M115.228 8.09277C117.783 8.09277 119.093 9.62125 119.093 12.2961V12.842H116.609V12.1378C116.609 10.9423 116.134 10.5001 115.299 10.5001C114.464 10.5001 113.984 10.9532 113.984 12.1378C113.984 15.5769 119.12 16.221 119.12 20.9975C119.12 23.6724 117.783 25.2009 115.201 25.2009C112.619 25.2009 111.287 23.6724 111.287 20.9975V19.9713H113.771V21.1613C113.771 22.3568 114.317 22.799 115.13 22.799C115.943 22.799 116.489 22.3677 116.489 21.1613C116.489 17.7222 111.358 17.0781 111.358 12.307C111.358 9.63217 112.673 8.09277 115.228 8.09277Z" fill="#263238"/>
<path d="M126.184 20.1625L127.975 8.29492H131.627V25.0154H129.148V13.0059L127.33 25.0154H124.847L122.887 13.1915V25.0154H120.6V8.29492H124.252L126.184 20.1625Z" fill="#263238"/>
<path d="M133.324 12.3068C133.324 9.632 134.733 8.10352 137.309 8.10352C139.886 8.10352 141.3 9.632 141.3 12.3068V20.9974C141.3 23.6722 139.891 25.2007 137.309 25.2007C134.727 25.2007 133.324 23.6722 133.324 20.9974V12.3068ZM135.95 21.1611C135.95 22.3566 136.496 22.7988 137.309 22.7988C138.123 22.7988 138.674 22.3457 138.674 21.1611V12.1376C138.674 10.9421 138.128 10.5 137.309 10.5C136.491 10.5 135.95 10.953 135.95 12.1376V21.1611Z" fill="#263238"/>
<path d="M146.431 18.3447L145.618 19.8732V25.0154H142.992V8.29492H145.618V15.577L149.057 8.29492H151.682L148.03 15.7354L151.682 25.0154H148.986L146.431 18.3447Z" fill="#263238"/>
<path d="M152.873 8.29492H155.504V25.0154H152.873V8.29492Z" fill="#263238"/>
<path d="M159.751 12.9022V25.0154H157.387V8.29492H160.662L163.359 18.2956V8.29492H165.701V25.0154H162.999L159.751 12.9022Z" fill="#263238"/>
<path d="M171.547 15.6968H175.221V20.9974C175.221 23.6722 173.884 25.2007 171.307 25.2007C168.731 25.2007 167.388 23.6722 167.388 20.9974V12.3068C167.388 9.632 168.731 8.10352 171.307 8.10352C173.884 8.10352 175.221 9.632 175.221 12.3068V13.9445H172.737V12.1376C172.737 10.9421 172.191 10.5 171.378 10.5C170.565 10.5 170.019 10.953 170.019 12.1376V21.1611C170.019 22.3566 170.565 22.7988 171.378 22.7988C172.191 22.7988 172.737 22.3675 172.737 21.1611V18.0823H171.547V15.6968Z" fill="#263238"/>
<path d="M177.252 21.3089L176.913 15.2659V8.29492H179.545V15.2659L179.206 21.3089H177.252ZM179.495 22.4771V25.0154H176.962V22.4771H179.495Z" fill="#263238"/>
<path d="M181.788 21.3089L181.45 15.2659V8.29492H184.081V15.2659L183.742 21.3089H181.788ZM184.032 22.4771V25.0154H181.499V22.4771H184.032Z" fill="#263238"/>
</svg>
