<svg width="260" height="252" viewBox="0 0 260 252" fill="none" xmlns="http://www.w3.org/2000/svg">
<path opacity="0.2" d="M42.6089 125.727C-7.12287 154.413 -7.12287 200.995 42.6089 229.699C92.3406 258.402 172.972 258.413 222.703 229.699C272.435 200.984 272.43 154.435 222.703 125.727C172.977 97.0177 92.335 97.0122 42.6089 125.727Z" fill="#301549"/>
<path d="M18.5748 194.241C18.5748 194.241 24.4031 178.447 21.6026 161.39C20.0388 151.857 14.9481 146.633 11.4489 145.568C7.5116 144.376 2.73141 147.421 5.1936 153.975C7.53933 160.203 13.6615 163.697 14.7651 179.008C15.4971 189.106 13.9055 195.389 13.9055 195.389L18.5748 194.241Z" fill="#9955B9"/>
<path opacity="0.5" d="M18.5748 194.241C18.5748 194.241 24.4031 178.447 21.6026 161.39C20.0388 151.857 14.9481 146.633 11.4489 145.568C7.5116 144.376 2.73141 147.421 5.1936 153.975C7.53933 160.203 13.6615 163.697 14.7651 179.008C15.4971 189.106 13.9055 195.389 13.9055 195.389L18.5748 194.241Z" fill="white"/>
<path d="M16.8502 189.649C16.7892 189.63 16.7377 189.588 16.7058 189.533C16.674 189.478 16.6642 189.412 16.6783 189.35C21.7579 171.821 15.9518 155.29 10.2122 149.145C10.1658 149.097 10.1399 149.032 10.1399 148.965C10.1399 148.898 10.1658 148.833 10.2122 148.785C10.2355 148.76 10.2635 148.741 10.2945 148.728C10.3255 148.715 10.3588 148.708 10.3925 148.708C10.4262 148.708 10.4595 148.715 10.4905 148.728C10.5214 148.741 10.5494 148.76 10.5727 148.785C16.401 155.018 22.2903 171.76 17.1552 189.477C17.1359 189.54 17.0935 189.592 17.0368 189.624C16.9801 189.656 16.9133 189.665 16.8502 189.649Z" fill="white"/>
<path d="M13.9054 195.389C14.0829 191.174 12.5967 186.516 8.5596 181.159C4.5225 175.802 -1.42224 170.456 0.307948 166.658C2.03813 162.859 7.16769 164.656 10.4894 167.517C13.8112 170.379 20.56 180.56 16.2456 194.818L13.9054 195.389Z" fill="#9955B9"/>
<path opacity="0.65" d="M13.9054 195.389C14.0829 191.174 12.5967 186.516 8.5596 181.159C4.5225 175.802 -1.42224 170.456 0.307948 166.658C2.03813 162.859 7.16769 164.656 10.4894 167.517C13.8112 170.379 20.56 180.56 16.2456 194.818L13.9054 195.389Z" fill="white"/>
<path d="M15.7854 191.014C15.7272 190.998 15.6767 190.962 15.643 190.912C15.6094 190.862 15.595 190.802 15.6024 190.742C16.5007 181.93 8.482 169.231 4.16208 166.724C4.10403 166.69 4.06208 166.634 4.04545 166.568C4.02881 166.503 4.03885 166.433 4.07336 166.375C4.08947 166.345 4.11147 166.319 4.13802 166.298C4.16457 166.277 4.19512 166.262 4.2278 166.253C4.26048 166.244 4.29461 166.242 4.32812 166.247C4.36163 166.252 4.39382 166.263 4.42272 166.281C8.94782 168.882 17.0442 181.586 16.1237 190.764C16.1209 190.798 16.1115 190.83 16.096 190.86C16.0805 190.89 16.0593 190.917 16.0335 190.938C16.0077 190.96 15.9779 190.976 15.9458 190.986C15.9137 190.996 15.8799 191 15.8464 190.997L15.7854 191.014Z" fill="white"/>
<path opacity="0.12" d="M165.03 229.333C182.803 229.333 197.211 221.015 197.211 210.755C197.211 200.495 182.803 192.178 165.03 192.178C147.258 192.178 132.85 200.495 132.85 210.755C132.85 221.015 147.258 229.333 165.03 229.333Z" fill="#301549"/>
<path opacity="0.12" d="M222.836 227.874C240.609 227.874 255.017 219.557 255.017 209.297C255.017 199.037 240.609 190.72 222.836 190.72C205.064 190.72 190.656 199.037 190.656 209.297C190.656 219.557 205.064 227.874 222.836 227.874Z" fill="#301549"/>
<path opacity="0.12" d="M43.7234 228.395C64.2249 228.395 80.8447 218.799 80.8447 206.962C80.8447 195.125 64.2249 185.529 43.7234 185.529C23.2218 185.529 6.60205 195.125 6.60205 206.962C6.60205 218.799 23.2218 228.395 43.7234 228.395Z" fill="#301549"/>
<path d="M15.1475 109.911V47.3858C15.1782 46.4423 15.4492 45.5223 15.935 44.7129L12.5633 42.7443C12.0689 43.5573 11.7902 44.483 11.7537 45.4338V107.931C11.7456 108.277 11.8369 108.617 12.0168 108.912C12.1968 109.207 12.4577 109.444 12.7685 109.595L12.8628 109.65L16.0181 111.502C15.7453 111.338 15.5209 111.104 15.368 110.824C15.215 110.545 15.1389 110.23 15.1475 109.911Z" fill="#9955B9"/>
<path opacity="0.1" d="M15.1475 109.911V47.3858C15.1782 46.4423 15.4492 45.5223 15.935 44.7129L12.5633 42.7443C12.0689 43.5573 11.7902 44.483 11.7537 45.4338V107.931C11.7456 108.277 11.8369 108.617 12.0168 108.912C12.1968 109.207 12.4577 109.444 12.7685 109.595L12.8628 109.65L16.0181 111.502C15.7453 111.338 15.5209 111.104 15.368 110.824C15.215 110.545 15.1389 110.23 15.1475 109.911Z" fill="black"/>
<path d="M16.9611 111.469C16.5497 111.465 16.1568 111.298 15.868 111.005C15.5792 110.712 15.418 110.317 15.4194 109.905V47.3858C15.4619 46.5007 15.7119 45.638 16.1492 44.8674C16.5865 44.0967 17.199 43.4397 17.9371 42.9494L78.1941 7.83556C78.5043 7.63498 78.8621 7.52017 79.2311 7.50283C79.3961 7.50011 79.5595 7.5362 79.708 7.60819C79.7754 7.63687 79.8388 7.67415 79.8966 7.7191C80.1059 7.8884 80.2672 8.10956 80.3645 8.36057C80.4618 8.61158 80.4916 8.88369 80.4511 9.14983V71.6583C80.4061 72.5428 80.155 73.4045 79.7179 74.1748C79.2808 74.945 78.6697 75.6025 77.9335 76.0947L21.9853 108.708L17.6543 111.297C17.4408 111.411 17.2027 111.47 16.9611 111.469Z" fill="#FAFAFA"/>
<path d="M79.231 7.78012C79.358 7.77656 79.4839 7.80517 79.597 7.8633C79.6444 7.88113 79.6892 7.90539 79.7301 7.93539H79.7578C80.0905 8.15721 80.1571 8.53984 80.1571 9.12766V71.6583C80.108 72.4919 79.868 73.303 79.4555 74.029C79.043 74.755 78.469 75.3764 77.778 75.8452L21.8409 108.475L17.5377 111.048C17.3664 111.138 17.1766 111.187 16.9831 111.192C16.8156 111.191 16.6501 111.156 16.4959 111.091C16.3417 111.025 16.2019 110.93 16.0845 110.811C15.9671 110.691 15.8743 110.55 15.8116 110.394C15.7488 110.239 15.7173 110.073 15.7188 109.905V47.3858C15.7674 46.5529 16.0073 45.7424 16.4198 45.0173C16.8324 44.2921 17.4066 43.6718 18.0978 43.2045L78.3326 8.07402C78.6019 7.90069 78.9113 7.79949 79.231 7.78012ZM79.231 7.22557C78.8133 7.24421 78.4079 7.37234 78.0553 7.59711L17.7872 42.7221C17.0117 43.2374 16.3676 43.9271 15.9063 44.736C15.4451 45.5448 15.1795 46.4504 15.1309 47.3803V109.905C15.1287 110.145 15.1739 110.384 15.264 110.606C15.354 110.829 15.487 111.031 15.6555 111.202C15.8239 111.373 16.0245 111.509 16.2457 111.603C16.4668 111.696 16.7042 111.745 16.9443 111.746C17.2365 111.746 17.524 111.673 17.7817 111.536L22.1071 108.946L78.0387 76.3221C78.8149 75.8062 79.4595 75.1156 79.9208 74.3057C80.3821 73.4958 80.6472 72.5891 80.695 71.6583V9.14984C80.7396 8.84064 80.7039 8.52515 80.5913 8.23376C80.4786 7.94237 80.2928 7.68492 80.0517 7.4862C79.8058 7.31438 79.5143 7.21977 79.2143 7.21448L79.231 7.22557Z" fill="#9955B9"/>
<path d="M78.0498 7.59707L17.7872 42.722C17.0082 43.2203 16.3674 43.9069 15.924 44.7184L12.5579 42.7387C12.9925 41.9368 13.6266 41.2607 14.399 40.7756L74.6671 5.65061C74.9426 5.44836 75.2687 5.32629 75.6093 5.2979C75.9499 5.26952 76.2917 5.33593 76.5969 5.48979C77.0683 5.7837 79.2698 7.05361 79.8243 7.35861C79.5319 7.24866 79.2167 7.21289 78.9071 7.2545C78.5974 7.29611 78.3029 7.41381 78.0498 7.59707Z" fill="#9955B9"/>
<path opacity="0.4" d="M78.0498 7.59707L17.7872 42.722C17.0082 43.2203 16.3674 43.9069 15.924 44.7184L12.5579 42.7387C12.9925 41.9368 13.6266 41.2607 14.399 40.7756L74.6671 5.65061C74.9426 5.44836 75.2687 5.32629 75.6093 5.2979C75.9499 5.26952 76.2917 5.33593 76.5969 5.48979C77.0683 5.7837 79.2698 7.05361 79.8243 7.35861C79.5319 7.24866 79.2167 7.21289 78.9071 7.2545C78.5974 7.29611 78.3029 7.41381 78.0498 7.59707Z" fill="white"/>
<path d="M20.0054 63.6007C20.0054 64.1996 20.449 64.438 20.998 64.1275L25.878 61.3548C26.1625 61.1754 26.4004 60.9311 26.572 60.6418C26.7436 60.3526 26.844 60.0268 26.8651 59.6911C26.8651 59.0867 26.4215 58.8537 25.878 59.1366L20.998 61.9093C20.7085 62.0903 20.467 62.3387 20.2942 62.6332C20.1213 62.9277 20.0223 63.2596 20.0054 63.6007Z" fill="#455A64"/>
<path d="M28.2183 58.9202C28.2183 59.5247 28.6619 59.7576 29.2109 59.4471L34.0909 56.6743C34.3754 56.495 34.6132 56.2506 34.7849 55.9614C34.9565 55.6722 35.0569 55.3463 35.078 55.0107C35.078 54.4062 34.6344 54.1733 34.0909 54.4561L29.2109 57.2289C28.9214 57.4099 28.6799 57.6583 28.5071 57.9528C28.3342 58.2473 28.2351 58.5792 28.2183 58.9202Z" fill="#455A64"/>
<path d="M36.4478 54.2399C36.4478 54.8444 36.8914 55.0773 37.4404 54.7945L42.3204 52.0217C42.6049 51.8424 42.8427 51.5981 43.0143 51.3088C43.186 51.0196 43.2864 50.6938 43.3075 50.3581C43.3075 49.7537 42.8639 49.5207 42.3204 49.8036L37.4404 52.5763C37.1546 52.7547 36.9154 52.9987 36.7428 53.288C36.5701 53.5773 36.469 53.9037 36.4478 54.2399Z" fill="#455A64"/>
<path d="M44.6772 49.5595C44.6772 50.164 45.1209 50.3969 45.6699 50.1141L50.5499 47.3413C50.8344 47.162 51.0722 46.9176 51.2438 46.6284C51.4154 46.3392 51.5159 46.0133 51.537 45.6777C51.537 45.0732 51.0934 44.8403 50.5499 45.1231L45.6699 47.8959C45.3841 48.0743 45.1449 48.3182 44.9723 48.6076C44.7996 48.8969 44.6985 49.2233 44.6772 49.5595Z" fill="#455A64"/>
<path d="M52.9067 44.8791C52.9067 45.4835 53.3504 45.7165 53.8994 45.4336L58.7738 42.6609C59.0597 42.4825 59.2988 42.2385 59.4715 41.9492C59.6441 41.6599 59.7452 41.3335 59.7665 40.9973C59.7665 40.3928 59.3228 40.1599 58.7794 40.4427L53.8994 43.2155C53.6135 43.3938 53.3744 43.6378 53.2017 43.9272C53.0291 44.2165 52.928 44.5428 52.9067 44.8791Z" fill="#455A64"/>
<path d="M61.1362 40.1766C61.1362 40.7811 61.5799 41.014 62.1289 40.7034L67.0033 37.9307C67.2898 37.753 67.5294 37.5092 67.7022 37.2197C67.8749 36.9302 67.9756 36.6035 67.996 36.2671C67.996 35.6681 67.5523 35.4297 67.0033 35.7125L62.1289 38.4852C61.8393 38.6663 61.5979 38.9146 61.425 39.2091C61.2522 39.5036 61.1531 39.8356 61.1362 40.1766Z" fill="#455A64"/>
<path d="M69.3601 35.5184C69.3601 36.1228 69.8037 36.3558 70.3527 36.0729L75.2272 33.3002C75.5137 33.1225 75.7533 32.8787 75.926 32.5892C76.0988 32.2997 76.1995 31.973 76.2198 31.6366C76.2198 31.0377 75.7762 30.7992 75.2272 31.1097L70.3527 33.8825C70.0705 34.0582 69.8336 34.2978 69.6612 34.582C69.4887 34.8662 69.3856 35.1869 69.3601 35.5184Z" fill="#455A64"/>
<path d="M23.3715 67.9039L24.2699 67.3937C25.6729 66.6007 26.8152 67.1774 26.8152 68.6913C26.7524 69.5411 26.4908 70.3642 26.0516 71.0943C25.6123 71.8244 25.0077 72.4411 24.2865 72.8948L23.3327 73.4493C21.9352 74.2645 20.804 73.6767 20.804 72.1406C20.8633 71.2809 21.1273 70.4479 21.5739 69.7109C22.0206 68.9739 22.6369 68.3544 23.3715 67.9039Z" fill="#E0E0E0"/>
<path d="M23.3715 77.3756L24.2699 76.8654C25.6729 76.0724 26.8153 76.6491 26.8153 78.163C26.7524 79.0135 26.4908 79.8373 26.0517 80.5684C25.6125 81.2994 25.0079 81.9171 24.2865 82.372L23.3549 82.9266C21.9574 83.7418 20.8262 83.1539 20.8262 81.6178C20.8823 80.7592 21.1425 79.9263 21.5852 79.1885C22.0279 78.4507 22.6403 77.8291 23.3715 77.3756Z" fill="#E0E0E0"/>
<path d="M23.3715 96.33L24.2699 95.8254C25.6729 95.0268 26.8153 95.6091 26.8153 97.1175C26.7533 97.9682 26.4921 98.7924 26.0528 99.5235C25.6135 100.255 25.0085 100.872 24.2865 101.326L23.3549 101.881C21.9574 102.691 20.8262 102.103 20.8262 100.567C20.8831 99.7091 21.1437 98.8773 21.5864 98.1405C22.0291 97.4037 22.641 96.783 23.3715 96.33Z" fill="#E0E0E0"/>
<path d="M31.6066 63.2125L32.505 62.7078C33.908 61.9093 35.0504 62.4916 35.0504 63.9999C34.9884 64.8506 34.7272 65.6748 34.2879 66.406C33.8486 67.1371 33.2436 67.7547 32.5216 68.2089L31.59 68.7635C30.1926 69.5731 29.0613 68.9853 29.0613 67.4492C29.1182 66.5915 29.3788 65.7598 29.8215 65.023C30.2642 64.2861 30.8761 63.6655 31.6066 63.2125Z" fill="#E0E0E0"/>
<path d="M31.6066 72.6952L32.505 72.185C33.908 71.3865 35.0504 71.9687 35.0504 73.4771C34.9884 74.3278 34.7272 75.152 34.2879 75.8831C33.8486 76.6143 33.2436 77.2319 32.5216 77.6861L31.59 78.2407C30.1926 79.0503 29.0613 78.4625 29.0613 76.9264C29.1177 76.0693 29.3782 75.2382 29.821 74.5022C30.2637 73.7662 30.876 73.1466 31.6066 72.6952Z" fill="#E0E0E0"/>
<path d="M31.6066 91.6496L32.505 91.1394C33.908 90.3409 35.0504 90.9232 35.0504 92.4371C34.9875 93.2868 34.7259 94.1099 34.2867 94.84C33.8475 95.5701 33.2429 96.1869 32.5216 96.6405L31.59 97.1951C30.1926 98.0047 29.0613 97.4169 29.0613 95.8808C29.1177 95.0238 29.3782 94.1926 29.821 93.4566C30.2637 92.7206 30.876 92.1011 31.6066 91.6496Z" fill="#E0E0E0"/>
<path d="M39.8415 58.5321L40.7399 58.0219C42.1429 57.2289 43.2852 57.8056 43.2852 59.3195C43.2224 60.1692 42.9608 60.9923 42.5216 61.7224C42.0823 62.4526 41.4777 63.0693 40.7565 63.523L39.8249 64.0775C38.4274 64.8872 37.2961 64.3049 37.2961 62.7688C37.3535 61.9112 37.6143 61.0797 38.057 60.3429C38.4996 59.6062 39.1113 58.9854 39.8415 58.5321Z" fill="#E0E0E0"/>
<path d="M39.8415 68.0092L40.7399 67.499C42.1429 66.706 43.2852 67.2828 43.2852 68.7967C43.2224 69.6472 42.9608 70.471 42.5216 71.202C42.0824 71.933 41.4779 72.5508 40.7565 73.0057L39.8249 73.5602C38.4274 74.3754 37.2961 73.7876 37.2961 72.2515C37.3536 71.3932 37.6143 70.5609 38.0569 69.8232C38.4995 69.0856 39.1112 68.4638 39.8415 68.0092Z" fill="#E0E0E0"/>
<path d="M39.8415 86.9637L40.7399 86.4535C42.1429 85.6605 43.2852 86.2428 43.2852 87.7512C43.2224 88.6017 42.9608 89.4255 42.5216 90.1565C42.0824 90.8875 41.4779 91.5053 40.7565 91.9602L39.8249 92.5147C38.4274 93.3244 37.2961 92.7366 37.2961 91.2005C37.3544 90.3431 37.6156 89.5119 38.0581 88.7753C38.5007 88.0387 39.1119 87.4178 39.8415 86.9637Z" fill="#E0E0E0"/>
<path d="M48.0766 53.8461L48.975 53.3415C50.378 52.543 51.5204 53.1252 51.5204 54.6336C51.4583 55.4843 51.1971 56.3085 50.7579 57.0396C50.3186 57.7708 49.7136 58.3884 48.9916 58.8426L48.06 59.3971C46.6625 60.2068 45.5312 59.619 45.5312 58.0829C45.5895 57.2255 45.8507 56.3943 46.2933 55.6577C46.7358 54.9211 47.347 54.3002 48.0766 53.8461Z" fill="#E0E0E0"/>
<path d="M48.0766 63.3289L48.975 62.8187C50.378 62.0201 51.5204 62.6024 51.5204 64.1108C51.4583 64.9615 51.1971 65.7856 50.7579 66.5168C50.3186 67.2479 49.7136 67.8656 48.9916 68.3198L48.06 68.8743C46.6625 69.684 45.5312 69.0961 45.5312 67.56C45.5886 66.7032 45.8495 65.8724 46.2921 65.1366C46.7348 64.4007 47.3465 63.781 48.0766 63.3289Z" fill="#E0E0E0"/>
<path d="M56.7608 56.5801C56.7608 56.5801 58.8736 59.2641 58.8736 61.4213C58.8736 63.0017 57.9253 64.8206 56.7608 65.4806C55.5962 66.1405 54.6479 65.4029 54.6479 63.8169C54.6479 61.6708 56.7608 56.5801 56.7608 56.5801Z" fill="#9955B9"/>
<path d="M65.0014 51.8885C65.0014 51.8885 67.1419 54.5947 67.1419 56.7297C67.1419 58.3102 66.1937 60.1291 65.0291 60.789C63.8646 61.4489 62.9163 60.7114 62.9163 59.1254C62.8886 56.9737 65.0014 51.8885 65.0014 51.8885Z" fill="#9955B9"/>
<path opacity="0.1" d="M65.0014 51.8885C65.0014 51.8885 67.1419 54.5947 67.1419 56.7297C67.1419 58.3102 66.1937 60.1291 65.0291 60.789C63.8646 61.4489 62.9163 60.7114 62.9163 59.1254C62.8886 56.9737 65.0014 51.8885 65.0014 51.8885Z" fill="white"/>
<path d="M73.2418 47.1971C73.2418 47.1971 75.3547 49.8811 75.3547 52.0383C75.3547 53.6188 74.4119 55.4322 73.2418 56.0976C72.0718 56.7631 71.1346 56.02 71.1346 54.434C71.1235 52.2823 73.2418 47.1971 73.2418 47.1971Z" fill="#9955B9"/>
<path opacity="0.2" d="M73.2418 47.1971C73.2418 47.1971 75.3547 49.8811 75.3547 52.0383C75.3547 53.6188 74.4119 55.4322 73.2418 56.0976C72.0718 56.7631 71.1346 56.02 71.1346 54.434C71.1235 52.2823 73.2418 47.1971 73.2418 47.1971Z" fill="white"/>
<path d="M23.8152 84.7843C23.8152 84.7843 25.928 87.4738 25.928 89.631C25.928 91.2059 24.9853 93.0249 23.8152 93.6903C22.6451 94.3558 21.7024 93.6071 21.7024 92.0267C21.7024 89.875 23.8152 84.7843 23.8152 84.7843Z" fill="#9955B9"/>
<path opacity="0.4" d="M23.8152 84.7843C23.8152 84.7843 25.928 87.4738 25.928 89.631C25.928 91.2059 24.9853 93.0249 23.8152 93.6903C22.6451 94.3558 21.7024 93.6071 21.7024 92.0267C21.7024 89.875 23.8152 84.7843 23.8152 84.7843Z" fill="white"/>
<path d="M32.0557 80.1039C32.0557 80.1039 34.1685 82.7879 34.1685 84.9506C34.1685 86.5255 33.2202 88.3444 32.0557 89.0044C30.8911 89.6643 29.9429 88.9267 29.9429 87.3407C29.9429 85.1835 32.0557 80.1039 32.0557 80.1039Z" fill="#9955B9"/>
<path opacity="0.6" d="M32.0557 80.1039C32.0557 80.1039 34.1685 82.7879 34.1685 84.9506C34.1685 86.5255 33.2202 88.3444 32.0557 89.0044C30.8911 89.6643 29.9429 88.9267 29.9429 87.3407C29.9429 85.1835 32.0557 80.1039 32.0557 80.1039Z" fill="white"/>
<path d="M40.2964 75.4014C40.2964 75.4014 42.4037 78.0854 42.4037 80.2426C42.4037 81.823 41.461 83.6419 40.2964 84.3018C39.1319 84.9618 38.1836 84.2242 38.1836 82.6382C38.1836 80.4866 40.2964 75.4014 40.2964 75.4014Z" fill="#9955B9"/>
<path opacity="0.8" d="M40.2964 75.4014C40.2964 75.4014 42.4037 78.0854 42.4037 80.2426C42.4037 81.823 41.461 83.6419 40.2964 84.3018C39.1319 84.9618 38.1836 84.2242 38.1836 82.6382C38.1836 80.4866 40.2964 75.4014 40.2964 75.4014Z" fill="white"/>
<path d="M48.0766 72.8061L48.975 72.2959C50.378 71.4974 51.5204 72.0797 51.5204 73.5936C51.4575 74.4433 51.1959 75.2664 50.7567 75.9965C50.3174 76.7266 49.7129 77.3434 48.9916 77.797L48.06 78.3516C46.6625 79.1612 45.5312 78.5734 45.5312 77.0373C45.5886 76.1805 45.8495 75.3497 46.2921 74.6138C46.7348 73.878 47.3465 73.2583 48.0766 72.8061Z" fill="#E0E0E0"/>
<path d="M48.0766 82.2833L48.975 81.7731C50.378 80.9746 51.5204 81.5568 51.5204 83.0707C51.4575 83.9205 51.1959 84.7436 50.7567 85.4737C50.3174 86.2038 49.7129 86.8205 48.9916 87.2742L48.06 87.8287C46.6625 88.6384 45.5312 88.0506 45.5312 86.5145C45.5886 85.6576 45.8495 84.8269 46.2921 84.091C46.7348 83.3551 47.3465 82.7354 48.0766 82.2833Z" fill="#E0E0E0"/>
<path d="M56.3117 49.1657L57.2101 48.6556C58.6186 47.857 59.7555 48.4393 59.7555 49.9532C59.6926 50.8029 59.431 51.626 58.9918 52.3561C58.5526 53.0862 57.948 53.703 57.2267 54.1567L56.2951 54.7112C54.8976 55.5208 53.7664 54.9386 53.7664 53.3969C53.8237 52.5401 54.0846 51.7093 54.5272 50.9734C54.9699 50.2376 55.5817 49.6179 56.3117 49.1657Z" fill="#E0E0E0"/>
<path d="M56.3117 68.1202L57.2101 67.61C58.6186 66.817 59.7555 67.3937 59.7555 68.9076C59.6926 69.7581 59.431 70.582 58.9918 71.313C58.5527 72.044 57.9481 72.6618 57.2267 73.1167L56.2951 73.6712C54.8976 74.4864 53.7664 73.8986 53.7664 72.3625C53.8238 71.5042 54.0846 70.6718 54.5271 69.9342C54.9697 69.1966 55.5814 68.5748 56.3117 68.1202Z" fill="#E0E0E0"/>
<path d="M56.3117 77.5974L57.2101 77.0872C58.6186 76.2942 59.7555 76.8765 59.7555 78.3848C59.6926 79.2353 59.431 80.0592 58.9918 80.7902C58.5527 81.5212 57.9481 82.139 57.2267 82.5939L56.2951 83.1484C54.8976 83.9636 53.7664 83.3758 53.7664 81.8397C53.8238 80.9814 54.0846 80.149 54.5271 79.4114C54.9697 78.6738 55.5814 78.052 56.3117 77.5974Z" fill="#E0E0E0"/>
<path d="M64.5466 44.4798L65.445 43.9752C66.8535 43.1766 67.9903 43.7589 67.9903 45.2673C67.9283 46.118 67.6671 46.9421 67.2278 47.6733C66.7886 48.4044 66.1835 49.022 65.4616 49.4763L64.5299 50.0308C63.1325 50.8404 62.0012 50.2526 62.0012 48.7165C62.0595 47.8592 62.3207 47.028 62.7632 46.2914C63.2058 45.5548 63.817 44.9338 64.5466 44.4798Z" fill="#E0E0E0"/>
<path d="M64.5466 63.4675L65.4449 62.9573C66.8535 62.1588 67.9903 62.741 67.9903 64.2549C67.9293 65.1032 67.6702 65.9253 67.2339 66.6553C66.7977 67.3853 66.1963 68.0029 65.4782 68.4584L64.5466 69.013C63.1491 69.8226 62.0178 69.2348 62.0178 67.6987C62.0734 66.8434 62.3317 66.0135 62.7714 65.2778C63.2111 64.5421 63.8196 63.9215 64.5466 63.4675Z" fill="#E0E0E0"/>
<path d="M64.5466 72.8949L65.4449 72.3847C66.8535 71.5861 67.9903 72.1684 67.9903 73.6823C67.9293 74.5306 67.6702 75.3527 67.2339 76.0827C66.7977 76.8127 66.1963 77.4302 65.4782 77.8858L64.5466 78.4403C63.1491 79.25 62.0178 78.6621 62.0178 77.1261C62.0734 76.2707 62.3317 75.4409 62.7714 74.7052C63.2111 73.9694 63.8196 73.3489 64.5466 72.8949Z" fill="#E0E0E0"/>
<path d="M72.7817 39.7995L73.6801 39.2893C75.0886 38.4908 76.2254 39.0731 76.2254 40.587C76.1626 41.4367 75.901 42.2598 75.4617 42.9899C75.0225 43.72 74.4179 44.3368 73.6967 44.7904L72.7651 45.345C71.3676 46.1546 70.2363 45.5668 70.2363 44.0307C70.2937 43.1739 70.5545 42.3431 70.9972 41.6072C71.4399 40.8714 72.0516 40.2517 72.7817 39.7995Z" fill="#E0E0E0"/>
<path d="M72.7817 58.7539L73.6801 58.2437C75.0886 57.4507 76.2254 58.0274 76.2254 59.5413C76.1625 60.3918 75.901 61.2157 75.4618 61.9467C75.0226 62.6777 74.4181 63.2954 73.6967 63.7503L72.7651 64.3049C71.3676 65.12 70.2363 64.5322 70.2363 62.9961C70.2938 62.1378 70.5545 61.3055 70.9971 60.5679C71.4397 59.8302 72.0514 59.2084 72.7817 58.7539Z" fill="#E0E0E0"/>
<path d="M72.7817 68.231L73.6801 67.7208C75.0886 66.9278 76.2254 67.5046 76.2254 69.0185C76.1625 69.869 75.901 70.6928 75.4618 71.4238C75.0226 72.1549 74.4181 72.7726 73.6967 73.2275L72.7651 73.782C71.3676 74.5972 70.2363 74.0094 70.2363 72.4733C70.2938 71.615 70.5545 70.7827 70.9971 70.045C71.4397 69.3074 72.0514 68.6856 72.7817 68.231Z" fill="#E0E0E0"/>
<path d="M20.3381 53.1919L76.2142 20.4459V14.4956L20.3381 47.236V53.1919Z" fill="#9955B9"/>
<path d="M20.3381 57.9221C20.3889 57.9232 20.4389 57.9097 20.4823 57.8833L76.3528 25.1651C76.3882 25.1491 76.4198 25.1259 76.4456 25.0969C76.4714 25.068 76.4909 25.0339 76.5027 24.997C76.5145 24.96 76.5185 24.921 76.5143 24.8824C76.5101 24.8438 76.4978 24.8066 76.4783 24.773C76.4588 24.7395 76.4325 24.7104 76.4011 24.6877C76.3696 24.665 76.3338 24.6491 76.2958 24.6411C76.2579 24.6331 76.2186 24.6331 76.1807 24.6413C76.1428 24.6494 76.1069 24.6653 76.0756 24.6882L20.1994 57.423C20.1374 57.461 20.0928 57.5218 20.0752 57.5923C20.0575 57.6628 20.0683 57.7375 20.1052 57.8001C20.1305 57.8385 20.1652 57.8698 20.2059 57.8912C20.2466 57.9125 20.2921 57.9232 20.3381 57.9221Z" fill="#E0E0E0"/>
<path d="M186.924 3.02208C186.63 2.9186 186.316 2.88676 186.007 2.9292C185.699 2.97164 185.404 3.08713 185.149 3.26608L70.5635 69.4124C69.7903 69.9183 69.1469 70.599 68.6855 71.3996C68.224 72.2001 67.9574 73.098 67.9072 74.0207V182.473C67.8765 182.795 67.9269 183.12 68.0538 183.417C68.1807 183.714 68.38 183.975 68.6337 184.176C68.179 183.876 64.153 181.603 63.6428 181.309C63.3767 181.115 63.1661 180.855 63.0318 180.554C62.8975 180.253 62.8443 179.923 62.8775 179.595V71.1426C62.9274 70.2179 63.1956 69.3182 63.6602 68.5172C64.1248 67.7162 64.7726 67.0367 65.5504 66.5343L180.147 0.35471C180.421 0.157721 180.742 0.037831 181.078 0.00758792C181.413 -0.0226551 181.751 0.0378597 182.055 0.1828C182.488 0.437892 185.981 2.42317 186.924 3.02208Z" fill="#F0F0F0"/>
<path d="M70.5634 69.4124L185.149 3.24394C186.624 2.39549 187.817 3.08312 187.817 4.78004V113.238C187.767 114.162 187.499 115.061 187.035 115.862C186.572 116.663 185.926 117.343 185.149 117.847L70.5634 184.015C69.0939 184.863 67.9016 184.176 67.9016 182.479V74.0041C67.955 73.0838 68.2236 72.1889 68.686 71.3914C69.1483 70.5939 69.7914 69.9161 70.5634 69.4124Z" fill="white"/>
<path d="M68.6835 71.4032L63.6926 68.514C63.2086 69.308 62.9374 70.2133 62.9051 71.1426V179.595C62.8719 179.923 62.9251 180.253 63.0594 180.554C63.1937 180.855 63.4043 181.115 63.6704 181.309C64.1584 181.603 68.1844 183.876 68.6613 184.176C68.4076 183.975 68.2082 183.714 68.0813 183.417C67.9544 183.12 67.9041 182.795 67.9348 182.473V74.004C67.963 73.0881 68.2204 72.1939 68.6835 71.4032Z" fill="#E0E0E0"/>
<path opacity="0.15" d="M68.6835 71.4032L63.6926 68.514C63.2086 69.308 62.9374 70.2133 62.9051 71.1426V179.595C62.8719 179.923 62.9251 180.253 63.0594 180.554C63.1937 180.855 63.4043 181.115 63.6704 181.309C64.1584 181.603 68.1844 183.876 68.6613 184.176C68.4076 183.975 68.2082 183.714 68.0813 183.417C67.9544 183.12 67.9041 182.795 67.9348 182.473V74.004C67.963 73.0881 68.2204 72.1939 68.6835 71.4032Z" fill="black"/>
<path d="M186.369 4.13115C186.602 4.13115 186.613 4.73561 186.613 4.80215V113.238C186.563 113.946 186.353 114.633 185.997 115.247C185.642 115.861 185.151 116.386 184.562 116.782L69.9479 182.95C69.783 183.063 69.5921 183.131 69.3933 183.15C69.1549 183.15 69.1493 182.545 69.1493 182.479V74.004C69.199 73.296 69.409 72.6086 69.7635 71.9937C70.1181 71.3788 70.6078 70.8526 71.1956 70.4549L185.765 4.30861C185.931 4.19834 186.121 4.12985 186.319 4.10897M186.319 2.88342C185.898 2.8984 185.487 3.0226 185.127 3.24388L70.5634 69.4124C69.7884 69.9182 69.1436 70.5995 68.6811 71.4011C68.2186 72.2028 67.9516 73.1021 67.9016 74.0262V182.479C67.9016 183.682 68.5005 184.381 69.3767 184.381C69.7976 184.366 70.207 184.239 70.5634 184.015L185.149 117.846C185.926 117.343 186.572 116.663 187.035 115.862C187.499 115.061 187.767 114.162 187.817 113.238V4.77997C187.817 3.5766 187.212 2.88342 186.342 2.88342H186.319Z" fill="#E0E0E0"/>
<path d="M153.097 62.464C151.849 64.538 151.511 66.4789 149.215 66.8505C146.919 67.222 144.185 67.1277 143.52 66.9225C142.854 66.7174 143.242 64.2829 143.242 64.2829C143.242 64.2829 141.141 69.2738 141.972 72.2684C142.588 70.4384 142.976 69.5788 144.435 68.9078C145.893 68.2368 148.871 67.6157 149.775 68.6694C150.679 69.723 151.477 73.2 155.176 71.4421L153.097 62.464Z" fill="#9955B9"/>
<path d="M102.633 91.6109C103.875 92.2487 104.213 93.8014 106.515 91.5111C108.553 89.4694 110.455 87.2965 112.21 85.0063C112.875 84.0247 112.482 82.0505 112.482 82.0505C113.141 82.9843 113.596 84.0471 113.816 85.1692C114.036 86.2913 114.016 87.4472 113.757 88.5609C113.141 87.4518 112.753 87.0359 111.289 88.0507C109.825 89.0656 106.853 91.8882 105.949 93.9788C105.045 96.0695 104.247 100.478 100.553 102.968L102.633 91.6109Z" fill="#9955B9"/>
<path d="M123.672 142.973C124.632 132.991 122.829 131.211 121.26 124.873C119.929 119.488 120.151 116.161 121.532 108.791C122.913 101.421 119.036 102.136 115.809 94.7163C112.581 87.2965 113.397 83.2538 111.467 79.0004C109.537 74.7471 99.6937 77.6474 95.4348 75.3238C91.1759 73.0003 85.7468 73.516 83.3401 76.7878C80.4398 80.7362 81.0498 86.0321 85.2588 89.0488C89.4678 92.0656 94.1316 85.8158 96.8322 86.6532C94.0595 88.6385 95.3183 90.7069 95.3183 90.7069C95.3183 90.7069 90.5659 102.308 89.7063 103.461C88.8468 104.615 89.3015 107.898 89.3015 107.898C89.3015 107.898 78.5876 97.489 78.5876 85.2779C78.5876 73.0668 88.0149 69.0574 93.3719 71.015C98.7288 72.9725 102.095 74.1371 108.578 72.0686C115.06 70.0002 117.45 57.6227 127.859 51.6169C138.268 45.6112 140.652 55.2215 147.135 49.8036C153.618 44.3857 157.006 39.3171 162.346 31.193C167.687 23.0689 177.125 16.1814 177.125 28.4203C177.125 40.6591 166.406 63.3456 166.406 63.3456C166.406 63.3456 167.027 58.9425 166.167 58.8039C165.308 58.6652 160.799 52.848 160.799 52.848C160.799 52.848 161.625 49.6317 158.875 50.8128C161.587 46.8478 166.239 47.7296 170.448 39.8495C174.657 31.9694 175.267 25.9858 172.367 25.3758C169.96 24.8767 164.526 30.6273 160.272 37.8697C156.019 45.1121 146.17 53.5745 144.24 60.0516C142.311 66.5287 143.131 69.6175 139.898 80.7805C136.665 91.9436 132.811 95.6535 134.175 101.46C135.54 107.266 136.604 109.595 135.711 116.516C134.641 124.784 132.34 128.527 133.299 137.394C130.188 136.773 126.983 138.431 123.672 142.973Z" fill="#9955B9"/>
<path opacity="0.4" d="M123.672 142.973C124.632 132.991 122.829 131.211 121.26 124.873C119.929 119.488 120.151 116.161 121.532 108.791C122.913 101.421 119.036 102.136 115.809 94.7163C112.581 87.2965 113.397 83.2538 111.467 79.0004C109.537 74.7471 99.6937 77.6474 95.4348 75.3238C91.1759 73.0003 85.7468 73.516 83.3401 76.7878C80.4398 80.7362 81.0498 86.0321 85.2588 89.0488C89.4678 92.0656 94.1316 85.8158 96.8322 86.6532C94.0595 88.6385 95.3183 90.7069 95.3183 90.7069C95.3183 90.7069 90.5659 102.308 89.7063 103.461C88.8468 104.615 89.3015 107.898 89.3015 107.898C89.3015 107.898 78.5876 97.489 78.5876 85.2779C78.5876 73.0668 88.0149 69.0574 93.3719 71.015C98.7288 72.9725 102.095 74.1371 108.578 72.0686C115.06 70.0002 117.45 57.6227 127.859 51.6169C138.268 45.6112 140.652 55.2215 147.135 49.8036C153.618 44.3857 157.006 39.3171 162.346 31.193C167.687 23.0689 177.125 16.1814 177.125 28.4203C177.125 40.6591 166.406 63.3456 166.406 63.3456C166.406 63.3456 167.027 58.9425 166.167 58.8039C165.308 58.6652 160.799 52.848 160.799 52.848C160.799 52.848 161.625 49.6317 158.875 50.8128C161.587 46.8478 166.239 47.7296 170.448 39.8495C174.657 31.9694 175.267 25.9858 172.367 25.3758C169.96 24.8767 164.526 30.6273 160.272 37.8697C156.019 45.1121 146.17 53.5745 144.24 60.0516C142.311 66.5287 143.131 69.6175 139.898 80.7805C136.665 91.9436 132.811 95.6535 134.175 101.46C135.54 107.266 136.604 109.595 135.711 116.516C134.641 124.784 132.34 128.527 133.299 137.394C130.188 136.773 126.983 138.431 123.672 142.973Z" fill="white"/>
<path d="M108.578 74.2258C101.69 74.9911 97.6254 74.0428 91.7084 72.2017C85.7914 70.3606 81.3439 74.6972 79.8744 80.5199C78.8208 84.6901 80.135 92.0268 83.3403 96.2968C86.5456 100.567 89.3239 101.443 89.3239 101.443L93.1225 92.1599C93.1225 92.1599 88.725 94.378 85.6361 92.3706C82.5473 90.3631 80.0241 86.204 80.8948 80.5865C81.7654 74.9689 86.9116 71.747 91.7084 73.1389C96.5052 74.5308 100.565 75.6122 108.578 74.2258Z" fill="#9955B9"/>
<path d="M147.135 51.9608C154.023 44.7517 158.093 39.1341 164.005 30.461C169.916 21.7879 174.369 20.9894 175.833 25.1263C176.887 28.082 175.572 36.9381 172.367 44.907C169.162 52.8758 166.406 56.9185 166.406 56.9185L163.134 51.8943C166.006 49.6343 168.376 46.8015 170.093 43.5761C173.188 37.9807 175.678 30.9601 174.807 26.3518C173.936 21.7436 168.796 24.4498 163.993 31.3871C159.191 38.3245 155.148 44.0973 147.135 51.9608Z" fill="#9955B9"/>
<path d="M127.859 68.4585C123.977 70.6767 113.252 74.4199 108.578 74.2147C112.36 74.3423 116.696 75.0798 118.748 77.4311C120.8 79.7824 120.966 84.9563 122.519 86.997C124.072 89.0378 127.693 90.108 127.859 96.3079C128.02 89.9195 131.663 84.6624 133.194 80.8305C134.725 76.9986 134.919 71.6306 136.97 66.9114C139.022 62.1922 143.353 56.4471 147.135 51.9386C142.466 57.5617 131.719 66.2404 127.859 68.4585Z" fill="#9955B9"/>
<path d="M128.491 138.293C129.528 137.676 130.707 137.336 131.913 137.305C131.913 120.946 133.261 119.51 134.131 116.843C135.041 114.031 134.996 112.362 134.525 111.979C134.054 111.597 132.717 115.595 131.098 116.621C129.706 117.508 127.87 117.73 127.87 115.595C127.87 117.741 127.205 118.562 126.096 119.144C124.116 120.176 122.325 118.456 121.854 119.377C121.382 120.298 121.781 121.595 123.062 122.793C124.343 123.991 125.081 124.895 125.081 141.254C126.058 140.092 127.212 139.092 128.503 138.293" fill="#9955B9"/>
<path d="M127.859 96.319C128.092 99.3967 128.147 102.58 128.153 105.785C128.159 108.99 128.092 112.246 127.859 115.595C127.621 112.517 127.571 109.334 127.56 106.129C127.549 102.924 127.626 99.6629 127.859 96.319Z" fill="#9955B9"/>
<path d="M103.742 96.868C103.015 101.304 99.1447 105.336 95.102 105.924C91.0594 106.512 88.3865 103.395 89.1129 98.9587C89.8394 94.5223 93.7101 90.4908 97.7528 89.9085C101.795 89.3262 104.485 92.4483 103.742 96.868Z" fill="#9955B9"/>
<path opacity="0.8" d="M103.742 96.868C103.015 101.304 99.1447 105.336 95.102 105.924C91.0594 106.512 88.3865 103.395 89.1129 98.9587C89.8394 94.5223 93.7101 90.4908 97.7528 89.9085C101.795 89.3262 104.485 92.4483 103.742 96.868Z" fill="white"/>
<path d="M151.988 69.0132C152.714 72.59 156.585 72.1796 160.627 68.0926C164.67 64.0056 167.354 57.8058 166.622 54.229C165.89 50.6521 162.025 51.068 157.982 55.1495C153.94 59.231 151.233 65.4585 151.988 69.0132Z" fill="#9955B9"/>
<path opacity="0.8" d="M151.988 69.0132C152.714 72.59 156.585 72.1796 160.627 68.0926C164.67 64.0056 167.354 57.8058 166.622 54.229C165.89 50.6521 162.025 51.068 157.982 55.1495C153.94 59.231 151.233 65.4585 151.988 69.0132Z" fill="white"/>
<path d="M73.7577 200.191C73.7577 195.694 70.7854 191.191 64.8406 187.758C52.9511 180.893 33.6695 180.893 21.7745 187.758C15.8298 191.191 12.8574 195.688 12.8574 200.191V204.35C12.8574 208.853 15.8298 213.351 21.7745 216.783C33.6695 223.649 52.9511 223.649 64.8406 216.783C70.7909 213.351 73.7577 208.853 73.7577 204.35V200.191Z" fill="#263238"/>
<path d="M21.7745 187.758C15.8298 191.191 12.8574 195.694 12.8574 200.191C12.8574 204.689 15.8298 209.192 21.7745 212.641C33.6696 219.506 52.9511 219.506 64.8406 212.641C70.7854 209.208 73.7633 204.705 73.7633 200.208C73.7633 195.711 70.7854 191.208 64.8406 187.775C52.9511 180.893 33.6696 180.893 21.7745 187.758Z" fill="#455A64"/>
<path d="M64.2639 174.998C62.0319 172.535 59.5758 170.285 56.9272 168.277C54.393 166.336 52.3689 165.077 51.0435 163.785C48.609 161.412 48.0656 159.61 48.0656 158.212C48.0656 156.815 48.6201 155.001 51.0435 152.628C53.4669 150.254 58.3136 147.964 64.2639 141.398C70.2142 134.832 70.7687 126.841 70.7687 117.253C70.7687 113.2 68.0903 109.14 62.7278 106.046C52.0029 99.8516 34.6123 99.8516 23.9095 106.046C18.5304 109.118 15.8464 113.177 15.8464 117.259C15.8464 126.852 16.401 134.86 22.3457 141.409C28.2905 147.958 33.1316 150.282 35.5661 152.639C38.0006 154.996 38.5551 156.815 38.5551 158.223C38.5551 159.632 38.0006 161.423 35.5661 163.796C33.1316 166.17 28.3237 168.432 22.3457 174.998C16.3677 181.564 15.8464 189.561 15.8464 199.149C15.8464 203.208 18.5304 207.267 23.8929 210.362C34.6178 216.55 52.0029 216.55 62.7112 210.362C68.0736 207.267 70.7521 203.208 70.7521 199.149C70.7687 189.561 70.2253 181.586 64.2639 174.998Z" fill="#9955B9"/>
<path opacity="0.8" d="M64.2639 174.998C62.0319 172.535 59.5758 170.285 56.9272 168.277C54.393 166.336 52.3689 165.077 51.0435 163.785C48.609 161.412 48.0656 159.61 48.0656 158.212C48.0656 156.815 48.6201 155.001 51.0435 152.628C53.4669 150.254 58.3136 147.964 64.2639 141.398C70.2142 134.832 70.7687 126.841 70.7687 117.253C70.7687 113.2 68.0903 109.14 62.7278 106.046C52.0029 99.8516 34.6123 99.8516 23.9095 106.046C18.5304 109.118 15.8464 113.177 15.8464 117.259C15.8464 126.852 16.401 134.86 22.3457 141.409C28.2905 147.958 33.1316 150.282 35.5661 152.639C38.0006 154.996 38.5551 156.815 38.5551 158.223C38.5551 159.632 38.0006 161.423 35.5661 163.796C33.1316 166.17 28.3237 168.432 22.3457 174.998C16.3677 181.564 15.8464 189.561 15.8464 199.149C15.8464 203.208 18.5304 207.267 23.8929 210.362C34.6178 216.55 52.0029 216.55 62.7112 210.362C68.0736 207.267 70.7521 203.208 70.7521 199.149C70.7687 189.561 70.2253 181.586 64.2639 174.998Z" fill="white"/>
<path opacity="0.8" d="M43.7234 212.424C36.7472 212.424 30.2146 210.949 25.3402 208.238C20.7763 205.698 18.3418 202.393 18.3418 198.927C18.3418 189.749 18.7799 182.246 24.2976 176.157C27.1691 173.029 30.3877 170.238 33.8913 167.839C35.1377 167.001 36.322 166.075 37.4348 165.066C39.8637 162.704 41.0449 160.397 41.0449 158.012C41.0449 155.628 39.8637 153.31 37.4348 150.947C36.3195 149.942 35.1354 149.016 33.8913 148.175C30.3853 145.768 27.1665 142.968 24.2976 139.829C18.7799 133.729 18.3418 126.248 18.3418 117.092C18.3418 113.626 20.8262 110.283 25.3513 107.665C30.2257 104.848 36.7527 103.295 43.7345 103.295C50.7162 103.295 57.2432 104.848 62.1177 107.665C66.6372 110.277 69.1272 113.621 69.1272 117.092C69.1272 126.27 68.6891 133.773 63.1602 139.829C60.2906 142.975 57.0677 145.779 53.5555 148.186C52.3145 149.026 51.1341 149.953 50.023 150.959C47.5997 153.326 46.424 155.639 46.424 158.023C46.424 160.408 47.5997 162.715 50.023 165.077C51.127 166.082 52.2999 167.009 53.5333 167.85C54.3041 168.405 55.197 169.031 56.0953 169.736C58.6459 171.675 61.011 173.847 63.1602 176.224C68.7057 182.324 69.1272 189.81 69.1272 198.96C69.1272 202.432 66.6927 205.759 62.1177 208.276C57.1601 210.977 50.6996 212.424 43.7234 212.424Z" fill="white"/>
<path d="M73.7577 114.43C73.7577 109.933 70.7854 105.436 64.8406 102.003C52.9511 95.1378 33.6695 95.1378 21.7745 102.003C15.8298 105.436 12.8574 109.933 12.8574 114.43V118.595C12.8574 123.092 15.8298 127.59 21.7745 131.023C33.6695 137.893 52.9511 137.893 64.8406 131.023C70.7909 127.59 73.7577 123.092 73.7577 118.595V114.43Z" fill="#263238"/>
<path d="M21.7745 102.003C15.8298 105.436 12.8574 109.933 12.8574 114.43C12.8574 118.928 15.8298 123.431 21.7745 126.863C33.6696 133.729 52.9511 133.729 64.8406 126.863C70.7854 123.431 73.7633 118.933 73.7633 114.43C73.7633 109.928 70.7854 105.436 64.8406 102.003C52.9511 95.1378 33.6696 95.1378 21.7745 102.003Z" fill="#455A64"/>
<path d="M43.7233 161.168C43.7233 161.168 46.8122 165.366 46.8122 167.7C46.8122 168.519 46.4867 169.305 45.9075 169.884C45.3282 170.464 44.5426 170.789 43.7233 170.789C42.9041 170.789 42.1185 170.464 41.5392 169.884C40.96 169.305 40.6345 168.519 40.6345 167.7C40.6345 165.366 43.7233 161.168 43.7233 161.168Z" fill="#9955B9"/>
<path d="M65.9273 183.644C65.2841 181.259 63.1546 178.958 59.5778 177.122C50.8215 172.652 36.6306 172.652 27.8799 177.122C24.2864 178.958 22.1681 181.259 21.5303 183.644C20.8427 186.161 19.8667 191.163 19.8667 198.644C19.8667 201.761 22.1958 204.877 26.854 207.251C36.1704 212.003 51.254 212.003 60.5815 207.251C65.2397 204.877 67.5688 201.761 67.5632 198.644C67.5688 191.163 66.5872 186.161 65.9273 183.644Z" fill="#9955B9"/>
<path opacity="0.2" d="M27.8744 177.15C23.4991 179.368 21.3086 182.313 21.3086 185.241C21.3086 188.169 23.4991 191.091 27.8744 193.326C36.6307 197.796 50.8216 197.796 59.5723 193.326C63.9477 191.108 66.1381 188.169 66.1381 185.241C66.1381 182.313 63.9477 179.368 59.5723 177.15C50.816 172.652 36.6418 172.652 27.8744 177.15Z" fill="white"/>
<path d="M79.2366 220.316C83.6342 222.855 89.7064 222.489 96.4275 218.613C109.848 210.85 120.728 192.023 120.728 176.529C120.728 168.765 118.005 163.342 113.607 160.802L106.487 156.687C102.089 154.153 96.0116 154.519 89.2961 158.389C75.876 166.153 64.9958 184.98 64.9958 200.474C64.9958 208.238 67.7187 213.667 72.1162 216.206L79.2366 220.316Z" fill="#9955B9"/>
<path opacity="0.3" d="M79.2366 220.316C83.6342 222.855 89.7064 222.489 96.4275 218.613C109.848 210.85 120.728 192.023 120.728 176.529C120.728 168.765 118.005 163.342 113.607 160.802L106.487 156.687C102.089 154.153 96.0116 154.519 89.2961 158.389C75.876 166.153 64.9958 184.98 64.9958 200.474C64.9958 208.238 67.7187 213.667 72.1162 216.206L79.2366 220.316Z" fill="white"/>
<path d="M85.5639 221.247C83.4695 221.278 81.4046 220.752 79.5803 219.722C75.2105 217.199 72.8093 211.826 72.8093 204.589C72.8093 189.339 83.5509 170.723 96.7602 163.098C100.47 160.957 104.003 159.87 107.297 159.87C109.391 159.839 111.456 160.365 113.28 161.395C117.65 163.918 120.057 169.292 120.057 176.529C120.057 191.779 109.31 210.395 96.1003 218.02C92.3959 220.161 88.8579 221.247 85.5916 221.247H85.5639Z" fill="#FAFAFA"/>
<path d="M107.269 160.558C109.243 160.526 111.189 161.02 112.909 161.989C117.057 164.384 119.341 169.547 119.341 176.529C119.341 191.562 108.75 209.907 95.7289 217.421C92.1798 219.473 88.664 220.56 85.564 220.56C83.5898 220.592 81.6428 220.096 79.9243 219.123C75.7763 216.733 73.4971 211.571 73.4971 204.589C73.4971 189.555 84.0889 171.211 97.1041 163.691C100.659 161.645 104.169 160.558 107.269 160.558ZM107.269 159.183C104.003 159.183 100.321 160.253 96.4165 162.51C82.9965 170.273 72.1218 189.128 72.1218 204.594C72.1218 212.358 74.8391 217.781 79.2367 220.321C81.1648 221.413 83.3486 221.972 85.564 221.941C88.8303 221.941 92.518 220.87 96.4165 218.613C109.837 210.85 120.717 192.023 120.717 176.529C120.717 168.765 117.994 163.342 113.596 160.802C111.668 159.71 109.484 159.151 107.269 159.183Z" fill="#9955B9"/>
<path d="M92.9726 178.908L87.9373 181.814C87.8088 181.905 87.7037 182.026 87.6305 182.165C87.5573 182.305 87.518 182.46 87.5159 182.618V208.759C87.5159 209.07 87.7044 209.214 87.9373 209.081L92.9726 206.169C93.1011 206.078 93.2062 205.957 93.2794 205.818C93.3527 205.678 93.3919 205.523 93.3941 205.365V179.224C93.3941 178.913 93.2055 178.769 92.9726 178.908ZM104.895 172.02L99.8601 174.932C99.7321 175.025 99.6275 175.147 99.5543 175.287C99.4812 175.427 99.4416 175.583 99.4386 175.741V201.899C99.4386 202.21 99.6272 202.354 99.8601 202.215L104.895 199.31C105.024 199.218 105.129 199.098 105.202 198.958C105.275 198.818 105.315 198.663 105.317 198.505V172.342C105.317 172.031 105.128 171.887 104.895 172.02Z" fill="#455A64"/>
<path d="M209.627 184.763C209.976 189.167 210.209 192.433 210.143 193.187C209.926 195.312 208.94 197.284 207.37 198.733C205.069 201.089 203.433 202.027 200.577 204.062C200.954 205.171 206.843 205.26 208.535 204.483C210.996 203.316 213.378 201.99 215.666 200.513C218.017 198.849 218.583 197.834 218.683 195.228C218.683 194.901 218.938 192.777 218.916 192.632C218.949 192.022 219.315 188.712 219.792 184.641L209.627 184.763Z" fill="#C8856A"/>
<path d="M195.896 208.204C195.747 208.204 195.625 209.912 196.501 210.572C197.505 211.337 200.383 212.513 204.07 211.792C207.758 211.071 209.666 209.785 211.069 208.465C212.472 207.145 214.429 205.232 216.06 204.749C217.596 204.306 220.069 203.258 220.535 202.742C221.001 202.226 220.79 200.086 220.79 200.086L195.896 208.204Z" fill="#263238"/>
<path d="M218.932 192.677C219.084 192.738 219.22 192.832 219.331 192.951C219.443 193.071 219.526 193.214 219.576 193.37C219.725 193.952 219.781 194.712 220.091 195.666C220.584 197.351 220.82 199.101 220.79 200.856C220.662 201.966 217.341 203.13 215.76 203.851C213.907 204.815 212.211 206.054 210.731 207.528C209.067 209.08 205.518 210.766 203.106 210.96C199.429 211.254 196.978 210.406 196.152 209.125C195.137 207.539 195.475 205.797 199.584 203.579C200.36 203.158 203.067 201.3 203.982 200.629C204.961 199.928 205.88 199.145 206.727 198.289C207.153 197.853 207.557 197.396 207.936 196.919C208.333 196.488 208.664 196 208.917 195.472C208.956 195.361 208.984 195.228 209.017 195.106C209.115 194.774 209.185 194.434 209.228 194.091C209.272 193.736 209.283 193.215 209.605 192.982C209.926 192.749 215.25 193.442 215.66 194.008C215.935 194.469 216.089 194.991 216.11 195.527C216.11 195.771 216.143 196.021 216.165 196.27C216.165 196.376 216.137 196.57 216.282 196.514C216.426 196.459 216.553 196.082 216.598 195.96C216.697 195.677 216.753 195.372 216.864 195.089C216.954 194.749 217.114 194.432 217.335 194.158C218.001 193.514 218.688 193.603 218.877 193.37C218.877 193.315 218.921 192.86 218.932 192.677Z" fill="#37474F"/>
<path d="M199.357 203.657C204.714 203.657 206.483 207.855 206.843 209.884C205.659 210.424 204.398 210.777 203.106 210.933C199.429 211.226 196.823 210.378 196.002 209.108C195.042 207.616 195.669 205.343 199.357 203.657Z" fill="#FAFAFA"/>
<path d="M207.226 204.167C207.288 204.162 207.346 204.137 207.392 204.095C207.44 204.046 207.467 203.98 207.467 203.912C207.467 203.844 207.44 203.778 207.392 203.729C206.588 202.864 204.065 201.062 202.135 201.4C202.101 201.405 202.069 201.417 202.04 201.435C202.011 201.453 201.986 201.477 201.966 201.505C201.947 201.533 201.933 201.565 201.926 201.598C201.918 201.631 201.918 201.666 201.924 201.699C201.93 201.733 201.942 201.766 201.96 201.795C201.978 201.824 202.001 201.85 202.029 201.87C202.057 201.89 202.089 201.904 202.122 201.912C202.155 201.92 202.19 201.921 202.224 201.916C204.021 201.605 206.372 203.396 207.01 204.084C207.037 204.114 207.07 204.137 207.108 204.151C207.145 204.166 207.186 204.171 207.226 204.167Z" fill="#F5F5F5"/>
<path d="M209.439 202.659C209.499 202.654 209.556 202.628 209.599 202.587C209.624 202.562 209.644 202.533 209.657 202.502C209.67 202.47 209.677 202.435 209.677 202.401C209.677 202.366 209.67 202.332 209.657 202.3C209.644 202.268 209.624 202.239 209.599 202.215C208.795 201.35 206.272 199.542 204.342 199.886C204.274 199.899 204.214 199.939 204.175 199.996C204.136 200.053 204.12 200.123 204.132 200.191C204.138 200.225 204.15 200.257 204.169 200.286C204.188 200.315 204.212 200.34 204.24 200.36C204.268 200.38 204.3 200.393 204.334 200.401C204.368 200.408 204.403 200.408 204.437 200.402C206.228 200.091 208.585 201.888 209.217 202.576C209.246 202.604 209.281 202.626 209.319 202.64C209.357 202.654 209.398 202.661 209.439 202.659Z" fill="#F5F5F5"/>
<path d="M211.468 200.995C211.528 200.989 211.585 200.964 211.629 200.923C211.654 200.899 211.673 200.87 211.687 200.838C211.7 200.806 211.707 200.772 211.707 200.737C211.707 200.703 211.7 200.668 211.687 200.637C211.673 200.605 211.654 200.576 211.629 200.552C210.825 199.686 208.302 197.884 206.372 198.222C206.338 198.228 206.306 198.241 206.277 198.26C206.248 198.278 206.223 198.303 206.203 198.331C206.183 198.359 206.17 198.391 206.162 198.425C206.155 198.459 206.155 198.494 206.161 198.527C206.166 198.561 206.177 198.594 206.195 198.624C206.213 198.653 206.237 198.678 206.265 198.698C206.293 198.718 206.325 198.732 206.359 198.739C206.392 198.745 206.427 198.745 206.461 198.738C208.257 198.428 210.609 200.224 211.246 200.912C211.274 200.943 211.308 200.966 211.347 200.981C211.386 200.995 211.427 201 211.468 200.995Z" fill="#F5F5F5"/>
<path d="M213.453 199.331C213.482 199.331 213.511 199.325 213.538 199.314C213.565 199.303 213.589 199.286 213.609 199.265C213.633 199.241 213.653 199.212 213.666 199.18C213.68 199.148 213.687 199.114 213.687 199.079C213.687 199.045 213.68 199.01 213.666 198.978C213.653 198.946 213.633 198.918 213.609 198.893C212.5 197.668 209.832 196.231 207.908 196.57C207.84 196.582 207.779 196.62 207.739 196.677C207.699 196.733 207.683 196.804 207.694 196.872C207.706 196.94 207.745 197.001 207.801 197.041C207.858 197.081 207.928 197.097 207.997 197.086C209.727 196.781 212.245 198.156 213.226 199.248C213.254 199.28 213.29 199.304 213.329 199.319C213.369 199.333 213.412 199.337 213.453 199.331Z" fill="#F5F5F5"/>
<path d="M244.663 193.47L244.885 183.1L233.794 184.142L236.157 194.074C236.157 194.074 237.321 208.11 237.876 210.389C239.645 217.753 245.639 214.781 246.327 210.883C246.782 208.287 244.663 193.47 244.663 193.47Z" fill="#C8856A"/>
<path d="M237 211.132C237.166 213.572 237.554 215.186 238.436 216.606C239.318 218.025 240.948 218.463 242.589 218.025C244.231 217.587 246.333 216.439 246.782 214.332C247.231 212.225 247.492 210.772 247.098 208.515L237 211.132Z" fill="#263238"/>
<path d="M244.663 193.47C245.34 193.387 245.218 196.753 245.623 200.03C246.077 203.54 246.599 204.932 247.004 207.794C247.469 211.088 246.937 212.563 245.811 214.57C244.686 216.578 240.632 218.574 238.602 215.746C236.939 213.434 236.844 210.855 236.939 207.566C236.99 204.805 236.804 202.044 236.384 199.315C236.068 196.659 235.513 194.324 236.101 194.058C236.254 194.921 236.455 195.774 236.706 196.614C236.772 196.797 237.044 197.252 237.138 196.564C237.171 196.359 237.099 195.888 237.138 195.683C237.146 195.504 237.209 195.332 237.318 195.19C237.427 195.048 237.577 194.943 237.748 194.89C238.645 194.446 239.632 194.216 240.632 194.219C241.957 194.219 243.105 194.141 243.848 194.512C244.297 194.734 244.292 195.161 244.342 195.577C244.392 195.993 244.419 196.381 244.536 196.276C244.791 196.093 244.663 193.47 244.663 193.47Z" fill="#37474F"/>
<path d="M247.214 209.718C247.358 211.48 246.93 213.242 245.994 214.742C244.885 216.744 240.488 218.757 238.452 215.924C237.438 214.515 237.155 212.84 237 211.132C238.175 208.92 245.296 207.866 247.214 209.718Z" fill="#FAFAFA"/>
<path d="M238.441 207.528C238.469 207.535 238.497 207.535 238.525 207.528C238.552 207.528 241.68 206.174 244.747 206.851C244.808 206.857 244.87 206.84 244.92 206.803C244.97 206.767 245.005 206.713 245.019 206.653C245.032 206.593 245.023 206.529 244.994 206.475C244.964 206.421 244.916 206.379 244.857 206.357C241.613 205.642 238.425 207.017 238.303 207.073C238.243 207.103 238.197 207.155 238.175 207.218C238.153 207.281 238.157 207.351 238.186 207.411C238.212 207.454 238.25 207.489 238.295 207.51C238.341 207.53 238.392 207.537 238.441 207.528Z" fill="#F5F5F5"/>
<path d="M244.597 204.372C244.645 204.368 244.691 204.349 244.728 204.318C244.766 204.288 244.793 204.247 244.807 204.2C244.818 204.169 244.822 204.136 244.819 204.103C244.817 204.07 244.808 204.038 244.793 204.009C244.778 203.979 244.757 203.953 244.732 203.932C244.707 203.91 244.678 203.894 244.647 203.884C241.591 202.88 238.231 204.472 238.103 204.544C238.045 204.576 238.002 204.629 237.983 204.693C237.964 204.756 237.972 204.824 238.003 204.882C238.035 204.94 238.088 204.984 238.151 205.003C238.214 205.023 238.282 205.017 238.341 204.988C238.369 204.988 241.669 203.429 244.491 204.367C244.526 204.377 244.562 204.379 244.597 204.372Z" fill="#F5F5F5"/>
<path d="M244.436 202.06C244.494 202.056 244.549 202.032 244.592 201.991C244.634 201.951 244.661 201.897 244.667 201.839C244.674 201.781 244.66 201.722 244.628 201.673C244.596 201.625 244.547 201.589 244.491 201.572C241.131 200.402 237.942 202.126 237.837 202.21C237.786 202.248 237.752 202.304 237.74 202.366C237.728 202.428 237.74 202.493 237.773 202.547C237.806 202.601 237.859 202.641 237.92 202.658C237.981 202.676 238.046 202.67 238.103 202.642C238.103 202.642 241.208 200.978 244.336 202.049C244.368 202.059 244.402 202.063 244.436 202.06Z" fill="#F5F5F5"/>
<path d="M244.247 199.781C244.294 199.774 244.338 199.755 244.375 199.726C244.412 199.697 244.441 199.658 244.458 199.614C244.479 199.551 244.475 199.482 244.446 199.422C244.417 199.362 244.366 199.315 244.303 199.293C241.153 198.15 237.72 199.93 237.593 200.008C237.564 200.025 237.54 200.047 237.52 200.073C237.5 200.1 237.485 200.13 237.477 200.161C237.469 200.193 237.467 200.227 237.472 200.259C237.476 200.292 237.487 200.323 237.504 200.352C237.521 200.38 237.543 200.405 237.569 200.425C237.596 200.445 237.626 200.459 237.658 200.467C237.69 200.476 237.723 200.477 237.755 200.473C237.788 200.468 237.819 200.457 237.848 200.44C237.876 200.44 241.208 198.705 244.131 199.77C244.168 199.781 244.208 199.785 244.247 199.781Z" fill="#EBEBEB"/>
<path d="M236.428 105.907C239.334 111.014 241.674 115.334 242.434 128.826C243.288 144.065 243.161 149.866 243.233 151.707C243.305 153.548 244.514 156.92 245.54 165.975C246.565 175.031 245.484 196.986 245.484 196.986C245.484 196.986 244.758 198.461 241.231 198.799C237.975 199.11 236.068 197.984 236.068 197.984C236.068 197.984 230.894 169.147 229.618 163.713C228.343 158.278 224.628 140.339 224.628 140.339L223.402 157.447C223.402 157.447 224.433 162.437 223.502 170.395C222.57 178.353 220.108 194.69 220.108 194.69C220.108 194.69 219.354 196.869 215.189 197.174C212.892 197.406 210.585 196.844 208.651 195.583C208.651 195.583 208.047 161.018 207.98 152.012C207.914 143.006 207.381 119.61 210.165 106.256L236.428 105.907Z" fill="#455A64"/>
<path d="M212.012 119.177C213.42 122.887 218.478 125.455 220.69 125.959L223.397 140.156V157.446L224.633 140.339L221.594 123.037C221.594 123.037 215.444 122.654 212.012 119.177ZM232.985 117.209C233.356 118.673 233.7 120.137 234.06 121.606C234.421 123.076 234.77 124.545 235.17 126.043C235.176 124.518 235.063 122.996 234.831 121.49C234.621 119.981 234.316 118.49 233.955 117.003C233.588 115.521 233.134 114.062 232.596 112.634C232.073 111.191 231.394 109.809 230.572 108.513C231.049 109.966 231.471 111.408 231.876 112.861C232.28 114.314 232.63 115.745 232.985 117.209ZM235.574 114.375C236.079 115.257 236.561 116.144 237.044 117.037L238.475 119.754C238.365 118.719 238.119 117.702 237.743 116.732C237.38 115.758 236.94 114.814 236.428 113.909C235.912 113.008 235.336 112.143 234.704 111.319C234.071 110.489 233.362 109.72 232.585 109.023C233.051 109.961 233.561 110.848 234.066 111.73C234.571 112.611 235.081 113.493 235.574 114.375ZM233.572 155.522C232.652 150.864 231.986 146.15 231.354 141.431C230.722 136.712 230.073 132.004 229.369 127.268C229.702 132.026 230.084 136.779 230.6 141.52C231.116 146.261 231.709 151.003 232.635 155.705C233.561 160.408 234.576 165.038 235.613 169.702C236.65 174.366 237.715 179.002 238.857 183.638C238.088 178.931 237.257 174.236 236.362 169.552C235.458 164.872 234.515 160.18 233.572 155.522ZM212.372 140.117L213.071 127.69C212.45 131.799 211.962 135.93 211.612 140.067C211.263 144.204 210.936 148.341 210.953 152.539C211.124 156.72 211.235 173.246 211.768 177.366C212.134 172.752 212.012 160.574 212.012 160.574C211.89 158.511 212.012 154.568 211.929 152.517C211.845 150.465 211.99 148.396 212.067 146.328C212.145 144.259 212.272 142.213 212.372 140.122V140.117Z" fill="#37474F"/>
<path d="M236.278 59.7299C236.306 61.4546 235.053 65.037 233.755 67.1165C232.674 68.8578 232.169 69.856 230.794 71.3699C230.706 71.4822 230.596 71.5763 230.472 71.6472C230.352 71.7037 230.222 71.7357 230.09 71.7414C229.241 71.8135 228.337 71.686 227.478 71.6804L223.973 71.6472C223.088 71.6613 222.203 71.6001 221.328 71.4642C219.859 71.1891 218.506 70.4842 217.438 69.4386C216.371 68.3931 215.638 67.0541 215.333 65.5915C215.111 64.549 215.522 63.1681 215.1 62.2254C214.901 61.7707 214.546 61.3548 214.341 60.889C213.715 59.629 213.427 58.2286 213.503 56.8241C213.769 53.9405 215.55 50.2028 220.84 49.1326C225.509 48.1843 232.607 48.9551 234.182 54.2677C236.423 55.2548 236.217 57.6837 236.278 59.7299Z" fill="#263238"/>
<path d="M168.507 83.52C168.982 83.2705 169.521 83.1682 170.055 83.2261C170.902 83.3639 171.738 83.5659 172.556 83.8306C173.831 84.1189 175.883 84.6069 177.158 84.2021C177.419 84.1189 177.929 83.8694 177.485 83.6476C176.891 83.3895 176.32 83.0816 175.777 82.727C175.508 82.5505 175.279 82.3189 175.106 82.0474C174.933 81.7759 174.82 81.4707 174.774 81.1521C174.747 80.9571 174.794 80.759 174.907 80.5975C175.079 80.3813 175.251 80.4423 175.461 80.5199C175.681 80.597 175.905 80.66 176.132 80.7085C176.598 80.8194 177.064 80.9358 177.53 81.0578C180.236 81.7676 183.009 82.7215 185.038 84.679C186.239 85.6459 187.387 86.677 188.477 87.7678C190.113 89.1708 199.678 94.1285 199.678 94.1285C199.678 94.1285 204.869 86.6809 206.638 84.1466C208.699 81.0261 211.9 78.8364 215.555 78.0466L211.612 93.6738C211.612 93.6738 205.368 100.755 204.326 102.025C202.784 103.911 200.361 104.033 198.037 102.774C195.144 101.245 192.422 99.4123 189.918 97.306C185.887 94.1119 184.656 93.2024 183.502 92.365C182.349 91.5277 180.591 91.511 179.731 91.4833C178.541 91.478 177.356 91.312 176.21 90.9898C175.198 90.7499 174.223 90.377 173.31 89.8807C172.842 89.6914 172.42 89.4039 172.073 89.0377C171.909 88.6578 171.724 88.2875 171.519 87.9287C171.208 87.5571 170.726 87.3353 170.459 86.9249C170.287 86.5844 170.16 86.2227 170.082 85.8491C169.977 85.5977 169.819 85.3717 169.619 85.1862C169.419 85.0007 169.182 84.86 168.923 84.7733C168.659 84.6772 168.421 84.5194 168.23 84.313C167.964 83.9858 168.191 83.703 168.507 83.52Z" fill="#FFA8A7"/>
<path d="M216.648 77.2148C213.442 78.1908 211.357 78.0633 208.585 81.2464C205.812 84.4295 198.98 93.3078 198.98 93.3078L190.323 88.7383C190.338 90.5608 189.78 92.3418 188.726 93.8291C187.018 96.0195 186.43 96.0195 186.43 96.0195C186.43 96.0195 193.473 101.249 196.351 102.84C199.229 104.432 200.788 104.87 201.825 104.548C202.862 104.227 204.919 102.33 207.803 98.7313C210.686 95.1322 215.566 88.7494 215.566 88.7494L216.648 77.2148Z" fill="#EBEBEB"/>
<path d="M178.927 84.9009C179.923 86.1724 181.26 87.1342 182.782 87.6736C181.938 87.8044 181.075 87.6315 180.347 87.1856C179.961 86.9282 179.635 86.5911 179.39 86.197C179.145 85.8029 178.987 85.361 178.927 84.9009Z" fill="#F28F8F"/>
<path d="M239.722 112.878C241.419 111.503 240.005 109.606 239.395 101.232C239.24 99.0751 239.977 93.7237 239.977 93.7237C239.977 93.7237 236.794 89.06 238.081 78.6456L230.783 76.5494L220.729 76.6271L216.792 77.775C215.461 78.9506 213.01 80.8084 211.069 83.6199C208.296 87.6847 207.847 92.0989 210.869 95.3319C210.914 95.9697 210.226 103.395 209.954 105.907C209.572 109.384 208.224 111.037 210.243 112.756C216.148 117.769 231.715 118.118 239.722 112.878Z" fill="#9955B9"/>
<path d="M232.053 69.7283C232.6 69.8036 233.157 69.7416 233.674 69.548C234.191 69.3544 234.651 69.0352 235.014 68.6192C236.578 66.9556 236.728 65.2198 236.001 64.0719C235.402 63.1347 233.927 62.5303 232.89 63.168C231.853 63.8057 231.753 64.3991 231.332 65.1699C230.96 65.8465 230.278 65.1034 230.117 64.6542C230.031 64.3726 229.993 64.078 230.007 63.7836C230.007 63.168 230.007 62.5469 230.051 61.9258C229.347 61.6976 228.689 61.3486 228.104 60.8944C226.713 59.7354 226.396 57.4617 226.502 55.7593C224.09 56.7408 221.289 57.3675 218.699 56.9016C218.805 56.6133 218.91 56.3471 219.021 56.0366C218.251 56.4791 217.448 56.8628 216.62 57.1845C215.832 57.4839 215.383 57.4506 215.167 58.2936C214.821 59.7522 214.59 61.2354 214.474 62.7299C213.952 68.3198 214.934 72.0463 216.248 73.233C217.152 74.0538 218.832 74.6028 220.84 74.4919V76.5991C220.84 76.5991 215.056 82.5272 222.431 81.9893C224.074 81.8499 225.667 81.3624 227.106 80.5592C228.545 79.756 229.797 78.6556 230.777 77.3311L230.827 68.8521C230.827 68.8521 230.949 69.5231 232.053 69.7283Z" fill="#FFA8A7"/>
<path d="M219.936 68.7357C220.031 69.1572 220.285 69.5254 220.647 69.7624C221.008 69.9994 221.447 70.0866 221.871 70.0056C222.082 69.9671 222.283 69.8871 222.462 69.7702C222.641 69.6534 222.795 69.5021 222.916 69.325C223.036 69.148 223.12 68.9489 223.162 68.7392C223.205 68.5295 223.205 68.3134 223.163 68.1035L219.936 68.7357Z" fill="#B16668"/>
<path d="M223.175 68.6304C223.129 68.9675 222.979 69.2817 222.745 69.5285C222.511 69.7754 222.206 69.9423 221.871 70.0057C221.688 70.0358 221.501 70.0358 221.317 70.0057C221.388 69.5804 221.621 69.1993 221.968 68.9427C222.314 68.6862 222.747 68.5742 223.175 68.6304Z" fill="#F28F8F"/>
<path d="M216.065 59.2142L218.195 58.521C218.106 58.2422 217.91 58.01 217.65 57.875C217.39 57.7399 217.088 57.713 216.808 57.8001C216.525 57.8932 216.289 58.0928 216.151 58.3567C216.012 58.6206 215.981 58.9282 216.065 59.2142Z" fill="#263238"/>
<path d="M223.929 58.6042L226.042 59.7133C226.126 59.5823 226.181 59.435 226.205 59.281C226.228 59.1271 226.219 58.9699 226.178 58.8198C226.136 58.6697 226.064 58.5299 225.965 58.4096C225.866 58.2894 225.743 58.1913 225.603 58.1218C225.315 57.9734 224.982 57.9407 224.67 58.0303C224.359 58.12 224.094 58.3253 223.929 58.6042Z" fill="#263238"/>
<path d="M212.866 60.4952C212.883 60.8097 212.999 61.1107 213.198 61.3547C213.266 61.4443 213.312 61.5489 213.331 61.6597C213.391 62.434 213.515 63.202 213.703 63.9555C213.941 64.5766 214.468 65.5637 216.193 65.6469C216.493 65.6643 216.794 65.6495 217.091 65.6025H217.158C217.419 65.553 217.673 65.4691 217.912 65.353H217.956L218.023 65.3197L218.106 65.2698L218.184 65.2255L218.267 65.1645L218.344 65.1035C218.399 65.064 218.45 65.0214 218.5 64.9759C218.765 64.7291 218.988 64.4406 219.16 64.1219C219.609 63.3344 219.609 62.2198 220.269 62.1034H220.341C220.368 62.1006 220.396 62.1006 220.424 62.1034C221.272 62.1366 221.067 63.3511 221.467 64.2273C221.866 65.1035 222.576 65.9796 224.417 66.0517H224.844C224.995 66.0473 225.145 66.0307 225.293 66.0018H225.437L225.57 65.9685H225.659C225.837 65.9166 226.01 65.8479 226.175 65.7634L226.352 65.6635C226.461 65.594 226.565 65.5161 226.663 65.4306C226.914 65.2052 227.126 64.939 227.289 64.6432C227.581 63.8842 227.805 63.1011 227.96 62.303C227.999 62.1851 228.057 62.0745 228.132 61.9758C228.369 61.7603 228.538 61.4811 228.62 61.1717C228.642 61.0165 228.609 60.8584 228.525 60.7255C228.442 60.5926 228.315 60.4934 228.165 60.4453C228.027 60.4453 227.877 60.3954 227.722 60.3787C226.239 60.1265 224.726 60.1022 223.236 60.3066C221.783 60.6338 221.256 61.0442 220.463 61.0109C219.67 60.9776 219.282 60.5229 217.973 60.0737C216.605 59.7435 215.193 59.6387 213.792 59.7632L213.37 59.7909C213.221 59.8369 213.09 59.9307 212.999 60.0579C212.908 60.1852 212.861 60.3387 212.866 60.4952ZM222.138 61.6043C222.26 61.4758 222.407 61.3739 222.57 61.3048L222.648 61.2715H222.687C222.754 61.2381 222.825 61.2103 222.897 61.1884L223.086 61.1218C223.29 61.0577 223.497 61.0041 223.707 60.961L223.956 60.9111C224.166 60.8758 224.377 60.8517 224.589 60.839H224.733C226.114 60.7724 226.951 61.0996 227.228 61.3935C227.506 61.6874 227.273 62.852 227.09 63.4509C227.092 63.4637 227.092 63.4769 227.09 63.4897V63.5396C227.09 63.6117 227.045 63.6949 227.012 63.7781L226.957 63.9278C226.923 64.011 226.89 64.0886 226.846 64.1774C226.829 64.2039 226.814 64.2317 226.801 64.2605L226.768 64.3105C226.762 64.3317 226.751 64.3509 226.735 64.3659C226.723 64.3918 226.708 64.4161 226.69 64.438L226.64 64.5156L226.579 64.5988L226.513 64.682C226.268 64.9609 225.96 65.1781 225.615 65.3159C225.27 65.4537 224.898 65.5082 224.528 65.475C224.165 65.4917 223.803 65.4311 223.465 65.2972C223.128 65.1634 222.823 64.9594 222.57 64.6986C222.275 64.3498 222.082 63.9253 222.016 63.4731C221.86 62.7189 221.86 61.937 222.138 61.5765V61.6043ZM214.147 60.7669C214.252 60.686 214.37 60.6224 214.496 60.5784C214.547 60.5584 214.598 60.5417 214.651 60.5284H214.745H214.818H214.873H214.951C215.055 60.5094 215.161 60.4964 215.267 60.4896H215.439H215.993C216.203 60.5015 216.412 60.5256 216.62 60.5617C217.579 60.717 218.561 61.1662 218.794 61.5488C219.027 61.9314 218.899 62.7078 218.716 63.3677C218.673 63.5192 218.619 63.6674 218.555 63.8114V63.8502C218.554 63.865 218.554 63.8798 218.555 63.8945V63.9223V63.9777L218.494 64.0831C218.476 64.1157 218.455 64.1472 218.433 64.1774V64.2106L218.389 64.2716L218.344 64.3271C218.091 64.6302 217.765 64.864 217.396 65.0066C217.027 65.1492 216.629 65.1959 216.237 65.1423C215.888 65.1281 215.546 65.0393 215.233 64.8816C214.896 64.6687 214.614 64.3778 214.412 64.0332C214.211 63.6886 214.095 63.3006 214.074 62.9019C213.919 62.181 213.836 60.9887 214.147 60.7392V60.7669Z" fill="#37474F"/>
<path d="M217.424 65.9186L220.546 67.244L221.212 63.3067C221.101 62.7189 220.984 62.1089 220.474 62.059L217.424 65.9186Z" fill="#F28F8F"/>
<path d="M228.077 60.9L232.89 63.1681C232.626 63.3292 232.377 63.5148 232.147 63.7227L227.96 61.8816L228.077 60.9Z" fill="#37474F"/>
<path d="M216.065 62.3584C215.888 62.8464 216.226 63.0127 216.697 63.1791C217.169 63.3455 217.59 63.4564 217.768 62.9684C217.849 62.7426 217.837 62.494 217.734 62.2771C217.632 62.0603 217.447 61.893 217.222 61.8121C216.996 61.7313 216.747 61.7434 216.53 61.8458C216.313 61.9482 216.146 62.1326 216.065 62.3584Z" fill="#263238"/>
<path d="M217.679 61.9481C217.469 61.8274 217.24 61.7413 217.003 61.693C216.774 61.6397 216.538 61.6247 216.304 61.6486C216.054 61.6764 215.81 61.7457 215.583 61.8538C215.583 61.8538 215.555 61.9093 215.583 61.9093C215.794 61.8786 216.007 61.8601 216.221 61.8538C216.803 61.8647 217.374 62.017 217.884 62.2975C217.984 62.3449 218.08 62.3986 218.173 62.4583C218.173 62.4583 218.223 62.4084 218.206 62.3862C218.066 62.202 217.886 62.0521 217.679 61.9481Z" fill="#263238"/>
<path d="M225.188 62.669C225.298 63.1792 224.938 63.2956 224.45 63.3954C223.962 63.4953 223.529 63.5507 223.419 63.0405C223.392 62.9236 223.389 62.8026 223.41 62.6845C223.431 62.5664 223.475 62.4536 223.539 62.3527C223.604 62.2518 223.688 62.1648 223.787 62.0968C223.886 62.0287 223.997 61.981 224.114 61.9563C224.232 61.9317 224.353 61.9306 224.471 61.9532C224.588 61.9758 224.7 62.0216 224.8 62.0879C224.9 62.1542 224.986 62.2398 225.052 62.3395C225.119 62.4393 225.165 62.5513 225.188 62.669Z" fill="#263238"/>
<path d="M223.635 62.059C223.86 61.9708 224.098 61.9184 224.339 61.9037C224.573 61.8759 224.81 61.8929 225.038 61.9537C225.28 62.0141 225.51 62.1134 225.72 62.2476C225.72 62.2476 225.72 62.3141 225.72 62.3086C225.514 62.2481 225.305 62.2 225.093 62.1644C224.832 62.1311 224.567 62.1311 224.306 62.1644C223.988 62.1935 223.676 62.2682 223.38 62.3862L223.075 62.5027C223.047 62.5027 223.036 62.4472 223.075 62.4306C223.233 62.2679 223.424 62.1411 223.635 62.059Z" fill="#263238"/>
<path d="M220.84 74.4808C223.724 74.3755 227.594 73.3718 228.604 71.5417C228.049 73.5104 225.992 74.5308 224.372 74.9799C223.217 75.3032 222.032 75.5039 220.834 75.5788L220.84 74.4808Z" fill="#F28F8F"/>
<path d="M230.789 75.7009C230.789 75.7009 228.52 81.5015 228.631 90.8567C228.742 100.212 229.835 128.377 230.428 142.535C240.094 141.98 244.63 138.038 244.63 138.038C244.63 138.038 243.798 127.967 243.144 119.299C242.462 110.377 240.748 105.89 241.175 99.9956C242.379 83.1762 238.081 78.6456 238.081 78.6456L230.789 75.7009Z" fill="#E0E0E0"/>
<path d="M220.862 75.579L220.823 76.5883C220.823 76.5883 214.169 81.2908 212.81 88.0895C211.452 94.8883 210.154 141.969 210.154 141.969C210.154 141.969 207.381 141.315 205.718 139.956C206.932 122.549 209.389 94.9992 209.389 94.9992C208.371 93.4032 207.851 91.5402 207.897 89.6478C207.997 86.5368 210.792 81.679 216.664 77.2149L220.862 75.579Z" fill="#E0E0E0"/>
<path d="M211.59 103.595C210.581 97.8385 209.927 91.0619 209.927 91.0619L211.036 89.3317H209.66C209.66 89.3317 211.834 83.2595 214.54 79.7159C216.19 77.575 218.345 75.8772 220.812 74.7749V76.7768C220.812 76.7768 215.333 81.1466 213.753 86.0266C212.172 90.9067 211.59 103.595 211.59 103.595Z" fill="#F5F5F5"/>
<path d="M230.794 74.4698C231.482 75.178 232.264 75.7882 233.118 76.2832C234.476 77.054 235.535 77.6141 235.535 77.6141L232.169 90.7181L230.794 90.3243L231.859 93.0028L228.925 102.458C228.925 102.458 228.21 92.3429 228.47 86.376C228.643 82.7152 229.427 79.109 230.788 75.7065L230.794 74.4698Z" fill="#F5F5F5"/>
<path d="M220.635 92.1489C218.855 90.8457 217.956 90.3411 217.125 90.1137C216.293 89.8864 213.381 88.6941 212.267 88.4168C211.557 88.2449 211.269 89.3485 212.173 90.1137C212.866 90.6683 214.674 91.4668 215.467 91.8938C216.26 92.3208 217.812 94.173 217.812 94.173L220.635 92.1489Z" fill="#F28F8F"/>
<path d="M245.673 84.23C243.904 80.5311 242.007 79.6771 238.125 79.106C236.423 82.9434 237.366 91.5666 237.366 91.5666L239.306 100.617C239.306 100.617 228.87 99.1306 227.661 98.3986C226.452 97.6666 223.225 94.2284 222.116 93.2025C220.635 91.8162 219.897 91.9992 219.154 92.0934C216.698 92.4539 216.16 92.648 215.638 92.9863C215.485 93.0886 215.361 93.2285 215.278 93.3926C215.194 93.5567 215.154 93.7395 215.161 93.9234C214.507 94.0011 213.531 93.9844 213.409 95.0325C213.355 95.3101 213.342 95.5941 213.37 95.8754C213.205 95.9045 213.055 95.9885 212.943 96.1139C212.389 96.735 213.331 98.8866 213.925 99.3913C214.341 99.7573 214.929 99.8016 215.71 99.7018C216.37 99.6131 216.06 98.9532 216.06 98.9532L216.986 99.0031C218.982 100.401 219.088 103.157 221.727 103.767C222.82 103.873 223.9 104.079 224.955 104.382C230.639 106.257 239.961 111.941 245.029 112.368C249.976 112.789 249.832 110.199 249.909 107.227C250.004 104.565 247.431 87.9122 245.673 84.23Z" fill="#FFA8A7"/>
<path d="M239.096 99.5964L239.306 100.617C241.558 101.171 244.203 104.105 244.747 105.314C244.325 103.395 243.061 100.622 239.096 99.5964Z" fill="#F28F8F"/>
<path d="M238.081 78.6458C239.024 78.84 239.951 79.107 240.853 79.4443C242.319 79.9015 243.583 80.8468 244.436 82.1228C245.501 83.6367 246.027 84.718 247.358 89.598C248.434 93.552 250.386 102.907 250.58 106.362C250.774 109.817 249.909 111.164 249.028 111.874C248.146 112.584 246.077 113.144 243.033 112.201C239.988 111.259 230.955 107.377 230.955 107.377C230.955 107.377 232.546 107.055 232.918 103.678C233.289 100.301 232.081 99.3581 232.081 99.3581L239.107 100.434L237.388 92.7811C237.388 92.7811 235.774 82.8769 238.081 78.6458Z" fill="#EBEBEB"/>
<path d="M239.096 100.434C240.309 100.672 241.446 101.2 242.412 101.973C243.377 102.745 244.142 103.739 244.641 104.87C244.398 103.429 243.703 102.101 242.657 101.081C241.61 100.06 240.266 99.3983 238.818 99.1917L239.096 100.434Z" fill="#E0E0E0"/>
<path d="M215.206 93.9179L218.123 93.3634L215.267 93.5409C215.225 93.6621 215.204 93.7897 215.206 93.9179Z" fill="#F28F8F"/>
<path d="M213.398 95.87L216.753 95.443L213.392 95.4874C213.378 95.6146 213.38 95.7432 213.398 95.87Z" fill="#F28F8F"/>
<path d="M213.836 97.3229C213.948 97.4928 214.106 97.6275 214.291 97.7111C214.467 97.7973 214.653 97.8606 214.845 97.8996L214.801 97.8719L215.084 98.3821L215.156 98.2933C215.06 98.2738 214.961 98.2751 214.865 98.2971C214.769 98.3191 214.679 98.3613 214.601 98.4209C214.462 98.532 214.36 98.6828 214.308 98.8534C214.389 98.7071 214.505 98.5832 214.646 98.493C214.786 98.4145 214.948 98.3852 215.106 98.4098L215.234 98.4375L215.173 98.3211C215.084 98.1492 214.99 97.9772 214.89 97.8109V97.7832H214.857C214.667 97.7529 214.481 97.7027 214.302 97.6334C214.126 97.5658 213.966 97.4598 213.836 97.3229Z" fill="#F28F8F"/>
<path d="M214.729 97.7499C215.132 97.8002 215.537 97.8279 215.943 97.8331C216.019 98.0807 216.165 98.3006 216.365 98.4652C216.569 98.6641 216.786 98.8493 217.014 99.0198L216.088 98.9699C215.96 98.8098 215.8 98.6779 215.619 98.5825C215.437 98.487 215.238 98.4301 215.034 98.4153L214.729 97.7499Z" fill="#F28F8F"/>
<path d="M198.98 93.3078C199.961 93.9303 200.809 94.7409 201.475 95.6926C202.141 96.6444 202.612 97.7185 202.862 98.8532C203.139 95.4982 199.534 92.5425 199.534 92.5425L198.98 93.3078Z" fill="#E0E0E0"/>
<path d="M173.31 204.256L175.217 203.352L173.332 202.847L173.31 204.256Z" fill="#263238"/>
<path d="M192.237 207.65C192.237 207.65 169.733 197.845 169.439 199.331C169.372 199.622 169.372 199.923 169.439 200.213L169.378 200.13L169.794 202.864C170.805 203.658 172.02 204.148 173.299 204.278C173.299 204.15 173.299 203.335 173.299 202.875C173.993 203.147 174.658 203.487 175.284 203.89C176.731 204.816 177.658 206.424 179.166 208.298C180.275 209.663 182.277 210.3 185.222 210.711C188.399 211.149 191.194 210.567 191.981 209.746C192.664 209.064 192.353 207.86 192.237 207.65Z" fill="#263238"/>
<path d="M191.615 207.162C191.399 206.945 190.595 206.091 189.508 205.16C188.471 204.214 187.386 203.322 186.259 202.487C185.687 202.102 185.147 201.672 184.645 201.2C184.253 200.797 183.883 200.373 183.536 199.93C182.468 198.557 181.557 197.069 180.818 195.494C180.464 194.751 179.826 193.121 180.009 190.093C180.286 185.512 180.669 183.86 180.691 180.876L169.949 182.274C170.26 183.937 170.598 187.614 170.759 189.483C171.014 192.339 171.447 192.61 170.293 195.455C169.949 196.293 169.445 197.119 169.4 198.001C169.328 199.459 170.509 200.723 171.851 201.439C172.961 202.032 174.225 202.287 175.295 202.919C176.379 203.632 177.327 204.531 178.096 205.576C178.855 206.513 179.465 207.616 180.525 208.276C181.658 208.918 182.904 209.334 184.196 209.502C185.823 209.784 187.478 209.868 189.126 209.751C191.449 209.574 193.19 208.759 191.615 207.162Z" fill="#FFBDA7"/>
<path d="M190.323 205.565C189.353 204.777 187.978 203.651 186.32 202.381C185.748 202.188 185.143 202.115 184.542 202.167C183.94 202.218 183.356 202.393 182.826 202.681C179.499 204.345 178.911 206.773 178.911 206.773C179.483 207.87 180.463 208.698 181.639 209.08C185.521 210.711 192.42 210.189 192.492 208.487C192.536 207.395 191.505 206.541 190.323 205.565ZM170.493 194.834C170.25 195.402 169.978 195.958 169.678 196.498C169.355 196.994 169.186 197.574 169.192 198.166C169.198 198.758 169.378 199.335 169.711 199.825C170.097 200.404 170.596 200.9 171.178 201.281C171.76 201.662 172.414 201.922 173.099 202.043C174.169 198.777 171.835 195.538 170.493 194.834Z" fill="#37474F"/>
<path d="M151.189 198.821C151.189 199.975 150.851 203.385 150.934 205.964C151.006 208.299 151.45 211.959 150.712 214.676C149.974 217.393 147.196 220.366 143.586 217.715C141.368 216.051 140.486 214.138 140.259 210.766C140.115 208.426 141.279 205.221 142.277 202.376C143.447 199.049 143.908 197.269 143.908 197.269L151.189 198.821Z" fill="#263238"/>
<path d="M144.13 181.409C143.947 184.558 143.98 189.788 143.919 193.276C143.877 195.161 143.658 197.038 143.264 198.882C142.671 201.101 141.983 204.173 141.568 205.609C141.013 207.611 140.553 208.87 141.285 211.154C141.346 211.335 141.427 211.508 141.529 211.67C142.588 213.561 145.383 215.036 146.298 214.831C146.494 215.048 146.744 215.211 147.021 215.303C147.299 215.396 147.596 215.414 147.884 215.358C147.985 215.346 148.085 215.325 148.183 215.297C148.289 215.273 148.393 215.242 148.494 215.203C148.854 215.048 149.179 214.82 149.447 214.534C149.715 214.247 149.921 213.909 150.052 213.539C150.114 213.379 150.168 213.216 150.213 213.051C150.686 211.264 150.864 209.411 150.74 207.567C150.74 206.23 150.823 204.322 151.011 202.282C151.2 200.241 153.834 189.655 154.999 183.272L144.13 181.409Z" fill="#FFBDA7"/>
<path d="M140.936 208.204C143.198 207.395 149.891 207.55 150.845 210.328C150.795 212.923 150.557 214.559 148.627 216.772C146.048 219.711 142.888 216.456 141.701 214.404C140.514 212.352 140.592 209.607 140.936 208.204Z" fill="#37474F"/>
<path d="M151.561 107.443C150.23 111.098 146.83 117.026 146.747 126.475C146.664 135.925 144.74 154.341 144.74 154.341C144.74 154.341 143.631 164.295 143.004 168.876C142.095 175.486 138.934 201.55 138.934 201.55C138.934 201.55 142.494 204.65 146.292 205.088C153.052 205.875 154.611 203.518 154.611 203.518C154.611 203.518 160.794 172.724 161.67 168.027C163.234 159.598 165.058 147.903 165.707 143.234L167.116 156.476C167.116 156.476 166.561 162.071 166.633 167.567C166.672 170.467 167.742 197.213 167.742 197.213C167.742 197.213 168.984 199.936 175.739 200.38C182.493 200.823 183.502 197.529 183.502 197.529C183.502 197.529 184.967 167.245 184.567 152.555C183.968 130.634 184.634 123.22 181.794 107.465L151.561 107.443Z" fill="#263238"/>
<path d="M165.701 143.228L169.267 125.022C169.267 125.022 174.957 124.862 178.866 120.531C178.866 120.531 177.996 126.076 170.831 127.656L167.504 142.956L167.104 156.471L165.701 143.228Z" fill="black"/>
<path d="M171.951 79.2277C174.985 79.9708 179.205 80.7138 181.256 85.2001C184.179 91.6162 189.02 100.217 188.732 107.903L182.537 106.583L176.881 97.5111L171.951 79.2277Z" fill="#FFBDA7"/>
<path d="M183.819 98.6645C182.775 97.6011 181.864 96.4149 181.107 95.1321C182.51 91.7105 181.284 85.5883 175.922 82.4884L174.813 89.9415L176.853 97.5111L182.51 106.583C182.51 106.583 188.488 110.876 188.704 107.903C188.704 107.759 188.704 107.62 188.704 107.471C188.643 106.822 188.56 106.173 188.466 105.524C187.833 102.214 185.133 99.9344 183.819 98.6645Z" fill="#F0997A"/>
<path d="M150.934 81.0743C153.113 80.3288 155.352 79.7722 157.627 79.4106C160.4 78.9614 164.736 78.5566 167.088 78.723C168.711 78.7994 170.328 78.9753 171.929 79.2498C171.929 79.2498 176.831 82.139 179.238 86.6696C181.384 90.7123 181.905 96.2744 182.332 107.554C182.344 107.86 182.287 108.165 182.165 108.446C182.043 108.728 181.86 108.978 181.628 109.179C175.644 114.452 159.086 114.58 151.061 109.123C150.729 108.899 150.469 108.583 150.314 108.214C150.158 107.845 150.113 107.438 150.185 107.044C151.1 102.164 151.15 101.648 150.684 95.986C150.241 90.6402 148.483 83.8525 150.934 81.0743Z" fill="#455A64"/>
<path d="M173.781 74.453C173.885 73.5365 173.814 72.6087 173.571 71.7191C173.358 71.0954 173.214 70.45 173.144 69.7948C173.088 68.4472 174.219 67.9648 174.807 66.9056C175.081 66.3913 175.24 65.8237 175.273 65.2419C175.273 65.009 175.273 63.6726 174.99 63.5783C175.739 63.8001 176.593 63.9887 177.253 63.5783C177.518 63.4026 177.719 63.1452 177.825 62.845C177.932 62.5448 177.937 62.2182 177.841 61.9147C177.797 62.0291 177.73 62.1335 177.645 62.2213C177.56 62.3091 177.457 62.3785 177.344 62.4252C177.231 62.472 177.109 62.4951 176.987 62.4931C176.864 62.4911 176.743 62.4641 176.632 62.4138C176.466 62.3107 176.328 62.1681 176.232 61.9986C176.135 61.8292 176.082 61.6384 176.077 61.4433C176.067 61.0519 176.115 60.6612 176.221 60.2843C176.391 59.6366 176.472 58.9686 176.46 58.299C176.354 57.3298 175.94 56.42 175.279 55.7037C174.578 54.918 173.747 54.2594 172.822 53.7573C170.138 52.1879 167.005 51.0677 163.872 51.1343C157.511 51.2785 154.544 53.1473 154.139 56.4801C154.139 56.2971 152.875 56.9958 152.764 57.0735C152.316 57.373 151.924 57.7483 151.605 58.1826C150.96 59.069 150.671 60.1654 150.795 61.2548C150.903 61.7599 150.981 62.271 151.028 62.7853C151.028 64.4489 149.586 65.7078 149.026 67.266C148.833 67.7774 148.763 68.3269 148.822 68.8702C148.881 69.4136 149.067 69.9355 149.365 70.3937C150.086 71.4085 151.317 71.9353 151.777 73.1664C152.032 73.843 151.988 74.5971 152.209 75.2848C152.369 75.7725 152.652 76.2103 153.033 76.5546C153.413 76.8989 153.877 77.1379 154.378 77.2479C155.675 77.5196 157.15 77.0982 158.382 77.6139C159.169 77.9466 159.718 78.723 160.5 79.0612C160.943 79.2384 161.415 79.3342 161.892 79.3441C162.792 79.4421 163.703 79.3321 164.554 79.0224C165.28 78.723 165.901 78.2017 166.644 77.9577C167.581 77.7522 168.548 77.7239 169.495 77.8745C171.696 78.0409 173.487 76.7266 173.781 74.453Z" fill="#37474F"/>
<path d="M156.252 72.8946C155.686 72.9889 155.105 72.9459 154.559 72.7693C154.013 72.5927 153.517 72.2877 153.113 71.8798C151.511 70.2439 151.3 68.5525 152.004 67.3547C152.559 66.3898 153.989 65.7299 155.032 66.3343C156.075 66.9388 156.202 67.5266 156.64 68.2863C157.078 69.0461 158.67 68.913 158.93 65.7909C159.18 62.874 159.518 60.201 160.888 58.8369C162.934 56.8017 165.879 57.0069 166.788 58.1326C166.941 57.8152 167.159 57.5332 167.427 57.3049C167.696 57.0765 168.009 56.9068 168.347 56.8065C168.685 56.7063 169.04 56.6777 169.389 56.7227C169.739 56.7677 170.075 56.8853 170.376 57.0679C171.824 57.7721 173.349 58.798 173.842 65.009C174.286 70.6265 173.842 73.6821 172.766 74.8633C171.408 76.3605 169.406 76.4714 167.304 76.6433L167.238 79.5104C167.238 79.5104 172.628 83.9467 167.942 84.5623C166.015 84.82 164.054 84.5727 162.252 83.8446C160.45 83.1164 158.868 81.9325 157.661 80.4087L157.561 71.7855C157.461 72.07 157.287 72.3227 157.057 72.5176C156.827 72.7126 156.549 72.8427 156.252 72.8946Z" fill="#FFBDA7"/>
<path d="M162.247 59.214C161.772 60.1763 161.487 61.2214 161.409 62.2917C161.382 63.2344 161.459 65.436 160.932 66.7946C160.744 67.3413 160.421 67.8315 159.992 68.2194C159.564 68.6073 159.044 68.8802 158.481 69.0128C157.749 69.1825 156.986 69.1634 156.263 68.9573C155.814 68.791 154.533 68.0313 154.599 66.7392C155.078 67.1818 155.706 67.4275 156.357 67.4268C156.772 67.394 157.171 67.2568 157.518 67.028C157.866 66.7991 158.149 66.4861 158.343 66.1181C159.069 64.8426 158.897 63.2122 159.03 61.7982C159.213 60.007 159.363 57.9773 160.894 56.9791C162.701 55.798 166.212 56.1695 166.766 58.0882C166.401 57.8476 165.989 57.6853 165.558 57.6116C165.126 57.538 164.684 57.5546 164.26 57.6604C163.835 57.7662 163.437 57.9588 163.09 58.2262C162.744 58.4936 162.457 58.83 162.247 59.214Z" fill="#E0E0E0"/>
<path d="M166.14 64.5764C166.173 64.7486 166.154 64.9266 166.085 65.0881C166.017 65.2495 165.903 65.3872 165.756 65.4836C165.61 65.5801 165.438 65.631 165.263 65.63C165.088 65.629 164.917 65.5761 164.771 65.478C164.626 65.3799 164.513 65.2409 164.447 65.0787C164.381 64.9164 164.364 64.7382 164.399 64.5664C164.433 64.3946 164.518 64.237 164.643 64.1134C164.767 63.9899 164.925 63.9059 165.097 63.8721C165.212 63.8496 165.33 63.8499 165.444 63.8732C165.559 63.8964 165.668 63.9421 165.765 64.0075C165.862 64.073 165.945 64.1569 166.009 64.2545C166.073 64.3522 166.118 64.4615 166.14 64.5764Z" fill="#263238"/>
<path d="M172.439 64.349C172.472 64.5211 172.453 64.6992 172.385 64.8607C172.317 65.0221 172.202 65.1598 172.056 65.2562C171.91 65.3527 171.738 65.4036 171.563 65.4026C171.387 65.4016 171.216 65.3487 171.071 65.2506C170.926 65.1524 170.813 65.0135 170.746 64.8513C170.68 64.689 170.663 64.5108 170.698 64.339C170.733 64.1672 170.818 64.0096 170.942 63.886C171.067 63.7624 171.225 63.6785 171.397 63.6447C171.511 63.6222 171.629 63.6225 171.744 63.6457C171.859 63.669 171.967 63.7146 172.064 63.7801C172.161 63.8455 172.244 63.9295 172.309 64.0271C172.373 64.1247 172.417 64.2341 172.439 64.349Z" fill="#263238"/>
<path d="M173.005 62.9793L170.787 62.1309C170.836 61.9847 170.914 61.85 171.016 61.7347C171.118 61.6195 171.243 61.5262 171.382 61.4604C171.522 61.3946 171.673 61.3577 171.827 61.3519C171.981 61.3461 172.134 61.3715 172.278 61.4266C172.575 61.5436 172.815 61.7697 172.95 62.0584C173.086 62.3472 173.105 62.6767 173.005 62.9793Z" fill="#263238"/>
<path d="M165.529 62.4025L163.339 63.3009C163.273 63.1613 163.237 63.0099 163.232 62.8557C163.226 62.7016 163.253 62.548 163.309 62.4043C163.365 62.2606 163.449 62.1298 163.558 62.0198C163.666 61.9099 163.795 61.8231 163.938 61.7648C164.234 61.6476 164.565 61.6484 164.861 61.767C165.157 61.8856 165.396 62.113 165.529 62.4025Z" fill="#263238"/>
<path d="M167.554 63.3009L168.896 69.2345L171.796 67.4323L167.554 63.3009Z" fill="#F0997A"/>
<path d="M167.276 76.6211C162.119 76.4381 160.655 75.0628 159.396 72.8391C159.396 72.8391 159.857 75.756 162.075 76.7209C163.726 77.3661 165.476 77.7225 167.249 77.7746L167.276 76.6211Z" fill="#F0997A"/>
<path d="M168.751 70.8594C168.307 70.9194 167.856 70.9101 167.415 70.8316C167.197 70.7932 166.981 70.7376 166.772 70.6653L166.456 70.5488C166.33 70.4826 166.192 70.4429 166.051 70.4324C165.979 70.4324 166.012 70.5655 166.051 70.5932C166.206 70.7451 166.396 70.8557 166.605 70.9148C166.843 71.004 167.088 71.0708 167.337 71.1145C167.835 71.1977 168.343 71.1977 168.84 71.1145C168.973 71.1089 168.879 70.8427 168.751 70.8594Z" fill="#B16668"/>
<path d="M174.042 99.0582C173.288 97.9001 172.164 97.032 170.853 96.5961C169.381 96.0147 167.948 95.3405 166.561 94.5775C165.976 94.3102 165.426 93.9711 164.925 93.5682C164.67 93.3469 164.479 93.0617 164.371 92.742C164.292 92.4478 164.328 92.1349 164.47 91.8658C164.136 91.7097 163.852 91.464 163.65 91.156C163.481 90.8562 163.431 90.5036 163.511 90.1689C163.543 90.0635 163.596 89.9656 163.667 89.8809C163.737 89.7962 163.824 89.7263 163.921 89.6753C163.733 89.3537 163.162 88.4442 163.766 87.7621C163.977 87.6069 164.321 87.6734 164.554 87.69C164.786 87.7067 165.413 87.8065 165.546 87.8287C165.609 87.7448 165.688 87.6749 165.779 87.6235C166.363 87.3305 167.026 87.2333 167.67 87.3462C168.376 87.4887 169.065 87.7024 169.727 87.984C170.448 88.2391 171.203 88.4276 171.946 88.6328C172.099 88.6807 172.257 88.7122 172.417 88.7271C172.783 88.7271 173.138 88.5829 173.526 88.6272C173.839 88.6754 174.143 88.7669 174.43 88.899C175.062 89.189 175.588 89.67 175.933 90.2742C176.892 91.9379 177.502 93.7069 178.639 95.2652C179.627 96.5716 180.727 97.7889 181.927 98.903C183.802 100.716 187.379 102.358 188.405 105.924C189.092 108.297 189.048 111.63 187.417 113.038C186.342 113.964 182.327 113.216 180.114 110.82C177.497 108.003 175.001 100.666 174.042 99.0582Z" fill="#FFBDA7"/>
<path d="M165.624 87.8286C167.875 88.2673 170.067 88.9671 172.156 89.9137C170.179 88.7008 167.938 87.9854 165.624 87.8286ZM167.897 90.1411C166.647 89.7297 165.324 89.5898 164.016 89.7307C166.628 89.7307 169.167 90.6901 171.569 91.6384C170.415 90.9823 169.181 90.479 167.897 90.1411ZM164.953 91.472C164.78 91.5029 164.625 91.5963 164.516 91.7344C164.408 91.8724 164.354 92.0455 164.365 92.2206C164.426 91.3888 165.374 91.5385 165.945 91.6661C167.897 92.0959 169.799 92.7297 171.618 93.5571C169.88 92.5303 167.966 91.8347 165.973 91.5053C165.637 91.4417 165.293 91.4305 164.953 91.472Z" fill="#F0997A"/>
<path d="M150.934 81.0742C147.762 82.028 143.725 84.4514 144.734 90.7788C145.666 96.7346 149.559 109.894 150.884 113.177C152.387 116.903 153.928 118.212 155.925 118.65C157.644 119.027 159.563 117.913 161.004 116.892C165.108 113.981 167.781 108.147 170.687 102.036C172.045 99.1545 173.043 96.1168 173.659 92.9914C173.775 92.258 173.808 91.514 173.759 90.7732C173.698 90.0834 173.522 89.4086 173.238 88.7769C173.193 88.6826 173.143 88.5939 173.11 88.4996C173.078 88.3353 173.065 88.1678 173.071 88.0005C173.077 87.5938 172.933 87.1992 172.667 86.8914C172.537 86.7697 172.4 86.6567 172.256 86.5531C172.204 86.5215 172.159 86.4801 172.123 86.4311C172.018 86.2814 172.073 86.0762 172.057 85.8766C172.017 85.6785 171.907 85.5015 171.747 85.3782C171.587 85.2549 171.388 85.1936 171.186 85.2056C170.962 85.2344 170.748 85.3144 170.561 85.4395C170.373 85.5645 170.217 85.7312 170.105 85.9265C170.084 85.9559 170.058 85.9805 170.027 85.9986C169.991 86.0097 169.952 86.0097 169.916 85.9986C169.731 85.9699 169.541 85.9831 169.361 86.0374C169.192 86.087 169.037 86.1786 168.912 86.3036C168.657 86.6221 168.497 87.0068 168.452 87.4127C168.313 88.056 168.214 88.7103 168.075 89.3536C167.792 90.6235 167.681 91.9489 166.999 93.0746C166.938 93.18 166.838 93.2964 166.722 93.2687C166.605 93.241 166.567 93.1134 166.55 93.0025C166.372 91.8435 167.049 90.6346 166.151 89.6253C165.369 88.7491 165.247 90.4738 165.119 90.9174C164.953 91.5219 164.786 92.1263 164.615 92.7308C164.287 93.7145 164.101 94.7394 164.06 95.7752C164.06 96.7568 164.343 97.7217 164.304 98.6977C164.296 99.6697 163.917 100.602 163.245 101.304C160.577 104.005 159.363 105.075 159.363 105.075L157.278 95.0932C157.278 95.0932 156.967 89.3758 154.683 84.8562C153.219 81.9116 150.934 81.0742 150.934 81.0742Z" fill="#FFBDA7"/>
<path d="M170.166 86.1483C170.364 86.6694 170.425 87.2327 170.343 87.7842C170.258 89.4402 169.977 91.0802 169.506 92.6698C169.655 91.7326 169.844 90.3629 169.988 89.4035C170.099 88.5939 170.182 87.7399 170.243 86.9524C170.282 86.682 170.255 86.4063 170.166 86.1483Z" fill="#F0997A"/>
<path d="M172.045 86.5088C172.137 88.7592 171.848 91.009 171.191 93.1633C171.657 91.0117 171.746 88.727 172.045 86.5088Z" fill="#F0997A"/>
<path d="M173.11 88.5939C173.243 90.2776 173.055 91.9712 172.556 93.5848C172.722 92.1208 172.966 90.069 173.11 88.5939Z" fill="#F0997A"/>
<path d="M161.004 116.892C165.607 113.377 167.809 107.759 170.31 102.713C171.56 100.146 172.541 97.457 173.238 94.6884C173.641 93.3225 173.781 91.892 173.648 90.4739C173.529 89.771 173.318 89.0868 173.021 88.4387C173.021 87.7011 172.911 87.0246 172.217 86.6309C172.134 86.5739 172.068 86.4953 172.026 86.4034C171.983 86.3116 171.967 86.21 171.979 86.1096C171.989 85.9872 171.969 85.8642 171.92 85.7514C171.872 85.6387 171.796 85.5396 171.7 85.4629C171.605 85.3861 171.491 85.3342 171.371 85.3116C171.25 85.289 171.126 85.2964 171.008 85.3332C170.636 85.4586 170.319 85.7121 170.116 86.0486C170.092 86.0711 170.064 86.0879 170.033 86.0976C170.003 86.1072 169.97 86.1094 169.938 86.104C169.681 86.0507 169.413 86.0858 169.178 86.2039C168.546 86.5699 168.541 87.4183 168.385 88.0616C168.15 89.4728 167.839 90.8704 167.454 92.2484C167.331 92.5914 167.165 92.9175 166.96 93.2189C166.483 93.6292 166.444 92.7974 166.461 92.4924C166.5 91.4665 166.855 90.2742 165.951 89.5145C165.313 89.082 165.28 90.7068 165.125 91.0617L164.836 92.0931C164.459 93.4573 163.988 94.8659 164.132 96.28C164.276 97.6941 164.614 99.1969 163.877 100.495C163.488 101.098 163.014 101.642 162.468 102.108C161.454 103.112 160.433 104.116 159.374 105.07C160.428 104.105 161.437 103.095 162.446 102.086C162.982 101.616 163.447 101.07 163.827 100.467C164.149 99.8323 164.304 99.126 164.276 98.415C164.276 97.7052 164.115 97.0009 164.049 96.2855C163.899 94.8437 164.37 93.4407 164.742 92.071L165.03 91.0395C165.102 90.5006 165.253 89.9754 165.48 89.4812C165.934 88.9267 166.494 89.9526 166.589 90.3463C166.777 91.0672 166.589 91.7937 166.561 92.4924C166.561 93.9342 167.115 92.8529 167.332 92.2041C167.709 90.8309 168.014 89.4389 168.247 88.0339C168.396 87.1965 168.546 85.9599 169.639 85.9321C169.744 85.9321 169.922 85.9765 169.983 85.9321C170.203 85.5741 170.543 85.3052 170.942 85.1724C171.081 85.1323 171.227 85.126 171.369 85.1542C171.511 85.1823 171.644 85.2441 171.757 85.3343C171.87 85.4244 171.959 85.5404 172.018 85.6724C172.077 85.8044 172.104 85.9486 172.095 86.093C172.083 86.1703 172.093 86.2496 172.125 86.3213C172.156 86.393 172.208 86.4543 172.273 86.4978C172.595 86.6857 172.845 86.9768 172.983 87.324C173.088 87.6708 173.136 88.0321 173.127 88.3943C173.426 89.0454 173.637 89.7336 173.753 90.4406C173.884 91.8745 173.739 93.3201 173.326 94.6995C172.62 97.4751 171.628 100.17 170.365 102.74C167.864 107.781 165.613 113.404 160.971 116.876L161.004 116.892Z" fill="#F0997A"/>
<path d="M159.396 105.086C157.428 106.012 155.764 107.859 155.442 108.913C155.442 108.913 155.265 105.741 159.125 103.922L159.396 105.086Z" fill="#F0997A"/>
<path d="M239.7 21.3497C239.707 25.4875 238.139 29.4727 235.314 32.4961L233.966 33.7827C230.855 36.4507 226.852 37.848 222.756 37.6961C218.661 37.5442 214.773 35.8543 211.867 32.9631C208.962 30.072 207.254 26.1921 207.082 22.0972C206.91 18.0022 208.288 13.9929 210.941 10.8688L212.228 9.5157C214.541 7.33337 217.443 5.87588 220.575 5.32295C223.707 4.77003 226.932 5.14585 229.853 6.40407C232.774 7.6623 235.263 9.7479 237.013 12.4037C238.762 15.0595 239.697 18.1693 239.7 21.3497Z" fill="white"/>
<path d="M223.347 3.69302C218.909 3.69995 214.635 5.37469 211.375 8.38502C208.114 11.3954 206.104 15.5214 205.743 19.9446C205.382 24.3678 206.697 28.7651 209.426 32.2641C212.156 35.7632 216.101 38.1085 220.48 38.8346L222.481 43.9531C222.556 44.146 222.688 44.3119 222.858 44.4288C223.029 44.5457 223.231 44.6083 223.438 44.6083C223.645 44.6083 223.847 44.5457 224.018 44.4288C224.188 44.3119 224.32 44.146 224.395 43.9531L226.369 38.818C230.739 38.0677 234.668 35.7035 237.378 32.1937C240.088 28.6839 241.381 24.2844 241.001 19.8665C240.62 15.4487 238.595 11.3347 235.325 8.33932C232.056 5.34397 227.781 3.68573 223.347 3.69302ZM239.695 21.3498C239.706 25.4874 238.139 29.4738 235.314 32.4962L233.966 33.7827C230.855 36.4507 226.852 37.8481 222.756 37.6962C218.661 37.5443 214.773 35.8543 211.868 32.9632C208.962 30.0721 207.254 26.1922 207.082 22.0972C206.91 18.0022 208.288 13.993 210.941 10.8689L212.228 9.51021C214.542 7.32939 217.444 5.87339 220.575 5.32168C223.707 4.76998 226.931 5.14669 229.851 6.40538C232.771 7.66407 235.259 9.74972 237.008 12.4052C238.757 15.0607 239.691 18.17 239.695 21.3498Z" fill="#455A64"/>
<path d="M232.89 17.1352C232.89 15.3363 232.379 13.5745 231.417 12.0544C230.456 10.5343 229.082 9.31834 227.457 8.54783C225.831 7.77731 224.02 7.48387 222.235 7.7016C220.449 7.91934 218.762 8.6393 217.369 9.77785C215.977 10.9164 214.936 12.4268 214.367 14.1334C213.799 15.8401 213.727 17.6731 214.159 19.4193C214.591 21.1655 215.509 22.7532 216.808 23.9981C218.106 25.2429 219.731 26.0937 221.494 26.4516V28.6032H218.722C218.594 28.6032 218.471 28.654 218.38 28.7445C218.29 28.835 218.239 28.9577 218.239 29.0857V31.9083C218.239 31.9717 218.252 32.0344 218.276 32.0929C218.3 32.1515 218.336 32.2047 218.38 32.2495C218.425 32.2943 218.478 32.3298 218.537 32.354C218.595 32.3783 218.658 32.3908 218.722 32.3908H221.494V34.6644C221.494 34.7914 221.544 34.9133 221.634 35.0036C221.723 35.0939 221.844 35.1454 221.971 35.1469H224.799C224.862 35.1469 224.925 35.1343 224.983 35.11C225.041 35.0857 225.094 35.0501 225.139 35.0052C225.183 34.9603 225.218 34.9071 225.242 34.8486C225.265 34.7901 225.277 34.7275 225.276 34.6644V32.4129H228.049C228.176 32.4115 228.297 32.36 228.387 32.2697C228.476 32.1794 228.526 32.0575 228.526 31.9305V29.0857C228.526 28.9587 228.476 28.8368 228.387 28.7465C228.297 28.6561 228.176 28.6047 228.049 28.6032H225.276V26.4516C227.424 26.0124 229.354 24.8457 230.741 23.1484C232.128 21.4511 232.887 19.3272 232.89 17.1352ZM217.629 17.1352C217.629 15.9967 217.967 14.8838 218.599 13.9372C219.232 12.9906 220.131 12.2528 221.182 11.8172C222.234 11.3815 223.392 11.2675 224.508 11.4896C225.625 11.7117 226.651 12.2599 227.456 13.0649C228.261 13.87 228.809 14.8956 229.031 16.0122C229.253 17.1288 229.139 18.2862 228.703 19.338C228.268 20.3898 227.53 21.2888 226.583 21.9213C225.637 22.5538 224.524 22.8914 223.385 22.8914C221.859 22.8899 220.396 22.283 219.317 21.2038C218.237 20.1246 217.631 18.6614 217.629 17.1352Z" fill="#9955B9"/>
<path d="M222.354 14.0574H220.84C220.806 14.0574 220.774 14.0708 220.75 14.0947C220.726 14.1186 220.712 14.1511 220.712 14.1849V20.0797C220.712 20.1136 220.726 20.146 220.75 20.1699C220.774 20.1939 220.806 20.2073 220.84 20.2073H222.354C222.388 20.2073 222.42 20.1939 222.444 20.1699C222.468 20.146 222.481 20.1136 222.481 20.0797V14.1849C222.48 14.1515 222.466 14.1199 222.443 14.0962C222.419 14.0726 222.387 14.0587 222.354 14.0574ZM225.936 14.0574H224.422C224.388 14.0574 224.356 14.0708 224.332 14.0947C224.308 14.1186 224.295 14.1511 224.295 14.1849V20.0797C224.295 20.1136 224.308 20.146 224.332 20.1699C224.356 20.1939 224.388 20.2073 224.422 20.2073H225.936C225.97 20.2073 226.003 20.1939 226.026 20.1699C226.05 20.146 226.064 20.1136 226.064 20.0797V14.1849C226.064 14.1682 226.06 14.1516 226.054 14.1361C226.048 14.1206 226.038 14.1066 226.026 14.0947C226.015 14.0829 226.001 14.0735 225.985 14.0671C225.97 14.0607 225.953 14.0574 225.936 14.0574Z" fill="#455A64"/>
</svg>
