<svg width="300" height="194" viewBox="0 0 300 194" fill="none" xmlns="http://www.w3.org/2000/svg">
<path d="M166.515 3.82739C166.512 3.89734 166.502 3.96688 166.487 4.03521C166.464 4.16914 166.418 4.36773 166.381 4.63096C166.255 5.39483 166.181 6.16628 166.159 6.94008C166.122 8.16689 166.225 9.39392 166.464 10.5977C166.788 12.1892 167.369 13.7176 168.182 15.1236C169.217 16.8005 170.352 18.4136 171.581 19.9542C172.986 21.7491 174.135 23.7309 174.994 25.8425C175.922 28.1874 176.452 30.6707 176.564 33.1901C176.8 38.6632 174.855 44.0064 171.156 48.0469C169.463 49.9158 167.424 51.44 165.152 52.5358C162.996 53.598 160.848 54.3831 158.955 55.3068C157.173 56.1472 155.56 57.3052 154.193 58.7243C152.228 60.8066 150.863 63.3824 150.245 66.1781C150.12 66.6676 150.074 67.1017 150.005 67.4989C149.935 67.896 149.926 68.2147 149.912 68.4779C149.898 68.7412 149.912 68.9398 149.88 69.0829C149.885 69.1521 149.885 69.2216 149.88 69.2908C149.875 69.2216 149.875 69.1521 149.88 69.0829C149.88 68.9352 149.88 68.7319 149.88 68.4779C149.88 68.2239 149.926 67.8822 149.954 67.4896C149.981 67.0971 150.055 66.6537 150.171 66.1596C150.42 64.9483 150.814 63.7714 151.344 62.6544C152.041 61.1709 152.967 59.8059 154.087 58.6088C155.458 57.1649 157.083 55.9861 158.881 55.1313C160.788 54.1614 162.936 53.381 165.074 52.3234C167.306 51.2421 169.311 49.7435 170.981 47.9084C174.634 43.9052 176.555 38.6188 176.324 33.2039C176.218 30.7094 175.698 28.2499 174.786 25.9256C173.937 23.8318 172.804 21.8645 171.419 20.0789C170.192 18.5261 169.06 16.9006 168.03 15.2113C167.215 13.7864 166.641 12.237 166.33 10.6254C166.095 9.40878 166.005 8.16862 166.062 6.93084C166.093 6.15547 166.182 5.38354 166.33 4.62173C166.376 4.35849 166.427 4.15991 166.459 4.0306L166.515 3.82739Z" fill="#E0E0E0"/>
<path d="M185.939 7.08325C185.684 8.12213 185.366 9.14463 184.988 10.1451C184.563 11.3272 184.048 12.4744 183.445 13.5765C182.671 15.059 181.641 16.3927 180.402 17.5158C180.043 17.8295 179.662 18.1166 179.261 18.3748C178.846 18.6288 178.411 18.8643 177.963 19.0953L175.169 20.5269C173.239 21.5152 171.165 22.5497 169.041 23.7597C166.829 24.9967 164.845 26.6041 163.176 28.5118C161.376 30.5653 160.025 32.972 159.209 35.5777C158.407 38.1886 158.211 40.9478 158.636 43.6458C159.021 46.1615 159.998 48.5499 161.486 50.6147C162.913 52.5774 164.594 54.1938 165.938 55.9071C166.603 56.7243 167.189 57.6026 167.688 58.5303C168.136 59.3922 168.499 60.2954 168.773 61.2273C169.234 62.8338 169.433 64.5037 169.364 66.1735C169.311 67.4276 169.095 68.6695 168.722 69.868C168.491 70.628 168.194 71.3666 167.836 72.0756C167.711 72.3065 167.609 72.4866 167.54 72.6205C167.471 72.7544 167.429 72.8006 167.429 72.8006C167.429 72.8006 167.457 72.7313 167.517 72.6067C167.577 72.482 167.674 72.288 167.794 72.0571C168.13 71.3422 168.411 70.6026 168.635 69.8449C168.989 68.6439 169.188 67.4022 169.226 66.1504C169.28 64.5116 169.072 62.8748 168.612 61.3012C168.335 60.3813 167.97 59.4904 167.522 58.6411C167.025 57.7268 166.442 56.8623 165.781 56.0595C164.441 54.3647 162.756 52.7575 161.306 50.7717C159.792 48.681 158.796 46.2609 158.401 43.7104C157.97 40.9772 158.168 38.1818 158.978 35.5361C159.806 32.8986 161.174 30.4623 162.996 28.3825C164.682 26.4396 166.691 24.8022 168.935 23.5426C171.068 22.3557 173.147 21.3305 175.082 20.3514L177.876 18.929C178.338 18.7027 178.762 18.4672 179.169 18.2224C179.562 17.9708 179.937 17.6914 180.291 17.3865C181.521 16.2811 182.549 14.9699 183.33 13.5118C183.936 12.419 184.461 11.2829 184.9 10.1128C185.27 9.15222 185.514 8.39021 185.681 7.87297C185.759 7.62358 185.824 7.41115 185.865 7.28184C185.907 7.15253 185.939 7.08325 185.939 7.08325Z" fill="#E0E0E0"/>
<path d="M178.633 18.6428C178.633 18.7075 176.389 18.3011 173.655 17.7192C170.921 17.1373 168.713 16.6478 168.727 16.5831C168.741 16.5185 170.967 16.9202 173.706 17.5068C176.444 18.0933 178.633 18.5736 178.633 18.6428Z" fill="#E0E0E0"/>
<path d="M182.019 15.4469C182.019 15.5116 178.569 14.5602 174.352 13.3272C170.136 12.0941 166.737 11.018 166.755 10.9719C166.774 10.9257 170.205 11.8586 174.422 13.0962C178.638 14.3339 182.037 15.3823 182.019 15.4469Z" fill="#E0E0E0"/>
<path d="M184.499 11.2583C184.499 11.3183 180.365 10.1407 175.313 8.6213C170.261 7.10191 166.164 5.81804 166.192 5.75338C166.22 5.68873 170.321 6.871 175.401 8.39039C180.481 9.90979 184.517 11.1937 184.499 11.2583Z" fill="#E0E0E0"/>
<path d="M168.755 50.1206C168.732 50.1853 166.524 49.3956 163.823 48.3565C161.121 47.3174 158.955 46.426 158.978 46.366C159.001 46.306 161.209 47.0957 163.91 48.1302C166.612 49.1646 168.778 50.0606 168.755 50.1206Z" fill="#E0E0E0"/>
<path d="M173.092 45.1376C172.891 45.1086 172.693 45.0606 172.501 44.9944C172.122 44.8928 171.577 44.7266 170.912 44.5326C169.582 44.1124 167.753 43.4935 165.753 42.7454C163.754 41.9972 161.962 41.2721 160.673 40.7226C160.031 40.4455 159.514 40.2146 159.158 40.0483C158.97 39.9714 158.789 39.8771 158.618 39.7666C158.817 39.812 159.01 39.877 159.195 39.9606L160.738 40.5609C162.036 41.0736 163.832 41.7755 165.818 42.5237C167.804 43.2718 169.633 43.9092 170.949 44.371L172.51 44.9252C172.71 44.9776 172.905 45.0487 173.092 45.1376Z" fill="#E0E0E0"/>
<path d="M175.58 39.7665C175.36 39.7075 175.147 39.6271 174.942 39.5264L173.234 38.8198C171.793 38.2194 169.793 37.4066 167.563 36.5754C165.332 35.7441 163.286 35.0513 161.804 34.5618L160.044 33.9799C159.825 33.9191 159.612 33.8403 159.407 33.7444C159.633 33.7712 159.856 33.8207 160.072 33.8922C160.497 34.003 161.102 34.1739 161.854 34.4002C163.351 34.862 165.406 35.5178 167.646 36.3491C169.885 37.1803 171.876 38.0209 173.303 38.6582C174.014 38.9768 174.587 39.2447 174.979 39.4387C175.19 39.5284 175.391 39.6382 175.58 39.7665Z" fill="#E0E0E0"/>
<path d="M175.612 33.0424C175.437 33.0172 175.267 32.969 175.104 32.8992L173.756 32.4374C172.615 32.0402 171.045 31.5138 169.295 30.9272C167.544 30.3407 165.956 29.8743 164.801 29.5418L163.416 29.1215C163.245 29.0799 163.079 29.0195 162.921 28.9414C163.097 28.9503 163.271 28.9814 163.439 29.0338C163.771 29.103 164.242 29.2231 164.824 29.3755C165.993 29.6849 167.595 30.1421 169.345 30.7148C171.096 31.2875 172.666 31.8555 173.793 32.2942C174.351 32.5113 174.804 32.696 175.114 32.83C175.288 32.8809 175.455 32.9522 175.612 33.0424Z" fill="#E0E0E0"/>
<path d="M175.677 27.8192C174.221 27.4496 172.786 27.0041 171.377 26.4845C169.943 26.039 168.534 25.5164 167.156 24.9189C168.611 25.29 170.046 25.7355 171.456 26.2536C172.889 26.701 174.298 27.2236 175.677 27.8192Z" fill="#E0E0E0"/>
<path d="M168.472 60.2623C168.314 60.2382 168.159 60.1964 168.011 60.1376L166.791 59.7266L162.783 58.3411L158.765 56.9926L157.546 56.5723C157.393 56.5301 157.245 56.4696 157.107 56.3922C157.264 56.4016 157.42 56.4327 157.569 56.4846C157.864 56.5585 158.289 56.6739 158.811 56.8263C159.855 57.1311 161.286 57.5791 162.857 58.1148C164.427 58.6505 165.835 59.1678 166.847 59.5649C167.355 59.7635 167.77 59.9298 168.038 60.0268C168.194 60.0819 168.341 60.1614 168.472 60.2623Z" fill="#E0E0E0"/>
<path d="M169.309 66.3815C169.286 66.4416 165.49 65.2131 160.83 63.6106C156.17 62.0081 152.406 60.6965 152.429 60.6318C152.452 60.5672 156.244 61.8002 160.908 63.4028C165.573 65.0053 169.327 66.2938 169.309 66.3815Z" fill="#E0E0E0"/>
<path d="M169.23 70.8933C169.23 70.958 164.972 69.711 159.767 68.1224C154.563 66.5337 150.351 65.1759 150.369 65.1113C150.388 65.0466 154.627 66.2936 159.837 67.8822C165.046 69.4709 169.253 70.8287 169.23 70.8933Z" fill="#E0E0E0"/>
<path d="M92.6412 32.4743C92.6412 32.4743 92.5165 32.4743 92.2764 32.4743L91.2142 32.5159C90.2905 32.5436 88.9051 32.5852 87.1317 32.6129C86.245 32.6129 85.2567 32.6129 84.176 32.6129C83.6086 32.6202 83.042 32.5676 82.4857 32.4559C81.9198 32.2283 81.3664 31.9709 80.8278 31.6846C80.2392 31.425 79.5888 31.3385 78.9528 31.4352C78.7911 31.4583 78.6249 31.4999 78.4633 31.5322C78.3082 31.5825 78.1629 31.659 78.0338 31.7585C77.7644 31.9744 77.5293 32.2297 77.3364 32.5159C76.5343 33.7865 75.8818 35.1456 75.3921 36.5661C74.8287 38.0485 74.3299 39.628 73.7342 41.2628C73.6603 41.466 73.5772 41.6692 73.4894 41.8724L73.4155 42.0248C73.4035 42.0552 73.3863 42.0834 73.3647 42.108C73.3506 42.1325 73.3305 42.1529 73.3062 42.1675C73.282 42.182 73.2544 42.1902 73.2262 42.1911C73.0599 42.1495 73.083 42.0664 73.0415 42.0156C73.0174 41.9617 72.9973 41.9062 72.9814 41.8493C72.8701 41.412 72.7883 40.9676 72.7366 40.5193C72.6166 39.628 72.5242 38.7136 72.4365 37.7853C72.0993 34.0907 71.8315 30.0913 71.4713 25.9165C71.2819 23.829 71.111 21.6815 70.7462 19.5295C70.6954 19.2616 70.6446 18.9937 70.5707 18.7305C70.5381 18.6063 70.4932 18.4856 70.4368 18.3703C70.3721 18.2594 70.3167 18.2086 70.2474 18.241C70.0472 18.3894 69.8883 18.5865 69.7856 18.8136C69.6526 19.0534 69.5324 19.3001 69.4254 19.5525C68.9821 20.6005 68.5921 21.6702 68.257 22.7576C67.5781 24.9328 66.9777 27.1726 66.4097 29.454L66.1926 30.313C66.1319 30.6099 66.0485 30.9017 65.9432 31.1859C65.8124 31.4783 65.6079 31.7316 65.3496 31.9211C65.0913 32.1105 64.7882 32.2296 64.47 32.2665C63.8512 32.2896 63.2739 32.3219 62.6551 32.3081C62.0421 32.2856 61.4334 32.1958 60.8401 32.0402C60.088 31.8455 59.3634 31.5569 58.6834 31.1812C58.3715 30.9795 58.0385 30.8123 57.6905 30.6825C57.5359 30.6199 57.3666 30.6033 57.2028 30.6344C57.039 30.6655 56.8877 30.7431 56.7668 30.858C56.5481 31.1479 56.3909 31.4795 56.305 31.8324C56.1895 32.188 56.0879 32.5482 55.9863 32.9085C55.7924 33.6289 55.6076 34.354 55.4275 35.0744C55.0581 36.5153 54.7071 37.9377 54.2499 39.3416C54.232 39.3949 54.2055 39.4448 54.1714 39.4894C54.143 39.5319 54.0997 39.5621 54.0501 39.5741C54.0004 39.5861 53.9481 39.5789 53.9035 39.5541C53.8119 39.4848 53.7428 39.39 53.7049 39.2816C53.6318 39.1088 53.5701 38.9314 53.5202 38.7505C53.4232 38.3949 53.3447 38.0439 53.2708 37.6883C53.123 36.9817 52.9984 36.2751 52.8829 35.5732C52.4211 32.7699 52.0424 30.0313 51.636 27.3666C51.4328 26.0411 51.2342 24.7296 50.9663 23.4642C50.9074 23.1488 50.8192 22.8396 50.7031 22.5405C50.62 22.2819 50.3244 22.5913 50.1489 22.8176C49.7859 23.329 49.4632 23.8679 49.1837 24.4294C48.043 26.6554 47.1193 28.8906 46.0895 30.9642C45.8422 31.4853 45.5534 31.9857 45.2259 32.4605C45.1392 32.5993 45.0043 32.7012 44.8472 32.7468C44.6948 32.7774 44.5378 32.7774 44.3854 32.7468C44.1082 32.649 43.8625 32.4783 43.6741 32.2527C43.4931 32.0635 43.2806 31.9073 43.0461 31.7908C42.8212 31.6745 42.5693 31.6203 42.3164 31.6338C41.8166 31.7515 41.3593 32.0057 40.9956 32.3681C40.7887 32.5475 40.5415 32.6743 40.2751 32.7376C40.1327 32.762 39.9863 32.7493 39.8503 32.7006C39.7279 32.6438 39.6156 32.5673 39.5177 32.4743C39.1628 32.1169 38.8398 31.729 38.5525 31.3152C38.2616 30.918 37.9845 30.5254 37.6935 30.156C37.4252 29.7936 37.0954 29.4809 36.7191 29.2323C36.3404 28.983 35.9201 29.297 35.583 29.5371C35.2539 29.8031 34.9452 30.0933 34.6594 30.4054C34.105 30.9915 33.5838 31.6082 33.0984 32.2527V32.2804H33.0661L24.6286 32.248H22.398H21.8253C21.7607 32.2521 21.6959 32.2521 21.6313 32.248H21.8253H22.398H24.6286L33.0661 32.2157L33.0153 32.2434C33.4996 31.5879 34.0208 30.9603 34.5762 30.3638C34.8718 30.0426 35.1931 29.7461 35.5368 29.4771C35.714 29.333 35.9097 29.2134 36.1187 29.1215C36.2333 29.0753 36.3554 29.0502 36.4789 29.0476C36.6048 29.0548 36.7269 29.0928 36.8346 29.1585C37.2332 29.4195 37.5807 29.7513 37.8598 30.1375C38.1554 30.5116 38.4371 30.9041 38.728 31.2967C39.0003 31.7016 39.3095 32.0803 39.6517 32.4282C39.738 32.5087 39.8361 32.5757 39.9426 32.6267C40.0481 32.6626 40.161 32.6705 40.2705 32.6498C40.5082 32.5901 40.7283 32.4745 40.9124 32.3127C41.2935 31.9308 41.7732 31.6622 42.2979 31.5368C42.5829 31.5326 42.8653 31.5908 43.1253 31.7073C43.3854 31.8237 43.6169 31.9957 43.8035 32.2111C43.9671 32.4191 44.1842 32.5788 44.4315 32.6729C44.5565 32.6984 44.6853 32.6984 44.8102 32.6729C44.8934 32.6729 44.9903 32.5575 45.0688 32.4512C45.3878 31.9866 45.6689 31.497 45.9094 30.9873C46.93 28.9229 47.849 26.6877 48.9943 24.4432C49.2761 23.8689 49.6051 23.319 49.978 22.7992C50.0787 22.6598 50.2002 22.5368 50.3382 22.4343C50.3794 22.3993 50.4272 22.3731 50.4788 22.3572C50.5304 22.3413 50.5847 22.3361 50.6384 22.3419C50.6939 22.3547 50.7457 22.3801 50.7898 22.4161C50.8338 22.4522 50.869 22.4979 50.8924 22.5498C51.0114 22.8348 51.1042 23.13 51.1695 23.4319C51.442 24.7111 51.6314 26.0227 51.8484 27.3527C52.2594 30.0082 52.6381 32.7561 53.1046 35.5547C53.22 36.2567 53.3447 36.9402 53.4925 37.6606C53.5664 38.0116 53.6449 38.358 53.7373 38.7043C53.7838 38.874 53.8408 39.0406 53.9081 39.2031C53.9313 39.2644 53.9657 39.3208 54.0097 39.3693C53.9866 39.3693 54.0097 39.4386 54.0097 39.3971C54.029 39.3707 54.0431 39.3409 54.0513 39.3093C54.5131 37.9238 54.8549 36.5061 55.2197 35.0698C55.3998 34.3493 55.5799 33.6243 55.7785 32.8992C55.8801 32.539 55.9817 32.1742 56.1018 31.8139C56.1572 31.6338 56.2219 31.4537 56.2865 31.2736C56.3559 31.0807 56.4626 30.9034 56.6006 30.7517C56.7463 30.5906 56.9441 30.4859 57.1594 30.4562C57.3656 30.4252 57.5762 30.4442 57.7736 30.5116C58.1409 30.6418 58.4913 30.8154 58.8173 31.0288C59.4798 31.3948 60.1858 31.6756 60.9186 31.8647C61.4959 32.0127 62.0873 32.0994 62.6828 32.1234C63.2647 32.1234 63.8835 32.1234 64.4608 32.0818C64.7359 32.0503 64.9983 31.9489 65.223 31.7872C65.4478 31.6255 65.6273 31.4089 65.7447 31.1581C65.8429 30.887 65.9216 30.6092 65.9802 30.3269L66.1972 29.4679C66.7791 27.1588 67.3841 24.9374 68.0676 22.7576C68.414 21.6677 68.765 20.5916 69.2129 19.5525C69.3284 19.2939 69.4485 19.0399 69.587 18.7905C69.6609 18.6658 69.7348 18.5458 69.8225 18.4257C69.9148 18.294 70.0387 18.1876 70.1828 18.1163C70.2327 18.0971 70.2866 18.0904 70.3398 18.0969C70.3929 18.1033 70.4436 18.1227 70.4876 18.1532C70.5579 18.2054 70.6149 18.2734 70.6538 18.3518C70.7208 18.4823 70.7719 18.6203 70.8062 18.7628C70.8801 19.0353 70.9355 19.3078 70.9863 19.5803C71.3512 21.7554 71.5174 23.8983 71.7068 25.9857C72.0624 30.1698 72.321 34.1461 72.6304 37.8592C72.7182 38.7828 72.8059 39.7065 72.9214 40.5886C72.9705 41.026 73.0492 41.4595 73.1569 41.8863C73.1711 41.935 73.188 41.9828 73.2077 42.0295C73.2151 42.0488 73.2243 42.0674 73.2354 42.0849C73.2354 42.0849 73.2123 42.0849 73.2354 42.1218C73.2585 42.1588 73.2354 42.071 73.2123 42.0849C73.2252 42.0661 73.2361 42.0459 73.2447 42.0248L73.3139 41.8817C73.4017 41.6877 73.4802 41.4845 73.5587 41.2813C74.1498 39.6603 74.6578 38.0762 75.2305 36.5938C75.728 35.1606 76.3914 33.7904 77.2071 32.5113C77.4123 32.2152 77.6597 31.9507 77.9414 31.7262C78.079 31.6169 78.2356 31.534 78.4032 31.4814C78.5707 31.4402 78.7403 31.4078 78.9112 31.3844C79.5712 31.2851 80.2457 31.3764 80.8555 31.6477C81.442 31.9017 81.9454 32.2573 82.495 32.4282C83.0427 32.5347 83.5995 32.5873 84.1575 32.5852C85.2336 32.6129 86.2219 32.5852 87.1086 32.5852L91.1911 32.5298H92.2533C92.5165 32.4697 92.6412 32.4743 92.6412 32.4743Z" fill="#E0E0E0"/>
<path d="M246.313 73.1286L254.005 74.7019L244.174 122.762C244.079 123.227 243.803 123.636 243.406 123.898C243.01 124.16 242.525 124.253 242.06 124.158L237.87 123.301C237.404 123.206 236.996 122.93 236.734 122.533C236.472 122.136 236.378 121.652 236.473 121.186L246.304 73.1267L246.313 73.1286Z" fill="#E0E0E0"/>
<path d="M244.612 81.5358L252.304 83.1077L245.246 117.64C245.151 118.106 244.875 118.515 244.479 118.777C244.082 119.039 243.598 119.132 243.132 119.037L238.942 118.181C238.477 118.086 238.068 117.81 237.806 117.413C237.544 117.016 237.45 116.532 237.545 116.067L244.603 81.5339L244.612 81.5358Z" fill="#F5F5F5"/>
<path d="M253.035 79.5562L247.904 78.5076L243.237 101.344L248.368 102.392L253.035 79.5562Z" fill="white"/>
<path d="M242.083 124.137C242.423 124.186 242.769 124.148 243.09 124.026C243.475 123.87 243.794 123.584 243.991 123.218C244.104 122.98 244.18 122.726 244.217 122.465C244.272 122.183 244.328 121.883 244.392 121.569C244.905 119.029 245.639 115.358 246.558 110.795C248.406 101.655 251.001 88.9507 253.906 74.6573L253.998 74.7959L248.059 73.5859L246.304 73.2257L246.447 73.1333C243.307 88.4058 240.485 102.15 238.444 112.088C237.931 114.568 237.465 116.808 237.059 118.78C236.957 119.269 236.855 119.745 236.763 120.202C236.717 120.429 236.666 120.664 236.624 120.877C236.569 121.085 236.535 121.299 236.523 121.514C236.521 121.916 236.656 122.307 236.906 122.622C237.136 122.907 237.449 123.112 237.802 123.209L240.979 123.888L241.806 124.068C241.991 124.109 242.083 124.137 242.083 124.137L241.802 124.091L240.97 123.934L237.779 123.296C237.383 123.194 237.033 122.964 236.782 122.641C236.532 122.319 236.395 121.922 236.394 121.514C236.403 121.289 236.435 121.067 236.491 120.849C236.532 120.632 236.578 120.387 236.624 120.179C236.717 119.717 236.809 119.256 236.911 118.752C237.308 116.78 237.761 114.536 238.264 112.051C240.287 102.113 243.081 88.3642 246.193 73.0825V72.967L246.309 72.9901L248.068 73.3504L254.007 74.565L254.123 74.588V74.7035C251.186 88.9969 248.581 101.692 246.697 110.827L244.462 121.583C244.392 121.902 244.332 122.197 244.272 122.479C244.233 122.748 244.15 123.008 244.027 123.25C243.825 123.623 243.498 123.912 243.104 124.068C242.861 124.16 242.601 124.198 242.342 124.179C242.254 124.173 242.168 124.159 242.083 124.137Z" fill="#E0E0E0"/>
<path d="M248.523 63.0804L256.097 64.6283C256.337 64.6773 256.548 64.8197 256.683 65.0241C256.818 65.2285 256.866 65.4782 256.817 65.7182L254.493 77.0933L245.099 75.1737L247.422 63.8076C247.446 63.687 247.493 63.5723 247.561 63.4701C247.629 63.368 247.717 63.2805 247.82 63.2128C247.922 63.145 248.037 63.0985 248.158 63.0757C248.279 63.053 248.403 63.0546 248.523 63.0804Z" fill="#EBEBEB"/>
<path d="M254.654 75.9088C254.654 75.9735 252.52 75.5948 249.916 75.0637C247.311 74.5326 245.214 74.0477 245.228 73.983C245.242 73.9184 247.362 74.2971 249.966 74.8281C252.571 75.3592 254.663 75.8442 254.654 75.9088Z" fill="#E0E0E0"/>
<path d="M246.133 74.0707C246.063 74.0707 246.507 71.6323 247.116 68.6582C247.726 65.684 248.271 63.278 248.336 63.2918C248.4 63.3057 247.957 65.7302 247.352 68.7044C246.747 71.6785 246.197 74.0846 246.133 74.0707Z" fill="#E0E0E0"/>
<path d="M247.394 74.3294C247.329 74.3294 247.768 71.891 248.378 68.9169C248.987 65.9427 249.532 63.5366 249.597 63.5505C249.662 63.5643 249.223 65.9889 248.613 68.963C248.004 71.9372 247.445 74.3433 247.394 74.3294Z" fill="#E0E0E0"/>
<path d="M248.696 74.5925C248.631 74.5925 249.07 72.1587 249.679 69.1799C250.289 66.2012 250.834 63.8043 250.899 63.8182C250.963 63.832 250.525 66.252 249.915 69.2307C249.305 72.2095 248.76 74.6064 248.696 74.5925Z" fill="#E0E0E0"/>
<path d="M249.957 74.851C249.893 74.851 250.336 72.4172 250.941 69.4385C251.546 66.4597 252.096 64.0629 252.165 64.0767C252.234 64.0906 251.786 66.5105 251.181 69.4893C250.576 72.468 250.027 74.8649 249.957 74.851Z" fill="#E0E0E0"/>
<path d="M251.259 75.119C251.194 75.119 251.637 72.6805 252.242 69.7064C252.847 66.7323 253.397 64.3262 253.462 64.34C253.526 64.3539 253.088 66.7784 252.478 69.7526C251.868 72.7267 251.323 75.1559 251.259 75.119Z" fill="#E0E0E0"/>
<path d="M252.524 75.3779C252.46 75.3779 252.898 72.9395 253.508 69.9653C254.118 66.9912 254.663 64.5851 254.727 64.5989C254.792 64.6128 254.353 67.0374 253.744 70.0115C253.134 72.9856 252.589 75.3917 252.524 75.3779Z" fill="#E0E0E0"/>
<path d="M253.827 75.6456C253.762 75.6456 254.201 73.2072 254.811 70.233C255.42 67.2589 255.965 64.8528 256.03 64.8666C256.095 64.8805 255.656 67.3004 255.046 70.2792C254.437 73.258 253.91 75.6548 253.827 75.6456Z" fill="#E0E0E0"/>
<path d="M263.082 95.7966L269.24 95.2297L272.746 133.317C272.79 133.79 272.644 134.261 272.34 134.627C272.036 134.992 271.6 135.222 271.126 135.265L268.533 135.504C268.059 135.548 267.588 135.401 267.223 135.098C266.857 134.794 266.628 134.357 266.584 133.884L263.078 95.797L263.082 95.7966Z" fill="#E0E0E0"/>
<path d="M263.704 102.564L269.862 101.997L272.371 129.254C272.415 129.727 272.268 130.198 271.964 130.564C271.661 130.929 271.224 131.159 270.751 131.203L268.157 131.441C267.684 131.485 267.213 131.339 266.847 131.035C266.482 130.731 266.252 130.295 266.209 129.821L263.699 102.564L263.704 102.564Z" fill="#F5F5F5"/>
<path d="M269.597 99.1511L265.49 99.5292L267.173 117.805L271.279 117.427L269.597 99.1511Z" fill="white"/>
<path d="M271.127 135.271C271.394 135.227 271.651 135.133 271.884 134.994C272.16 134.82 272.382 134.572 272.526 134.278C272.62 134.092 272.679 133.89 272.701 133.683C272.714 133.445 272.701 133.207 272.664 132.972C272.471 130.921 272.203 127.97 271.833 124.303C271.145 116.946 270.189 106.731 269.118 95.2499L269.247 95.3561L264.874 95.7579L263.091 95.9241L263.197 95.7948C264.296 107.89 265.285 118.757 265.996 126.612C266.171 128.57 266.328 130.344 266.458 131.9C266.531 132.676 266.582 133.41 266.656 134.061C266.714 134.353 266.844 134.625 267.036 134.852C267.227 135.079 267.473 135.253 267.751 135.359C268.214 135.487 268.701 135.506 269.173 135.415L270.235 135.327L270.891 135.281H271.117L270.896 135.313L270.24 135.382L269.178 135.493L268.499 135.558C268.234 135.582 267.968 135.547 267.718 135.456C267.423 135.348 267.16 135.166 266.955 134.927C266.75 134.689 266.609 134.402 266.545 134.094C266.462 133.419 266.407 132.708 266.328 131.923C266.181 130.367 266.01 128.593 265.82 126.635C265.091 118.784 264.079 107.918 262.948 95.8225V95.7024H263.068L264.85 95.5362L269.224 95.1344H269.344V95.2545C270.383 106.74 271.311 116.96 271.981 124.317C272.3 127.984 272.558 130.94 272.738 132.99C272.77 133.232 272.78 133.476 272.766 133.72C272.73 133.994 272.633 134.257 272.482 134.489C272.331 134.72 272.13 134.915 271.893 135.059C271.717 135.165 271.523 135.239 271.321 135.276C271.256 135.279 271.191 135.277 271.127 135.271Z" fill="#E0E0E0"/>
<path d="M262.641 87.7488L268.311 87.2267C268.555 87.2043 268.798 87.2797 268.987 87.4363C269.175 87.5929 269.293 87.8179 269.316 88.0618L270.135 96.9559L262.62 97.6477L261.802 88.7582C261.79 88.6367 261.803 88.5141 261.838 88.3974C261.874 88.2807 261.933 88.1723 262.011 88.0784C262.089 87.9846 262.185 87.9071 262.293 87.8505C262.401 87.7939 262.52 87.7594 262.641 87.7488Z" fill="#EBEBEB"/>
<path d="M269.991 96.0211C267.494 96.412 264.975 96.6434 262.449 96.7139C263.691 96.4804 264.947 96.3261 266.208 96.2521C267.463 96.0917 268.726 96.0145 269.991 96.0211Z" fill="#E0E0E0"/>
<path d="M263.147 96.5755C262.892 95.1519 262.719 93.7147 262.63 92.2713C262.454 90.8369 262.362 89.3936 262.353 87.9486C262.602 89.373 262.775 90.8098 262.87 92.2528C263.04 93.6876 263.132 95.1306 263.147 96.5755Z" fill="#E0E0E0"/>
<path d="M264.163 96.4829C263.908 95.0593 263.735 93.6222 263.646 92.1787C263.47 90.7444 263.378 89.3011 263.369 87.8561C263.618 89.2789 263.789 90.7142 263.881 92.1556C264.054 93.5918 264.148 95.0364 264.163 96.4829Z" fill="#E0E0E0"/>
<path d="M265.201 96.3999C264.952 94.9755 264.779 93.5387 264.684 92.0957C264.514 90.6609 264.421 89.2179 264.407 87.7731C264.662 89.1967 264.834 90.6338 264.924 92.0773C265.097 93.5119 265.189 94.955 265.201 96.3999Z" fill="#E0E0E0"/>
<path d="M266.214 96.2937C265.964 94.8693 265.792 93.4325 265.697 91.9895C265.527 90.5547 265.434 89.1117 265.419 87.6669C265.665 89.0897 265.832 90.5251 265.918 91.9664C266.095 93.4025 266.193 94.847 266.214 96.2937Z" fill="#E0E0E0"/>
<path d="M267.257 96.1967C267.002 94.7731 266.829 93.336 266.74 91.8925C266.564 90.4581 266.471 89.0148 266.462 87.5698C266.712 88.9942 266.885 90.431 266.98 91.874C267.15 93.3089 267.242 94.7518 267.257 96.1967Z" fill="#E0E0E0"/>
<path d="M268.268 96.1042C268.017 94.6742 267.849 93.2309 267.765 91.7815C267.589 90.3472 267.497 88.9039 267.488 87.4589C267.737 88.8833 267.91 90.3201 268.005 91.7631C268.171 93.2043 268.259 94.6534 268.268 96.1042Z" fill="#E0E0E0"/>
<path d="M269.308 96.0072C269.058 94.5843 268.886 93.1491 268.79 91.7076C268.62 90.2713 268.528 88.8267 268.513 87.3804C268.768 88.804 268.941 90.2411 269.03 91.6846C269.206 93.1189 269.298 94.5622 269.308 96.0072Z" fill="#E0E0E0"/>
<path d="M84.5324 62.0541C83.7196 58.4426 80.2882 55.3438 76.6075 55.704C74.4323 55.9165 72.4511 57.2604 71.1441 58.9922C70.6743 59.5767 70.2468 60.1941 69.8649 60.8395C69.483 60.1941 69.0555 59.5767 68.5857 58.9922C67.2556 57.2558 65.3021 55.9119 63.1269 55.6948C59.4323 55.33 56.0148 58.4288 55.1928 62.0356C54.3708 65.6425 55.7331 69.4756 57.9637 72.4313C60.1943 75.3869 63.8889 79.1739 70.1605 80.6147C74.2938 79.6634 79.5355 75.3962 81.7615 72.4451C83.9874 69.4941 85.3452 65.6609 84.5324 62.0541Z" fill="#E0E0E0"/>
<path d="M83.8529 68.7507H83.7328H83.3726H81.9871L76.9302 68.7876L77.0179 68.7229C76.5561 70.3578 76.0435 72.2697 75.4662 74.3664L75.3738 74.7082L75.2584 74.3756L72.3119 65.9197C71.984 64.996 71.6654 64.0493 71.3513 63.1487L71.5684 63.1718L68.2571 68.7968L68.2294 68.8476H68.1648L59.2747 68.8015L56.7578 68.7691H56.0881C56.0131 68.7799 55.9369 68.7799 55.8618 68.7691H56.0881H56.7578L59.2747 68.7414L68.1648 68.6999L68.0724 68.7553L71.356 63.1118L71.4853 62.8855L71.573 63.1303C71.8871 64.0539 72.2057 64.9776 72.5336 65.9012L75.4754 74.4126H75.263C75.8587 72.3159 76.3944 70.4086 76.8563 68.7784V68.7137H76.9209L81.9779 68.7553H83.3634H83.7236L83.8529 68.7507Z" fill="#FAFAFA"/>
<path opacity="0.16" d="M261.022 56.4754C249.292 41.6463 228.621 34.1001 210.365 39.0324C202.537 41.1475 195.416 45.2947 187.777 48.0333C180.139 50.7719 171.336 51.9726 164.141 48.2273C155.463 43.7106 151.672 33.5967 146.061 25.598C134.381 8.92617 111.997 0.581031 92.2722 5.52715C76.0761 9.58195 62.5355 22.3744 56.8458 37.9933V37.9563C49.4243 54.2125 50.9437 84.0878 60.2633 99.3372C69.5829 114.587 81.8073 131.762 98.0912 139.128C114.375 146.494 130.95 150.978 148.43 154.654C174.167 160.062 205.46 158.215 230.052 148.909C247.74 142.217 262.703 127.998 269.1 110.199C275.496 92.4006 272.757 71.3092 261.022 56.4754Z" fill="#301549"/>
<path d="M143.327 46.468L141.747 87.2515L121.325 86.5911C121.085 84.222 120.817 75.0456 120.817 75.0456C120.817 75.0456 112.292 74.1219 111.789 65.6706C111.544 61.565 111.729 53.0397 111.983 45.3504C112.121 41.253 113.857 37.3723 116.818 34.5374C119.78 31.7026 123.733 30.1386 127.832 30.1795C129.927 30.2058 131.996 30.6509 133.916 31.4888C135.836 32.3266 137.569 33.5403 139.013 35.0581C140.456 36.576 141.582 38.3675 142.323 40.327C143.064 42.2865 143.405 44.3745 143.327 46.468Z" fill="#FFBE9D"/>
<path d="M120.808 75.0455C124.719 74.9331 128.508 73.6599 131.693 71.3878C131.693 71.3878 129.384 77.5993 120.895 77.2391L120.808 75.0455Z" fill="#EB996E"/>
<path d="M114.758 51.4001C114.77 51.7154 114.904 52.0135 115.133 52.2309C115.362 52.4483 115.666 52.5678 115.982 52.5639C116.136 52.5689 116.289 52.543 116.433 52.4878C116.577 52.4326 116.709 52.3493 116.82 52.2426C116.932 52.1359 117.021 52.0081 117.082 51.8666C117.143 51.7251 117.176 51.5728 117.178 51.4186C117.166 51.103 117.031 50.8044 116.803 50.5863C116.574 50.3681 116.27 50.2476 115.954 50.2502C115.8 50.2459 115.646 50.2724 115.502 50.3281C115.358 50.3838 115.226 50.4676 115.115 50.5746C115.004 50.6816 114.915 50.8097 114.853 50.9515C114.792 51.0932 114.76 51.2457 114.758 51.4001Z" fill="#263238"/>
<path d="M114.006 49.659C114.163 49.8114 115.045 49.0909 116.348 49.0309C117.65 48.9708 118.634 49.5804 118.768 49.4142C118.832 49.3403 118.666 49.0632 118.237 48.7769C117.654 48.4137 116.973 48.2395 116.288 48.2781C115.614 48.3091 114.967 48.5533 114.44 48.9755C114.052 49.2941 113.928 49.5943 114.006 49.659Z" fill="#263238"/>
<path d="M127.084 51.3586C127.095 51.6722 127.227 51.9694 127.453 52.1874C127.679 52.4054 127.98 52.5272 128.294 52.527C128.448 52.5319 128.602 52.5059 128.747 52.4504C128.891 52.395 129.023 52.3112 129.134 52.204C129.246 52.0969 129.335 51.9685 129.396 51.8265C129.457 51.6845 129.489 51.5317 129.49 51.3771C129.478 51.067 129.347 50.7735 129.124 50.5576C128.902 50.3417 128.604 50.22 128.294 50.2179C128.139 50.2104 127.984 50.2343 127.838 50.2881C127.693 50.3419 127.559 50.4245 127.446 50.531C127.334 50.6375 127.243 50.7657 127.181 50.9079C127.119 51.0501 127.086 51.2034 127.084 51.3586Z" fill="#263238"/>
<path d="M126.803 49.2942C126.96 49.442 127.842 48.7216 129.145 48.6661C130.447 48.6107 131.454 49.2111 131.564 49.0448C131.629 48.971 131.463 48.6939 131.033 48.4121C130.452 48.0499 129.773 47.8757 129.089 47.9134C128.415 47.9421 127.767 48.1866 127.242 48.6107C126.849 48.9386 126.725 49.2296 126.803 49.2942Z" fill="#263238"/>
<path d="M122.536 59.1681C122.536 59.0942 121.727 58.9926 120.407 58.8864C120.074 58.8864 119.755 58.8171 119.691 58.5908C119.645 58.2497 119.706 57.9028 119.866 57.5979C120.139 56.7759 120.425 55.9215 120.725 55.021C121.921 51.3541 122.766 48.3476 122.619 48.3014C122.471 48.2553 121.367 51.1878 120.19 54.8362C119.903 55.7383 119.631 56.6004 119.372 57.4224C119.18 57.8325 119.141 58.2976 119.261 58.734C119.315 58.8488 119.394 58.95 119.492 59.03C119.591 59.11 119.706 59.1667 119.829 59.1958C120.016 59.2358 120.207 59.2528 120.397 59.2466C121.718 59.2743 122.536 59.242 122.536 59.1681Z" fill="#263238"/>
<path d="M126.405 59.8837C126.197 59.8837 126.257 61.2692 125.098 62.3545C123.939 63.4397 122.429 63.3289 122.424 63.5275C122.424 63.6152 122.775 63.7861 123.408 63.7723C124.236 63.7445 125.027 63.4256 125.643 62.8717C126.236 62.3421 126.598 61.6008 126.65 60.8073C126.678 60.2162 126.502 59.8698 126.405 59.8837Z" fill="#263238"/>
<path d="M126.226 44.214C126.369 44.565 127.662 44.3341 129.195 44.445C130.729 44.5558 131.966 44.9068 132.169 44.5881C132.253 44.4311 132.026 44.1263 131.509 43.7938C130.825 43.4057 130.062 43.1782 129.277 43.1286C128.492 43.079 127.706 43.2086 126.979 43.5075C126.447 43.7522 126.161 44.0524 126.226 44.214Z" fill="#263238"/>
<path d="M114.306 45.8723C114.55 46.1586 115.428 45.8076 116.508 45.743C117.589 45.6783 118.504 45.8492 118.702 45.5306C118.785 45.3735 118.628 45.0687 118.217 44.824C117.665 44.5156 117.034 44.3775 116.404 44.4268C115.774 44.4761 115.172 44.7107 114.675 45.1011C114.31 45.4243 114.199 45.7338 114.306 45.8723Z" fill="#263238"/>
<path d="M133.707 37.7486L133.757 37.7809C135.155 38.7813 136.114 40.2812 136.436 41.9696C136.436 42.0297 136.436 42.0851 136.468 42.1405C136.93 44.5374 136.967 46.9989 137.438 49.3911C137.909 51.7834 138.856 54.1987 140.717 55.7735C141.484 56.4247 142.8 56.8311 143.368 56.0044C143.553 55.6605 143.639 55.2721 143.617 54.8822C143.793 49.0309 145.137 43.7985 144.841 37.6932C144.804 36.8764 144.574 36.0801 144.168 35.3702C143.763 34.6603 143.194 34.0571 142.509 33.6106C141.188 32.7563 139.586 31.8834 138.2 32.6177C136.815 33.352 135.101 36.0999 134.044 37.2775" fill="#263238"/>
<path d="M140.667 50.5734C140.806 50.5041 146.398 48.5783 146.486 54.3742C146.574 60.17 140.741 59.0616 140.727 58.8954C140.713 58.7291 140.667 50.5734 140.667 50.5734Z" fill="#FFBE9D"/>
<path d="M142.463 56.6835C142.49 56.6835 142.564 56.7528 142.735 56.8266C142.978 56.9233 143.249 56.9233 143.492 56.8266C144.102 56.5911 144.601 55.6121 144.615 54.5683C144.622 54.0713 144.518 53.579 144.31 53.1274C144.253 52.9467 144.153 52.7825 144.019 52.6489C143.884 52.5154 143.72 52.4165 143.539 52.3608C143.422 52.3318 143.299 52.3445 143.191 52.3969C143.083 52.4492 142.997 52.5378 142.947 52.6471C142.869 52.8134 142.911 52.9289 142.878 52.9381C142.846 52.9473 142.754 52.8411 142.795 52.601C142.825 52.4575 142.903 52.3286 143.017 52.2361C143.176 52.1135 143.376 52.0572 143.576 52.0791C143.814 52.1223 144.038 52.2261 144.224 52.3806C144.411 52.5351 144.555 52.735 144.642 52.9612C144.897 53.4599 145.025 54.0132 145.016 54.5729C145.016 55.7414 144.416 56.8405 143.585 57.0945C143.43 57.142 143.267 57.1541 143.107 57.1302C142.947 57.1062 142.795 57.0467 142.661 56.956C142.476 56.8128 142.444 56.6835 142.463 56.6835Z" fill="#EB996E"/>
<path d="M139.073 34.4098C140.745 32.2624 137.226 28.5308 134.455 27.3209C131.684 26.1109 127.819 27.0946 124.886 27.7227C123.039 28.1198 121.168 28.7525 119.298 28.4708C118.056 28.2061 116.861 27.7578 115.751 27.1408C114.637 26.5247 113.411 26.1399 112.144 26.0093C110.879 25.9585 109.512 26.4711 108.912 27.6026C108.311 28.734 108.815 30.3735 110.043 30.7014C108.547 29.6485 106.118 30.549 105.66 32.3224C105.203 34.0958 106.898 36.0539 108.718 35.86C107.97 35.1488 106.598 36.0355 106.589 37.0699C106.579 38.1044 107.425 38.9496 108.321 39.4668C110.63 40.783 113.442 40.7507 116.019 40.1872C118.596 39.6238 121.044 38.5662 123.607 37.9382C126.17 37.3101 130.474 36.1463 132.843 37.2916C134.598 38.1321 135.614 40.4643 136.704 40.0903C137.218 39.8852 137.676 39.5622 138.042 39.1475C138.408 38.7327 138.671 38.2378 138.81 37.7026C139.07 36.6255 139.152 35.5135 139.055 34.4098" fill="#263238"/>
<path d="M110.367 31.1217C110.367 31.1217 110.256 31.1725 110.076 31.3018C109.811 31.4918 109.607 31.7528 109.485 32.0546C109.285 32.5275 109.242 33.0515 109.36 33.5509C109.436 33.8788 109.578 34.1879 109.778 34.4594C109.977 34.7309 110.229 34.9591 110.519 35.1303C111.234 35.5445 112.044 35.7658 112.87 35.7722C113.821 35.7778 114.768 35.6392 115.678 35.3612C117.622 34.7978 119.548 33.6478 121.58 32.4794C123.612 31.311 125.685 30.3366 127.745 30.0872C128.714 29.9606 129.699 30.0218 130.645 30.2673C131.475 30.483 132.257 30.8493 132.954 31.348C133.966 32.0558 134.781 33.0093 135.324 34.1189C135.533 34.5167 135.688 34.9407 135.785 35.3797C135.758 35.3797 135.647 34.9179 135.254 34.1605C134.688 33.0932 133.87 32.1802 132.871 31.5004C132.193 31.0261 131.434 30.6787 130.631 30.4751C129.708 30.2436 128.748 30.1918 127.805 30.3227C125.801 30.5767 123.755 31.5466 121.737 32.7057C119.719 33.8649 117.76 35.0148 115.779 35.5875C114.845 35.8687 113.873 36.0027 112.897 35.9847C112.038 35.9718 111.198 35.7294 110.464 35.2827C110.147 35.0786 109.871 34.817 109.651 34.5115C109.406 34.1501 109.258 33.7321 109.22 33.2973C109.182 32.8625 109.255 32.4252 109.434 32.0268C109.572 31.7173 109.799 31.4555 110.085 31.2741C110.171 31.2104 110.266 31.1591 110.367 31.1217Z" fill="#455A64"/>
<path d="M130.839 28.1937C130.964 28.1721 131.092 28.1721 131.218 28.1937C131.559 28.217 131.896 28.2774 132.224 28.3738C133.324 28.6839 134.305 29.3197 135.037 30.1976C135.769 31.0754 136.218 32.1543 136.325 33.2922C136.359 33.6332 136.359 33.9766 136.325 34.3175C136.321 34.4428 136.294 34.5663 136.247 34.6823C136.201 34.6823 136.279 34.1512 136.159 33.2969C136.014 32.2047 135.562 31.1759 134.857 30.3293C134.152 29.4828 133.221 28.8529 132.174 28.5124C131.37 28.2584 130.834 28.2399 130.839 28.1937Z" fill="#455A64"/>
<path d="M144.721 43.0411C144.58 43.121 144.422 43.1653 144.26 43.1704C143.806 43.2094 143.35 43.1113 142.953 42.8887C142.358 42.5673 141.875 42.0729 141.567 41.4709C141.209 40.7463 140.942 39.98 140.773 39.1895C140.608 38.4172 140.349 37.6681 140.002 36.9589C139.714 36.3898 139.262 35.9201 138.704 35.6104C138.33 35.3982 137.905 35.2927 137.475 35.3056C137.175 35.3056 137.014 35.3841 137.014 35.361C137.154 35.2757 137.312 35.225 137.475 35.2132C137.927 35.1617 138.384 35.247 138.787 35.458C139.389 35.7642 139.882 36.2478 140.2 36.8435C140.565 37.5686 140.832 38.3388 140.995 39.1341C141.16 39.9059 141.414 40.656 141.752 41.3693C142.032 41.9443 142.474 42.4255 143.022 42.7548C143.391 42.9741 143.812 43.0905 144.241 43.0919C144.546 43.0735 144.712 43.018 144.721 43.0411Z" fill="#455A64"/>
<path d="M144.417 46.8697C144.417 46.8697 144.37 46.8697 144.273 46.9067C144.136 46.9356 143.997 46.9541 143.858 46.9621C143.34 47.0003 142.82 46.9598 142.315 46.842C140.621 46.4477 139.137 45.4305 138.159 43.9926C137.202 42.5691 136.616 40.9293 136.455 39.2219C136.438 38.935 136.393 38.6504 136.321 38.3722C136.264 38.1695 136.146 37.989 135.984 37.8549C135.84 37.7441 135.666 37.6783 135.485 37.6656C135.58 37.6346 135.681 37.6285 135.779 37.648C135.877 37.6674 135.968 37.7116 136.044 37.7764C136.231 37.9138 136.371 38.1058 136.445 38.326C136.535 38.61 136.593 38.9025 136.621 39.1989C136.829 40.8647 137.424 42.4589 138.357 43.854C139.305 45.2398 140.717 46.2407 142.338 46.6758C143.02 46.83 143.718 46.8952 144.417 46.8697Z" fill="#455A64"/>
<path d="M103.901 193.157L169.48 192.732L162.862 153.098L161.712 84.9563L148.615 80.9569L142.149 77.3085L120.873 80.0009L118.134 83.4692C118.134 83.4692 108.824 86.6096 104.797 88.4522L104.52 88.5769C101.664 89.8797 99.244 91.9787 97.551 94.6222L79.8031 122.235L53.8487 107.101L44.7046 120.415C44.7046 120.415 76.5704 146.942 82.3478 146.402C88.1252 145.861 90.1295 145.857 92.1245 143.141C93.6532 141.054 99.6615 133.983 102.525 129.259L105.448 161.905L103.901 193.157Z" fill="#EBEBEB"/>
<path d="M124.678 193.198C124.609 193.198 124.083 178.679 123.505 160.764C122.928 142.85 122.503 128.321 122.582 128.321C122.66 128.321 123.173 142.836 123.755 160.76C124.337 178.683 124.743 193.198 124.678 193.198Z" fill="#263238"/>
<path d="M120.957 79.733L122.605 129.305L142.131 77.3085L120.957 79.733Z" fill="#FFBE9D"/>
<path d="M122.753 132.099C122.725 132.051 122.704 132 122.688 131.947C122.642 131.836 122.586 131.688 122.517 131.485C122.356 131.078 122.134 130.506 121.848 129.771C121.252 128.294 120.379 126.155 119.169 123.574C118.55 122.285 117.857 120.886 117.035 119.417C116.185 117.867 115.159 116.42 113.978 115.104C113.332 114.439 112.56 113.742 112.288 112.721C112.171 112.215 112.183 111.688 112.325 111.188C112.449 110.689 112.625 110.209 112.787 109.724C113.429 107.77 114.098 105.752 114.777 103.688L114.819 103.558L114.943 103.715L107.092 104.427V104.196L111.281 95.8829C112.57 93.3521 113.733 91.1215 114.735 89.2835C115.738 87.4454 116.583 85.9953 117.169 85.0209C117.469 84.5313 117.71 84.1572 117.876 83.9079L118.065 83.6308C118.111 83.5661 118.134 83.5338 118.139 83.5384L118.084 83.64L117.908 83.9309C117.751 84.2034 117.525 84.5775 117.239 85.0624C116.661 86.0507 115.853 87.5055 114.865 89.3527C113.876 91.2 112.731 93.4353 111.457 95.9753L109.452 99.9931L108.376 102.145L107.817 103.254L107.526 103.812L107.374 104.09L107.295 104.233L107.249 104.302C107.217 104.353 107.168 104.392 107.111 104.413V104.182L114.962 103.461H115.142L115.086 103.637L115.045 103.762C114.361 105.826 113.692 107.844 113.05 109.798C112.745 110.763 112.302 111.733 112.551 112.666C112.8 113.598 113.53 114.282 114.177 114.947C115.372 116.288 116.406 117.766 117.257 119.348C118.079 120.817 118.763 122.225 119.372 123.505C120.564 126.1 121.418 128.252 121.986 129.744C122.263 130.492 122.476 131.074 122.61 131.471C122.68 131.668 122.731 131.822 122.762 131.933C122.762 131.988 122.759 132.044 122.753 132.099Z" fill="#263238"/>
<path d="M122.687 132.566C122.68 132.512 122.68 132.458 122.687 132.404L122.761 131.942C122.87 131.338 123.033 130.744 123.246 130.169C124.084 128.059 125.148 126.046 126.419 124.165C127.209 122.964 128.109 121.671 129.13 120.313C130.207 118.865 131.363 117.477 132.594 116.157C133.962 114.675 135.459 113.318 137.069 112.102C137.928 111.466 138.821 110.876 139.743 110.333C140.666 109.779 141.636 109.253 142.56 108.639L142.527 108.805C141.269 106.925 139.563 105.387 137.563 104.33L137.397 104.242L137.549 104.131C140.404 102.002 143.731 100.594 147.247 100.026L147.159 100.123L148.162 86.3417C148.291 84.6792 148.393 83.3583 148.466 82.4439C148.503 81.9821 148.531 81.6588 148.554 81.4141L148.582 81.1508C148.576 81.1203 148.576 81.089 148.582 81.0585C148.585 81.0892 148.585 81.1201 148.582 81.1508V81.4141C148.582 81.6635 148.55 82.0098 148.526 82.4486C148.471 83.3722 148.388 84.6838 148.286 86.351C148.06 89.7176 147.746 94.479 147.363 100.141V100.224H147.28C143.798 100.795 140.505 102.195 137.678 104.307V104.108C139.713 105.182 141.45 106.745 142.731 108.657L142.8 108.754L142.698 108.823C141.775 109.442 140.796 109.973 139.867 110.527C138.952 111.062 138.065 111.645 137.212 112.273C135.617 113.479 134.131 114.822 132.769 116.286C131.537 117.606 130.381 118.993 129.305 120.443C128.28 121.787 127.37 123.07 126.576 124.267C125.294 126.126 124.21 128.115 123.343 130.201C123.12 130.769 122.944 131.354 122.817 131.951C122.775 132.145 122.743 132.302 122.72 132.413C122.715 132.465 122.704 132.516 122.687 132.566Z" fill="#263238"/>
<path d="M147.524 117.45H133.734V120.133H147.524V117.45Z" fill="#263238"/>
<path d="M144.413 141.617C144.338 141.651 144.258 141.675 144.177 141.686L143.493 141.834C142.651 142.009 141.798 142.131 140.94 142.199C139.656 142.315 138.362 142.158 137.143 141.737C135.627 141.209 134.371 140.12 133.634 138.694C132.979 137.255 132.653 135.688 132.678 134.108C132.678 132.662 132.724 131.383 132.728 130.293C132.733 129.203 132.765 128.331 132.798 127.721C132.798 127.416 132.83 127.181 132.844 127.024C132.843 126.941 132.856 126.858 132.881 126.779C132.887 126.86 132.887 126.942 132.881 127.024C132.881 127.213 132.881 127.444 132.881 127.726C132.881 128.367 132.881 129.236 132.881 130.293V134.103C132.868 135.65 133.192 137.18 133.832 138.588C134.539 139.961 135.743 141.013 137.199 141.529C138.383 141.946 139.641 142.115 140.893 142.024C141.746 141.972 142.595 141.876 143.438 141.737L144.131 141.636C144.224 141.618 144.318 141.612 144.413 141.617Z" fill="#263238"/>
<path d="M146.906 126.46C146.906 126.525 143.766 126.654 139.896 126.742C136.026 126.83 132.881 126.853 132.881 126.784C132.881 126.714 136.017 126.594 139.891 126.502C143.766 126.409 146.906 126.419 146.906 126.46Z" fill="#263238"/>
<path d="M140.076 126.557V121.981C140.076 121.624 140.217 121.282 140.469 121.03C140.721 120.778 141.063 120.637 141.42 120.637C141.776 120.637 142.118 120.778 142.37 121.03C142.622 121.282 142.763 121.624 142.763 121.981V129.522C142.768 129.583 142.76 129.644 142.741 129.701C142.721 129.759 142.691 129.812 142.651 129.858C142.571 129.951 142.456 130.008 142.334 130.016C142.212 130.025 142.091 129.984 141.998 129.904C141.905 129.823 141.848 129.709 141.84 129.587C141.84 129.531 141.84 129.467 141.84 129.407C141.84 128.257 141.711 126.502 141.711 126.502L140.076 126.557Z" fill="#BA68C8"/>
<path d="M139.839 134.464C139.72 133.39 139.68 132.31 139.719 131.231C139.68 130.152 139.72 129.071 139.839 127.998C139.959 129.071 139.999 130.152 139.959 131.231C139.999 132.31 139.959 133.39 139.839 134.464Z" fill="#263238"/>
<path d="M142.439 140.453C142.375 140.453 142.319 138.144 142.319 135.309C142.319 132.473 142.375 130.164 142.439 130.164C142.504 130.164 142.559 132.473 142.559 135.309C142.559 138.144 142.509 140.453 142.439 140.453Z" fill="#263238"/>
<path d="M121.303 90.161L127.717 97.9889C132.248 93.4169 135.504 88.9002 138.339 86.9052C138.339 86.9052 122.61 130.002 122.587 129.287C122.564 128.571 121.303 90.161 121.303 90.161Z" fill="#BA68C8"/>
<path d="M138.358 86.9234C138.31 86.9886 138.256 87.0489 138.196 87.1035L137.697 87.5654C137.263 87.9764 136.645 88.586 135.887 89.3434C134.368 90.8535 132.35 93.038 130.147 95.4394C127.944 97.8409 125.898 100.011 124.346 101.499C123.57 102.242 122.933 102.829 122.476 103.221L121.949 103.683C121.891 103.74 121.826 103.789 121.755 103.831C121.755 103.831 121.806 103.761 121.917 103.651L122.411 103.189C122.85 102.778 123.469 102.168 124.226 101.411C125.741 99.9007 127.759 97.7162 129.967 95.3147C132.174 92.9133 134.215 90.7427 135.767 89.2556C136.543 88.5121 137.18 87.9256 137.637 87.533L138.159 87.0712C138.284 86.965 138.349 86.9142 138.358 86.9234Z" fill="#263238"/>
<path d="M127.676 97.9563C127.625 97.9979 126.156 96.2892 124.397 94.1371C122.637 91.985 121.252 90.2023 121.303 90.1608C121.353 90.1192 122.822 91.828 124.582 93.9847C126.341 96.1414 127.727 97.9148 127.676 97.9563Z" fill="#263238"/>
<path d="M100.41 105.133C100.44 105.239 100.458 105.347 100.465 105.457C100.498 105.692 100.535 106.002 100.581 106.38C100.678 107.188 100.802 108.357 100.95 109.807C101.241 112.703 101.588 116.707 101.948 121.131C102.308 125.555 102.64 129.536 102.871 132.459C102.991 133.886 103.088 135.055 103.158 135.891C103.19 136.279 103.213 136.588 103.232 136.814C103.24 136.923 103.24 137.033 103.232 137.142C103.201 137.037 103.181 136.928 103.172 136.819C103.144 136.583 103.107 136.274 103.056 135.895C102.959 135.087 102.834 133.919 102.691 132.469C102.4 129.573 102.049 125.569 101.689 121.145C101.329 116.72 101.001 112.74 100.765 109.816C100.645 108.389 100.548 107.221 100.475 106.385C100.447 105.997 100.424 105.687 100.405 105.461C100.395 105.352 100.397 105.242 100.41 105.133Z" fill="#263238"/>
<path d="M160.765 84.8546C160.765 84.8546 171.045 84.8546 173.622 104.63C176.199 124.405 181.866 160.672 171.563 167.549C161.259 174.425 113.516 173.94 113.516 173.94V154.784L152.688 150.461C152.688 150.461 152.54 146.896 154.535 146.924L152.309 101.72C152.309 101.72 151.847 85.7136 160.765 84.8546Z" fill="#EBEBEB"/>
<path d="M152.411 116.743C152.411 116.743 152.411 116.928 152.452 117.288C152.494 117.648 152.503 118.212 152.544 118.895C152.618 120.313 152.729 122.382 152.872 125.033C153.145 130.349 153.537 137.987 154.018 147.293V147.39H153.916C153.585 147.398 153.267 147.52 153.016 147.736C152.761 147.98 152.57 148.283 152.461 148.618C152.229 149.33 152.129 150.078 152.166 150.826V150.923H152.073L113.53 154.89L113.636 154.77V173.94L113.52 173.825C130.197 174.005 144.74 173.363 155.015 172.047C157.588 171.719 159.883 171.345 161.883 170.952C163.583 170.617 165.265 170.193 166.921 169.682C167.591 169.456 168.182 169.22 168.69 169.04C169.198 168.86 169.613 168.643 169.941 168.472L170.671 168.056L170.925 167.922C170.925 167.922 170.847 167.978 170.685 168.075L169.96 168.509C169.632 168.684 169.207 168.865 168.713 169.1C168.219 169.336 167.618 169.525 166.944 169.756C165.289 170.283 163.607 170.72 161.906 171.067C159.906 171.474 157.606 171.857 155.038 172.194C144.754 173.529 130.202 174.226 113.516 174.042H113.4V173.926C113.4 168.384 113.4 162.538 113.4 156.52V154.673H113.511L152.055 150.747L151.963 150.854C151.921 150.071 152.028 149.288 152.277 148.544C152.396 148.181 152.604 147.852 152.882 147.588C153.17 147.344 153.533 147.204 153.911 147.191L153.819 147.293C153.357 137.987 153.011 130.349 152.762 125.028C152.641 122.378 152.544 120.309 152.48 118.891C152.452 118.189 152.434 117.653 152.415 117.284C152.397 116.914 152.411 116.743 152.411 116.743Z" fill="#263238"/>
<path d="M159.56 151.957C159.518 151.957 159.366 151.56 159.015 150.96C158.552 150.18 157.96 149.485 157.264 148.905C156.565 148.329 155.773 147.874 154.923 147.561C154.272 147.325 153.838 147.251 153.847 147.21C154.232 147.206 154.615 147.27 154.978 147.399C155.871 147.673 156.701 148.121 157.419 148.718C158.137 149.315 158.73 150.049 159.162 150.877C159.358 151.21 159.493 151.576 159.56 151.957Z" fill="#263238"/>
<path d="M154.956 155.514C154.401 153.686 153.379 152.035 151.991 150.724C152.25 150.845 152.483 151.015 152.679 151.223C153.189 151.685 153.631 152.216 153.99 152.803C154.354 153.386 154.634 154.017 154.822 154.678C154.922 154.945 154.967 155.229 154.956 155.514Z" fill="#263238"/>
<path d="M19.6138 99.328L47.6926 173.986L107.254 175.192L82.708 99.8406L19.6138 99.328Z" fill="#BA68C8"/>
<g opacity="0.5">
<path d="M57.1185 174.12C57.1185 174.12 42.8574 146.739 38.4286 128.469C35.9024 118.138 33.6533 99.4205 33.6533 99.4205L70.83 99.7484C70.83 99.7484 83.1607 119.371 90.2589 138.98C94.5099 150.679 97.6276 162.759 99.5693 175.053L80.4914 174.633L74.2152 156.336C74.2152 156.336 72.2571 157.393 69.5647 156.026L76.0302 174.536L57.1185 174.12Z" fill="white"/>
</g>
<path d="M77.4942 144.711C77.1478 143.705 75.6469 140.149 75.8871 138.375C76.1272 136.602 77.8821 134.681 77.9791 132.903C78.0761 131.125 78.1269 127.162 77.6743 125.232C77.1983 123.524 76.6137 121.849 75.924 120.216C75.924 120.216 73.2316 115.954 70.5253 115.857L67.2325 115.737C67.2325 115.737 64.8495 116.309 66.004 119.256C67.1586 122.202 69.8834 127.259 70.2759 128.132C70.6685 129.005 72.5065 132.376 72.0909 134.537C71.6752 136.699 68.5302 142.73 68.9459 144.199L67.2602 144.139C67.2602 144.139 65.7039 141.442 63.5194 140.301C61.335 139.16 56.6475 134.237 55.6685 131.295C54.6894 128.354 53.5903 121.509 52.9298 119.436C52.2694 117.362 51.2488 115.543 49.5355 115.081C47.8221 114.619 45.5268 115.201 45.5268 115.201C45.5268 115.201 42.4557 116.259 43.8273 120.877C45.1989 125.495 45.9702 125.777 47.5958 128.478C49.2214 131.18 49.6324 131.988 50.9209 133.161C52.2094 134.334 55.2574 135.632 56.569 138.454C57.8806 141.275 58.5595 144.55 60.9055 148.586C63.2516 152.622 64.1383 154.128 65.9856 154.128C67.8329 154.128 68.4332 152.036 68.5025 150.78C68.5472 150.12 68.5472 149.458 68.5025 148.799L70.7377 148.882C70.7377 148.882 73.2639 153.601 75.9148 154.488C78.5656 155.375 78.3809 152.992 78.5148 152.068C78.6488 151.145 77.859 145.714 77.4942 144.711ZM64.4015 150.161C63.6996 149.801 62.4757 147.436 61.2611 145.386C60.3375 143.852 60.4345 143.044 60.5315 142.735C60.547 142.681 60.5704 142.63 60.6007 142.582L60.5638 142.633C60.6561 142.097 61.5567 142.333 62.2171 142.596C62.702 142.79 65.0111 143.691 65.7639 147.034C66.5167 150.378 65.122 150.517 64.4154 150.161H64.4015ZM75.984 150.581C75.5222 150.895 73.9659 150.65 72.4188 147.279C70.8717 143.908 72.6127 143.15 72.9776 142.989C73.4717 142.767 74.2337 142.592 74.6956 143.146L74.6263 143.095C74.6883 143.143 74.7469 143.196 74.8018 143.252C75.4625 143.99 75.849 144.932 75.8963 145.921C76.1087 147.93 76.469 150.267 75.9979 150.581H75.984Z" fill="white"/>
<path d="M68.0497 143.044C68.6039 143.007 68.2113 140.901 68.2113 140.901C68.2708 140.108 68.2708 139.312 68.2113 138.518C68.1097 137.525 68.6224 136.616 68.978 135.697C69.3336 134.778 68.978 132.325 68.5161 131.078C68.0543 129.831 68.3776 129.734 68.3776 129.734C69.8 129.273 68.4884 126.312 67.5325 123.546C66.5765 120.78 65.6251 120.978 65.6251 120.978C65.6251 120.978 64.9878 120.955 64.623 123.209C64.2581 125.463 63.6347 126.262 62.2677 126.257H61.538C60.1525 126.257 58.9379 125.287 56.9983 122.95C55.0586 120.613 54.4259 120.59 54.4259 120.59C54.4259 120.59 53.3129 120.318 54.2551 123.084C55.1972 125.851 55.9038 128.779 57.6864 129.37C57.6864 129.37 58.0559 129.499 58.4761 130.755C58.8964 132.011 60.2172 134.482 61.2193 135.447C62.2215 136.412 63.3807 137.387 63.9626 138.394C64.5445 139.4 65.6297 140.837 65.6297 140.837C65.6297 140.837 66.9552 142.98 67.5463 143.058L68.0497 143.044Z" fill="white"/>
<path d="M50.7632 100.095C50.7632 100.095 50.0381 100.303 50.56 101.517C51.0818 102.732 51.0218 103.448 51.322 103.776C51.6405 104.105 51.9798 104.413 52.338 104.699C52.338 104.699 51.5067 104.986 52.1209 106.283C52.7352 107.581 52.8922 108.86 53.1739 109.428C53.4556 109.996 54.0514 110.181 54.3285 110.509C54.6055 110.837 53.4048 110.472 53.7188 111.599C54.0329 112.726 54.7441 113.548 54.7395 114.587C54.7349 115.626 55.2429 116.993 56.2312 117.506C57.2195 118.018 57.0347 118.729 57.0624 119.288C57.121 120.054 57.2762 120.81 57.5243 121.537C57.9122 122.983 60.1336 125.232 61.4959 125.107C62.8583 124.982 64.1653 123.375 63.8374 122.406C63.2798 121.082 62.5331 119.847 61.6206 118.739C61.0434 118.161 60.5538 118.143 60.66 117.51C60.7663 116.877 61.4775 117.857 61.4451 116.979C61.4718 116.075 61.2378 115.182 60.7709 114.407C60.2213 113.589 60.0551 112.79 59.5286 111.733C59.0021 110.675 57.9722 110.481 58.0554 110.246C58.1385 110.01 58.7019 110.112 58.2355 109.059C57.769 108.006 57.7413 108.722 57.2426 107.11C56.7438 105.498 56.5175 104.533 56.0326 104.676C55.5477 104.819 55.6216 104.103 55.4507 102.981C55.2798 101.859 55.6862 102.275 54.9889 101.055C54.2915 99.8362 50.7632 100.095 50.7632 100.095Z" fill="white"/>
<path d="M51.6964 139.765L52.3106 138.297L51.3177 135.346C51.3177 135.346 52.9803 134.334 55.294 137.692C57.6077 141.049 57.4553 142.643 57.4553 142.643L54.7121 142.546C54.3297 143.507 54.2954 144.572 54.6151 145.557C55.1739 147.071 56.0006 146.887 56.7349 149.542C57.1186 150.757 57.3922 152.005 57.5523 153.269L66.1053 173.986L62.286 173.848L53.0495 151.897C53.0495 151.897 52.0012 151.219 50.2786 147.889C48.556 144.559 46.9396 140.232 48.0434 139.063C49.1471 137.895 51.6964 139.765 51.6964 139.765Z" fill="white"/>
<path d="M82.1992 140.878L80.5505 139.35L79.5207 136.399C79.5207 136.399 77.1099 135.239 77.0684 138.509C77.0268 141.779 78.2922 143.428 78.2922 143.428L81.0354 143.525C81.0354 143.525 82.7488 145.113 83.2245 146.619C83.7002 148.124 82.7627 147.88 83.8156 150.549C84.3046 151.843 84.888 153.1 85.5613 154.308L91.1586 174.91L94.9825 175.049L89.2189 153.204C89.2189 153.204 89.8285 152.586 89.2605 149.297C88.6925 146.009 87.3763 141.7 85.4274 140.421C84.9383 140.055 84.3239 139.897 83.7188 139.983C83.1137 140.068 82.5673 140.39 82.1992 140.878Z" fill="white"/>
<path d="M19.6138 99.328L82.708 99.739H82.7773L82.8004 99.8083C89.6954 120.951 97.9851 146.378 106.903 173.7L107.365 175.136L107.42 175.298H107.249L47.6741 174.083H47.6002L47.5725 174.014L19.6138 99.328C19.9463 100.219 31.0901 129.716 47.785 173.949L47.688 173.88L107.263 175.072L107.148 175.229C106.991 174.767 106.834 174.277 106.686 173.792L82.6249 99.873L82.7172 99.9422L19.6138 99.328Z" fill="#263238"/>
<path d="M113.608 156.345H107.637C107.637 156.345 104.579 153.394 103.748 152.978C102.917 152.562 98.8343 151.329 98.8343 151.329L100.409 155.698C100.656 155.769 100.898 155.853 101.134 155.952C102.178 156.359 101.887 157.282 101.056 157.282H95.0428C95.0428 157.282 88.8821 154.327 87.9677 154.867C87.201 155.329 86.9332 156.137 87.7183 157.282C88.5034 158.428 93.9021 161.12 94.5209 161.328L96.2851 161.845L94.6271 162.362L86.7762 159.624C86.2635 159.531 85.5616 159.448 85.3306 159.744C85.231 159.844 85.1528 159.964 85.1008 160.096C85.0487 160.228 85.0239 160.368 85.0277 160.51C85.0316 160.652 85.0642 160.791 85.1234 160.92C85.1826 161.048 85.2672 161.164 85.3722 161.259C86.4909 162.27 87.6775 163.203 88.9236 164.053C88.9236 164.053 87.6721 165.9 88.7066 166.823C89.7411 167.747 92.7521 170.56 92.7521 170.56C92.7521 170.56 93.0662 172.116 93.9991 172.841C94.9319 173.566 105.203 173.566 105.928 173.566C106.653 173.566 110.805 171.183 110.805 171.183L113.52 170.897L113.608 156.345Z" fill="#FFBE9D"/>
<path d="M95.8047 167.017C95.4425 167.134 95.0626 167.186 94.6825 167.17C94.2633 167.171 93.8473 167.098 93.454 166.953C92.9837 166.767 92.536 166.528 92.1194 166.242C91.228 165.664 90.4337 165.129 89.861 164.731C89.5402 164.536 89.2414 164.307 88.9697 164.048C89.3175 164.192 89.6489 164.373 89.958 164.588C90.5492 164.949 91.3435 165.461 92.2671 166.038C92.6709 166.315 93.1009 166.552 93.551 166.745C93.9188 166.894 94.3091 166.98 94.7056 166.999C95.3706 167.031 95.8047 166.976 95.8047 167.017Z" fill="#EB996E"/>
<path d="M96.2763 170.86C96.2994 170.86 96.0546 171.155 95.5004 171.298C94.7743 171.454 94.0163 171.327 93.3807 170.943C92.7575 170.589 92.1805 170.159 91.6627 169.664C91.4318 169.476 91.2336 169.251 91.0762 168.999C91.1316 168.934 92.0737 169.922 93.4961 170.73C94.0855 171.088 94.781 171.23 95.4635 171.132C95.7419 171.065 96.0139 170.974 96.2763 170.86Z" fill="#EB996E"/>
<path d="M99.1989 162.358C98.6541 162.425 98.1013 162.383 97.5732 162.233C97.0294 162.161 96.5051 161.982 96.0308 161.706C96.5697 161.754 97.1031 161.851 97.624 161.997C98.1588 162.069 98.686 162.19 99.1989 162.358Z" fill="#EB996E"/>
<path d="M17.2862 112.827C16.9935 112.661 16.7375 112.436 16.5337 112.168C16.3298 111.9 16.1822 111.594 16.0998 111.267C16.0175 110.941 16.0019 110.601 16.0542 110.268C16.1065 109.935 16.2255 109.617 16.4041 109.331C16.6226 108.925 16.9403 108.58 17.3277 108.329C18.3299 107.798 27.1969 106.135 28.1482 106.02C29.0996 105.904 29.2751 107.715 28.0328 108.615C26.7905 109.516 17.3093 112.836 17.3093 112.836L17.2862 112.827Z" fill="#FFBE9D"/>
<path d="M19.3499 119.256C19.059 119.089 18.8046 118.865 18.602 118.597C18.3993 118.33 18.2525 118.024 18.1702 117.699C18.0879 117.374 18.0719 117.035 18.123 116.704C18.1741 116.372 18.2914 116.054 18.4678 115.769C18.685 115.361 19.003 115.016 19.3915 114.767C20.3936 114.236 29.4454 111.857 30.212 112.458C31.1356 113.15 31.3388 114.148 30.0965 115.053C28.8542 115.958 19.373 119.274 19.373 119.274L19.3499 119.256Z" fill="#FFBE9D"/>
<path d="M21.1519 117.926C20.7337 118.022 20.3418 118.21 20.0042 118.475C19.6666 118.74 19.3915 119.076 19.1984 119.459C18.9866 119.872 18.923 120.344 19.0182 120.798C19.1646 121.478 19.4929 122.105 19.9679 122.612C20.4429 123.12 21.0469 123.489 21.7153 123.68C23.3363 124.188 28.6149 123.001 28.6149 123.001L27.3957 119.597L31.0903 118.387C32.5958 117.787 31.8661 115.432 30.0558 115.889C29.4647 116.037 23.267 117.399 21.1519 117.926Z" fill="#FFBE9D"/>
<path d="M18.3806 115.862C18.0892 115.695 17.8343 115.471 17.6313 115.204C17.4283 114.936 17.2812 114.631 17.1989 114.305C17.1165 113.98 17.1006 113.641 17.1521 113.31C17.2036 112.978 17.3214 112.66 17.4985 112.375C17.717 111.968 18.0347 111.623 18.4221 111.373C19.4243 110.841 27.4877 109.405 28.4252 109.207C29.3627 109.008 30.3695 110.74 29.1272 111.64C27.8849 112.541 18.3806 115.862 18.3806 115.862Z" fill="#FFBE9D"/>
<path d="M27.4926 112.624C27.0319 112.782 26.5593 112.902 26.0794 112.984C25.202 113.178 23.9874 113.446 22.6435 113.695C21.4986 113.876 20.4002 114.279 19.4107 114.882C19.0232 115.169 18.6767 115.508 18.3809 115.889C18.3809 115.889 18.4178 115.751 18.5517 115.534C18.7498 115.229 18.9999 114.962 19.2907 114.744C19.7131 114.425 20.1798 114.17 20.6761 113.986C21.2872 113.765 21.9139 113.589 22.5511 113.46C23.8996 113.192 25.1235 112.97 26.0102 112.818C26.4976 112.71 26.9937 112.645 27.4926 112.624Z" fill="#EB996E"/>
<path d="M25.9362 109.678C25.4956 109.826 25.0428 109.936 24.583 110.006L21.2902 110.643C20.1975 110.824 19.1546 111.232 18.2283 111.839C17.8873 112.136 17.5778 112.467 17.3047 112.827C17.3047 112.827 17.3416 112.693 17.4663 112.486C17.6461 112.19 17.874 111.926 18.1406 111.705C18.8102 111.114 19.9879 110.689 21.2579 110.412C22.5279 110.135 23.7194 109.978 24.5692 109.839C25.0195 109.747 25.4768 109.693 25.9362 109.678Z" fill="#EB996E"/>
<path d="M27.6175 116.397C27.206 116.562 26.7811 116.692 26.3475 116.785C25.5578 116.997 24.454 117.279 23.2256 117.482C22.1714 117.618 21.1535 117.957 20.2283 118.48C19.8856 118.735 19.5754 119.031 19.3047 119.362C19.3047 119.362 19.337 119.237 19.4663 119.043C19.6579 118.772 19.8937 118.535 20.1637 118.341C21.0796 117.763 22.11 117.389 23.184 117.247C24.4171 117.044 25.4931 116.785 26.3152 116.623C26.7413 116.507 27.1773 116.432 27.6175 116.397Z" fill="#EB996E"/>
<path d="M28.1161 119.362C27.5052 119.691 26.8592 119.949 26.1903 120.133C25.5417 120.389 24.8662 120.57 24.1768 120.674C24.7869 120.345 25.4332 120.087 26.1026 119.907C26.751 119.65 27.4265 119.467 28.1161 119.362Z" fill="#EB996E"/>
<path d="M216.646 66.0397C217.208 65.2168 217.955 64.5363 218.827 64.0522C219.698 63.5681 220.671 63.2936 221.667 63.2505C222.663 63.2074 223.655 63.3969 224.565 63.8039C225.475 64.211 226.278 64.8244 226.91 65.5956C227.541 66.3668 227.985 67.2745 228.205 68.2469C228.425 69.2192 228.416 70.2295 228.177 71.1976C227.939 72.1656 227.479 73.0649 226.833 73.8242C226.187 74.5834 225.373 75.1817 224.455 75.5717C225.477 76.0736 226.259 76.9582 226.633 78.0335C227.006 79.1088 226.94 80.288 226.449 81.3151C225.959 82.3422 225.083 83.1342 224.011 83.5193C222.94 83.9044 221.76 83.8514 220.728 83.3719C220.225 85.1453 218.239 86.2167 216.401 86.092C214.563 85.9673 212.905 84.8774 211.649 83.5289C210.341 82.1272 209.401 80.4237 208.912 78.5703C208.423 76.7169 208.4 74.7713 208.845 72.907C209.824 69.2124 213.002 66.1182 216.793 65.4809" fill="#263238"/>
<path d="M219.565 63.1488C219.565 63.1488 219.597 63.1904 219.643 63.2781C219.71 63.4065 219.769 63.5392 219.819 63.6753C220.013 64.1851 220.132 64.7201 220.174 65.264C220.244 66.0944 220.152 66.9305 219.902 67.7255C219.59 68.7418 219.022 69.6609 218.253 70.3948V70.2424C218.89 71.1116 219.309 72.1202 219.477 73.1842C219.704 74.4856 219.532 75.8251 218.986 77.0278C218.44 78.2306 217.544 79.2409 216.415 79.9268C215.744 80.3481 215.003 80.6439 214.226 80.7997C214.017 80.8421 213.806 80.8698 213.593 80.8828C213.518 80.8899 213.442 80.8899 213.367 80.8828C213.367 80.8551 213.672 80.832 214.208 80.7073C214.958 80.5166 215.673 80.2046 216.323 79.7837C217.072 79.295 217.714 78.6592 218.211 77.915C218.707 77.1707 219.047 76.3335 219.211 75.4539C219.374 74.5743 219.357 73.6707 219.16 72.798C218.964 71.9252 218.593 71.1013 218.069 70.3763L218.009 70.2932L218.082 70.2239C218.831 69.5231 219.387 68.6423 219.699 67.6654C219.955 66.8953 220.063 66.0836 220.017 65.2732C219.967 64.5473 219.815 63.8321 219.565 63.1488Z" fill="#455A64"/>
<path d="M238.033 61.8646C237.816 62.0174 237.587 62.1533 237.349 62.271C236.888 62.5158 236.25 62.8622 235.442 63.2778C233.816 64.1137 231.553 65.2175 229.009 66.3535C226.464 67.4896 224.127 68.4317 222.423 69.0829C221.573 69.4062 220.881 69.6648 220.396 69.8311C220.151 69.928 219.899 70.0068 219.643 70.0666C219.874 69.9397 220.115 69.8316 220.364 69.7433L222.363 68.9259C224.049 68.2332 226.372 67.2633 228.912 66.155C231.452 65.0466 233.724 63.9428 235.377 63.1485L237.322 62.2248C237.549 62.0869 237.787 61.9665 238.033 61.8646Z" fill="#BA68C8"/>
<path d="M232.015 55.8795C232.056 55.9303 229.521 58.3548 226.348 61.292C223.176 64.2292 220.566 66.5799 220.52 66.5291C220.474 66.4783 223.014 64.0722 226.201 61.1165C229.387 58.1609 231.969 55.8333 232.015 55.8795Z" fill="#BA68C8"/>
<path d="M204.398 45.8764C204.398 40.9072 198.459 40.6624 195.458 41.9047C193.841 39.6879 192.687 38.5703 188.969 38.3394C186.24 38.1639 182.079 39.5355 179.982 42.2834C178.953 43.6799 178.308 45.3219 178.111 47.0457C177.915 48.7694 178.175 50.5144 178.864 52.1064C179.326 53.1547 179.986 54.2077 179.857 55.3391C179.668 56.9832 177.982 57.9438 176.892 59.1861C175.999 60.2524 175.485 61.5854 175.431 62.9756C175.378 64.3658 175.788 65.7343 176.597 66.8662C177.654 68.2517 179.335 69.2538 179.894 70.9164C180.356 72.3019 179.922 73.8305 180.01 75.2991C180.171 78.0008 182.222 80.3791 184.734 81.3536C187.246 82.328 190.124 82.111 192.664 81.1873" fill="#263238"/>
<path d="M182.674 98.0024L191.989 93.846L192.307 87.616C192.307 87.616 185.306 86.5815 183.694 77.5021C182.895 72.9855 182.992 65.5547 183.265 59.491C183.514 54.0184 189.306 48.458 194.76 48.9383L212.475 51.9818V54.9236L212.637 92.442L221.799 96.8617L201.017 121.412L182.674 98.0024Z" fill="#A36957"/>
<path d="M186.577 65.9195C186.579 66.2234 186.7 66.5143 186.914 66.7301C187.128 66.9458 187.418 67.0693 187.722 67.0741C187.871 67.0828 188.019 67.0619 188.16 67.0126C188.3 66.9633 188.429 66.8865 188.54 66.7868C188.65 66.6871 188.74 66.5664 188.803 66.4318C188.866 66.2972 188.902 66.1513 188.909 66.0027C188.907 65.6984 188.786 65.407 188.572 65.1905C188.358 64.974 188.068 64.8495 187.764 64.8435C187.614 64.8342 187.465 64.8548 187.324 64.9041C187.183 64.9535 187.054 65.0306 186.943 65.1309C186.832 65.2312 186.743 65.3527 186.68 65.4882C186.617 65.6236 186.582 65.7703 186.577 65.9195Z" fill="#263238"/>
<path d="M184.947 63.2963C185.094 63.4441 185.967 62.7744 187.223 62.7559C188.48 62.7375 189.412 63.3517 189.533 63.1947C189.602 63.1254 189.449 62.8529 189.043 62.5666C188.496 62.2031 187.852 62.0146 187.196 62.0263C186.541 62.0359 185.907 62.2543 185.385 62.6497C185.002 62.9499 184.873 63.227 184.947 63.2963Z" fill="#263238"/>
<path d="M198.32 65.9195C198.321 66.2242 198.442 66.5163 198.656 66.733C198.87 66.9498 199.161 67.0739 199.466 67.0787C199.615 67.0874 199.764 67.0664 199.904 67.0168C200.045 66.9672 200.174 66.89 200.285 66.7898C200.395 66.6896 200.485 66.5684 200.548 66.4333C200.611 66.2981 200.647 66.1517 200.653 66.0027C200.649 65.6987 200.528 65.408 200.314 65.1917C200.1 64.9755 199.811 64.8507 199.507 64.8435C199.358 64.8342 199.209 64.8548 199.068 64.9041C198.927 64.9535 198.797 65.0306 198.687 65.1309C198.576 65.2312 198.487 65.3527 198.424 65.4882C198.361 65.6236 198.326 65.7703 198.32 65.9195Z" fill="#263238"/>
<path d="M197.304 63.3102C197.452 63.4626 198.33 62.7884 199.586 62.7699C200.842 62.7514 201.775 63.3656 201.895 63.2086C201.96 63.1393 201.807 62.8669 201.401 62.5805C200.854 62.2187 200.209 62.0318 199.553 62.0448C198.9 62.0534 198.265 62.2702 197.743 62.6637C197.36 62.9685 197.235 63.2456 197.304 63.3102Z" fill="#263238"/>
<path d="M192.913 72.7129C192.913 72.6437 192.132 72.5236 190.862 72.3804C190.539 72.3527 190.234 72.2973 190.179 72.0802C190.145 71.7487 190.214 71.4148 190.377 71.1243C190.664 70.3392 190.964 69.5217 191.301 68.6628C192.557 65.1575 193.458 62.2804 193.319 62.2296C193.18 62.1788 192.044 65.0005 190.788 68.4826C190.483 69.3462 190.197 70.1729 189.92 70.958C189.726 71.3501 189.675 71.7978 189.777 72.2234C189.825 72.336 189.899 72.436 189.992 72.516C190.084 72.596 190.194 72.6539 190.313 72.6852C190.491 72.7302 190.674 72.7534 190.858 72.7545C192.118 72.7914 192.908 72.7868 192.913 72.7129Z" fill="#263238"/>
<path d="M192.308 87.6253C196.596 87.6147 200.798 86.414 204.445 84.157C204.445 84.157 201.323 90.5763 192.192 89.8882L192.308 87.6253Z" fill="#7C3B29"/>
<path d="M193.495 75.7334C193.73 75.4285 194.038 75.1881 194.391 75.0346C194.744 74.8812 195.13 74.8197 195.513 74.8559C195.79 74.8774 196.06 74.9538 196.308 75.0807C196.555 75.2075 196.775 75.3823 196.954 75.5948C197.126 75.8022 197.23 76.0573 197.252 76.3257C197.274 76.5941 197.214 76.8629 197.079 77.0958C196.883 77.3282 196.622 77.4966 196.33 77.5789C196.037 77.6613 195.727 77.6539 195.439 77.5576C194.842 77.359 194.29 77.0452 193.813 76.6339C193.671 76.5353 193.547 76.4117 193.449 76.2691C193.404 76.2003 193.38 76.1201 193.38 76.0382C193.38 75.9563 193.404 75.8761 193.449 75.8073" fill="#7C3B29"/>
<path d="M196.644 73.5167C196.441 73.5167 196.459 74.8744 195.309 75.8627C194.159 76.851 192.705 76.7263 192.695 76.9203C192.695 77.0034 193.023 77.1789 193.619 77.1835C194.419 77.1811 195.192 76.8965 195.803 76.38C196.389 75.883 196.759 75.1773 196.833 74.4126C196.875 73.8446 196.718 73.5074 196.644 73.5167Z" fill="#263238"/>
<path d="M196.894 58.3919C197.023 58.7291 198.279 58.5443 199.753 58.6967C201.226 58.8491 202.431 59.2324 202.62 58.9184C202.708 58.7706 202.496 58.4566 202.006 58.1333C201.357 57.7387 200.627 57.497 199.871 57.4266C199.115 57.3562 198.353 57.4589 197.642 57.7269C197.106 57.9578 196.838 58.2303 196.894 58.3919Z" fill="#263238"/>
<path d="M185.343 59.6526C185.569 59.9297 186.433 59.6203 187.472 59.588C188.511 59.5557 189.398 59.745 189.596 59.4448C189.684 59.297 189.536 59.0107 189.135 58.7475C188.61 58.4341 188.005 58.2831 187.395 58.3135C186.785 58.3439 186.198 58.5544 185.708 58.9183C185.362 59.2185 185.246 59.5141 185.343 59.6526Z" fill="#263238"/>
<path d="M180.864 48.3702C182.249 51.603 185.431 56.3967 188.913 56.8216C190.659 57.0099 192.424 56.749 194.04 56.0636C195.657 55.3782 197.071 54.291 198.15 52.9053C198.676 55.5008 201.558 56.877 204.153 57.3065C206.001 57.6113 207.95 57.6298 209.695 56.9324C211.441 56.2351 212.928 54.7203 213.201 52.873C213.473 51.0257 210.85 46.4721 209.007 46.1304" fill="#263238"/>
<path d="M204.809 54.8358C204.2 56.1987 204.154 57.747 204.68 59.1438C205.207 60.5406 206.264 61.6729 207.622 62.2942C206.338 63.8875 206.107 66.1459 206.596 68.1363C207.086 70.1268 208.208 71.9048 209.413 73.5627C209.413 73.5627 206.282 78.0932 212.586 81.4137C212.586 81.4137 217.01 80.0282 215.034 73.3734C214.877 72.897 214.906 72.3786 215.117 71.9233C215.392 71.5372 215.772 71.2376 216.211 71.0596C217.874 70.1341 219.105 68.5919 219.64 66.7661C220.175 64.9404 219.97 62.9775 219.07 61.3013C218.792 60.8755 218.585 60.4076 218.456 59.9159C218.331 59.1677 217.759 57.2142 217.994 56.4984C219.347 52.7622 217.606 48.1209 213.223 45.8164C209.709 43.9691 205.308 43.6597 202.602 46.583" fill="#263238"/>
<path d="M229.281 127.485L235.285 104.002L218.442 94.7328L202.186 119.791L187.459 95.4255L172.288 102.293C171.29 102.746 170.489 103.542 170.03 104.537L156.304 141.659L174.851 147.662L176.975 139.059L179.418 153.915L172.362 192.902L232.921 192.681L222.188 152.655L223.68 143.728L229.281 127.485Z" fill="#D687E3"/>
<g opacity="0.3">
<path d="M178.439 157.924C182.595 158.626 186.336 154.945 190.548 154.913C194.432 154.885 197.655 157.929 201.438 158.811C203.105 159.199 204.924 159.185 206.365 160.099C207.474 160.801 208.213 161.946 208.97 163.013C212.668 168.062 218.063 171.609 224.164 173.002C225.088 173.21 227.157 173.926 227.725 173.146L227.124 170.753L226.598 163.498L206.305 148.72L183.145 149.856L178.439 157.924Z" fill="black"/>
</g>
<path d="M222.922 123.938H210.393V126.012H222.922V123.938Z" fill="#263238"/>
<path d="M223.772 149.274C228.852 151.075 234.394 150.803 239.696 150.022C240.956 149.833 242.273 149.593 243.265 148.794C243.598 148.53 244.402 147.87 244.388 147.695C244.351 147.21 243.464 146.563 242.961 146.161C241.032 144.671 238.806 143.611 236.432 143.053C234.059 142.496 231.594 142.453 229.203 142.929C227.928 143.158 226.709 143.628 225.61 144.314C224.534 145.034 223.86 145.432 223.49 146.674" fill="#BA68C8"/>
<g opacity="0.3">
<path d="M223.772 149.274C228.852 151.075 234.394 150.803 239.696 150.022C240.956 149.833 242.273 149.593 243.265 148.794C243.598 148.53 244.402 147.87 244.388 147.695C244.351 147.21 243.464 146.563 242.961 146.161C241.032 144.671 238.806 143.611 236.432 143.053C234.059 142.496 231.594 142.453 229.203 142.929C227.928 143.158 226.709 143.628 225.61 144.314C224.534 145.034 223.86 145.432 223.49 146.674" fill="black"/>
</g>
<path d="M244.387 147.695C244.387 147.695 239.067 115.963 238.739 113.132C237.912 106.112 235.271 103.868 235.271 103.868L222.921 141.659L223.776 149.274C223.776 149.274 227.678 143.4 244.387 147.695Z" fill="#D687E3"/>
<path d="M237.581 122.211C237.524 122.478 237.447 122.741 237.35 122.996C237.193 123.5 236.929 124.215 236.588 125.093C235.68 127.375 234.599 129.584 233.355 131.702C232.105 133.813 230.687 135.821 229.115 137.705C228.51 138.426 228.002 138.998 227.638 139.377C227.456 139.58 227.262 139.772 227.056 139.95C227.209 139.724 227.381 139.511 227.568 139.312C227.91 138.915 228.4 138.329 228.986 137.594C230.509 135.682 231.897 133.667 233.143 131.563C234.381 129.461 235.479 127.28 236.431 125.033C236.791 124.165 237.077 123.458 237.262 122.969C237.349 122.709 237.456 122.455 237.581 122.211Z" fill="#263238"/>
<path d="M179.339 153.126C179.324 153.094 179.315 153.059 179.312 153.024C179.312 152.941 179.279 152.839 179.256 152.714C179.215 152.424 179.15 152.031 179.072 151.532C178.896 150.484 178.651 149.006 178.347 147.191C177.709 143.506 176.786 138.472 175.779 132.884C174.772 127.296 173.848 122.262 173.179 118.567L172.417 114.226C172.343 113.732 172.278 113.335 172.232 113.044L172.2 112.735C172.193 112.699 172.193 112.663 172.2 112.628C172.214 112.661 172.223 112.695 172.227 112.73C172.227 112.813 172.264 112.915 172.287 113.035C172.343 113.326 172.417 113.718 172.514 114.212C172.717 115.256 172.999 116.725 173.35 118.535C174.047 122.188 175.003 127.24 176.024 132.824C177.044 138.407 177.926 143.469 178.517 147.14C178.813 148.988 179.03 150.465 179.169 151.495C179.229 151.999 179.275 152.396 179.312 152.687C179.312 152.811 179.312 152.913 179.339 152.996C179.345 153.039 179.345 153.083 179.339 153.126Z" fill="#263238"/>
<path d="M230.196 114.873C230.186 114.993 230.164 115.112 230.131 115.228C230.076 115.482 230.002 115.82 229.905 116.24C229.697 117.14 229.406 118.406 229.046 119.934C228.311 123.07 227.295 127.397 226.219 132.191C225.143 136.985 224.206 141.331 223.587 144.489C223.282 146.069 223.033 147.348 222.88 148.235C222.807 148.66 222.742 148.997 222.696 149.256C222.682 149.375 222.655 149.492 222.617 149.606C222.618 149.486 222.628 149.365 222.65 149.246C222.686 148.988 222.733 148.646 222.788 148.221C222.913 147.325 223.134 146.041 223.421 144.457C223.998 141.289 224.903 136.934 225.984 132.136C227.065 127.337 228.104 123.019 228.88 119.893C229.267 118.35 229.586 117.094 229.803 116.198C229.914 115.783 230.006 115.45 230.071 115.196C230.102 115.084 230.144 114.976 230.196 114.873Z" fill="#263238"/>
<path d="M183.557 97.051C183.596 97.0948 183.63 97.1428 183.658 97.1942L183.945 97.656C184.199 98.0531 184.559 98.6258 185.021 99.3601L188.937 105.636L201.868 126.589H201.669L202.279 125.726C202.939 124.802 203.586 123.878 204.195 123.029V123.186L192.262 103.396C190.766 100.898 189.56 98.8798 188.724 97.4759L187.778 95.8733L187.538 95.4531C187.506 95.407 187.479 95.3574 187.459 95.3053C187.495 95.3474 187.527 95.3922 187.556 95.4392L187.815 95.8502C188.046 96.2197 188.378 96.7739 188.798 97.4343C189.653 98.8198 190.881 100.829 192.401 103.313L204.408 123.061L204.445 123.125L204.403 123.19C203.789 124.049 203.143 124.964 202.487 125.887L201.873 126.751L201.766 126.899L201.674 126.746L188.794 105.733C187.168 103.059 185.852 100.898 184.937 99.3878C184.476 98.6489 184.143 98.067 183.898 97.6606L183.635 97.1988C183.604 97.1523 183.578 97.1028 183.557 97.051Z" fill="#263238"/>
<path d="M218.428 94.5941C218.412 94.6423 218.389 94.6875 218.359 94.728L218.123 95.1067L217.199 96.5569L213.782 101.891L202.264 119.717V119.588C202.772 120.419 203.312 121.306 203.862 122.197L204.379 123.042H204.176C206.642 119.348 208.914 115.81 210.997 112.601C213.08 109.391 214.978 106.523 216.631 104.158C218.285 101.794 219.666 99.9189 220.635 98.6166L221.767 97.1526L222.067 96.7739C222.099 96.7311 222.135 96.691 222.173 96.6538C222.149 96.7032 222.12 96.7497 222.086 96.7924L221.804 97.1803C221.545 97.5313 221.18 98.0347 220.709 98.672C219.786 99.9697 218.4 101.859 216.77 104.214C215.14 106.569 213.246 109.46 211.182 112.679C209.118 115.898 206.855 119.491 204.388 123.186L204.282 123.343L204.185 123.181L203.668 122.336L202.075 119.727L202.033 119.666L202.075 119.602L213.657 101.817L217.135 96.5245L218.086 95.0975L218.336 94.7327L218.428 94.5941Z" fill="#263238"/>
<path d="M185.357 139.017C184.442 138.622 183.414 138.579 182.47 138.896C181.525 139.213 180.731 139.868 180.24 140.735C179.868 141.474 179.721 142.306 179.82 143.128C179.919 143.949 180.257 144.723 180.794 145.353C181.889 146.517 184.54 147.311 185.773 145.907L185.357 139.017Z" fill="#EBEBEB"/>
<path d="M185.357 139.017C185.39 139.178 185.41 139.342 185.417 139.506C185.445 139.867 185.487 140.338 185.533 140.915C185.621 142.176 185.741 143.898 185.879 145.921V145.967L185.852 146C185.576 146.287 185.238 146.507 184.865 146.643C184.491 146.779 184.09 146.828 183.695 146.785C182.851 146.729 182.037 146.452 181.335 145.981C180.653 145.531 180.147 144.861 179.899 144.083C179.668 143.367 179.616 142.607 179.746 141.866C179.86 141.193 180.156 140.564 180.601 140.047C180.984 139.604 181.456 139.247 181.986 138.998C182.76 138.638 183.63 138.536 184.466 138.707C184.77 138.765 185.062 138.87 185.334 139.017C185.311 139.017 185.03 138.901 184.452 138.8C183.637 138.669 182.802 138.793 182.06 139.155C181.51 139.406 181.031 139.787 180.663 140.266C180.295 140.746 180.05 141.308 179.949 141.903C179.828 142.607 179.882 143.331 180.106 144.009C180.339 144.736 180.813 145.362 181.45 145.782C182.118 146.228 182.89 146.493 183.69 146.549C184.051 146.592 184.416 146.552 184.759 146.432C185.101 146.311 185.412 146.115 185.667 145.856L185.639 145.935C185.538 143.931 185.454 142.24 185.39 140.975C185.367 140.388 185.348 139.908 185.334 139.543C185.33 139.367 185.338 139.192 185.357 139.017Z" fill="#263238"/>
<path d="M182.056 139.017C182.056 139.017 183.372 111.89 184.051 108.001C184.73 104.112 186.475 97.8409 189.223 94.0216C191.851 90.3871 192.11 90.1331 192.11 90.1331L191.934 93.5182C189.442 97.8997 187.661 102.65 186.66 107.59C185.196 115.275 184.189 138.994 184.189 138.994L182.056 139.017Z" fill="#263238"/>
<path d="M220.608 143.866C219.837 143.858 219.075 143.701 218.364 143.404L218.715 142.55C219.656 142.962 220.709 143.045 221.703 142.785C222.193 142.641 222.644 142.387 223.023 142.043C223.401 141.699 223.697 141.274 223.887 140.8C224.188 139.862 224.204 138.856 223.933 137.909C223.747 137.207 223.517 136.517 223.245 135.844C223.13 135.544 223.014 135.244 222.903 134.921C220.964 129.466 221.301 123.375 221.597 117.976L222.52 118.027C222.229 123.324 221.901 129.333 223.781 134.611C223.887 134.911 223.998 135.202 224.109 135.498C224.398 136.207 224.642 136.933 224.839 137.673C225.159 138.802 225.13 140.001 224.755 141.114C224.519 141.721 224.146 142.266 223.665 142.706C223.185 143.146 222.61 143.471 221.984 143.654C221.539 143.792 221.075 143.864 220.608 143.866Z" fill="#E0E0E0"/>
<path d="M220.52 144.273C218.978 144.273 217.629 143.547 216.456 142.097C214.932 140.222 214.688 135.572 214.475 131.475C214.401 130.007 214.327 128.621 214.198 127.615C213.736 124.068 211.709 119.302 211.69 119.26L212.536 118.895C212.623 119.094 214.641 123.818 215.113 127.499C215.246 128.538 215.32 129.942 215.399 131.425C215.593 135.193 215.838 139.885 217.172 141.525C219.186 144.005 221.629 143.982 225.093 141.446L225.637 142.194C223.73 143.575 222.045 144.273 220.52 144.273Z" fill="#EBEBEB"/>
<path d="M223.776 142.236C223.949 141.762 224.186 141.314 224.483 140.906C224.765 140.507 225.193 140.237 225.674 140.153C225.915 140.124 226.158 140.172 226.37 140.289C226.582 140.406 226.752 140.586 226.857 140.804C226.948 141.033 226.976 141.282 226.939 141.526C226.901 141.769 226.8 141.998 226.644 142.19C226.343 142.542 225.925 142.775 225.467 142.845C225.021 142.903 224.569 142.903 224.123 142.845" fill="#263238"/>
<path d="M214.558 101.988C218.176 106.631 220.344 112.237 220.793 118.106H222.714C222.317 111.379 219.678 104.98 215.219 99.9282C215.703 98.3953 216.057 96.8241 216.276 95.2314C216.701 91.6246 212.743 89.4402 212.743 89.4402V92.1742C213.243 92.4576 213.657 92.8706 213.941 93.3697C214.226 93.8688 214.37 94.4354 214.36 95.0098C214.272 96.954 212.813 101.087 211.386 104.653C210.184 107.577 209.646 110.732 209.811 113.889C209.945 117.93 211.524 119.763 211.524 119.763L213.431 118.955C213.431 118.955 212.291 117.528 211.797 113.626C211.418 110.642 212.3 108.31 213.067 106.154C213.454 105.082 214.013 103.604 214.558 101.988Z" fill="#263238"/>
<path d="M159.361 142.536L157.052 151.343C156.664 152.741 156.646 154.216 157 155.623C157.354 157.03 158.067 158.321 159.07 159.369C159.195 159.494 159.324 159.619 159.453 159.734C160.659 160.813 162.142 161.535 163.735 161.818C165.328 162.101 166.969 161.934 168.473 161.337L192.39 151.819L188.858 141.035L170.749 146.194L159.361 142.536Z" fill="#A36957"/>
<path d="M178.998 127.859L183.334 150.95C183.425 151.438 183.688 151.877 184.076 152.186C184.463 152.496 184.949 152.655 185.445 152.636L218.576 151.357C219.123 151.335 219.639 151.098 220.012 150.698C220.384 150.297 220.584 149.765 220.566 149.219L219.809 127.402C219.791 126.866 219.565 126.358 219.179 125.985C218.793 125.613 218.277 125.405 217.74 125.407H181.03C180.725 125.406 180.425 125.473 180.149 125.602C179.874 125.731 179.63 125.92 179.436 126.154C179.242 126.389 179.102 126.663 179.026 126.958C178.95 127.252 178.941 127.56 178.998 127.859Z" fill="#455A64"/>
<path d="M215.196 137.262C214.575 137.26 213.969 137.447 213.456 137.796C212.943 138.146 212.549 138.642 212.323 139.22C211.861 140.472 211.141 141.931 210.365 142.351C208.929 143.136 206.444 143.764 205.142 143.122C203.839 142.48 198.612 137.784 197.697 138.306C196.783 138.827 195.998 140 196.912 141.049C197.826 142.097 202.648 145.228 201.724 146.277C200.801 147.325 190.64 142.721 189.056 143.127C187.472 143.533 186.576 144.512 187.491 145.127C188.405 145.741 195.342 148.359 195.716 149.283C195.716 149.283 185.269 146.54 184.877 147.196C184.484 147.851 183.833 148.891 184.877 149.283C185.921 149.676 194.935 152.026 195.716 152.419C197.012 152.958 198.364 153.352 199.748 153.592C200.029 153.592 202.057 154.28 203.955 154.927C206.07 155.661 208.379 155.601 210.453 154.756L211.51 154.322C212.311 153.993 212.99 153.423 213.451 152.69C213.912 151.957 214.133 151.099 214.083 150.234L213.87 146.674L215.011 143.732L215.196 137.262Z" fill="#A36957"/>
<path d="M206.828 155.425C206.828 155.425 225.892 172.684 232.311 172.735C239.077 172.785 242.887 165.766 242.166 161.401C241.778 159.092 240.781 146.905 240.781 146.905C236.25 145.667 229.48 145.113 224.654 148.323L226.414 155.425L213.686 149.274L206.828 155.425Z" fill="#A36957"/>
<path d="M244.387 147.695C244.313 147.691 244.24 147.679 244.17 147.658L243.551 147.51C243.02 147.381 242.249 147.191 241.293 146.974C238.813 146.377 236.27 146.082 233.719 146.097C232.323 146.141 230.934 146.295 229.562 146.559C228.436 146.755 227.336 147.079 226.283 147.524C225.577 147.831 224.918 148.236 224.325 148.729C223.914 149.085 223.716 149.316 223.697 149.302C223.731 149.236 223.775 149.175 223.827 149.122C223.963 148.959 224.11 148.804 224.265 148.66C224.843 148.131 225.501 147.696 226.214 147.371C227.27 146.894 228.381 146.548 229.521 146.341C230.908 146.058 232.317 145.893 233.733 145.847C236.302 145.827 238.863 146.147 241.348 146.799C242.304 147.039 243.071 147.261 243.597 147.413L244.198 147.602C244.318 147.662 244.392 147.685 244.387 147.695Z" fill="#263238"/>
<path d="M300 192.782C300 192.847 232.837 192.902 150.009 192.902C67.1813 192.902 0 192.847 0 192.782C0 192.718 67.149 192.662 150.009 192.662C232.869 192.662 300 192.718 300 192.782Z" fill="#263238"/>
<path d="M259.914 172.079C260.888 173.465 262.754 172.98 263.608 172.134C264.463 171.289 264.823 170.07 265.146 168.902C265.89 166.251 266.633 163.466 266.047 160.778C265.906 159.962 265.542 159.201 264.994 158.58C264.717 158.273 264.364 158.044 263.971 157.916C263.578 157.788 263.158 157.766 262.754 157.85C261.83 158.109 261.239 159.037 260.823 159.915C259.6 162.515 258.969 165.354 258.976 168.227C258.976 169.562 259.152 170.966 259.9 172.061" fill="#BA68C8"/>
<g opacity="0.2">
<path d="M259.914 172.079C260.888 173.465 262.754 172.98 263.608 172.134C264.463 171.289 264.823 170.07 265.146 168.902C265.89 166.251 266.633 163.466 266.047 160.778C265.906 159.962 265.542 159.201 264.994 158.58C264.717 158.273 264.364 158.044 263.971 157.916C263.578 157.788 263.158 157.766 262.754 157.85C261.83 158.109 261.239 159.037 260.823 159.915C259.6 162.515 258.969 165.354 258.976 168.227C258.976 169.562 259.152 170.966 259.9 172.061" fill="black"/>
</g>
<path d="M263.581 179.006C265.187 178.239 266.996 178.005 268.744 178.337C269.7 178.414 270.602 178.809 271.308 179.459C271.949 180.156 272.079 181.394 271.354 182.004C270.884 182.327 270.315 182.477 269.747 182.428C268.361 182.428 266.86 182.193 265.775 183.024C265.156 183.486 264.75 184.28 264.006 184.516C263.634 184.604 263.244 184.569 262.893 184.417C262.543 184.265 262.251 184.003 262.062 183.671C261.701 182.988 261.617 182.193 261.826 181.449C261.91 180.934 262.112 180.445 262.417 180.022C262.721 179.598 263.12 179.25 263.581 179.006Z" fill="#BA68C8"/>
<path d="M257.3 174.069C257.791 173.419 258.116 172.658 258.246 171.853C258.375 171.048 258.306 170.223 258.043 169.451C257.5 167.91 256.541 166.55 255.272 165.521C253.837 164.267 252.173 163.303 250.372 162.681C249.675 162.408 248.927 162.286 248.179 162.325C247.802 162.348 247.436 162.464 247.114 162.661C246.792 162.858 246.523 163.131 246.331 163.457C245.828 164.436 246.331 165.618 246.867 166.583C247.816 168.283 248.897 169.906 250.1 171.437C251.065 172.665 252.178 173.88 253.642 174.425C255.106 174.97 256.63 174.887 257.396 173.875" fill="#BA68C8"/>
<path d="M260.02 192.792C260.07 192.586 260.098 192.375 260.103 192.164C260.145 191.702 260.196 191.143 260.256 190.464C260.333 189.624 260.455 188.789 260.621 187.961C260.836 186.956 261.131 185.969 261.503 185.01C261.868 184.051 262.369 183.149 262.99 182.332C263.493 181.665 264.138 181.119 264.879 180.734C265.381 180.48 265.92 180.307 266.477 180.221C266.685 180.21 266.893 180.179 267.095 180.129C266.887 180.106 266.676 180.106 266.467 180.129C265.886 180.178 265.32 180.335 264.796 180.59C264.016 180.964 263.334 181.514 262.805 182.198C262.159 183.028 261.639 183.949 261.263 184.932C260.885 185.905 260.592 186.91 260.385 187.933C260.232 188.77 260.128 189.615 260.076 190.464C260.025 191.189 260.011 191.776 260.002 192.178C259.987 192.382 259.993 192.588 260.02 192.792Z" fill="#263238"/>
<path d="M260.126 191.48C260.138 191.383 260.138 191.286 260.126 191.189C260.126 190.972 260.126 190.7 260.126 190.362C260.126 189.642 260.126 188.603 260.126 187.319C260.172 184.751 260.366 181.205 260.763 177.307C261.16 173.409 261.687 169.918 262.204 167.382C262.324 166.749 262.44 166.181 262.555 165.683C262.671 165.184 262.754 164.759 262.842 164.408C262.929 164.057 262.98 163.812 263.031 163.6C263.066 163.594 263.098 163.574 263.119 163.546C263.141 163.517 263.151 163.482 263.148 163.446C263.145 163.411 263.128 163.377 263.102 163.353C263.076 163.329 263.041 163.316 263.005 163.316C262.97 163.316 262.935 163.329 262.909 163.353C262.882 163.377 262.866 163.411 262.863 163.446C262.86 163.482 262.87 163.517 262.892 163.546C262.913 163.574 262.945 163.594 262.98 163.6C262.915 163.808 262.842 164.062 262.745 164.394C262.648 164.727 262.537 165.165 262.412 165.664C262.287 166.163 262.158 166.726 262.024 167.359C261.342 170.643 260.835 173.96 260.505 177.298C260.108 181.205 259.941 184.756 259.946 187.333C259.946 188.621 259.978 189.642 260.015 190.381C260.015 190.713 260.057 190.991 260.071 191.208C260.08 191.3 260.098 191.391 260.126 191.48Z" fill="#263238"/>
<path d="M260.089 184.608C260.113 184.321 260.113 184.032 260.089 183.745C260.052 183.19 259.969 182.387 259.803 181.403C259.354 178.849 258.597 176.359 257.549 173.986C256.541 171.58 255.103 169.378 253.305 167.488C252.996 167.158 252.664 166.85 252.312 166.565C252.16 166.435 252.026 166.311 251.892 166.209L251.504 165.951C251.273 165.778 251.029 165.623 250.774 165.489C251.618 166.142 252.42 166.847 253.176 167.599C254.92 169.502 256.326 171.688 257.332 174.065C257.908 175.361 258.397 176.694 258.796 178.055C259.133 179.165 259.414 180.292 259.637 181.431C259.822 182.401 259.932 183.195 259.997 183.74C260.007 184.031 260.038 184.321 260.089 184.608Z" fill="#263238"/>
<path d="M239.88 14.4819H239.765C238.716 14.4819 237.867 15.3317 237.867 16.38V34.9592C237.867 36.0074 238.716 36.8572 239.765 36.8572H239.88C240.929 36.8572 241.778 36.0074 241.778 34.9592V16.38C241.778 15.3317 240.929 14.4819 239.88 14.4819Z" fill="#E0E0E0"/>
<path d="M239.88 21.1691H239.765C238.716 21.1691 237.867 22.0189 237.867 23.0672V34.9591C237.867 36.0074 238.716 36.8572 239.765 36.8572H239.88C240.929 36.8572 241.778 36.0074 241.778 34.9591V23.0672C241.778 22.0189 240.929 21.1691 239.88 21.1691Z" fill="#BA68C8"/>
<path d="M246.285 14.4819H246.17C245.121 14.4819 244.271 15.3317 244.271 16.38V34.9592C244.271 36.0074 245.121 36.8572 246.17 36.8572H246.285C247.333 36.8572 248.183 36.0074 248.183 34.9592V16.38C248.183 15.3317 247.333 14.4819 246.285 14.4819Z" fill="#E0E0E0"/>
<path d="M246.285 24.6373H246.17C245.121 24.6373 244.271 25.4871 244.271 26.5354V34.9591C244.271 36.0074 245.121 36.8572 246.17 36.8572H246.285C247.333 36.8572 248.183 36.0074 248.183 34.9591V26.5354C248.183 25.4871 247.333 24.6373 246.285 24.6373Z" fill="#BA68C8"/>
<path d="M253.532 14.4819H253.416C252.368 14.4819 251.518 15.3317 251.518 16.38V34.9592C251.518 36.0074 252.368 36.8572 253.416 36.8572H253.532C254.58 36.8572 255.43 36.0074 255.43 34.9592V16.38C255.43 15.3317 254.58 14.4819 253.532 14.4819Z" fill="#E0E0E0"/>
<path d="M253.532 18.5273H253.416C252.368 18.5273 251.518 19.3771 251.518 20.4254V34.9636C251.518 36.0119 252.368 36.8617 253.416 36.8617H253.532C254.58 36.8617 255.43 36.0119 255.43 34.9636V20.4254C255.43 19.3771 254.58 18.5273 253.532 18.5273Z" fill="#BA68C8"/>
<path d="M239.88 36.8619C239.88 36.8619 240.056 36.8619 240.37 36.7695C240.826 36.6391 241.215 36.3382 241.455 35.929C241.631 35.6396 241.722 35.3069 241.718 34.9684C241.718 34.5851 241.718 34.1741 241.718 33.7307C241.718 32.844 241.718 31.8326 241.718 30.7196C241.718 28.4844 241.718 25.8289 241.718 22.8686C241.718 21.3954 241.718 19.8483 241.718 18.2504V17.0404C241.747 16.6431 241.72 16.2437 241.64 15.8536C241.518 15.4738 241.274 15.1451 240.945 14.9187C240.617 14.6923 240.223 14.5809 239.825 14.602C239.428 14.6045 239.044 14.7388 238.732 14.9838C238.42 15.2287 238.199 15.5705 238.102 15.9552C238.044 16.3525 238.025 16.7548 238.047 17.1559V18.352C238.047 19.9545 238.047 21.5017 238.047 22.9702C238.047 25.9167 238.047 28.5722 238.047 30.8212C238.047 31.9342 238.047 32.941 238.047 33.8323C238.047 34.2941 238.047 34.6913 238.047 35.0654C238.066 35.3967 238.176 35.7163 238.365 35.989C238.634 36.38 239.04 36.6566 239.502 36.7649C239.82 36.8295 239.996 36.8157 239.996 36.8295C239.829 36.8581 239.659 36.8581 239.492 36.8295C239.008 36.7366 238.577 36.4625 238.287 36.0629C238.078 35.7718 237.954 35.4278 237.931 35.07C237.931 34.6821 237.931 34.2757 237.931 33.8323C237.931 32.941 237.931 31.9342 237.931 30.8212C237.931 28.586 237.931 25.9305 237.904 22.9702C237.904 21.4924 237.904 19.9453 237.904 18.352C237.904 17.9502 237.904 17.5438 237.904 17.1374V16.5417C237.897 16.3245 237.917 16.1073 237.964 15.8951C238.074 15.4588 238.326 15.0715 238.681 14.794C239.035 14.5164 239.472 14.3645 239.922 14.3619C240.373 14.3447 240.818 14.4726 241.192 14.7267C241.556 14.9853 241.826 15.3547 241.963 15.7797C242.023 15.99 242.054 16.2075 242.055 16.4262V17.0404C242.055 17.4515 242.055 17.8533 242.055 18.255C242.055 19.8622 242.055 21.4093 242.055 22.8733C242.055 25.8197 242.055 28.4752 242.028 30.7243C242.028 31.8372 242.028 32.8486 242.028 33.7353C242.028 34.1972 242.028 34.5897 242.028 34.973C242.023 35.3292 241.92 35.6773 241.732 35.9798C241.582 36.2108 241.383 36.4062 241.149 36.5522C240.915 36.6982 240.653 36.7913 240.379 36.8249C240.216 36.8659 240.047 36.8784 239.88 36.8619Z" fill="#263238"/>
<path d="M246.28 36.8617C246.28 36.8617 246.456 36.8617 246.77 36.7693C247.162 36.6603 247.508 36.4246 247.753 36.0989C247.997 35.7731 248.128 35.3756 248.123 34.9682C248.123 34.5849 248.123 34.1738 248.123 33.7305C248.123 32.8438 248.123 31.8324 248.123 30.7194C248.123 28.4842 248.123 25.8287 248.123 22.8684C248.123 21.3952 248.123 19.8481 248.123 18.2502V17.0402C248.15 16.6427 248.122 16.2433 248.04 15.8533C247.915 15.4762 247.672 15.1493 247.346 14.9213C247.021 14.6933 246.63 14.5764 246.233 14.5878C245.836 14.5992 245.453 14.7384 245.141 14.9847C244.829 15.2309 244.605 15.5712 244.502 15.9549C244.445 16.3525 244.428 16.7547 244.451 17.1557C244.451 17.5621 244.451 17.9685 244.451 18.3703C244.451 19.9728 244.451 21.5199 244.451 22.9885C244.451 25.9349 244.451 28.5904 244.424 30.8395C244.424 31.9525 244.424 32.9593 244.424 33.8506C244.424 34.3124 244.424 34.7096 244.424 35.0836C244.447 35.4141 244.557 35.7326 244.742 36.0073C245.013 36.3989 245.42 36.6755 245.883 36.7831C246.197 36.8478 246.377 36.8339 246.373 36.8478C246.206 36.8764 246.036 36.8764 245.869 36.8478C245.452 36.768 245.072 36.552 244.791 36.2336C244.509 35.9152 244.341 35.5124 244.313 35.0883C244.313 34.7003 244.313 34.2939 244.313 33.8506C244.313 32.9593 244.313 31.9525 244.313 30.8395C244.313 28.6043 244.313 25.9488 244.29 22.9885C244.29 21.5107 244.29 19.9636 244.29 18.3703V16.523C244.281 16.3057 244.301 16.0883 244.35 15.8764C244.46 15.4397 244.712 15.0519 245.066 14.7743C245.421 14.4967 245.858 14.345 246.308 14.3432C246.758 14.3254 247.202 14.4534 247.573 14.708C247.94 14.9649 248.212 15.3347 248.349 15.761C248.41 15.971 248.44 16.1889 248.437 16.4075V18.2548C248.437 19.862 248.437 21.4091 248.437 22.873C248.437 25.8195 248.437 28.475 248.414 30.724C248.414 31.837 248.414 32.8484 248.414 33.7351C248.414 34.1969 248.414 34.5895 248.414 34.9728C248.409 35.3298 248.305 35.6784 248.114 35.9796C247.854 36.4004 247.439 36.7023 246.959 36.8201C246.739 36.8862 246.507 36.9004 246.28 36.8617Z" fill="#263238"/>
<path d="M253.527 36.8619C253.527 36.8619 253.703 36.8619 254.017 36.7695C254.409 36.6605 254.755 36.4248 255 36.0991C255.244 35.7733 255.375 35.3758 255.37 34.9684C255.37 34.5851 255.37 34.1741 255.37 33.7307C255.37 32.844 255.37 31.8326 255.37 30.7196C255.37 28.4844 255.37 25.8289 255.342 22.8686C255.342 21.3954 255.342 19.8483 255.342 18.2504V17.0404C255.369 16.6429 255.341 16.2435 255.259 15.8536C255.134 15.4764 254.891 15.1495 254.565 14.9215C254.24 14.6936 253.85 14.5766 253.452 14.588C253.055 14.5994 252.672 14.7386 252.361 14.9849C252.049 15.2312 251.825 15.5714 251.722 15.9552C251.665 16.3528 251.647 16.7548 251.666 17.1559V18.352C251.666 19.9545 251.666 21.5017 251.666 22.9703C251.666 25.9167 251.666 28.5722 251.638 30.8212C251.638 31.9342 251.638 32.941 251.638 33.8323C251.638 34.2941 251.638 34.6913 251.638 35.0654C251.66 35.3963 251.77 35.7153 251.957 35.989C252.227 36.3793 252.631 36.6558 253.093 36.7649C253.412 36.8295 253.587 36.8157 253.587 36.8295C253.421 36.8582 253.25 36.8582 253.084 36.8295C252.666 36.7498 252.287 36.5338 252.005 36.2154C251.724 35.897 251.556 35.4941 251.528 35.07C251.528 34.6821 251.528 34.2757 251.528 33.8323C251.528 32.941 251.528 31.9342 251.528 30.8212C251.528 28.586 251.528 25.9305 251.528 22.9703C251.528 21.4924 251.528 19.9453 251.528 18.352V16.5047C251.518 16.2875 251.539 16.07 251.588 15.8582C251.697 15.4214 251.949 15.0337 252.304 14.756C252.658 14.4784 253.095 14.3267 253.546 14.3249C253.995 14.3036 254.438 14.431 254.807 14.6874C255.176 14.9437 255.45 15.3147 255.587 15.7427C255.648 15.9528 255.677 16.1706 255.675 16.3893V18.2366C255.675 19.8437 255.675 21.3908 255.675 22.8548C255.675 25.8012 255.675 28.4567 255.675 30.7058C255.675 31.8188 255.675 32.8302 255.675 33.7169C255.675 34.1787 255.675 34.5712 255.675 34.9545C255.67 35.3115 255.566 35.6601 255.375 35.9613C255.115 36.3821 254.7 36.684 254.22 36.8018C253.997 36.8763 253.76 36.8969 253.527 36.8619Z" fill="#263238"/>
<path d="M246.651 0.00838538C246.791 -0.00279513 246.931 -0.00279513 247.071 0.00838538L248.313 0.0407128C248.586 0.0407128 248.895 0.0407129 249.237 0.0822769L250.331 0.239297L251.611 0.419407L253.038 0.775011C255.497 1.39557 257.837 2.41593 259.965 3.79533C263.116 5.79702 265.767 8.49404 267.714 11.6794C269.661 14.8648 270.852 18.4539 271.197 22.1713C271.292 23.2847 271.314 24.4032 271.261 25.5195C271.224 26.0875 271.233 26.6602 271.15 27.2328C271.067 27.8055 270.979 28.3782 270.892 28.96C270.46 31.333 269.682 33.6297 268.583 35.7766C267.398 38.0265 265.89 40.0912 264.108 41.9049C262.22 43.7662 260.057 45.3241 257.693 46.5232C255.248 47.7765 252.601 48.5895 249.874 48.9246C249.183 49.0297 248.486 49.0883 247.787 49.1001C247.086 49.1541 246.383 49.1664 245.681 49.1371C241.177 48.9632 236.808 47.5558 233.05 45.0684L233.304 45.0961L224.742 48.5321L224.238 48.7353L224.382 48.2088L226.898 39.0555L226.94 39.2772C224.617 36.1977 223.052 32.6141 222.373 28.8169C222.045 27.0419 221.935 25.2336 222.045 23.432C222.061 22.5698 222.141 21.71 222.285 20.8597C222.354 20.4394 222.419 20.0192 222.483 19.6035C222.548 19.1879 222.682 18.7953 222.779 18.3935C224.22 12.778 227.603 7.8546 232.33 4.4973C234.077 3.24112 235.991 2.2325 238.015 1.50007L239.294 1.03825L240.518 0.710356L241.626 0.433263C241.986 0.36399 242.328 0.327043 242.651 0.280861C243.298 0.197733 243.866 0.0868955 244.365 0.0591862L245.625 0.017622H246.392C246.48 0.0104651 246.568 0.0104651 246.655 0.017622C246.57 0.0425653 246.481 0.0550103 246.392 0.0545687L245.63 0.114604L244.378 0.197733C243.884 0.239297 243.321 0.363989 242.679 0.456354C238.034 1.2609 233.723 3.39549 230.267 6.60139C226.811 9.80729 224.359 13.9468 223.209 18.5182C223.116 18.9154 222.996 19.308 222.922 19.7097C222.848 20.1115 222.797 20.5272 222.737 20.9428C222.599 21.778 222.523 22.6224 222.511 23.469C222.414 25.2284 222.531 26.993 222.858 28.7245C223.538 32.4402 225.082 35.9441 227.365 38.9539L227.439 39.0601L227.406 39.1802C226.6 42.1389 225.767 45.1931 224.908 48.3427L224.548 48.0195C227.337 46.8957 230.19 45.7473 233.105 44.5743L233.239 44.5189L233.359 44.5974C237.036 47.0248 241.306 48.3999 245.709 48.5737C246.395 48.6006 247.083 48.5883 247.768 48.5367C248.45 48.5262 249.131 48.4692 249.805 48.3658C252.472 48.0425 255.061 47.2514 257.453 46.029C259.766 44.8603 261.886 43.3432 263.738 41.5309C265.477 39.7505 266.95 37.7284 268.112 35.5272C269.203 33.4275 269.981 31.1792 270.421 28.8538C270.507 28.2842 270.595 27.7208 270.684 27.1636C270.767 26.6048 270.758 26.0413 270.799 25.4871C270.853 24.391 270.834 23.2926 270.744 22.199C270.42 18.5382 269.265 14.9996 267.367 11.8522C265.47 8.70475 262.88 6.03143 259.794 4.03548C257.704 2.65642 255.406 1.62403 252.987 0.978214L251.578 0.604137L250.313 0.396316L249.223 0.216206C248.89 0.17926 248.586 0.170024 248.299 0.151551L247.062 0.0591862C246.923 0.054475 246.786 0.0374742 246.651 0.00838538Z" fill="#263238"/>
</svg>
