<svg width="261" height="222" viewBox="0 0 261 222" fill="none" xmlns="http://www.w3.org/2000/svg">
<path opacity="0.24" d="M209.826 218.518C229.604 218.518 245.638 214.954 245.638 210.558C245.638 206.161 229.604 202.597 209.826 202.597C190.048 202.597 174.015 206.161 174.015 210.558C174.015 214.954 190.048 218.518 209.826 218.518Z" fill="#301549"/>
<path opacity="0.24" d="M98.8513 218.518C118.629 218.518 134.663 214.954 134.663 210.557C134.663 206.161 118.629 202.597 98.8513 202.597C79.0731 202.597 63.0398 206.161 63.0398 210.557C63.0398 214.954 79.0731 218.518 98.8513 218.518Z" fill="#301549"/>
<path d="M196.863 197.462C196.863 197.462 193.96 201.772 192.888 202.701C191.816 203.63 186.016 207.006 184.719 207.473C183.421 207.94 183.52 208.754 183.856 209.452C184.191 210.15 186.148 211.651 191.525 211.431C196.901 211.211 197.374 211.2 199.37 210.739C201.365 210.277 206.973 210.623 206.973 210.623C206.973 210.623 210.711 210.502 211.553 209.573C212.394 208.644 212.069 202.003 212.069 202.003L196.863 197.462Z" fill="white" stroke="#263238" stroke-linecap="round" stroke-linejoin="round"/>
<path d="M212.069 207.055C210.794 207.209 208.875 207.495 206.209 208.061C200.711 209.221 200.101 209.573 192.151 209.711C189.276 209.804 186.404 209.433 183.647 208.611C183.644 208.908 183.716 209.201 183.855 209.463C184.191 210.162 186.148 211.662 191.525 211.443C196.901 211.223 197.374 211.212 199.37 210.744C201.365 210.277 206.973 210.634 206.973 210.634C206.973 210.634 210.711 210.513 211.552 209.584C211.844 209.249 211.992 208.232 212.069 207.055Z" fill="white" stroke="#263238" stroke-linecap="round" stroke-linejoin="round"/>
<path d="M216.561 199.909C216.107 201.373 215.488 202.78 214.714 204.103C213.378 206.429 209.343 208.991 206.973 210.623C204.604 212.256 204.697 212.949 206.423 213.763C208.15 214.576 214.813 214.928 217.034 214.813C219.255 214.697 225.83 212.833 226.781 212.718C227.732 212.603 228.881 212.839 229.739 210.975C230.596 209.112 229.629 204.45 229.629 204.45C229.629 204.45 224.131 200.145 221.932 199.678C219.733 199.21 217.759 198.628 216.561 199.909Z" fill="white" stroke="#263238" stroke-linecap="round" stroke-linejoin="round"/>
<path d="M229.728 210.981C229.963 210.384 230.08 209.747 230.074 209.106C228.826 209.447 227.617 209.919 226.468 210.513C224.455 211.679 222.069 212.96 216.572 213.075C212.765 213.073 208.964 212.797 205.197 212.251C204.928 212.855 205.373 213.295 206.39 213.768C208.122 214.587 214.78 214.933 217.001 214.818C219.222 214.703 225.797 212.839 226.748 212.723C227.699 212.608 228.892 212.839 229.728 210.981Z" fill="white" stroke="#263238" stroke-linecap="round" stroke-linejoin="round"/>
<path d="M193.047 135.663C193.047 135.663 194.697 158.412 195.543 163.882C196.39 169.353 197.533 190.271 197.522 190.821C197.553 191.895 197.53 192.97 197.451 194.042C197.336 194.361 196.258 194.471 196.137 195.004C195.967 196.28 195.903 197.567 195.945 198.853C196.038 199.403 197.116 199.496 198.919 200.568C200.722 201.64 206.291 203.284 208.342 203.284C210.392 203.284 212.322 203.498 212.328 203.174C212.333 202.85 212.459 197.165 212.498 195.477C212.536 193.79 212.009 193.333 212.146 191.937C212.284 190.54 211.789 135.663 211.789 135.663L213.608 136.213C213.608 136.213 214.746 172.052 215.082 176.346C215.417 180.639 214.961 196.099 214.961 196.099C214.961 196.099 213.982 196.527 213.971 196.956C213.933 198.869 214.598 200.997 214.922 202.872C216.835 202.408 218.818 202.313 220.766 202.591C222.52 202.778 224.615 202.905 226.264 203.581C227.332 204.068 228.475 204.37 229.645 204.471C229.966 204.27 230.241 204.003 230.452 203.689C230.663 203.375 230.806 203.019 230.871 202.646C231.093 200.882 230.795 199.092 230.013 197.495C228.985 195.351 228.694 193.954 228.881 190.524C229.068 187.093 231.63 173.129 231.74 168.533C231.85 163.937 232.465 150.507 232.603 149.215C232.74 147.923 233.488 133.657 233.488 133.657L231.377 130.715L193.003 132.106L193.047 135.663Z" fill="#8B55C6" stroke="#263238" stroke-linecap="round" stroke-linejoin="round"/>
<path d="M201.283 137.934L211.844 145.515H211.877C211.827 139.655 211.789 135.663 211.789 135.663L213.609 136.213C213.609 136.213 213.73 140.023 213.905 145.306L226.072 137.499L213.158 131.403L203.96 131.738L201.283 137.934Z" fill="#263238" stroke="#263238" stroke-linecap="round" stroke-linejoin="round"/>
<path d="M202.866 42.9184L187.946 49.4001C187.946 49.4001 177.726 72.4901 177.445 74.5132C177.165 76.5363 179.391 77.4599 181.145 78.4C182.899 79.3401 190.832 78.9938 190.832 78.9938L187.44 136.098C187.44 136.098 190.843 137.395 195.076 138.577C199.309 139.759 206.357 141.161 206.357 141.161L207.919 134.91L209.309 141.507C209.309 141.507 220.794 141.276 225.203 139.858C229.612 138.44 240.003 134.201 240.003 134.201L237.584 93.7219L236.951 84.9972L237.424 74.5022C237.424 74.5022 242.652 73.3257 242.685 71.9128C242.718 70.4999 239.623 49.1747 239.074 47.8773C238.524 46.5798 233.455 44.9305 232.867 44.8096C232.278 44.6886 220.997 41.1537 220.997 41.1537C220.997 41.1537 208.127 40.329 202.866 42.9184Z" fill="white" stroke="#263238" stroke-linecap="round" stroke-linejoin="round"/>
<path d="M205.774 39.8562C205.774 39.8562 203.751 40.3235 203.383 40.7962C203.015 41.269 199.925 47.2834 199.925 47.2834L203.086 48.9327L199.705 51.9949L208.446 68.3833L225.038 51.5496L221.536 49.3121L224.675 46.4808C224.675 46.4808 223.136 41.2965 222.102 39.9991C221.468 39.2128 220.676 38.5685 219.777 38.1079L205.774 39.8562Z" fill="white" stroke="#263238" stroke-linecap="round" stroke-linejoin="round"/>
<path d="M204.609 38.9106L205.197 44.3368L208.963 61.3134L219.673 42.8029L220.635 36.794L204.422 36.6731L204.609 38.9106Z" fill="white" stroke="#263238" stroke-linecap="round" stroke-linejoin="round"/>
<path d="M204.296 16.0406C204.296 16.0406 200.794 19.1028 200.997 21.2249C201.221 22.876 201.623 24.4981 202.196 26.0628L202.47 29.5977L203.301 29.3613L202.954 23.8197L207.171 20.4002L214.719 20.7631C214.719 20.7631 216.918 23.0006 217.732 23.5943C218.545 24.1881 220.415 25.48 220.415 25.48L221.019 30.076L221.97 29.8396C221.97 29.8396 222.267 27.1293 222.399 26.6565C222.531 26.1837 222.922 19.2292 222.834 17.8163C222.746 16.4035 217.985 12.3902 213.147 11.6865C208.309 10.9828 205.417 13.3358 204.444 14.5123C203.471 15.6888 204.296 16.0406 204.296 16.0406Z" fill="#263238" stroke="#263238" stroke-linecap="round" stroke-linejoin="round"/>
<path d="M207.781 18.751C207.781 18.751 202.96 22.7587 202.938 23.8198C202.916 24.8808 202.894 36.3159 203.488 37.3769C204.081 38.438 207.38 43.2759 209.018 44.216C210.656 45.156 212.317 45.3979 213.746 44.3369C215.175 43.2759 219.793 38.4435 220.662 36.7942C221.531 35.1449 221.173 24.529 221.173 24.529C221.173 24.529 221.723 25.2382 219.887 23.7043C218.714 22.6813 217.81 21.3864 217.254 19.933C217.254 19.933 209.76 20.4003 207.781 18.751Z" fill="white" stroke="#263238" stroke-linecap="round" stroke-linejoin="round"/>
<path d="M221.146 24.5291C221.146 24.5291 221.146 24.584 221.146 24.672C221.327 24.76 221.146 24.5291 221.146 24.5291Z" fill="white" stroke="#263238" stroke-linecap="round" stroke-linejoin="round"/>
<path d="M208.991 44.2158C210.64 45.1614 212.289 45.3978 213.719 44.3368C215.148 43.2757 219.766 38.4433 220.635 36.794C221.443 35.2547 221.184 25.9307 221.151 24.6993C220.864 24.5436 220.593 24.3594 220.343 24.1495L220.415 25.5239L220.189 35.5461L218.144 37.0744C215.827 35.5945 213.131 34.8173 210.382 34.8369C205.983 34.9523 204.422 36.7226 204.422 36.7226L202.938 23.8691C202.938 24.9302 202.894 36.3652 203.488 37.4263C204.081 38.4873 207.352 43.3032 208.991 44.2158Z" fill="#263238" stroke="#263238" stroke-linecap="round" stroke-linejoin="round"/>
<path d="M209.568 29.0095V35.0239C209.749 35.2791 210.005 35.4724 210.3 35.5777C210.595 35.6829 210.915 35.6949 211.217 35.6122C211.486 35.5259 211.729 35.3719 211.921 35.1649C212.114 34.9579 212.25 34.7049 212.317 34.4302" fill="white"/>
<path d="M209.568 29.0095V35.0239C209.749 35.2791 210.005 35.4724 210.3 35.5777C210.595 35.6829 210.915 35.6949 211.217 35.6122C211.486 35.5259 211.729 35.3719 211.921 35.1649C212.114 34.9579 212.25 34.7049 212.317 34.4302" stroke="#263238" stroke-linecap="round" stroke-linejoin="round"/>
<path d="M221.294 28.4212C221.294 28.4212 221.965 24.8863 222.905 25.1227C223.845 25.3591 224.158 27.3602 223.394 29.8341C222.63 32.3081 221.327 32.3136 221.327 32.3136L221.294 28.4212Z" fill="white" stroke="#263238" stroke-linecap="round" stroke-linejoin="round"/>
<path d="M203.339 28.4213C203.339 28.4213 202.828 24.8808 201.871 25.1227C200.914 25.3646 200.524 27.3602 201.178 29.8397C201.833 32.3191 203.13 32.3136 203.13 32.3136L203.339 28.4213Z" fill="white" stroke="#263238" stroke-linecap="round" stroke-linejoin="round"/>
<path d="M213.273 27.3603C213.273 27.3603 216.121 26.8875 217.77 27.3603" stroke="#263238" stroke-linecap="round" stroke-linejoin="round"/>
<path d="M208.661 27.1238C208.661 27.1238 206.203 25.8264 204.884 26.651" stroke="#263238" stroke-linecap="round" stroke-linejoin="round"/>
<path d="M216.292 29.8342C216.292 30.4884 215.973 31.0162 215.615 31.0162C215.258 31.0162 214.978 30.4664 214.989 29.8342C215 29.202 215.307 28.6577 215.67 28.6577C216.033 28.6577 216.308 29.1855 216.292 29.8342Z" fill="#263238"/>
<path d="M208.006 29.8342C208.006 30.4829 207.693 31.0107 207.33 31.0107C206.967 31.0107 206.692 30.4609 206.709 29.8342C206.725 29.2075 207.022 28.6577 207.385 28.6577C207.748 28.6577 208.023 29.1855 208.006 29.8342Z" fill="#263238"/>
<path d="M208.897 37.7342C209.75 38.0656 210.671 38.1852 211.581 38.0828C212.491 37.9803 213.362 37.6589 214.12 37.146" stroke="white" stroke-linecap="round" stroke-linejoin="round"/>
<path d="M191.849 55.8875L193.103 67.1576L194.125 60.0711" stroke="#263238" stroke-linecap="round" stroke-linejoin="round"/>
<path d="M227.996 59.4717C227.612 60.2809 227.328 61.1338 227.149 62.0116C226.885 64.0457 228.645 72.0942 228.645 72.0942" stroke="#263238" stroke-linecap="round" stroke-linejoin="round"/>
<path d="M230.778 53.8533C230.778 53.8533 230.173 54.9528 229.458 56.3657" stroke="#263238" stroke-linecap="round" stroke-linejoin="round"/>
<path d="M230.816 73.694L236.017 69.8457" stroke="#263238" stroke-linecap="round" stroke-linejoin="round"/>
<path d="M236.253 73.7051L214.84 72.9519L202.718 80.4616L233.691 87.2292C233.691 87.2292 239.854 86.1297 241.388 84.5464C242.922 82.9631 243.554 79.0488 243.587 77.251C243.62 75.4533 242.438 70.7034 242.438 70.7034" fill="white"/>
<path d="M236.253 73.7051L214.84 72.9519L202.718 80.4616L233.691 87.2292C233.691 87.2292 239.854 86.1297 241.388 84.5464C242.922 82.9631 243.554 79.0488 243.587 77.251C243.62 75.4533 242.438 70.7034 242.438 70.7034" stroke="#263238" stroke-linecap="round" stroke-linejoin="round"/>
<path d="M183.438 70.3846L218.293 67.4434L219.909 74.5188L185.543 87.3612C185.543 87.3612 180.546 88.5432 178.363 85.4756C177.434 84.2439 176.771 82.8318 176.418 81.3295C176.065 79.8272 176.029 78.2677 176.313 76.7508C176.863 74.2769 179.029 71.5666 179.029 71.5666" fill="white"/>
<path d="M183.438 70.3846L218.293 67.4434L219.909 74.5188L185.543 87.3612C185.543 87.3612 180.546 88.5432 178.363 85.4756C177.434 84.2439 176.771 82.8318 176.418 81.3295C176.065 79.8272 176.029 78.2677 176.313 76.7508C176.863 74.2769 179.029 71.5666 179.029 71.5666" stroke="#263238" stroke-linecap="round" stroke-linejoin="round"/>
<path d="M218.512 68.268C218.512 68.268 223.84 68.1525 225.351 69.329C226.863 70.5055 230.816 73.6941 230.816 73.6941L219.694 73.3533L218.512 68.268Z" fill="white" stroke="#263238" stroke-linecap="round" stroke-linejoin="round"/>
<path d="M198.012 69.3015C198.012 69.3015 191.415 66.5087 190.425 66.6186C189.436 66.7286 186.027 70.0492 186.027 70.0492L198.012 69.3015Z" fill="white" stroke="#263238" stroke-linecap="round" stroke-linejoin="round"/>
<path d="M207.677 126.719L207.71 130.182" stroke="#263238" stroke-linecap="round" stroke-linejoin="round"/>
<path d="M207.605 83.469L207.649 123.92" stroke="#263238" stroke-linecap="round" stroke-linejoin="round"/>
<path d="M230.486 107.499C231.072 107.354 231.639 107.14 232.174 106.861" stroke="#263238" stroke-linecap="round" stroke-linejoin="round"/>
<path d="M217.331 106.108L217.391 108.258C217.391 108.258 223.653 108.604 228.326 107.928" stroke="#263238" stroke-linecap="round" stroke-linejoin="round"/>
<path d="M219.282 105.465C219.282 105.465 226.704 105.789 232.015 104.503" stroke="#263238" stroke-linecap="round" stroke-linejoin="round"/>
<path d="M190.848 105.465C190.848 105.465 194.697 107.933 201.475 107.076" stroke="#263238" stroke-linecap="round" stroke-linejoin="round"/>
<path d="M191.112 103.315C191.112 103.315 195.153 105.679 201.53 104.607" stroke="#263238" stroke-linecap="round" stroke-linejoin="round"/>
<path opacity="0.3" d="M6.66162 44.9582H13.1213L16.5243 35.2714L19.757 51.4234L22.8136 29.8287L25.8758 47.3386L28.938 39.1802L31.8242 44.282H37.9486L40.4995 16.9038L43.897 64.1723L47.1296 35.1009L49.8509 51.5883L53.078 44.282H131.122L134.014 56.1843L137.411 33.3967L140.133 49.2133L143.195 36.4588L146.428 44.282H151.694L155.097 49.0429L158.33 32.7205L161.216 63.4906L164.449 19.6251L167.341 48.8725L170.738 31.6979L173.459 44.1115H179.413" stroke="black" stroke-linecap="round" stroke-linejoin="round"/>
<path opacity="0.3" d="M6.66162 102.419H13.1213L16.5243 92.7268L19.757 108.879L22.8136 87.2842L25.8758 104.794L28.938 96.6356L31.8242 101.737H37.9486L40.4995 74.3647L43.897 121.628L47.1296 92.5564L49.8509 109.049L53.078 101.737H131.122L134.014 113.64L137.411 90.8521L140.133 106.669L143.195 93.9143L146.428 101.737H151.694L155.097 106.498L158.33 90.1759L161.216 120.952L164.449 77.0806L167.341 106.328L170.738 89.1533L173.459 101.567H179.413" stroke="black" stroke-linecap="round" stroke-linejoin="round"/>
<path d="M31.7417 152.882C15.2488 152.882 4.13816 146.703 1.74669 136.054C-1.00212 123.734 9.1135 104.937 37.877 92.7984C92.4409 69.7689 147.428 79.2523 164.553 102.562C167.589 106.629 169.921 111.177 171.453 116.015L166.978 117.389C165.596 113.051 163.496 108.976 160.765 105.333C153.036 94.816 135.79 87.1908 114.618 84.9918C90.7806 82.4794 64.1667 86.784 39.6803 97.1195C20.6695 105.146 3.09361 120.759 6.29872 135.053C8.28886 143.915 18.7893 148.797 34.4025 148.17C49.6804 147.533 66.6076 144.267 84.7003 138.467L86.1297 142.926C67.6357 148.852 50.2962 152.189 34.595 152.821C33.6384 152.865 32.6818 152.882 31.7417 152.882Z" fill="#263238" stroke="#263238" stroke-linecap="round" stroke-linejoin="round"/>
<path d="M48.856 127.967C48.856 127.967 53.5124 141.93 66.6243 150.815C81.5827 160.791 98.5112 167.436 116.262 170.298C135.158 173.261 143.75 172.134 147.995 166.208C152.239 160.282 158.572 147.45 151.095 119.951C143.618 92.4519 141.084 94.2826 141.084 94.2826C140.126 89.5579 137.765 85.2318 134.311 81.869C128.533 76.2284 118.236 72.5615 118.236 72.5615C118.236 72.5615 113.865 77.7788 104.695 77.7788C95.5253 77.7788 84.8104 73.9689 78.0373 74.2548C71.2643 74.5407 62.3856 83.5623 55.6125 105.14C48.8395 126.719 48.856 127.967 48.856 127.967Z" fill="#9955B9"/>
<path opacity="0.58" d="M135.443 153.338C136.142 151.596 136.488 150.205 134.399 146.741C132.31 143.278 125.35 137.34 124.652 131.771C123.953 126.202 123.607 122.024 126.048 125.174C128.489 128.324 136.84 142.926 137.884 133.877C138.929 124.828 129.528 115.773 128.83 113.684C128.132 111.595 141.364 113.684 139.622 108.115C137.879 102.546 129.874 102.199 127.785 97.323C125.696 92.4466 125.696 90.0112 123.607 88.6203C122.04 87.5757 106.526 79.6482 96.8997 77.0753C95.4098 76.8444 93.9145 76.575 92.4411 76.2946C91.591 76.1922 90.7299 76.3514 89.9727 76.7509C89.9727 76.7509 94.0189 85.1348 96.8062 87.5702C99.5935 90.0057 107.598 90.0057 106.9 93.8375C106.202 97.6694 106.553 107.065 110.033 111.589C113.513 116.114 117.692 110.897 114.558 128.632C111.424 146.367 114.558 152.305 115.603 154.74C116.647 157.176 118.038 163.097 109.687 163.789C104.508 164.224 104.008 166.258 104.877 167.907C108.599 168.875 112.403 169.677 116.262 170.282C131.018 172.596 139.495 172.415 144.52 169.408C144.542 168.525 144.29 167.657 143.8 166.923C141.013 162.387 134.751 155.076 135.443 153.338Z" fill="white"/>
<path opacity="0.58" d="M70.3462 89.2854C69.9008 93.3151 60.8023 102.826 54.3701 109.077C48.856 126.867 48.856 127.967 48.856 127.967C48.856 127.967 53.5124 141.931 66.6243 150.815C73.8482 155.655 81.5685 159.709 89.6538 162.91C88.8841 160.782 87.4822 158.248 84.9808 156.818C80.1044 154.031 76.9708 149.16 73.4908 144.982C70.0108 140.804 67.9217 141.848 65.1344 138.714C62.3471 135.581 65.1344 126.185 69.6645 124.789C74.1945 123.393 73.8371 119.22 74.5353 114.695C75.2335 110.171 80.4783 99.0547 84.2826 96.5917C88.087 94.1288 89.5054 85.4535 89.5054 85.4535C90.7533 81.4018 90.1486 77.6139 87.9165 75.3874C84.2221 74.6782 80.8081 74.112 78.0483 74.2274C73.1994 74.4858 71.0443 83.0181 70.3462 89.2854Z" fill="white"/>
<path d="M48.856 127.967C48.856 127.967 53.5124 141.93 66.6243 150.815C81.5827 160.791 98.5112 167.436 116.262 170.298C135.158 173.261 143.75 172.134 147.995 166.208C152.239 160.282 158.572 147.45 151.095 119.951C143.618 92.4519 141.084 94.2826 141.084 94.2826C140.126 89.5579 137.765 85.2318 134.311 81.869C128.533 76.2284 118.236 72.5615 118.236 72.5615C118.236 72.5615 113.865 77.7788 104.695 77.7788C95.5253 77.7788 84.8104 73.9689 78.0373 74.2548C71.2643 74.5407 62.3856 83.5623 55.6125 105.14C48.8395 126.719 48.856 127.967 48.856 127.967Z" stroke="#263238" stroke-linecap="round" stroke-linejoin="round"/>
<path d="M106.405 86.1023C106.405 86.1023 110.897 91.2865 115.608 96.1409C118.159 98.7688 122.513 110.154 120.836 118.104C119.16 126.053 117.906 137.142 121.254 143.206C124.602 149.27 123.975 156.175 127.532 160.568C131.089 164.96 135.482 165.378 135.9 169.562" stroke="#263238" stroke-linecap="round" stroke-linejoin="round"/>
<path d="M117.07 97.7297C117.07 97.7297 121.325 99.7913 123.25 102.128C125.586 105.023 128.824 107.053 132.447 107.895C136.702 108.857 140.27 112.293 141.243 115.443" stroke="#263238" stroke-linecap="round" stroke-linejoin="round"/>
<path d="M135.465 132.739C135.328 131.502 133.266 127.241 130.111 124.778C126.955 122.315 126.543 119.28 125.443 117.505C124.344 115.729 121.188 115.443 121.188 115.443" stroke="#263238" stroke-linecap="round" stroke-linejoin="round"/>
<path d="M119.132 131.914C119.132 131.914 119.544 133.838 124.762 136.994C129.979 140.15 130.809 144.267 132.035 146.604" stroke="#263238" stroke-linecap="round" stroke-linejoin="round"/>
<path d="M128.055 139.875C128.055 139.875 128.742 144.273 129.561 146.191" stroke="#263238" stroke-linecap="round" stroke-linejoin="round"/>
<path d="M121.254 143.206C121.254 143.206 120.094 143.855 119.819 151.953C119.628 157.348 120.858 162.698 123.387 167.467" stroke="#263238" stroke-linecap="round" stroke-linejoin="round"/>
<path d="M123.25 147.835C124.057 149.711 125.119 151.466 126.405 153.052C128.604 155.801 135.053 158.132 136.301 158.682" stroke="#263238" stroke-linecap="round" stroke-linejoin="round"/>
<path d="M113.503 94.0298C113.503 94.0298 112.678 96.0914 112.271 100.896C111.864 105.701 113.92 107.62 113.92 107.62" stroke="#263238" stroke-linecap="round" stroke-linejoin="round"/>
<path d="M83.5183 75.5745C83.5183 75.5745 85.6514 83.1997 82.6002 93.5682C79.5491 103.937 68.5758 112.777 63.6994 118.263C58.823 123.75 56.3821 131.073 58.5152 135.949C60.6482 140.826 64.3097 148.759 76.8113 152.442" stroke="#263238" stroke-linecap="round" stroke-linejoin="round"/>
<path d="M80.4672 99.0547C80.4672 99.0547 81.99 100.885 80.4672 108.813C78.9443 116.741 82.2979 122.227 82.2979 122.227" stroke="#263238" stroke-linecap="round" stroke-linejoin="round"/>
<path d="M59.4278 124.976C59.4278 124.976 55.464 128.632 54.8538 131.986C54.2436 135.339 56.0743 138.412 56.0743 138.412" stroke="#263238" stroke-linecap="round" stroke-linejoin="round"/>
<path d="M67.3555 147.841C67.3555 147.841 71.0169 152.722 75.6019 155.163" stroke="#263238" stroke-linecap="round" stroke-linejoin="round"/>
<path d="M141.084 94.2553C140.126 89.5305 137.765 85.2045 134.311 81.8417C128.533 76.2011 118.236 72.5342 118.236 72.5342C118.236 72.5342 113.865 77.7514 104.695 77.7514C103.629 77.7514 102.54 77.6964 101.446 77.6085C99.9014 79.8075 99.1867 82.2375 100.182 84.6619C100.182 84.6619 100.732 86.4981 103.425 87.4822C106.119 88.4663 108.219 86.0748 111.325 87.2018C114.432 88.3288 115.553 91.1491 122.87 91.5999C130.188 92.0507 130.21 91.8858 132.041 93.5736C133.871 95.2613 138.401 96.5093 141.084 94.2553Z" fill="#C4C4C4" stroke="#263238" stroke-linecap="round" stroke-linejoin="round"/>
<path d="M51.6652 79.7195C51.6652 79.7195 47.4321 90.4453 47.4321 94.8159C47.4321 99.1865 45.7443 118.511 46.448 124.86C47.1517 131.21 52.7922 128.527 56.3437 124.575C59.8952 120.622 60.8572 116.394 67.4819 110.193C74.1065 103.991 76.7729 101.578 79.4502 95.8055C82.1275 90.033 83.8868 85.4975 82.6553 82.1879C81.4238 78.8783 74.3704 72.3912 67.7458 71.2641C61.1211 70.1371 53.6389 72.6605 51.6652 79.7195Z" fill="#C4C4C4" stroke="#263238" stroke-linecap="round" stroke-linejoin="round"/>
<path d="M82.6554 82.188C82.6554 82.188 76.498 83.3371 73.5018 80.9676C70.5056 78.5981 66.3879 76.7234 65.5138 71.2313C64.6397 65.7392 63.7711 51.0166 67.6359 44.0291C71.5007 37.0416 76.498 34.0454 76.498 34.0454L69.1367 25.7385C68.7547 25.3157 68.4792 24.8079 68.333 24.2572C68.1869 23.7065 68.1743 23.1288 68.2963 22.5723C68.4184 22.0158 68.6716 21.4964 69.0348 21.0574C69.398 20.6184 69.8608 20.2725 70.3847 20.0485L70.4946 20.0045C71.142 19.7677 71.844 19.7232 72.5161 19.8763C73.1882 20.0295 73.8016 20.3737 74.2825 20.8676L80.7422 27.4153C80.9344 27.61 81.1642 27.7637 81.4176 27.8669C81.671 27.9701 81.9428 28.0206 82.2164 28.0155C82.49 28.0104 82.7596 27.9496 83.009 27.837C83.2584 27.7243 83.4822 27.5622 83.667 27.3603C83.9945 26.9997 84.1805 26.5327 84.1906 26.0457C84.2007 25.5586 84.0342 25.0843 83.7219 24.7104L77.6745 17.5031C77.3292 17.0936 77.095 16.6021 76.9944 16.0759C76.8939 15.5497 76.9304 15.0065 77.1005 14.4985C77.2705 13.9905 77.5684 13.5348 77.9655 13.1752C78.3626 12.8157 78.8455 12.5643 79.3678 12.4453H79.4888C80.1364 12.3289 80.8033 12.3855 81.4221 12.6095C82.0409 12.8334 82.5896 13.2168 83.0127 13.7207L90.4895 22.3849C90.7226 22.6539 91.0418 22.8338 91.3926 22.8939C91.7434 22.9541 92.1042 22.8908 92.4137 22.7148C92.6799 22.5667 92.8961 22.3429 93.0351 22.0719C93.1741 21.8008 93.2295 21.4946 93.1943 21.192L91.9079 10.0153C91.8451 9.50626 91.9039 8.9896 92.0796 8.50771C92.2552 8.02582 92.5426 7.59244 92.9182 7.24316C93.2937 6.89387 93.7468 6.63863 94.2401 6.49838C94.7335 6.35813 95.2531 6.33687 95.7562 6.43635H95.8827C96.4706 6.59564 97.0022 6.91648 97.4171 7.36249C97.832 7.80849 98.1137 8.36183 98.2301 8.95976L100.902 22.4344C100.902 22.4344 106.889 22.5609 111.259 37.5364C115.63 52.5119 112.134 61.1212 111.633 63.4907C111.133 65.8601 95.1405 73.1005 89.9177 76.7179C87.4017 78.4112 84.9775 80.2372 82.6554 82.188Z" fill="#9955B9" stroke="#263238" stroke-linecap="round" stroke-linejoin="round"/>
<path d="M57.5256 31.7143C56.8684 32.0704 56.3181 32.5954 55.9315 33.2352C55.5449 33.8749 55.3361 34.6063 55.3266 35.3537C55.1346 40.3055 54.4139 45.2227 53.177 50.0214C51.4464 57.2467 50.8162 64.6919 51.3078 72.1053C51.4343 74.8541 51.6816 79.7195 51.6816 79.7195C51.6816 79.7195 56.6735 75.4753 59.5432 73.6062C62.413 71.737 66.2229 74.3813 66.2229 74.3813C66.2229 74.3813 65.0189 65.3707 66.8881 60.8957C68.7573 56.4206 77.372 51.2913 80.7421 50.1643C84.1121 49.0373 85.7339 47.1736 84.7333 43.4297C83.7328 39.6858 81.3633 39.0316 79.868 39.433C78.3726 39.8343 75.6238 40.4335 71.5061 41.0822C67.3883 41.731 67.0145 39.8343 66.7616 36.8436C66.6957 36.0299 66.6572 35.2823 66.6352 34.6445C66.6193 33.5684 66.1926 32.539 65.4424 31.7673C64.6921 30.9956 63.6752 30.54 62.5999 30.4938C60.8303 30.4448 59.0794 30.866 57.5256 31.7143Z" fill="#999999" stroke="#263238" stroke-linecap="round" stroke-linejoin="round"/>
<path d="M82.558 48.5603C83.912 48.3018 84.6431 46.1725 84.1909 43.8045C83.7388 41.4365 82.2746 39.7265 80.9206 39.985C79.5666 40.2435 78.8355 42.3728 79.2877 44.7408C79.7398 47.1088 81.204 48.8188 82.558 48.5603Z" fill="#454545" stroke="#263238" stroke-linecap="round" stroke-linejoin="round"/>
<path d="M80.7476 27.4153L84.8103 31.4945" stroke="#263238" stroke-linecap="round" stroke-linejoin="round"/>
<path d="M90.5225 22.3628L93.4142 25.8483" stroke="#263238" stroke-linecap="round" stroke-linejoin="round"/>
<path d="M82.6553 82.1879C82.6553 82.1879 84.0407 63.9468 94.8875 54.2985C105.734 44.6502 125.273 41.4836 127.686 41.4451C128.489 41.4451 129.77 43.875 129.77 47.6849C129.77 51.4947 132.854 56.3271 131.051 57.1298C129.248 57.9324 119.748 59.1089 116.757 61.1156C113.766 63.1222 115.954 63.1222 117.758 67.7127C119.561 72.3032 119.764 73.5237 116.955 76.9322C114.146 80.3407 104.723 85.3546 97.7133 84.354C90.7038 83.3534 89.6922 79.3402 87.2678 80.3407C84.8433 81.3413 82.6553 82.1879 82.6553 82.1879Z" fill="#999999" stroke="#263238" stroke-linecap="round" stroke-linejoin="round"/>
<path d="M131.919 48.7625C132.848 53.0946 132.469 56.8495 131.051 57.1519C129.632 57.4542 127.752 54.1887 126.823 49.8565C125.894 45.5244 126.273 41.7695 127.686 41.4672C129.099 41.1648 130.99 44.4304 131.919 48.7625Z" fill="#454545" stroke="#263238" stroke-linecap="round" stroke-linejoin="round"/>
<path d="M109.11 71.1323C108.736 72.0807 108.436 73.0567 108.214 74.0516" stroke="#263238" stroke-linecap="round" stroke-linejoin="round"/>
<path d="M116.741 61.1377C114.113 63.1439 111.927 65.6704 110.319 68.5595" stroke="#263238" stroke-linecap="round" stroke-linejoin="round"/>
<path d="M98.9778 45.7607C99.4733 45.0929 100.013 44.4592 100.594 43.864" stroke="#263238" stroke-linecap="round" stroke-linejoin="round"/>
<path d="M92.0562 56.9758C92.0562 56.9758 94.4971 52.3743 97.114 48.405" stroke="#263238" stroke-linecap="round" stroke-linejoin="round"/>
<path d="M112.694 196.203C104.624 196.203 99.2581 194.598 96.6742 191.409C94.849 189.15 94.4752 186.148 95.6737 182.954C96.9436 179.529 101.776 174.251 110.033 167.269C116.081 162.167 121.826 157.923 121.886 157.923L123.86 160.617C117.626 165.174 100.973 178.286 98.8073 184.13C98.0322 186.23 98.1861 187.979 99.2746 189.325C100.979 191.431 106.691 194.559 125.779 191.788L126.257 195.087C121.768 195.781 117.236 196.153 112.694 196.203Z" fill="white" stroke="#263238" stroke-linecap="round" stroke-linejoin="round"/>
<path d="M113.788 187.929C111.672 187.929 109.55 187.847 107.444 187.671C91.468 186.34 83.5404 180.298 83.2051 169.199L86.5476 169.094C86.7346 175.389 89.2964 182.805 107.719 184.345C126.141 185.884 146.675 179.529 146.879 179.463L147.874 182.657C147.104 182.899 130.77 187.929 113.788 187.929Z" fill="white" stroke="#263238" stroke-linecap="round" stroke-linejoin="round"/>
<path d="M123.992 199.007C122.814 199.012 121.678 198.573 120.81 197.777C119.942 196.982 119.406 195.888 119.309 194.715C119.212 193.541 119.561 192.374 120.286 191.447C121.012 190.519 122.06 189.899 123.222 189.71C123.261 189.71 127.125 189.051 131.122 188.001C132.323 187.683 133.601 187.855 134.675 188.479C135.748 189.104 136.53 190.129 136.848 191.329C137.166 192.53 136.994 193.808 136.369 194.882C135.745 195.956 134.72 196.737 133.519 197.055C129.094 198.221 124.954 198.913 124.783 198.941C124.522 198.985 124.257 199.007 123.992 199.007Z" fill="#263238" stroke="#263238" stroke-linecap="round" stroke-linejoin="round"/>
<path d="M85.3272 176.527C84.428 176.527 83.5478 176.267 82.7922 175.78C82.0366 175.292 81.4375 174.598 81.0666 173.778C79.5657 170.48 79.5217 166.45 79.5217 165.999C79.603 164.815 80.1306 163.706 80.998 162.896C81.8655 162.086 83.008 161.636 84.1947 161.636C85.3814 161.636 86.524 162.086 87.3914 162.896C88.2588 163.706 88.7864 164.815 88.8677 165.999C88.8793 167.338 89.1172 168.665 89.5714 169.925C89.8885 170.637 90.0231 171.417 89.963 172.194C89.9028 172.971 89.6498 173.721 89.2268 174.376C88.8039 175.031 88.2243 175.57 87.5405 175.945C86.8567 176.32 86.0904 176.518 85.3107 176.522L85.3272 176.527Z" fill="#263238" stroke="#263238" stroke-linecap="round" stroke-linejoin="round"/>
<path d="M168.99 147.544C171.893 142.552 177.313 130.474 172.745 115.619C172.458 114.687 171.812 113.906 170.949 113.45C170.087 112.994 169.078 112.899 168.146 113.186C167.214 113.473 166.433 114.119 165.977 114.982C165.521 115.844 165.426 116.853 165.713 117.785C167.003 122.022 167.419 126.478 166.935 130.881C166.451 135.284 165.078 139.542 162.899 143.398C161.607 143.014 159.941 142.568 158.028 142.167C153.228 141.155 149.66 141.117 142.354 143.635C135.509 145.999 119.17 157.863 117.329 159.21C116.571 159.796 116.071 160.654 115.937 161.603C115.802 162.552 116.043 163.515 116.609 164.289C117.174 165.063 118.019 165.585 118.963 165.745C119.908 165.906 120.878 165.691 121.666 165.147C126.422 161.672 139.836 152.283 144.756 150.589C150.771 148.517 153.058 148.638 156.516 149.363C158.485 149.773 160.429 150.298 162.338 150.936C164.338 153.366 165.678 156.27 166.23 159.369C167.687 168.715 152.299 174.57 144.036 177.704L142.464 178.303C141.66 178.61 140.989 179.189 140.568 179.94C140.147 180.691 140.002 181.566 140.16 182.412C140.318 183.259 140.767 184.023 141.43 184.572C142.093 185.121 142.928 185.42 143.789 185.417C144.24 185.415 144.687 185.331 145.108 185.169L146.642 184.581C156.857 180.733 175.867 173.503 173.498 158.242C172.844 154.375 171.301 150.713 168.99 147.544Z" fill="white" stroke="#263238" stroke-linecap="round" stroke-linejoin="round"/>
<path d="M43.3198 147.5L44.161 152.112C57.2508 150.738 71.3247 147.654 86.1463 142.904L84.7169 138.445C70.0657 143.146 56.1843 146.175 43.3198 147.5Z" fill="#263238" stroke="#263238" stroke-linecap="round" stroke-linejoin="round"/>
<path d="M136.442 139.323C144.124 131.641 144.124 119.186 136.442 111.504C128.761 103.823 116.306 103.823 108.624 111.504C100.942 119.186 100.942 131.641 108.624 139.323C116.306 147.005 128.761 147.005 136.442 139.323Z" fill="#263238" stroke="#263238" stroke-linecap="round" stroke-linejoin="round"/>
<path d="M138.242 139.327C145.923 131.645 145.923 119.191 138.242 111.509C130.56 103.827 118.105 103.827 110.423 111.509C102.741 119.191 102.741 131.645 110.423 139.327C118.105 147.009 130.56 147.009 138.242 139.327Z" fill="white" stroke="#263238" stroke-linecap="round" stroke-linejoin="round"/>
<path d="M86.4542 143.86L84.4146 137.494C96.223 133.744 107.739 129.128 118.868 123.684L121.93 129.616C121.331 129.935 107.026 137.263 86.4542 143.86Z" fill="white" stroke="#263238" stroke-linecap="round" stroke-linejoin="round"/>
<path d="M122.535 133.382C126.935 133.382 130.501 129.815 130.501 125.416C130.501 121.016 126.935 117.45 122.535 117.45C118.136 117.45 114.569 121.016 114.569 125.416C114.569 129.815 118.136 133.382 122.535 133.382Z" fill="#263238" stroke="#263238" stroke-linecap="round" stroke-linejoin="round"/>
<path d="M123.882 133.382C128.281 133.382 131.848 129.815 131.848 125.416C131.848 121.016 128.281 117.45 123.882 117.45C119.482 117.45 115.916 121.016 115.916 125.416C115.916 129.815 119.482 133.382 123.882 133.382Z" fill="white" stroke="#263238" stroke-linecap="round" stroke-linejoin="round"/>
</svg>
